<svg width="576" height="142" viewBox="0 0 576 142" fill="none" xmlns="http://www.w3.org/2000/svg">
<path d="M12 4C12 6.1 12.5 7 13.6 7C14.7 7 15.1 7.6 14.8 8.7C5.9 41.4 3.4 49 1.8 49C0.5 49 0 49.8 0 52V55H7H14V52C14 49.6 13.6 49 11.9 49C10.1 49 9.9 48.6 10.5 45.7C12.3 37.9 12.1 38 21.3 38H29.7L31.2 43.5L32.7 49H30.4C28.4 49 28 49.5 28 52V55H35H42V52.1C42 50.1 41.4 49 40.3 48.8C38 48.4 26.6 7.7 28.6 7.2C29.4 7 30 5.6 30 3.9V1H21H12V4ZM27.4 30.2L28 33H21.5C16.3 33 15 32.7 15 31.4C15 30 19.4 13.3 20.6 10C21.1 8.7 24.8 19.7 27.4 30.2Z" fill="black"/>
<path d="M379.7 1.7C379.5 2.2 379 3.8 378.6 5.5C376.2 15.9 376.1 16 372.6 16C370.1 16 369.1 16.5 368.7 18C368.3 19.7 368.7 20 371 20C372.6 20 374.1 20.3 374.3 20.7C374.5 21.2 373.8 24.8 372.8 28.7C370.8 35.9 370.8 36 367.4 36C365.5 36 364 36.4 364 36.9C364 37.4 363.7 38.5 363.4 39.4C362.9 40.7 363.5 41 365.9 41C369.5 41 369.5 41.4 367.5 49C366.7 52 366 54.6 366 54.8C366 55 367.2 55 368.7 54.8C371.1 54.5 371.6 53.8 373 48L374.6 41.5L381.3 41.2C388.9 40.9 388.7 40.6 386.5 49C385.7 52 385 54.6 385 54.7C385 54.9 386.1 55 387.5 55C390 55 390.8 53.3 392.6 44.2C393.1 41.5 393.7 41.1 396.8 40.8C399.3 40.6 400.5 39.9 401.1 38.2C401.9 36.2 401.6 36 398.4 36C395.3 36 394.9 35.7 395.4 34C395.7 32.9 396.2 31.2 396.4 30.2C399.1 19.5 398.9 20 402.4 20C404.9 20 405.9 19.5 406.3 18C406.7 16.4 406.3 16 404.1 16C402.6 16 401.1 15.7 400.8 15.4C400.3 14.9 401.5 9.2 403.4 3.2C404.1 1.1 403.9 0.899998 401.4 1.2C399.2 1.4 398.4 2.2 397.7 5C397.3 6.9 396.4 10.2 395.9 12.2L394.9 16H388.5C381.1 16 381.1 16 383.5 7C384.3 4 385 1.4 385 1.2C385 0.599998 380.1 1.1 379.7 1.7ZM393 21.5C393 22.4 392.3 26 391.4 29.5L389.8 36H382.8C376.7 36 375.9 35.8 376.4 34.2C376.7 33.3 377.4 30.5 378 28C380.1 19.4 379.5 20 386.6 20C391.7 20 393 20.3 393 21.5Z" fill="black"/>
<path d="M420.9 4.8L414.2 8.5L415.6 11.3L417.1 14L421.4 11.5C423.7 10.1 426.2 9 426.8 9C427.7 9 428 14.5 428 29V49H423C418.1 49 418 49.1 418 52V55H431H444V52C444 49.1 443.9 49 439 49H434V25V1L430.8 1.1C429 1.1 424.5 2.8 420.9 4.8Z" fill="black"/>
<path d="M460.6 5C457.6 8.4 457 9.7 457 13.5C457 17.8 457.1 18 460 18C462.7 18 463 17.7 463 14.7C463 9.9 466.4 7 472.1 7C478.4 7 481 9.8 481 16.7C481 23.2 479.1 25 472.2 25C467.1 25 467 25.1 467 28C467 31 467 31 472.6 31C479.6 31 481.9 33.2 482 40C482 47.2 480.1 49 472.6 49C466.9 49 466.2 48.8 464.2 46C463 44.4 462 41.9 462 40.5C462 38.5 461.5 38 459.5 38C457.2 38 457 38.3 457 42.8C457 47 457.4 48 460.8 51.3C464.5 54.9 464.7 55 472.6 55C480.5 55 480.6 55 484.3 51.2C487.9 47.5 488 47.2 488 39.9C488 33.6 487.7 32 486 30.5C483.6 28.3 483.5 26.7 485.5 25C486.6 24.1 487 21.8 487 16.7C487 10.2 486.8 9.4 483.4 5.4L479.9 1H472H464.2L460.6 5Z" fill="black"/>
<path d="M507.8 18.2C501.9 28.6 498 36.5 498 38.2V41H509.5H521V45C521 48.6 520.8 49 518.5 49C516.4 49 516 49.5 516 52V55H524H532V52C532 49.4 531.6 49 529.4 49C527.1 49 526.9 48.7 527.2 45.2C527.4 42.2 527.9 41.4 529.8 41.2C531.4 41 532 40.2 532 38.5C532 36.8 531.4 36 529.8 35.8C527.5 35.5 527.5 35.3 527.2 18.2L527 1H522.2H517.5L507.8 18.2ZM521 22V36H513C508.6 36 505 35.8 505 35.5C505 34.7 520.1 8 520.6 8C520.8 8 521 14.3 521 22Z" fill="black"/>
<path d="M551.8 18.2C545.9 28.6 542 36.5 542 38.2V41H553.5H565V45C565 48.6 564.8 49 562.5 49C560.4 49 560 49.5 560 52V55H568H576V52C576 49.4 575.6 49 573.4 49C571.1 49 570.9 48.7 571.2 45.2C571.4 42.2 571.9 41.4 573.8 41.2C575.4 41 576 40.2 576 38.5C576 36.8 575.4 36 573.8 35.8C571.5 35.5 571.5 35.3 571.2 18.2L571 1H566.2H561.5L551.8 18.2ZM565 22V36H557C552.6 36 549 35.8 549 35.5C549 34.7 564.1 8 564.6 8C564.8 8 565 14.3 565 22Z" fill="black"/>
<path d="M49 11C49 13.3 49.4 14 51 14C52.9 14 53 14.7 53 31.5C53 48.3 52.9 49 51 49C49.4 49 49 49.7 49 52V55H56.5H64V52C64 49.5 63.6 49 61.5 49H59L59.1 32.2V15.5L69.1 35.2L79 55H83.5H88V34.5V14H90.5C92.6 14 93 13.5 93 11V8H85.5H78V11C78 13.3 78.4 14 80 14C81.9 14 82 14.6 81.9 30.7V47.5L71.9 27.7L62 8H55.5H49V11Z" fill="black"/>
<path d="M100 15C100 21.8 100.1 22 102.5 22C104.8 22 105 21.6 105 18V14H110H115V31.5V49H111.5C108.3 49 108 49.2 108 52V55H117.5H127V52C127 49.3 126.7 49 124 49H121V31.5V14H125.5H130V18C130 21.6 130.3 22 132.5 22C134.9 22 135 21.8 135 15V8H117.5H100V15Z" fill="black"/>
<path d="M142 11C142 13.5 142.4 14 144.5 14H147V31.5V49H144.5C142.4 49 142 49.5 142 52V55H150.5H159V52C159 49.3 158.7 49 156 49H153V31.5V14H156C158.7 14 159 13.7 159 11V8H150.5H142V11Z" fill="black"/>
<path d="M173.3 12C170.3 15.5 170 16.5 170 22.2C170 28.1 170.2 28.8 173.3 31.8C176.4 34.8 177.1 35 183.7 35C190 35 191.1 35.3 192.4 37.2C194.7 40.4 194.4 44.3 191.7 46.8C189.9 48.5 188.1 49 183.9 49C177.3 49 174 46.4 174 41.2C174 38.5 173.6 38 171.5 38C169.2 38 169 38.4 169 42.6C169 46.3 169.6 47.9 172.3 51L175.5 55H184.1H192.8L196.4 51C199.6 47.5 200 46.4 200 41.7C200 36.9 199.7 36.1 196.2 32.7C192.6 29.2 192.1 29 185.6 29C179.8 29 178.6 28.7 176.9 26.7C174.5 23.8 174.5 19.9 177.1 16.6C181.7 10.8 194 14.8 194 22.2C194 24.5 194.4 25 196.5 25C198.8 25 199 24.6 199 20.5C199 16.7 198.4 15.4 195.4 12L191.8 8H184.1H176.5L173.3 12Z" fill="black"/>
<path d="M209 11C209 13.3 209.4 14 211 14C212.9 14 213 14.7 213 30.6V47.1L216.3 51L219.5 55H228.7H238L241.5 51.2L244.9 47.5L245 30.7C245 14.7 245.1 14 247 14C248.6 14 249 13.3 249 11V8H241.5H234V11C234 13.5 234.4 14 236.5 14H239V29.8C239 48.9 238.9 49 228.8 49C219.1 49 219 48.8 219 29.7V14H221.5C223.6 14 224 13.5 224 11V8H216.5H209V11Z" fill="black"/>
<path d="M255 11C255 13.5 255.4 14 257.3 14C259.4 14 260.5 15.7 265.8 27.9C269.7 36.5 272 43.2 272 45.4C272 48.8 271.9 49 268.5 49C265.3 49 265 49.2 265 52V55H274.5H284V52C284 49.3 283.7 49 281 49C278.1 49 278 48.9 278 44.2C277.9 37.8 288.3 14 291.2 14C292.5 14 293 13.2 293 11V8H286H279V11C279 13.3 279.4 14 281 14C282.1 14 283 14.3 282.9 14.7C282.8 16.5 275.2 32.5 274.5 32.5C273.8 32.5 266.2 16.5 266.1 14.7C266 14.3 266.9 14 268 14C269.6 14 270 13.3 270 11V8H262.5H255V11Z" fill="black"/>
<path d="M304.3 12L301 15.9V31.7V47.5L304.1 51.3L307.1 55H317H326.8L329.9 51.1L333 47.2V31.4L332.9 15.5L329.5 11.7L326 8H316.7H307.5L304.3 12ZM325.2 15.7C326.8 17.1 327 19 327 31.3C327 48.6 326.8 49 317.2 49C311.8 49 310.2 48.6 308.3 46.8C306.1 44.8 306 43.9 306 32C306 20.6 306.2 19 308.1 16.6C309.9 14.3 310.8 14 316.7 14C321.5 14 323.9 14.5 325.2 15.7Z" fill="black"/>
<path d="M5 90C5 92.3 5.4 93 7 93C8.9 93 9 93.7 9 114C9 134.3 8.9 135 7 135C5.4 135 5 135.7 5 138V141H20H35V134C35 127.2 34.9 127 32.5 127C30.3 127 30 127.4 30 131V135H22.5H15V114V93H18C20.7 93 21 92.7 21 90V87H13H5V90Z" fill="black"/>
<path d="M105 90.0016C105 92.3016 105.4 93.0016 107 93.0016C108.4 93.0016 109.2 94.0016 109.9 96.7016C110.5 98.8016 113.6 109.502 116.9 120.502L122.7 140.502L127.1 140.802L131.5 141.102L138.5 117.002C144.2 97.5016 145.8 93.0016 147.3 93.0016C148.5 93.0016 149 92.2016 149 90.0016V87.0016H142H135V90.0016C135 92.3016 135.4 93.0016 137 93.0016C138.1 93.0016 139 93.3016 139 93.6016C139 96.0016 127.5 132.902 126.9 132.302C126.5 131.802 123.9 123.402 121 113.502C118.1 103.602 115.5 94.9016 115.3 94.2016C115 93.4016 115.7 93.0016 117.4 93.0016C119.6 93.0016 120 92.6016 120 90.0016V87.0016H112.5H105V90.0016Z" fill="black"/>
<path d="M49 97C49 99.1 49.5 100 50.6 100C51.5 100 52 100.6 51.7 101.2C51.5 101.9 48.9 109.8 45.9 118.7C41.7 131.6 40.2 135 38.8 135C37.5 135 37 135.8 37 138V141H44H51V138C51 135.6 50.6 135 48.9 135C47.2 135 47 134.6 47.6 132.7C49.8 125.7 49.2 126 58.3 126H66.7L67.8 129.9C69.4 134.9 69.3 135 67 135C65.4 135 65 135.7 65 138V141H72H79V138C79 135.8 78.5 135 77.3 135C75.9 135 74.3 131.3 69.9 117.5C65.8 104.8 64.6 100 65.6 100C66.5 100 67 98.9 67 97V94H58H49V97ZM64 119.7C64 120.6 62.1 121 58 121C54.7 121 52 120.7 52 120.4C52 119.4 56 106 57.2 103C58.1 100.7 58.5 101.3 61.1 109.5C62.7 114.4 64 119.1 64 119.7Z" fill="black"/>
<path d="M156 97C156 99.5 156.4 100 158.5 100H161V117.5V135H158.5C156.4 135 156 135.5 156 138V141H164.5H173V138C173 135.3 172.7 135 170 135H167V117.5V100H170C172.7 100 173 99.7 173 97V94H164.5H156V97Z" fill="black"/>
<path d="M186.3 98L183 101.9V117.7V133.5L186.1 137.3L189.1 141H198H206.8L209.9 137.1C212.4 134 213 132.2 213 128.6C213 124.4 212.8 124 210.5 124C208.3 124 208 124.4 208 127.3C208 132.5 204.7 135 197.9 135C193.4 135 191.9 134.6 190.2 132.7C188.2 130.6 188 129.3 188 117.8C188 106.6 188.2 105 190.1 102.6C191.9 100.3 192.9 100 198 100C203.1 100 204.1 100.3 205.9 102.6C207.1 104.1 208 106.6 208 108.1C208 110.5 208.4 111 210.5 111C212.8 111 213 110.7 213 106.2C213 102.2 212.4 100.9 209.5 97.7L206 94H197.7H189.5L186.3 98Z" fill="black"/>
<path d="M220 101C220 107.8 220.1 108 222.5 108C224.8 108 225 107.6 225 104V100H230H235V117.5V135H231.5C228.3 135 228 135.2 228 138V141H237.5H247V138C247 135.3 246.7 135 244 135H241V117.5V100H245.5H250V104C250 107.6 250.3 108 252.5 108C254.9 108 255 107.8 255 101V94H237.5H220V101Z" fill="black"/>
<path d="M266.3 98L263 101.9V117.7V133.5L266.1 137.3L269.1 141H279H288.8L291.9 137.1L295 133.2V117.4L294.9 101.5L291.5 97.7L288 94H278.7H269.5L266.3 98ZM287.2 101.7C288.8 103.1 289 105 289 117.3C289 134.6 288.8 135 279.2 135C273.8 135 272.2 134.6 270.3 132.8C268.1 130.8 268 129.9 268 118C268 106.6 268.2 105 270.1 102.6C271.9 100.3 272.8 100 278.7 100C283.5 100 285.9 100.5 287.2 101.7Z" fill="black"/>
<path d="M307 97C307 99.3 307.4 100 309 100C310.9 100 311 100.7 311 117.5C311 134.3 310.9 135 309 135C307.4 135 307 135.7 307 138V141H314H321V138C321 135.6 320.6 135 318.9 135C317.1 135 316.9 134.5 317.2 129.7L317.5 124.5L322.2 124.2C326.8 123.9 326.9 124 329.6 128.6C331.5 131.9 332.3 134.5 332.1 137.2L331.9 141H337.5C342.9 141 343 141 343 138C343 135.8 342.5 135 341.3 135C340.2 135 338.4 132.9 336.5 129.5L333.6 124L336.8 120.7C339.9 117.5 340 117.1 340 109.4C340 101.5 340 101.4 336.2 97.7L332.4 94H319.7H307V97ZM332.5 102.6C335.8 106.1 335.9 112.4 332.8 115.7C331 117.7 329.7 118 323.8 118H317V109.7C317 105.1 317.3 101 317.7 100.7C318 100.3 321 100 324.2 100C329.3 100 330.4 100.4 332.5 102.6Z" fill="black"/>
<path d="M353 97C353 99.5 353.4 100 355.5 100H358V117.5V135H355.5C353.4 135 353 135.5 353 138V141H361.5H370V138C370 135.3 369.7 135 367 135H364V117.5V100H367C369.7 100 370 99.7 370 97V94H361.5H353V97Z" fill="black"/>
<path d="M388 97C388 99.1 388.5 100 389.6 100C390.5 100 391 100.6 390.7 101.2C390.5 101.9 387.9 109.8 384.9 118.7C380.7 131.6 379.2 135 377.8 135C376.5 135 376 135.8 376 138V141H383H390V138C390 135.6 389.6 135 387.9 135C386.2 135 386 134.6 386.6 132.7C388.8 125.7 388.2 126 397.3 126H405.7L406.8 129.9C408.4 134.9 408.3 135 406 135C404.4 135 404 135.7 404 138V141H411H418V138C418 135.8 417.5 135 416.3 135C414.9 135 413.3 131.3 408.9 117.5C404.8 104.8 403.6 100 404.6 100C405.5 100 406 98.9 406 97V94H397H388V97ZM403 119.7C403 120.6 401.1 121 397 121C393.7 121 391 120.7 391 120.4C391 119.4 395 106 396.2 103C397.1 100.7 397.5 101.3 400.1 109.5C401.7 114.4 403 119.1 403 119.7Z" fill="black"/>
<path d="M422 137C422 140.9 422.1 141 425.5 141C428.9 141 429 140.9 429 137C429 133.1 428.9 133 425.5 133C422.1 133 422 133.1 422 137Z" fill="black"/>
</svg>
