<svg width="826" height="142" viewBox="0 0 826 142" fill="none" xmlns="http://www.w3.org/2000/svg">
<path d="M0 8C0 14.8 0.1 15 2.5 15C4.8 15 5 14.6 5 11V7H10.5H16V28V49H12.5C9.3 49 9 49.2 9 52V55H18.5H28V52C28 49.3 27.7 49 25 49H22V28V7H27H32V11C32 14.6 32.3 15 34.5 15C36.9 15 37 14.8 37 8V1H18.5H0V8Z" fill="black"/>
<path d="M263.1 4.9L260 8.8V28.2V47.5L263.1 51.3L266.1 55H275.1H284L287.5 51.2L290.9 47.5L291 37.2V27H284H277V30C277 32.9 277.2 33 281.5 33H286V38.1C286 41.6 285.4 44.1 283.9 46.1C282 48.8 281.4 49 275.6 49C270.4 49 269 48.6 267.2 46.7C265.1 44.5 265 43.4 265 28.3C265 13.6 265.2 12.1 267.1 9.6C268.9 7.3 269.8 7 275.4 7C281.1 7 281.8 7.2 283.8 10C285 11.6 286 14.1 286 15.5C286 17.5 286.5 18 288.5 18C290.8 18 291 17.7 291 13.2C291 9 290.6 8 287.2 4.7C283.4 1 283.4 1 274.8 1H266.2L263.1 4.9Z" fill="black"/>
<path d="M672.7 1.7C672.5 2.2 672 3.8 671.6 5.5C669.2 15.9 669.1 16 665.6 16C663.1 16 662.1 16.5 661.7 18C661.3 19.7 661.7 20 664 20C665.6 20 667.1 20.3 667.3 20.7C667.5 21.2 666.8 24.8 665.8 28.7C663.8 35.9 663.8 36 660.4 36C658.5 36 657 36.4 657 36.9C657 37.4 656.7 38.5 656.4 39.4C655.9 40.7 656.5 41 658.9 41C662.5 41 662.5 41.4 660.5 49C659.7 52 659 54.6 659 54.8C659 55 660.2 55 661.7 54.8C664.1 54.5 664.6 53.8 666 48L667.6 41.5L674.3 41.2C681.9 40.9 681.7 40.6 679.5 49C678.7 52 678 54.6 678 54.7C678 54.9 679.1 55 680.5 55C683 55 683.8 53.3 685.6 44.2C686.1 41.5 686.7 41.1 689.8 40.8C692.3 40.6 693.5 39.9 694.1 38.2C694.9 36.2 694.6 36 691.4 36C688.3 36 687.9 35.7 688.4 34C688.7 32.9 689.2 31.2 689.4 30.2C692.1 19.5 691.9 20 695.4 20C697.9 20 698.9 19.5 699.3 18C699.7 16.4 699.3 16 697.1 16C695.6 16 694.1 15.7 693.8 15.4C693.3 14.9 694.5 9.2 696.4 3.2C697.1 1.1 696.9 0.899998 694.4 1.2C692.2 1.4 691.4 2.2 690.7 5C690.3 6.9 689.4 10.2 688.9 12.2L687.9 16H681.5C674.1 16 674.1 16 676.5 7C677.3 4 678 1.4 678 1.2C678 0.599998 673.1 1.1 672.7 1.7ZM686 21.5C686 22.4 685.3 26 684.4 29.5L682.8 36H675.8C669.7 36 668.9 35.8 669.4 34.2C669.7 33.3 670.4 30.5 671 28C673.1 19.4 672.5 20 679.6 20C684.7 20 686 20.3 686 21.5Z" fill="black"/>
<path d="M712.8 18.2C706.9 28.6 703 36.5 703 38.2V41H714.5H726V45C726 48.6 725.8 49 723.5 49C721.4 49 721 49.5 721 52V55H729H737V52C737 49.4 736.6 49 734.4 49C732.1 49 731.9 48.7 732.2 45.2C732.4 42.2 732.9 41.4 734.8 41.2C736.4 41 737 40.2 737 38.5C737 36.8 736.4 36 734.8 35.8C732.5 35.5 732.5 35.3 732.2 18.2L732 1H727.2H722.5L712.8 18.2ZM726 22V36H718C713.6 36 710 35.8 710 35.5C710 34.7 725.1 8 725.6 8C725.8 8 726 14.3 726 22Z" fill="black"/>
<path d="M756.8 18.2C750.9 28.6 747 36.5 747 38.2V41H758.5H770V45C770 48.6 769.8 49 767.5 49C765.4 49 765 49.5 765 52V55H773H781V52C781 49.4 780.6 49 778.4 49C776.1 49 775.9 48.7 776.2 45.2C776.4 42.2 776.9 41.4 778.8 41.2C780.4 41 781 40.2 781 38.5C781 36.8 780.4 36 778.8 35.8C776.5 35.5 776.5 35.3 776.2 18.2L776 1H771.2H766.5L756.8 18.2ZM770 22V36H762C757.6 36 754 35.8 754 35.5C754 34.7 769.1 8 769.6 8C769.8 8 770 14.3 770 22Z" fill="black"/>
<path d="M796 14.5V28H805.8C814.8 28 815.8 28.2 817.8 30.3C819.6 32.2 820 33.8 820 38.6C820 46.7 817.8 49 809.9 49C803.3 49 800 46.4 800 41.2C800 38.5 799.6 38 797.5 38C795.2 38 795 38.4 795 42.6C795 46.2 795.7 47.9 798.2 51.1L801.3 55H810.1H818.8L822.4 50.8C825.9 46.8 826 46.4 826 38.8C826 31.4 825.8 30.6 822.9 27L819.7 23.1L810.6 22.8L801.5 22.5L801.2 14.7L800.9 7H810H819V11C819 14.6 819.3 15 821.5 15C823.9 15 824 14.8 824 8V1H810H796V14.5Z" fill="black"/>
<path d="M47.3 12L44 15.9V31.7V47.5L47.1 51.3L50.1 55H60H69.8L72.9 51.1L76 47.2V31.4L75.9 15.5L72.5 11.7L69 8H59.7H50.5L47.3 12ZM68.2 15.7C69.8 17.1 70 19 70 31.3C70 48.6 69.8 49 60.2 49C54.8 49 53.2 48.6 51.3 46.8C49.1 44.8 49 43.9 49 32C49 20.6 49.2 19 51.1 16.6C52.9 14.3 53.8 14 59.7 14C64.5 14 66.9 14.5 68.2 15.7Z" fill="black"/>
<path d="M88 11C88 13.3 88.4 14 90 14C91.9 14 92 14.7 92 31.5C92 48.3 91.9 49 90 49C88.4 49 88 49.7 88 52V55H95.5H103V52C103 49.5 102.6 49 100.5 49H98L98.1 32.7C98.1 23.8 98.4 16.9 98.6 17.5C98.9 18 101.7 25.2 104.9 33.5L110.7 48.5H113.9H117.2L122.7 34C125.7 26 128.6 19.1 129.1 18.5C129.6 18 130 24.2 130 33.3V49H127.5C125.4 49 125 49.5 125 52V55H132.5H140V52C140 49.7 139.6 49 138 49C136.1 49 136 48.3 136 31.5C136 14.7 136.1 14 138 14C139.6 14 140 13.3 140 11V7.9L133.4 8.2L126.7 8.5L120.6 24.7C117.2 33.7 114.2 41 113.9 41C113.6 41 110.6 33.7 107.3 24.7L101.2 8.5L94.6 8.2L88 7.9V11Z" fill="black"/>
<path d="M159 11C159 13.1 159.5 14 160.6 14C161.5 14 162 14.6 161.7 15.2C161.5 15.9 158.9 23.8 155.9 32.7C151.7 45.6 150.2 49 148.8 49C147.5 49 147 49.8 147 52V55H154H161V52C161 49.6 160.6 49 158.9 49C157.2 49 157 48.6 157.6 46.7C159.8 39.7 159.2 40 168.3 40H176.7L177.8 43.9C179.4 48.9 179.3 49 177 49C175.4 49 175 49.7 175 52V55H182H189V52C189 49.8 188.5 49 187.3 49C185.9 49 184.3 45.3 179.9 31.5C175.8 18.8 174.6 14 175.6 14C176.5 14 177 12.9 177 11V8H168H159V11ZM174 33.7C174 34.6 172.1 35 168 35C164.7 35 162 34.7 162 34.4C162 33.4 166 20 167.2 17C168.1 14.7 168.5 15.3 171.1 23.5C172.7 28.4 174 33.1 174 33.7Z" fill="black"/>
<path d="M199.3 12C196.3 15.5 196 16.5 196 22.2C196 28.1 196.2 28.8 199.3 31.8C202.4 34.8 203.1 35 209.7 35C216 35 217.1 35.3 218.4 37.2C220.7 40.4 220.4 44.3 217.7 46.8C215.9 48.5 214.1 49 209.9 49C203.3 49 200 46.4 200 41.2C200 38.5 199.6 38 197.5 38C195.2 38 195 38.4 195 42.6C195 46.3 195.6 47.9 198.3 51L201.5 55H210.1H218.8L222.4 51C225.6 47.5 226 46.4 226 41.7C226 36.9 225.7 36.1 222.2 32.7C218.6 29.2 218.1 29 211.6 29C205.8 29 204.6 28.7 202.9 26.7C200.5 23.8 200.5 19.9 203.1 16.6C207.7 10.8 220 14.8 220 22.2C220 24.5 220.4 25 222.5 25C224.8 25 225 24.6 225 20.5C225 16.7 224.4 15.4 221.4 12L217.8 8H210.1H202.5L199.3 12Z" fill="black"/>
<path d="M301 11C301 13.3 301.4 14 303 14C304.9 14 305 14.7 305 30.6V47.1L308.3 51L311.5 55H320.7H330L333.5 51.2L336.9 47.5L337 30.7C337 14.7 337.1 14 339 14C340.6 14 341 13.3 341 11V8H333.5H326V11C326 13.5 326.4 14 328.5 14H331V29.8C331 48.9 330.9 49 320.8 49C311.1 49 311 48.8 311 29.7V14H313.5C315.6 14 316 13.5 316 11V8H308.5H301V11Z" fill="black"/>
<path d="M348 15C348 21.8 348.1 22 350.5 22C352.8 22 353 21.6 353 18V14H358H363V31.5V49H359.5C356.3 49 356 49.2 356 52V55H365.5H375V52C375 49.3 374.7 49 372 49H369V31.5V14H373.5H378V18C378 21.6 378.3 22 380.5 22C382.9 22 383 21.8 383 15V8H365.5H348V15Z" fill="black"/>
<path d="M391 11C391 13.5 391.4 14 393.5 14H396V31.5V49H393.5C391.4 49 391 49.5 391 52V55H399.5H408V52C408 49.3 407.7 49 405 49H402V31.5V14H405C407.7 14 408 13.7 408 11V8H399.5H391V11Z" fill="black"/>
<path d="M418 11C418 13.3 418.4 14 420 14C421.9 14 422 14.7 422 31.5C422 48.3 421.9 49 420 49C418.4 49 418 49.7 418 52V55H433.5H449V48C449 41.2 448.9 41 446.5 41C444.3 41 444 41.4 444 45V49H436H427.9L428.2 41.7L428.5 34.5L436.3 34.2C443.7 33.9 444 33.8 444 31.5C444 29.1 443.8 29 436 29H428V21.5V14H436H444V18C444 21.6 444.3 22 446.5 22C448.9 22 449 21.8 449 15V8H433.5H418V11Z" fill="black"/>
<path d="M461 11C461 13.3 461.4 14 463 14C464.9 14 465 14.7 465 31.5C465 48.3 464.9 49 463 49C461.4 49 461 49.7 461 52V55H468H475V52C475 49.6 474.6 49 472.9 49C471.1 49 470.9 48.5 471.2 43.7L471.5 38.5L476.2 38.2C480.8 37.9 480.9 38 483.6 42.6C485.5 45.9 486.3 48.5 486.1 51.2L485.9 55H491.5C496.9 55 497 55 497 52C497 49.8 496.5 49 495.3 49C494.2 49 492.4 46.9 490.5 43.5L487.6 38L490.8 34.7C493.9 31.5 494 31.1 494 23.4C494 15.5 494 15.4 490.2 11.7L486.4 8H473.7H461V11ZM486.5 16.6C489.8 20.1 489.9 26.4 486.8 29.7C485 31.7 483.7 32 477.8 32H471V23.7C471 19.1 471.3 15 471.7 14.7C472 14.3 475 14 478.2 14C483.3 14 484.4 14.4 486.5 16.6Z" fill="black"/>
<path d="M508 11C508 13.3 508.4 14 510 14C511.9 14 512 14.7 512 31.5C512 48.3 511.9 49 510 49C508.4 49 508 49.7 508 52V55H515H522V52C522 49.6 521.6 49 519.9 49C518.1 49 517.9 48.5 518.2 43.7L518.5 38.5L523.2 38.2C527.8 37.9 527.9 38 530.6 42.6C532.5 45.9 533.3 48.5 533.1 51.2L532.9 55H538.5C543.9 55 544 55 544 52C544 49.8 543.5 49 542.3 49C541.2 49 539.4 46.9 537.5 43.5L534.6 38L537.8 34.7C540.9 31.5 541 31.1 541 23.4C541 15.5 541 15.4 537.2 11.7L533.4 8H520.7H508V11ZM533.5 16.6C536.8 20.1 536.9 26.4 533.8 29.7C532 31.7 530.7 32 524.8 32H518V23.7C518 19.1 518.3 15 518.7 14.7C519 14.3 522 14 525.2 14C530.3 14 531.4 14.4 533.5 16.6Z" fill="black"/>
<path d="M556 11C556 13.3 556.4 14 558 14C559.9 14 560 14.7 560 31.5C560 48.3 559.9 49 558 49C556.4 49 556 49.7 556 52V55H571.5H587V48C587 41.2 586.9 41 584.5 41C582.3 41 582 41.4 582 45V49H574H565.9L566.2 41.7L566.5 34.5L574.3 34.2C581.7 33.9 582 33.8 582 31.5C582 29.1 581.8 29 574 29H566V21.5V14H574H582V18C582 21.6 582.3 22 584.5 22C586.9 22 587 21.8 587 15V8H571.5H556V11Z" fill="black"/>
<path d="M598 15C598 21.8 598.1 22 600.5 22C602.8 22 603 21.6 603 18V14H612.5C617.7 14 622 14.2 622 14.5C622 14.7 616.4 22.6 609.5 31.9C599.9 44.9 597 49.6 597 52V55H613H629V48C629 41.2 628.9 41 626.5 41C624.3 41 624 41.4 624 45V49H613.9C605.9 49 604 48.7 604.8 47.7C605.3 47.1 611 39.4 617.4 30.7C626.8 17.8 629 14.2 629 11.4V8H613.5H598V15Z" fill="black"/>
<path d="M4 90C4 92.3 4.4 93 6 93C7.9 93 8 93.7 8 113.1V133.1L11.3 137L14.5 141H23.7H33L36.5 137.2L39.9 133.5L40 113.2C40 93.7 40.1 93 42 93C43.6 93 44 92.3 44 90V87H36.5H29V90C29 92.5 29.4 93 31.5 93H34V112.3C34 135.3 34.2 135 23.8 135C13.9 135 14 135.2 14 112.2V93H16.5C18.6 93 19 92.5 19 90V87H11.5H4V90Z" fill="black"/>
<path d="M185 90C185 92.3 185.4 93 187 93C188.9 93 189 93.7 189 114C189 134.3 188.9 135 187 135C185.4 135 185 135.7 185 138V141H192H199V138C199 135.7 198.6 135 197 135C195.2 135 195 134.3 195 126.9V118.9L200.2 119.2L205.3 119.5L208.6 127.2C210.4 131.5 211.5 135 211 135C210.4 135 210 136.3 210 138V141H216H222V138C222 135.7 221.5 135 220.1 135C218.8 135 217.4 133 215.1 127.5C213.4 123.4 212 119.6 212 119.1C212 118.5 213.4 116.5 215 114.7C217.8 111.5 218 110.7 218 103.1C218 95.3 217.8 94.7 214.8 91L211.5 87H198.3H185V90ZM210.9 95.6C213.8 99.3 213.8 106.8 210.9 110.4C208.9 112.9 208.3 113.1 202.1 112.8L195.5 112.5L195.2 102.7L194.9 93H201.9C208.2 93 209 93.2 210.9 95.6Z" fill="black"/>
<path d="M505.1 90.9C502.3 94.4 502 95.4 502 102.2C502 108.9 502.3 109.9 505.1 113.3C508.1 117 508.2 117 515.5 117C522 117 523.1 117.3 524.4 119.2C525.3 120.5 526 123.5 526 126C526 132.6 523.2 135 515.9 135C509.3 135 506 132.4 506 127.2C506 124.5 505.6 124 503.5 124C501.2 124 501 124.4 501 128.6C501 132.3 501.6 133.9 504.3 137L507.5 141H516.1H524.8L528.4 137C531.8 133.2 532 132.6 532 125.9C532 119.4 531.7 118.6 528.8 115C525.5 111.1 525.4 111 518.4 111C512.3 111 511 110.7 509.2 108.7C506.3 105.6 506.2 99.2 509.1 95.6C510.8 93.4 511.9 93 516.1 93C520.3 93 521.5 93.4 523.5 95.7C524.8 97.3 526 99.7 526 101.2C526 103.5 526.4 104 528.5 104C530.8 104 531 103.7 531 99.2C531 95 530.6 94 527.2 90.7C523.5 87.1 523.2 87 515.8 87H508.2L505.1 90.9Z" fill="black"/>
<path d="M55 97C55 99.3 55.4 100 57 100C58.9 100 59 100.7 59 117.5C59 134.3 58.9 135 57 135C55.4 135 55 135.7 55 138V141H62H69V138C69 135.6 68.6 135 66.9 135C65.1 135 64.9 134.5 65.2 129.7L65.5 124.5L70.2 124.2C74.8 123.9 74.9 124 77.6 128.6C79.5 131.9 80.3 134.5 80.1 137.2L79.9 141H85.5C90.9 141 91 141 91 138C91 135.8 90.5 135 89.3 135C88.2 135 86.4 132.9 84.5 129.5L81.6 124L84.8 120.7C87.9 117.5 88 117.1 88 109.4C88 101.5 88 101.4 84.2 97.7L80.4 94H67.7H55V97ZM80.5 102.6C83.8 106.1 83.9 112.4 80.8 115.7C79 117.7 77.7 118 71.8 118H65V109.7C65 105.1 65.3 101 65.7 100.7C66 100.3 69 100 72.2 100C77.3 100 78.4 100.4 80.5 102.6Z" fill="black"/>
<path d="M102 97C102 99.3 102.4 100 104 100C105.9 100 106 100.7 106 117.5C106 134.3 105.9 135 104 135C102.4 135 102 135.7 102 138V141H115.9H129.8L133.4 137C136.6 133.5 137 132.4 137 127.8C137 123.9 136.4 121.9 134.5 119.5C132.4 116.6 132.3 116 133.5 114.4C134.3 113.3 134.9 110.2 135 107C135 101.8 134.7 101.1 131.2 97.7L127.4 94H114.7H102V97ZM127.5 102.6C130.6 105.9 130.7 108.7 127.8 111.7C126 113.7 124.7 114 118.8 114H112V107.7C112 104.2 112.3 101 112.7 100.7C113 100.3 116 100 119.2 100C124.3 100 125.4 100.4 127.5 102.6ZM128.7 122.2C131.7 125 131.7 129.6 128.8 132.7C126.9 134.7 125.7 135 119.3 135H112V127.5V120H119.2C125.2 120 126.8 120.4 128.7 122.2Z" fill="black"/>
<path d="M233 97C233 99.3 233.4 100 235 100C236.9 100 237 100.7 237 117.5C237 134.3 236.9 135 235 135C233.4 135 233 135.7 233 138V141H248.5H264V134C264 127.2 263.9 127 261.5 127C259.3 127 259 127.4 259 131V135H251H242.9L243.2 127.7L243.5 120.5L251.3 120.2C258.7 119.9 259 119.8 259 117.5C259 115.1 258.8 115 251 115H243V107.5V100H251H259V104C259 107.6 259.3 108 261.5 108C263.9 108 264 107.8 264 101V94H248.5H233V97Z" fill="black"/>
<path d="M276 97C276 99.3 276.4 100 278 100C279.9 100 280 100.7 280 117.5C280 134.3 279.9 135 278 135C276.4 135 276 135.7 276 138V141H283.5H291V138C291 135.5 290.6 135 288.5 135H286L286.1 118.7C286.1 109.8 286.4 102.9 286.6 103.5C286.9 104 289.7 111.2 292.9 119.5L298.7 134.5H301.9H305.2L310.7 120C313.7 112 316.6 105.1 317.1 104.5C317.6 104 318 110.2 318 119.3V135H315.5C313.4 135 313 135.5 313 138V141H320.5H328V138C328 135.7 327.6 135 326 135C324.1 135 324 134.3 324 117.5C324 100.7 324.1 100 326 100C327.6 100 328 99.3 328 97V93.9L321.4 94.2L314.7 94.5L308.6 110.7C305.2 119.7 302.2 127 301.9 127C301.6 127 298.6 119.7 295.3 110.7L289.2 94.5L282.6 94.2L276 93.9V97Z" fill="black"/>
<path d="M339 97C339 99.5 339.4 100 341.5 100H344V117.5V135H341.5C339.4 135 339 135.5 339 138V141H347.5H356V138C356 135.3 355.7 135 353 135H350V117.5V100H353C355.7 100 356 99.7 356 97V94H347.5H339V97Z" fill="black"/>
<path d="M369.3 98L366 101.9V117.7V133.5L369.1 137.3L372.1 141H381.1H390L393.5 137.2C396.8 133.6 396.9 133.3 397 125.2V117H390H383V120C383 122.9 383.2 123 387.5 123C391.9 123 392 123.1 392 126.1C392 127.8 391.1 130.5 389.9 132.1C388 134.8 387.4 135 381.6 135C376.4 135 375 134.6 373.2 132.7C371.2 130.6 371 129.3 371 117.8C371 106.6 371.2 105 373.1 102.6C374.9 100.3 375.9 100 380.8 100C385.5 100 386.8 100.4 389.2 102.7C391 104.4 392 106.4 392 108.2C392 110.5 392.4 111 394.5 111C396.8 111 397 110.6 397 106.5C397 102.7 396.4 101.4 393.4 98L389.8 94H381.1H372.5L369.3 98Z" fill="black"/>
<path d="M407 97C407 99.5 407.4 100 409.5 100H412V117.5V135H409.5C407.4 135 407 135.5 407 138V141H415.5H424V138C424 135.3 423.7 135 421 135H418V117.5V100H421C423.7 100 424 99.7 424 97V94H415.5H407V97Z" fill="black"/>
<path d="M437.3 98L434 101.9V117.7V133.5L437.1 137.3L440.1 141H450H459.8L462.9 137.1L466 133.2V117.4L465.9 101.5L462.5 97.7L459 94H449.7H440.5L437.3 98ZM458.2 101.7C459.8 103.1 460 105 460 117.3C460 134.6 459.8 135 450.2 135C444.8 135 443.2 134.6 441.3 132.8C439.1 130.8 439 129.9 439 118C439 106.6 439.2 105 441.1 102.6C442.9 100.3 443.8 100 449.7 100C454.5 100 456.9 100.5 458.2 101.7Z" fill="black"/>
<path d="M542 97C542 99.5 542.4 100 544.5 100H547V117.5V135H544.5C542.4 135 542 135.5 542 138V141H550.5H559V138C559 135.3 558.7 135 556 135H553V117.5V100H556C558.7 100 559 99.7 559 97V94H550.5H542V97Z" fill="black"/>
<path d="M569 97C569 99.3 569.4 100 571 100C572.9 100 573 100.7 573 117.5C573 134.3 572.9 135 571 135C569.4 135 569 135.7 569 138V141H584H599V134C599 127.2 598.9 127 596.5 127C594.3 127 594 127.4 594 131V135H586.5H579V117.5V100H582C584.7 100 585 99.7 585 97V94H577H569V97Z" fill="black"/>
<path d="M599 96.9016C599 99.2016 599.5 99.9016 601.2 100.202C603 100.502 604.3 103.202 610 120.502L616.7 140.502L621.1 140.802L625.5 141.102L632.3 120.502C638.1 103.302 639.5 100.002 641.1 100.002C642.5 100.002 643 99.3016 643 97.0016V94.0016H636H629V97.0016C629 99.4016 629.4 100.002 631.1 100.002C632.4 100.002 633 100.502 632.8 101.202C632.5 101.902 629.9 109.602 627 118.202C624 126.902 621.3 133.602 620.9 133.202C620.5 132.802 617.7 125.202 614.6 116.202L609.1 100.002H611.5C613.6 100.002 614 99.5016 614 97.0016V94.0016H606.5H599V96.9016Z" fill="black"/>
<path d="M653 97C653 99.1 653.5 100 654.6 100C655.5 100 656 100.6 655.7 101.2C655.5 101.9 652.9 109.8 649.9 118.7C645.7 131.6 644.2 135 642.8 135C641.5 135 641 135.8 641 138V141H648H655V138C655 135.6 654.6 135 652.9 135C651.2 135 651 134.6 651.6 132.7C653.8 125.7 653.2 126 662.3 126H670.7L671.8 129.9C673.4 134.9 673.3 135 671 135C669.4 135 669 135.7 669 138V141H676H683V138C683 135.8 682.5 135 681.3 135C679.9 135 678.3 131.3 673.9 117.5C669.8 104.8 668.6 100 669.6 100C670.5 100 671 98.9 671 97V94H662H653V97ZM668 119.7C668 120.6 666.1 121 662 121C658.7 121 656 120.7 656 120.4C656 119.4 660 106 661.2 103C662.1 100.7 662.5 101.3 665.1 109.5C666.7 114.4 668 119.1 668 119.7Z" fill="black"/>
<path d="M145 137C145 140.9 145.1 141 148.5 141C151.9 141 152 140.9 152 137C152 133.1 151.9 133 148.5 133C145.1 133 145 133.1 145 137Z" fill="black"/>
<path d="M687 137C687 140.9 687.1 141 690.5 141C693.9 141 694 140.9 694 137C694 133.1 693.9 133 690.5 133C687.1 133 687 133.1 687 137Z" fill="black"/>
</svg>
