<svg width="1085" height="354" viewBox="0 0 1085 354" fill="none" xmlns="http://www.w3.org/2000/svg">
<path d="M86.1 3.40721C77.8 7.00721 75.7 9.30721 81.4 8.30721C84.6 7.80721 85.1 8.00721 86 10.4072C86.6 12.1072 87 26.3072 87 47.1072C87 79.7072 86.9 81.1072 85 83.0072C83.9 84.1072 82.1 85.0072 81 85.0072C79.9 85.0072 79 85.4072 79 86.0072C79 86.6072 84.2 87.0072 92.5 87.0072C100.8 87.0072 106 86.6072 106 86.0072C106 85.4072 105 85.0072 103.7 85.0072C102.5 85.0072 100.4 84.3072 99.2 83.4072C97.1 81.9072 97 81.4072 97 63.0072V44.1072L100.7 41.1072C107.2 35.8072 114.8 35.7072 117.5 41.0072C118.7 43.3072 119 47.9072 119 62.8072C119 79.8072 118.8 81.9072 117.2 83.3072C116.2 84.3072 114.4 85.0072 113.2 85.0072C112 85.0072 111 85.4072 111 86.0072C111 86.6072 116 87.0072 124 87.0072C136.3 87.0072 140.6 86.0072 134 84.6072C132 84.2072 130.6 83.2072 130 81.5072C129.4 80.0072 129 71.4072 129 62.2072C128.9 38.7072 127.5 34.0072 119.3 31.1072C113.6 29.1072 108.2 30.8072 101.9 36.7072L97 41.3072V20.6072C97 -3.19279 97.9 -1.79279 86.1 3.40721Z" fill="black"/>
<path d="M204.1 3.4072C195.6 7.1072 194.2 8.8072 199.6 8.6072C202.8 8.5072 203.5 8.9072 204.1 11.0072C205.3 15.3072 205.1 77.3072 203.9 80.9072C203.1 83.2072 202 84.3072 199.9 84.7072C193.4 86.0072 197.8 87.0072 210 87.0072C218 87.0072 223 86.6072 223 86.0072C223 85.4072 222.2 85.0072 221.2 85.0072C220.2 85.0072 218.4 84.3072 217.2 83.4072L215 81.9072V40.9072C215 -6.0928 216.2 -1.8928 204.1 3.4072Z" fill="black"/>
<path d="M240.2 1.60726C238.6 2.70726 238 4.10726 238 7.00726C238 13.2073 243.7 16.2073 247.5 12.0073C251 8.10726 248.6 0.00726298 244.1 0.00726298C243.2 0.00726298 241.4 0.707264 240.2 1.60726Z" fill="black"/>
<path d="M846.2 1.60726C844.6 2.70726 844 4.10726 844 7.00726C844 13.2073 849.7 16.2073 853.5 12.0073C857 8.10726 854.6 0.00726298 850.1 0.00726298C849.2 0.00726298 847.4 0.707264 846.2 1.60726Z" fill="black"/>
<path d="M29.6 3.90716C22.6 6.20716 14.6 11.6072 10.7 16.5072C6.19998 22.2072 2.09998 31.9072 0.999981 39.7072C-2.60002 65.3072 12.7 86.7072 35.7 88.7072C49.2 89.8072 60.6 85.1072 68.7 75.2072C75 67.5072 73 67.0072 65.7 74.4072C60.5 79.7072 58.4 81.1072 53.5 82.5072C37 87.4072 21.2 79.2072 16.3 63.2072C13.8 55.4072 13.9 35.8072 16.3 27.9072C18.7 20.0072 23.6 13.1072 29.4 9.50716C33.8 6.80716 35.2 6.50716 42.4 6.50716C49.5 6.50716 51.1 6.90716 55.3 9.30716C60.8 12.6072 65.3 18.3072 67.8 25.2072C68.7 27.8072 69.9 30.0072 70.3 30.0072C71.2 30.0072 70.3 7.20716 69.4 3.70716C68.7 1.40716 67.3 1.50716 66.5 3.90716C65.5 7.00716 62.5 7.30716 56.2 5.00716C48 1.90716 37.1 1.40716 29.6 3.90716Z" fill="black"/>
<path d="M372.3 12.7072C370.6 18.1072 369.5 22.7072 369.7 23.0072C370.3 23.5072 382.8 10.4072 386.1 5.70719L388.1 3.00719H381.7H375.3L372.3 12.7072Z" fill="black"/>
<path d="M475 4.9072C475 5.5072 476.4 6.0072 478.1 6.0072C482.6 6.0072 484.8 7.6072 486 11.8072C486.6 14.0072 487 27.8072 487 45.5072C487 63.2072 486.6 77.0072 486 79.2072C484.8 83.4072 482.6 85.0072 478.1 85.0072C476.4 85.0072 475 85.4072 475 86.0072C475 86.6072 481.5 87.0072 492.5 87.0072C503.5 87.0072 510 86.6072 510 86.0072C510 85.4072 508.5 85.0072 506.6 85.0072C504.7 85.0072 502.2 84.1072 500.9 83.1072C498.6 81.2072 498.5 80.6072 498.2 64.5072L497.9 47.9072L502.4 48.2072L506.9 48.5072L520.2 67.5072L533.5 86.5072L544.3 86.8072C550.2 86.9072 555 86.7072 555 86.2072C555 85.7072 552.9 84.7072 550.3 83.9072C547.4 83.1072 544.2 81.2072 542 79.0072C537.6 74.6072 518.8 47.9072 519.1 46.5072C519.2 45.9072 521.2 44.8072 523.6 43.9072C533.7 40.0072 538.6 33.1072 537.8 23.5072C537.2 15.9072 533.6 10.9072 526.3 7.3072C520.5 4.5072 520.4 4.5072 497.8 4.1072C481.6 3.9072 475 4.1072 475 4.9072ZM515.6 10.1072C526.4 15.3072 527.9 30.6072 518.5 38.9072C514.5 42.4072 509.5 44.0072 502.8 44.0072H498V27.1072V10.2072L500.8 9.2072C505.3 7.5072 511.1 7.9072 515.6 10.1072Z" fill="black"/>
<path d="M275 18.4072C272.2 24.3072 264.4 33.0072 261.9 33.0072C261.4 33.0072 261 33.4072 261 34.0072C261 34.5072 263 35.0072 265.4 35.0072H269.9L270.2 58.6072L270.5 82.2072L273.9 85.2072C276.8 87.8072 277.9 88.1072 281.2 87.7072C286 87.0072 289.5 84.8072 292 80.7072C294.4 76.8072 293.9 76.2072 290.4 78.9072C287.1 81.5072 283.8 81.6072 281.7 79.2072C280.2 77.6072 280 74.5072 280 56.2072V35.0072H286C291.3 35.0072 292 34.8072 292 33.0072C292 31.2072 291.3 31.0072 286 31.0072H280V21.5072C280 16.2072 279.6 12.0072 279.1 12.0072C278.5 12.0072 276.7 14.9072 275 18.4072Z" fill="black"/>
<path d="M159.8 31.4072C147.5 35.9072 142.2 46.0072 143.2 62.6072C143.8 71.9072 146 76.9072 151.9 82.3072C158.3 88.1072 167 89.5072 174.6 86.1072C179.8 83.7072 185.7 76.8072 187.4 71.0072C188.8 66.2072 188.3 63.4072 186.6 66.4072C182.9 72.6072 181.1 74.7072 178 76.2072C166.5 82.0072 153.1 72.8072 151.3 57.9072L150.7 53.0072H169.9H189.1L188.5 49.2072C187.4 42.9072 183.8 36.7072 179.4 33.7072C174.4 30.2072 165.6 29.2072 159.8 31.4072ZM171.6 37.3072C174.2 39.7072 175.3 41.6072 175.7 44.8072L176.3 49.0072H163.5H150.8L151.3 46.0072C152.7 39.4072 158.7 34.0072 164.8 34.0072C167.1 34.0072 169.1 35.0072 171.6 37.3072Z" fill="black"/>
<path d="M238.1 33.4072C229.9 37.0072 228.1 38.9072 233.1 38.7072C238.3 38.4072 239 40.8072 239 60.7072C239 81.5072 238.1 84.9072 232.3 85.0072C231 85.0072 230 85.4072 230 86.0072C230 86.6072 235.2 87.0072 243.5 87.0072C251.8 87.0072 257 86.6072 257 86.0072C257 85.4072 255.9 85.0072 254.7 85.0072C253.4 85.0072 251.6 84.2072 250.7 83.2072C249.2 81.6072 249 78.2072 249 55.7072C249 26.1072 250 28.2072 238.1 33.4072Z" fill="black"/>
<path d="M318 30.9072C309.1 33.6072 302.9 40.3072 299.8 50.3072C295.7 63.9072 300.7 78.2072 311.8 84.7072C315.8 87.1072 317.6 87.5072 324 87.5072C335.8 87.4072 342.4 83.0072 347.6 71.5072C351.3 63.4072 351.5 52.9072 348 45.6072C342.3 33.8072 329.4 27.5072 318 30.9072ZM331.6 38.1072C336.9 43.3072 339.3 50.6072 339.4 62.5072C339.4 70.4072 339 73.3072 337.5 76.4072C334.9 81.8072 330.7 84.2072 325 83.7072C315.7 82.7072 309.5 71.0072 309.5 54.5072C309.6 40.1072 314.3 33.5072 323.8 34.4072C327.1 34.7072 329 35.6072 331.6 38.1072Z" fill="black"/>
<path d="M410.5 31.4072C406.4 33.2072 402.2 38.3072 401.4 42.5072C399.8 51.2072 403.1 55.8072 416 62.6072C425.9 67.7072 429 70.9072 429 75.4072C429 82.5072 422.2 85.9072 414.3 82.9072C410.3 81.4072 405.2 76.2072 403.9 72.3072C402 66.5072 401 68.7072 401 78.5072C401 87.8072 401.4 89.2072 403.7 86.9072C404.6 86.0072 406.3 86.0072 410.6 86.9072C419.1 88.6072 423.1 88.3072 428.6 85.5072C439.7 80.0072 441.3 66.8072 431.8 59.7072C430 58.3072 424.8 55.4072 420.4 53.2072C415.9 50.9072 411.3 47.9072 410.1 46.4072C405.9 41.0072 408.6 35.3072 415.7 34.3072C423.3 33.3072 428.2 36.8072 430.9 45.2072C433 51.5072 434 49.5072 434 39.5072C434 34.3072 433.8 30.0072 433.5 30.0072C433.2 30.0072 432.1 30.5072 431.1 31.2072C429.7 32.0072 428.2 32.0072 424.7 31.2072C418.8 29.7072 414.3 29.7072 410.5 31.4072Z" fill="black"/>
<path d="M575.8 31.4072C563.5 35.9072 558.2 46.0072 559.2 62.6072C559.8 71.9072 562 76.9072 567.9 82.3072C577.2 90.7072 590 89.7072 598.3 79.9072C602.3 75.3072 605.6 66.8072 603.7 66.1072C603.1 65.9072 602.4 66.2072 602.2 66.8072C601.2 70.0072 597 74.7072 594 76.2072C582.5 82.0072 569.1 72.8072 567.3 57.9072L566.7 53.0072H585.9H605.1L604.5 49.2072C603.4 42.9072 599.8 36.7072 595.4 33.7072C590.4 30.2072 581.6 29.2072 575.8 31.4072ZM587.6 37.3072C590.2 39.7072 591.3 41.6072 591.7 44.8072L592.3 49.0072H579.5H566.8L567.3 46.0072C568.7 39.4072 574.7 34.0072 580.8 34.0072C583.1 34.0072 585.1 35.0072 587.6 37.3072Z" fill="black"/>
<path d="M630.3 31.6072C625 33.5072 618.4 39.9072 615.9 45.5072C611.6 55.2072 612.9 69.9072 618.7 78.3072C623.9 85.8072 633.4 89.3072 642 87.0072C648.2 85.4072 655.4 77.9072 657.4 70.9072C659.5 63.9072 658.3 62.7072 655.1 68.6072C651.7 74.7072 648.3 77.2072 642.2 77.8072C636.1 78.3072 632 76.4072 628.1 71.0072C624.3 65.7072 622.7 59.4072 623.2 51.8072C623.9 40.6072 629.2 34.0072 637.4 34.0072C641.9 34.0072 644.5 36.4072 645.4 41.6072C646.4 46.5072 648.6 49.0072 652 49.0072C660.9 49.0072 657.6 36.5072 647.5 31.9072C642.7 29.7072 636.1 29.6072 630.3 31.6072Z" fill="black"/>
<path d="M684.8 31.4072C672.5 35.9072 667.2 46.0072 668.2 62.6072C668.8 71.9072 671 76.9072 676.9 82.3072C686.2 90.7072 699 89.7072 707.3 79.9072C711.3 75.3072 714.6 66.8072 712.7 66.1072C712.1 65.9072 711.4 66.2072 711.2 66.8072C710.2 70.0072 706 74.7072 703 76.2072C691.5 82.0072 678.1 72.8072 676.3 57.9072L675.7 53.0072H694.9H714.1L713.5 49.2072C712.4 42.9072 708.8 36.7072 704.4 33.7072C699.4 30.2072 690.6 29.2072 684.8 31.4072ZM696.6 37.3072C699.2 39.7072 700.3 41.6072 700.7 44.8072L701.3 49.0072H688.5H675.8L676.3 46.0072C677.7 39.4072 683.7 34.0072 689.8 34.0072C692.1 34.0072 694.1 35.0072 696.6 37.3072Z" fill="black"/>
<path d="M725.5 33.4072C717.4 36.8072 714.3 39.5072 719.8 38.4072C721.8 38.0072 723.2 38.3072 724.3 39.5072C725.8 41.0072 726 44.7072 726 74.6072C726 106.707 725.9 108.107 724 110.007C722.9 111.107 720.9 112.007 719.5 112.007C718.1 112.007 717 112.407 717 113.007C717 113.607 722.3 114.007 731 114.007C739.7 114.007 745 113.607 745 113.007C745 112.407 743.9 112.007 742.5 112.007C741.1 112.007 739.1 111.107 738 110.007C736.2 108.207 736 106.707 736 95.5072V82.9072L739.1 85.2072C741.6 87.1072 743.5 87.5072 748.8 87.5072C757.2 87.5072 763.3 84.2072 767.9 77.3072C772.1 71.0072 773.4 66.0072 773.4 56.5072C773.4 43.3072 767.7 33.8072 758.1 30.9072C751.6 29.0072 747.2 30.4072 741.3 36.6072L736 42.0072V36.0072C736 31.8072 735.6 30.0072 734.8 30.0072C734.1 30.1072 729.9 31.6072 725.5 33.4072ZM754 40.5072C759.1 43.1072 762.3 50.1072 762.8 59.4072C763.3 69.9072 761.8 75.4072 757 80.2072C752.7 84.5072 748.3 85.2072 742.6 82.5072C736.9 79.8072 736 76.9072 736 60.8072V46.4072L738.8 43.8072C744.3 38.7072 748.7 37.7072 754 40.5072Z" fill="black"/>
<path d="M800.5 31.3072C791.5 34.8072 785.7 41.2072 783.3 50.2072C781.6 57.0072 781.6 61.2072 783.5 68.5072C787.2 82.7072 798.6 90.3072 811 87.0072C817.2 85.4072 824.4 77.9072 826.4 70.9072C828.5 63.9072 827.3 62.7072 824.1 68.6072C820.7 74.7072 817.3 77.2072 811.2 77.8072C805.1 78.3072 801 76.4072 797.1 71.0072C793.3 65.7072 791.7 59.4072 792.2 51.8072C792.9 40.6072 798.2 34.0072 806.4 34.0072C810.9 34.0072 813.5 36.4072 814.4 41.6072C815.4 46.5072 817.6 49.0072 821 49.0072C824.5 49.0072 826 47.3072 826 43.4072C826 34.2072 811.1 27.2072 800.5 31.3072Z" fill="black"/>
<path d="M844.1 33.4072C835.9 37.0072 834.1 38.9072 839.1 38.7072C844.3 38.4072 845 40.8072 845 60.7072C845 81.5072 844.1 84.9072 838.3 85.0072C837 85.0072 836 85.4072 836 86.0072C836 86.6072 841.2 87.0072 849.5 87.0072C857.8 87.0072 863 86.6072 863 86.0072C863 85.4072 861.9 85.0072 860.7 85.0072C859.4 85.0072 857.6 84.2072 856.7 83.2072C855.2 81.6072 855 78.2072 855 55.7072C855 26.1072 856 28.2072 844.1 33.4072Z" fill="black"/>
<path d="M890 30.9072C881.1 33.6072 874.9 40.3072 871.8 50.3072C867.7 63.9072 872.7 78.2072 883.8 84.7072C887.8 87.1072 889.6 87.5072 896 87.5072C907.8 87.4072 914.4 83.0072 919.6 71.5072C923.3 63.4072 923.5 52.9072 920 45.6072C914.3 33.8072 901.4 27.5072 890 30.9072ZM903.6 38.1072C908.9 43.3072 911.3 50.6072 911.4 62.5072C911.4 70.4072 911 73.3072 909.5 76.4072C906.9 81.8072 902.7 84.2072 897 83.7072C887.7 82.7072 881.5 71.0072 881.5 54.5072C881.6 40.1072 886.3 33.5072 895.8 34.4072C899.1 34.7072 901 35.6072 903.6 38.1072Z" fill="black"/>
<path d="M935.1 33.4072C926.8 37.0072 924.7 39.3072 930.4 38.3072C933.6 37.8072 934.1 38.0072 935 40.4072C936.3 43.9072 936.3 78.0072 935 81.5072C934.4 83.2072 933 84.2072 931 84.6072C924.3 86.0072 928.8 87.0072 941.5 87.0072C949.8 87.0072 955 86.6072 955 86.0072C955 85.4072 953.7 85.0072 952.2 85.0072C946.5 85.0072 946 83.3072 946 62.8072C946 44.9072 946.1 44.3072 948.3 42.3072C953.4 37.6072 959.9 35.8072 964 38.0072C967.2 39.7072 968 44.7072 968 63.5072C968 79.9072 967.8 81.9072 966.2 83.3072C965.2 84.3072 963.4 85.0072 962.2 85.0072C961 85.0072 960 85.4072 960 86.0072C960 86.6072 965 87.0072 973 87.0072C981 87.0072 986 86.6072 986 86.0072C986 85.4072 985.2 85.0072 984.2 85.0072C983.2 85.0072 981.5 84.4072 980.4 83.6072C978.7 82.3072 978.5 80.5072 978 61.3072C977.4 38.2072 976.8 35.7072 970.7 32.0072C964.8 28.4072 957 30.3072 949.7 37.2072L946 40.7072V35.4072C946 28.9072 945.6 28.8072 935.1 33.4072Z" fill="black"/>
<path d="M1008.8 31.4072C996.5 35.9072 991.2 46.0072 992.2 62.6072C992.8 71.9072 995 76.9072 1000.9 82.3072C1007.3 88.1072 1016 89.5072 1023.6 86.1072C1028.8 83.7072 1034.7 76.8072 1036.4 71.0072C1037.8 66.2072 1037.3 63.4072 1035.6 66.4072C1031.9 72.6072 1030.1 74.7072 1027 76.2072C1015.5 82.0072 1002.1 72.8072 1000.3 57.9072L999.7 53.0072H1018.9H1038.1L1037.5 49.2072C1036.4 42.9072 1032.8 36.7072 1028.4 33.7072C1023.4 30.2072 1014.6 29.2072 1008.8 31.4072ZM1020.6 37.3072C1023.2 39.7072 1024.3 41.6072 1024.7 44.8072L1025.3 49.0072H1012.5H999.8L1000.3 46.0072C1001.7 39.4072 1007.7 34.0072 1013.8 34.0072C1016.1 34.0072 1018.1 35.0072 1020.6 37.3072Z" fill="black"/>
<path d="M1056.5 31.4072C1052.4 33.2072 1048.2 38.3072 1047.4 42.5072C1045.8 51.2072 1049.1 55.8072 1062 62.6072C1071.9 67.7072 1075 70.9072 1075 75.4072C1075 82.5072 1068.2 85.9072 1060.3 82.9072C1056.3 81.4072 1051.2 76.2072 1049.9 72.3072C1048 66.5072 1047 68.7072 1047 78.5072C1047 87.8072 1047.4 89.2072 1049.7 86.9072C1050.6 86.0072 1052.3 86.0072 1056.6 86.9072C1065.1 88.6072 1069.1 88.3072 1074.6 85.5072C1085.7 80.0072 1087.3 66.8072 1077.8 59.7072C1076 58.3072 1070.8 55.4072 1066.4 53.2072C1061.9 50.9072 1057.3 47.9072 1056.1 46.4072C1051.9 41.0072 1054.6 35.3072 1061.7 34.3072C1069.3 33.3072 1074.2 36.8072 1076.9 45.2072C1079 51.5072 1080 49.5072 1080 39.5072C1080 34.3072 1079.8 30.0072 1079.5 30.0072C1079.2 30.0072 1078.1 30.5072 1077.1 31.2072C1075.7 32.0072 1074.2 32.0072 1070.7 31.2072C1064.8 29.7072 1060.3 29.7072 1056.5 31.4072Z" fill="black"/>
<path d="M59.2 140.907C38.8 147.907 34.7 179.607 52.9 188.907C62.4 193.807 81.1 194.307 89.1 189.907C93.9 187.307 98 180.807 98 175.807C98 172.507 95.2 171.007 89 171.007C83.1 171.007 80 172.507 80 175.407C80 180.907 75.4 188.007 71.9 188.007C69.2 188.007 62.9 182.007 60.9 177.507C58.4 172.207 58.5 164.307 61.1 157.507C63.3 151.607 69.6 144.007 72.3 144.007C75.1 144.007 79 149.807 79 154.107C79 157.407 79.4 158.207 81.6 159.007C84.4 160.107 91.3 160.307 94.8 159.407C96.5 158.907 97 158.007 97 155.407C97 150.707 94.7 145.507 91.6 143.507C84.7 139.007 68.5 137.707 59.2 140.907Z" fill="black"/>
<path d="M121.5 139.907C119.9 140.507 118.3 145.307 112.8 165.607C105.2 193.707 105.1 193.007 114.1 193.007C121 193.007 123.8 191.707 124.8 187.807L125.6 184.507H133H140.3L141.5 187.907C142.8 191.907 144.7 192.807 151.6 192.907C161 193.107 160.9 193.807 153.4 166.007C149.8 152.507 146.4 141.007 145.9 140.507C144.7 139.307 124.3 138.707 121.5 139.907ZM138.4 176.207L139 179.007H132.9C127.7 179.007 126.9 178.807 127.4 177.407C127.7 176.607 128.9 172.207 130.1 167.707C131.2 163.207 132.4 159.107 132.8 158.607C133.3 157.707 135.6 165.107 138.4 176.207Z" fill="black"/>
<path d="M169.8 140.107C168.2 141.007 168 143.307 168 166.107V191.007L170.6 192.007C172 192.607 174.9 193.007 177 193.007C179.1 193.007 182 192.607 183.4 192.007C185.9 191.107 186 190.707 186 183.007C186 178.607 186.3 175.007 186.7 175.007C187.1 175.007 191.3 178.807 196.1 183.507L204.7 192.007H211.6C215.4 192.007 219.1 191.607 219.8 191.107C221.6 190.007 218.2 186.007 207.9 177.407L199.9 170.607L203.7 169.507C215.4 166.007 224 157.707 224 150.007C224 143.007 219.5 140.007 208.1 139.307C200.8 138.807 196.4 139.707 187.8 143.507C186.5 144.007 186 143.807 186 142.607C186 141.707 184.8 140.507 183.4 140.007C180.1 138.707 172 138.807 169.8 140.107ZM206 149.107C206 153.707 203.7 158.207 199.1 162.207C195.8 165.307 194.2 166.007 191 166.007C188.8 166.007 187 165.507 187 164.907C187 161.507 203 144.207 205 145.507C205.6 145.807 206 147.507 206 149.107Z" fill="black"/>
<path d="M262.8 140.007C261.2 141.007 261 143.407 261 166.107V191.007L263.6 192.007C265 192.607 267.9 193.007 270 193.007C272.1 193.007 275 192.607 276.4 192.007C278.8 191.107 279 190.607 279 184.607V178.207L282.8 179.207C286.9 180.407 299.5 179.707 305.1 178.007C315.8 174.907 323.8 163.507 321.6 154.607C320.7 150.907 315.4 145.207 310.6 142.807C305.2 140.107 292.5 139.307 285 141.307C280.1 142.707 279.5 142.707 278.4 141.207C277 139.307 265.4 138.407 262.8 140.007ZM301.8 151.007C304.5 155.007 304.6 160.007 302.1 165.507C300 170.107 294.8 175.007 291.9 175.007C289.6 175.007 281 167.407 281 165.307C281 162.407 287.4 151.907 291.2 148.407C294.8 145.107 295.3 145.007 297.3 146.307C298.5 147.107 300.5 149.207 301.8 151.007Z" fill="black"/>
<path d="M330.8 140.107C329.2 141.007 329 143.307 329 166.107V191.007L331.6 192.007C333 192.607 335.9 193.007 338 193.007C340.1 193.007 343 192.607 344.4 192.007L347 191.007V166.007V141.007L344.4 140.007C341.1 138.707 333 138.807 330.8 140.107Z" fill="black"/>
<path d="M358.8 140.107C357.2 141.007 357 143.307 357 166.107V191.007L359.6 192.007C361 192.607 363.9 193.007 366 193.007C368.1 193.007 371 192.607 372.4 192.007C375 191.107 375 191.007 375 179.507V168.007L377 170.007C378.6 171.607 380.3 172.007 386 172.007C392.3 172.007 393.2 171.707 395.5 169.307L398 166.507V178.807C398 191.007 398 191.107 400.6 192.007C402 192.607 404.9 193.007 407 193.007C409.1 193.007 412 192.607 413.4 192.007L416 191.007V166.007V141.007L413.4 140.007C410.6 138.907 403.7 138.707 400.5 139.607C399.4 139.907 395.8 143.907 392.5 148.507C389.2 153.107 386.3 156.907 386 156.907C385.7 156.907 383.1 153.307 380.2 148.907C377.1 144.107 373.9 140.507 372.4 140.007C369.1 138.707 361 138.807 358.8 140.107Z" fill="black"/>
<path d="M427.8 140.107C426.2 141.007 426 143.307 426 166.107V191.007L428.6 192.007C431.9 193.307 465 193.307 467 192.007C470.3 189.907 466.1 188.507 455 188.207L444 187.807V183.407V179.007H450.4C464.3 179.007 465.7 174.807 452 174.107L444 173.807V158.907V144.007H453.4C458.6 144.007 464.1 143.507 465.7 142.907L468.5 141.807L465.5 140.407C461.8 138.807 430.4 138.507 427.8 140.107Z" fill="black"/>
<path d="M476.8 140.107C475.2 141.007 475 143.307 475 166.107V191.007L477.6 192.007C479 192.607 481.9 193.007 484 193.007C486.1 193.007 489 192.607 490.4 192.007L493 191.007V178.407V165.707L503 178.707C509 186.607 513.8 192.007 515.2 192.407C518.7 193.307 524.5 193.107 527.4 192.007L530 191.007V166.007V141.007L527.4 140.007C523.8 138.607 515.7 138.807 513.7 140.207C512.3 141.307 512 143.707 511.8 153.807L511.5 166.107L502.1 153.507C496.9 146.407 491.6 140.407 490.3 139.907C487.1 138.707 478.9 138.807 476.8 140.107Z" fill="black"/>
<path d="M538 140.007C536.7 140.907 536.8 141.207 538.4 142.507C539.8 143.607 542.9 144.007 548.7 144.007H557V167.507C557 189.607 557.1 191.007 558.9 192.007C561.1 193.107 568.2 193.307 571.8 192.407L574 191.807V168.007V144.207L583.4 143.807C593.5 143.507 595.6 142.707 592.6 140.407C591 139.307 585.6 139.007 565.1 139.007C549.6 139.007 538.9 139.407 538 140.007Z" fill="black"/>
<path d="M603.8 140.107C602.2 141.007 602 143.307 602 166.107V191.007L604.6 192.007C607.9 193.307 641 193.307 643 192.007C646.3 189.907 642.1 188.507 631 188.207L620 187.807V183.407V179.007H626.4C640.3 179.007 641.7 174.807 628 174.107L620 173.807V158.907V144.007H629.4C634.6 144.007 640.1 143.507 641.7 142.907L644.5 141.807L641.5 140.407C637.8 138.807 606.4 138.507 603.8 140.107Z" fill="black"/>
<path d="M652.8 140.107C651.2 141.007 651 143.307 651 166.107V191.007L653.6 192.007C656.9 193.307 690 193.307 692 192.007C695.3 189.907 691.1 188.507 680 188.207L669 187.807V164.407V141.007L666.4 140.007C663.1 138.707 655 138.807 652.8 140.107Z" fill="black"/>
<path d="M731.3 140.007C729 140.907 729 140.907 729 166.007V191.007L731.6 192.007C734.8 193.307 741.1 193.307 744.4 192.007C746.8 191.107 746.9 190.707 747.2 181.507L747.5 172.007L750.7 174.207C754.5 176.907 757.6 182.007 758.5 187.307C759.4 191.707 761.6 193.007 768.6 193.007C775.5 193.007 777.3 191.607 776.5 187.207C775 179.107 768.8 171.507 761.7 168.907L758.2 167.707L763.1 164.007C765.8 162.007 769.6 158.207 771.7 155.607C775.4 150.907 778.4 142.207 777 140.607C775.8 139.407 767.7 138.607 763.6 139.407C760.7 140.007 760 140.607 759.5 143.307C758.5 148.007 754.3 155.407 750.4 159.107L747 162.407V151.707C747 141.107 747 140.907 744.4 140.007C741.3 138.807 734.3 138.807 731.3 140.007Z" fill="black"/>
<path d="M789.8 140.107C788.2 141.007 788 143.307 788 166.107V191.007L790.6 192.007C792 192.607 794.9 193.007 797 193.007C799.1 193.007 802 192.607 803.4 192.007C806 191.107 806 191.007 806 179.507V168.007L808 170.007C809.6 171.607 811.3 172.007 817 172.007C823.3 172.007 824.2 171.707 826.5 169.307L829 166.507V178.807C829 191.007 829 191.107 831.6 192.007C833 192.607 835.9 193.007 838 193.007C840.1 193.007 843 192.607 844.4 192.007L847 191.007V166.007V141.007L844.4 140.007C841.6 138.907 834.7 138.707 831.5 139.607C830.4 139.907 826.8 143.907 823.5 148.507C820.2 153.107 817.3 156.907 817 156.907C816.7 156.907 814.1 153.307 811.2 148.907C808.1 144.107 804.9 140.507 803.4 140.007C800.1 138.707 792 138.807 789.8 140.107Z" fill="black"/>
<path d="M920 139.907L916.5 140.507L916.2 154.107C915.9 167.607 916 167.807 918.2 168.407C923.4 169.807 930.8 169.007 936.3 166.407C941.5 164.107 942.1 164.007 944.8 165.407C950.8 168.507 951.3 177.307 945.8 183.607C940.5 189.607 936.7 189.107 935.5 182.007C934.8 177.807 933.4 177.007 926.5 177.007C919.4 177.007 918 177.807 918 181.707C918 189.407 926.7 193.607 940.5 192.707C957.7 191.507 967 184.807 967 173.607C967 164.107 958.9 159.407 942.8 159.607H934V151.907V144.207L947.9 143.807C955.6 143.607 962.2 143.207 962.6 142.707C963 142.307 962.8 141.407 962.1 140.707C960.8 139.407 926.4 138.707 920 139.907Z" fill="black"/>
<path d="M1024.5 139.607C1016.6 141.607 1012.8 143.507 1010 146.607C1006.4 150.707 1006.1 154.607 1009.1 158.407C1011.3 161.207 1017.8 165.007 1020.5 165.007C1021.3 165.007 1022 165.407 1022 166.007C1022 166.507 1021.3 167.007 1020.5 167.007C1017.8 167.007 1011.3 170.807 1009.1 173.607C1005.8 177.807 1006.4 181.707 1010.9 186.007C1015.8 190.707 1022.1 192.507 1033 192.407C1046.6 192.407 1056 186.907 1056 179.007C1056 174.607 1052.8 171.107 1045.5 167.907C1040.8 165.807 1040.6 165.607 1043.1 165.007C1058.7 160.707 1060.5 148.107 1046.4 141.807C1041.8 139.807 1028.8 138.507 1024.5 139.607ZM1037.7 145.507C1041 148.807 1041.2 149.407 1040.7 153.707C1040.3 157.407 1039.5 159.107 1037.1 161.207C1033.2 164.707 1031 164.707 1027 161.307C1020.7 156.007 1021 149.107 1027.8 144.507C1032.6 141.207 1033.5 141.307 1037.7 145.507ZM1039.4 173.207C1042.5 177.607 1040.5 186.607 1036.1 189.007C1031.3 191.507 1024.9 188.407 1023 182.607C1021.4 177.507 1024.1 172.607 1030.5 169.207C1032.9 168.007 1037.1 169.807 1039.4 173.207Z" fill="black"/>
<path d="M242 181.707C233.5 185.107 236.6 192.507 246.5 192.507C254.6 192.507 258.7 187.707 254 183.507C252 181.707 244.7 180.607 242 181.707Z" fill="black"/>
<path d="M866 181.707C857.5 185.107 860.6 192.507 870.5 192.507C878.6 192.507 882.7 187.707 878 183.507C876 181.707 868.7 180.607 866 181.707Z" fill="black"/>
<path d="M983 181.707C974.5 185.107 977.6 192.507 987.5 192.507C995.6 192.507 999.7 187.707 995 183.507C993 181.707 985.7 180.607 983 181.707Z" fill="black"/>
<path d="M519.1 237.707C516.2 238.707 512.4 241.607 508 245.907C499 254.907 495.5 260.307 492.6 269.207C492.2 270.607 491.6 270.407 488.8 267.607C485.7 264.507 475.9 260.007 472.2 260.007C471.3 260.007 469.9 259.607 469.1 259.107C468.2 258.507 470.6 257.607 476.5 256.207C481.3 255.007 485.4 253.907 485.6 253.707C486.6 252.807 484.7 250.207 482.3 249.107C478.2 247.207 465.3 245.907 454.5 246.207C444.9 246.507 444.5 246.607 443.1 249.207C442.2 250.707 441.9 252.207 442.3 252.707C442.8 253.107 448.8 253.707 455.8 254.007L468.5 254.507L459.8 256.907C455 258.207 451.3 259.707 451.6 260.107C451.9 260.607 455.4 261.007 459.4 261.007C476.7 261.007 485.2 268.107 482.1 279.807C480.8 284.607 472.9 292.207 467.3 294.107C463.1 295.407 445.6 294.807 439.8 293.007C436.2 292.007 436 291.707 436 287.707C436 282.707 434.7 281.007 430.9 281.007C427.7 281.007 426.1 282.807 425.4 287.207C424.4 293.007 430.2 295.907 447.4 298.007C467 300.507 478.6 297.607 487.6 288.107L492.4 283.007L494.3 286.507C498.2 294.107 511.5 299.707 523.5 298.707C537.9 297.407 550.7 290.607 558.9 279.707C564.4 272.507 566 267.407 566 257.507C566 250.707 565.6 248.807 563.9 246.607C557.5 238.407 531.6 233.307 519.1 237.707ZM544.8 241.607C548.1 242.607 551.6 244.507 553.3 246.207C556.2 249.107 556.3 249.307 555.8 257.507C555.1 268.107 552 275.007 544.5 282.907C532 296.107 515.7 298.607 506.4 288.907C503.7 286.007 503.5 285.407 503.5 277.207C503.5 269.407 503.8 267.807 506.6 262.307C512.9 249.907 519.3 243.507 528 240.607C531.2 239.607 539.5 240.107 544.8 241.607Z" fill="black"/>
<path d="M374.6 239.107C367 240.207 361.1 243.807 356.5 249.907C352.9 254.807 348 265.607 348 268.407C348 270.507 353.9 277.007 355.7 277.007C358.3 277.007 356.3 278.607 345.2 285.307C339.2 289.007 333.6 292.807 332.7 293.807C331.1 295.607 331.1 295.807 332.6 297.107C334 298.207 340.5 298.607 364.4 298.807C395.9 299.107 402.1 298.707 400.1 296.707C399.3 295.907 391.3 295.307 374.3 295.007L349.7 294.507L355.6 290.907C358.8 288.907 368.9 282.907 377.9 277.407C397.9 265.407 404.9 259.307 405.7 253.407C406.4 247.907 404.2 244.707 397.7 241.607C391.7 238.807 383.1 237.807 374.6 239.107ZM393.5 244.407C396.6 246.507 396.8 250.707 393.9 254.407C390.6 258.607 366.5 274.007 363.3 274.007C361.8 274.007 359 266.607 359 262.807C359 255.707 366.2 246.207 373.6 243.407C378.6 241.507 390 242.107 393.5 244.407Z" fill="black"/>
<path d="M421.2 254.607C418.1 256.807 419.3 258.007 424.8 258.007C431.1 258.007 432.9 256.807 429.9 254.607C427 252.607 424.1 252.607 421.2 254.607Z" fill="black"/>
<path d="M624 258.107C618.6 258.807 605 262.307 603 263.507C602.5 263.807 602 265.107 602 266.307C602 267.507 596.6 279.307 590.1 292.507C583.5 305.707 576.9 320.107 575.5 324.507C569.2 343.307 573.4 355.307 585.8 353.507C593 352.507 600.5 348.507 603.9 343.807C607.8 338.507 612.8 326.607 614.6 318.107C616.2 310.507 616.4 287.207 615 276.207C614.4 271.307 614.4 268.207 615 266.907C617.6 262.207 630 259.607 638.5 262.007C645.7 264.007 645.8 265.307 639 268.507C632.4 271.607 625.3 278.107 624.4 281.707C622.3 289.807 639.7 294.107 649.1 287.707C654.5 284.007 658.2 278.607 658.7 273.507C659.1 270.707 659.9 268.607 660.9 268.107C664.7 266.007 678.7 264.007 689.7 263.907C696.2 263.907 702.4 263.507 703.5 263.007C705.3 262.307 705.3 262.107 702.5 261.007C700.3 260.107 695.2 260.007 682.5 260.607C658.2 261.707 654.2 261.607 647.5 259.807C640.1 257.807 631.3 257.207 624 258.107ZM648 279.607C648 282.607 642.1 287.007 638 287.007C634 287.007 636.9 283.307 643 280.607C646.8 278.907 648 278.707 648 279.607ZM605.9 305.507C606 327.507 602.8 338.507 593.8 346.507C587.1 352.607 583 350.507 583 341.207C583 335.807 590 316.007 596.3 303.407C599.3 297.407 602.3 290.907 603.1 289.007L604.5 285.507L605.2 289.507C605.6 291.707 605.9 298.907 605.9 305.507Z" fill="black"/>
<path d="M330 263.107C325.3 264.707 318.1 266.507 314 267.107C309.9 267.707 306.1 268.507 305.6 269.007C304.1 270.507 311.7 271.307 320.2 270.507L328.2 269.807L326.2 272.707C325.1 274.207 320.3 280.407 315.6 286.507C309.7 294.107 307.5 297.707 308.3 298.207C310.5 299.607 316 299.007 317.5 297.207C318.3 296.307 320.9 293.207 323.3 290.507C325.7 287.707 330.1 282.507 333.2 278.807C336.3 275.107 340.4 270.707 342.4 268.907C346.5 265.407 346.8 264.007 344.2 261.707C341.7 259.407 339.8 259.607 330 263.107Z" fill="black"/>
<path d="M710.7 268.007C708.6 268.607 705.6 269.707 704 270.507C700.2 272.507 699.7 272.407 701 270.007C701.9 268.407 701.8 268.007 700.5 268.007C698.5 268.007 677 288.807 677 290.707C677 292.307 682.3 292.507 685.3 290.907C686.5 290.207 691.3 286.607 696 282.707C705.8 274.707 715.4 269.607 718 271.007C719.6 271.907 721.1 276.007 722.5 283.807C722.9 285.707 724.2 287.707 725.6 288.607C729.7 291.307 732.5 289.707 738 281.607C746 269.707 749.7 268.407 757.1 274.807C763.1 280.007 766 281.707 773.8 284.807C779.8 287.107 781.8 287.407 792.5 287.307C802.4 287.307 806 286.807 813.5 284.607C823.2 281.807 839.8 274.007 842.5 271.007C844.1 269.307 844 269.107 842.1 268.107C839.3 266.507 835.6 267.707 828.7 272.107C822.5 276.107 810.3 281.207 802.9 282.907C790.3 285.907 776.5 282.907 768.3 275.607C761.5 269.507 757.5 267.707 750.9 267.707C744.3 267.707 737 270.807 734.5 274.707L732.8 277.207L731 274.207C729.9 272.507 728 270.407 726.7 269.507C723.6 267.507 715.7 266.807 710.7 268.007Z" fill="black"/>
<path d="M408.9 283.607C407.1 285.807 409.2 287.007 415 287.007C420.8 287.007 422.9 285.807 421.1 283.607C420.2 282.507 418.1 282.007 415 282.007C411.9 282.007 409.8 282.507 408.9 283.607Z" fill="black"/>
</svg>
