<svg width="1084" height="354" viewBox="0 0 1084 354" fill="none" xmlns="http://www.w3.org/2000/svg">
<path d="M86.1002 3.4C77.8002 7.1 75.7002 9.2 81.4002 8.3C84.6002 7.8 85.1002 8 86.0002 10.4C87.3002 13.9 87.4002 77.9 86.1002 81.3C85.5002 82.9 84.0002 84.1 82.1002 84.5C75.3002 86 79.6002 87 92.5002 87C100.8 87 106 86.6 106 86C106 85.4 104.9 85 103.5 85C102.1 85 100.1 84.1 99.0002 83C97.1002 81.1 97.0002 79.9 97.2002 62.2L97.5002 43.5L102.4 40.2C108.2 36.4 111.9 36.1 115.7 39.4L118.5 41.8L118.8 61.7C119.1 81 119.1 81.5 117 83.2C115.8 84.2 113.7 85 112.4 85C111.1 85 110 85.4 110 86C110 86.6 115.2 87 123.5 87C131.8 87 137 86.6 137 86C137 85.4 136.2 85 135.2 85C134.2 85 132.5 84.4 131.4 83.6C129.7 82.3 129.5 80.5 129 61.3C128.4 38.2 127.8 35.7 121.7 32C115.7 28.3 109.7 29.6 101.9 36.1L97.0002 40.2V20.1C97.0002 -3.2 97.9002 -1.9 86.1002 3.4Z" fill="black"/>
<path d="M204.1 3.3C196.3 6.7 193.4 9.5 198.7 8.4C204.4 7.3 204.5 7.7 204.5 46C204.5 78.8 204.4 80.9 202.6 82.9C201.5 84.1 199.9 85 198.8 85C197.8 85 197 85.4 197 86C197 86.6 202 87 210 87C218 87 223 86.6 223 86C223 85.4 222.2 85 221.2 85C220.2 85 218.4 84.3 217.2 83.4L215 81.9V40.9C215 -6.1 216.2 -2 204.1 3.3Z" fill="black"/>
<path d="M239.7 1.8C235.9 6 238.6 14 243.8 14C246.1 14 250 9.6 250 7C250 4.3 246.1 -2.08616e-07 243.6 -2.08616e-07C242.3 -2.08616e-07 240.6 0.8 239.7 1.8Z" fill="black"/>
<path d="M845.7 1.8C841.9 6 844.6 14 849.8 14C852.1 14 856 9.6 856 7C856 4.3 852.1 -2.08616e-07 849.6 -2.08616e-07C848.3 -2.08616e-07 846.6 0.8 845.7 1.8Z" fill="black"/>
<path d="M31.7 3.10111C11.3 7.90111 -2.40003 30.2011 0.899968 53.3011C3.79997 74.1011 17.4 87.4011 37 88.7011C51 89.7011 62.2 84.6011 70.1 73.7011C74.8 67.2011 72.3 67.6011 65.5 74.4011C60.3 79.8011 58.1 81.2011 53.4 82.6011C41.5 86.0011 27.9 82.0011 21.5 73.1011C16.2 65.8011 14.5 59.3011 14.5 46.0011C14.5 20.3011 24.3 6.50111 42.5 6.50111C54.6 6.50111 63.4 13.0011 67.7 25.0011C68.7 27.8011 69.9 30.0011 70.4 30.0011C70.9 30.0011 71 26.0011 70.7 20.2011C70.3 14.9011 70 8.60111 70 6.20111C70 1.30111 68.8 0.90111 65.5 4.70111C63.3 7.40111 63 7.40111 59.8 6.20111C49.8 2.20111 40.2 1.10111 31.7 3.10111Z" fill="black"/>
<path d="M372.6 11.5012C371.1 16.2012 369.7 20.7012 369.4 21.5012C367.9 25.2012 372.1 22.2012 378.5 14.8012C389.6 2.20125 389.4 3.00125 381.7 3.00125H375.2L372.6 11.5012Z" fill="black"/>
<path d="M475 4.9C475 5.5 476.1 6 477.5 6C481.4 6 485 8.1 485.8 10.9C486.7 14.3 486.7 76.7 485.8 80.1C485 82.9 481.4 85 477.5 85C476.1 85 475 85.4 475 86C475 86.6 481.5 87 492.5 87C503.5 87 510 86.6 510 86C510 85.4 508.5 85 506.6 85C504.7 85 502.2 84.1 500.9 83.1C498.6 81.2 498.5 80.6 498.2 64.6L497.8 48H502.2H506.5L520 67.5L533.5 86.9L544.8 87C555.7 87 559.3 85.9 552.8 84.5C548.1 83.4 543.9 81.1 540.8 77.7C536.7 73.4 518.7 47.3 519.1 46.3C519.3 45.9 520.9 45 522.8 44.4C533 40.8 538.6 33.1 537.8 23.5C537.2 15.9 533.6 10.9 526.3 7.3C520.5 4.5 520.4 4.5 497.8 4.2C481.7 3.9 475 4.1 475 4.9ZM513.7 9.1C518.5 10.9 522.8 15.8 524 21C527.1 33.8 517.4 44 502.3 44H498V27V10.1L501.3 9.1C505.7 7.8 510.3 7.8 513.7 9.1Z" fill="black"/>
<path d="M276.3 15.6988C273.8 21.7988 269.1 27.8988 264.9 30.6988C262.8 32.0988 261 33.6988 261 34.0988C261 34.5988 263 34.9988 265.4 34.9988H269.9L270.2 58.5988L270.5 82.1988L273.8 85.0988C279.3 89.9988 287.5 88.0988 292 80.7988C294.3 76.9988 293.1 75.8988 290.1 78.8988C287.5 81.4988 283.8 81.5988 281.7 79.1988C280.2 77.5988 280 74.4988 280 56.1988V34.9988H286C291.3 34.9988 292 34.7988 292 32.9988C292 31.1988 291.3 30.9988 286 30.9988H280V21.4988C280 11.1988 278.9 9.49883 276.3 15.6988Z" fill="black"/>
<path d="M157.4 32.3996C147.6 36.9996 142.9 45.9996 142.9 59.9996C142.9 69.1996 145.1 75.3996 150.3 80.8996C162 93.1996 181.4 88.4996 187.1 71.7996C188.9 66.4996 188.6 63.0996 186.6 66.3996C180 77.4996 173.6 80.3996 164.2 76.4996C157 73.3996 152.6 67.1996 151.4 58.0996L150.7 52.9996H170H189.2L188.5 48.6996C185.9 33.2996 171.7 25.7996 157.4 32.3996ZM172.2 37.7996C174.2 39.6996 175.3 42.0996 175.7 44.7996L176.3 48.9996H163.6C149.6 48.9996 149.8 49.1996 153 42.2996C156.8 33.7996 166.1 31.5996 172.2 37.7996Z" fill="black"/>
<path d="M238.1 33.3C230.3 36.7 227.4 39.5 232.7 38.4C237.9 37.4 238.5 39.3 238.9 58.2C239.3 81 238.4 85 232.4 85C231.1 85 230 85.4 230 86C230 86.6 235.2 87 243.5 87C251.8 87 257 86.6 257 86C257 85.4 256.2 85 255.2 85C254.2 85 252.4 84.3 251.2 83.4C249 81.9 249 81.6 249 55.9C249 26 250 28.1 238.1 33.3Z" fill="black"/>
<path d="M314.5 32.301C293.5 42.301 292.6 74.801 313 85.301C317.8 87.801 319.3 88.101 325 87.701C336 87.001 342.8 82.201 347.4 72.001C352.3 61.101 351.7 50.101 345.6 41.301C340.8 34.301 334.7 30.801 326.3 30.301C320.6 30.001 318.7 30.301 314.5 32.301ZM332.2 38.801C337 44.001 339.4 51.901 339.4 63.001C339.4 76.701 334.8 84.001 326.2 84.001C313.3 84.001 304.5 57.201 312.1 41.401C316.1 32.901 325.6 31.701 332.2 38.801Z" fill="black"/>
<path d="M410.5 31.4001C406.8 33.0001 402.3 38.2001 401.4 41.6001C400.2 46.1001 401.7 52.1001 404.6 55.2001C406.2 56.8001 411.3 60.2001 415.9 62.7001C426.5 68.5001 429 70.9001 429 75.2001C429 79.6001 426.7 82.7001 422.9 83.5001C415.5 85.1001 408.2 81.0001 404.8 73.3001C403.8 70.9001 402.5 69.0001 402 69.0001C401.4 69.0001 401 73.1001 401 78.5001C401 87.7001 401.4 89.2001 403.7 86.9001C404.4 86.2001 406.5 86.2001 410.9 87.1001C426.4 90.1001 438 83.5001 438 71.5001C438 64.0001 434.4 60.2001 421.4 53.6001C409.8 47.9001 406.5 44.0001 408.6 38.5001C409.4 36.4001 414.2 34.0001 417.5 34.0001C423.1 34.0001 427.2 37.0001 429.9 43.2001C431.3 46.4001 432.8 49.0001 433.2 49.0001C433.7 49.0001 434 44.7001 434 39.5001C434 30.2001 433.6 28.8001 431.3 31.1001C430.5 31.9001 428.8 31.9001 425 31.1001C418.4 29.7001 414.2 29.8001 410.5 31.4001Z" fill="black"/>
<path d="M573.4 32.3996C563.6 36.9996 558.9 45.9996 558.9 59.9996C558.9 69.1996 561.1 75.3996 566.3 80.8996C578 93.1996 597.4 88.4996 603.1 71.7996C604.9 66.4996 604.6 63.0996 602.6 66.3996C596 77.4996 589.6 80.3996 580.2 76.4996C573 73.3996 568.6 67.1996 567.4 58.0996L566.7 52.9996H586H605.2L604.5 48.6996C601.9 33.2996 587.7 25.7996 573.4 32.3996ZM588.2 37.7996C590.2 39.6996 591.3 42.0996 591.7 44.7996L592.3 48.9996H579.6C565.6 48.9996 565.8 49.1996 569 42.2996C572.8 33.7996 582.1 31.5996 588.2 37.7996Z" fill="black"/>
<path d="M631.6 30.9982C619.5 34.8982 611.8 48.4982 613.4 63.4982C615.7 85.6982 636.6 95.4982 651.3 81.1982C656 76.5982 661 63.9982 658.2 63.9982C657.7 63.9982 656.5 65.7982 655.5 68.0982C650.4 79.3982 635.9 81.2982 628.5 71.6982C618.5 58.4982 622.8 35.9982 635.7 34.2982C640.8 33.5982 644.5 36.4982 645.4 41.7982C645.7 43.8982 646.8 46.3982 647.9 47.3982C650.6 49.8982 655.1 49.0982 656.9 45.9982C658.1 43.6982 658.1 42.9982 656.5 39.5982C653.8 33.9982 648.4 30.8982 640.8 30.3982C637.3 30.1982 633.2 30.4982 631.6 30.9982Z" fill="black"/>
<path d="M682.4 32.3996C672.6 36.9996 667.9 45.9996 667.9 59.9996C667.9 69.1996 670.1 75.3996 675.3 80.8996C687 93.1996 706.4 88.4996 712.1 71.7996C713.9 66.4996 713.6 63.0996 711.6 66.3996C705 77.4996 698.6 80.3996 689.2 76.4996C682 73.3996 677.6 67.1996 676.4 58.0996L675.7 52.9996H695H714.2L713.5 48.6996C710.9 33.2996 696.7 25.7996 682.4 32.3996ZM697.2 37.7996C699.2 39.6996 700.3 42.0996 700.7 44.7996L701.3 48.9996H688.6C674.6 48.9996 674.8 49.1996 678 42.2996C681.8 33.7996 691.1 31.5996 697.2 37.7996Z" fill="black"/>
<path d="M725.1 33.4C717.3 36.8 714.4 39.5 719.8 38.4C721.8 38 723.2 38.3 724.3 39.5C725.8 41 726 44.7 726 74.6C726 106.7 725.9 108.1 724 110C722.9 111.1 720.9 112 719.5 112C718.1 112 717 112.4 717 113C717 113.6 722.3 114 731 114C739.7 114 745 113.6 745 113C745 112.4 743.9 112 742.5 112C741.1 112 739.1 111.1 738 110C736.2 108.2 736 106.7 736 95.5V82.9L739 85.1C743.6 88.6 751.5 88.8 758.3 85.7C781.5 75.1 777.5 30 753.4 30C748.5 30 742.6 33.5 739.3 38.4L736.5 42.4L736.2 36.2C735.8 28.8 735.8 28.8 725.1 33.4ZM754.6 40.9C759.2 43.7 762.3 50.8 762.8 59.9C763.3 69.4 761.8 75.1 757.5 79.8C754.4 83.2 753.7 83.5 748.6 83.5C743.7 83.5 742.7 83.1 739.8 80.2L736.5 77L736.2 61.9C735.9 47.3 735.9 46.7 738.2 44.3C743 39.1 749.4 37.7 754.6 40.9Z" fill="black"/>
<path d="M800.6 30.9982C788.5 34.8982 780.8 48.4982 782.4 63.4982C784.7 85.6982 805.6 95.4982 820.3 81.1982C825 76.5982 830 63.9982 827.2 63.9982C826.7 63.9982 825.5 65.7982 824.5 68.0982C819.4 79.3982 804.9 81.2982 797.5 71.6982C787.5 58.4982 791.8 35.9982 804.7 34.2982C809.8 33.5982 813.5 36.4982 814.4 41.7982C814.7 43.8982 815.8 46.3982 816.9 47.3982C819.6 49.8982 824.1 49.0982 825.9 45.9982C827.1 43.6982 827.1 42.9982 825.5 39.5982C822.8 33.9982 817.4 30.8982 809.8 30.3982C806.3 30.1982 802.2 30.4982 800.6 30.9982Z" fill="black"/>
<path d="M844.1 33.3C836.3 36.7 833.4 39.5 838.7 38.4C843.9 37.4 844.5 39.3 844.9 58.2C845.3 81 844.4 85 838.4 85C837.1 85 836 85.4 836 86C836 86.6 841.2 87 849.5 87C857.8 87 863 86.6 863 86C863 85.4 862.2 85 861.2 85C860.2 85 858.4 84.3 857.2 83.4C855 81.9 855 81.6 855 55.9C855 26 856 28.1 844.1 33.3Z" fill="black"/>
<path d="M886.5 32.301C865.5 42.301 864.6 74.801 885 85.301C889.8 87.801 891.3 88.101 897 87.701C908 87.001 914.8 82.201 919.4 72.001C924.3 61.101 923.7 50.101 917.6 41.301C912.8 34.301 906.7 30.801 898.3 30.301C892.6 30.001 890.7 30.301 886.5 32.301ZM904.2 38.801C909 44.001 911.4 51.901 911.4 63.001C911.4 76.701 906.8 84.001 898.2 84.001C885.3 84.001 876.5 57.201 884.1 41.401C888.1 32.901 897.6 31.701 904.2 38.801Z" fill="black"/>
<path d="M935.1 33.3C926.9 36.8 925 38.9 930.1 38.7C935.3 38.4 936 40.8 936 60.6C936 80.2 935.2 83.8 930.9 84.7C924.3 86 928.9 87 941.5 87C949.8 87 955 86.6 955 86C955 85.4 953.9 85 952.5 85C951.1 85 949.1 84.1 948 83C946.1 81.1 946 79.9 946.2 62.2L946.5 43.5L951.4 40.2C958.8 35.3 964.8 36 966.9 42.1C967.5 44 968 52.7 968 63.1C968 79.7 967.9 81.1 966 83C964.9 84.1 962.9 85 961.5 85C960.1 85 959 85.4 959 86C959 86.6 964.3 87 973 87C981.7 87 987 86.6 987 86C987 85.4 986 85 984.8 85C978.9 84.9 978 81.6 978 60.2C978 41.2 977.1 37 972.2 32.6C967 28.1 957.7 29.9 949.5 37.1L946 40.2V35.1C946 28.9 945.6 28.8 935.1 33.3Z" fill="black"/>
<path d="M1006.4 32.3996C996.6 36.9996 991.9 45.9996 991.9 59.9996C991.9 69.1996 994.1 75.3996 999.3 80.8996C1011 93.1996 1030.4 88.4996 1036.1 71.7996C1037.9 66.4996 1037.6 63.0996 1035.6 66.3996C1029 77.4996 1022.6 80.3996 1013.2 76.4996C1006 73.3996 1001.6 67.1996 1000.4 58.0996L999.7 52.9996H1019H1038.2L1037.5 48.6996C1034.9 33.2996 1020.7 25.7996 1006.4 32.3996ZM1021.2 37.7996C1023.2 39.6996 1024.3 42.0996 1024.7 44.7996L1025.3 48.9996H1012.6C998.6 48.9996 998.8 49.1996 1002 42.2996C1005.8 33.7996 1015.1 31.5996 1021.2 37.7996Z" fill="black"/>
<path d="M1056.5 31.4001C1052.8 33.0001 1048.3 38.2001 1047.4 41.6001C1046.2 46.1001 1047.7 52.1001 1050.6 55.2001C1052.2 56.8001 1057.3 60.2001 1061.9 62.7001C1072.5 68.5001 1075 70.9001 1075 75.2001C1075 79.6001 1072.7 82.7001 1068.9 83.5001C1061.5 85.1001 1054.2 81.0001 1050.8 73.3001C1049.8 70.9001 1048.5 69.0001 1048 69.0001C1047.4 69.0001 1047 73.1001 1047 78.5001C1047 87.7001 1047.4 89.2001 1049.7 86.9001C1050.4 86.2001 1052.5 86.2001 1056.9 87.1001C1072.4 90.1001 1084 83.5001 1084 71.5001C1084 64.0001 1080.4 60.2001 1067.4 53.6001C1055.8 47.9001 1052.5 44.0001 1054.6 38.5001C1055.4 36.4001 1060.2 34.0001 1063.5 34.0001C1069.1 34.0001 1073.2 37.0001 1075.9 43.2001C1077.3 46.4001 1078.8 49.0001 1079.2 49.0001C1079.7 49.0001 1080 44.7001 1080 39.5001C1080 30.2001 1079.6 28.8001 1077.3 31.1001C1076.5 31.9001 1074.8 31.9001 1071 31.1001C1064.4 29.7001 1060.2 29.8001 1056.5 31.4001Z" fill="black"/>
<path d="M61 139.901C48.7 143.901 41.5 154.301 41.5 168.001C41.5 183.901 50.5 191.801 69.7 192.801C79.9 193.301 86.7 192.101 91.3 188.801C94.7 186.401 97.9 179.901 98 175.401C98 171.801 96.5 171.001 88.7 171.001C82.7 171.001 80 172.401 80 175.501C80 180.901 75.4 188.001 71.9 188.001C69.2 188.001 62.9 182.001 60.9 177.501C58.6 172.601 58.5 166.001 60.5 159.301C62.3 153.301 67.1 146.401 70.6 144.801C72.8 143.801 73.4 144.001 75.6 146.201C77.3 147.801 78.3 150.201 78.7 153.101C79.4 158.601 81.1 160.001 87.4 160.001C96 160.001 97 159.401 97 154.601C97 144.601 89.6 139.801 73.5 139.301C68 139.201 62.4 139.401 61 139.901Z" fill="black"/>
<path d="M121.3 139.998C120 140.498 119 141.198 119 141.498C119 141.898 116.1 152.998 112.5 166.298C105.1 193.698 105.1 192.998 114.1 192.998C121 192.998 123.6 191.698 125 187.498L126.2 183.898L133.3 184.198C140.3 184.498 140.3 184.498 141.5 187.898C142.2 189.998 143.6 191.698 145.1 192.198C147.7 193.198 158.5 192.798 159.6 191.698C160.8 190.598 147.1 141.598 145.3 140.198C143.3 138.798 124.8 138.598 121.3 139.998ZM139 178.698C139 178.898 136.3 178.998 133.1 178.998H127.1L129.6 169.698C131 164.698 132.3 159.798 132.7 158.998C133 157.898 138.6 175.398 139 178.698Z" fill="black"/>
<path d="M169.8 140.1C168.2 141 168 143.3 168 166C168 194.4 167.5 193 177 193C185.3 193 186 192.3 186 183C186 178.6 186.3 175 186.8 175C187.2 175 191.3 178.8 196 183.5L204.5 192H211.5C215.3 192 219.2 191.6 220 191C221.8 189.9 220.6 188.4 209.5 178.7C205.1 174.8 201.4 171.4 201.2 171C201.1 170.7 203.4 169.6 206.4 168.7C213.4 166.5 221.2 159.5 223.5 153.6C225 149.8 225 148.8 223.8 146.4C220.7 139.8 207.8 137.1 195.4 140.5C191.9 141.4 188.7 142.6 188.4 143.1C187.6 144.5 186 144.1 186 142.5C186 141.7 185.1 140.6 184.1 140C181.6 138.7 172 138.7 169.8 140.1ZM206 149C206 157.3 197.9 166 190 166C188.4 166 187 165.6 187 165.2C187 161.6 202.9 144.2 205 145.5C205.6 145.8 206 147.4 206 149Z" fill="black"/>
<path d="M262.8 140.1C261.2 141 261 143.3 261 166C261 194.4 260.5 193 270 193C277.8 193 279 192 279 185.2V179.5H290.8C300.9 179.5 303.2 179.2 307.5 177.2C324.6 169.3 326.9 151.7 311.8 143.5C305.1 139.9 293.3 138.9 285.1 141.3C280.1 142.7 279.7 142.7 277.9 140.9C276.5 139.5 274.6 139 270.3 139C267.1 139 263.7 139.5 262.8 140.1ZM301.8 151C304.2 154.6 304.5 157.6 302.9 163.3C301.7 167.8 295.1 175 292.3 175C289.8 175 281 167.4 281 165.3C281 162.4 287.3 151.9 291.2 148.4C294.8 145.1 295.3 145 297.3 146.3C298.5 147.1 300.5 149.2 301.8 151Z" fill="black"/>
<path d="M330.8 140.098C329.2 140.998 329 143.298 329 165.998C329 194.398 328.5 192.998 338 192.998C347.5 192.998 347 194.498 347 165.998C347 142.398 346.9 140.998 345.1 139.998C342.6 138.698 333 138.698 330.8 140.098Z" fill="black"/>
<path d="M358.8 140.1C357.2 141 357 143.3 357 166C357 194.4 356.5 193 366 193C374.7 193 375 192.6 375 179.9V169L377.3 170.4C378.5 171.2 381.1 171.9 383 172C391.1 172.4 393.1 172 395.5 169.4L398 166.7V179.2C398 191.4 398.1 191.8 400.3 192.4C403.7 193.3 410.6 193.1 413.4 192L416 191V166V141L413.4 140C410.6 138.9 402.4 138.8 399.9 139.8C399 140.2 395.4 144.3 392 148.9L385.8 157.2L380.4 149.2C377.5 144.7 374.1 140.6 373.1 140C370.6 138.7 361 138.7 358.8 140.1Z" fill="black"/>
<path d="M427.8 140.102C426.2 141.002 426 143.302 426 166.002C426 189.602 426.1 191.002 427.9 192.002C430.4 193.302 464.9 193.302 467 192.002C468.2 191.302 468.2 190.802 467.2 189.802C466.3 188.902 462.2 188.402 455 188.202L444 187.802V183.502V179.202L452 178.902C465.7 178.202 464.3 174.002 450.4 174.002H444V159.002V144.002H453.8C467.6 144.002 471.7 142.502 464.9 140.102C460.9 138.702 430.1 138.702 427.8 140.102Z" fill="black"/>
<path d="M476.8 140.1C475.2 141 475 143.3 475 166C475 194.4 474.5 193 484 193C492.9 193 493 192.8 493 178.3V165.7L502.5 178.3C507.7 185.2 512.9 191.4 513.9 192C516.4 193.3 524.1 193.3 527.4 192L530 191V166V141L527.4 140C524.6 138.9 517.7 138.7 514.3 139.6C512.2 140.2 512 140.8 511.8 152.9L511.5 165.5L502.2 153.3C497.2 146.6 492.1 140.6 491.1 140C488.6 138.7 479 138.7 476.8 140.1Z" fill="black"/>
<path d="M538.3 139.702C536.2 140.502 536.8 142.702 539.3 143.402C540.5 143.702 545 144.002 549.3 144.002H557V167.902V191.802L559.3 192.402C562.7 193.302 569.6 193.102 572.4 192.002L575 191.002V167.502V144.002H582.9C591.6 144.002 594 143.502 594 141.502C594 140.802 593.3 139.902 592.4 139.602C590.5 138.902 540.1 138.902 538.3 139.702Z" fill="black"/>
<path d="M603.8 140.102C602.2 141.002 602 143.302 602 166.002C602 189.602 602.1 191.002 603.9 192.002C606.4 193.302 640.9 193.302 643 192.002C644.2 191.302 644.2 190.802 643.2 189.802C642.3 188.902 638.2 188.402 631 188.202L620 187.802V183.502V179.202L628 178.902C641.7 178.202 640.3 174.002 626.4 174.002H620V159.002V144.002H629.8C643.6 144.002 647.7 142.502 640.9 140.102C636.9 138.702 606.1 138.702 603.8 140.102Z" fill="black"/>
<path d="M652.8 140.102C651.2 141.002 651 143.302 651 166.002C651 189.602 651.1 191.002 652.9 192.002C655.4 193.302 689.9 193.302 692 192.002C693.2 191.302 693.2 190.802 692.2 189.802C691.3 188.902 687.2 188.402 680 188.202L669 187.802V164.402C669 142.402 668.9 141.002 667.1 140.002C664.6 138.702 655 138.702 652.8 140.102Z" fill="black"/>
<path d="M730.8 140.098C729.2 140.998 729 143.298 729 165.998C729 194.498 728.5 192.998 738.2 192.998C746.3 192.998 746.9 192.198 747.2 181.098L747.5 171.598L751.3 174.998C755.7 178.798 757.5 181.998 758.5 187.398C759.4 191.698 761.6 192.998 768.3 192.998C777.8 192.998 779 190.798 774.6 181.498C772 175.898 768.3 172.098 762.7 169.298L758.9 167.398L763.6 163.998C766.1 162.098 769.8 158.298 771.7 155.698C775.6 150.398 778.6 142.198 777.1 140.698C775.8 139.398 767.8 138.598 763.7 139.398C760.8 139.898 760.1 140.598 759.1 144.298C757.4 149.898 753.9 155.798 750.1 159.398L747 162.398V151.698C747 142.198 746.8 140.998 745.1 139.998C742.6 138.698 733 138.698 730.8 140.098Z" fill="black"/>
<path d="M789.8 140.1C788.2 141 788 143.3 788 166C788 194.4 787.5 193 797 193C805.7 193 806 192.6 806 179.9V169L808.3 170.4C809.5 171.2 812.1 171.9 814 172C822.1 172.4 824.1 172 826.5 169.4L829 166.7V179.2C829 191.4 829.1 191.8 831.3 192.4C834.7 193.3 841.6 193.1 844.4 192L847 191V166V141L844.4 140C841.6 138.9 833.4 138.8 830.9 139.8C830 140.2 826.4 144.3 823 148.9L816.8 157.2L811.4 149.2C808.5 144.7 805.1 140.6 804.1 140C801.6 138.7 792 138.7 789.8 140.1Z" fill="black"/>
<path d="M919.5 139.902L916.5 140.502L916.2 154.202L915.9 167.902L919.4 168.502C924.6 169.502 931.8 168.602 937.7 166.202L943 164.002L946 166.802C950.1 170.502 950.7 174.402 947.8 179.902C943.1 188.902 936.8 190.402 936.2 182.602C935.8 178.302 933.5 177.002 926.7 177.002C917.8 177.002 915.8 179.002 918.7 184.902C921.7 190.902 925.8 192.502 938 192.402C946.3 192.402 949.6 191.902 954.1 190.202C963.9 186.302 969 178.302 966.8 170.402C964.7 162.802 957.4 159.502 942.8 159.502H934V151.802V144.002H947.3C961.4 144.002 965 143.102 961.6 140.502C960 139.302 956 139.002 941.1 139.102C930.9 139.202 921.2 139.502 919.5 139.902Z" fill="black"/>
<path d="M1023.5 139.6C1017.1 141.3 1014.3 142.6 1010.9 145.7C1007.9 148.4 1007 150 1007 152.5C1007 157.8 1012.3 162.9 1020 165C1022.3 165.6 1022.1 165.9 1017.2 168C1007.1 172.4 1004.4 179 1010 185.4C1014.6 190.5 1020.6 192.5 1032 192.5C1039.5 192.4 1042.5 192 1046.2 190.3C1053.2 187.1 1056 183.9 1056 179.2C1056 174.4 1051.7 169.6 1045.8 167.8C1041.3 166.5 1041 165.5 1044.7 164.5C1047.6 163.8 1052.8 160.5 1054.7 158C1055.4 157.2 1056 154.8 1056 152.7C1056 145.3 1047.1 140 1033.6 139.4C1029.1 139.3 1024.6 139.3 1023.5 139.6ZM1037.7 145.5C1041 148.8 1041.2 149.4 1040.7 153.6C1039.7 162.6 1032 166.3 1026.1 160.6C1022.5 157.1 1021.7 153.5 1023.7 149.3C1025.2 146.1 1030.3 142 1032.9 142C1033.6 142 1035.8 143.6 1037.7 145.5ZM1036.6 170.5C1041.7 174 1042.1 183 1037.5 187.6C1034.7 190.4 1032.1 190.6 1027.9 188.4C1024.3 186.6 1022 181.7 1022.7 177.8C1023.4 174.4 1029.3 169 1032.3 169C1033.5 169 1035.5 169.7 1036.6 170.5Z" fill="black"/>
<path d="M242 181.702C239.4 182.702 237 185.202 237 187.002C237 191.702 247 194.602 252.8 191.602C257.2 189.302 257.3 184.702 253 182.502C250.1 181.002 244.9 180.602 242 181.702Z" fill="black"/>
<path d="M866 181.702C863.4 182.702 861 185.202 861 187.002C861 191.702 871 194.602 876.8 191.602C881.2 189.302 881.3 184.702 877 182.502C874.1 181.002 868.9 180.602 866 181.702Z" fill="black"/>
<path d="M983 181.702C980.4 182.702 978 185.202 978 187.002C978 191.702 988 194.602 993.8 191.602C998.2 189.302 998.3 184.702 994 182.502C991.1 181.002 985.9 180.602 983 181.702Z" fill="black"/>
<path d="M436 234.098C428.6 236.298 416.2 248.798 410.7 259.498C407.2 266.398 405.9 277.298 407.9 283.298C409.5 288.098 416.8 294.398 423.6 296.998C438 302.398 457.5 296.698 469.9 283.498C476.6 276.298 479.6 270.798 481.1 262.498C483.8 247.698 479.9 240.998 465.8 236.398C456.5 233.498 441.9 232.298 436 234.098ZM459.8 241.598C463.1 242.598 466.6 244.498 468.3 246.198C471.2 249.098 471.3 249.298 470.7 256.698C469.3 274.798 454.5 290.398 437.4 291.798C429.8 292.398 422.9 289.498 419.9 284.598C417.6 280.798 417.4 273.298 419.5 266.398C421 261.298 428.7 249.398 433.3 245.198C438.6 240.298 449.9 238.698 459.8 241.598Z" fill="black"/>
<path d="M510 234.098C502.6 236.298 490.2 248.798 484.7 259.498C481.2 266.398 479.9 277.298 481.9 283.298C483.5 288.098 490.8 294.398 497.6 296.998C512 302.398 531.5 296.698 543.9 283.498C550.6 276.298 553.6 270.798 555.1 262.498C557.8 247.698 553.9 240.998 539.8 236.398C530.5 233.498 515.9 232.298 510 234.098ZM533.8 241.598C537.1 242.598 540.6 244.498 542.3 246.198C545.2 249.098 545.3 249.298 544.7 256.698C543.3 274.798 528.5 290.398 511.4 291.798C503.8 292.398 496.9 289.498 493.9 284.598C491.6 280.798 491.4 273.298 493.5 266.398C495 261.298 502.7 249.398 507.3 245.198C512.6 240.298 523.9 238.698 533.8 241.598Z" fill="black"/>
<path d="M343.3 237.4C336.5 239.1 330.8 242.9 326.5 248.8C322.2 254.7 322.1 257.1 326.3 261.5C330.1 265.5 333.7 266.7 336.4 264.7C338.3 263.3 338.3 263.2 336.2 260.5C333 256.4 333.4 253.4 337.8 249C342.8 243.9 350.9 241.5 359.8 242.3C368 243.1 371 245 371 249.2C371 253.4 365.2 258.8 353.6 265.5C331.3 278.5 312.7 289.8 309.4 292.4C306.1 295 305.9 295.4 307.4 296.9C308.9 298.3 312.8 298.5 341.5 298.5C375.8 298.5 378.6 298.1 374.7 294.2C373.1 292.7 370.2 292.5 348.9 292.2L324.8 291.9L332.7 287.1C337 284.4 346.4 278.8 353.6 274.5C375.1 261.9 381 256.5 381 249.3C381 244.5 376.1 239.7 369 237.6C362.7 235.7 350.7 235.6 343.3 237.4Z" fill="black"/>
<path d="M395.4 252.099C391.3 256.699 400.5 260.499 405 255.999C407.1 253.899 407.1 253.699 405.4 251.899C403.1 249.299 397.8 249.399 395.4 252.099Z" fill="black"/>
<path d="M608.5 256.5C605.8 257.3 601.5 258.5 599 259.1C593.6 260.5 592 261.6 592 264.1C592 265.1 586.6 277.1 580.1 290.7C563.9 324.4 560.3 336 563 345.9C564.3 350.7 568.5 354 573.4 354C583.5 354 593.3 347.2 598.2 336.9C604.1 324.4 605.3 318.7 605.7 301C606 291.9 605.7 281 605.2 276.6C604.6 272.3 604.4 268.1 604.7 267.4C605 266.6 606.8 265 608.8 263.8C611.8 261.9 613.9 261.5 620 261.5C627.2 261.5 634 263.3 634 265.1C634 265.6 631.3 267.3 628 269C621.3 272.4 615.3 277.9 614.4 281.5C612.4 289.7 626.7 293.9 637.8 288.4C643.7 285.5 649 278.5 649 273.6C649 269 649.9 268.2 657 266.5C664 264.9 682 263.3 682 264.3C682 264.7 679.9 267.8 677.4 271.2C669.6 281.9 665.8 289 667.1 290.6C668.5 292.3 672.4 292.4 675.3 290.8C676.5 290.2 680.7 287.1 684.5 283.9C693.6 276.4 702.7 271 706.2 271C708.2 271 709.3 271.8 710.5 274C711.3 275.6 712 277.8 712 278.8C712 282.8 714.2 286.9 716.8 287.8C720.9 289.2 723.1 287.8 727.8 281.2C736 269.5 739.7 268.5 748.1 275.7C757.2 283.5 769.6 288 781.8 288C796.9 287.9 815.9 279.6 829.3 267.2C834.5 262.3 835.1 260.3 831.8 259.1C828.1 257.7 825.2 259.1 818.1 265.4C806.3 275.9 788.7 283.1 777.8 281.7C770.7 280.9 762.4 277.1 757.1 272.4C751.3 267.2 746.6 265 741.2 265C735.8 265 728.2 267.4 725.4 270.1L723.1 272.3L719.5 269.2C717.6 267.4 714.8 265.7 713.4 265.4C709.3 264.4 699.7 265.6 694.6 267.8C689.3 270.2 689.4 269.6 694.9 262.6C696.7 260.4 697.9 257.9 697.8 257.1C697.4 255 692.4 254.5 689.7 256.3C688.2 257.2 682.9 257.9 673 258.3C665 258.7 656 259.6 652.9 260.4C647.7 261.7 646.9 261.6 642.9 259.8C632.4 255.1 618.3 253.8 608.5 256.5ZM638 274.7C638 276.4 633.9 282 631.6 283.6C628.9 285.3 626 284.9 626 282.9C626 281 633.9 274 636 274C637.1 274 638 274.3 638 274.7ZM595.9 296.6C596.2 317 587.2 343.6 578.7 347.1C574.6 348.8 573.5 347.2 573.6 339.2C573.7 330.9 577.6 319 585.9 301.7C589.1 295 592.3 287.9 593.1 286L594.5 282.5L595.1 285.5C595.5 287.1 595.8 292.2 595.9 296.6Z" fill="black"/>
<path d="M385.3 279.201C382.5 280.601 382.4 282.401 385 285.001C387.4 287.401 391.7 287.601 394.8 285.401C401.1 281.001 392.8 275.601 385.3 279.201Z" fill="black"/>
</svg>
