<svg width="1519" height="252" viewBox="0 0 1519 252" fill="none" xmlns="http://www.w3.org/2000/svg">
<path d="M0 5.0061V10.0061H259.5H519V5.0061V0.00610337H259.5H0V5.0061Z" fill="black"/>
<path d="M1000 5.0061V10.0061H1259.5H1519V5.0061V0.00610337H1259.5H1000V5.0061Z" fill="black"/>
<path d="M888.2 8.90698C886.2 10.907 883.6 12.107 880.3 12.707C874.3 13.707 832 13.807 822.4 12.807C817.2 12.207 814.9 12.407 813.6 13.307C811.5 14.807 794.8 70.907 795.2 75.007C795.7 79.207 800.5 78.907 809.2 74.107C821.2 67.607 828.1 65.707 838 66.307C861.2 67.607 880.2 85.107 877.5 102.807C874.2 125.007 841 146.507 815.5 142.907C803.2 141.207 793.9 136.107 788.8 128.107C786.1 123.907 785.9 122.907 786.3 116.807C787.2 102.307 798 93.007 814 93.007C817 93.007 821.3 93.507 823.5 94.107C828.8 95.607 834 100.907 834 104.907C834 109.707 838.9 111.507 843 108.207C844.8 106.707 845.1 105.907 844.5 102.607C842.6 92.807 830.4 86.007 814.6 86.007C796.6 86.007 782 94.407 777.1 107.607C772.2 120.707 775.8 131.407 788.1 140.007C814.8 158.707 865 154.807 892.7 131.807C909 118.207 914.4 100.807 906.9 85.207C903.9 78.907 894.9 70.207 887.5 66.307C884.2 64.507 877.4 61.907 872.5 60.407C864.6 58.007 861.7 57.707 848.4 57.607L833.3 57.507L837 43.507C839.1 35.807 841.3 27.607 841.9 25.407L843 21.307L862.3 20.707C887.2 20.007 897.1 17.507 898.6 11.407C900 5.70698 893.3 4.10698 888.2 8.90698Z" fill="black"/>
<path d="M675 15.1072C643.2 23.4072 618 51.0072 611.4 84.8072C606.4 110.607 616.6 132.507 638.4 143.007C650.3 148.607 659.7 150.507 676.5 150.407C693.7 150.307 702 148.307 716.8 140.907C739.5 129.507 755.3 108.707 759.5 84.4072C764.8 54.1072 755.9 29.0072 737.4 22.0072C710.8 12.1072 683 29.2072 681.2 56.6072C680.4 69.0072 685.4 77.3072 696.1 81.4072C702.3 83.8072 713.3 83.3072 713.8 80.6072C714.4 77.9072 713 77.1072 706.5 76.0072C697.5 74.5072 693.4 70.9072 692 63.0072C689.6 50.1072 697.8 35.2072 710.5 28.9072C716.4 26.0072 717.6 25.8072 723.6 26.3072C731.8 26.9072 738 30.5072 742.6 37.3072C747.4 44.3072 749.2 50.8072 749.7 64.1072C750.8 89.3072 743 108.707 725.3 124.907C706.6 142.107 681.4 144.807 662 131.807C654.6 126.907 647.7 118.507 645.3 111.507C642.7 104.107 643 88.8072 645.9 78.6072C650.2 63.0072 658.8 49.2072 671.2 37.5072C679.9 29.2072 688.9 23.7072 698.3 20.8072C705.4 18.7072 707.1 17.0072 705 14.5072C703.1 12.2072 684.6 12.6072 675 15.1072Z" fill="black"/>
<path d="M128 51.6063C122.2 54.1063 117.1 56.5063 116.7 57.0063C116.2 57.4063 116.1 58.7063 116.5 59.9063C117.1 61.8063 117.9 62.0063 125.6 62.0063C132.3 62.0063 135 61.5063 138.3 59.9063C140.6 58.7063 142.7 57.6063 142.9 57.4063C143.4 56.9063 139.9 47.0063 139.2 47.1063C138.8 47.1063 133.8 49.2063 128 51.6063Z" fill="black"/>
<path d="M1057 72.5071L1048 80.0071V88.0071V96.0071H1055.5H1063V90.1071V84.2071L1068.1 80.1071L1073.3 76.0071H1085.7H1098.2L1103.1 79.6071L1108 83.2071V92.4071V101.607L1078 127.307L1048 153.007V158.507V164.007H1087H1126V151.007V138.007H1119.5H1113V145.507C1113 150.707 1112.6 153.207 1111.7 153.607C1111 153.807 1100.6 153.907 1088.5 153.807L1066.6 153.507L1095 129.507L1123.5 105.407L1123.8 92.8071L1124.1 80.1071L1115 72.5071L1105.9 65.0071H1086H1066.1L1057 72.5071Z" fill="black"/>
<path d="M1166.8 72.1071L1158 79.2071V114.507V149.807L1166.8 156.907L1175.5 164.007H1199.5H1223.6L1232.3 156.907L1241 149.807V114.407V79.1071L1232.3 72.0071L1223.5 65.0071H1199.5H1175.5L1166.8 72.1071ZM1221.7 80.0071L1227 84.1071V114.407V144.807L1221.7 148.907L1216.3 153.007H1199.5H1182.7L1177.9 149.307L1173 145.607V114.507V83.4071L1177.8 79.8071L1182.5 76.1071H1199.4L1216.3 76.0071L1221.7 80.0071Z" fill="black"/>
<path d="M1191 114.507V122.007H1199.5H1208V114.507V107.007H1199.5H1191V114.507Z" fill="black"/>
<path d="M1280 72.5071L1271 80.0071V88.0071V96.0071H1278.5H1286V90.1071V84.2071L1291.1 80.1071L1296.3 76.0071H1309H1321.7L1326.3 79.6071L1331 83.3071V92.4071V101.607L1301 127.307L1271 153.007V158.507V164.007H1310H1349V151.007V138.007H1342.5H1336V145.507C1336 150.707 1335.6 153.207 1334.7 153.607C1334 153.807 1323.6 153.907 1311.5 153.807L1289.6 153.507L1318 129.507L1346.5 105.407L1346.8 92.8071L1347.1 80.1071L1338 72.5071L1328.9 65.0071H1309H1289.1L1280 72.5071Z" fill="black"/>
<path d="M1391 72.5071L1382 80.0071V88.0071V96.0071H1389.5H1397V90.1071V84.2071L1402.1 80.1071L1407.3 76.0071H1420H1432.7L1437.3 79.6071L1442 83.3071V92.4071V101.607L1412 127.307L1382 153.007V158.507V164.007H1421H1460V151.007V138.007H1453.5H1447V145.507C1447 150.707 1446.6 153.207 1445.7 153.607C1445 153.807 1434.6 153.907 1422.5 153.807L1400.6 153.507L1429 129.507L1457.5 105.407L1457.8 92.8071L1458.1 80.1071L1449 72.5071L1439.9 65.0071H1420H1400.1L1391 72.5071Z" fill="black"/>
<path d="M28.6 77.4071L22 84.7071V97.4071V110.107L28.2 117.107L34.4 124.007H47.5H60.6L63.8 127.307C67 130.607 67 130.707 67 140.807C67 150.707 66.9 151.007 63.9 154.507L60.8 158.007H50.1H39.4L35.2 153.707C31.3 149.707 31 149.107 31 143.707V138.007H26H21V146.407V154.807L27.6 161.907L34.2 169.007H49.9H65.7L72.3 161.607L79 154.207V140.807V127.407L72.4 120.207L65.8 113.007H52.5H39.2L36.6 109.907C34.2 107.107 34 106.107 34 97.1071C34 87.4071 34 87.4071 37.3 84.2071C40.5 81.1071 40.8 81.0071 50.1 81.0071H59.6L63.3 85.4071C66.6 89.4071 67 90.5071 67 95.4071V101.007H72H77V92.4071V83.9071L70.8 76.9071L64.5 70.0071H49.8H35.2L28.6 77.4071Z" fill="black"/>
<path d="M113 75.5071C113 80.8071 113.1 81.0071 115.6 81.0071C117.8 81.0071 118.1 81.3071 117.6 83.2071C117.3 84.5071 112.4 101.907 106.6 122.007L96.3 158.507L93.1 158.807C90.1 159.107 90 159.307 90 164.107V169.007H103.5H117V164.007V159.007H112.5C110 159.007 108 158.707 108 158.407C108 158.007 109.2 153.307 110.7 147.807L113.5 138.007L129.4 138.207L145.4 138.507L148.1 147.907C149.6 153.107 150.7 157.807 150.4 158.207C150.1 158.607 148.1 159.007 145.9 159.007H142V164.007V169.007H155.5H169V164.107C169 159.207 168.9 159.107 165.8 158.807L162.6 158.507L151.8 121.007C145.9 100.407 141 82.9071 141 82.2071C141 81.6071 142.1 81.0071 143.5 81.0071C145.9 81.0071 146 80.7071 146 75.5071V70.0071H129.5H113V75.5071ZM135.9 105.007C139.2 116.907 142 126.907 142 127.307C142 127.707 136.4 128.007 129.5 128.007C121.6 128.007 117 127.607 117 127.007C117 126.407 119.5 117.107 122.5 106.207C129.3 82.3071 129.1 82.8071 129.5 83.2071C129.6 83.4071 132.5 93.2071 135.9 105.007Z" fill="black"/>
<path d="M181.2 75.2071L181.5 80.5071L185.8 80.8071L190 81.1071L189.8 119.807L189.5 158.507L185.3 158.807L181 159.107V164.107V169.007H207.4H233.8L240.4 161.807L247 154.607V140.107V125.607L242.4 120.907L237.7 116.107L241.4 111.907L245 107.607V96.4071V85.1071L238.3 77.6071L231.7 70.0071H206.3H180.9L181.2 75.2071ZM230.4 85.4071C233.8 89.5071 234 90.3071 234 96.7071C234 103.507 233.9 103.607 229.7 107.807L225.4 112.107L213.4 111.807L201.5 111.507L201.2 97.5071C201.1 89.9071 201.2 83.0071 201.4 82.3071C201.8 81.3071 205.1 81.0071 214.3 81.0071H226.8L230.4 85.4071ZM232.4 126.407C236 130.707 236 130.707 236 140.707V150.607L232.2 154.307L228.4 158.107L214.9 157.807L201.5 157.507L201.2 139.707L201 122.007H214.9H228.9L232.4 126.407Z" fill="black"/>
<path d="M282 75.5071C282 80.8071 282.1 81.0071 284.6 81.0071C286.8 81.0071 287.1 81.3071 286.6 83.2071C286.3 84.5071 281.4 101.907 275.6 122.007L265.3 158.507L262.1 158.807C259.1 159.107 259 159.307 259 164.107V169.007H272.5H286V164.007V159.007H281.5C279 159.007 277 158.707 277 158.407C277 158.007 278.2 153.307 279.7 147.807L282.5 138.007L298.4 138.207L314.4 138.507L317.1 147.907C318.6 153.107 319.7 157.807 319.4 158.207C319.1 158.607 317.1 159.007 314.9 159.007H311V164.007V169.007H324.5H338V164.107C338 159.207 337.9 159.107 334.8 158.807L331.6 158.507L320.8 121.007C314.9 100.407 310 82.9071 310 82.2071C310 81.6071 311.1 81.0071 312.5 81.0071C314.9 81.0071 315 80.7071 315 75.5071V70.0071H298.5H282V75.5071ZM304.9 105.007C308.2 116.907 311 126.907 311 127.307C311 127.707 305.4 128.007 298.5 128.007C290.6 128.007 286 127.607 286 127.007C286 126.407 288.5 117.107 291.5 106.207C298.3 82.3071 298.1 82.8071 298.5 83.2071C298.6 83.4071 301.5 93.2071 304.9 105.007Z" fill="black"/>
<path d="M350.2 75.2071L350.5 80.5071L354.8 80.8071L359 81.1071L358.8 119.807L358.5 158.507L354.3 158.807L350 159.107V164.107V169.007H376.9H403.8L410.4 161.607L417 154.207V119.507V84.8071L410.4 77.4071L403.8 70.0071H376.8H349.9L350.2 75.2071ZM401.7 84.2071L405 87.4071V119.507V151.607L401.7 154.807L398.3 158.107L384.4 157.807L370.5 157.507L370.2 120.507C370.1 100.207 370.2 82.9071 370.5 82.3071C370.8 81.3071 374.6 81.0071 384.7 81.0071H398.4L401.7 84.2071Z" fill="black"/>
<path d="M443.6 77.4071L437 84.7071V119.507V154.307L443.6 161.607L450.2 169.007H468H485.8L492.4 161.607L499 154.207V119.507V84.8071L492.4 77.4071L485.8 70.0071H468H450.2L443.6 77.4071ZM483.9 84.5071L487 88.1071V119.507V150.907L483.9 154.507L480.8 158.007H468.2H455.6L452.3 154.807L449 151.607V119.607V87.6071L452.2 84.3071L455.4 81.0071H468.1H480.8L483.9 84.5071Z" fill="black"/>
<path d="M589 195.007C589 197.707 589.3 198.007 592 198.007H595V221.507V245.007H592C589.3 245.007 589 245.307 589 248.007V251.007H598.5H608V248.007C608 245.307 607.7 245.007 605 245.007H602V234.507V224.007H611H620V221.007V218.007H611H602V208.007V198.007H611.5H621V202.507C621 206.807 621.1 207.007 624 207.007H627V199.507V192.007H608H589V195.007Z" fill="black"/>
<path d="M636 195.007C636 197.707 636.3 198.007 639 198.007H642V221.507V245.007H639C636.3 245.007 636 245.307 636 248.007V251.007H655H674V243.507V236.007H671C668.1 236.007 668 236.207 668 240.507V245.007H658.5H649V234.507V224.007H658H667V221.007V218.007H658H649V208.007V198.007H658.5H668V202.507C668 206.807 668.1 207.007 671 207.007H674V199.507V192.007H655H636V195.007Z" fill="black"/>
<path d="M686 195.007C686 197.707 686.3 198.007 689 198.007H692V221.507V245.007H689C686.3 245.007 686 245.307 686 248.007V251.007H702.8H719.6L723.3 246.607C726.9 242.207 727 242.007 727 233.407C727 225.207 726.8 224.407 724.3 221.807L721.6 219.007L723.8 216.707C725.6 214.807 726 213.207 726 207.407C726 200.507 726 200.407 721.7 196.207L717.4 192.007H701.7H686V195.007ZM716.7 200.207C719.9 203.207 720 211.307 716.8 214.707C714.9 216.707 713.7 217.007 706.8 217.007H699V207.507V198.007H706.7C713.2 198.007 714.7 198.307 716.7 200.207ZM718.7 225.207C722 228.307 722 238.307 718.8 241.707C716.9 243.807 715.8 244.007 707.8 244.007H699V233.507V223.007H707.7C715.2 223.007 716.7 223.307 718.7 225.207Z" fill="black"/>
<path d="M739 195.007C739 197.707 739.3 198.007 742 198.007H745V221.507V245.007H742C739.3 245.007 739 245.307 739 248.007V251.007H748H757V248.007C757 245.507 756.6 245.007 754.5 245.007C752 245.007 752 245.007 752 235.507V226.007H757.5H763.1L767 234.607C771.2 243.607 771.6 245.007 770 245.007C769.5 245.007 769 246.307 769 248.007V251.007H776H783V248.007C783 245.707 782.5 245.007 781.1 245.007C779.7 245.007 778.2 243.007 775.7 237.607C770.3 226.307 770.4 226.707 774.9 221.707L779 217.307V208.807V200.407L774.7 196.207L770.4 192.007H754.7H739V195.007ZM769.7 200.207C771.6 202.007 772 203.307 772 208.907C772 214.207 771.6 215.807 769.8 217.707C767.9 219.707 766.7 220.007 759.8 220.007H752V209.007V198.007H759.7C766.2 198.007 767.7 198.307 769.7 200.207Z" fill="black"/>
<path d="M794 195.007C794 197.707 794.3 198.007 797 198.007H800V221.507V245.007H797C794.3 245.007 794 245.307 794 248.007V251.007H813H832V243.507V236.007H829C826.1 236.007 826 236.207 826 240.507V245.007H816.5H807V234.507V224.007H816H825V221.007V218.007H816H807V208.007V198.007H816.5H826V202.507C826 206.807 826.1 207.007 829 207.007H832V199.507V192.007H813H794V195.007Z" fill="black"/>
<path d="M844 195.007C844 197.707 844.3 198.007 847 198.007H850V221.507V245.007H847C844.3 245.007 844 245.307 844 248.007V251.007H853H862V248.007C862 245.507 861.6 245.007 859.5 245.007C857 245.007 857 245.007 857 235.507V225.907L862.6 226.207L868.3 226.507L872.4 235.407C875.2 241.607 876.1 244.507 875.2 244.807C874.5 245.007 874 246.507 874 248.107V251.007H881H888V248.107C888 245.907 887.5 245.107 885.9 244.807C884.4 244.607 882.9 242.207 880 235.707L876 226.807L880 222.107C884 217.407 884 217.307 884 208.907V200.407L879.7 196.207L875.4 192.007H859.7H844V195.007ZM874.7 200.207C876.6 202.007 877 203.307 877 208.907C877 214.207 876.6 215.807 874.8 217.707C872.9 219.707 871.7 220.007 864.8 220.007H857V209.007V198.007H864.7C871.2 198.007 872.7 198.307 874.7 200.207Z" fill="black"/>
<path d="M903.2 196.307L899 200.607V220.907V241.207L903.1 246.107L907.2 251.007H918.5H929.7L933.9 246.507L938 242.007V221.307V200.607L933.8 196.307L929.6 192.007H918.5H907.4L903.2 196.307ZM928.7 200.207C930.9 202.307 931 202.807 931 220.907C931 238.507 930.9 239.507 928.8 241.707C926.9 243.707 925.7 244.007 918.6 244.007C911.8 244.007 910.3 243.707 908.3 241.807C906.1 239.707 906 239.207 906 221.507C906 203.607 906 203.307 908.5 200.607C910.7 198.207 911.6 198.007 918.6 198.007C925.2 198.007 926.7 198.307 928.7 200.207Z" fill="black"/>
<path d="M0 229.007V234.007H259.5H519V229.007V224.007H259.5H0V229.007Z" fill="black"/>
<path d="M1000 229.007V234.007H1259.5H1519V229.007V224.007H1259.5H1000V229.007Z" fill="black"/>
</svg>
