<svg width="1999" height="1053" viewBox="0 0 1999 1053" fill="none" xmlns="http://www.w3.org/2000/svg">
<path d="M1313.2 2.00011C1300.4 7.80011 1281 36.5001 1253 90.8001C1245.1 106.2 1238.4 118.8 1238.3 118.6C1238.2 118.5 1239 113.7 1240.2 107.9C1242.1 98.7001 1242.4 93.9001 1242.6 66.0001C1242.8 27.8001 1243.9 21.3001 1251.6 14.2001C1254.5 11.5001 1255 10.7001 1254 9.50011C1249.2 3.70011 1227.8 31.4001 1199.5 80.0001C1178.1 116.7 1164.9 131.9 1147 140.4C1133.9 146.6 1121 144.8 1113.9 135.9C1102.9 122 1107.5 94.3001 1123.5 77.1001C1136.2 63.5001 1150.8 61.1001 1159.7 71.3001C1165.4 77.8001 1166.2 90.7001 1161.4 97.3001C1160.1 99.1001 1158.3 101.5 1157.4 102.7C1156.6 103.9 1156.1 105.4 1156.5 106C1158.3 108.9 1169 98.0001 1172.6 89.4001C1175.2 83.5001 1175.1 71.6001 1172.3 66.5001C1169.1 60.4001 1165.1 57.1001 1159.7 56.1001C1140.1 52.5001 1109.1 77.1001 1100 103.4C1091 129.7 1098.6 156.3 1116.4 161.1C1118.7 161.7 1124.2 162 1128.7 161.8C1135.9 161.4 1138 160.8 1145.2 157.2C1165.3 147.3 1180.6 129.2 1201.5 90.5001C1206.9 80.6001 1214.3 67.3001 1218 61.0001C1221.7 54.7001 1225.7 47.7001 1226.9 45.5001C1228.9 41.9001 1229 41.8001 1228.5 44.5001C1228.1 46.1001 1227.2 50.4001 1226.4 54.0001C1223.4 68.3001 1222.7 83.1001 1223.9 102.5C1224.6 112.6 1224.9 124.5 1224.5 128.7C1223.8 136.9 1220.6 149.5 1219 150.5C1217.8 151.3 1217.7 156 1218.9 156C1222.9 156 1238.3 130.9 1260.3 88.4001C1275 59.9001 1278.9 53.3001 1289.3 39.0001C1297.2 28.2001 1304.2 20.5001 1308.2 18.4001C1309.7 17.6001 1313.6 17.0001 1317 17.0001C1322.7 17.0001 1323.1 16.8001 1325 13.7001C1327.7 9.30011 1327.5 5.40011 1324.5 2.50011C1321.6 -0.499893 1318.9 -0.599893 1313.2 2.00011Z" fill="black"/>
<path d="M1989.2 24C1981.2 27.3 1972.6 38.2 1960 61.3C1955 70.6 1946.3 85.7 1940.8 94.8C1929.2 114.1 1923.7 124.7 1924.5 126C1925.7 127.9 1928.2 127 1931.2 123.7C1932.9 122 1940.4 112.8 1947.9 103.5C1955.4 94.1 1965.9 81.8 1971.3 76C1992 53.8 2003.4 31.4 1997.1 25.1C1994.8 22.8 1992.9 22.6 1989.2 24Z" fill="black"/>
<path d="M1070.9 31.8C1061.6 40.4 1066.5 52.9 1076.9 47.5C1079.8 46.1 1084 39 1084 35.6C1084 33.5 1082.1 29.8 1080.6 28.8C1078.1 27.1 1074.7 28.2 1070.9 31.8Z" fill="black"/>
<path d="M1056.8 64.2001C1055.1 66.0001 1047.6 75.1001 1040.1 84.5001C1032.6 93.8001 1022.1 106.2 1016.7 112C1006.6 122.8 998.7 133.7 993 144.7C984.8 160.5 990.6 170.1 1003.1 161.4C1010.6 156.2 1016.9 147.3 1029.7 123.5C1033.6 116.3 1041.4 102.9 1047 93.5001C1058.8 74.0001 1064.3 63.3001 1063.5 62.0001C1062.3 60.1001 1059.8 61.0001 1056.8 64.2001Z" fill="black"/>
<path d="M1459.9 79.4C1444.5 83.7 1428.3 97.7 1418.1 115.4C1407.9 133.2 1406.9 147 1415.2 154.7C1424.2 163.1 1438.4 158.9 1457.9 142.2L1463 137.8V142.9C1463 148.6 1465 154.3 1468.2 157.7C1469.8 159.5 1471.5 160 1474.9 160C1481 160 1487.4 156.3 1497.3 147L1505 139.8V146C1505 152.7 1506.9 157.5 1509.9 158.5C1513.2 159.5 1519.2 158 1524.2 154.8C1531.4 150.3 1545.4 134.9 1570 104.6C1573.5 100.2 1576.6 97.2 1576.8 97.8C1577.5 99.9 1570 126 1566 135.2C1563.1 142 1560.9 145.6 1557.6 148.7C1550.4 155.6 1545.6 153.8 1546.3 144.7C1546.5 141.9 1546.2 141.5 1543.9 141.2C1539.8 140.7 1536 144.4 1536 149C1536 158.7 1550.5 162.1 1564.4 155.5C1578.1 149 1585 137 1591.1 109C1593.6 98 1596.2 88.7 1597.6 86.1C1601.1 79.8 1600.8 79 1595.3 79C1584.9 79 1584.2 79.6 1570.3 97.6C1563.3 106.6 1556.8 114.3 1555.8 114.6C1554.9 114.9 1551.2 119 1547.7 123.8C1538.9 135.7 1522.1 150.7 1520.5 148C1518.9 145.5 1522.6 136.3 1529.5 125.6C1532.2 121.3 1548 93.3 1553.9 82.2L1555.1 80H1546.3H1537.5L1535.6 83.5L1533.7 86.9L1531 84C1525.9 78.6 1519 78.7 1507.3 84.5C1492.3 91.9 1478.8 105.3 1469.8 121.7C1464.7 131 1454.8 140.3 1444 146C1437.6 149.3 1435.3 150 1432.9 149.5C1428.4 148.5 1425.7 143.7 1426.4 138C1427.8 126.3 1450.9 90.2 1460.1 85.4C1466.3 82.2 1470 85.8 1470 95C1470 101.5 1471.6 102.2 1475.6 97.6C1479.8 92.7 1482.2 87.6 1481.8 84.2C1481.2 78.7 1470.7 76.5 1459.9 79.4ZM1526.1 85C1528.8 86.5 1528.6 92.6 1525.7 99.8C1522.4 107.7 1507.9 130.8 1501.3 138.6C1492.6 148.9 1484 152.7 1480.6 147.8C1478.1 144.2 1478.7 140 1483.1 130.9C1491.6 113.3 1507.1 93.1 1516.9 86.8C1521.8 83.7 1523.1 83.5 1526.1 85Z" fill="black"/>
<path d="M1728.5 79.2C1725.3 80.4 1719.8 84 1713.7 89.1L1710 92.2L1711 89.5C1711.5 88.1 1712 85.3 1712 83.4V80H1703.5C1694.2 80 1693 80.7 1691.4 87.5C1690.4 92 1678.3 113.5 1672.1 122.1C1669 126.3 1664.5 132.6 1662 136C1657.1 142.9 1648.9 150 1646 150C1640.6 150 1643.3 140 1652.5 125.6C1655.2 121.3 1671 93.3 1676.9 82.2L1678.1 80H1669.3H1660.5L1658.6 83.5L1656.7 86.9L1654 84C1649 78.6 1642 78.7 1630.4 84.4C1614.4 92.4 1600.1 107 1591.3 124.6C1584.4 138.4 1584.2 149.3 1590.7 157C1592.8 159.5 1593.9 160 1597.8 160C1604 160 1610.3 156.3 1620.3 147L1628 139.8V146C1628 149.4 1628.6 153.3 1629.5 154.9C1633.1 162 1643.9 159 1655.9 147.6C1659.4 144.3 1662.1 141.9 1661.8 142.5C1661.5 143 1659.4 146.5 1657.1 150.3C1654.9 154 1653 157.3 1653 157.6C1653 157.8 1657.1 157.9 1662.1 157.8L1671.2 157.5L1683.9 136.5C1690.8 124.9 1698.8 112.3 1701.7 108.5C1706.9 101.4 1715.4 92.7 1720 89.6C1723.5 87.3 1727.7 87.5 1728.5 90C1729.1 92 1726.9 96.2 1700.1 143.7L1692.1 158H1700.5H1708.9L1724.6 132.7C1742.2 104.6 1746.8 98.1 1753.6 92.1C1760.4 86.1 1766 85.3 1766 90.2C1765.9 93.6 1763.2 99.1 1752.8 116.7C1747.6 125.4 1742.4 134.9 1741.1 137.9C1732 159.5 1750.9 166.4 1770.6 148.7L1775.6 144.1L1776.9 147.5C1778.5 152.1 1783 155.7 1789.8 157.6C1801.8 161.2 1816.8 155.5 1831.1 142.1C1846 128.1 1854.3 112.1 1854.4 97.3C1854.5 88 1853.1 85.1 1846.4 81.2C1843 79.2 1841.4 79 1834 79.3C1826.9 79.5 1824.3 80.1 1818.6 82.8C1799.8 91.6 1782.9 109.6 1777 127.1C1775.9 130.3 1775 134 1775 135.3C1775 139.2 1763.5 149 1759 149C1758.5 149 1757.6 148.1 1757 147.1C1755.8 144.8 1760 136.2 1769.8 120.8C1777.2 109.2 1783.5 96.6 1784.4 91.8C1785.2 87.3 1783.2 82 1779.9 79.6C1778.4 78.6 1775.5 78 1772.2 78C1765.3 78 1758.2 81.4 1751.5 88.1C1748.7 90.8 1746.1 93 1745.7 93C1745.3 93 1745 91.2 1745 89C1745 80.3 1737.6 76 1728.5 79.2ZM1649.1 85C1651.8 86.5 1651.6 92.6 1648.7 99.8C1645.4 107.7 1630.9 130.8 1624.3 138.6C1615.6 148.9 1607 152.7 1603.6 147.8C1601.1 144.2 1601.7 140 1606.1 130.9C1614.6 113.3 1630.1 93.1 1639.9 86.8C1644.8 83.7 1646.1 83.5 1649.1 85ZM1840.2 85.7C1844.1 89.2 1841.6 100.2 1833.2 116.5C1828.3 125.9 1819.5 138.3 1813.8 143.7C1809.8 147.5 1801.5 152 1798.5 152C1797.2 152 1795.2 151.1 1793.9 150.1C1786.2 143.9 1798.9 115.7 1817.9 97C1825.8 89.1 1833.3 84 1836.9 84C1837.7 84 1839.2 84.7 1840.2 85.7Z" fill="black"/>
<path d="M1294.5 80.4C1284 83.7 1272.1 91.8 1262.6 102.1C1247.7 118.2 1241.6 135.9 1246.9 147.6C1249.3 152.8 1252.9 155.6 1259.9 157.7C1271.8 161.2 1286.9 155.5 1301.1 142.1C1316 128.1 1324.3 112.1 1324.4 97.3C1324.5 87.9 1323.1 85.1 1316.4 81.3C1311.9 78.7 1301.3 78.3 1294.5 80.4ZM1310.2 85.7C1314.1 89.2 1311.6 100.2 1303.2 116.5C1298.3 125.9 1289.5 138.3 1283.8 143.7C1279.8 147.5 1271.5 152 1268.5 152C1267.2 152 1265.2 151.1 1263.9 150.1C1257.7 145.1 1264.9 124.6 1279.2 106.3C1288.1 94.9 1301.7 84 1306.9 84C1307.7 84 1309.2 84.7 1310.2 85.7Z" fill="black"/>
<path d="M1364.3 80.0999C1361.7 80.8999 1358 84.9999 1345.8 100.8C1328.5 123.1 1312 140.3 1301 147.6C1293.4 152.7 1291 156.3 1294.5 157.6C1300 159.7 1314.3 145.8 1343.5 110.1C1349.5 102.7 1354.6 97.1999 1354.8 97.7999C1355.5 99.8999 1348 126 1344 135.2C1341.1 142 1338.9 145.6 1335.6 148.7C1328.4 155.6 1323.6 153.8 1324.3 144.7C1324.5 141.9 1324.2 141.5 1321.9 141.2C1317.8 140.7 1314 144.4 1314 149C1314 158.7 1328.5 162.1 1342.4 155.5C1356.1 149 1363 137 1369.1 109C1371.6 97.9999 1374.2 88.6999 1375.6 86.0999C1379.1 79.6999 1378.9 78.9999 1372.8 79.0999C1369.9 79.0999 1366.1 79.5999 1364.3 80.0999Z" fill="black"/>
<path d="M1893.3 80.0999C1890.7 80.8999 1887 84.9999 1874.8 100.8C1857.5 123.1 1841 140.3 1830 147.6C1822.4 152.7 1820 156.3 1823.5 157.6C1829 159.7 1843.3 145.8 1872.5 110.1C1878.5 102.7 1883.6 97.1999 1883.8 97.7999C1884.4 99.7999 1877.2 125.3 1873.4 134.4C1867.2 149.3 1856.8 157.8 1854 150.4C1853.4 149 1853.1 146.5 1853.3 144.7C1853.5 141.9 1853.2 141.5 1850.9 141.2C1846.8 140.7 1843 144.4 1843 149C1843 158.7 1857.5 162.1 1871.4 155.5C1885.1 149 1892 137 1898.1 109C1900.6 97.9999 1903.2 88.6999 1904.6 86.0999C1908.1 79.6999 1907.9 78.9999 1901.8 79.0999C1898.9 79.0999 1895.1 79.5999 1893.3 80.0999Z" fill="black"/>
<path d="M1910.8 140.5C1908.2 142 1904 149.2 1904 152.4C1904 154.5 1905.9 158.2 1907.4 159.2C1909.9 160.9 1913.3 159.8 1917.1 156.2C1920.5 153.1 1921.3 151.6 1921.7 147.8C1922.1 144.1 1921.9 142.9 1920.1 141.1C1917.7 138.7 1914.6 138.5 1910.8 140.5Z" fill="black"/>
<path d="M426.8 205C420.3 206.1 412.5 208.8 406.5 211.8C377.4 226.3 347.3 266.1 323.9 320.8L319.5 331.1L318.9 312.8C317.9 283.8 313.6 265.3 304.3 249.7C293.6 232 277.9 220.9 255.2 214.9C244.2 211.9 217.3 211.2 203.5 213.4C182.5 216.9 162.2 225.8 145.6 239.1L137.3 245.7L121.4 246.3C103.9 246.9 87.4 249.8 73.5 254.7L65.5 257.5L57 253.2C46.7 248.1 39.4 246.1 27.4 245.3C9.30002 244.1 -0.89998 247 0.70002 252.9C1.80002 257.2 4.20002 257.8 17.8 257.3C27.7 256.9 31.9 257.1 36.9 258.5C43 260.1 51.6 263.8 50.8 264.5C50.7 264.7 47 267.1 42.8 269.9C19.7 285.4 10.7 307.4 22.4 319.8C29 327 41.8 330.8 55.7 329.7C68.9 328.7 77.9 323 83.2 312.3C86 306.6 86.4 304.8 86.4 297.6C86.4 288 84.1 279.9 79.3 272.7C77.5 270 76.2 267.4 76.5 267C76.8 266.6 80.7 265.2 85.2 263.9C94.9 261.2 109.8 260.7 117.2 262.9L121.8 264.2L118.6 269.4C97.8 301.8 93.4 341.4 107.3 369.9C112.2 379.9 123.2 390.7 134 395.8C145.9 401.6 154.1 403.4 168 403.3C177.6 403.3 180.8 402.9 187.2 400.8C200.3 396.5 207.8 390.6 214.5 379.5C220.9 368.8 222.5 361.7 222.4 344.5C222.3 331.7 221.9 328.1 219.7 319.8C214.6 300.6 204.7 283.8 190.9 270.5C181.4 261.5 174.2 256.7 163.7 252.4C159.4 250.7 155.7 249 155.4 248.7C154.6 247.9 168.3 239.2 176.3 235.5C192.3 228.1 209.4 225.5 222.9 228.4C245.6 233.2 259.4 247 267.6 273C273.9 293 273.4 336.1 266.5 376.6C264.1 390.6 262.2 398.7 250.5 448C247.4 460.9 245 473 245.2 474.9C245.6 479.3 248.8 481.7 256.4 483.1C263.3 484.3 271.9 483.6 280.7 480.8C290 478 291.4 476.3 294 464.5C306.4 407.6 329.7 339.4 350.4 299.5C377.7 246.8 402.6 223.1 430.5 223C452.3 223 471.5 240.2 478 265.6C487.2 301.4 465.1 343.8 427.3 362.8C417.7 367.7 408 370 394.3 370.7C384.2 371.2 381.7 371.6 380 373.2C377.5 375.6 377.4 378.2 380 380.5C381.4 381.8 384.6 382.5 391.2 383.1C409.6 384.7 424.3 392.3 439.6 408.1C446.4 415.1 457 430 457 432.4C457 433 446.3 436.8 433.2 440.8C362.6 462.6 331 481.6 323.6 506.9C319.1 522.3 323.7 535.9 338.4 550.6C351.1 563.3 365.3 571.1 384.6 576C433.8 588.6 488.1 568.4 506.4 530.8C513 517.3 515.1 508.3 515.7 491.2C516.1 482.2 515.8 474 515 469.2C513.6 460.1 508.8 444.5 505.3 437.7C504 435 503 432.6 503.2 432.4C503.4 432.3 509.9 429.8 517.5 427C548.2 415.8 563.4 405.9 568.6 393.5C569.3 391.6 570 388.8 570 387.2V384.3L575.3 385.3C586.5 387.4 616.7 384.5 641.8 379C648.8 377.5 654.6 376.3 654.7 376.4C654.9 376.5 652.7 383.3 649.9 391.6C642.5 413.2 636.3 435.3 633.3 450.9C629.8 469 629.4 494.1 632.4 503.4C635.1 511.6 639.4 516.9 646 520.3C651.1 522.9 652.2 523.1 661.1 522.8C669.7 522.5 671.3 522.2 678.1 518.8C700.9 507.5 723.2 477.5 747.8 425C750.8 418.7 752.9 414.6 752.5 416C752.1 417.4 751.6 424.8 751.3 432.5C750.6 453 753.5 463.6 762.3 472.8C772.1 482.9 790 484.5 808.8 476.9C820.1 472.4 829.1 465.9 843.9 451.5C851.2 444.4 857 439.4 856.7 440.5C851.5 457.4 849.4 493.1 852.9 504.2C855 510.8 860.3 517.3 866.1 520.3C871.2 523 872.1 523.2 881 522.8C888.6 522.4 891.7 521.8 896.4 519.7C923.2 507.5 952.3 467.2 982.5 400.6C988.9 386.5 989.2 385.5 987.9 383.1C986.7 381.1 985.5 380.4 982.3 380.2C980 380 977.2 380.3 976.2 380.9C975.1 381.5 971.9 387.6 968.6 395.2C956.5 423.1 936 460 922.3 478.3C915.7 487.3 899.9 504 898.1 504C896.5 504 895 497.1 895 489.7C895 466.5 905.9 424.4 926.6 367.7C929.5 359.9 929.5 359.8 927.5 358.4C923.7 355.6 915.4 353.8 904.5 353.3C890.9 352.7 886.3 354 883.8 359.1C854.6 419.1 850.4 425.8 830 446.1C814.5 461.5 808.5 465.4 804.1 462.9C802.7 462.1 800.9 460.2 800.2 458.7C796.4 450.8 796.4 428.8 800 414.3C805.2 394.1 820.8 371 829.3 371C833.9 371 837 374.5 843.8 387.6L849.5 398.5L854.1 398.8C857.4 399 859.3 398.6 861 397.2C863.1 395.5 863.2 395.1 862 391.4C861.3 389.3 858.7 383.6 856.3 378.8C851 368.5 841.9 359.2 832.5 354.6C821 349 806.5 350 792.7 357.3C785.2 361.2 774.1 371.6 768.1 380L763.4 386.7L761.7 384.4C759.5 381.5 754.9 380.5 751.5 382.3C749.4 383.4 747.4 387.1 741.6 401.1C722 448 696.9 490.4 684.9 496.6C681.5 498.3 678.6 497.2 677.3 493.8C676.1 490.2 676.7 472.5 678.5 460.4C681.6 439.3 687.1 419.2 698.8 386.4C702.8 375.3 706 365.1 706 363.7C706 354.9 684.1 354.2 657.9 362.1C650.8 364.2 638.6 367.3 630.7 368.9C617.3 371.7 598.9 374.3 598.1 373.5C597.9 373.3 599.8 368.2 602.3 362.3C615 332.1 617.8 314 611.7 300.6C604.7 285.3 580.7 280.3 561.1 290.1C553.6 293.9 544.6 303.4 540.3 312.1C532.4 328 532 347.2 539.1 361.2C541.8 366.4 549.3 374.5 554.7 378C558.4 380.4 558.6 380.7 557 381.8C556 382.4 554.9 384.7 554.5 387.2C552.9 397 536.3 407.8 508.6 417.2L496 421.5L494.4 419C490.8 413.6 473.1 397.1 465.6 392.3C461.3 389.4 453.3 385.2 447.7 382.8L437.7 378.5L441.1 377.6C467.6 370.7 488 360 502.5 345.3C520.3 327.3 529 306.8 529 282.8C529 270.4 527.2 262.3 522.1 251.6C511.4 228.9 491.6 213.6 464.5 206.9C455.4 204.7 434.2 203.6 426.8 205ZM145.4 277.5C157.1 286.6 168.6 305.7 173.5 324C178.1 341.4 176.5 360.6 169.3 375C164.3 384.9 159.1 389 151.7 389C144.5 388.9 138.9 386.1 131.6 378.8C120.1 367.1 115 353.1 115 333.5C115 312.2 120.8 292.5 132.1 274.8L135.2 270L138.4 272.2C140.1 273.4 143.2 275.8 145.4 277.5ZM69.1 285C71.9 292.5 72 302.2 69.2 307.7C65.2 315.4 58.7 318.6 48.5 317.8C32.5 316.5 28.3 307.8 37 294C40.9 288 46.1 283 54.5 277.5L61.5 272.9L64.3 276.2C65.8 278 68 281.9 69.1 285ZM590.9 298.8C598 302.4 600.4 309.8 598.8 322.9C597.6 332.6 591.2 352.1 585.2 364.2L580.5 373.5L576.5 373.2C567.5 372.5 557 364.7 552.9 355.6C546.8 341.6 549.8 320.4 559.6 308.7C563.1 304.5 569.8 299.5 573.5 298.2C578.3 296.5 587.1 296.8 590.9 298.8ZM464.8 451.2C474.5 481.4 469.6 518.5 453.3 538.2C443.9 549.7 424.4 561.5 410 564.6C394.9 567.8 378.8 563.9 362.2 553C343.7 540.8 335.6 527.1 338.1 512.2C341.4 491.7 369.5 473.6 426 455.6C452.5 447.2 459.3 445.2 461.2 445.1C462.4 445 463.4 446.8 464.8 451.2Z" fill="black"/>
<path d="M1241 353.2C1237.4 354.5 1232.3 356.8 1229.5 358.4C1222.6 362.4 1208.3 377.2 1203.8 384.8L1200.2 391.2L1200.7 387.2C1201.1 383.9 1200.9 383 1198.9 381.6C1196.2 379.7 1193.1 379.6 1189.7 381.1C1187.8 382 1186.2 384.8 1183 393.4C1176.9 409.1 1165.2 431.8 1157.2 443C1150.6 452.3 1132 472 1129.9 472C1129.1 472 1128.9 469.9 1129.4 465.2C1132.7 430 1133.7 400 1132.1 385.6C1131.5 379.9 1130.9 378.3 1128.7 376.4C1122.2 370.8 1104.9 371.1 1092.4 376.9C1085.4 380.2 1084.7 381.1 1080.5 394C1069.8 426.5 1044.3 472.5 1033.8 478.1C1023.8 483.5 1020.4 458.4 1027.1 427.4C1029.1 418 1033.7 403.5 1040.5 385.3C1045 373.1 1044.8 371 1038.8 368.5C1029.9 364.9 1005 367.3 999.5 372.3C995.5 376 983.9 409 979.4 429.5C976.3 443.3 975.1 465.9 976.9 475.1C980.2 491.4 990.3 500.9 1006.2 502.6C1020.3 504 1032.7 498.4 1047.1 484.1C1058.4 472.8 1065.5 462.4 1076.8 440.5L1085.1 424.5L1084.5 436.5C1083.6 454.9 1082 472.9 1080.2 485.7L1078.5 497.4L1066.5 502.2C1041 512.3 1026.8 521.2 1011.4 536.5C1000.5 547.2 994.8 555.8 990.9 567C989 572.2 988.6 575.7 988.5 584.5C988.5 594.8 988.7 595.9 991.7 602.2C1001.4 622.8 1023.8 629.7 1050.9 620.5C1063.8 616.1 1075.1 608.7 1086.2 597.2C1107.1 575.6 1117.4 549 1126.6 493.3C1127 490.6 1128.5 489.1 1136 484C1147.5 476.1 1163.5 459.4 1172.5 446C1176.4 440.3 1182.8 429 1186.8 421C1190.9 413 1193.9 407.4 1193.5 408.5C1190 419 1188.9 442.7 1191.5 453.8C1197.5 479.3 1219.4 488.3 1247.8 476.9C1259.1 472.4 1268.1 465.9 1282.9 451.5C1290.2 444.4 1296 439.4 1295.7 440.5C1290.5 457.4 1288.4 493.1 1291.9 504.2C1294 510.8 1299.3 517.3 1305.1 520.3C1310.2 523 1311.1 523.2 1320 522.8C1327.6 522.4 1330.7 521.8 1335.4 519.7C1362 507.6 1390.3 468.6 1420.6 402.5L1428 386.5V393.5C1428 397.3 1427.5 417.7 1426.9 438.7C1425.7 475.3 1425.8 477.1 1427.5 479C1433.4 485.6 1464.5 485.8 1470.2 479.3C1471.1 478.3 1473.6 471.3 1475.9 463.7C1483.5 438.1 1498.9 402.4 1508.7 387.6C1515.1 378 1522.5 370.3 1526.7 368.9C1532.4 367.1 1534.8 368.3 1537.8 374.8C1540.4 380.3 1540.5 381.1 1540.4 396.5C1540.2 412.1 1539.4 419.6 1531.9 475C1529.2 495 1529 520.4 1531.4 530.4C1533.7 540.2 1536.2 545.2 1541 550C1547.6 556.6 1552.7 558.5 1564.1 558.5C1573.3 558.5 1574 558.4 1582.1 554.3C1592.3 549.2 1599 543.1 1609.4 529.1C1623.4 510.2 1635.7 486.9 1648.4 454.9C1656.1 435.3 1669.8 394.5 1670.7 388.5C1671.2 384.9 1670.9 384.1 1668.9 382.6C1666.1 380.7 1661.1 380.5 1658.6 382.3C1657.5 383.1 1653.1 394.9 1647.1 413C1641.7 429.2 1634.9 448.3 1632 455.5C1624.1 475.3 1610.9 501.4 1602.1 514.6C1594.4 526.3 1585.5 536 1582.6 536C1581.7 536 1580.2 534.8 1579.3 533.3C1577.7 530.9 1577.5 528 1577.6 506.5C1577.6 484.1 1577.9 480.5 1581.8 452C1587.3 411.8 1588.7 395.3 1587.3 386.2C1584.6 368.6 1574.2 356.9 1557.5 352.5C1540.3 348.1 1521.9 353.4 1507.5 367.2C1496.8 377.3 1490.8 387.2 1475.2 421C1474.3 422.9 1474.1 419 1474.6 403.3L1475.2 383.1L1472.7 380.7C1469.4 377.3 1464.2 376 1454.5 376C1443.1 376 1431.5 379.5 1429.2 383.6C1428.5 384.9 1428.1 384.8 1426.6 382.6C1425.3 380.5 1424.2 380 1420.7 380C1418.3 380 1415.6 380.6 1414.7 381.2C1413.8 381.9 1410.1 389.2 1406.6 397.3C1394.2 425.4 1374.9 460.1 1361.3 478.3C1354.7 487.3 1338.9 504 1337.1 504C1335.5 504 1334 497.1 1334 489.7C1334 466.5 1344.9 424.4 1365.6 367.7C1368.5 359.9 1368.5 359.8 1366.5 358.4C1362.7 355.6 1354.4 353.8 1343.5 353.3C1329.7 352.7 1325.2 353.9 1322.8 359C1296.7 413.8 1289.1 426.1 1269 446.1C1253.5 461.5 1247.5 465.4 1243.1 462.9C1239.6 460.9 1238 457.1 1236.8 448.1C1234.8 432.5 1237.8 413.3 1244.5 399.1C1252.4 382.6 1262.2 371 1268.3 371C1272.9 371 1276 374.5 1282.8 387.6L1288.5 398.5L1293.1 398.8C1296.4 399 1298.3 398.6 1300 397.2C1302.1 395.5 1302.2 395.1 1301 391.4C1300.3 389.3 1297.7 383.6 1295.3 378.8C1290 368.5 1280.6 358.9 1271.4 354.4C1263 350.5 1250.3 349.9 1241 353.2ZM1072.1 526.3C1066.4 547.7 1059.2 564.3 1050.6 575.6C1044 584.4 1029.1 598.3 1022.9 601.4C1016.1 604.8 1010.2 604.9 1007.2 601.7C1001.6 595.8 1002.2 577.9 1008.3 564.7C1017.9 544.3 1036.1 528.9 1067 515.4C1072.8 512.8 1074.6 512.4 1074.8 513.5C1075 514.3 1073.8 520.1 1072.1 526.3Z" fill="black"/>
<path d="M747.5 681.6C738 682.6 721.3 686.3 713.2 689.1C700.9 693.4 686.4 701.2 677.3 708.4L669.5 714.6L655.5 715.8C639.6 717.2 624.6 720.3 611.7 725C606.9 726.8 602.8 728.1 602.7 727.9C596.5 718.3 593.8 714.7 589.4 710.5C579.4 701 566.9 695.1 552.6 693.1C541.8 691.6 540.5 691.7 537.4 694.3C535.3 696.1 534.8 697.2 535.3 699.2C536.1 702.3 539.3 703.6 547.7 704.5C560.7 705.8 571.5 711.2 580.1 720.9C584.7 726 589 732.7 589 734.7C589 735.2 584.9 738.4 579.9 742C547.4 764.9 532.3 797.1 546.6 813C557 824.4 579 826.3 592.6 816.9C604.8 808.5 612.3 789.8 612.2 768C612.1 758.7 610.5 746.9 608.5 741.7C607.6 739.6 613.7 736.7 627.6 732.4C635.3 730.1 637.5 729.8 644.4 730.4C648.8 730.7 652.7 731.3 653.2 731.8C653.6 732.2 652.4 735.6 650.4 739.3C630.8 776.2 640.4 814.6 673.1 830.3C686.1 836.6 695.2 838.5 712.5 838.5C733.2 838.5 743.3 834.8 753.5 823.8C761.2 815.5 763.4 809.3 763.4 796C763.3 787.4 762.8 784 760.7 777.5C751.8 750.7 727.3 728.2 697.3 719.5C692.5 718.1 688.5 716.8 688.3 716.6C687.6 715.9 699.1 708.8 705.5 705.9C709 704.3 715.9 701.8 720.7 700.3C728.5 698 731.2 697.7 744.5 697.6C758.4 697.5 760.1 697.8 767.3 700.3C782.5 705.6 791.2 713.3 798.1 727.6C805.8 743.5 809.1 761.8 809.1 788.2C809 825.4 804.7 854 789.9 914.3C785.5 932.4 782 948.4 782.2 949.8C782.4 951.8 783.5 953 786.5 954.5C794.3 958.3 817.9 956.6 825.3 951.6C828.2 949.6 829.5 946.3 845.7 898C855.2 869.7 866 837.9 869.6 827.5C893.6 758.9 916 718.3 934.2 710C936.7 708.9 940.7 708 943.8 708C956.2 708 964.6 717.5 968.7 736.2C971.9 751.4 970.3 787.5 964.9 817.4C960.2 843.6 949.6 886.2 941.8 909.8C938.8 919.2 937.1 926.1 937.4 927.5C939.1 934.3 961.5 936.6 976.8 931.6C979.6 930.7 982.3 929.3 982.9 928.6C983.5 927.9 987.4 917.3 991.5 905C1005.9 862.7 1031.9 806.5 1048.8 781C1063.9 758.3 1074.8 747.2 1085.9 742.9C1096.1 739.1 1102.5 741.5 1107.2 751C1115.9 768.6 1113.4 800.1 1097 880C1082.8 949.2 1079.8 966.4 1077.8 992C1075.5 1022.3 1080.9 1041.7 1093.7 1048.8C1107.7 1056.5 1127.5 1052.1 1143.4 1037.8C1160.2 1022.6 1179.2 991.6 1196 951.5C1197.9 947.1 1199.5 943.4 1199.6 943.2C1199.7 943 1201.9 945.1 1204.5 947.9C1212.1 956 1222.6 959 1236.4 957.1C1246.1 955.7 1257.2 951.3 1266.4 945.2C1270.3 942.7 1279.5 934.7 1286.9 927.5C1294.2 920.4 1300 915.4 1299.7 916.5C1294.5 933.4 1292.4 969.1 1295.9 980.2C1298 986.8 1303.3 993.3 1309.1 996.3C1314.2 999 1315.1 999.2 1324 998.8C1331.6 998.4 1334.7 997.8 1339.4 995.7C1366 983.6 1394.6 944.3 1424.6 878.5L1431.9 862.5L1438.7 861.7C1458.1 859.6 1470.8 857.7 1482.5 855.1C1489.7 853.5 1495.6 852.3 1495.7 852.4C1495.8 852.5 1493.7 859.3 1490.9 867.4C1483.6 889 1477.3 911.4 1474.3 926.9C1470.8 945 1470.4 970.1 1473.4 979.4C1476.1 987.6 1480.4 992.9 1486.9 996.2C1491.6 998.6 1493.6 999 1500.6 999C1506.5 999 1510.5 998.4 1514.4 997C1531.3 990.6 1548.4 973.2 1565.8 944.7L1571.7 935.1V951.3C1571.7 975.2 1575 986.5 1584.4 994.7C1590.7 1000.2 1598 1002.4 1607.8 1001.7C1627.6 1000.2 1644.3 984.3 1662.6 949.6L1668.3 938.7L1669.8 941.6C1673.9 949.8 1683.2 955.9 1694.1 957.5C1700.6 958.5 1713.1 956.4 1721.8 953C1733.1 948.4 1742.1 941.9 1756.9 927.5C1764.2 920.4 1770 915.4 1769.7 916.5C1764.5 933.4 1762.4 969.1 1765.9 980.2C1768 986.8 1773.3 993.3 1779.1 996.3C1784.2 999 1785.1 999.2 1794 998.8C1801.6 998.4 1804.7 997.8 1809.4 995.7C1836.2 983.5 1865.3 943.2 1895.5 876.6C1901.9 862.5 1902.2 861.5 1900.9 859.1C1899.7 857.1 1898.5 856.4 1895.3 856.2C1893 856 1890.2 856.3 1889.2 856.9C1888.1 857.5 1884.9 863.6 1881.6 871.2C1869.5 899.1 1849 936 1835.3 954.3C1828.7 963.3 1812.9 980 1811.1 980C1809.5 980 1808 973.1 1808 965.7C1808 942.5 1818.9 900.4 1839.6 843.7C1842.5 835.9 1842.5 835.8 1840.5 834.4C1836.7 831.6 1828.4 829.8 1817.5 829.3C1803.7 828.7 1799.2 829.9 1796.8 835C1770.7 889.8 1763.1 902.1 1743 922.1C1727.5 937.5 1721.5 941.4 1717.1 938.9C1713.6 936.9 1712 933.1 1710.8 924.1C1708.8 908.5 1711.8 889.3 1718.5 875.1C1726.4 858.6 1736.2 847 1742.3 847C1746.9 847 1750 850.5 1756.8 863.6L1762.5 874.5L1767.1 874.8C1770.4 875 1772.3 874.6 1774 873.2C1776.1 871.5 1776.2 871.1 1775 867.4C1774.3 865.3 1771.7 859.6 1769.3 854.8C1765.9 848.2 1763.2 844.6 1758.2 839.8C1749 831.2 1741.8 827.8 1731.4 827.2C1717.5 826.4 1705.2 831.4 1692.9 842.8C1676.8 857.7 1666 880.1 1664.4 902C1663.8 910.2 1662.4 914.4 1654.3 932.4C1643.5 956.3 1631.9 973 1625.9 973C1623.7 973 1622.6 972.2 1621.3 969.7C1619.8 967 1619.5 964.1 1619.6 950.5C1619.7 930.1 1622.4 912.2 1629.2 886.1C1635.7 860.9 1636 858.9 1632.6 856.3C1626.6 851.6 1610.6 851 1597.4 855.1C1590.8 857.1 1589.7 858 1588.5 862C1588.1 863.4 1585.1 871 1581.8 879C1564.8 920.3 1539.3 963.5 1527.1 971.7C1523.1 974.4 1522.9 974.4 1520.6 972.7C1517.6 970.5 1516.8 963.9 1518 950.6C1520.3 923.5 1525.5 902.6 1539.8 862.4C1543.8 851.3 1547 841.1 1547 839.7C1547 830.9 1525.1 830.2 1498.9 838.1C1491.8 840.2 1479.6 843.3 1471.7 844.9C1458.3 847.7 1439.9 850.3 1439.1 849.5C1438.9 849.3 1440.8 844.2 1443.3 838.3C1456 808.1 1458.8 790 1452.7 776.6C1447.2 764.7 1430.6 758.4 1413.8 761.9C1391.5 766.6 1375.1 788.9 1375 814.5C1375 827.7 1378.9 837.8 1387.3 846.8C1393.7 853.5 1399.3 856.8 1408.6 859.5L1415.8 861.6L1409.1 876.5C1397 903.8 1378.4 936.7 1365.3 954.3C1358.7 963.3 1342.9 980 1341.1 980C1339.5 980 1338 973.1 1338 965.7C1338 942.5 1348.9 900.4 1369.6 843.7C1372.5 835.9 1372.5 835.8 1370.5 834.4C1366.8 831.7 1358.5 829.8 1347.5 829.3C1333.9 828.7 1329.3 830 1326.8 835.1C1297.6 895.1 1293.4 901.8 1273 922.1C1257.5 937.5 1251.5 941.4 1247.1 938.9C1243.6 936.9 1242 933.1 1240.8 924.1C1238.8 908.5 1241.8 889.3 1248.5 875.1C1256.4 858.6 1266.2 847 1272.3 847C1276.9 847 1280 850.5 1286.8 863.6L1292.5 874.5L1297.1 874.8C1300.4 875 1302.3 874.6 1304 873.2C1306.1 871.5 1306.2 871.1 1305 867.4C1304.3 865.3 1301.7 859.6 1299.3 854.8C1295.9 848.2 1293.2 844.6 1288.2 839.8C1279 831.2 1271.8 827.8 1261.4 827.2C1247.5 826.4 1235.2 831.4 1222.9 842.8C1205.8 858.6 1196 880.1 1194.1 905.5C1193.4 915.3 1192.8 918 1188 930.5C1177.3 958.7 1165.2 983.4 1152.8 1002C1133.3 1031.6 1124 1032.1 1124 1003.5C1124 982 1128.5 955.7 1141.5 901.5C1154.6 846.8 1159 821.6 1159.7 797.5C1160.2 781.6 1160 778.5 1158.2 771.5C1151.2 743.7 1134.7 731.3 1102 729.4C1082.9 728.2 1072.3 732.7 1056.5 748.5C1043.4 761.5 1030.4 780.6 1017.6 805.5C1015.1 810.4 1013 814 1013 813.4C1013 812.8 1013.7 807.4 1014.7 801.4C1015.8 794 1016.3 783.5 1016.4 768.5C1016.5 743.4 1015.3 735.9 1009.4 724C998.8 702.9 967.3 689.9 940 695.4C927.8 697.9 919.9 702.1 911.3 710.7C901.9 720 895.3 730.3 882.7 755.2C873.4 773.4 870.1 781.6 857.5 816L854.1 825.5L854.8 819.5C855.2 816.2 855.5 802.5 855.4 789C855.4 767.6 855.1 763.2 853.2 754.2C844.2 712.6 824 691.6 785 683.5C777.5 681.9 755.1 680.8 747.5 681.6ZM678.6 740.5C697.1 749.8 711 765.3 716.2 782.3C721.4 799.5 714.2 817.2 700.4 821C694.2 822.8 682.4 821.7 677 819C656.2 808.4 649.7 777.1 662.5 749.3C666.9 739.7 668.7 737 670.4 737C671.1 737 674.8 738.6 678.6 740.5ZM596 756.4C599.2 777.7 593.6 799.1 582.6 807.5C575.5 812.9 561.8 811.5 558.5 805C553.9 796.1 559.5 780.6 572.6 766.1C577.2 761 592.6 748 594.1 748C594.5 748 595.4 751.8 596 756.4ZM1431.9 774.8C1439 778.4 1441.4 785.8 1439.8 798.9C1438.6 808.6 1432.2 828.1 1426.2 840.2L1421.5 849.5L1417.5 849.2C1408.4 848.4 1398 840.7 1393.9 831.6C1387.8 817.6 1390.8 796.4 1400.6 784.7C1404.1 780.5 1410.8 775.5 1414.5 774.2C1419.3 772.5 1428.1 772.8 1431.9 774.8Z" fill="black"/>
<path d="M311 732.1C294.4 734.5 281.7 744 274.5 759.3C268.7 771.4 267.8 777.3 267.3 807.9L266.8 835.3L252.8 848.9C214.7 885.7 196 914 198.5 930.9C202.5 957.3 240.4 963 282.3 943.3C286.5 941.3 290.2 939.9 290.4 940.1C290.6 940.3 293.3 945.5 296.3 951.5C299.3 957.6 304.6 966.8 308.1 972C316.5 984.6 332.7 1000.7 344.4 1007.9C370 1023.7 401.6 1027.9 435.1 1019.9C446.9 1017.1 450 1013.5 444.4 1009.1C441.1 1006.5 439.2 1006.5 428.8 1009C417.9 1011.7 397.6 1012.7 387.5 1011.1C351.5 1005.3 322.8 978.9 304.7 934.9L303.2 931.3L307.9 927.8C327 913.3 347.8 887.6 359.9 863.3C365.6 851.8 373 832.9 374.5 826.2C375.4 822.1 373.2 819.3 368.4 818.4C362.5 817.3 360.8 819.4 356.1 833.2C346.9 860.2 332.6 884.2 314.5 902.8C308.5 909.1 302.4 915 300.9 916.1L298.2 918L295.1 906.7C291 891.8 287 873.5 287 869.5C287 866.7 289 864.6 306.2 848.9C333.8 823.9 357.2 800.5 361.7 793.4C375.2 772.2 369.4 750 347.2 738.2C337.2 732.9 322.4 730.4 311 732.1ZM318.5 746.2C323.4 749.5 326.3 754.4 326.8 760.3C327.7 771.6 320.7 782.1 296 806.5L281.8 820.5L282.3 802C283 781.1 284.4 772.9 289.1 763.7C297.5 747.1 309.5 740 318.5 746.2ZM275.8 892.4C277 898.2 279.8 908.3 281.9 915L285.8 927L279.1 931C265.2 939.2 252.5 941.7 247.4 937C245 934.7 244.8 934.1 245.2 927.4C245.8 919.1 248.7 911.9 255.7 902.2C261.1 894.5 271.8 882 272.8 882C273.2 882 274.5 886.7 275.8 892.4Z" fill="black"/>
<path d="M1617.5 803.5C1607.1 810.3 1598.4 816.3 1598.2 816.8C1597.8 818 1602.6 821.9 1605.5 822.6C1607.2 823 1630.2 817.7 1655.8 810.9C1659.5 809.9 1660 809.4 1660 807C1660 801.4 1646.4 790.9 1639.4 791C1637.4 791.1 1630.4 795 1617.5 803.5Z" fill="black"/>
</svg>
