<svg width="1445" height="530" viewBox="0 0 1445 530" fill="none" xmlns="http://www.w3.org/2000/svg">
<path d="M289 3.30401C280.2 7.10401 275.1 10.504 265.8 18.704C253.5 29.404 244.9 40.404 226.8 68.204C214.4 87.304 210.4 92.704 211.5 89.504C216.3 74.604 220.5 59.304 223.9 44.704C229.2 21.704 232.7 12.504 238.1 7.50401C241.1 4.80401 241.9 3.50401 241.1 2.70401C239.4 1.00401 233.7 4.50401 227.1 11.104C220.3 17.904 212.3 29.104 191.8 60.504C167.7 97.304 159.8 106.204 145.2 113.204C132.5 119.304 120.1 117.404 115.7 108.804C111.4 100.304 112.7 83.804 118.6 72.104C124.8 59.604 134.8 52.004 144.9 52.004C154.8 52.004 159 56.404 159 67.004C159 73.704 156.5 80.204 152.4 84.004C149.5 86.804 149.3 88.004 152 88.004C157.1 88.004 166.3 74.404 167.6 64.804C168.5 58.604 165.9 50.204 162 46.504C159.3 43.904 158 43.504 152 43.204C145.9 42.804 144.3 43.104 138.4 45.904C128.3 50.604 117.7 61.804 111.6 74.104C100.9 95.804 100.4 113.404 110.2 124.504C117.9 133.304 128.7 134.404 142.1 127.804C148.2 124.804 151.5 122.104 160.1 113.304C170.5 102.504 176.9 93.404 206.3 46.404C208.9 42.204 211.3 39.004 211.5 39.204C211.7 39.404 210.6 43.104 208.9 47.404C207.2 51.704 203.6 64.004 200.9 74.804C193.3 104.604 190.1 113.504 184.3 120.404C182.6 122.404 182.2 123.604 182.9 124.304C184.5 125.904 187.7 124.004 195.9 116.404C204.8 108.204 214 96.104 227.4 75.004C232.8 66.504 239.2 56.504 241.7 52.704C246.6 45.404 261.9 27.604 262.7 28.304C262.9 28.604 259.8 33.304 255.7 38.804C242.1 57.104 232.2 75.304 226.3 92.804C220.7 109.704 220.8 119.304 226.7 124.004C233.1 129.004 242.1 124.504 254 110.304C263.1 99.404 270 89.504 270 87.404C270 83.904 266.6 86.704 261.5 94.504C252.2 108.604 244.2 115.104 240.3 111.804C238.2 110.104 239 98.504 241.9 90.304C245.6 79.504 261.6 47.704 268.9 36.904C272.7 31.204 278.9 22.704 282.7 18.004C288.3 11.004 290.7 8.90401 296 6.30401C307.9 0.304014 301.7 -2.29599 289 3.30401Z" fill="black"/>
<path d="M679.5 1.40419C677.3 2.10419 672.2 4.40419 668.1 6.40419L660.6 10.2042L650.6 7.10419C632.9 1.60419 624.1 0.804185 613.5 3.60419C605.1 5.70419 599.6 9.20419 591.5 17.4042C580.5 28.6042 574.4 42.4042 575.2 54.1042C575.7 60.7042 578.1 64.9042 582.2 66.4042C588 68.5042 595.4 63.4042 594.8 57.7042C594.5 55.0042 594.1 54.5042 591.5 54.2042C583.6 53.5042 582 51.6042 582 42.8042C582 27.5042 595.5 17.9042 616.8 17.9042C625.4 17.9042 642.8 20.3042 645.7 21.9042C646.5 22.3042 644.1 26.0042 638.9 32.5042C634.5 38.0042 622.1 55.4042 611.4 71.2042C600.6 87.0042 590.3 101.304 588.4 103.004C584.3 106.604 583.3 106.604 569.3 103.904C555.2 101.204 546.2 101.604 542.5 105.004C539.1 108.104 537 112.204 537 115.404C537 118.904 541.5 123.804 545.8 125.004C553.8 127.204 567.4 125.404 576.2 120.904C581.1 118.404 583.7 118.504 590.3 121.504C600 126.004 611.3 128.304 620.9 127.804C632.7 127.204 640.9 123.304 650.6 113.604C659.8 104.404 662.5 98.1042 661.7 87.0042C661.1 78.1042 660.4 76.0042 658 76.0042C656.6 76.0042 656.2 77.2042 655.7 83.9042C655.1 93.0042 653 98.5042 646.5 107.504C643.2 112.204 640.7 114.504 636.8 116.404C631.2 119.204 628 119.504 621.1 117.904C616.2 116.804 599 109.104 599 108.104C599 107.704 600.9 105.604 603.1 103.504C612.9 94.1042 626 75.8042 647.2 42.0042C650.9 36.2042 655.3 29.8042 657.2 27.7042C660.3 24.0042 660.9 23.8042 669 22.8042C684.4 21.0042 694.2 16.7042 697.6 10.4042C699 7.90419 699 6.90419 698.1 5.10419C695.6 0.504185 687.4 -1.09581 679.5 1.40419ZM689.4 8.20419C691.8 12.2042 683.2 16.3042 675.1 15.0042C673.2 14.7042 671.5 14.0042 671.3 13.4042C671.1 12.8042 673.5 10.9042 676.7 9.20419C683 5.70419 687.6 5.40419 689.4 8.20419ZM564.4 110.004C568 111.104 571.1 112.404 571.4 112.804C571.7 113.304 569.4 115.204 566.4 117.004C558.9 121.504 551 122.304 547.5 119.004C542.4 114.204 545.7 108.004 553.4 108.004C555.8 108.004 560.7 108.904 564.4 110.004Z" fill="black"/>
<path d="M1087.5 1.50389C1078.5 3.50389 1072.4 5.70389 1062.5 10.8039C1050.1 17.2039 1037.6 29.3039 1032.6 40.0039C1025.5 55.0039 1025.7 67.0039 1033.2 74.0039C1035.9 76.5039 1044.6 76.7039 1049.3 74.4039C1056 71.0039 1064.3 62.9039 1062.7 61.3039C1062.4 61.0039 1060.4 62.0039 1058.3 63.4039C1054 66.4039 1047.7 66.9039 1044.3 64.5039C1038.8 60.7039 1039 49.3039 1044.6 38.2039C1050.7 25.8039 1066.1 12.9039 1080.5 8.10389C1107.7 -0.896108 1127.4 6.90389 1127.3 26.7039C1127.2 42.4039 1112.2 58.7039 1096.3 60.6039C1088.5 61.5039 1087 62.0039 1087 63.5039C1087 64.5039 1088 65.0039 1089.9 65.0039C1096.6 65.0039 1096.6 72.6039 1089.9 85.3039C1080.3 103.504 1079.8 104.704 1079.2 111.804C1078.8 118.404 1078.9 118.804 1081.8 122.104C1084.6 125.204 1085.3 125.504 1090.7 125.504C1095.2 125.404 1097.6 124.804 1101 122.804C1106.5 119.604 1115.2 110.604 1120.8 102.204C1123.2 98.8039 1125.2 96.0039 1125.4 96.0039C1125.5 96.0039 1124.6 99.0039 1123.4 102.704C1119.9 112.904 1120.5 120.704 1125.2 125.704C1129.6 130.404 1136.2 127.904 1146.6 117.804L1154 110.704V116.404C1154 121.204 1154.4 122.504 1156.6 124.604C1159.5 127.604 1161.9 127.404 1168.7 123.404C1174.8 119.904 1181.4 111.604 1194.3 91.3039C1194.8 90.5039 1194.6 90.0039 1193.8 90.0039C1193.1 90.0039 1189 95.2039 1184.7 101.504C1176.3 113.704 1171.2 119.004 1167.8 119.004C1164.1 119.004 1165.9 111.604 1172.7 99.3039C1176 93.4039 1182 82.3039 1185.9 74.7039L1193.1 61.0039H1186.1C1179.8 61.0039 1178.9 61.2039 1177.9 63.2039C1177.3 64.5039 1176.6 65.6039 1176.5 65.8039C1176.3 66.0039 1175.1 65.0039 1173.7 63.6039C1166.3 56.2039 1146.6 66.4039 1133.4 84.2039C1130.5 88.1039 1128.9 89.5039 1128.2 88.8039C1127.5 88.1039 1125.5 90.2039 1121.8 95.6039C1115 105.704 1106.2 114.604 1101.8 115.804C1093.6 118.004 1092.9 112.304 1099.3 96.9039C1101.7 91.2039 1104 84.8039 1104.4 82.7039C1105.2 78.2039 1103.7 72.8039 1100.3 68.2039C1097.6 64.6039 1097.3 64.9039 1106.3 63.0039C1118.8 60.5039 1130.8 52.3039 1136.6 42.5039C1140.2 36.3039 1141.2 24.3039 1138.6 17.6039C1136.6 12.5039 1131.6 7.00389 1126.8 4.70389C1117 0.103892 1100.1 -1.29611 1087.5 1.50389ZM1170.8 65.2039C1173.9 68.3039 1171.2 76.9039 1161.8 93.2039C1154.2 106.404 1146.5 116.104 1141.7 118.304C1137.5 120.304 1135.5 119.804 1134.2 116.104C1132.8 112.004 1135.9 103.404 1143.1 91.4039C1155.5 70.8039 1166.3 60.7039 1170.8 65.2039Z" fill="black"/>
<path d="M869.8 13.0039C868.9 13.6039 867.6 15.7039 866.9 17.8039C865.2 23.0039 860.5 32.3039 856.3 38.7039L852.7 44.0039H846.9C841 44.0039 841 44.0039 841 46.9039C841 49.7039 841.3 49.9039 845.4 50.2039L849.8 50.5039L839.8 68.0039C823.9 95.8039 818.7 107.104 818.2 114.404C817.8 119.804 818.1 121.004 820.1 123.404C821.7 125.204 823.8 126.304 826.5 126.604C832.4 127.404 841.1 121.804 851.9 110.304L860.6 101.204L859.2 106.804C857.3 114.104 858.2 120.904 861.6 125.004C866.3 130.504 872.7 128.404 883.6 117.804L891 110.704V116.404C891 121.204 891.4 122.504 893.6 124.604C896.5 127.604 898.9 127.404 905.7 123.404C911.8 119.904 918.4 111.604 931.3 91.3039C931.8 90.5039 931.6 90.0039 930.8 90.0039C930.1 90.0039 926 95.2039 921.7 101.504C913.3 113.704 908.2 119.004 904.8 119.004C901.1 119.004 902.9 111.604 909.7 99.3039C913 93.4039 919 82.3039 922.9 74.7039L930.1 61.0039H923.1C916.8 61.0039 915.9 61.2039 914.9 63.2039C914.3 64.5039 913.6 65.6039 913.5 65.8039C913.3 66.0039 912.1 65.0039 910.7 63.6039C902.1 55.0039 880.1 68.8039 861.9 94.0039C857.4 100.104 850.8 108.204 847.2 112.004C841.7 117.704 839.9 119.004 837.4 119.004C832.1 119.004 831.4 117.004 834 109.204C836.7 101.004 848 78.8039 857.9 62.2039L865.3 50.0039H871.1C877 50.0039 877 50.0039 877 47.0039C877 44.1039 876.8 44.0039 872.5 44.0039H868L872.6 36.9039C879.1 26.8039 884.4 15.5039 883.7 13.6039C883.2 12.4039 881.7 12.0039 877.3 12.0039C874.1 12.0039 870.7 12.5039 869.8 13.0039ZM907.8 65.2039C910.9 68.3039 908.2 76.9039 898.8 93.2039C888.5 111.104 878.7 121.404 873.6 119.404C871.8 118.704 870.6 115.504 870.8 111.704C871.5 102.604 890.6 72.8039 899.8 66.5039C903.9 63.7039 906 63.4039 907.8 65.2039Z" fill="black"/>
<path d="M1109.3 15.9041C1102.6 18.2041 1094.5 23.6041 1088.4 29.8041C1082.8 35.5041 1076.5 45.4041 1058.4 76.9041C1043.8 102.104 1037.8 110.504 1029.5 117.204C1019.4 125.404 1008.2 127.304 1003.3 121.504L1001.1 118.904L1003.2 114.504C1005.8 109.104 1005 105.204 1000.8 103.204C994.4 100.104 987.9 107.204 989.5 115.604C990.3 120.104 995.2 125.604 999.7 127.104C1004.6 128.704 1016.2 128.404 1023.5 126.504C1046.5 120.504 1062.2 105.404 1079.5 72.5041C1091.8 49.0041 1101.3 32.1041 1104.9 27.4041C1107 24.6041 1111 21.1041 1114.3 19.1041C1122.7 14.1041 1119.8 12.2041 1109.3 15.9041Z" fill="black"/>
<path d="M822.5 32.3019C818.6 36.2019 817.8 40.7019 820.6 43.4019C822.6 45.4019 823.5 45.4019 827 43.3019C833.7 39.4019 834.8 29.9019 828.7 29.2019C826.6 28.9019 825.1 29.7019 822.5 32.3019Z" fill="black"/>
<path d="M1228.5 32.3019C1224.6 36.2019 1223.8 40.7019 1226.6 43.4019C1228.6 45.4019 1229.5 45.4019 1233 43.3019C1239.7 39.4019 1240.8 29.9019 1234.7 29.2019C1232.6 28.9019 1231.1 29.7019 1228.5 32.3019Z" fill="black"/>
<path d="M417.4 34.1026C415.8 35.8026 410.8 39.9026 406.3 43.2026C393.6 52.6026 395.7 54.8026 410.3 47.4026C423.5 40.8026 428.8 35.8026 426.5 32.1026C425.2 29.9026 420.4 31.0026 417.4 34.1026Z" fill="black"/>
<path d="M1263.2 61.0042C1253.8 64.4042 1241.4 75.3042 1235.4 85.6042C1234 88.0042 1232.4 89.8042 1232 89.5042C1231.5 89.2042 1229.6 91.9042 1227.6 95.4042C1220.5 108.104 1208.5 121.004 1203.8 121.004C1201.2 121.004 1199.7 118.304 1200.4 114.904C1200.7 113.104 1206 103.004 1212.1 92.3042C1222.2 74.7042 1227 64.9042 1227 61.9042C1227 61.3042 1224.3 61.0042 1219.8 61.2042L1212.6 61.5042L1210.5 67.5042C1209.3 70.8042 1206.4 76.9042 1204.1 81.0042C1195.1 96.5042 1193.4 99.7042 1190.6 105.904C1185.8 116.704 1187.1 126.004 1193.7 127.604C1195.2 128.004 1198.4 127.804 1200.9 127.104C1209.9 124.704 1218.4 116.404 1225.2 103.304C1227 99.9042 1228.6 97.2042 1228.7 97.4042C1228.8 97.5042 1228.3 99.8042 1227.5 102.504C1224.2 113.504 1226.4 121.804 1233.7 125.304C1237.6 127.204 1238.5 127.304 1242.8 126.204C1249.2 124.504 1260 117.004 1266.6 109.604C1273.2 102.304 1285 86.0042 1285 84.2042C1285 81.6042 1282.4 83.2042 1280.1 87.3042C1273.7 98.6042 1260.7 112.104 1251.9 116.504C1245.7 119.704 1243.7 119.604 1241 116.204C1237.9 112.404 1238.8 106.304 1244 95.8042C1254.9 74.2042 1268.1 59.6042 1271.7 65.2042C1272.1 65.9042 1272.7 69.0042 1273 72.0042C1273.6 78.9042 1275.4 79.2042 1279.1 73.0042C1283.3 66.1042 1283.5 64.4042 1280.6 61.5042C1277.5 58.4042 1271.1 58.2042 1263.2 61.0042Z" fill="black"/>
<path d="M1320.4 60.0041C1298.2 64.5041 1273.2 96.4041 1278 114.104C1280.5 123.104 1289.4 128.104 1299.3 126.004C1319.6 121.804 1341.5 92.9041 1339.8 72.6041C1339 62.7041 1331.4 57.8041 1320.4 60.0041ZM1329.1 66.1041C1334 75.4041 1314.3 112.204 1300.7 119.204C1293 123.104 1289.2 119.604 1291 110.304C1293.6 96.0041 1308 74.4041 1319.9 66.8041C1325.3 63.4041 1327.5 63.3041 1329.1 66.1041Z" fill="black"/>
<path d="M349.9 76.1042C340 95.6042 332.2 106.704 321.8 116.504C317.5 120.504 314 124.304 314 124.904C314 127.004 316.9 126.004 321.7 122.204C329.6 115.904 337 105.904 347.9 86.5042C351.3 80.4042 354.4 75.2042 354.8 74.8042C355.7 73.9042 366 75.0042 366 75.9042C366 76.2042 362.3 80.8042 357.9 86.0042C346.5 99.5042 341 111.004 342.5 118.704C343.9 126.404 351 128.304 359.2 123.104C368 117.504 389.9 87.0042 385.1 87.0042C384.7 87.0042 381.4 91.4042 377.9 96.7042C370.5 107.804 363 116.004 360.1 116.004C357.6 116.004 356.3 110.404 357.8 106.004C359.4 101.504 369.2 84.4042 376.5 73.3042C380.1 68.0042 383 63.0042 383 62.3042C383 60.6042 381.2 60.7042 374.1 62.6042C368.3 64.2042 368 64.2042 364 62.1042C361.8 61.0042 359.5 60.0042 359 60.0042C358.5 60.0042 354.4 67.2042 349.9 76.1042Z" fill="black"/>
<path d="M404.5 61.0039C401.9 61.4039 401.3 62.1039 400.3 66.4039C399.6 69.1039 395.7 77.2039 391.6 84.4039C380.2 104.404 377.6 110.504 377.5 117.304C377.5 122.504 377.8 123.404 380.3 125.604C387.3 131.604 399.8 125.604 408.9 112.104C413.1 105.804 423 87.5039 423 86.0039C423 83.4039 420.8 85.5039 418.4 90.2039C410.8 105.104 398.2 120.404 393.9 119.804C392 119.604 391.4 118.804 391.2 116.204C390.9 112.904 392 110.704 406.8 85.1039C413.3 73.8039 417 65.8039 417 62.7039C417 60.6039 416.5 60.4039 412.3 60.4039C409.6 60.4039 406.2 60.7039 404.5 61.0039Z" fill="black"/>
<path d="M754.5 74.9042C744.1 95.4042 738.3 104.004 727.4 114.804C722.2 119.904 718 124.504 718 125.104C718 127.004 721 125.904 725.7 122.204C733.6 115.904 741 105.904 751.9 86.5042C755.3 80.4042 758.4 75.2042 758.8 74.8042C759.7 73.9042 770 75.0042 770 75.9042C770 76.2042 766.3 80.8042 761.9 86.0042C750.5 99.5042 745 111.004 746.5 118.704C747.9 126.404 755 128.304 763.2 123.104C772 117.504 793.9 87.0042 789.1 87.0042C788.7 87.0042 785.4 91.4042 781.9 96.7042C774.5 107.804 767 116.004 764.1 116.004C761.6 116.004 760.3 110.404 761.8 106.004C763.4 101.504 773.2 84.4042 780.5 73.3042C784.1 68.0042 787 63.0042 787 62.3042C787 60.6042 785.2 60.7042 778.1 62.6042C772.3 64.2042 772 64.2042 768 62.1042C765.8 61.0042 763.5 60.0042 763 60.0042C762.5 60.0042 758.7 66.7042 754.5 74.9042Z" fill="black"/>
<path d="M297.9 64.2039C289.2 68.7039 275.9 82.0039 270.3 92.0039C262.4 106.004 261.1 118.404 266.6 125.004C271.4 130.704 277.3 128.704 288.8 117.704L296 110.704V116.404C296 121.204 296.4 122.504 298.6 124.604C301.5 127.604 303.9 127.404 310.7 123.404C316.8 119.904 323.4 111.604 336.3 91.3039C336.8 90.5039 336.6 90.0039 335.8 90.0039C335.1 90.0039 331 95.2039 326.7 101.504C318.3 113.704 313.2 119.004 309.8 119.004C306.1 119.004 307.9 111.604 314.7 99.3039C318 93.4039 324 82.3039 327.9 74.7039L335.1 61.0039H328.1C321.8 61.0039 320.9 61.2039 319.9 63.2039C319.3 64.5039 318.6 65.6039 318.5 65.8039C318.3 66.0039 317.1 65.0039 315.7 63.6039C311.9 59.9039 306.1 60.1039 297.9 64.2039ZM312.8 65.2039C314.5 66.9039 314.3 71.3039 312.1 77.1039C309.1 84.8039 298.2 103.404 292.4 110.404C281.2 124.004 272.3 121.904 277.4 106.904C281.4 94.8039 295.8 73.5039 303.9 67.2039C308.4 63.8039 310.8 63.2039 312.8 65.2039Z" fill="black"/>
<path d="M448.9 64.2039C440.2 68.7039 426.9 82.0039 421.3 92.0039C413.4 106.004 412.1 118.404 417.6 125.004C422.4 130.704 428.3 128.704 439.8 117.704L447 110.704V116.404C447 121.204 447.4 122.504 449.6 124.604C452.5 127.604 454.9 127.404 461.7 123.404C467.8 119.904 474.4 111.604 487.3 91.3039C487.8 90.5039 487.6 90.0039 486.8 90.0039C486.1 90.0039 482 95.2039 477.7 101.504C469.3 113.704 464.2 119.004 460.8 119.004C457.1 119.004 458.9 111.604 465.7 99.3039C469 93.4039 475 82.3039 478.9 74.7039L486.1 61.0039H479.1C472.8 61.0039 471.9 61.2039 470.9 63.2039C470.3 64.5039 469.6 65.6039 469.5 65.8039C469.3 66.0039 468.1 65.0039 466.7 63.6039C462.9 59.9039 457.1 60.1039 448.9 64.2039ZM463.8 65.2039C465.5 66.9039 465.3 71.3039 463.1 77.1039C460.1 84.8039 449.2 103.404 443.4 110.404C432.2 124.004 423.3 121.904 428.4 106.904C432.4 94.8039 446.8 73.5039 454.9 67.2039C459.4 63.8039 461.8 63.2039 463.8 65.2039Z" fill="black"/>
<path d="M692.6 62.204C692.4 62.904 691.7 65.504 691 68.004C690.3 70.504 686.2 78.904 681.8 86.804C671.3 105.604 669.9 109.104 669.7 115.504C669.6 120.004 670 121.404 672 123.504C677.5 129.404 686.6 125.204 697.9 111.504L701.2 107.504L700.6 112.604C699.5 121.704 703.5 127.004 710.2 125.304C716.8 123.604 726.8 113.204 736.7 97.604C742.1 89.304 742.6 88.004 740.8 88.004C740 88.004 736.8 92.104 733.6 97.004C726.3 108.304 718.3 117.004 715.1 117.004C712.9 117.004 712.8 116.704 713.3 112.504C714.1 107.004 718.2 97.904 725.5 85.404C731.7 74.904 737 64.204 737 62.204C737 61.204 735.2 61.004 729.9 61.204L722.7 61.504L718.6 71.004C708.4 94.604 691.1 118.704 684.9 117.804C680.9 117.304 682 112.404 689.3 99.804C698.4 83.804 705.7 69.004 706.5 64.704L707.2 61.004H700.1C695.2 61.004 692.8 61.404 692.6 62.204Z" fill="black"/>
<path d="M806.5 62.0041C806.2 62.5041 805.3 64.9041 804.6 67.3041C803.4 71.3041 801.7 74.6041 790.9 93.5041C785.5 102.904 781.7 112.604 781.6 117.304C781.5 122.504 784 126.704 787.7 127.604C794.3 129.304 805.5 123.304 812.2 114.504C816.7 108.604 826.2 91.1041 825.7 89.7041C825.5 89.1041 823.7 91.6041 821.7 95.2041C814.5 108.104 802.5 121.004 797.8 121.004C795.2 121.004 793.7 118.304 794.4 114.904C794.7 113.104 800 103.004 806.1 92.3041C816.1 74.8041 821 64.9041 821 62.0041C821 60.7041 807.3 60.7041 806.5 62.0041Z" fill="black"/>
<path d="M731 194.904C729.1 195.404 728 197.104 725.9 203.004C724.4 207.104 720.3 216.604 716.8 224.004C707.9 242.504 705.8 248.404 705.6 255.504C705.3 269.304 713.6 271.704 725.1 261.304C728.9 257.804 729.2 257.704 728.5 260.004C728.1 261.404 725.8 266.904 723.4 272.404C713 296.204 701.3 310.004 691.5 310.004C685.5 310.004 684.3 308.304 685.9 301.904C687 297.604 687 296.604 685.6 294.504C681.9 288.904 675.7 293.204 675.7 301.404C675.7 309.204 680.8 313.404 690 313.204C700.3 313.004 708.7 309.204 717.8 300.604C725.1 293.704 730.6 284.504 739.8 263.504C748.3 244.304 756.4 226.404 763.6 210.904C766.3 205.004 768 199.804 768 197.604V193.904L761.8 194.204C755.7 194.504 755.6 194.504 754.7 198.004C753.5 203.004 744.5 225.004 739.9 234.504C737.7 238.904 734.1 245.004 731.9 248.004C727.9 253.404 721.3 259.004 719.1 259.004C715.8 259.004 720 245.204 729.4 225.004C736.8 209.304 741.3 197.204 740.6 195.304C740 193.904 735.3 193.704 731 194.904Z" fill="black"/>
<path d="M979.5 240.104C971.3 243.404 964.1 246.604 963.6 247.104C963 247.604 937.4 248.004 901.3 248.004C861.1 248.004 840 248.304 840 249.004C840 249.504 840.4 250.004 841 250.004C841.5 250.004 841.9 250.604 841.7 251.204C841.6 252.204 854.6 252.604 903.5 253.004L965.5 253.504L975 257.804C996.1 267.304 994.3 267.004 1028.1 267.004C1047.4 267.004 1058 266.604 1058 266.004C1058 265.404 1057.2 265.004 1056.3 265.004C1054.8 265.004 1054.7 264.804 1056 264.004C1057.1 263.304 1056.8 262.904 1054.5 262.004C1046.5 259.104 1028.4 251.704 1027.8 251.104C1027.4 250.804 1033.9 247.804 1042.1 244.504C1050.4 241.204 1057.4 238.204 1057.6 237.704C1057.9 237.304 1056.6 237.004 1054.8 237.004L1051.5 236.904L1054.5 235.504C1057.1 234.304 1053.5 234.204 1026 234.104H994.5L979.5 240.104ZM1005.7 236.704C1005.3 237.104 999.7 239.604 993.2 242.304C985.3 245.704 979.7 247.404 975.8 247.704C972.6 248.004 970 247.804 970 247.304C970 246.904 976 244.204 983.3 241.304C992.6 237.604 997.9 236.104 1001.4 236.104C1004.1 236.004 1006 236.304 1005.7 236.704ZM1024.5 236.804C1023.9 237.304 1018.6 239.604 1012.5 242.004C1006.5 244.404 1001.1 246.704 1000.6 247.204C999.4 248.204 989 248.304 989 247.204C989.1 246.804 994.8 244.204 1001.8 241.404C1011.3 237.504 1015.9 236.204 1020 236.104C1023 236.004 1025 236.404 1024.5 236.804ZM1043 236.704C1043 237.204 1039.1 239.004 1034.2 240.904C1029.4 242.804 1023.7 245.104 1021.6 246.104C1017.7 248.004 1008 248.704 1008 247.204C1008 246.804 1013.7 244.204 1020.8 241.304C1029.4 237.804 1035 236.204 1038.3 236.104C1040.9 236.004 1043 236.304 1043 236.704ZM933.8 250.704C917.5 250.904 890.5 250.904 873.8 250.704C857.1 250.604 870.5 250.504 903.5 250.504C936.5 250.504 950.1 250.604 933.8 250.704ZM982.8 251.004C983.7 251.604 989.5 254.004 995.5 256.504L1006.5 260.904L1000.8 261.004C996.2 261.004 992.6 260.004 983.3 256.404C976.8 253.804 971.1 251.304 970.6 250.904C969.2 249.604 980.7 249.804 982.8 251.004ZM1001.6 250.804C1002.1 251.304 1007.5 253.704 1013.5 256.104L1024.5 260.504L1019.4 260.804C1015.2 261.004 1012 260.204 1001.4 256.004C994.3 253.104 988.3 250.604 988.1 250.404C987.2 249.604 1000.6 250.004 1001.6 250.804ZM1020.6 250.804C1021.1 251.304 1026.4 253.704 1032.5 256.104L1043.4 260.504L1038.2 260.804C1033.8 261.104 1030.9 260.304 1020.2 255.904C1013.2 253.104 1007.3 250.604 1007.1 250.404C1006.2 249.604 1019.6 250.004 1020.6 250.804Z" fill="black"/>
<path d="M390.5 237.504C392.2 238.304 392.8 238.904 392.1 239.004C389.2 239.004 392.6 240.804 405.8 246.004C413.1 249.004 418.7 251.604 418.3 252.004C417.9 252.404 410.8 255.404 402.5 258.604C388.2 264.304 387.7 264.504 391.5 265.004C395.3 265.504 395.4 265.604 393 266.504C391.3 267.204 400.2 267.504 421.2 267.704L451.9 268.004L468.2 261.304L484.5 254.504L545.5 254.004C579.1 253.704 601.6 253.304 595.5 253.004L584.5 252.604L594.3 252.304C602 252.004 604 251.604 604 250.504C604 249.204 595.9 249.004 543.2 249.004H482.4L466.2 242.504L450 236.004L418.8 236.104C391.4 236.204 387.9 236.304 390.5 237.504ZM424 243.504L437.5 248.904L431.6 249.004C426.8 249.004 423.4 248.104 414.1 244.304C407.7 241.804 402.1 239.304 401.6 238.804C401 238.404 402.8 238.004 405.6 238.004C409.3 238.004 414 239.404 424 243.504ZM442.7 243.404L456.5 248.904H450.6C445.8 249.004 442.5 248.104 433.1 244.304C426.7 241.804 421.1 239.304 420.6 238.804C420 238.404 421.7 238.004 424.2 238.004C427.5 238.004 433 239.604 442.7 243.404ZM461.2 243.204L474.5 248.504L469.3 248.804C465 249.004 462 248.304 452.3 244.404C445.8 241.904 440.1 239.404 439.6 238.904C439 238.404 440.5 238.004 443.3 238.004C446.5 238.004 451.9 239.604 461.2 243.204ZM420.7 251.204C420.4 252.004 420.1 251.704 420.1 250.604C420 249.504 420.3 248.904 420.6 249.304C420.9 249.604 421 250.504 420.7 251.204ZM436.9 252.404C436.7 252.604 430.5 255.004 423.2 257.904C414 261.404 408.5 263.004 405.3 263.004C402.7 263.004 401 262.604 401.6 262.204C404.4 259.704 426 252.104 431 251.804C436.4 251.504 437.8 251.604 436.9 252.404ZM442.7 257.504C433 261.404 427.5 263.004 424.3 263.004C421.7 263.004 420 262.704 420.4 262.204C420.8 261.804 426.1 259.404 432.3 256.904C441.4 253.104 444.7 252.204 450 252.204L456.5 252.004L442.7 257.504ZM473.9 252.404C473.7 252.604 467.8 255.104 460.7 257.904C451.8 261.504 446.6 263.004 443.3 263.004C440.4 263.004 439 262.604 439.6 262.104C440.1 261.604 445.5 259.104 451.5 256.704C460 253.204 463.8 252.204 468.4 252.104C471.7 252.004 474.1 252.204 473.9 252.404ZM499.3 252.704C496.9 252.904 493.1 252.904 490.8 252.704C488.4 252.504 490.3 252.304 495 252.304C499.7 252.304 501.6 252.504 499.3 252.704ZM522.8 252.704C519.6 252.904 514.4 252.904 511.3 252.704C508.1 252.504 510.7 252.404 517 252.404C523.3 252.404 525.9 252.504 522.8 252.704ZM576.8 252.704C575.8 252.904 574 252.904 572.8 252.704C571.5 252.504 572.3 252.304 574.5 252.304C576.7 252.204 577.7 252.404 576.8 252.704Z" fill="black"/>
<path d="M630.8 360.405C623.7 363.305 616.6 367.405 611.5 371.505C600.8 380.105 586.9 397.105 577 413.505C574.1 418.505 571.2 422.805 570.6 423.205C569 424.305 544 424.205 544 423.105C544 421.205 558.1 397.105 563.4 389.905L569.1 382.305L578.3 381.805C592.1 381.105 601 376.505 601 370.005C601 363.205 589.3 363.405 575 370.605L570 373.105L563.7 370.605C551 365.605 546 364.505 535 364.605C526.9 364.705 523 365.205 518 366.905C501.9 372.405 486.7 385.905 479 401.405C475.2 409.105 474.6 411.205 474.6 416.905C474.5 424.705 476.1 428.505 480.9 431.705C486.3 435.405 496.2 434.205 502.6 429.105C507 425.705 513.2 417.105 512.6 415.405C512.1 414.205 510.9 415.005 507.1 418.905C499.7 426.505 492.8 426.705 487 419.305C485.1 416.805 484.8 415.605 485.2 409.305C486.1 395.805 494.2 384.105 506.8 378.205C512.1 375.705 513.4 375.505 525.5 375.605C534.8 375.705 541.3 376.305 548.4 377.905C553.9 379.105 558.5 380.205 558.7 380.405C558.9 380.605 555.9 383.805 551.9 387.605C542.8 396.505 535.5 405.505 529.2 415.505L524.3 423.505L518.9 424.005C514.3 424.405 513.5 424.805 513.5 426.505C513.5 428.105 514.3 428.605 517.3 428.805C519.3 429.005 521 429.305 521 429.605C521 430.705 506.4 455.005 502.4 460.705C496.3 469.205 489.4 475.805 481.9 480.205C476.6 483.405 474.6 484.005 469.9 484.005C465.8 484.005 463.9 483.505 462.7 482.205C460.4 479.705 460.6 476.705 463 474.505C467.3 470.605 464.5 460.005 459.3 460.005C458.3 460.005 456.1 460.905 454.3 462.005C448.8 465.305 447.4 476.105 451.8 482.005C455.6 487.005 459.7 488.505 469.5 488.505C479.3 488.405 485.1 486.905 495.5 481.705C511.9 473.505 520.1 464.605 534.5 439.205L540.3 429.005H553.6C561 429.005 567 429.205 567 429.405C567 429.605 560.5 441.505 552.5 455.805C544.5 470.205 537.7 482.605 537.4 483.505C536.9 484.805 538 485.005 544.6 485.005H552.5L559 473.205C570.3 452.605 603.1 396.805 608.4 389.005C614.3 380.405 622.6 371.805 629.5 367.005C635 363.205 642.1 362.005 647 364.005C650.4 365.405 652.5 364.405 651.5 361.805C649.8 357.505 639.5 356.805 630.8 360.405ZM591.5 372.505C591.5 375.305 586.8 377.305 581.9 376.505C577.3 375.705 577.6 374.505 583.4 371.905C588.5 369.605 591.5 369.805 591.5 372.505Z" fill="black"/>
<path d="M93.5 360.104C72.5 363.304 48 376.904 37.1 391.204C30.2 400.404 27.6 407.204 27.2 417.504C26.9 425.404 27.2 427.104 29.2 431.004C34.1 440.504 44.1 442.804 55.6 437.004C65.2 432.304 74.6 422.004 69.5 422.004C68.7 422.004 66.3 423.604 64.2 425.504C59.6 429.604 56.2 431.004 51 431.004C42 431.004 38.4 426.204 39.2 415.704C40.7 397.804 57.4 378.404 79 369.604C89.1 365.404 102.6 363.504 111.2 364.904C119.7 366.304 124.7 368.704 128.8 373.404C136.9 382.704 134.6 399.004 123.6 410.404C117.9 416.204 112.1 419.104 104.2 420.004C94 421.304 93.1 424.204 102.4 425.904C114.1 428.104 118.9 440.404 113.9 455.204C109 469.904 98.3 479.004 86.1 479.004C80.8 479.004 80.5 478.804 75.9 473.904C72.7 470.404 70.6 468.904 69.6 469.304C65.2 471.004 70.1 477.904 78.7 482.204C84.8 485.204 86.3 485.504 94 485.404C114.1 485.304 127.3 473.504 128.7 454.504C129.6 442.504 125.7 433.404 116.7 426.904L112.7 424.004H115.7C119.9 424.004 133.8 416.904 138.4 412.504C148.6 402.404 150.1 385.804 141.7 374.904C132.8 363.204 112.8 357.104 93.5 360.104Z" fill="black"/>
<path d="M994.9 361.805C982.3 366.005 963.9 380.905 954.8 394.305C938.8 417.805 939.6 447.005 956.2 447.005C960.8 447.005 962.7 446.105 969.6 440.905C973.8 437.705 980 429.205 980 426.605C980 425.005 976.9 426.305 975.4 428.505C973.8 431.005 964.8 436.005 961.9 436.005C961 436.005 959.1 435.105 957.7 434.005C952.1 429.605 953.7 414.705 961.3 399.705C964.7 393.005 967.4 389.505 976 381.005C987.1 369.905 993 366.105 1000.6 365.205C1004.2 364.805 1005.2 365.105 1007.5 367.405C1013.6 373.505 1009.4 384.805 985.5 428.005C979.3 439.305 973 452.005 971.6 456.205C967.2 469.205 968.6 480.405 975 484.705C985.4 491.805 1004.4 481.505 1021.5 459.505C1046.1 427.905 1065.5 384.805 1062.4 368.405C1060.9 360.105 1054.4 357.405 1048.9 362.905C1045 366.805 1044.8 372.805 1048.5 377.205C1051.8 381.205 1051.8 386.005 1048.1 399.105C1041.1 423.805 1025.6 451.605 1011.1 465.205C997.7 477.905 990.4 480.805 986 475.205C981.7 469.805 983.6 464.605 1003.8 426.505C1019.7 396.605 1022.4 389.805 1022.4 379.505C1022.5 372.905 1022.1 370.805 1020.2 367.405C1018.9 365.205 1016.9 362.805 1015.7 362.005C1012.2 359.805 1001.3 359.705 994.9 361.805Z" fill="black"/>
<path d="M1117 373.505C1116.2 373.705 1113.8 374.105 1111.8 374.505C1108.7 375.005 1108 375.505 1108 377.305C1108 379.705 1097.7 399.205 1078.1 434.005C1071.4 445.805 1064.8 458.605 1063.3 462.305C1061.4 467.205 1059.1 470.705 1055.3 474.605C1049.6 480.405 1045.9 482.005 1043.4 479.905C1040.6 477.605 1042.5 472.605 1054.1 452.405C1064.2 434.705 1069 424.905 1069 421.905C1069 421.305 1066.3 421.005 1061.8 421.205L1054.6 421.505L1052.5 427.505C1051.3 430.805 1048.4 436.905 1046.1 441.005C1036.5 457.405 1035.3 459.705 1032.8 466.005C1031.3 469.605 1029.8 473.905 1029.5 475.605C1028.7 479.605 1031.1 485.405 1034.1 487.005C1038.8 489.605 1047.8 486.505 1055.4 479.905L1059.8 476.005L1060.4 479.405C1061.9 487.405 1069.2 488.105 1079.1 481.105L1084.8 477.105L1085.5 479.805C1087.7 488.705 1097.5 487.805 1108.3 477.705L1112.8 473.505L1113.5 477.705C1113.8 480.105 1115.3 483.305 1116.6 485.005C1121.3 490.505 1127.3 488.605 1138.4 478.005L1146 470.705V476.405C1146 481.105 1146.4 482.505 1148.5 484.505C1149.8 485.905 1151.4 487.005 1152 487.005C1154 487.005 1160.4 483.905 1163.8 481.305C1166.8 479.105 1167.1 479.005 1166.1 480.805C1163.7 485.205 1164.5 486.005 1171.5 486.005C1177.7 486.005 1178 485.905 1179.5 483.005C1184 474.305 1203 444.705 1207.6 439.105C1215.2 429.905 1224.7 424.005 1225.1 428.205C1225.4 431.205 1224.3 433.405 1214.5 450.005C1208.7 459.605 1203.3 469.705 1202.4 472.305C1199.5 480.805 1202.6 487.505 1209.4 487.305C1213.8 487.205 1220.8 484.005 1225.2 480.205C1228.8 477.005 1230 477.005 1230 480.005C1230 482.505 1234.3 486.005 1237.3 486.005C1243.3 486.005 1249.5 481.605 1257.9 471.505L1261.2 467.505L1260.6 472.605C1259.8 479.205 1261.3 483.605 1264.9 484.805C1269 486.205 1272.1 485.305 1278 480.805C1280.8 478.705 1283.3 477.005 1283.4 477.205C1283.5 477.405 1284.1 478.705 1284.8 480.305C1286.4 484.005 1291.6 487.005 1296.5 487.005C1303.3 487.005 1310.1 482.905 1320.5 472.805C1325.7 467.705 1329.8 464.205 1329.5 465.005C1327.5 470.105 1326.8 476.505 1327.9 480.105C1331.1 490.905 1344.6 488.805 1357.5 475.605C1370.3 462.405 1381.4 443.605 1385.1 428.905C1386.9 422.105 1386.9 420.705 1385.8 418.305C1384.2 414.905 1380.6 414.205 1377.9 416.605C1376.4 418.005 1376 419.705 1376 425.105C1376 439.505 1364.6 463.805 1352.6 474.805C1348.8 478.305 1347.3 479.105 1344.7 478.805C1341.6 478.505 1341.5 478.305 1341.2 473.505C1340.9 468.805 1341.6 467.005 1352.7 445.305C1360.8 429.405 1364.2 421.805 1363.5 421.105C1362.8 420.405 1359.9 420.305 1355.8 420.705C1349.3 421.305 1349.2 421.305 1348.1 424.905C1347.5 426.905 1344.8 433.105 1342.1 438.505C1332 459.205 1312.8 479.005 1303.1 479.005C1298.2 479.005 1297 477.605 1297 472.005C1297 467.505 1299.4 458.405 1301.1 456.605C1301.6 456.005 1304.4 455.005 1307.2 454.305C1329.2 448.805 1346.4 428.605 1335.8 420.705C1333.3 418.805 1332.6 418.805 1327.3 419.905C1312.8 423.105 1296.8 436.605 1289.2 452.105C1286.9 456.805 1284.4 463.205 1283.8 466.405C1282.5 472.605 1278.8 477.005 1274.9 477.005C1270.5 477.005 1274.3 465.105 1284.2 447.805C1291.9 434.405 1297 424.205 1297 422.205C1297 421.205 1295.2 421.005 1289.8 421.205L1282.7 421.505L1278.9 430.605C1269.7 452.805 1251 478.705 1244.9 477.805C1240.9 477.305 1242 472.405 1249.3 459.805C1258.5 443.805 1265.7 429.005 1266.5 424.605L1267.2 420.905L1260 421.205L1252.7 421.505L1251.4 426.805C1250.6 429.805 1246.3 438.805 1241.8 446.805C1237.3 454.905 1232.6 464.005 1231.4 467.005C1229.9 470.805 1227.9 473.505 1225 475.705C1220.6 479.205 1215 480.205 1215 477.605C1215 475.405 1221.9 462.505 1228.5 452.505C1236.2 440.605 1239 434.405 1239 429.205C1239 417.805 1225.9 416.905 1214.2 427.405C1212.1 429.405 1210 431.005 1209.7 431.005C1209.4 431.005 1209.9 429.205 1210.7 427.105C1213.2 420.705 1212.2 419.605 1204.2 420.505C1197.1 421.205 1196 422.005 1196 425.905C1196 429.105 1184.8 449.505 1175.8 462.705C1168.3 473.705 1163.1 479.005 1159.8 479.005C1156.1 479.005 1157.9 471.605 1164.7 459.305C1168 453.405 1173.9 442.305 1177.9 434.705L1185 421.005H1178C1171.8 421.005 1170.9 421.205 1169.9 423.205C1169.3 424.505 1168.6 425.605 1168.5 425.805C1168.3 426.005 1167.1 425.005 1165.7 423.605C1155.3 413.305 1126.2 435.405 1115.8 461.405C1111.2 472.905 1100.1 481.405 1099.2 474.005C1098.8 470.705 1104.7 458.805 1127 418.005C1152.3 371.705 1152.1 372.205 1143.2 373.405C1133.8 374.705 1133 375.005 1133 377.305C1133 379.705 1122.8 399.105 1104.3 431.805C1092.7 452.305 1086 466.005 1086 469.205C1086 471.405 1078.5 477.205 1076.3 476.805C1071.1 475.805 1074.5 468.205 1105 412.505C1121.9 381.605 1124.4 376.505 1123.6 374.405C1123.1 373.105 1120.6 372.805 1117 373.505ZM1162.8 425.205C1165.9 428.305 1163.2 436.905 1153.8 453.205C1146.2 466.405 1138.5 476.105 1133.7 478.305C1129.5 480.305 1127.5 479.805 1126.2 476.105C1124.8 472.005 1127.9 463.405 1135.1 451.405C1147.5 430.805 1158.3 420.705 1162.8 425.205ZM1329 426.505C1329 430.705 1325.6 436.105 1319.3 442.105C1313.1 448.105 1307.8 451.305 1305.3 450.805C1303.2 450.405 1311.9 437.205 1319.3 429.705C1325.4 423.405 1329 422.205 1329 426.505Z" fill="black"/>
<path d="M113.7 381.405C97.6 388.105 88 399.805 68 437.005C50.5 469.505 38.9 481.005 23.4 481.005C18.7 481.005 16.7 480.505 14.6 478.905C11.5 476.405 11.4 475.605 14 472.305C18.2 466.905 15.6 459.005 9.5 459.005C3.8 459.005 -1 466.405 0.4 473.105C4.4 493.305 42.8 490.005 65.5 467.505C73.8 459.305 81 448.705 88.6 433.505C95 420.805 105.5 402.605 110.6 395.705C112.5 393.105 116.7 388.905 120 386.305C123.3 383.705 125.9 381.205 125.7 380.605C125.1 378.605 119.6 379.005 113.7 381.405Z" fill="black"/>
<path d="M1070.5 392.304C1066.6 396.204 1065.8 400.704 1068.6 403.404C1070.6 405.404 1071.5 405.404 1075 403.304C1081.7 399.404 1082.8 389.904 1076.7 389.204C1074.6 388.904 1073.1 389.704 1070.5 392.304Z" fill="black"/>
<path d="M741.4 420.105C739.6 420.605 736 423.005 733.2 425.505C730.5 428.005 728 430.005 727.7 430.005C727.4 430.005 727.6 428.605 728.2 427.005C729.9 422.005 728.9 421.005 721.7 421.005C715.3 421.005 713 422.105 713 425.105C713 428.405 701.1 450.705 693.5 461.805C685.2 473.805 680.2 479.005 676.8 479.005C673.1 479.005 674.9 471.605 681.7 459.305C685 453.405 691 442.305 694.9 434.705L702.1 421.005H695.1C688.8 421.005 687.9 421.205 686.9 423.205C686.3 424.505 685.6 425.605 685.5 425.805C685.3 426.005 684.1 425.005 682.7 423.605C671.6 412.505 638.4 439.805 631.4 465.605C629.6 472.505 625.8 477.005 621.8 477.005C617.2 477.005 621.7 463.905 632.5 445.405C638.7 435.005 644 424.205 644 422.205C644 421.405 641.9 421.005 637 421.005C630.3 421.005 629.9 421.105 628.8 423.705C617.3 451.505 598.9 478.605 592.1 477.805C587.8 477.305 588.9 472.605 596.3 459.805C605.5 443.805 612.7 429.005 613.5 424.605L614.2 420.905L607 421.205L599.7 421.505L598.4 426.805C597.6 429.805 593.4 438.705 588.9 446.705C578.4 465.605 576.9 469.105 576.7 475.505C576.6 480.005 577 481.405 579 483.505C584.5 489.405 593.6 485.205 604.9 471.505L608.2 467.505L607.6 472.605C606.8 479.205 608.3 483.605 611.9 484.805C616 486.205 619.1 485.305 624.8 481.005C629.9 477.105 631 476.905 631 480.105C631 481.105 632.2 483.205 633.6 484.905C638.3 490.505 644.6 488.505 655.6 477.805L663 470.705V476.405C663 481.105 663.4 482.505 665.5 484.505C666.8 485.905 668.5 487.005 669.3 487.005C672.5 487.005 681.4 481.405 685.6 476.705L690.3 471.505L687 477.505C685.2 480.805 683.2 484.105 682.7 484.705C682 485.705 683.4 486.005 689.2 486.005H696.7L700 479.705C714.5 452.605 725.4 436.105 732.8 430.405C737.8 426.605 740.6 426.105 741.5 428.905C742 430.605 730 454.905 716.3 479.805L712.8 486.105L719.6 485.805L726.4 485.505L739.5 463.205C753.6 439.005 760 430.205 765 427.805C773.6 423.605 772.8 429.505 762 448.605C751.8 466.705 749.9 471.305 749.7 477.305C749.5 481.505 749.9 482.505 752.4 484.705C754.9 486.805 756 487.105 759.4 486.505C764.8 485.705 770.7 482.105 775.7 476.705L779.8 472.305L780.4 477.105C780.8 480.105 782 483.105 783.6 485.005C788.3 490.505 794.2 488.605 805.4 478.005L813 470.705V476.405C813 481.105 813.4 482.505 815.5 484.505C818.6 487.705 819.6 487.605 826.2 484.105L831.7 481.305L831.2 483.605C830.8 485.905 831 486.005 837.4 486.005C843.7 486.005 844 485.905 845.5 483.005C850 474.305 869 444.705 873.6 439.105C881.2 429.905 890.7 424.005 891.1 428.205C891.4 431.205 890.3 433.405 880.4 450.205C869.4 468.605 866.5 475.405 867.5 480.605C869.5 491.605 883.4 488.705 896.6 474.705C904 466.805 913.1 454.105 913.4 451.205C913.7 447.305 910.8 450.105 904.2 460.005C897.5 470.105 894.3 473.905 889 477.305C885.9 479.405 881 479.505 881 477.605C881 475.405 887.9 462.505 894.5 452.505C902.2 440.605 905 434.405 905 429.205C905 417.805 891.9 416.905 880.2 427.405C878.1 429.405 876 431.005 875.8 431.005C875.5 431.005 876 429.005 876.9 426.505C879 420.405 878 419.605 869.6 420.505C863.5 421.205 862.9 421.405 862.5 423.905C861.4 429.505 859.8 432.705 849.8 450.205C838.8 469.505 831.3 479.005 827.1 479.005C824.9 479.005 824.8 478.705 825.2 474.605C825.6 471.705 827.8 466.305 831.7 459.305C835 453.405 840.9 442.305 844.9 434.705L852 421.005H845C838.8 421.005 837.9 421.205 836.9 423.205C836.3 424.505 835.6 425.605 835.5 425.805C835.3 426.005 834.1 425.005 832.7 423.605C827 417.905 814.7 422.005 801.9 433.805C794.2 440.905 785.8 452.905 783.2 460.405C780 469.705 766.2 481.305 763.5 477.005C762.7 475.605 766.6 467.205 773.6 455.305C785.4 435.305 787.7 426.605 782.5 421.505C777.6 416.505 768 418.805 760.4 426.705C755.3 432.005 754 432.105 754 427.205C754 421.005 748.5 417.905 741.4 420.105ZM679.8 425.205C682.9 428.305 680.2 436.905 670.8 453.205C660.5 471.105 650.7 481.405 645.6 479.405C643.8 478.705 642.6 475.505 642.8 471.705C643.5 462.605 662.6 432.805 671.8 426.505C675.9 423.705 678 423.405 679.8 425.205ZM829.8 425.205C832.9 428.305 830.2 436.905 820.8 453.205C808.3 475.005 796.2 485.305 793.4 476.705C792.1 472.905 793 468.805 796.5 461.505C803.1 447.705 814.5 431.805 821.4 426.805C825.6 423.805 827.9 423.305 829.8 425.205Z" fill="black"/>
<path d="M152.9 436.105C143 455.605 135.2 466.705 124.8 476.505C120.5 480.505 117 484.305 117 484.905C117 487.005 119.9 486.005 124.7 482.205C132.6 475.905 140 465.905 150.9 446.505C154.3 440.405 157.4 435.205 157.8 434.805C158.7 433.905 169 435.005 169 435.905C169 436.205 165.3 440.805 160.9 446.005C149.5 459.505 144 471.005 145.5 478.705C147.5 489.305 159.8 488.105 169.8 476.405L173.7 471.805L174.4 476.905C174.8 480.105 176 483.005 177.6 485.005C182.3 490.505 188.2 488.605 199.4 478.005L207 470.705V476.405C207 481.105 207.4 482.505 209.5 484.505C210.8 485.905 212.5 487.005 213.3 487.005C216.4 487.005 225.3 481.505 229 477.305L233 472.705V477.305C233 489.505 244.3 490.905 256.1 480.305L260 476.705L258 481.605C249.9 500.405 235.2 519.405 224.7 524.305C220.4 526.405 214.1 526.505 211.5 524.605C209.8 523.405 209.7 522.905 210.9 519.305C212.6 514.205 212.1 511.905 209.1 510.405C205.8 508.705 202.8 510.005 200.7 514.105C196.6 521.905 203.3 529.005 214.8 529.005C227.6 529.005 239.2 524.205 249.6 514.705C257 507.905 261.4 501.705 269 487.505C271.9 482.005 277.3 472.105 281 465.505C297.9 435.205 302.2 426.805 302.4 423.805C302.5 420.005 301.2 419.505 293.4 420.505C288.5 421.105 288.1 421.305 287.4 424.305C286.6 428.205 275.1 451.405 270.2 459.005C264.5 468.005 259 473.905 253.6 477.105C250.8 478.705 248.2 480.005 247.8 480.005C247.3 480.005 247 478.605 247 476.905C247 472.905 251.7 461.905 258.5 450.405C265.4 438.705 272 425.205 272 422.805C272 421.305 271.1 421.005 265.5 421.005H259.1L255.7 428.405C251.4 437.605 236.9 462.905 232.3 469.205C228 475.105 223.4 479.005 220.8 479.005C217.1 479.005 219 471.505 225.7 459.305C229 453.405 234.9 442.305 238.9 434.705L246 421.005H239C232.8 421.005 231.9 421.205 230.9 423.205C230.3 424.505 229.6 425.605 229.5 425.805C229.3 426.005 228.1 425.005 226.7 423.605C216.6 413.505 188.9 434.005 177.1 460.305C173.8 467.605 166.3 476.005 163.1 476.005C160.6 476.005 159.3 470.405 160.8 466.005C162.4 461.505 172.2 444.405 179.5 433.305C183.1 428.005 186 423.005 186 422.305C186 420.605 184.2 420.705 177.1 422.605C171.3 424.205 171 424.205 167 422.105C164.8 421.005 162.5 420.005 162 420.005C161.5 420.005 157.4 427.205 152.9 436.105ZM223.8 425.205C226.9 428.305 224.2 436.905 214.8 453.205C204.5 471.105 194.7 481.405 189.6 479.405C187.8 478.705 186.6 475.505 186.8 471.705C187.5 462.605 206.6 432.805 215.8 426.505C219.9 423.705 222 423.405 223.8 425.205Z" fill="black"/>
<path d="M372.8 420.705C369.6 421.105 368.9 421.605 368.5 423.805C367.4 429.505 365.8 432.705 355.8 450.205C344.8 469.505 337.3 479.005 333.1 479.005C330.9 479.005 330.8 478.705 331.2 474.605C331.6 471.705 333.8 466.305 337.7 459.305C341 453.405 346.9 442.305 350.9 434.705L358 421.005H351C344.8 421.005 343.9 421.205 342.9 423.205C342.3 424.505 341.6 425.605 341.5 425.805C341.3 426.005 340.1 425.005 338.7 423.605C332.4 417.305 319.9 422.105 306 436.005C288.5 453.505 281.3 475.105 289.6 485.005C294.3 490.505 300.3 488.605 311.4 478.005L319 470.705V476.405C319 481.105 319.4 482.505 321.5 484.505C324.6 487.705 325.6 487.605 332.2 484.105L337.7 481.305L337.2 483.605C336.8 485.905 337 486.005 343.4 486.005C349.7 486.005 350 485.905 351.5 483.005C356 474.305 375 444.705 379.6 439.105C387.2 429.905 396.7 424.005 397.1 428.205C397.4 431.205 396.3 433.405 386.4 450.205C375.4 468.605 372.5 475.405 373.5 480.605C375.5 491.605 389.4 488.705 402.6 474.705C410 466.805 419.1 454.105 419.4 451.205C419.7 447.305 416.8 450.105 410.2 460.005C403.5 470.105 400.3 473.905 395 477.305C391.9 479.405 387 479.505 387 477.605C387 475.405 393.9 462.505 400.5 452.505C408.2 440.605 411 434.405 411 429.205C411 417.805 398.6 416.905 386.2 427.405C383.8 429.405 381.7 431.005 381.5 431.005C381.3 431.005 381.9 429.205 382.7 427.105C385.4 420.205 384.3 419.505 372.8 420.705ZM335.8 425.205C338.9 428.305 336.2 436.905 326.8 453.205C314.3 475.005 302.2 485.305 299.4 476.705C298.1 472.905 299 468.805 302.5 461.505C309.1 447.705 320.5 431.805 327.4 426.805C331.6 423.805 333.9 423.305 335.8 425.205Z" fill="black"/>
<path d="M1405.9 424.205C1397.2 428.705 1383.9 442.005 1378.3 452.005C1370.4 466.005 1369.1 478.405 1374.6 485.005C1379.4 490.705 1385.3 488.705 1396.8 477.705L1404 470.705V476.405C1404 481.205 1404.4 482.505 1406.6 484.605C1409.5 487.605 1411.9 487.405 1418.7 483.405C1424.8 479.905 1431.4 471.605 1444.3 451.305C1444.8 450.505 1444.6 450.005 1443.8 450.005C1443.1 450.005 1439 455.205 1434.7 461.505C1426.3 473.705 1421.2 479.005 1417.8 479.005C1414.1 479.005 1415.9 471.605 1422.7 459.305C1426 453.405 1432 442.305 1435.9 434.705L1443.1 421.005H1436.1C1429.8 421.005 1428.9 421.205 1427.9 423.205C1427.3 424.505 1426.6 425.605 1426.5 425.805C1426.3 426.005 1425.1 425.005 1423.7 423.605C1419.9 419.905 1414.1 420.105 1405.9 424.205ZM1420.8 425.205C1423.9 428.305 1421.2 436.905 1411.8 453.205C1404.2 466.405 1396.5 476.105 1391.7 478.305C1387.5 480.305 1385.5 479.805 1384.2 476.105C1382.8 472.005 1385.9 463.405 1393.1 451.405C1405.5 430.805 1416.3 420.705 1420.8 425.205Z" fill="black"/>
</svg>
