<svg width="1902" height="849" viewBox="0 0 1902 849" fill="none" xmlns="http://www.w3.org/2000/svg">
<path d="M426.8 1.00012C420.3 2.10012 412.5 4.80012 406.5 7.80012C377.4 22.3001 347.3 62.1001 323.9 116.8L319.5 127.1L318.9 108.8C317.9 79.8001 313.6 61.3001 304.3 45.7001C293.6 28.0001 277.9 16.9001 255.2 10.9001C244.2 7.90012 217.3 7.20012 203.5 9.40012C182.5 12.9001 162.2 21.8001 145.6 35.1001L137.3 41.7001L121.4 42.3001C103.9 42.9001 87.4 45.8001 73.5 50.7001L65.5 53.5001L57 49.2001C46.7 44.1001 39.4 42.1001 27.4 41.3001C9.30002 40.1001 -0.89998 43.0001 0.70002 48.9001C1.80002 53.2001 4.20002 53.8001 17.8 53.3001C27.7 52.9001 31.9 53.1001 36.9 54.5001C43 56.1001 51.6 59.8001 50.8 60.5001C50.7 60.7001 47 63.1001 42.8 65.9001C19.7 81.4001 10.7 103.4 22.4 115.8C29 123 41.8 126.8 55.7 125.7C68.9 124.7 77.9 119 83.2 108.3C86 102.6 86.4 100.8 86.4 93.6001C86.4 84.0001 84.1 75.9001 79.3 68.7001C77.5 66.0001 76.2 63.4001 76.5 63.0001C76.8 62.6001 80.7 61.2001 85.2 59.9001C94.9 57.2001 109.8 56.7001 117.2 58.9001L121.8 60.2001L118.6 65.4001C97.8 97.8001 93.4 137.4 107.3 165.9C112.2 175.9 123.2 186.7 134 191.8C145.9 197.6 154.1 199.4 168 199.3C177.6 199.3 180.8 198.9 187.2 196.8C200.3 192.5 207.8 186.6 214.5 175.5C220.9 164.8 222.5 157.7 222.4 140.5C222.3 127.7 221.9 124.1 219.7 115.8C214.6 96.6001 204.7 79.8001 190.9 66.5001C181.4 57.5001 174.2 52.7001 163.7 48.4001C159.4 46.7001 155.7 45.0001 155.4 44.7001C154.6 43.9001 168.3 35.2001 176.3 31.5001C192.3 24.1001 209.4 21.5001 222.9 24.4001C245.6 29.2001 259.4 43.0001 267.6 69.0001C273.9 89.0001 273.4 132.1 266.5 172.6C264.1 186.6 262.2 194.7 250.5 244C247.4 256.9 245 269 245.2 270.9C245.6 275.3 248.8 277.7 256.4 279.1C263.3 280.3 271.9 279.6 280.7 276.8C290 274 291.4 272.3 294 260.5C306.4 203.6 329.7 135.4 350.4 95.5001C377.7 42.8001 402.6 19.1001 430.5 19.0001C452.3 19.0001 471.5 36.2001 478 61.6001C487.2 97.4001 465.1 139.8 427.3 158.8C417.7 163.7 408 166 394.3 166.7C384.2 167.2 381.7 167.6 380 169.2C377.5 171.6 377.4 174.2 380 176.5C381.4 177.8 384.6 178.5 391.2 179.1C409.6 180.7 424.3 188.3 439.6 204.1C446.4 211.1 457 226 457 228.4C457 229 446.3 232.8 433.2 236.8C362.6 258.6 331 277.6 323.6 302.9C319.1 318.3 323.7 331.9 338.4 346.6C351.1 359.3 365.3 367.1 384.6 372C433.8 384.6 488.1 364.4 506.4 326.8C513 313.3 515.1 304.3 515.7 287.2C516.1 278.2 515.8 270 515 265.2C513.6 256.1 508.8 240.5 505.3 233.7C504 231 503 228.6 503.2 228.4C503.4 228.3 509.9 225.8 517.5 223C548.2 211.8 563.4 201.9 568.6 189.5C569.3 187.6 570 184.8 570 183.2V180.3L575.3 181.3C586.5 183.4 616.7 180.5 641.8 175C648.8 173.5 654.6 172.3 654.7 172.4C654.9 172.5 652.7 179.3 649.9 187.6C642.5 209.2 636.3 231.3 633.3 246.9C629.8 265 629.4 290.1 632.4 299.4C635.1 307.6 639.4 312.9 646 316.3C651.1 318.9 652.2 319.1 661.1 318.8C669.7 318.5 671.3 318.2 678.1 314.8C700.9 303.5 723.2 273.5 747.8 221C750.8 214.7 752.9 210.6 752.5 212C752.1 213.4 751.6 220.8 751.3 228.5C750.6 249 753.5 259.6 762.3 268.8C772.1 278.9 790 280.5 808.8 272.9C820.1 268.4 829.1 261.9 843.9 247.5C851.2 240.4 857 235.4 856.7 236.5C851.5 253.4 849.4 289.1 852.9 300.2C855 306.8 860.3 313.3 866.1 316.3C871.2 319 872.1 319.2 881 318.8C888.6 318.4 891.7 317.8 896.4 315.7C923.2 303.5 952.3 263.2 982.5 196.6C988.9 182.5 989.2 181.5 987.9 179.1C986.7 177.1 985.5 176.4 982.3 176.2C980 176 977.2 176.3 976.2 176.9C975.1 177.5 971.9 183.6 968.6 191.2C956.5 219.1 936 256 922.3 274.3C915.7 283.3 899.9 300 898.1 300C896.5 300 895 293.1 895 285.7C895 262.5 905.9 220.4 926.6 163.7C929.5 155.9 929.5 155.8 927.5 154.4C923.7 151.6 915.4 149.8 904.5 149.3C890.9 148.7 886.3 150 883.8 155.1C854.6 215.1 850.4 221.8 830 242.1C814.5 257.5 808.5 261.4 804.1 258.9C802.7 258.1 800.9 256.2 800.2 254.7C796.4 246.8 796.4 224.8 800 210.3C805.2 190.1 820.8 167 829.3 167C833.9 167 837 170.5 843.8 183.6L849.5 194.5L854.1 194.8C857.4 195 859.3 194.6 861 193.2C863.1 191.5 863.2 191.1 862 187.4C861.3 185.3 858.7 179.6 856.3 174.8C851 164.5 841.9 155.2 832.5 150.6C821 145 806.5 146 792.7 153.3C785.2 157.2 774.1 167.6 768.1 176L763.4 182.7L761.7 180.4C759.5 177.5 754.9 176.5 751.5 178.3C749.4 179.4 747.4 183.1 741.6 197.1C722 244 696.9 286.4 684.9 292.6C681.5 294.3 678.6 293.2 677.3 289.8C676.1 286.2 676.7 268.5 678.5 256.4C681.6 235.3 687.1 215.2 698.8 182.4C702.8 171.3 706 161.1 706 159.7C706 150.9 684.1 150.2 657.9 158.1C650.8 160.2 638.6 163.3 630.7 164.9C617.3 167.7 598.9 170.3 598.1 169.5C597.9 169.3 599.8 164.2 602.3 158.3C615 128.1 617.8 110 611.7 96.6001C604.7 81.3001 580.7 76.3001 561.1 86.1001C553.6 89.9001 544.6 99.4001 540.3 108.1C532.4 124 532 143.2 539.1 157.2C541.8 162.4 549.3 170.5 554.7 174C558.4 176.4 558.6 176.7 557 177.8C556 178.4 554.9 180.7 554.5 183.2C552.9 193 536.3 203.8 508.6 213.2L496 217.5L494.4 215C490.8 209.6 473.1 193.1 465.6 188.3C461.3 185.4 453.3 181.2 447.7 178.8L437.7 174.5L441.1 173.6C467.6 166.7 488 156 502.5 141.3C520.3 123.3 529 102.8 529 78.8001C529 66.4001 527.2 58.3001 522.1 47.6001C511.4 24.9001 491.6 9.60012 464.5 2.90012C455.4 0.700116 434.2 -0.399884 426.8 1.00012ZM145.4 73.5001C157.1 82.6001 168.6 101.7 173.5 120C178.1 137.4 176.5 156.6 169.3 171C164.3 180.9 159.1 185 151.7 185C144.5 184.9 138.9 182.1 131.6 174.8C120.1 163.1 115 149.1 115 129.5C115 108.2 120.8 88.5001 132.1 70.8001L135.2 66.0001L138.4 68.2001C140.1 69.4001 143.2 71.8001 145.4 73.5001ZM69.1 81.0001C71.9 88.5001 72 98.2001 69.2 103.7C65.2 111.4 58.7 114.6 48.5 113.8C32.5 112.5 28.3 103.8 37 90.0001C40.9 84.0001 46.1 79.0001 54.5 73.5001L61.5 68.9001L64.3 72.2001C65.8 74.0001 68 77.9001 69.1 81.0001ZM590.9 94.8001C598 98.4001 600.4 105.8 598.8 118.9C597.6 128.6 591.2 148.1 585.2 160.2L580.5 169.5L576.5 169.2C567.5 168.5 557 160.7 552.9 151.6C546.8 137.6 549.8 116.4 559.6 104.7C563.1 100.5 569.8 95.5001 573.5 94.2001C578.3 92.5001 587.1 92.8001 590.9 94.8001ZM464.8 247.2C474.5 277.4 469.6 314.5 453.3 334.2C443.9 345.7 424.4 357.5 410 360.6C394.9 363.8 378.8 359.9 362.2 349C343.7 336.8 335.6 323.1 338.1 308.2C341.4 287.7 369.5 269.6 426 251.6C452.5 243.2 459.3 241.2 461.2 241.1C462.4 241 463.4 242.8 464.8 247.2Z" fill="black"/>
<path d="M1241 149.2C1237.4 150.5 1232.3 152.8 1229.5 154.4C1222.6 158.4 1208.3 173.2 1203.8 180.8L1200.2 187.2L1200.7 183.2C1201.1 179.9 1200.9 179 1198.9 177.6C1196.2 175.7 1193.1 175.6 1189.7 177.1C1187.8 178 1186.2 180.8 1183 189.4C1176.9 205.1 1165.2 227.8 1157.2 239C1150.6 248.3 1132 268 1129.9 268C1129.1 268 1128.9 265.9 1129.4 261.2C1132.7 226 1133.7 196 1132.1 181.6C1131.5 175.9 1130.9 174.3 1128.7 172.4C1122.2 166.8 1104.9 167.1 1092.4 172.9C1085.4 176.2 1084.7 177.1 1080.5 190C1069.8 222.5 1044.3 268.5 1033.8 274.1C1023.8 279.5 1020.4 254.4 1027.1 223.4C1029.1 214 1033.7 199.5 1040.5 181.3C1045 169.1 1044.8 167 1038.8 164.5C1029.9 160.9 1005 163.3 999.5 168.3C995.5 172 983.9 205 979.4 225.5C976.3 239.3 975.1 261.9 976.9 271.1C980.2 287.4 990.3 296.9 1006.2 298.6C1020.3 300 1032.7 294.4 1047.1 280.1C1058.4 268.8 1065.5 258.4 1076.8 236.5L1085.1 220.5L1084.5 232.5C1083.6 250.9 1082 268.9 1080.2 281.7L1078.5 293.4L1066.5 298.2C1041 308.3 1026.8 317.2 1011.4 332.5C1000.5 343.2 994.8 351.8 990.9 363C989 368.2 988.6 371.7 988.5 380.5C988.5 390.8 988.7 391.9 991.7 398.2C1001.4 418.8 1023.8 425.7 1050.9 416.5C1063.8 412.1 1075.1 404.7 1086.2 393.2C1107.1 371.6 1117.4 345 1126.6 289.3C1127 286.6 1128.5 285.1 1136 280C1147.5 272.1 1163.5 255.4 1172.5 242C1176.4 236.3 1182.8 225 1186.8 217C1190.9 209 1193.9 203.4 1193.5 204.5C1190 215 1188.9 238.7 1191.5 249.8C1197.5 275.3 1219.4 284.3 1247.8 272.9C1259.1 268.4 1268.1 261.9 1282.9 247.5C1290.2 240.4 1296 235.4 1295.7 236.5C1290.5 253.4 1288.4 289.1 1291.9 300.2C1294 306.8 1299.3 313.3 1305.1 316.3C1310.2 319 1311.1 319.2 1320 318.8C1327.6 318.4 1330.7 317.8 1335.4 315.7C1362 303.6 1390.3 264.6 1420.6 198.5L1428 182.5V189.5C1428 193.3 1427.5 213.7 1426.9 234.7C1425.7 271.3 1425.8 273.1 1427.5 275C1433.4 281.6 1464.5 281.8 1470.2 275.3C1471.1 274.3 1473.6 267.3 1475.9 259.7C1483.5 234.1 1498.9 198.4 1508.7 183.6C1515.1 174 1522.5 166.3 1526.7 164.9C1532.4 163.1 1534.8 164.3 1537.8 170.8C1540.4 176.3 1540.5 177.1 1540.4 192.5C1540.2 208.1 1539.4 215.6 1531.9 271C1529.2 291 1529 316.4 1531.4 326.4C1533.7 336.2 1536.2 341.2 1541 346C1547.6 352.6 1552.7 354.5 1564.1 354.5C1573.3 354.5 1574 354.4 1582.1 350.3C1592.3 345.2 1599 339.1 1609.4 325.1C1623.4 306.2 1635.7 282.9 1648.4 250.9C1656.1 231.3 1669.8 190.5 1670.7 184.5C1671.2 180.9 1670.9 180.1 1668.9 178.6C1666.1 176.7 1661.1 176.5 1658.6 178.3C1657.5 179.1 1653.1 190.9 1647.1 209C1641.7 225.2 1634.9 244.3 1632 251.5C1624.1 271.3 1610.9 297.4 1602.1 310.6C1594.4 322.3 1585.5 332 1582.6 332C1581.7 332 1580.2 330.8 1579.3 329.3C1577.7 326.9 1577.5 324 1577.6 302.5C1577.6 280.1 1577.9 276.5 1581.8 248C1587.3 207.8 1588.7 191.3 1587.3 182.2C1584.6 164.6 1574.2 152.9 1557.5 148.5C1540.3 144.1 1521.9 149.4 1507.5 163.2C1496.8 173.3 1490.8 183.2 1475.2 217C1474.3 218.9 1474.1 215 1474.6 199.3L1475.2 179.1L1472.7 176.7C1469.4 173.3 1464.2 172 1454.5 172C1443.1 172 1431.5 175.5 1429.2 179.6C1428.5 180.9 1428.1 180.8 1426.6 178.6C1425.3 176.5 1424.2 176 1420.7 176C1418.3 176 1415.6 176.6 1414.7 177.2C1413.8 177.9 1410.1 185.2 1406.6 193.3C1394.2 221.4 1374.9 256.1 1361.3 274.3C1354.7 283.3 1338.9 300 1337.1 300C1335.5 300 1334 293.1 1334 285.7C1334 262.5 1344.9 220.4 1365.6 163.7C1368.5 155.9 1368.5 155.8 1366.5 154.4C1362.7 151.6 1354.4 149.8 1343.5 149.3C1329.7 148.7 1325.2 149.9 1322.8 155C1296.7 209.8 1289.1 222.1 1269 242.1C1253.5 257.5 1247.5 261.4 1243.1 258.9C1239.6 256.9 1238 253.1 1236.8 244.1C1234.8 228.5 1237.8 209.3 1244.5 195.1C1252.4 178.6 1262.2 167 1268.3 167C1272.9 167 1276 170.5 1282.8 183.6L1288.5 194.5L1293.1 194.8C1296.4 195 1298.3 194.6 1300 193.2C1302.1 191.5 1302.2 191.1 1301 187.4C1300.3 185.3 1297.7 179.6 1295.3 174.8C1290 164.5 1280.6 154.9 1271.4 150.4C1263 146.5 1250.3 145.9 1241 149.2ZM1072.1 322.3C1066.4 343.7 1059.2 360.3 1050.6 371.6C1044 380.4 1029.1 394.3 1022.9 397.4C1016.1 400.8 1010.2 400.9 1007.2 397.7C1001.6 391.8 1002.2 373.9 1008.3 360.7C1017.9 340.3 1036.1 324.9 1067 311.4C1072.8 308.8 1074.6 308.4 1074.8 309.5C1075 310.3 1073.8 316.1 1072.1 322.3Z" fill="black"/>
<path d="M747.5 477.6C738 478.6 721.3 482.3 713.2 485.1C700.9 489.4 686.4 497.2 677.3 504.4L669.5 510.6L655.5 511.8C639.6 513.2 624.6 516.3 611.7 521C606.9 522.8 602.8 524.1 602.7 523.9C596.5 514.3 593.8 510.7 589.4 506.5C579.4 497 566.9 491.1 552.6 489.1C541.8 487.6 540.5 487.7 537.4 490.3C535.3 492.1 534.8 493.2 535.3 495.2C536.1 498.3 539.3 499.6 547.7 500.5C560.7 501.8 571.5 507.2 580.1 516.9C584.7 522 589 528.7 589 530.7C589 531.2 584.9 534.4 579.9 538C547.4 560.9 532.3 593.1 546.6 609C557 620.4 579 622.3 592.6 612.9C604.8 604.5 612.3 585.8 612.2 564C612.1 554.7 610.5 542.9 608.5 537.7C607.6 535.6 613.7 532.7 627.6 528.4C635.3 526.1 637.5 525.8 644.4 526.4C648.8 526.7 652.7 527.3 653.2 527.8C653.6 528.2 652.4 531.6 650.4 535.3C630.8 572.2 640.4 610.6 673.1 626.3C686.1 632.6 695.2 634.5 712.5 634.5C733.2 634.5 743.3 630.8 753.5 619.8C761.2 611.5 763.4 605.3 763.4 592C763.3 583.4 762.8 580 760.7 573.5C751.8 546.7 727.3 524.2 697.3 515.5C692.5 514.1 688.5 512.8 688.3 512.6C687.6 511.9 699.1 504.8 705.5 501.9C709 500.3 715.9 497.8 720.7 496.3C728.5 494 731.2 493.7 744.5 493.6C758.4 493.5 760.1 493.8 767.3 496.3C782.5 501.6 791.2 509.3 798.1 523.6C805.8 539.5 809.1 557.8 809.1 584.2C809 621.4 804.7 650 789.9 710.3C785.5 728.4 782 744.4 782.2 745.8C782.4 747.8 783.5 749 786.5 750.5C794.3 754.3 817.9 752.6 825.3 747.6C828.2 745.6 829.5 742.3 845.7 694C855.2 665.7 866 633.9 869.6 623.5C893.6 554.9 916 514.3 934.2 506C936.7 504.9 940.7 504 943.8 504C956.2 504 964.6 513.5 968.7 532.2C971.9 547.4 970.3 583.5 964.9 613.4C960.2 639.6 949.6 682.2 941.8 705.8C938.8 715.2 937.1 722.1 937.4 723.5C939.1 730.3 961.5 732.6 976.8 727.6C979.6 726.7 982.3 725.3 982.9 724.6C983.5 723.9 987.4 713.3 991.5 701C1005.9 658.7 1031.9 602.5 1048.8 577C1063.9 554.3 1074.8 543.2 1085.9 538.9C1096.1 535.1 1102.5 537.5 1107.2 547C1115.9 564.6 1113.4 596.1 1097 676C1082.8 745.2 1079.8 762.4 1077.8 788C1075.5 818.3 1080.9 837.7 1093.7 844.8C1107.7 852.5 1127.5 848.1 1143.4 833.8C1160.2 818.6 1179.2 787.6 1196 747.5C1197.9 743.1 1199.5 739.4 1199.6 739.2C1199.7 739 1201.9 741.1 1204.5 743.9C1212.1 752 1222.6 755 1236.4 753.1C1246.1 751.7 1257.2 747.3 1266.4 741.2C1270.3 738.7 1279.5 730.7 1286.9 723.5C1294.2 716.4 1300 711.4 1299.7 712.5C1294.5 729.4 1292.4 765.1 1295.9 776.2C1298 782.8 1303.3 789.3 1309.1 792.3C1314.2 795 1315.1 795.2 1324 794.8C1331.6 794.4 1334.7 793.8 1339.4 791.7C1366 779.6 1394.6 740.3 1424.6 674.5L1431.9 658.5L1438.7 657.7C1458.1 655.6 1470.8 653.7 1482.5 651.1C1489.7 649.5 1495.6 648.3 1495.7 648.4C1495.8 648.5 1493.7 655.3 1490.9 663.4C1483.6 685 1477.3 707.4 1474.3 722.9C1470.8 741 1470.4 766.1 1473.4 775.4C1476.1 783.6 1480.4 788.9 1486.9 792.2C1491.6 794.6 1493.6 795 1500.6 795C1506.5 795 1510.5 794.4 1514.4 793C1531.3 786.6 1548.4 769.2 1565.8 740.7L1571.7 731.1V747.3C1571.7 771.2 1575 782.5 1584.4 790.7C1590.7 796.2 1598 798.4 1607.8 797.7C1627.6 796.2 1644.3 780.3 1662.6 745.6L1668.3 734.7L1669.8 737.6C1673.9 745.8 1683.2 751.9 1694.1 753.5C1700.6 754.5 1713.1 752.4 1721.8 749C1733.1 744.4 1742.1 737.9 1756.9 723.5C1764.2 716.4 1770 711.4 1769.7 712.5C1764.5 729.4 1762.4 765.1 1765.9 776.2C1768 782.8 1773.3 789.3 1779.1 792.3C1784.2 795 1785.1 795.2 1794 794.8C1801.6 794.4 1804.7 793.8 1809.4 791.7C1836.2 779.5 1865.3 739.2 1895.5 672.6C1901.9 658.5 1902.2 657.5 1900.9 655.1C1899.7 653.1 1898.5 652.4 1895.3 652.2C1893 652 1890.2 652.3 1889.2 652.9C1888.1 653.5 1884.9 659.6 1881.6 667.2C1869.5 695.1 1849 732 1835.3 750.3C1828.7 759.3 1812.9 776 1811.1 776C1809.5 776 1808 769.1 1808 761.7C1808 738.5 1818.9 696.4 1839.6 639.7C1842.5 631.9 1842.5 631.8 1840.5 630.4C1836.7 627.6 1828.4 625.8 1817.5 625.3C1803.7 624.7 1799.2 625.9 1796.8 631C1770.7 685.8 1763.1 698.1 1743 718.1C1727.5 733.5 1721.5 737.4 1717.1 734.9C1713.6 732.9 1712 729.1 1710.8 720.1C1708.8 704.5 1711.8 685.3 1718.5 671.1C1726.4 654.6 1736.2 643 1742.3 643C1746.9 643 1750 646.5 1756.8 659.6L1762.5 670.5L1767.1 670.8C1770.4 671 1772.3 670.6 1774 669.2C1776.1 667.5 1776.2 667.1 1775 663.4C1774.3 661.3 1771.7 655.6 1769.3 650.8C1765.9 644.2 1763.2 640.6 1758.2 635.8C1749 627.2 1741.8 623.8 1731.4 623.2C1717.5 622.4 1705.2 627.4 1692.9 638.8C1676.8 653.7 1666 676.1 1664.4 698C1663.8 706.2 1662.4 710.4 1654.3 728.4C1643.5 752.3 1631.9 769 1625.9 769C1623.7 769 1622.6 768.2 1621.3 765.7C1619.8 763 1619.5 760.1 1619.6 746.5C1619.7 726.1 1622.4 708.2 1629.2 682.1C1635.7 656.9 1636 654.9 1632.6 652.3C1626.6 647.6 1610.6 647 1597.4 651.1C1590.8 653.1 1589.7 654 1588.5 658C1588.1 659.4 1585.1 667 1581.8 675C1564.8 716.3 1539.3 759.5 1527.1 767.7C1523.1 770.4 1522.9 770.4 1520.6 768.7C1517.6 766.5 1516.8 759.9 1518 746.6C1520.3 719.5 1525.5 698.6 1539.8 658.4C1543.8 647.3 1547 637.1 1547 635.7C1547 626.9 1525.1 626.2 1498.9 634.1C1491.8 636.2 1479.6 639.3 1471.7 640.9C1458.3 643.7 1439.9 646.3 1439.1 645.5C1438.9 645.3 1440.8 640.2 1443.3 634.3C1456 604.1 1458.8 586 1452.7 572.6C1447.2 560.7 1430.6 554.4 1413.8 557.9C1391.5 562.6 1375.1 584.9 1375 610.5C1375 623.7 1378.9 633.8 1387.3 642.8C1393.7 649.5 1399.3 652.8 1408.6 655.5L1415.8 657.6L1409.1 672.5C1397 699.8 1378.4 732.7 1365.3 750.3C1358.7 759.3 1342.9 776 1341.1 776C1339.5 776 1338 769.1 1338 761.7C1338 738.5 1348.9 696.4 1369.6 639.7C1372.5 631.9 1372.5 631.8 1370.5 630.4C1366.8 627.7 1358.5 625.8 1347.5 625.3C1333.9 624.7 1329.3 626 1326.8 631.1C1297.6 691.1 1293.4 697.8 1273 718.1C1257.5 733.5 1251.5 737.4 1247.1 734.9C1243.6 732.9 1242 729.1 1240.8 720.1C1238.8 704.5 1241.8 685.3 1248.5 671.1C1256.4 654.6 1266.2 643 1272.3 643C1276.9 643 1280 646.5 1286.8 659.6L1292.5 670.5L1297.1 670.8C1300.4 671 1302.3 670.6 1304 669.2C1306.1 667.5 1306.2 667.1 1305 663.4C1304.3 661.3 1301.7 655.6 1299.3 650.8C1295.9 644.2 1293.2 640.6 1288.2 635.8C1279 627.2 1271.8 623.8 1261.4 623.2C1247.5 622.4 1235.2 627.4 1222.9 638.8C1205.8 654.6 1196 676.1 1194.1 701.5C1193.4 711.3 1192.8 714 1188 726.5C1177.3 754.7 1165.2 779.4 1152.8 798C1133.3 827.6 1124 828.1 1124 799.5C1124 778 1128.5 751.7 1141.5 697.5C1154.6 642.8 1159 617.6 1159.7 593.5C1160.2 577.6 1160 574.5 1158.2 567.5C1151.2 539.7 1134.7 527.3 1102 525.4C1082.9 524.2 1072.3 528.7 1056.5 544.5C1043.4 557.5 1030.4 576.6 1017.6 601.5C1015.1 606.4 1013 610 1013 609.4C1013 608.8 1013.7 603.4 1014.7 597.4C1015.8 590 1016.3 579.5 1016.4 564.5C1016.5 539.4 1015.3 531.9 1009.4 520C998.8 498.9 967.3 485.9 940 491.4C927.8 493.9 919.9 498.1 911.3 506.7C901.9 516 895.3 526.3 882.7 551.2C873.4 569.4 870.1 577.6 857.5 612L854.1 621.5L854.8 615.5C855.2 612.2 855.5 598.5 855.4 585C855.4 563.6 855.1 559.2 853.2 550.2C844.2 508.6 824 487.6 785 479.5C777.5 477.9 755.1 476.8 747.5 477.6ZM678.6 536.5C697.1 545.8 711 561.3 716.2 578.3C721.4 595.5 714.2 613.2 700.4 617C694.2 618.8 682.4 617.7 677 615C656.2 604.4 649.7 573.1 662.5 545.3C666.9 535.7 668.7 533 670.4 533C671.1 533 674.8 534.6 678.6 536.5ZM596 552.4C599.2 573.7 593.6 595.1 582.6 603.5C575.5 608.9 561.8 607.5 558.5 601C553.9 592.1 559.5 576.6 572.6 562.1C577.2 557 592.6 544 594.1 544C594.5 544 595.4 547.8 596 552.4ZM1431.9 570.8C1439 574.4 1441.4 581.8 1439.8 594.9C1438.6 604.6 1432.2 624.1 1426.2 636.2L1421.5 645.5L1417.5 645.2C1408.4 644.4 1398 636.7 1393.9 627.6C1387.8 613.6 1390.8 592.4 1400.6 580.7C1404.1 576.5 1410.8 571.5 1414.5 570.2C1419.3 568.5 1428.1 568.8 1431.9 570.8Z" fill="black"/>
<path d="M311 528.1C294.4 530.5 281.7 540 274.5 555.3C268.7 567.4 267.8 573.3 267.3 603.9L266.8 631.3L252.8 644.9C214.7 681.7 196 710 198.5 726.9C202.5 753.3 240.4 759 282.3 739.3C286.5 737.3 290.2 735.9 290.4 736.1C290.6 736.3 293.3 741.5 296.3 747.5C299.3 753.6 304.6 762.8 308.1 768C316.5 780.6 332.7 796.7 344.4 803.9C370 819.7 401.6 823.9 435.1 815.9C446.9 813.1 450 809.5 444.4 805.1C441.1 802.5 439.2 802.5 428.8 805C417.9 807.7 397.6 808.7 387.5 807.1C351.5 801.3 322.8 774.9 304.7 730.9L303.2 727.3L307.9 723.8C327 709.3 347.8 683.6 359.9 659.3C365.6 647.8 373 628.9 374.5 622.2C375.4 618.1 373.2 615.3 368.4 614.4C362.5 613.3 360.8 615.4 356.1 629.2C346.9 656.2 332.6 680.2 314.5 698.8C308.5 705.1 302.4 711 300.9 712.1L298.2 714L295.1 702.7C291 687.8 287 669.5 287 665.5C287 662.7 289 660.6 306.2 644.9C333.8 619.9 357.2 596.5 361.7 589.4C375.2 568.2 369.4 546 347.2 534.2C337.2 528.9 322.4 526.4 311 528.1ZM318.5 542.2C323.4 545.5 326.3 550.4 326.8 556.3C327.7 567.6 320.7 578.1 296 602.5L281.8 616.5L282.3 598C283 577.1 284.4 568.9 289.1 559.7C297.5 543.1 309.5 536 318.5 542.2ZM275.8 688.4C277 694.2 279.8 704.3 281.9 711L285.8 723L279.1 727C265.2 735.2 252.5 737.7 247.4 733C245 730.7 244.8 730.1 245.2 723.4C245.8 715.1 248.7 707.9 255.7 698.2C261.1 690.5 271.8 678 272.8 678C273.2 678 274.5 682.7 275.8 688.4Z" fill="black"/>
<path d="M1617.5 599.5C1607.1 606.3 1598.4 612.3 1598.2 612.8C1597.8 614 1602.6 617.9 1605.5 618.6C1607.2 619 1630.2 613.7 1655.8 606.9C1659.5 605.9 1660 605.4 1660 603C1660 597.4 1646.4 586.9 1639.4 587C1637.4 587.1 1630.4 591 1617.5 599.5Z" fill="black"/>
</svg>
