<svg width="1699" height="183" viewBox="0 0 1699 183" fill="none" xmlns="http://www.w3.org/2000/svg">
<path d="M137 5.00098C137 8.80098 137.2 9.00098 140 9.00098H143V33.801V58.601L140.2 61.301C138 63.401 136.4 64.001 132.9 64.001C129.1 64.001 128.1 63.601 125.8 60.601C123.4 57.601 123 56.201 123 51.101V45.001H119.5H116V53.101C116 61.101 116 61.101 120.3 66.101L124.5 71.001H133.1H141.7L145.9 66.501L150 62.001V35.601V9.10098L152.8 8.80098C155.2 8.50098 155.5 8.10098 155.5 5.00098V1.50098L146.3 1.20097L137 0.900978V5.00098Z" fill="black"/>
<path d="M167 14.5009C167 17.6009 167.3 18.0009 169.5 18.0009H172V39.5009V60.9009L176.3 65.9009L180.5 70.9009H193H205.5L209.8 65.9009L214 60.9009V39.5009V18.0009H216.5C218.7 18.0009 219 17.6009 219 14.5009V11.0009H209.5H200V14.5009C200 17.7009 200.2 18.0009 203 18.0009H206V38.3009V58.6009L203.2 61.3009C200.7 63.7009 199.7 64.0009 193 64.0009C186.3 64.0009 185.3 63.7009 182.8 61.3009L180 58.6009V38.3009V18.0009H183C185.8 18.0009 186 17.7009 186 14.5009V11.0009H176.5H167V14.5009Z" fill="black"/>
<path d="M232 14.501C232 17.701 232.2 18.001 235 18.001H238V41.001V64.001H235C232.2 64.001 232 64.301 232 67.501V71.001H242H252V67.501C252 64.301 251.8 64.001 249 64.001H246L246.1 42.201L246.2 20.501L258.5 45.701L270.9 71.001H277H283V44.501V18.001H286C288.8 18.001 289 17.701 289 14.501V11.001H279H269V14.501C269 17.701 269.2 18.001 272 18.001H275L274.9 39.701L274.8 61.501L262.5 36.201L250.1 11.001H241.1H232V14.501Z" fill="black"/>
<path d="M298 20.001V29.001H301C304 29.001 304 28.901 304 23.501V18.001H310H316V41.001V64.001H312C308.1 64.001 308 64.101 308 67.501V71.001H320.5H333V67.501C333 64.001 333 64.001 328.5 64.001H324V41.001V18.001H330H336V23.501C336 28.901 336 29.001 339 29.001H342V20.001V11.001H320H298V20.001Z" fill="black"/>
<path d="M356.3 16.101L352 21.101V40.901V60.801L356.3 65.901L360.5 71.001H373.2H385.8L389.9 66.401L394 61.701V41.001V20.301L389.9 15.601L385.8 11.001L373.2 11.101H360.5L356.3 16.101ZM384.7 21.201C386.9 23.301 387 23.801 387 40.901V58.401L384.3 61.201C381.8 63.801 381.1 64.001 373.5 64.001C365.9 64.001 365.2 63.801 362.7 61.201L360 58.401V41.001C360 24.501 360.1 23.501 362.2 21.301C364.1 19.201 365.2 19.001 373.4 19.001C381.2 19.001 382.7 19.301 384.7 21.201Z" fill="black"/>
<path d="M443.1 15.601L439 20.301V41.201V62.001L443.1 66.501L447.3 71.001H458.5H469.8L473.9 66.101C477.7 61.501 478 60.801 478 55.001V48.901L474.8 49.201C471.8 49.501 471.5 49.801 471.2 53.401C471 55.701 469.8 58.701 468.3 60.701C465.8 63.901 465.5 64.001 458.7 64.001C452.4 64.001 451.3 63.701 448.8 61.301L446 58.601V41.001C446 23.801 446.1 23.301 448.3 21.201C450.3 19.301 451.8 19.001 458.7 19.001C466.4 19.001 466.9 19.101 468.6 21.701C469.7 23.301 470.7 26.301 471 28.501C471.5 32.201 471.8 32.501 474.8 32.801L478 33.101V27.001C478 21.301 477.7 20.501 473.8 15.901L469.7 11.001H458.4H447.2L443.1 15.601Z" fill="black"/>
<path d="M495.1 15.601L491 20.301V41.201V62.001L495.1 66.501L499.3 71.001H511.9H524.5L528.8 65.901L533 60.801V40.901V21.101L528.8 16.101L524.5 11.101H511.8L499.2 11.001L495.1 15.601ZM522.7 21.201C524.9 23.301 525 23.801 525 40.901V58.401L522.3 61.201C519.8 63.801 519.1 64.001 511.5 64.001C503.9 64.001 503.2 63.801 500.7 61.201L498 58.401V41.001C498 24.501 498.1 23.501 500.2 21.301C502.1 19.201 503.2 19.001 511.4 19.001C519.2 19.001 520.7 19.301 522.7 21.201Z" fill="black"/>
<path d="M547 14.501C547 17.701 547.2 18.001 550 18.001H553V41.001V64.001H550C547.2 64.001 547 64.301 547 67.501V71.001H556.5H566V67.501C566 64.301 565.8 64.001 563 64.001H560V42.401C560 30.601 560.4 21.101 560.8 21.401C561.3 21.701 567 32.901 573.5 46.401L585.4 71.001H591.7H598V44.501V18.001H601C603.8 18.001 604 17.701 604 14.501V11.001H594H584V14.501C584 17.701 584.2 18.001 587 18.001H590L589.9 40.201L589.8 62.501L577.2 36.701L564.6 11.001H555.8H547V14.501Z" fill="black"/>
<path d="M647 14.501C647 17.701 647.2 18.001 650 18.001H653V41.001V64.001H650C647.2 64.001 647 64.301 647 67.501V71.001H657H667V67.501C667 64.301 666.8 64.001 664 64.001H661L661.1 42.201L661.2 20.501L673.5 45.701L685.9 71.001H692H698V44.501V18.001H701C703.8 18.001 704 17.701 704 14.501V11.001H694H684V14.501C684 17.701 684.2 18.001 687 18.001H690L689.9 39.701L689.8 61.501L677.5 36.201L665.1 11.001H656.1H647V14.501Z" fill="black"/>
<path d="M716 14.5009C716 17.6009 716.3 18.0009 718.5 18.0009H721V39.5009V60.9009L725.3 65.9009L729.5 70.9009H742H754.5L758.8 65.9009L763 60.9009V39.5009V18.0009H765.5C767.7 18.0009 768 17.6009 768 14.5009V11.0009H758.5H749V14.5009C749 17.7009 749.2 18.0009 752 18.0009H755V38.3009V58.6009L752.2 61.3009C749.7 63.7009 748.7 64.0009 742 64.0009C735.3 64.0009 734.3 63.7009 731.8 61.3009L729 58.6009V38.3009V18.0009H732C734.8 18.0009 735 17.7009 735 14.5009V11.0009H725.5H716V14.5009Z" fill="black"/>
<path d="M781 14.501C781 17.701 781.2 18.001 784 18.001H787V41.001V64.001H784C781.2 64.001 781 64.301 781 67.501V71.001H801.5H822V62.001V53.001H818.5H815V58.501V64.001H805H795V54.501V45.001H805H815V41.001V37.001H805H795V27.501V18.001H805H815V23.501V29.001H818.5H822V20.001V11.001H801.5H781V14.501Z" fill="black"/>
<path d="M840.3 15.901C836.1 20.801 836 21.001 836 28.201C836 35.301 836.1 35.601 840.1 40.201L844.2 45.001H853.5C862.7 45.001 862.9 45.101 864.9 47.901C867.9 52.101 867.7 57.701 864.3 61.201C861.9 63.701 861 64.001 855 64.001C848.8 64.001 848.2 63.801 845.2 60.701C842.6 58.101 842 56.601 842 53.201C842 49.101 841.9 49.001 838.5 49.001H835V55.101C835 60.801 835.3 61.401 839.3 66.101L843.5 71.001H855H866.5L870.8 65.901C874.8 61.001 875 60.501 875 54.301C875 48.201 874.8 47.601 870.8 42.901L866.7 38.001H857.5C849.2 38.001 848.1 37.801 846.2 35.701C844.5 33.901 844 32.101 844 28.401C844 21.101 846.5 19.001 855 19.001C860.6 19.001 861.8 19.301 864.2 21.701C866.4 23.801 867 25.301 867 28.701C867 32.901 867 33.001 870.5 33.001H874V26.701C873.9 20.801 873.7 20.301 869.5 15.701L865.2 11.001H854.8H844.5L840.3 15.901Z" fill="black"/>
<path d="M883 20.001V29.001H886.5H890V23.501V18.001H896H902V41.001V64.001H897.5C893 64.001 893 64.001 893 67.501V71.001H905.5H918V67.501C918 64.101 917.9 64.001 914 64.001H910V41.001V18.001H916H922V23.501C922 28.901 922 29.001 925 29.001H928V20.001V11.001H905.5H883V20.001Z" fill="black"/>
<path d="M938 14.501C938 17.701 938.2 18.001 941 18.001H944V41.001V64.001H941C938.2 64.001 938 64.301 938 67.501V71.001H947.5H957V67.501C957 64.401 956.7 64.001 954.5 64.001C952.1 64.001 952 63.801 952 57.001V50.001H958.4H964.8L968.5 56.701C970.7 60.701 971.8 63.601 971.1 63.801C970.5 64.001 970 65.701 970 67.601V71.001H977.5H985V67.501C985 64.501 984.7 64.001 982.8 64.001C981 64.001 979.7 62.401 976.7 56.901L972.9 49.901L974.9 47.201C975.9 45.701 977.7 43.601 978.9 42.601C980.8 40.901 981 39.601 981 30.501V20.301L976.9 15.601L972.8 11.001H955.4H938V14.501ZM971.7 21.201C973.6 23.001 974 24.301 974 29.901C974 35.601 973.7 36.701 971.3 39.201C968.8 41.801 968.1 42.001 960.3 42.001H952V30.501V19.001H960.7C968.2 19.001 969.7 19.301 971.7 21.201Z" fill="black"/>
<path d="M1008 14.401C1008 17.001 1008.5 17.901 1009.8 18.201C1011.5 18.501 1011 20.601 1004.6 41.001C998.3 60.801 997.2 63.501 995.2 63.801C993.4 64.101 993 64.801 993 67.601V71.001H1002H1011V67.501C1011 64.301 1010.8 64.001 1007.9 64.001C1004.6 64.001 1004.6 64.401 1007.5 56.001L1008.7 52.501H1019.6H1030.5L1032.2 57.501C1034.4 64.101 1034.4 64.001 1031.5 64.001C1029.3 64.001 1029 64.401 1029 67.501V71.001H1038H1047V67.501C1047 64.501 1046.7 64.001 1044.5 64.001C1042.2 64.001 1041.7 62.801 1035.6 43.701C1027.4 18.001 1027.4 18.001 1029.4 18.001C1030.6 18.001 1031 17.001 1031 14.501V11.001H1019.5H1008V14.401ZM1023.3 29.701C1025.2 35.701 1027.1 41.501 1027.5 42.701C1028.1 45.001 1028 45.001 1019.5 45.001C1012.9 45.001 1010.9 44.701 1011.3 43.701C1011.5 43.101 1013.5 37.201 1015.6 30.701C1017.7 24.301 1019.5 19.001 1019.7 19.001C1019.8 19.001 1021.4 23.801 1023.3 29.701Z" fill="black"/>
<path d="M1059.3 15.901C1055.1 20.801 1055 21.001 1055 28.201C1055 35.301 1055.1 35.601 1059.1 40.201L1063.2 45.001H1072.5C1081.7 45.001 1081.9 45.101 1083.9 47.901C1086.9 52.101 1086.7 57.701 1083.3 61.201C1080.9 63.701 1080 64.001 1074 64.001C1067.8 64.001 1067.2 63.801 1064.2 60.701C1061.6 58.101 1061 56.601 1061 53.201C1061 49.101 1060.9 49.001 1057.5 49.001H1054V55.101C1054 60.801 1054.3 61.401 1058.3 66.101L1062.5 71.001H1074H1085.5L1089.8 65.901C1093.8 61.001 1094 60.501 1094 54.301C1094 48.201 1093.8 47.601 1089.8 42.901L1085.7 38.001H1076.5C1068.2 38.001 1067.1 37.801 1065.2 35.701C1063.5 33.901 1063 32.101 1063 28.401C1063 21.101 1065.5 19.001 1074 19.001C1079.6 19.001 1080.8 19.301 1083.2 21.701C1085.4 23.801 1086 25.301 1086 28.701C1086 32.901 1086 33.001 1089.5 33.001H1093V26.701C1092.9 20.801 1092.7 20.301 1088.5 15.701L1084.2 11.001H1073.8H1063.5L1059.3 15.901Z" fill="black"/>
<path d="M1137 14.501C1137 17.701 1137.2 18.001 1140 18.001H1143V41.001V64.001H1140C1137.2 64.001 1137 64.301 1137 67.501V71.001H1147.5H1158V67.501C1158 64.201 1157.8 64.001 1154.5 64.001H1151V54.501V45.001H1161H1171V41.001V37.001H1161H1151V27.501V18.001H1161H1171V23.501V29.001H1174.5H1178V20.001V11.001H1157.5H1137V14.501Z" fill="black"/>
<path d="M1195 14.501C1195 17.401 1195.4 18.001 1197.1 18.001C1198.5 18.001 1199 18.501 1198.7 19.401C1198.4 20.101 1195.1 30.501 1191.3 42.401C1185.1 62.201 1184.3 64.001 1182.3 64.001C1180.3 64.001 1180 64.501 1180 67.501V71.001H1189H1198V67.501C1198 64.301 1197.8 64.001 1195.1 64.001H1192.1L1194.2 58.001L1196.2 52.001H1206.6H1217.1L1218.5 55.301C1219.2 57.101 1220.2 59.801 1220.5 61.301C1221.1 63.701 1220.9 64.001 1218.6 64.001C1216.3 64.001 1216 64.401 1216 67.501V71.001H1225H1234V67.501C1234 64.401 1233.7 64.001 1231.5 64.001C1230.1 64.001 1229 63.801 1229 63.501C1229 63.301 1225.9 53.201 1222 41.101C1218.2 29.101 1215 19.001 1215 18.601C1215 18.301 1215.7 18.001 1216.5 18.001C1217.5 18.001 1218 16.901 1218 14.501V11.001H1206.5H1195V14.501ZM1211.4 32.101C1213.4 38.501 1215 44.101 1215 44.401C1215 44.701 1211.4 45.001 1207 45.001C1202.1 45.001 1199 44.601 1199 44.001C1199 41.501 1206.5 19.101 1207.1 19.801C1207.5 20.201 1209.4 25.701 1211.4 32.101Z" fill="black"/>
<path d="M1242 14.501C1242 17.701 1242.2 18.001 1245 18.001H1248V41.001V64.001H1245C1242.2 64.001 1242 64.301 1242 67.501V71.001H1252H1262V67.501C1262 64.301 1261.8 64.001 1259 64.001H1256V43.001C1256 31.401 1256.2 22.001 1256.3 22.001C1256.5 22.001 1260.2 31.401 1264.5 43.001L1272.3 64.001H1276.1C1278.7 64.001 1280 63.501 1280.5 62.201C1280.8 61.301 1284.3 52.201 1288.2 42.001C1292 31.801 1295.4 23.301 1295.6 23.101C1295.8 22.901 1296 32.001 1296 43.301V64.001H1293C1290.2 64.001 1290 64.301 1290 67.501V71.001H1300H1310V67.501C1310 64.301 1309.8 64.001 1307 64.001H1304V41.001V18.001H1307C1309.8 18.001 1310 17.701 1310 14.501V11.001H1301.2H1292.4L1284.5 32.501C1280.2 44.301 1276.3 53.601 1275.9 53.201C1275.5 52.801 1272.7 45.701 1269.7 37.501C1266.6 29.201 1263.2 19.901 1262 16.701L1259.9 11.001H1250.9H1242V14.501Z" fill="black"/>
<path d="M1323 14.501C1323 17.801 1323.2 18.001 1326.5 18.001H1330V41.001V64.001H1326.5C1323.2 64.001 1323 64.201 1323 67.501V71.001H1334H1345V67.501C1345 64.201 1344.8 64.001 1341.5 64.001H1338V41.001V18.001H1341.5C1344.8 18.001 1345 17.801 1345 14.501V11.001H1334H1323V14.501Z" fill="black"/>
<path d="M1358 14.501C1358 17.701 1358.2 18.001 1361 18.001H1364V41.001V64.001H1361C1358.2 64.001 1358 64.301 1358 67.501V71.001H1377.5H1397V62.001V53.001H1394C1391 53.001 1391 53.101 1391 58.501V64.001H1381.5H1372V41.001V18.001H1375.5C1378.8 18.001 1379 17.801 1379 14.501V11.001H1368.5H1358V14.501Z" fill="black"/>
<path d="M1405 14.501C1405 17.801 1405.2 18.001 1408.5 18.001H1412V41.001V64.001H1408.5C1405.2 64.001 1405 64.201 1405 67.501V71.001H1416H1427V67.501C1427 64.201 1426.8 64.001 1423.5 64.001H1420V41.001V18.001H1423.5C1426.8 18.001 1427 17.801 1427 14.501V11.001H1416H1405V14.501Z" fill="black"/>
<path d="M1450 14.501C1450 16.901 1450.5 18.001 1451.5 18.001C1452.3 18.001 1453 18.301 1453 18.601C1453 19.001 1449.9 29.101 1446 41.101C1442.2 53.201 1439 63.301 1439 63.501C1439 63.801 1437.9 64.001 1436.5 64.001C1434.3 64.001 1434 64.401 1434 67.501V71.001H1443H1452V67.501C1452 64.401 1451.7 64.001 1449.4 64.001C1447.1 64.001 1446.9 63.701 1447.5 61.301C1447.8 59.801 1448.8 57.101 1449.5 55.301L1450.9 52.001H1461.4H1471.8L1473.8 58.001L1475.9 64.001H1472.9C1470.2 64.001 1470 64.301 1470 67.501V71.001H1479H1488V67.501C1488 64.501 1487.7 64.001 1485.7 64.001C1483.7 64.001 1482.9 62.201 1476.7 42.401C1472.9 30.501 1469.6 20.101 1469.3 19.401C1469 18.501 1469.5 18.001 1470.9 18.001C1472.6 18.001 1473 17.401 1473 14.501V11.001H1461.5H1450V14.501ZM1469 43.701C1469 44.601 1466.7 45.001 1461 45.001C1456.6 45.001 1453 44.701 1453 44.401C1453 43.501 1460.2 20.601 1460.8 19.601C1461.3 18.701 1468.9 41.201 1469 43.701Z" fill="black"/>
<path d="M1501.1 15.601C1497 20.301 1497 20.301 1497 28.401C1497 36.501 1497.1 36.501 1501.1 40.701L1505.1 45.001H1513.8C1522.2 45.001 1522.8 45.101 1525.3 47.801C1528.9 51.601 1529 56.701 1525.4 60.901C1523 63.801 1522.4 64.001 1515.6 64.001C1509 64.001 1508.1 63.801 1505.8 61.201C1503.9 59.301 1503 57.201 1502.8 54.001C1502.5 49.701 1502.3 49.501 1499.3 49.201L1496 48.901V55.301C1496 61.401 1496.2 62.001 1500.1 66.401L1504.2 71.001H1515.5H1526.8L1530.9 66.201C1534.9 61.601 1535 61.301 1535 54.001V46.401L1530.7 42.201L1526.4 38.001H1518C1510.3 38.001 1509.4 37.801 1506.8 35.301C1504.5 33.101 1504 31.801 1504 28.001C1504 21.001 1506.6 19.001 1515.6 19.001C1524.2 19.001 1526.7 20.901 1527.2 28.001C1527.5 32.301 1527.7 32.501 1530.8 32.801L1534 33.101V26.801C1534 20.901 1533.7 20.201 1529.9 15.701L1525.8 11.001H1515.5H1505.2L1501.1 15.601Z" fill="black"/>
<path d="M1546 72.001C1546 81.501 1546.3 84.001 1547.4 84.001C1549.3 84.001 1554 70.201 1554 64.601V60.001H1550H1546V72.001Z" fill="black"/>
<path d="M608.3 109.301C603.1 111.501 601 112.901 601 114.201C601 115.801 601.9 116.001 607.5 116.001C614.3 116.001 619 114.501 619 112.401C619 110.401 617.1 106.001 616.3 106.101C615.8 106.101 612.2 107.601 608.3 109.301Z" fill="black"/>
<path d="M0 125.401C0 128.401 0.3 128.901 2.7 129.201C5.3 129.501 6.1 130.901 12.9 146.001C19.6 160.901 20.3 163.101 20.4 169.001L20.5 175.501L16.8 175.801C13.2 176.101 13 176.301 13 179.601V183.001H24.5H36V179.601C36 176.301 35.8 176.101 32.3 175.801L28.5 175.501L28.6 169.001C28.7 163.101 29.4 160.901 36.1 146.001C42.9 130.901 43.7 129.501 46.3 129.201C48.7 128.901 49 128.401 49 125.401V122.001H40H31V125.501C31 128.201 31.4 129.001 32.8 129.001C33.8 129.001 34.9 129.301 35.2 129.601C35.7 130.001 25.8 153.501 24.6 154.701C24.2 155.201 13.7 131.501 13.8 130.301C13.9 129.901 14.8 129.401 16 129.201C17.6 128.901 18 128.101 18 125.401V122.001H9H0V125.401Z" fill="black"/>
<path d="M88 125.501C88 128.701 88.2 129.001 91 129.001H94V152.501V176.001H91C88.2 176.001 88 176.301 88 179.501V183.001H107.5H127V174.001V165.001H124.1C121.2 165.001 121.1 165.201 120.8 170.201L120.5 175.501L111.3 175.801L102 176.101V152.501V129.001H105.5C108.8 129.001 109 128.801 109 125.501V122.001H98.5H88V125.501Z" fill="black"/>
<path d="M146 125.501C146 127.901 146.5 129.001 147.5 129.001C148.3 129.001 149 129.601 149 130.201C149 131.201 144.2 146.801 136.4 171.201C135.1 175.201 134.4 176.001 132.4 176.001C130.3 176.001 130 176.501 130 179.501V183.001H139.5H149V179.501C149 176.301 148.8 176.001 146 176.001C142.5 176.001 142.5 176.201 144.7 169.301L146.4 163.901L157.3 164.201L168.3 164.501L170.1 169.701C172 175.301 171.8 176.001 168.3 176.001C166.3 176.001 166 176.501 166 179.501V183.001H175H184V179.601C184 176.901 183.6 176.101 181.9 175.801C180.1 175.501 178.8 172.201 172.5 152.601C165.7 131.401 165.3 129.701 167.1 129.301C168.5 128.901 169 127.901 169 125.401V122.001H157.5H146V125.501ZM157.7 155.801C153.3 156.001 149.6 155.901 149.4 155.801C149.3 155.601 151 149.601 153.2 142.501L157.4 129.501L161.5 142.501L165.6 155.501L157.7 155.801Z" fill="black"/>
<path d="M223 125.501C223 128.701 223.2 129.001 226 129.001H229V152.501V176.001H226C223.2 176.001 223 176.301 223 179.501V183.001H241.3H259.5L263.8 177.901C267.9 172.901 268 172.701 268 165.201C268 158.001 267.8 157.401 264.8 154.301L261.6 151.001L263.8 148.701C265.6 146.701 266 145.201 266 139.101C266 132.001 265.9 131.801 261.8 126.901L257.5 122.001H240.3H223V125.501ZM256.2 132.701C258.3 134.701 259 136.301 259 139.001C259 141.701 258.3 143.301 256.2 145.301C253.6 147.801 252.7 148.001 245.2 148.001H237V139.001V130.001H245.2C252.7 130.001 253.6 130.201 256.2 132.701ZM258.3 158.401C262 163.101 262 168.401 258.3 172.201C255.7 174.901 255.2 175.001 246.3 175.001H237V165.001V155.001H246.3H255.5L258.3 158.401Z" fill="black"/>
<path d="M282 125.501C282 128.701 282.2 129.001 285 129.001H288V152.501V176.001H285C282.2 176.001 282 176.301 282 179.501V183.001H302.5H323V174.001V165.001H319.5H316V170.501V176.001H306H296V166.001V156.001H306H316V152.501V149.001H306H296V139.001V129.001H306H316V134.501V140.001H319.5H323V131.001V122.001H302.5H282V125.501Z" fill="black"/>
<path d="M337 125.501C337 128.701 337.2 129.001 340 129.001H343V152.501V176.001H340C337.2 176.001 337 176.301 337 179.501V183.001H347H357V179.501C357 176.301 356.8 176.001 354 176.001H351V153.801V131.601L363.7 157.301L376.4 183.001H382.2H388L388.2 156.201L388.5 129.501L391.3 129.201C393.7 128.901 394 128.401 394 125.401V122.001H384H374V125.501C374 128.701 374.2 129.001 377 129.001H380V151.201V173.301L369.9 152.901C364.3 141.701 358.7 130.101 357.4 127.201L355.1 122.001H346.1H337V125.501Z" fill="black"/>
<path d="M407 125.501C407 128.701 407.2 129.001 410 129.001H413V152.501V176.001H410C407.2 176.001 407 176.301 407 179.501V183.001H425.4H443.8L448.4 177.901L453 172.801V152.601V132.501L448.4 127.201L443.8 122.001H425.4H407V125.501ZM442.7 132.201C444.9 134.301 445 134.801 445 152.401C445 169.501 444.9 170.501 442.8 172.701C440.8 174.801 439.8 175.001 430.8 175.001H421V152.501V130.001H430.7C439.3 130.001 440.6 130.301 442.7 132.201Z" fill="black"/>
<path d="M466 125.401C466 128.601 466.3 128.901 469.3 129.201L472.5 129.501V152.501V175.501L469.3 175.801C466.3 176.101 466 176.401 466 179.601V183.001H476.5H487V179.501C487 176.301 486.8 176.001 484 176.001H481V152.501V129.001H484C486.8 129.001 487 128.701 487 125.501V122.001H476.5H466V125.401Z" fill="black"/>
<path d="M505.2 126.901L501 131.901V152.501V173.101L505.2 178.101L509.3 183.001L520.4 182.901H531.5L535.8 177.901C539.7 173.301 540 172.501 540 167.001V161.001H536.5C533 161.001 533 161.101 533 165.301C533 168.701 532.4 170.201 530.2 172.301C527.7 174.701 526.7 175.001 519.9 175.001C512.7 175.001 512.3 174.901 510.2 172.001C508.1 169.301 508 168.001 508 152.301V135.601L510.7 132.801C513.1 130.301 514 130.001 520.4 130.001C526.6 130.001 527.7 130.301 530.2 132.701C532.4 134.801 533 136.301 533 139.701C533 143.901 533 144.001 536.5 144.001H540V138.001C540 132.501 539.7 131.701 535.8 127.101L531.5 122.101H520.4L509.3 122.001L505.2 126.901Z" fill="black"/>
<path d="M552 125.401C552 128.601 552.3 128.901 555.3 129.201L558.5 129.501V152.501V175.501L555.3 175.801C552.3 176.101 552 176.401 552 179.601V183.001H562.5H573V179.601C573 176.401 572.7 176.101 569.8 175.801L566.5 175.501V152.501V129.501L569.8 129.201C572.7 128.901 573 128.601 573 125.401V122.001H562.5H552V125.401Z" fill="black"/>
<path d="M590.6 127.401L586 132.701V152.501V172.301L590.6 177.601L595.2 183.001H607.4H619.7L623.8 178.101L628 173.101V152.501V131.901L623.8 126.901L619.7 122.001H607.4H595.2L590.6 127.401ZM618.5 132.701C620.9 135.401 620.9 135.901 620.9 152.501C620.9 169.101 620.9 169.601 618.5 172.201C616.2 174.901 615.7 175.001 607.1 175.001C598.6 175.001 598 174.901 596.1 172.401C594.2 169.901 594 168.401 594 152.801C594 137.201 594.2 135.601 596.1 132.901C598.1 130.101 598.3 130.001 607.1 130.001C615.7 130.001 616.2 130.101 618.5 132.701Z" fill="black"/>
<path d="M643 125.401C643 128.401 643.3 128.901 645.8 129.201L648.5 129.501V152.501V175.501L645.8 175.801C643.3 176.101 643 176.601 643 179.601V183.001H652.5H662V179.501C662 176.401 661.7 176.001 659.5 176.001C658.1 176.001 656.7 175.401 656.4 174.701C656.2 174.001 656.1 164.001 656.2 152.501L656.5 131.501L669.2 157.301L681.9 183.001H688H694V156.001V129.001H697C699.8 129.001 700 128.701 700 125.501V122.001H690H680V125.401C680 128.401 680.3 128.901 682.8 129.201L685.5 129.501L685.8 151.501C685.9 163.601 685.7 173.001 685.2 172.501C684.8 171.901 679 160.401 672.5 146.801L660.5 122.101L651.8 122.001H643V125.401Z" fill="black"/>
<path d="M743 125.401C743 128.401 743.3 128.901 745.8 129.201L748.5 129.501V152.501V175.501L745.8 175.801C743.3 176.101 743 176.601 743 179.601V183.001H761.3H779.7L783.8 178.101L788 173.101V152.501V131.901L783.8 126.901L779.5 122.001H761.3H743V125.401ZM778.2 132.701L781 135.401V152.401V169.401L778.3 172.201C775.7 174.901 775.2 175.001 766.3 175.001H757V152.501V130.001H766.2C774.8 130.001 775.6 130.201 778.2 132.701Z" fill="black"/>
<path d="M803 125.401C803 128.401 803.3 128.901 805.8 129.201L808.5 129.501V152.501V175.501L805.8 175.801C803.3 176.101 803 176.601 803 179.601V183.001H823H843V174.001V165.001H840.1C837.2 165.001 837.1 165.201 836.8 170.201L836.5 175.501H826.5H816.5V166.001V156.501L826.8 156.201L837 155.901V152.501V149.101L826.8 148.801L816.5 148.501V139.001V129.501H826.5H836.5L836.8 134.701C837.1 139.801 837.2 140.001 840.1 140.001H843V131.001V122.001H823H803V125.401Z" fill="black"/>
<path d="M888 125.401C888 128.401 888.3 128.901 890.8 129.201L893.5 129.501V152.501V175.501L890.8 175.801C888.3 176.101 888 176.601 888 179.601V183.001H897.5H907V179.501C907 176.401 906.7 176.001 904.5 176.001C903.1 176.001 901.7 175.401 901.4 174.701C901.2 174.001 901.1 164.001 901.2 152.501L901.5 131.501L914.2 157.301L926.9 183.001H933H939V156.001V129.001H942C944.8 129.001 945 128.701 945 125.501V122.001H935H925V125.401C925 128.401 925.3 128.901 927.8 129.201L930.5 129.501L930.8 151.501C930.9 163.601 930.7 173.001 930.2 172.501C929.8 171.901 924 160.401 917.5 146.801L905.5 122.101L896.8 122.001H888V125.401Z" fill="black"/>
<path d="M957 125.501C957 128.601 957.3 129.001 959.5 129.001H962V150.901V172.801L966.6 177.901L971.2 183.001H982.9H994.7L998.8 178.101L1003 173.201L1003.2 151.301L1003.5 129.501L1006.3 129.201C1008.7 128.901 1009 128.401 1009 125.401V122.001H999.5H990V125.401C990 128.401 990.3 128.901 992.8 129.201L995.5 129.501L995.8 149.401L996 169.301L993.3 172.201C990.8 174.801 990.1 175.001 982.5 175.001C975.3 175.001 974.1 174.701 972.2 172.701C970.1 170.501 970 169.501 970 149.701V129.001H973C975.8 129.001 976 128.701 976 125.501V122.001H966.5H957V125.501Z" fill="black"/>
<path d="M1022 125.401C1022 128.401 1022.3 128.901 1024.8 129.201L1027.5 129.501V152.501V175.501L1024.8 175.801C1022.3 176.101 1022 176.601 1022 179.601V183.001H1042.5H1063V174.001V165.001H1059.5H1056V170.501V176.001H1046H1036V166.001V156.001H1046H1056V152.501V149.001H1046H1036V139.001V129.001H1046H1056V134.501V140.001H1059.5H1063V131.001V122.001H1042.5H1022V125.401Z" fill="black"/>
<path d="M1081.2 126.901C1077.1 131.801 1077 132.001 1077 139.701C1077 147.401 1077.1 147.601 1081.1 152.201L1085.2 157.001H1094.5C1103.7 157.001 1103.9 157.101 1105.9 159.901C1108.9 164.001 1108.6 168.701 1105.3 172.201C1102.9 174.701 1102 175.001 1095.6 175.001C1089.4 175.001 1088.3 174.701 1085.8 172.301C1083.6 170.201 1083 168.701 1083 165.301C1083 161.101 1083 161.001 1079.5 161.001H1076V167.101C1076 172.801 1076.3 173.401 1080.3 178.101L1084.5 183.001H1095.3H1106.2L1110.5 178.201C1114.9 173.601 1114.9 173.401 1115 166.101C1115 159.001 1114.9 158.701 1110.9 153.901L1106.8 149.001H1097.5C1088.6 149.001 1088 148.901 1086.1 146.401C1083 142.501 1083.3 136.401 1086.7 132.801C1089 130.301 1090.1 130.001 1095.4 130.001C1100.5 130.001 1101.8 130.401 1104.2 132.701C1106.4 134.801 1107 136.301 1107 139.701C1107 143.901 1107 144.001 1110.5 144.001H1114V137.901C1114 132.201 1113.7 131.601 1109.8 126.901L1105.5 122.001H1095.4H1085.3L1081.2 126.901Z" fill="black"/>
<path d="M1124 131.001V140.001H1127.5H1131V134.501V128.901L1136.8 129.201L1142.5 129.501V152.501V175.501L1138.3 175.801C1134.1 176.101 1134 176.201 1134 179.601V183.001H1146.5H1159V179.601C1159 176.201 1158.9 176.101 1154.8 175.801L1150.5 175.501V152.501V129.501H1156.5H1162.5L1162.8 134.701C1163.1 139.801 1163.2 140.001 1166.1 140.001H1169V131.001V122.001H1146.5H1124V131.001Z" fill="black"/>
<path d="M1179 125.401C1179 128.401 1179.3 128.901 1181.8 129.201L1184.5 129.501V152.501V175.501L1181.8 175.801C1179.3 176.101 1179 176.601 1179 179.601V183.001H1188H1197V179.601C1197 176.801 1196.6 176.101 1194.8 175.801C1192.7 175.501 1192.5 175.001 1192.5 168.501V161.501L1198.7 161.201L1204.9 160.901L1208.3 167.201C1211.4 172.701 1211.8 174.101 1211.3 178.201L1210.7 183.001H1218.4H1226V179.501C1226 176.501 1225.7 176.001 1223.8 176.001C1222 176.001 1220.6 174.401 1217.3 168.501L1213.2 161.001L1217.6 156.101L1222 151.201V141.801V132.501L1217.4 127.201L1212.8 122.001H1195.9H1179V125.401ZM1212.4 133.101C1214.5 135.601 1215 137.201 1215 141.801C1215 146.501 1214.6 147.801 1212.3 150.201C1209.8 152.901 1209.2 153.001 1200.8 153.001H1192V142.201C1192 136.201 1192.3 131.001 1192.7 130.701C1193 130.301 1197 130.001 1201.6 130.001C1209.6 130.001 1209.9 130.101 1212.4 133.101Z" fill="black"/>
<path d="M1243.6 127.101L1239 132.201V152.501V172.801L1243.6 177.901L1248.2 183.001H1260.2H1272.2L1276.5 178.201L1280.9 173.501L1281 152.901V132.201L1276.8 127.101L1272.5 122.001H1260.3H1248.2L1243.6 127.101ZM1270.7 132.201C1272.9 134.301 1273 134.801 1273 152.401C1273 169.501 1272.9 170.501 1270.8 172.701C1268.9 174.801 1267.7 175.001 1260.1 175.001C1252.8 175.001 1251.3 174.701 1249.3 172.801C1247.1 170.701 1247 170.201 1247 152.601C1247 135.501 1247.1 134.501 1249.2 132.301C1251.1 130.201 1252.3 130.001 1259.9 130.001C1267.2 130.001 1268.7 130.301 1270.7 132.201Z" fill="black"/>
<path d="M1299.6 127.101L1295 132.201V139.901C1295.1 147.501 1295.1 147.501 1299.5 152.201L1303.8 157.001H1312.7C1320.8 157.001 1321.9 157.201 1323.8 159.301C1326.7 162.401 1326.8 168.801 1323.9 172.401C1322 174.801 1321.3 175.001 1314 175.001C1306.5 175.001 1306.1 174.901 1303.6 171.901C1301.8 169.801 1301 167.701 1301 164.901C1301 161.101 1300.9 161.001 1297.5 161.001H1294V166.801C1294 172.201 1294.3 172.801 1298.6 177.801L1303.2 183.001H1314H1324.8L1329.4 177.601C1333.9 172.501 1334 172.101 1334 165.701C1334 159.401 1333.8 158.901 1329.8 154.101L1325.5 149.101H1316.4C1308.3 149.001 1307.1 148.801 1305.2 146.701C1303.5 144.901 1303 143.101 1303 139.401C1303 132.101 1305.5 130.001 1314.2 130.001C1320.4 130.001 1321 130.201 1323.4 133.101C1325.2 135.201 1326 137.301 1326 140.101C1326 143.901 1326.1 144.001 1329.5 144.001H1333V138.201C1333 132.801 1332.7 132.201 1328.4 127.201L1323.8 122.001H1314H1304.2L1299.6 127.101Z" fill="black"/>
<path d="M1377 125.501C1377 128.701 1377.2 129.001 1380 129.001H1383V152.501V176.001H1380C1377.2 176.001 1377 176.301 1377 179.501V183.001H1387.5H1398V179.601C1398 176.401 1397.7 176.101 1394.8 175.801L1391.5 175.501V169.001V162.501L1401.7 162.201L1411.9 161.901L1416.4 156.901L1421 151.801V142.301V132.801L1416.4 127.401L1411.8 122.001H1394.4H1377V125.501ZM1410.9 132.901C1414 137.201 1413.9 148.401 1410.8 151.701C1408.9 153.801 1407.8 154.001 1399.8 154.001H1391V142.001V130.001H1399.9C1408.6 130.001 1408.9 130.101 1410.9 132.901Z" fill="black"/>
<path d="M1438 125.501C1438 128.301 1438.4 129.001 1440 129.001C1442.5 129.001 1442.8 127.701 1434.1 154.601C1428.2 172.901 1427.1 175.501 1425.2 175.801C1423.4 176.101 1423 176.801 1423 179.601V183.001H1432H1441V179.501C1441 176.401 1440.7 176.001 1438.4 176.001C1435.9 176.001 1435.8 175.801 1436.5 172.401C1438.1 163.801 1437.7 164.001 1449.9 164.001H1460.8L1462.4 168.701C1464.6 175.001 1464.4 176.001 1461.5 176.001C1459.3 176.001 1459 176.401 1459 179.501V183.001H1468H1477V179.501C1477 176.701 1476.6 176.001 1475 176.001C1474 176.001 1472.7 175.201 1472.2 174.201C1471.2 172.401 1458 130.901 1458 129.701C1458 129.301 1458.7 129.001 1459.5 129.001C1460.5 129.001 1461 127.901 1461 125.501V122.001H1449.5H1438V125.501ZM1454.4 143.501C1456.4 149.601 1458 154.801 1458 155.301C1458 155.701 1454.4 156.001 1450 156.001C1445.6 156.001 1442 155.701 1442 155.201C1442 152.901 1449.5 131.101 1450 131.701C1450.4 132.201 1452.4 137.501 1454.4 143.501Z" fill="black"/>
<path d="M1485 125.501C1485 128.701 1485.2 129.001 1488 129.001H1491V152.501V176.001H1488C1485.2 176.001 1485 176.301 1485 179.501V183.001H1503.4H1521.8L1526.4 177.901L1531 172.801V152.601V132.501L1526.4 127.201L1521.8 122.001H1503.4H1485V125.501ZM1520.7 132.201C1522.9 134.301 1523 134.801 1523 152.401C1523 169.501 1522.9 170.501 1520.8 172.701C1518.8 174.801 1517.8 175.001 1508.8 175.001H1499V152.501V130.001H1508.7C1517.3 130.001 1518.6 130.301 1520.7 132.201Z" fill="black"/>
<path d="M1545 125.401C1545 128.401 1545.3 128.901 1547.8 129.201L1550.5 129.501V152.501V175.501L1547.8 175.801C1545.3 176.101 1545 176.601 1545 179.601V183.001H1554.5H1564V179.501C1564 176.401 1563.7 176.001 1561.5 176.001C1559.1 176.001 1559 175.801 1559 168.501V160.901L1565.2 161.201L1571.4 161.501L1575.3 168.501C1577.7 172.701 1578.8 175.601 1578.1 175.801C1577.5 176.001 1577 177.701 1577 179.601V183.001H1584.5H1592V179.501C1592 176.701 1591.6 176.001 1590 176.001C1588 176.001 1586.3 173.801 1581.8 165.301L1579.6 161.101L1583.8 156.101L1588 151.101V141.601V132.101L1583.8 127.101L1579.5 122.101H1562.3L1545 122.001V125.401ZM1578.2 132.701C1580.6 135.001 1581 136.101 1581 141.201C1581 145.701 1580.5 147.801 1578.8 150.001C1576.7 152.901 1576.4 153.001 1567.8 153.001H1559V141.501V130.001H1567.2C1574.7 130.001 1575.6 130.201 1578.2 132.701Z" fill="black"/>
<path d="M1605 125.501C1605 128.701 1605.2 129.001 1608 129.001H1611V152.501V176.001H1608C1605.2 176.001 1605 176.301 1605 179.501V183.001H1625.5H1646V174.001V165.001H1643.1C1640.2 165.001 1640.1 165.201 1639.8 170.201L1639.5 175.501H1629.5H1619.5L1619.2 165.701L1618.9 156.001H1629H1639V152.501V149.001H1629H1618.9L1619.2 139.201L1619.5 129.501H1629.5H1639.5L1639.8 134.701C1640.1 139.801 1640.2 140.001 1643.1 140.001H1646V131.001V122.001H1625.5H1605V125.501Z" fill="black"/>
<path d="M1664.6 127.401C1660.1 132.601 1660 132.801 1660 139.701C1660 146.701 1660.1 146.801 1664.6 151.901L1669.2 157.001H1677.9C1685.8 157.001 1686.9 157.201 1688.8 159.301C1691.9 162.601 1691.9 169.801 1688.7 172.801C1686.7 174.701 1685.2 175.001 1678.9 175.001C1671.7 175.001 1671.4 174.901 1668.8 171.601C1666.9 169.301 1666 166.901 1666 164.601C1666 161.201 1665.8 161.001 1662.5 161.001H1659V166.601C1659 171.801 1659.3 172.601 1663.6 177.601L1668.2 183.001H1679H1689.8L1694.4 177.901C1698.9 172.901 1699 172.701 1699 165.801C1699 159.101 1698.9 158.701 1694.8 153.901L1690.5 149.001H1681.4C1673.2 149.001 1672.1 148.801 1670.2 146.701C1667.3 143.601 1667.2 136.901 1670.1 132.901C1672 130.201 1672.6 130.001 1678.8 130.001C1684.6 130.001 1685.7 130.301 1688.2 132.701C1690.4 134.801 1691 136.301 1691 139.701C1691 143.901 1691 144.001 1694.5 144.001H1698V138.001C1698 132.501 1697.7 131.701 1693.8 127.101L1689.5 122.101H1679.3L1669.2 122.001L1664.6 127.401Z" fill="black"/>
</svg>
