<svg width="1010" height="165" viewBox="0 0 1010 165" fill="none" xmlns="http://www.w3.org/2000/svg">
<path d="M324.2 2.00011C311.4 7.80011 292 36.5001 264 90.8001C256.1 106.2 249.4 118.8 249.3 118.6C249.2 118.5 250 113.7 251.2 107.9C253.1 98.7001 253.4 93.9001 253.6 66.0001C253.8 27.8001 254.9 21.3001 262.6 14.2001C265.5 11.5001 266 10.7001 265 9.50011C260.2 3.70011 238.8 31.4001 210.5 80.0001C189.1 116.7 175.9 131.9 158 140.4C144.9 146.6 132 144.8 124.9 135.9C113.9 122 118.5 94.3001 134.5 77.1001C147.2 63.5001 161.8 61.1001 170.7 71.3001C176.4 77.8001 177.2 90.7001 172.4 97.3001C171.1 99.1001 169.3 101.5 168.4 102.7C167.6 103.9 167.1 105.4 167.5 106C169.3 108.9 180 98.0001 183.6 89.4001C186.2 83.5001 186.1 71.6001 183.3 66.5001C180.1 60.4001 176.1 57.1001 170.7 56.1001C151.1 52.5001 120.1 77.1001 111 103.4C102 129.7 109.6 156.3 127.4 161.1C129.7 161.7 135.2 162 139.7 161.8C146.9 161.4 149 160.8 156.2 157.2C176.3 147.3 191.6 129.2 212.5 90.5001C217.9 80.6001 225.3 67.3001 229 61.0001C232.7 54.7001 236.7 47.7001 237.9 45.5001C239.9 41.9001 240 41.8001 239.5 44.5001C239.1 46.1001 238.2 50.4001 237.4 54.0001C234.4 68.3001 233.7 83.1001 234.9 102.5C235.6 112.6 235.9 124.5 235.5 128.7C234.8 136.9 231.6 149.5 230 150.5C228.8 151.3 228.7 156 229.9 156C233.9 156 249.3 130.9 271.3 88.4001C286 59.9001 289.9 53.3001 300.3 39.0001C308.2 28.2001 315.2 20.5001 319.2 18.4001C320.7 17.6001 324.6 17.0001 328 17.0001C333.7 17.0001 334.1 16.8001 336 13.7001C338.7 9.30011 338.5 5.40011 335.5 2.50011C332.6 -0.499893 329.9 -0.599893 324.2 2.00011Z" fill="black"/>
<path d="M1000.2 24C992.2 27.3 983.6 38.2 971 61.3C966 70.6 957.3 85.7 951.8 94.8C940.2 114.1 934.7 124.7 935.5 126C936.7 127.9 939.2 127 942.2 123.7C943.9 122 951.4 112.8 958.9 103.5C966.4 94.1 976.9 81.8 982.3 76C1003 53.8 1014.4 31.4 1008.1 25.1C1005.8 22.8 1003.9 22.6 1000.2 24Z" fill="black"/>
<path d="M81.9 31.8C72.6 40.4 77.5 52.9 87.9 47.5C90.8 46.1 95 39 95 35.6C95 33.5 93.1 29.8 91.6 28.8C89.1 27.1 85.7 28.2 81.9 31.8Z" fill="black"/>
<path d="M67.8 64.2001C66.1 66.0001 58.6 75.1001 51.1 84.5001C43.6 93.8001 33.1 106.2 27.7 112C17.6 122.8 9.69999 133.7 3.99999 144.7C-4.20001 160.5 1.59999 170.1 14.1 161.4C21.6 156.2 27.9 147.3 40.7 123.5C44.6 116.3 52.4 102.9 58 93.5001C69.8 74.0001 75.3 63.3001 74.5 62.0001C73.3 60.1001 70.8 61.0001 67.8 64.2001Z" fill="black"/>
<path d="M470.9 79.4C455.5 83.7 439.3 97.7 429.1 115.4C418.9 133.2 417.9 147 426.2 154.7C435.2 163.1 449.4 158.9 468.9 142.2L474 137.8V142.9C474 148.6 476 154.3 479.2 157.7C480.8 159.5 482.5 160 485.9 160C492 160 498.4 156.3 508.3 147L516 139.8V146C516 152.7 517.9 157.5 520.9 158.5C524.2 159.5 530.2 158 535.2 154.8C542.4 150.3 556.4 134.9 581 104.6C584.5 100.2 587.6 97.2 587.8 97.8C588.5 99.9 581 126 577 135.2C574.1 142 571.9 145.6 568.6 148.7C561.4 155.6 556.6 153.8 557.3 144.7C557.5 141.9 557.2 141.5 554.9 141.2C550.8 140.7 547 144.4 547 149C547 158.7 561.5 162.1 575.4 155.5C589.1 149 596 137 602.1 109C604.6 98 607.2 88.7 608.6 86.1C612.1 79.8 611.8 79 606.3 79C595.9 79 595.2 79.6 581.3 97.6C574.3 106.6 567.8 114.3 566.8 114.6C565.9 114.9 562.2 119 558.7 123.8C549.9 135.7 533.1 150.7 531.5 148C529.9 145.5 533.6 136.3 540.5 125.6C543.2 121.3 559 93.3 564.9 82.2L566.1 80H557.3H548.5L546.6 83.5L544.7 86.9L542 84C536.9 78.6 530 78.7 518.3 84.5C503.3 91.9 489.8 105.3 480.8 121.7C475.7 131 465.8 140.3 455 146C448.6 149.3 446.3 150 443.9 149.5C439.4 148.5 436.7 143.7 437.4 138C438.8 126.3 461.9 90.2 471.1 85.4C477.3 82.2 481 85.8 481 95C481 101.5 482.6 102.2 486.6 97.6C490.8 92.7 493.2 87.6 492.8 84.2C492.2 78.7 481.7 76.5 470.9 79.4ZM537.1 85C539.8 86.5 539.6 92.6 536.7 99.8C533.4 107.7 518.9 130.8 512.3 138.6C503.6 148.9 495 152.7 491.6 147.8C489.1 144.2 489.7 140 494.1 130.9C502.6 113.3 518.1 93.1 527.9 86.8C532.8 83.7 534.1 83.5 537.1 85Z" fill="black"/>
<path d="M739.5 79.2C736.3 80.4 730.8 84 724.7 89.1L721 92.2L722 89.5C722.5 88.1 723 85.3 723 83.4V80H714.5C705.2 80 704 80.7 702.4 87.5C701.4 92 689.3 113.5 683.1 122.1C680 126.3 675.5 132.6 673 136C668.1 142.9 659.9 150 657 150C651.6 150 654.3 140 663.5 125.6C666.2 121.3 682 93.3 687.9 82.2L689.1 80H680.3H671.5L669.6 83.5L667.7 86.9L665 84C660 78.6 653 78.7 641.4 84.4C625.4 92.4 611.1 107 602.3 124.6C595.4 138.4 595.2 149.3 601.7 157C603.8 159.5 604.9 160 608.8 160C615 160 621.3 156.3 631.3 147L639 139.8V146C639 149.4 639.6 153.3 640.5 154.9C644.1 162 654.9 159 666.9 147.6C670.4 144.3 673.1 141.9 672.8 142.5C672.5 143 670.4 146.5 668.1 150.3C665.9 154 664 157.3 664 157.6C664 157.8 668.1 157.9 673.1 157.8L682.2 157.5L694.9 136.5C701.8 124.9 709.8 112.3 712.7 108.5C717.9 101.4 726.4 92.7 731 89.6C734.5 87.3 738.7 87.5 739.5 90C740.1 92 737.9 96.2 711.1 143.7L703.1 158H711.5H719.9L735.6 132.7C753.2 104.6 757.8 98.1 764.6 92.1C771.4 86.1 777 85.3 777 90.2C776.9 93.6 774.2 99.1 763.8 116.7C758.6 125.4 753.4 134.9 752.1 137.9C743 159.5 761.9 166.4 781.6 148.7L786.6 144.1L787.9 147.5C789.5 152.1 794 155.7 800.8 157.6C812.8 161.2 827.8 155.5 842.1 142.1C857 128.1 865.3 112.1 865.4 97.3C865.5 88 864.1 85.1 857.4 81.2C854 79.2 852.4 79 845 79.3C837.9 79.5 835.3 80.1 829.6 82.8C810.8 91.6 793.9 109.6 788 127.1C786.9 130.3 786 134 786 135.3C786 139.2 774.5 149 770 149C769.5 149 768.6 148.1 768 147.1C766.8 144.8 771 136.2 780.8 120.8C788.2 109.2 794.5 96.6 795.4 91.8C796.2 87.3 794.2 82 790.9 79.6C789.4 78.6 786.5 78 783.2 78C776.3 78 769.2 81.4 762.5 88.1C759.7 90.8 757.1 93 756.7 93C756.3 93 756 91.2 756 89C756 80.3 748.6 76 739.5 79.2ZM660.1 85C662.8 86.5 662.6 92.6 659.7 99.8C656.4 107.7 641.9 130.8 635.3 138.6C626.6 148.9 618 152.7 614.6 147.8C612.1 144.2 612.7 140 617.1 130.9C625.6 113.3 641.1 93.1 650.9 86.8C655.8 83.7 657.1 83.5 660.1 85ZM851.2 85.7C855.1 89.2 852.6 100.2 844.2 116.5C839.3 125.9 830.5 138.3 824.8 143.7C820.8 147.5 812.5 152 809.5 152C808.2 152 806.2 151.1 804.9 150.1C797.2 143.9 809.9 115.7 828.9 97C836.8 89.1 844.3 84 847.9 84C848.7 84 850.2 84.7 851.2 85.7Z" fill="black"/>
<path d="M305.5 80.4C295 83.7 283.1 91.8 273.6 102.1C258.7 118.2 252.6 135.9 257.9 147.6C260.3 152.8 263.9 155.6 270.9 157.7C282.8 161.2 297.9 155.5 312.1 142.1C327 128.1 335.3 112.1 335.4 97.3C335.5 87.9 334.1 85.1 327.4 81.3C322.9 78.7 312.3 78.3 305.5 80.4ZM321.2 85.7C325.1 89.2 322.6 100.2 314.2 116.5C309.3 125.9 300.5 138.3 294.8 143.7C290.8 147.5 282.5 152 279.5 152C278.2 152 276.2 151.1 274.9 150.1C268.7 145.1 275.9 124.6 290.2 106.3C299.1 94.9 312.7 84 317.9 84C318.7 84 320.2 84.7 321.2 85.7Z" fill="black"/>
<path d="M375.3 80.0999C372.7 80.8999 369 84.9999 356.8 100.8C339.5 123.1 323 140.3 312 147.6C304.4 152.7 302 156.3 305.5 157.6C311 159.7 325.3 145.8 354.5 110.1C360.5 102.7 365.6 97.1999 365.8 97.7999C366.5 99.8999 359 126 355 135.2C352.1 142 349.9 145.6 346.6 148.7C339.4 155.6 334.6 153.8 335.3 144.7C335.5 141.9 335.2 141.5 332.9 141.2C328.8 140.7 325 144.4 325 149C325 158.7 339.5 162.1 353.4 155.5C367.1 149 374 137 380.1 109C382.6 97.9999 385.2 88.6999 386.6 86.0999C390.1 79.6999 389.9 78.9999 383.8 79.0999C380.9 79.0999 377.1 79.5999 375.3 80.0999Z" fill="black"/>
<path d="M904.3 80.0999C901.7 80.8999 898 84.9999 885.8 100.8C868.5 123.1 852 140.3 841 147.6C833.4 152.7 831 156.3 834.5 157.6C840 159.7 854.3 145.8 883.5 110.1C889.5 102.7 894.6 97.1999 894.8 97.7999C895.4 99.7999 888.2 125.3 884.4 134.4C878.2 149.3 867.8 157.8 865 150.4C864.4 149 864.1 146.5 864.3 144.7C864.5 141.9 864.2 141.5 861.9 141.2C857.8 140.7 854 144.4 854 149C854 158.7 868.5 162.1 882.4 155.5C896.1 149 903 137 909.1 109C911.6 97.9999 914.2 88.6999 915.6 86.0999C919.1 79.6999 918.9 78.9999 912.8 79.0999C909.9 79.0999 906.1 79.5999 904.3 80.0999Z" fill="black"/>
<path d="M921.8 140.5C919.2 142 915 149.2 915 152.4C915 154.5 916.9 158.2 918.4 159.2C920.9 160.9 924.3 159.8 928.1 156.2C931.5 153.1 932.3 151.6 932.7 147.8C933.1 144.1 932.9 142.9 931.1 141.1C928.7 138.7 925.6 138.5 921.8 140.5Z" fill="black"/>
</svg>
