<svg width="1596" height="92" viewBox="0 0 1596 92" fill="none" xmlns="http://www.w3.org/2000/svg">
<path d="M573 2.40586C566.9 5.10586 565.7 6.60586 569.7 6.50586H572.5V36.5059V66.5059L570.3 67.5059C566 69.3059 568 70.0059 577.5 70.0059C582.7 70.0059 587 69.6059 587 69.1059C587 68.6059 586 68.0059 584.8 67.8059C580.4 67.2059 580 64.5059 580 31.2059C580 14.1059 579.7 0.00585833 579.3 0.00585833C578.8 0.105858 576 1.10586 573 2.40586Z" fill="black"/>
<path d="M965.2 1.20599C964.5 1.90599 964 3.80599 964 5.50599C964 10.506 967.3 12.606 970.4 9.40599C973.5 6.40599 971.9 0.00599273 968 0.00599273C967.1 0.00599273 965.9 0.505993 965.2 1.20599Z" fill="black"/>
<path d="M1071.3 2.60586C1068.4 3.90586 1066 5.40586 1066 5.90586C1066 6.50586 1066.7 6.70586 1067.5 6.40586C1070.9 5.00586 1072 7.80586 1072 18.3059C1072 27.9059 1071.9 28.2059 1070.2 26.7059C1065.1 22.0059 1055.2 24.3059 1050 31.3059C1039.8 45.1059 1043.5 66.2059 1056.8 70.5059C1060.7 71.7059 1065.6 70.2059 1068.9 66.8059L1072 63.6059V67.3059C1072 69.3059 1072.4 71.0059 1073 71.0059C1075 71.0059 1085 66.1059 1085 65.1059C1085 64.5059 1084.3 64.3059 1083.5 64.6059C1082.7 65.0059 1081.3 64.7059 1080.5 64.0059C1079.2 62.9059 1079 57.9059 1079 31.4059C1079 6.90586 1078.7 0.00585832 1077.8 0.105858C1077.1 0.105858 1074.1 1.20586 1071.3 2.60586ZM1068.6 30.1059C1071.5 33.1059 1071.5 33.2059 1071.8 46.9059L1072.1 60.7059L1069.4 62.9059C1061.4 69.2059 1052.1 60.3059 1052 46.1059C1052 37.8059 1053.7 32.5059 1057.3 29.4059C1061.2 26.1059 1064.9 26.3059 1068.6 30.1059Z" fill="black"/>
<path d="M1430 2.40599C1423.9 5.10599 1422.7 6.60599 1426.7 6.50599C1429.1 6.50599 1429.5 7.00599 1430.2 10.506C1430.6 12.706 1430.9 26.306 1430.9 40.706L1431 66.806L1435.8 68.706C1442.5 71.306 1449.9 71.006 1454.4 67.906C1458.4 65.206 1462 60.306 1463.8 55.106C1465.5 50.306 1465.3 39.606 1463.4 35.206C1461.4 30.306 1456.4 25.206 1452.9 24.506C1448.7 23.606 1443.4 25.706 1440.5 29.306L1438 32.506V16.206C1438 3.90599 1437.7 0.0059865 1436.8 0.0059865C1436.1 0.105987 1433 1.10599 1430 2.40599ZM1452 33.006C1455.7 35.606 1458 41.706 1458 48.806C1458 56.606 1456.5 61.406 1452.9 65.006C1449.3 68.506 1445.9 68.806 1441.3 66.006L1438 64.006V49.506V35.006L1441.3 33.006C1445.4 30.506 1448.5 30.506 1452 33.006Z" fill="black"/>
<path d="M1543.3 2.50586C1540.4 3.80586 1538 5.30586 1538 5.90586C1538 6.50586 1538.7 6.70586 1539.5 6.40586C1542.9 5.00586 1544 7.80586 1544 18.3059C1544 28.0059 1543.9 28.3059 1542.1 26.6059C1539 23.8059 1533.9 23.5059 1528.7 25.8059C1517 31.0059 1512.3 51.2059 1519.9 63.2059C1525.5 72.1059 1534.8 73.4059 1541.4 66.3059L1544 63.5059V67.3059C1544 69.3059 1544.4 71.0059 1545 71.0059C1547 71.0059 1557 66.1059 1557 65.1059C1557 64.5059 1556.3 64.3059 1555.5 64.6059C1554.7 65.0059 1553.3 64.7059 1552.5 64.0059C1551.2 62.9059 1551 57.9059 1551 31.4059C1551 6.90586 1550.7 0.00585832 1549.8 0.105858C1549.1 0.105858 1546.1 1.20586 1543.3 2.50586ZM1540.2 29.9059L1543.5 32.8059L1543.8 46.8059L1544.1 60.7059L1541.4 62.9059C1533.2 69.4059 1524 60.3059 1524 45.5059C1524 30.5059 1532.1 22.7059 1540.2 29.9059Z" fill="black"/>
<path d="M0.1 10.2059V17.5059L2.1 13.1059C4.8 7.10586 6.4 6.10586 13.8 6.00586H20V35.3059C20 62.5059 19.9 64.8059 18.2 66.3059C17.2 67.3059 15.4 68.0059 14.2 68.0059C13 68.0059 12 68.4059 12 69.0059C12 69.6059 16.8 70.0059 24.5 70.0059C32.2 70.0059 37 69.6059 37 69.0059C37 68.4059 36 68.0059 34.7 68.0059C33.4 68.0059 31.5 67.4059 30.4 66.6059C28.6 65.2059 28.5 63.5059 28.2 35.6059L27.9 6.00586H34.5C40.5 6.00586 41.4 6.30586 44.1 8.90586C45.8 10.6059 47 12.9059 47 14.4059C47 15.8059 47.5 17.0059 48 17.0059C49.1 17.0059 49.3 8.90586 48.4 5.20586L47.8 3.00586H23.9H0L0.1 10.2059Z" fill="black"/>
<path d="M1320 14.9059C1318.7 17.8059 1315.9 21.7059 1313.8 23.6059C1311.7 25.5059 1310 27.2059 1310 27.5059C1310 27.8059 1311.3 28.0059 1312.9 28.0059H1315.8L1316.2 47.1059L1316.5 66.2059L1319.3 68.6059C1320.8 69.9059 1322.8 71.0059 1323.6 71.0059C1326.5 71.0059 1331 67.9059 1332.5 65.0059C1334.1 61.9059 1333.1 60.9059 1331 63.5059C1329 66.0059 1325.1 65.4059 1324 62.4059C1323.4 61.0059 1323 52.7059 1323 43.9059V28.0059H1328C1331.8 28.0059 1333 27.6059 1333 26.5059C1333 25.4059 1331.8 25.0059 1328 25.0059H1323.1L1322.8 17.3059L1322.5 9.60586L1320 14.9059Z" fill="black"/>
<path d="M59.4 26.006C52 29.706 48.6 36.906 48.6 48.606C48.7 72.306 73.7 79.606 80.9 58.106C81.5 56.206 81.7 54.406 81.4 54.106C81 53.806 80.5 54.206 80.2 55.006C79.9 55.806 78.2 58.006 76.4 59.706C71.3 64.906 64.3 64.006 58.8 57.506C56.9 55.306 55.5 51.406 54.5 45.706L53.9 42.006H68.1H82.2L81.5 38.206C79.4 26.706 69.2 21.006 59.4 26.006ZM68.1 28.006C70.3 29.206 73 34.106 73 37.006C73 38.906 72.4 39.006 63.6 39.006H54.1L55.1 35.806C55.6 34.006 56 32.406 56 32.206C56 32.006 57.2 30.806 58.6 29.506C61.5 26.906 64.9 26.306 68.1 28.006Z" fill="black"/>
<path d="M121.4 26.0061C114 29.7061 110.6 36.9061 110.6 48.6061C110.7 57.2061 113.4 63.7061 118.7 67.7061C123.3 71.2061 131.4 71.6061 135.7 68.4061C138.5 66.3061 142.2 60.6061 143.5 56.2061C144.5 52.8061 142.7 53.6061 140.6 57.4061C136.6 64.9061 127.1 65.0061 120.8 57.5061C118.9 55.3061 117.5 51.4061 116.5 45.7061L115.9 42.0061H130.1H144.2L143.5 38.2061C141.4 26.7061 131.2 21.0061 121.4 26.0061ZM130.1 28.0061C132.3 29.2061 135 34.1061 135 37.0061C135 38.9061 134.4 39.0061 125.6 39.0061H116.1L117.1 35.8061C117.6 34.0061 118 32.4061 118 32.2061C118 32.0061 119.2 30.8061 120.6 29.5061C123.5 26.9061 126.9 26.3061 130.1 28.0061Z" fill="black"/>
<path d="M157.4 25.4061C152.8 27.4061 151 30.6061 151 36.6061C151 43.1061 152.8 45.5061 162 50.9061C165.8 53.2061 169.4 55.9061 170 57.0061C172.7 62.0061 169.5 68.0061 164.3 68.0061C160 68.0061 155.1 64.4061 153 59.7061L151 55.5061V63.5061C151 68.2061 151.4 71.0061 151.9 70.2061C152.6 69.1061 153.8 69.1061 158.8 70.0061C169.6 72.2061 177 67.4061 177 58.3061C177 52.1061 174.7 48.7061 167.7 44.8061C156.3 38.4061 153.4 34.3061 157.1 29.7061C158.6 27.7061 160.1 27.0061 162.5 27.0061C166.8 27.0061 169.9 29.6061 172.1 35.1061L173.9 39.5061V31.6061C174 24.7061 173.8 23.9061 172.5 25.0061C171.3 26.0061 170.1 26.0061 167.1 25.1061C162.3 23.7061 161.3 23.7061 157.4 25.4061Z" fill="black"/>
<path d="M186 26.5059C180.6 28.8059 177.9 31.4059 182.1 30.3059C186.6 29.1059 187 31.4059 187 58.4059C187 72.2059 186.7 84.5059 186.4 85.8059C186 87.3059 184.7 88.3059 182.9 88.7059C176.9 89.9059 180.4 91.0059 190 91.0059C196 91.0059 200 90.6059 200 90.0059C200 89.4059 199.2 89.0059 198.2 89.0059C194.8 89.0059 194 86.9059 194 77.3059C194 72.2059 194.2 68.0059 194.3 68.0059C194.5 68.0059 196.1 68.7059 197.9 69.6059C200.3 70.8059 202.4 71.0059 205.8 70.5059C215 69.1059 221 59.2059 221 45.6059C221 37.4059 217.8 29.3059 213.7 26.5059C207.5 22.4059 200.2 24.4059 196 31.2059L194 34.5059V29.2059C194 23.2059 193.9 23.2059 186 26.5059ZM207.1 32.0059C211.1 34.2059 213.4 40.8059 213.4 50.0059C213.4 58.7059 212.6 61.4059 208.7 65.7059C205.7 69.1059 200.6 68.8059 196.9 65.1059L194 62.2059V49.2059V36.2059L197.1 33.6059C200.3 30.9059 203.8 30.3059 207.1 32.0059Z" fill="black"/>
<path d="M239 26.2061C232.3 29.8061 228.8 37.2061 228.7 47.8061C228.6 57.1061 231.2 63.5061 236.7 67.7061C241.3 71.2061 249.4 71.6061 253.7 68.4061C256.5 66.3061 260.2 60.6061 261.5 56.2061C262.5 52.8061 260.7 53.6061 258.6 57.4061C255 64.1061 247.2 65.0061 241.1 59.4061C237.1 55.9061 235.8 53.0061 234.5 45.7061L233.9 42.0061H248.1H262.2L261.5 38.2061C259.4 26.4061 249 20.9061 239 26.2061ZM248.1 28.0061C250.3 29.2061 253 34.1061 253 37.0061C253 38.9061 252.4 39.0061 243.4 39.0061C234 39.0061 233.9 39.0061 234.6 36.7061C237.2 28.2061 242.3 24.9061 248.1 28.0061Z" fill="black"/>
<path d="M271 26.4059C268 27.7059 265.4 29.4059 265.2 30.0059C264.9 30.8059 265.2 31.0059 265.9 30.6059C266.5 30.2059 267.9 30.2059 269 30.5059C270.9 31.1059 271 32.0059 271 48.4059C271 66.2059 270.6 68.0059 266.8 68.0059C265.8 68.0059 265 68.4059 265 69.0059C265 69.6059 269 70.0059 275 70.0059C284.6 70.0059 287.9 68.9059 282.5 67.6059C278.8 66.7059 278 63.4059 278 50.2059C278 39.3059 278.2 38.2059 280.5 34.7059C281.9 32.7059 283.4 31.0059 283.9 31.0059C284.4 31.0059 285.9 31.9059 287.4 33.1059C290.6 35.6059 292.7 35.0059 293.6 31.5059C294.4 28.3059 291.7 24.0059 288.9 24.0059C286.8 24.0059 282.8 27.5059 279.8 32.0059L278.1 34.5059V29.2059C278 26.4059 277.7 24.0059 277.3 24.0059C276.8 24.1059 274 25.1059 271 26.4059Z" fill="black"/>
<path d="M306.3 25.1062C301.9 26.4062 297.8 31.5062 298.2 35.3062C298.9 42.1062 305 40.9062 305 34.0062C305 29.7062 307.4 27.0062 311.3 27.0062C315.6 27.0062 318 30.2062 318 35.7062L317.9 40.5062L310.4 43.9062C298.5 49.4062 294 56.3062 297.3 64.3062C300.5 71.8062 306.7 72.8062 314.1 66.9062C317.6 64.1062 318.1 64.0062 318.6 65.7062C320.5 71.7062 323.4 72.4062 328.4 68.0062C332.6 64.3062 333.1 62.5062 329.5 64.2062C328.1 64.8062 326.7 65.0062 326.2 64.6062C325.8 64.2062 325.3 56.4062 325.1 47.2062C324.7 28.5062 324.2 26.7062 318.1 25.0062C313.8 23.8062 310.7 23.8062 306.3 25.1062ZM318 52.0062V61.0062L314.8 63.0062C313 64.1062 310.6 65.0062 309.4 65.0062C303.7 65.0062 301.4 55.4062 306 50.5062C307.9 48.4062 315.9 43.4062 317.8 43.0062C317.9 43.0062 318 47.1062 318 52.0062Z" fill="black"/>
<path d="M340 26.4059C334.3 28.9059 332.2 31.1059 336.3 30.3059C337.7 30.0059 339 30.2059 339.4 30.8059C339.7 31.3059 340.2 38.4059 340.6 46.6059C341.2 62.6059 340.5 66.8059 337 67.7059C332.3 69.0059 335.7 70.0059 344.5 70.0059C349.7 70.0059 354 69.6059 354 69.1059C354 68.6059 353 68.0059 351.8 67.8059C348.2 67.3059 347 63.5059 347.1 53.0059C347.2 38.0059 347.9 35.0059 352 32.2059C357 28.9059 361 29.5059 363.2 34.0059C364.7 36.8059 365 40.2059 365 51.2059C365 65.7059 364.3 68.0059 359.9 68.0059C358.9 68.0059 358 68.4059 358 69.0059C358 69.6059 362 70.0059 368 70.0059C374 70.0059 378 69.6059 378 69.0059C378 68.4059 377.2 68.0059 376.1 68.0059C372.4 68.0059 371.9 65.9059 372.2 49.9059L372.5 34.6059L375.9 32.3059C380.1 29.4059 384.1 29.4059 386.6 32.1059C388.3 33.9059 388.5 36.2059 388.8 49.4059C389.1 62.6059 388.9 64.9059 387.5 66.3059C386.6 67.3059 385 68.0059 383.9 68.0059C382.9 68.0059 382 68.4059 382 69.0059C382 69.6059 386 70.0059 392 70.0059C398 70.0059 402 69.6059 402 69.0059C402 68.4059 401.2 68.0059 400.1 68.0059C399.1 68.0059 397.8 67.4059 397.2 66.7059C396.6 66.0059 396 58.3059 395.8 49.0059C395.4 30.6059 394.5 27.3059 389.1 25.0059C384.8 23.3059 380.4 24.6059 375.5 29.1059L371.3 33.0059L370 30.0059C367 22.8059 358.6 22.4059 351.9 29.1059L348 33.0059V28.5059C348 23.2059 347.6 23.2059 340 26.4059Z" fill="black"/>
<path d="M417.3 25.9057C409.3 29.6057 404 40.7057 405.4 51.2057C408.3 72.9057 431 77.9057 440.5 59.0057C441.5 57.1057 442.5 52.3057 442.8 48.4057C443.2 42.7057 442.8 40.4057 441.1 36.5057C438.3 30.2057 436.5 28.2057 431.5 25.9057C426.4 23.5057 422.6 23.6057 417.3 25.9057ZM427.8 28.6057C432 31.5057 434.3 37.8057 434.8 47.2057C435.4 58.2057 434.6 62.1057 431.3 65.4057C423.1 73.6057 413 61.8057 413 44.1057C413.1 30.7057 420.2 23.2057 427.8 28.6057Z" fill="black"/>
<path d="M457.4 25.4058C452.9 27.4058 451 30.6058 451 36.5058C451 43.0058 452.3 44.7058 461.5 50.5058C465.6 53.0058 469.5 56.0058 470 57.0058C472.7 62.0058 469.5 68.0058 464.3 68.0058C460 68.0058 455.1 64.4058 453 59.7058L451 55.5058V63.5058C451 68.2058 451.4 71.0058 451.9 70.2058C452.6 69.1058 453.8 69.1058 458.8 70.0058C469.6 72.2058 476 68.2058 476.8 58.7058C477.2 53.8058 476.9 53.0058 474.1 49.8058C472.5 47.9058 468.4 44.9058 465.2 43.2058C455.9 38.2058 453.5 34.2058 457.1 29.7058C461.4 24.2058 469.5 27.2058 472.4 35.5058L473.9 39.5058V31.6058C474 24.7058 473.8 23.9058 472.5 25.0058C471.3 26.0058 470.1 26.0058 467.1 25.1058C462.3 23.7058 461.3 23.7058 457.4 25.4058Z" fill="black"/>
<path d="M515.3 25.1062C510.9 26.4062 506.8 31.5062 507.2 35.3062C507.9 42.1062 514 40.9062 514 34.0062C514 29.7062 516.4 27.0062 520.3 27.0062C524.6 27.0062 527 30.2062 527 35.7062L526.9 40.5062L519.4 43.9062C507.5 49.4062 503 56.3062 506.3 64.3062C509.5 71.7062 515.7 72.8062 523 67.0062C527.6 63.4062 528 63.3062 528 66.3062C528 71.7062 532.3 72.4062 537.5 67.9062C541.6 64.3062 542.1 62.6062 538.5 64.2062C537.1 64.8062 535.7 65.0062 535.2 64.6062C534.8 64.2062 534.4 56.4062 534.2 47.3062C533.8 28.6062 533.2 26.7062 527.1 25.0062C522.8 23.8062 519.7 23.8062 515.3 25.1062ZM527 52.0062V61.0062L523.8 63.0062C522 64.1062 519.6 65.0062 518.4 65.0062C512.7 65.0062 510.4 55.4062 515 50.5062C516.9 48.4062 524.9 43.4062 526.8 43.0062C526.9 43.0062 527 47.1062 527 52.0062Z" fill="black"/>
<path d="M601.3 25.0062C596.9 26.4062 592.8 31.5062 593.2 35.3062C593.9 42.1062 600 40.9062 600 34.0062C600 29.7062 602.4 27.0062 606.3 27.0062C610.6 27.0062 613 30.2062 613 35.7062L612.9 40.5062L605.4 43.9062C593.5 49.4062 589 56.3062 592.3 64.3062C595.5 71.8062 601.7 72.8062 609.1 66.9062C612.6 64.1062 613.1 64.0062 613.6 65.7062C615.5 71.7062 618.4 72.4062 623.4 68.0062C627.6 64.3062 628.1 62.5062 624.5 64.2062C623.1 64.8062 621.7 65.0062 621.2 64.6062C620.8 64.2062 620.3 56.3062 620 47.2062C619.7 38.0062 619.1 29.8062 618.7 29.0062C616.9 25.2062 607.7 23.1062 601.3 25.0062ZM613 52.0062V61.0062L609.8 63.0062C605.3 65.7062 602.4 65.5062 600.3 62.4062C597.8 58.5062 598.1 53.6062 601.1 50.4062C602.9 48.4062 610.9 43.4062 612.8 43.0062C612.9 43.0062 613 47.1062 613 52.0062Z" fill="black"/>
<path d="M666.6 25.0062C656.6 28.0062 650.6 43.3062 654.4 56.3062C658.3 69.7062 670 74.9062 679.1 67.3062C682.6 64.3062 686 57.8062 685.9 54.0062C685.9 51.9062 685.6 52.2062 683.8 55.8062C680.6 62.5062 673.1 65.1062 667.4 61.3062C661.8 57.7062 658.3 43.8062 660.9 35.7062C662.6 30.6062 666.6 27.0062 670.5 27.0062C674.4 27.0062 675.4 28.1062 676.9 33.6062C677.5 35.9062 678.8 38.1062 679.7 38.4062C685.2 40.6062 687.2 33.4062 682.3 28.8062C677.6 24.3062 672.8 23.2062 666.6 25.0062Z" fill="black"/>
<path d="M703 26.2061C699.5 28.1061 697.8 29.9061 695.6 34.3061C693.2 39.1061 692.7 41.1061 692.7 47.9061C692.7 57.3061 695.2 63.5061 700.7 67.7061C705.3 71.2061 713.4 71.6061 717.7 68.4061C720.5 66.3061 724.2 60.6061 725.5 56.2061C726.5 52.8061 724.7 53.6061 722.6 57.4061C718.7 64.6061 709 65.0061 703.2 58.0061C701.2 55.6061 699.3 50.9061 698.5 46.2061L697.8 42.0061H712H726.2L725.5 38.2061C723.4 26.4061 713 20.9061 703 26.2061ZM712.1 28.0061C714.3 29.2061 717 34.1061 717 37.0061C717 38.9061 716.4 39.0061 707.4 39.0061C698 39.0061 697.9 39.0061 698.6 36.7061C701.2 28.2061 706.3 24.9061 712.1 28.0061Z" fill="black"/>
<path d="M735 26.4059C732 27.7059 729.4 29.4059 729.2 30.0059C728.9 30.8059 729.2 31.0059 729.9 30.6059C730.5 30.2059 731.9 30.2059 733 30.5059C734.9 31.1059 735 32.0059 735 48.4059C735 66.2059 734.6 68.0059 730.8 68.0059C729.8 68.0059 729 68.4059 729 69.0059C729 69.6059 733 70.0059 739 70.0059C744.5 70.0059 749 69.6059 749 69.1059C749 68.6059 748 68.0059 746.8 67.8059C743.1 67.3059 742 63.5059 742 50.5059C742 39.3059 742.2 38.2059 744.5 34.7059C745.9 32.7059 747.4 31.0059 747.9 31.0059C748.4 31.0059 749.9 31.9059 751.4 33.1059C754.6 35.6059 756.7 35.0059 757.6 31.5059C758.4 28.3059 755.7 24.0059 752.9 24.0059C750.8 24.0059 746.8 27.5059 743.8 32.0059L742.1 34.5059V29.2059C742 26.4059 741.7 24.0059 741.3 24.0059C740.8 24.1059 738 25.1059 735 26.4059Z" fill="black"/>
<path d="M772 26.2061C768.5 28.1061 766.8 29.9061 764.6 34.3061C762.2 39.1061 761.7 41.1061 761.7 47.9061C761.7 57.3061 764.2 63.5061 769.7 67.7061C774.3 71.2061 782.4 71.6061 786.7 68.4061C789.5 66.3061 793.2 60.6061 794.5 56.2061C795.5 52.8061 793.7 53.6061 791.6 57.4061C787.7 64.6061 778 65.0061 772.2 58.0061C770.2 55.6061 768.3 50.9061 767.5 46.2061L766.8 42.0061H781H795.2L794.5 38.2061C792.4 26.4061 782 20.9061 772 26.2061ZM781.1 28.0061C783.3 29.2061 786 34.1061 786 37.0061C786 38.9061 785.4 39.0061 776.4 39.0061C767 39.0061 766.9 39.0061 767.6 36.7061C770.2 28.2061 775.3 24.9061 781.1 28.0061Z" fill="black"/>
<path d="M804 26.5059C797.9 29.1059 796.6 30.6059 800.7 30.5059C804.3 30.5059 804.7 32.6059 804.9 49.2059C805 62.8059 804.1 66.9059 801 67.7059C796.3 69.0059 799.7 70.0059 808.5 70.0059C813.7 70.0059 818 69.6059 818 69.1059C818 68.6059 817 68.0059 815.8 67.8059C812 67.3059 811 63.6059 811 49.4059C811 37.1059 811.1 36.2059 813.3 34.3059C818.5 29.5059 823.5 28.7059 826.6 32.1059C828.3 33.9059 828.5 36.2059 828.8 49.4059C829.1 62.6059 828.9 64.9059 827.5 66.3059C826.6 67.3059 825 68.0059 823.9 68.0059C822.9 68.0059 822 68.4059 822 69.0059C822 69.6059 826 70.0059 832 70.0059C838 70.0059 842 69.6059 842 69.0059C842 68.4059 841.2 68.0059 840.1 68.0059C836.7 68.0059 836.1 65.8059 835.9 50.8059C835.7 34.9059 835.9 34.1059 841.1 31.4059C845 29.4059 848.4 29.7059 850.6 32.1059C852.3 33.9059 852.5 36.2059 852.8 49.4059C853.1 62.6059 852.9 64.9059 851.5 66.3059C850.6 67.3059 849 68.0059 847.9 68.0059C846.9 68.0059 846 68.4059 846 69.0059C846 69.6059 850 70.0059 856 70.0059C862 70.0059 866 69.6059 866 69.0059C866 68.4059 865.2 68.0059 864.1 68.0059C863.1 68.0059 861.8 67.4059 861.2 66.7059C860.7 66.1059 860 58.2059 859.8 49.0059C859.4 30.6059 858.4 27.3059 853.1 25.0059C848.8 23.3059 844.4 24.6059 839.5 29.1059L835.3 33.0059L834 30.0059C831 22.8059 822.5 22.4059 816.1 29.1059C814 31.2059 812 33.0059 811.6 33.0059C811.3 33.0059 811 31.0059 811 28.5059C811 26.0059 810.7 24.0059 810.3 24.1059C809.8 24.1059 807 25.2059 804 26.5059Z" fill="black"/>
<path d="M882 25.6061C877.2 27.7061 875.2 29.7061 872.2 35.5061C868.7 42.2061 868.5 53.4061 871.7 59.6061C879.6 74.7061 896.8 74.4061 904.5 59.0061C905.5 57.1061 906.5 52.3061 906.8 48.4061C907.2 42.7061 906.8 40.4061 905.1 36.5061C902.3 30.2061 900.5 28.2061 895.5 25.9061C890.7 23.7061 886.7 23.6061 882 25.6061ZM891.8 28.6061C896 31.5061 898.3 37.8061 898.8 47.2061C899.4 58.2061 898.6 62.1061 895.3 65.4061C887.3 73.5061 877 61.9061 877 44.7061C877 41.4061 877.5 37.0061 878.2 34.8061C880.2 27.9061 886.7 25.0061 891.8 28.6061Z" fill="black"/>
<path d="M917 26.4059C911.6 28.8059 908.9 31.4059 913 30.3059C914.3 29.9059 915.6 30.3059 916.1 31.1059C916.6 31.9059 917 39.9059 917 49.0059C917 66.2059 916.6 68.0059 912.8 68.0059C911.8 68.0059 911 68.4059 911 69.0059C911 69.6059 915 70.0059 921 70.0059C927 70.0059 931 69.6059 931 69.0059C931 68.4059 930.1 68.0059 929.1 68.0059C924.7 68.0059 924 65.7059 924 50.5059V36.2059L927.5 33.1059C931 30.1059 935.1 29.1059 937.7 30.8059C940.1 32.3059 941 37.5059 941 50.6059C941 64.7059 940.2 68.0059 937 68.0059C935.9 68.0059 935 68.4059 935 69.0059C935 69.6059 938.8 70.0059 944.5 70.0059C950.2 70.0059 954 69.6059 954 69.0059C954 68.4059 953.2 68.0059 952.2 68.0059C948.4 68.0059 948 66.1059 948 50.0059C948 35.8059 947.8 34.0059 945.8 30.0059C941.9 22.4059 936 22.2059 928.4 29.2059L924 33.3059V28.6059C924 26.1059 923.7 24.0059 923.3 24.0059C922.8 24.1059 920 25.1059 917 26.4059Z" fill="black"/>
<path d="M964.1 26.3059C958 28.8059 956.6 30.6059 960.7 30.5059H963.5L963.8 47.9059C964.1 65.9059 963.7 68.0059 959.9 68.0059C958.8 68.0059 958 68.4059 958 69.0059C958 69.6059 961.8 70.0059 967.5 70.0059C976.3 70.0059 979.7 69.0059 975 67.7059C971.7 66.8059 971 62.6059 971 42.9059C971 32.5059 970.7 24.0059 970.3 24.0059C969.8 24.1059 967.1 25.1059 964.1 26.3059Z" fill="black"/>
<path d="M992.3 25.0062C987.9 26.4062 983.8 31.5062 984.2 35.3062C984.9 42.1062 991 40.9062 991 34.0062C991 29.7062 993.4 27.0062 997.3 27.0062C1001.6 27.0062 1004 30.2062 1004 35.7062L1003.9 40.5062L996.4 43.9062C984.5 49.4062 980 56.3062 983.3 64.3062C986.5 71.7062 992.7 72.8062 1000 67.0062C1004.6 63.4062 1005 63.3062 1005 66.3062C1005 71.7062 1009.3 72.4062 1014.5 67.9062C1018.6 64.3062 1019.1 62.6062 1015.5 64.2062C1014.1 64.8062 1012.7 65.0062 1012.2 64.6062C1011.8 64.2062 1011.3 56.3062 1011 47.2062C1010.7 38.0062 1010.1 29.8062 1009.7 29.0062C1007.9 25.2062 998.7 23.1062 992.3 25.0062ZM1004 52.0062V61.0062L1000.8 63.0062C996 65.9062 993.3 65.6062 991 61.7062C987.4 55.9062 990.3 50.0062 999 45.4062C1001.5 44.2062 1003.6 43.1062 1003.8 43.0062C1003.9 43.0062 1004 47.1062 1004 52.0062Z" fill="black"/>
<path d="M1099.4 26.0061C1092 29.7061 1088.6 36.9061 1088.6 48.6061C1088.7 57.2061 1091.4 63.7061 1096.7 67.7061C1101.3 71.2061 1109.4 71.6061 1113.7 68.4061C1116.5 66.3061 1120.2 60.6061 1121.5 56.2061C1122.5 52.8061 1120.7 53.6061 1118.6 57.4061C1115 64.1061 1107.2 65.0061 1101.1 59.4061C1097.1 55.9061 1095.8 53.0061 1094.5 45.7061L1093.9 42.0061H1108.1H1122.2L1121.5 38.2061C1119.4 26.7061 1109.2 21.0061 1099.4 26.0061ZM1108.1 28.0061C1110.3 29.2061 1113 34.1061 1113 37.0061C1113 38.9061 1112.4 39.0061 1103.6 39.0061H1094.1L1095.1 35.8061C1095.6 34.0061 1096 32.4061 1096 32.2061C1096 32.0061 1097.2 30.8061 1098.6 29.5061C1101.5 26.9061 1104.9 26.3061 1108.1 28.0061Z" fill="black"/>
<path d="M1153.1 26.3059C1147.7 28.6059 1144.8 31.4059 1149 30.3059C1150.3 29.9059 1151.6 30.3059 1152.1 31.1059C1152.6 31.9059 1153 39.9059 1153 49.0059C1153 66.2059 1152.6 68.0059 1148.8 68.0059C1147.8 68.0059 1147 68.4059 1147 69.0059C1147 69.6059 1151 70.0059 1157 70.0059C1163 70.0059 1167 69.6059 1167 69.0059C1167 68.4059 1166.1 68.0059 1165.1 68.0059C1160.7 68.0059 1160 65.8059 1160 50.5059V36.1059L1163.7 33.1059C1167.3 30.1059 1171.2 29.2059 1173.7 30.8059C1176.1 32.3059 1177 37.5059 1177 50.6059C1177 64.7059 1176.2 68.0059 1173 68.0059C1171.9 68.0059 1171 68.4059 1171 69.0059C1171 69.6059 1174.8 70.0059 1180.5 70.0059C1186.2 70.0059 1190 69.6059 1190 69.0059C1190 68.4059 1189.2 68.0059 1188.2 68.0059C1184.5 68.0059 1184 66.1059 1184 50.4059C1184 30.7059 1182.4 25.7059 1175.5 24.4059C1171.6 23.7059 1168.8 25.0059 1163.8 29.8059L1160 33.4059V28.7059C1160 26.1059 1159.7 24.0059 1159.3 24.0059C1158.8 24.1059 1156.1 25.1059 1153.1 26.3059Z" fill="black"/>
<path d="M1249.4 26.0061C1242 29.7061 1238.6 36.9061 1238.6 48.6061C1238.7 63.8061 1248.9 73.8061 1260.4 70.0061C1264 68.9061 1268.6 64.3061 1270 60.6061C1272.7 53.3061 1271.9 51.4061 1268.6 57.4061C1264.6 64.9061 1255.1 65.0061 1248.8 57.5061C1246.9 55.3061 1245.5 51.4061 1244.5 45.7061L1243.9 42.0061H1258.1H1272.2L1271.5 38.2061C1269.4 26.7061 1259.2 21.0061 1249.4 26.0061ZM1258.1 28.0061C1260.3 29.2061 1263 34.1061 1263 37.0061C1263 38.9061 1262.4 39.0061 1253.6 39.0061H1244.1L1245.1 35.8061C1245.6 34.0061 1246 32.4061 1246 32.2061C1246 32.0061 1247.2 30.8061 1248.6 29.5061C1251.5 26.9061 1254.9 26.3061 1258.1 28.0061Z" fill="black"/>
<path d="M1283.9 26.306C1279.5 29.206 1277.6 34.706 1279 39.906C1280.1 44.206 1282.4 46.506 1289.5 50.506C1296.4 54.406 1299 57.306 1299 61.006C1299 70.706 1285.5 69.806 1281 59.706L1279 55.506V63.506C1279 68.206 1279.4 71.006 1279.9 70.206C1280.6 69.106 1281.8 69.106 1286.8 70.006C1297.7 72.206 1305 67.406 1305 58.106C1305 51.306 1302.5 48.006 1293.5 43.406C1286.4 39.706 1284 37.206 1284 33.506C1284 29.706 1286.6 27.006 1290.4 27.006C1294.8 27.006 1297 28.806 1299.6 34.306L1302 39.506V31.606C1302 24.906 1301.8 23.906 1300.6 24.906C1299.5 25.806 1298.1 25.906 1295.3 25.106C1289.7 23.506 1287.7 23.706 1283.9 26.306Z" fill="black"/>
<path d="M1340.1 26.3059C1337.1 27.6059 1334.4 29.2059 1334.2 29.9059C1333.9 30.7059 1334.2 31.0059 1334.9 30.6059C1335.5 30.2059 1336.9 30.2059 1338 30.5059C1339.9 31.1059 1340 32.0059 1340 48.4059C1340 66.2059 1339.6 68.0059 1335.8 68.0059C1334.8 68.0059 1334 68.4059 1334 69.0059C1334 69.6059 1338 70.0059 1344 70.0059C1353.6 70.0059 1356.9 68.9059 1351.5 67.6059C1347.9 66.7059 1347 63.4059 1347 50.9059C1347 41.9059 1347.4 39.2059 1349 36.0059C1351.6 30.8059 1352.7 30.4059 1356.2 33.0059C1359.6 35.5059 1361.7 35.1059 1362.6 31.5059C1363.4 28.3059 1360.7 24.0059 1357.9 24.0059C1355.8 24.0059 1350.7 28.6059 1348.3 32.5059C1347.3 34.2059 1347.1 33.8059 1347.1 29.2059C1347 26.4059 1346.7 24.0059 1346.3 24.0059C1345.8 24.1059 1343.1 25.1059 1340.1 26.3059Z" fill="black"/>
<path d="M1375.4 25.4062C1371.1 27.3062 1367.8 31.7062 1368.2 35.3062C1368.9 42.1062 1375 40.9062 1375 34.0062C1375 29.7062 1377.4 27.0062 1381.3 27.0062C1385.5 27.0062 1388 30.2062 1388 35.5062V40.0062L1380.3 43.9062C1376 46.0062 1371.5 48.9062 1370.3 50.1062C1365 55.9062 1365 64.1062 1370.3 68.6062C1374.2 71.9062 1378.4 71.4062 1384 67.0062C1387.6 64.1062 1388.1 64.0062 1388.6 65.7062C1390.5 71.7062 1393.4 72.4062 1398.4 68.0062C1402.6 64.3062 1403.1 62.5062 1399.5 64.2062C1398.1 64.8062 1396.7 65.0062 1396.2 64.6062C1395.8 64.2062 1395.3 56.4062 1395.2 47.2062C1394.8 28.6062 1394.2 26.7062 1388.1 25.0062C1383.3 23.7062 1379.1 23.8062 1375.4 25.4062ZM1388 52.0062V61.0062L1384.8 63.0062C1380.3 65.7062 1377.4 65.5062 1375.3 62.4062C1372.9 58.7062 1373.3 53.4062 1376.2 50.3062C1377.9 48.4062 1385.9 43.4062 1387.8 43.0062C1387.9 43.0062 1388 47.1062 1388 52.0062Z" fill="black"/>
<path d="M1483.4 25.906C1475.6 29.406 1470.2 40.306 1471.3 50.406C1471.9 56.706 1474 61.206 1478.3 65.706C1486.6 74.506 1500.1 71.606 1506.2 59.606C1509.4 53.306 1509.8 42.706 1507.1 36.506C1504.3 30.206 1502.5 28.206 1497.5 25.906C1492.4 23.506 1488.6 23.606 1483.4 25.906ZM1493.8 28.606C1495 29.406 1497 32.006 1498.3 34.306C1500.2 38.006 1500.5 40.006 1500.5 50.206C1500.5 61.706 1500.5 61.906 1497.6 64.906C1489.6 73.306 1480.4 64.206 1479.2 46.806C1478.4 34.706 1482.2 27.006 1489 27.006C1490.4 27.006 1492.6 27.706 1493.8 28.606Z" fill="black"/>
<path d="M1569.4 25.4062C1565.1 27.3062 1561.8 31.7062 1562.2 35.3062C1562.9 42.1062 1569 40.9062 1569 34.0062C1569 29.7062 1571.4 27.0062 1575.3 27.0062C1579.6 27.0062 1582 30.2062 1582 35.7062L1581.9 40.5062L1574.4 43.9062C1562.5 49.4062 1558 56.3062 1561.3 64.3062C1564.5 71.8062 1570.7 72.8062 1578.1 66.9062C1581.6 64.1062 1582.1 64.0062 1582.6 65.7062C1584.5 71.7062 1587.4 72.4062 1592.4 68.0062C1596.6 64.3062 1597.1 62.5062 1593.5 64.2062C1592.1 64.8062 1590.7 65.0062 1590.2 64.6062C1589.8 64.2062 1589.3 56.3062 1589 47.2062C1588.7 36.5062 1588 29.7062 1587.2 28.3062C1585 24.4062 1575.3 22.8062 1569.4 25.4062ZM1582 52.0062V61.0062L1578.8 63.0062C1577 64.1062 1574.6 65.0062 1573.4 65.0062C1567.7 65.0062 1565.4 55.4062 1570 50.5062C1571.9 48.4062 1579.9 43.4062 1581.8 43.0062C1581.9 43.0062 1582 47.1062 1582 52.0062Z" fill="black"/>
<path d="M1191 26.0058C1191 26.5058 1191.9 27.0058 1192.9 27.0058C1197.4 27.0058 1198 29.2058 1198 45.8058C1198 58.7058 1198.3 62.1058 1199.8 65.0058C1203.4 72.2058 1210.3 72.5058 1217.6 65.8058L1222 61.7058V66.4058C1222 71.7058 1221.9 71.7058 1230.6 67.9058C1235.6 65.6058 1236.2 64.4058 1232.3 64.5058C1229.7 64.5058 1229.5 64.2058 1228.9 59.1058C1228.5 56.1058 1228.3 47.2058 1228.4 39.3058L1228.7 25.0058H1221.8C1215.4 25.0058 1212.3 26.5058 1217.2 27.2058C1221 27.7058 1222 31.4058 1222 45.7058V58.9058L1218.3 61.9058C1213.9 65.5058 1209.9 65.9058 1207 63.0058C1205.1 61.1058 1205 59.7058 1205 43.0058V25.0058H1198C1194 25.0058 1191 25.4058 1191 26.0058Z" fill="black"/>
</svg>
