<svg width="1211" height="419" viewBox="0 0 1211 419" fill="none" xmlns="http://www.w3.org/2000/svg">
<path d="M137 4.5V9H141H145L144.8 43.7L144.5 78.5L140.8 78.8C137 79.1 137 79.2 137 83.6V88H149.5H162V83.5V79H158H154V66V53H165.9H177.9L183.4 46.4L189 39.9V26.2V12.5L184 6.2L178.9 -1.3113e-06H158H137V4.5ZM177.4 13.1C179.8 15.9 180 16.9 180 26C180 35.7 179.9 36 176.9 39.5L173.8 43H163.9H154V26.5V10H164.4C174.8 10 174.8 10 177.4 13.1Z" fill="black"/>
<path d="M213 16C213 20.3 213.3 21 215 21C216.1 21 217 21.3 217 21.7C217 22.4 214.1 32.2 202.4 70.7C200.1 78.1 199.6 79 197.4 79C195.2 79 195 79.4 195 83.5V88H205.5H216V83.5C216 79.2 215.9 79 213 79C209.5 79 209.4 78.5 211.8 70.5L213.6 64.5L226.6 64.2L239.6 63.9L241.8 70.8C243 74.6 244 77.9 244 78.3C244 78.7 242.4 79 240.5 79C237 79 237 79 237 83.5V88H248H259V83.6C259 79.5 258.8 79.1 256.3 78.8C253.6 78.5 253.3 77.9 244.9 50C236.6 22.5 236.4 21.5 238.4 21C240.1 20.5 240.5 19.6 240.5 16V11.5L226.8 11.2L213 10.9V16ZM232.1 38.3C234.6 46.7 236.5 53.8 236.3 54.2C236.1 54.7 231.6 55 226.4 55C221.2 55 217 54.7 217 54.2C217 52.3 226.4 22.1 226.9 22.5C227.2 22.8 229.5 29.9 232.1 38.3Z" fill="black"/>
<path d="M269 16V21H273H277L276.8 49.7L276.5 78.5L272.8 78.8C269 79.1 269 79.2 269 83.6V88H290.9H312.9L318.4 81.4L324 74.9V49.7V24.4L318.4 17.7L312.8 11H290.9H269V16ZM311.4 24.1L314 27.2V49.9V72.6L311.2 75.3C308.5 77.9 308 78 297.2 78H286V49.5V21H297.4H308.8L311.4 24.1Z" fill="black"/>
<path d="M339 16V21H343H347L346.8 49.7L346.5 78.5L342.8 78.8C339 79.1 339 79.2 339 83.6V88H350.5H362V83.5C362 79.2 361.9 79 359 79H356V70V60.9L363.7 61.2L371.4 61.5L375.9 69.9C378.8 75.4 379.9 78.5 379.2 78.8C378.5 79 378 81.1 378 83.6V88H387H396V83.5C396 79.3 395.8 79 393.3 79C390.8 79 390 78 385.6 69.6L380.6 60.2L385.8 54.2L391 48.2V36.1V24L385.7 17.8L380.4 11.5L359.7 11.2L339 11V16ZM378.7 24.2C381.9 27.3 382 27.6 382 35.9C382 44.1 381.9 44.5 378.8 47.7C375.6 51 375.6 51 365.8 51H356V36V21H365.7C375.3 21 375.5 21 378.7 24.2Z" fill="black"/>
<path d="M411 16V21H415H419L418.8 49.7L418.5 78.5L414.8 78.8C411 79.1 411 79.2 411 83.6V88H435.5H460V76.5V65H456H452V72V79H440H428V66.5V54H440H452V49.5V45H440H428V33V21H440H452V27.5V34H456H460V22.5V11H435.5H411V16Z" fill="black"/>
<path d="M481.6 17.9L476 24.7V33.5V42.2L481.2 48.6L486.3 55H496.9C506.9 55 507.5 55.1 510.2 57.7C512.6 60 513 61.1 513 66.1C513 70.8 512.5 72.4 510.4 74.9C507.9 77.9 507.6 78 499 78H490.2L487.1 74.5C484.4 71.4 484 70.2 484 65.5V60H479.5H475V67.4V74.9L480.6 81.4L486.1 88H499H511.8L517.4 81.3L523 74.6V66.3V58.1L517.4 51.6L511.9 45H501C490.1 45 490.1 45 488.1 42.1C484.9 37.7 485.2 28.8 488.6 24.3C491.1 21.1 491.2 21 498.9 21H506.7L509.8 24.9C512.5 28.2 513 29.8 513 33.9V39H517.5H522V32.1C522 25.2 522 25.1 516.4 18.1L510.7 11H499H487.2L481.6 17.9Z" fill="black"/>
<path d="M574 16V21H578H582L581.8 49.7L581.5 78.5L577.8 78.8C574 79.1 574 79.2 574 83.6V88H595.9H617.9L623.4 81.4L629 74.9V49.7V24.4L623.4 17.7L617.8 11H595.9H574V16ZM616.4 24.1L619 27.2V49.9V72.6L616.2 75.3C613.5 77.9 613 78 602.2 78H591V49.5V21H602.4H613.8L616.4 24.1Z" fill="black"/>
<path d="M645 16V21H649H653L652.8 49.7L652.5 78.5L648.8 78.8C645 79.1 645 79.2 645 83.6V88H669.5H694V76.5V65H690H686V72V79H674H662V66.5V54H674H686V49.5V45H674H662V33V21H674H686V27.5V34H690H694V22.5V11H669.5H645V16Z" fill="black"/>
<path d="M710 16V21H714H718L717.8 49.7L717.5 78.5L713.8 78.8C710 79.1 710 79.2 710 83.6V88H733.5H757V76.5V65H753H749V72V79H738H727V50V21H731H735V16V11H722.5H710V16Z" fill="black"/>
<path d="M803 15.9996V20.9996H807H811L810.8 49.6996L810.5 78.4996L806.8 78.7996C803 79.0996 803 79.1996 803 83.5996V87.9996H815H827V83.4996C827 78.9996 827 78.9996 823.5 78.9996H820L820.1 51.1996C820.1 26.1996 820.3 23.7996 821.6 26.4996C822.4 28.0996 829.1 42.4996 836.4 58.4996L849.8 87.4996L856.9 87.7996L864 88.0996V54.4996V20.9996H867.5H871V15.9996V10.9996H859.5H848V15.9996V20.9996H851.5H855V48.1996C855 64.1996 854.6 74.9996 854.1 74.3996C853.6 73.8996 846.8 59.3996 838.9 42.1996L824.5 10.9996H813.8H803V15.9996Z" fill="black"/>
<path d="M891.6 17.9L886 24.7V49.8V74.9L891.6 81.4L897.1 88H911.5H926L931.5 81.3L937 74.6V49.7V24.7L931.4 17.9L925.8 11H911.5H897.2L891.6 17.9ZM924.4 24.3L927 27.7V49.8V71.8L924.4 74.9C921.8 78 921.8 78 911.7 78C902.1 78 901.5 77.9 898.8 75.3L896 72.6V50.2V27.7L898.6 24.3L901.1 21H911.5H921.9L924.4 24.3Z" fill="black"/>
<path d="M947 15.9996C947 20.8996 947.1 20.9996 950 20.9996C952.8 20.9996 953 21.2996 955.9 30.6996C957.6 36.0996 962.3 51.0996 966.3 63.9996L973.7 87.4996L980.3 87.7996L986.9 88.0996L990.6 76.2996C992.6 69.7996 997.3 54.7996 1001 42.9996C1007.5 21.9996 1007.8 21.4996 1010.6 20.9996C1013.3 20.4996 1013.5 20.1996 1013.5 15.9996V11.4996L1002.8 11.1996L992 10.8996V15.9996C992 20.8996 992.1 20.9996 995 20.9996C996.7 20.9996 998 21.2996 998 21.6996C998 23.3996 980.6 77.9996 980.2 77.5996C980 77.2996 975.9 64.5996 971.1 49.2996L962.4 21.4996L965.7 21.1996C968.9 20.8996 969 20.7996 969 15.8996V10.9996H958H947V15.9996Z" fill="black"/>
<path d="M1023 16V21H1027.5H1032L1031.8 49.7L1031.5 78.5L1027.3 78.8L1023 79.1V83.6V88H1036H1049V83.5V79H1045H1041V50V21H1045H1049V16V11H1036H1023V16Z" fill="black"/>
<path d="M1069.6 17.9L1064 24.7V49.7V74.6L1069.5 81.3L1075 88H1089.5H1104L1109.5 81.3L1115 74.6V49.7V24.7L1109.4 17.9L1103.8 11H1089.5H1075.2L1069.6 17.9ZM1102.4 24.3L1105 27.7V49.8V71.8L1102.4 74.9C1099.8 78 1099.8 78 1089.7 78C1080.1 78 1079.5 77.9 1076.8 75.3L1074 72.6V50.2V27.7L1076.6 24.3L1079.1 21H1089.5H1099.9L1102.4 24.3Z" fill="black"/>
<path d="M122 101C122 101.7 290.7 102 626 102C961.3 102 1130 101.7 1130 101C1130 100.3 961.3 100 626 100C290.7 100 122 100.3 122 101Z" fill="black"/>
<path d="M141.3 161.9C133.7 167.4 124.3 182.3 107.3 215.5C100.6 228.7 95.1 238.8 95 237.9C95 237 95.5 233.8 96.1 230.9C96.7 227.9 97.3 215.4 97.4 203C97.6 178.9 98.3 174.2 102.5 169.2C104.9 166.4 105.7 164 104.4 164C104.1 164 102.5 164.9 101 166C95.4 170 84.3 186.4 69.4 212.5C52.6 242.2 41.5 253.9 27.6 257.1C22.5 258.2 21.8 258.1 17.4 255.9C11 252.7 7.99999 247.2 7.99999 238.5C7.99999 227.5 12.5 216.7 20.2 209.3C31.7 198.2 45.3 202.7 45.4 217.6C45.4 222.4 45 223.6 40.5 229.6C40 230.3 39.9 231.2 40.3 231.6C41.4 232.8 48 225.9 50.1 221.5C52.1 217.1 52.6 208.7 51 204.5C46.5 192.6 29.8 195.1 15.3 209.7C-3.20001 228.6 -5.20001 260.7 11.7 268.2C21.8 272.7 33.7 268.4 46.1 256.1C55 247.1 60.5 238.9 70.4 220.3C79.8 202.4 87.3 189 87.7 189.3C87.8 189.5 87.2 193.4 86.4 198.1C85.1 204.7 84.9 210.6 85.3 225.5C85.8 245.6 85 255.1 82.4 260.7C80.3 265 81.3 266.1 84.5 262.9C87.9 259.5 95.3 246.3 109.9 217.9C122.5 193.5 131.7 179.1 138.5 173.1C141.3 170.7 143 170 146.4 170C151.7 170 153.2 168.4 152.8 163.3C152.5 159.7 152.3 159.5 149 159.2C146.3 159 144.4 159.7 141.3 161.9Z" fill="black"/>
<path d="M405.3 164.501C403.7 165.201 402 166.501 401.6 167.501C400.4 170.601 401 176.301 402.6 177.401C408.6 181.901 400.7 207.501 385.8 231.501C382.7 236.401 378.5 242.401 376.5 244.801C372 250.001 362.3 257.601 357.6 259.501C353.4 261.301 349.5 260.201 348.5 257.001C346.9 251.901 349.8 244.801 364.5 218.501C380.6 189.601 383.4 180.801 379.6 171.601C377.3 166.101 373.7 164.001 366.5 164.001C358.7 164.001 353.9 165.701 344.9 171.501C335.6 177.501 328.1 184.701 322.5 192.901C312.5 207.601 310.3 225.401 317.6 232.701C319.8 234.901 320.8 235.201 325 234.801C330.9 234.201 339.4 228.301 342.5 222.701C344.9 218.101 343.8 216.901 340.2 220.201C336.9 223.401 331.8 226.001 329 226.001C320 226.001 321.3 207.001 331.3 191.801C336.2 184.501 347.6 173.701 354 170.501C363.3 165.801 370 168.001 370 175.901C370 180.401 362.1 197.101 350 217.901C338.9 237.101 336.1 243.501 335.4 251.101C333.8 267.301 344.3 272.501 359.9 263.201C377 253.101 402.2 217.601 410.9 191.401C412.5 186.501 414.1 180.201 414.5 177.301C415.8 167.401 411.8 161.801 405.3 164.501Z" fill="black"/>
<path d="M885 166.001C872.2 169.501 861.5 175.401 852.9 184.001C842.6 194.201 839.5 200.601 839.5 211.701C839.5 219.401 839.7 220.101 842.4 222.901C847.6 228.301 856.1 226.901 864.9 219.401C869.9 215.101 870.7 211.601 866 215.001C864.3 216.201 861.2 217.401 859 217.701C850.2 218.901 847 208.201 852.7 196.201C856.5 188.101 866.8 178.201 876.1 173.701C883.4 170.101 895.7 167.001 902.3 167.001C908.7 167.001 915.6 169.801 919.3 173.901C924.8 180.001 925.3 187.501 920.9 196.201C916 205.801 907.7 211.601 896 213.501C889.1 214.701 887.7 216.201 892.6 217.001C895.4 217.501 895.5 217.801 895.5 222.501C895.4 226.701 894.5 229.101 889.8 237.501C883.3 248.901 881.6 254.801 883.1 260.301C884.2 264.401 888 267.001 892.8 267.001C897.2 267.001 905.4 262.401 910.4 257.001L915 252.101V256.801C915 262.401 916.6 265.901 920.1 267.901C922.4 269.201 923.1 269.101 927.1 267.201C929.5 266.001 933.9 262.801 936.8 260.001C941.8 255.201 943.9 253.801 942.5 256.001C941.1 258.201 943.2 265.101 945.6 266.701C947.8 268.101 948.3 268.101 953.3 265.701C956.2 264.201 959.7 261.801 961.2 260.301C964.2 257.101 975.9 240.401 976.8 238.101C978 234.801 973.8 239.401 968.9 246.701C962.8 255.701 957.6 261.001 954.8 261.001C953 261.001 952.8 260.601 953.3 257.101C953.5 255.001 956.2 249.101 959.2 243.901C965.4 233.301 975 215.401 975 214.601C975 214.301 972.5 214.001 969.5 214.001C965 214.001 963.9 214.401 962.9 216.101L961.8 218.201L959.4 215.901C954.8 211.601 946 213.801 936.2 221.701C929.4 227.201 926.4 230.801 919.2 241.301C915.6 246.801 910.8 252.701 908.6 254.601C904.7 257.901 899.2 259.801 897.1 258.501C895 257.301 896 251.901 900 242.601C904.8 231.301 905.2 226.201 901.5 220.801C900.1 218.801 899.3 216.901 899.8 216.701C900.2 216.401 902.6 215.901 905.2 215.601C912.4 214.501 923.3 208.701 928 203.301C932 198.701 935 191.301 935 186.001C935 178.201 929.9 170.801 922.1 167.101C917.2 164.901 915 164.501 904.5 164.301C895 164.101 890.9 164.401 885 166.001ZM956.8 217.201C959.7 220.101 956.6 228.801 947.5 243.001C940.8 253.501 936.4 258.601 932.5 260.401C926.7 263.201 924 260.301 925.9 253.201C928.2 244.801 942.4 223.901 949.2 219.001C953.7 215.701 955 215.401 956.8 217.201Z" fill="black"/>
<path d="M464 175.9C460.1 176.4 459.5 176.8 458.9 179.5C458.6 181.1 452.1 193.3 444.5 206.5C436.8 219.7 428.1 235 425.1 240.4C418 253.2 408.6 263.3 404.4 262.8C399.2 262.2 400.1 258.9 410.1 242C419.6 225.9 424 217.4 424 215.2C424 214.2 422.4 214 417.8 214.2C411.6 214.5 411.6 214.5 410.6 218C410.1 219.9 407.2 225.5 404.3 230.5C390.7 253.4 387.7 262.9 392.9 267.1C397.6 270.9 404.9 268.8 413 261.3L419 255.8V259.9C419 264.2 421.6 268 424.5 268C427.5 268 433.5 264.9 438.2 260.9L443 256.9V260.4C443 264.3 445.8 268 448.8 268C452.5 267.9 459.4 263.8 464.6 258.5L470 252.9V257.2C470 262.5 471.7 266 475.1 267.9C477.4 269.2 478.1 269.1 482.1 267.2C484.5 266 488.9 262.8 491.8 260C496.8 255.2 498.9 253.8 497.5 256C496.2 258.2 498.2 265.1 500.5 266.6C502.7 268 503.3 268 507.4 266.2C509.9 265.1 513.9 262.1 516.4 259.6L521 255.1L518 260.4C516.3 263.3 515 266 515 266.3C515 266.7 517.6 267 520.8 267L526.5 266.9L536.5 250.9C550.5 228.5 558.9 219 564.7 219C568.5 219 567.5 221.8 558.9 235.5C549.3 250.8 547.9 253.4 546.9 257.9C546.1 261.4 547.3 265.9 549.3 267.2C553.4 269.8 562.6 266.4 570 259.4L575 254.7L574.4 257.7C573.8 260.7 575.2 264.8 577.4 266.2C578 266.6 580.1 267 582.1 267C586.3 267 590.7 264.1 597 256.9L601.5 251.9L601.2 257.5C600.8 264 602.6 267 606.9 267C610.1 267 615.4 263.8 618.7 259.9C621.4 256.7 623 256.2 623 258.5C623 264.3 629.5 268.6 636.5 267.6C642.5 266.7 648.4 262.4 658.8 251.6L667.7 242.3L665.4 247.9C664 251.2 663 255.6 663 258.7C663 263.1 663.4 264.2 665.6 265.9C669.1 268.6 673 268.5 678.8 265.6C691.5 259.1 709 234.6 712.2 218.7C713.6 212.2 712.8 209.7 709.1 209.2C705.4 208.6 704.2 210.6 703.8 218.3C702.8 235.5 686.6 261.7 677.5 260.8C674.8 260.5 674.5 260.1 674.2 256.9C673.9 253.2 674.7 251.4 688.5 225.7C692.5 218.1 693.9 214.5 693.2 213.8C691.9 212.5 681 213.7 681 215.2C681 217.4 671.6 236 671 235.1C670.7 234.5 667.1 238.2 663 243.2C651.2 257.6 640.4 264.5 635.9 260.4C633.4 258.2 633.5 254.4 636.1 247.5C637.7 243.1 638.7 241.9 640.8 241.4C657.1 237.8 670 227.8 670 218.7C670 210.7 660.7 210.3 648 217.8C637.4 224.1 626.2 238.4 623.7 249.1C622.9 252.1 615.5 260 613.4 260C609.2 260 611.7 251.9 620.3 237C629.4 221.2 630.7 218.7 631.4 215.7C632 213.2 631.8 213 629.1 213C621 213 620.2 213.6 615.6 223.5C604.5 247.2 586.9 267.5 585.2 258.7C585 257.7 588 251.4 591.8 244.7C601.6 227.7 606 218.9 606 216.2C606 214.2 605.6 214 600 214C594.3 214 594 214.1 593.5 216.7C591.5 225.7 573.9 253.8 567.4 258.2C562.6 261.4 559.4 262.4 558.5 261C557.6 259.5 562.4 250.4 570.5 238C577.5 227.2 579.7 221.1 578.1 216.8C576 211.3 567.5 211.8 558.7 218.1C554.5 221 553.1 221.6 553.9 220.2C554.5 219 555 217 555 215.6C555 213.2 554.6 213 550.8 213C543.8 213 542 213.9 542 217C542 220.3 535 233 530.5 238C528.7 239.9 525.4 244.3 523.1 247.8C517.7 255.8 512.5 261 509.8 261C508 261 507.8 260.6 508.3 257.1C508.5 255 511.2 249.1 514.2 243.9C520.4 233.3 530 215.4 530 214.6C530 214.3 527.5 214 524.5 214C520 214 518.9 214.4 517.9 216.1L516.8 218.2L514.4 215.9C506.7 208.6 486.6 221.3 474.9 240.7C468.5 251.2 460.2 260 456.6 260C454.8 260 454 259.5 454 258.3C454 256 462.2 240.1 477.3 213.5C484.4 200.8 491.5 188.2 493.1 185.4C494.7 182.6 496 179.1 496 177.6C496 175 495.9 174.9 490.8 175.5C483.6 176.4 483 176.6 483 179C483 181.1 477.7 190.8 459 223C453.1 233.2 447 244.1 445.5 247.3C443.9 250.6 441 254.6 438.7 256.5C434.3 260.2 430 261.2 430 258.3C430 256 438.2 240.1 453.3 213.5C460.4 200.8 467.5 188.2 469.1 185.4C470.7 182.6 472 179.1 472 177.6C472 174.8 472.1 174.8 464 175.9ZM511.8 217.2C514.7 220.1 511.6 228.8 502.5 243C495.8 253.5 491.4 258.6 487.5 260.4C481.7 263.2 479 260.3 480.9 253.2C483.2 244.8 497.4 223.9 504.2 219C508.7 215.7 510 215.4 511.8 217.2ZM662 217.5C662 220.7 657.9 226.9 652.6 231.7C647.2 236.7 641 240 641 237.9C641 236 647.2 227.6 652.9 221.7C658.3 216.1 662 214.4 662 217.5Z" fill="black"/>
<path d="M907 177.299C900.4 179.999 893.7 184.499 889.3 189.199C885.7 192.999 876.5 207.099 866 224.999C851.6 249.599 843.2 259.699 833.8 263.999C828.2 266.499 821.9 266.599 818.9 264.099C816.7 262.299 816.6 261.899 817.8 258.799C820.4 251.599 818.9 247.999 813.5 247.999C809 247.999 806.5 251.099 806.5 256.499C806.5 269.999 826.8 273.099 847.9 262.699C855.6 258.999 868.8 246.599 874.3 237.899C876.3 234.799 881.6 225.599 886.1 217.399C902.5 187.499 905.9 182.599 913.2 178.899C921.1 174.899 916.1 173.599 907 177.299Z" fill="black"/>
<path d="M224.1 189.9C219.8 194.2 220.6 200 225.4 200C228.8 200 233.2 194.8 232.8 191.4C232.6 189 232 188.5 229.3 188.2C227.1 188 225.5 188.5 224.1 189.9Z" fill="black"/>
<path d="M425.1 189.9C420.8 194.2 421.6 200 426.4 200C429.8 200 434.2 194.8 433.8 191.4C433.6 189 433 188.5 430.3 188.2C428.1 188 426.5 188.5 425.1 189.9Z" fill="black"/>
<path d="M1080.1 189.9C1075.8 194.2 1076.6 200 1081.4 200C1084.8 200 1089.2 194.8 1088.8 191.4C1088.6 189 1088 188.5 1085.3 188.2C1083.1 188 1081.5 188.5 1080.1 189.9Z" fill="black"/>
<path d="M1206 212C1204.6 212.5 1198.3 212.6 1192 212.3C1178.5 211.8 1177.5 212.2 1171.3 219.8C1165.9 226.4 1165.6 228.8 1170.4 225.9C1172.7 224.6 1176.3 223.8 1182.1 223.4C1186.7 223.2 1192.1 222.7 1194 222.5C1196.8 222.1 1194.7 223.7 1183.6 230.3C1175.9 234.8 1167.3 240.7 1164.5 243.5C1159.1 248.7 1147 264.4 1147 266.2C1147 266.8 1148 266.9 1149.8 266.5C1152.6 265.7 1158.1 265.6 1171.6 266.2C1179.1 266.5 1180 266.3 1184.5 263.5C1189.8 260.2 1202 246 1202 243.2C1201.9 242 1201.1 242.5 1199.2 245C1197.8 246.9 1194.5 250.6 1191.9 253.2C1187.7 257.5 1186.9 258 1182.7 258C1180.2 258 1176 257.5 1173.3 256.9C1169.9 256.1 1167 256.1 1163.7 256.8C1161.1 257.3 1159.3 257.4 1159.6 256.9C1159.9 256.4 1164.8 253.7 1170.5 250.9C1182.8 244.9 1188.7 240 1197.9 227.6C1201.7 222.6 1206.1 217.2 1207.8 215.6C1212 211.7 1211.3 210.3 1206 212Z" fill="black"/>
<path d="M1012.1 213.1C1010.7 213.6 1007.6 215.7 1005.2 217.7L1000.9 221.2L1001.5 217.6L1002.2 214H995.6H989.1L988 217.9C987.1 221.4 973.7 247 965.4 261.2L962.1 267H968.3L974.5 266.9L980.5 256.3C994 232.3 1005.1 218.4 1010.3 219.2C1011.8 219.4 1012.4 220.1 1012.3 221.5C1012.2 222.6 1007.1 232.7 1001 243.9C994.9 255.1 989.6 264.8 989.3 265.6C988.9 266.7 990 267 994.1 267H999.5L1010.2 249.1C1016.2 239.3 1022.8 228.9 1025 226.1C1031.4 218.1 1038.9 215.4 1037.4 221.7C1037.1 223.3 1033.9 229.4 1030.5 235.5C1021.9 250.6 1020.1 254.2 1019.4 258.7C1018.6 264.2 1021.3 267.5 1026.7 267.4C1032 267.2 1036.3 264.8 1042 258.8L1046.9 253.7L1045.9 257.6C1043.7 266.1 1048.2 270.2 1057.4 268.1C1067.5 265.8 1076.5 256.4 1089 234.8L1095.2 224.1L1099.8 224.7C1102.4 225 1104.6 225.4 1104.7 225.5C1104.9 225.6 1101.5 229.6 1097.3 234.5C1085.7 248 1081.6 259.6 1086.4 264.9C1090.9 269.8 1099.4 266.3 1107.6 256.2L1112 250.8V255.4C1112 261.5 1113.6 264.6 1117.8 266.6C1121.7 268.4 1127.2 268 1132.2 265.4C1136.6 263.1 1152.2 247.8 1156.5 241.5C1162.8 232.4 1159.9 233.5 1152 243.1C1140.2 257.6 1129.4 264.5 1124.9 260.4C1122.4 258.2 1122.5 254.4 1125.1 247.5C1126.7 243.1 1127.7 241.9 1129.8 241.4C1146.1 237.8 1159 227.8 1159 218.7C1159 213.2 1155.9 211.5 1148.7 213C1137.3 215.3 1123.6 226.5 1117 238.8C1113.1 246.2 1105.1 256.1 1101.6 258C1099.2 259.2 1098.8 259.2 1098 258C1095.3 253.8 1098.1 247.2 1110.6 228.3C1114.7 222.1 1118.3 216.4 1118.6 215.6C1119.4 213.6 1116.8 213.5 1110.5 215.2C1106.5 216.3 1105.5 216.2 1102.6 214.6C1100.7 213.6 1098.7 213.1 1098.1 213.4C1097.5 213.8 1094.6 218.9 1091.6 224.8C1085.5 236.7 1083.1 240.4 1083 238C1083 237.2 1081.2 239.5 1078.9 243.3C1076.7 247 1072 253 1068.6 256.6C1063.3 262.2 1061.9 263.1 1059.4 262.8C1054.2 262.2 1055.1 258.9 1065.1 242C1074.6 225.9 1079 217.4 1079 215.2C1079 214.2 1077.4 214 1072.8 214.2L1066.6 214.5L1065.4 218.5C1062 230.4 1041.2 258.4 1034.2 260.5C1029.2 262 1030.9 256.3 1040.2 241.2C1045.9 231.9 1050 223 1050 219.9C1050 218.4 1049.1 216.1 1047.9 214.6C1044 209.6 1033.3 212.2 1026.6 219.8C1023.9 222.9 1023 222.5 1023 218.6C1023 213.1 1018.2 210.7 1012.1 213.1ZM1151 217.6C1151 220.9 1147.6 226.2 1142 231.4C1136.3 236.6 1130 240 1130 237.9C1130 236 1136.2 227.6 1141.9 221.7C1147.3 216.1 1151 214.4 1151 217.6Z" fill="black"/>
<path d="M149.2 213.701C147.5 214.001 145.9 216.301 142.6 223.501C131.5 247.101 113.9 267.601 112.2 258.701C112 257.701 115.9 249.901 120.8 241.201C130.3 224.701 133 219.001 133 215.901C133 214.301 132.2 214.001 127.1 214.001C121.1 214.001 120 214.701 120 218.801C120 219.801 116.2 227.301 111.5 235.501C106.9 243.801 102.6 252.601 102 255.201C100.1 262.901 102.5 267.001 108.9 267.001C113.3 267.001 117.6 264.201 124 256.901L128.5 251.901L128.2 257.501C127.7 265.101 129.4 267.001 136.4 266.801C140 266.701 142.6 266.001 145.4 264.101C150.9 260.501 159.4 249.401 167.4 235.701L174.2 224.101L178.8 224.701C181.4 225.001 183.6 225.401 183.7 225.501C183.9 225.601 180.5 229.601 176.3 234.501C164.7 248.001 160.6 259.601 165.4 264.901C170.1 270.101 179.2 265.901 187.9 254.601C190.3 251.501 192.3 249.001 192.5 249.001C192.6 249.001 191.8 251.501 190.8 254.601C188.6 261.101 189.1 265.301 192.3 267.501C196.8 270.701 204.2 268.501 211.3 262.001L216.7 257.001L217.4 260.901C218.2 265.901 222.2 269.401 226 268.501C229.4 267.701 234.7 264.101 239.8 259.101C243.8 255.201 245.8 253.901 244.5 256.001C243.2 258.101 245.2 265.101 247.5 266.601C249.6 267.901 250.2 267.901 253.5 266.601C259.7 264.001 264.4 259.501 271.4 249.301C275.2 243.901 278.5 238.801 278.8 238.001C280 234.801 275.8 239.401 270.9 246.701C264.8 255.701 259.6 261.001 256.8 261.001C255 261.001 254.8 260.601 255.3 257.101C255.5 255.001 258.2 249.101 261.2 243.901C267.4 233.301 277 215.401 277 214.601C277 214.301 274.5 214.001 271.5 214.001C267 214.001 265.9 214.401 264.9 216.101L263.8 218.201L261.4 215.901C256 210.901 245.8 214.501 233.9 225.701C226.9 232.301 219.8 242.801 218.4 248.401C218 250.101 215.1 254.001 212 257.301C207.2 262.201 205.8 263.101 203.4 262.801C198.3 262.301 199.1 258.901 207.7 244.501C216.8 229.001 223 217.301 223 215.301C223 214.201 221.7 214.001 216.8 214.201C210.6 214.501 210.5 214.501 209.5 218.001C208.1 222.901 201.9 234.101 200.3 234.701C199.5 235.001 197.1 238.001 194.8 241.401C185.7 254.901 179 261.101 177 258.001C174.3 253.701 177.2 247.001 189.6 228.301C193.7 222.101 197.3 216.401 197.6 215.601C198.4 213.601 195.8 213.501 189.5 215.201C185.5 216.301 184.5 216.201 181.6 214.601C179.7 213.601 177.7 213.101 177.1 213.401C176.6 213.801 173.4 219.301 170 225.801C166.7 232.201 163 238.601 161.8 240.001L159.8 242.501L161.4 239.801C163.2 236.701 163.4 236.001 162.1 236.001C161.6 236.001 158.7 239.501 155.7 243.701C143.7 260.901 135.2 265.401 139.6 252.401C140.5 249.701 144 242.801 147.3 237.001C156.4 221.201 157.7 218.701 158.4 215.701C159 213.101 158.9 213.001 155.3 213.101C153.2 213.201 150.5 213.501 149.2 213.701ZM258.8 217.201C261.7 220.101 258.6 228.801 249.5 243.001C242.8 253.501 238.4 258.601 234.5 260.401C228.7 263.201 226 260.301 227.9 253.201C230.2 244.801 244.4 223.901 251.2 219.001C255.7 215.701 257 215.401 258.8 217.201ZM158 246.401C158 246.601 157.2 247.401 156.3 248.101C154.7 249.401 154.6 249.301 155.9 247.701C157.2 246.101 158 245.601 158 246.401Z" fill="black"/>
<path d="M738 213.901C727.6 217.201 712.8 230.801 707 242.401C701.3 253.801 701.8 264.301 708.1 267.901C710.4 269.201 711.1 269.101 715.1 267.201C717.5 266.001 721.9 262.801 724.8 260.001C729.8 255.201 731.9 253.801 730.5 256.001C729.2 258.101 731.2 265.101 733.5 266.601C735.6 267.901 736.2 267.901 739.5 266.601C745.7 264.001 750.4 259.501 757.4 249.301C761.2 243.901 764.5 238.801 764.8 238.001C766 234.801 761.8 239.401 756.9 246.701C750.9 255.601 745.6 261.001 743 261.001C739.5 261.001 740.6 255.201 745.6 246.901C748.7 241.901 763 215.301 763 214.601C763 214.301 760.5 214.001 757.5 214.001C753 214.001 751.9 214.401 750.9 216.101L749.8 218.201L747.7 216.201C745 213.701 741.4 212.901 738 213.901ZM744.8 217.201C747.6 220.001 744.7 228.601 736.5 241.501C727.3 256.101 720.4 262.901 716.1 261.501C711.3 260.001 712.6 253.201 720 241.001C727 229.401 732.4 222.401 737.2 219.001C741.7 215.701 743 215.401 744.8 217.201Z" fill="black"/>
<path d="M627.3 313.001C611.2 318.701 596.1 333.001 581.4 356.001L575.7 365.001H564.3C554.1 365.001 552.9 364.801 553.4 363.401C554.8 359.901 565 343.201 569.5 337.201L574.2 331.001H579.5C591.5 331.001 601 326.801 601 321.401C601 316.101 592.7 315.801 581.8 320.701C575.2 323.601 577 323.801 561.5 319.001C551.8 316.001 538.8 315.901 530.2 318.901C516.1 323.801 504.1 334.101 497.6 347.101C491.9 358.401 492.9 368.801 500 372.501C506.2 375.701 513.6 373.501 520.8 366.301C523.6 363.501 526 360.401 526 359.601C526 357.201 525.2 357.601 520.4 362.001C514.9 367.001 511 367.301 506 363.101C502.8 360.501 502.5 359.801 502.6 355.201C503.2 337.701 517.2 325.001 536.1 325.001C540.9 325.001 564 328.601 564.8 329.501C565.1 329.801 560.9 334.601 555.4 340.201C546.5 349.401 539.1 358.901 537.4 363.401C537 364.601 535.4 365.001 531.9 365.001C527.3 365.001 527 365.201 527 367.501C527 369.601 527.5 370.001 530 370.001C531.7 370.001 533 370.201 533 370.501C533 371.601 519.6 392.901 515.7 397.901C505.3 411.401 490.5 418.501 483.9 413.101C481.9 411.401 481.7 410.901 482.8 409.301C485.2 405.801 486.1 402.601 485.4 399.801C484.1 393.601 476.1 394.101 473.5 400.501C471.6 404.901 471.6 407.401 473.5 411.401C478 420.901 494.1 421.201 513 412.201C523.6 407.101 533.3 397.101 542.5 381.701L549.5 370.001H560.8C566.9 370.001 572 370.201 572 370.401C572 370.901 551.7 406.401 547.8 412.701L545.8 416.001H552.7H559.6L563.5 409.201C576.2 387.101 603.7 342.001 608 336.001C614 327.801 622.7 319.801 628.8 316.901C633 314.801 636.2 314.701 641.8 316.501C645.1 317.601 644.8 313.701 641.5 312.201C637.9 310.501 633.3 310.801 627.3 313.001ZM593.6 322.201C595.4 325.101 586.7 328.301 583 326.001C581.9 325.301 582.5 324.701 586 323.101C591.2 320.701 592.6 320.601 593.6 322.201Z" fill="black"/>
<path d="M149.6 314C121.3 319.1 99.5 339.2 98.3 361.4C97.8 369.8 99.6 374.2 104.9 377.7C111.2 382 122.2 379.8 130.8 372.6C136.5 367.7 134.2 365.1 127.8 369C123.1 371.8 116.9 371.6 113.3 368.6C110.7 366.4 110.5 365.6 110.5 359.3C110.5 328.2 160.6 305.3 182.8 326.3C187.6 330.9 190 338.3 190 348.8C190 372.2 176.9 398.8 161.6 406.8C154.8 410.3 144.3 410.4 135.8 407.1C132.6 405.9 130 404.5 130 404.1C130 403.7 131.6 401.8 133.6 399.9C139.8 394 145.5 385.1 155.6 365.5C168.9 339.5 171.7 335.7 179.4 332.5C183 331 183.2 330.7 181.6 329.2C180.2 327.8 179.4 327.7 175.3 328.8C165.6 331.4 156.3 338.6 148.6 349.4C146.2 352.7 138.7 365.4 131.9 377.5C125.2 389.6 119.1 399.8 118.6 400.2C116.8 401.5 109.1 401.1 102.6 399.4C95.6 397.6 89.1 397.9 83.9 400.4C72.3 405.9 79.4 417 94.5 417C100.5 417 102.2 416.6 113.4 413.6C118.9 412.1 119.8 412.2 128.1 414C150.7 419.1 169.4 413.9 185 398.1C197.4 385.7 203.3 371.8 203.3 355C203.4 335.5 194.5 322.1 177.5 316.1C170.2 313.5 157.5 312.6 149.6 314ZM102.6 406.1C107.8 408.1 108.2 408.4 106.5 409.6C105.5 410.3 102.4 411.4 99.6 412.1C93.3 413.5 87 411.5 87 408.1C87 403.7 93.8 402.8 102.6 406.1Z" fill="black"/>
<path d="M987.1 315C974.4 318.4 957.7 328.7 949.5 338.2C947.5 340.6 944.4 345.4 942.7 349C939.9 354.7 939.5 356.4 939.5 363.8C939.5 372 939.6 372.2 942.8 375.1C948.8 380.5 960 378.5 968.9 370.5C971.1 368.4 973 366.1 973 365.4C973 363.7 971.4 363.6 970.4 365.1C970.1 365.7 967.7 367.1 965.3 368.2C949.3 375.3 944.4 356.4 957.7 338.9C962.6 332.3 975.3 322.8 982.7 320C994.6 315.5 1011.5 316.6 1016.7 322.2C1024.3 330.3 1023.6 344.4 1015.2 355.4C1010.6 361.5 1006 364 999.7 364C996.2 364 995 364.4 995.3 365.2C995.5 366.1 998.2 366.5 1003.6 366.5C1009.9 366.5 1012.5 366 1016.4 364.1C1022.4 361.1 1027.9 355.8 1030.5 350.5C1033.2 344.9 1033.7 334.1 1031.5 328.5C1026.6 315.6 1007.2 309.8 987.1 315Z" fill="black"/>
<path d="M1011.5 326.3C1003.7 328.9 993.9 337.3 986.4 347.6C984 350.9 978.4 360.6 973.9 369.1C963.4 388.9 958.1 397.1 951.5 403.5C940.9 413.9 927.8 417.1 923.4 410.5C921.9 408.2 921.9 407.9 923.9 405.4C926.5 402 926.5 400 923.9 396.6C918.1 389.3 909.4 398.9 913.4 408.3C918.8 421.3 944.3 419 964.5 403.7C974.2 396.4 980.7 386.7 989.6 366.3C1001.1 339.9 1006.9 330.9 1013.3 329.2C1016.6 328.3 1017.9 326.5 1015.8 325.8C1015.1 325.5 1013.2 325.7 1011.5 326.3Z" fill="black"/>
<path d="M385.1 338.9C380.8 343.2 381.6 349 386.4 349C389.8 349 394.2 343.8 393.8 340.4C393.6 338 393 337.5 390.3 337.2C388.1 337 386.5 337.5 385.1 338.9Z" fill="black"/>
<path d="M351.7 361.801C350.7 362.901 350.2 365.301 350.2 369.001C350.5 382.601 333.3 411.001 324.8 411.001C319 411.001 321 402.601 330.6 386.001C338.7 372.201 342.4 364.401 341.5 363.001C340.8 361.901 335.8 361.701 332.5 362.601C331.2 362.901 328.7 366.601 325.2 373.501C315.7 392.101 302.4 410.001 297.9 410.001C293.8 410.001 296 404.501 308.1 384.001C315.3 371.801 318.1 364.701 316.3 362.901C314.9 361.501 305.9 363.101 305 365.001C304.6 365.801 302.3 370.401 300 375.201C297.7 380.101 295.4 384.001 294.9 384.001C294.5 384.001 292.2 386.801 289.9 390.201C280.7 403.901 274 410.201 272 407.001C269.3 402.801 272.1 396.201 284.6 377.301C288.7 371.101 292.3 365.401 292.6 364.601C293.4 362.601 290.8 362.501 284.5 364.201C280.5 365.301 279.5 365.201 276.6 363.601C274.7 362.601 272.7 362.101 272.1 362.501C271.4 362.801 268.7 367.501 266.1 372.901C261.6 381.801 249.5 401.001 248.4 401.001C247.7 401.001 249.4 398.101 253.4 392.501C255.4 389.801 257 387.101 257 386.601C257 384.901 253.6 388.601 248.9 395.701C242.9 404.601 237.6 410.001 235 410.001C231.5 410.001 232.6 404.201 237.6 395.901C240.7 390.901 255 364.301 255 363.601C255 363.301 252.5 363.001 249.5 363.001C245 363.001 243.9 363.401 242.9 365.101L241.8 367.201L239.4 364.901C233.7 359.501 222.9 363.801 210.5 376.401C200.5 386.501 195.7 395.201 195.2 404.401C194.9 411.301 196.2 414.701 200.1 416.901C202.4 418.201 203.1 418.101 207.1 416.201C209.5 415.001 213.9 411.801 216.8 409.001C219.7 406.301 222.1 404.001 222.3 404.001C222.4 404.001 222.6 406.101 222.6 408.701C222.8 414.201 225.8 417.501 229.4 416.401C230.6 416.001 232.9 415.601 234.5 415.601C241.1 415.301 251 404.301 262.5 384.501L269.2 373.101L273.8 373.701C276.4 374.001 278.6 374.401 278.7 374.501C278.9 374.601 275.5 378.601 271.3 383.501C259.7 397.001 255.6 408.601 260.4 413.901C264.9 418.801 273.3 415.301 281.8 405.001C284.6 401.501 286 400.401 285.4 402.001C284.9 403.401 284.5 406.401 284.5 408.701C284.6 414.301 287.1 417.001 292.3 417.001C296 417.001 297 416.301 303.2 410.201C309.5 403.801 310 403.501 310 406.001C310 420.601 323.5 420.801 336.9 406.501C350.9 391.501 361.8 369.801 359 362.401C357.9 359.501 354.1 359.201 351.7 361.801ZM237.4 367.201C239 369.801 237.1 375.501 231.4 385.501C221.7 402.501 212.4 412.301 207.7 410.401C203.4 408.801 204.9 401.901 212 390.001C219 378.401 224.4 371.401 229.3 367.901C233.7 364.701 235.7 364.501 237.4 367.201Z" fill="black"/>
<path d="M1107 361C1105.6 361.5 1099.3 361.6 1093 361.3C1079.5 360.8 1078.5 361.2 1072.3 368.8C1066.9 375.4 1066.6 377.8 1071.4 374.9C1073.7 373.6 1077.3 372.8 1083.1 372.4C1087.7 372.2 1093.1 371.7 1095 371.5C1097.8 371.1 1095.6 372.7 1084.5 379.3C1076.9 383.8 1068.3 389.7 1065.5 392.5C1060.1 397.8 1048 413.4 1048 415.2C1048 415.8 1049 415.9 1050.8 415.5C1053.6 414.7 1059.1 414.6 1072.6 415.2C1080.1 415.5 1081 415.3 1085.5 412.5C1090.8 409.2 1103 395 1103 392.2C1102.9 391 1102.1 391.5 1100.2 394C1098.8 395.9 1095.5 399.6 1092.9 402.2C1088.7 406.5 1087.9 407 1083.7 407C1081.2 407 1077 406.5 1074.3 405.9C1070.9 405.1 1068 405.1 1064.7 405.8C1062.1 406.3 1060.3 406.4 1060.6 405.9C1060.9 405.4 1065.8 402.7 1071.5 399.9C1083.8 393.9 1089.7 389 1098.9 376.6C1102.7 371.6 1107.1 366.2 1108.8 364.6C1113 360.7 1112.3 359.3 1107 361Z" fill="black"/>
<path d="M728.1 362.101C726.7 362.601 723.6 364.701 721.2 366.701L716.9 370.201L717.5 366.601L718.2 363.001H711.6H705.1L704.1 366.701C702.5 372.301 695.7 384.801 693.2 386.601C692 387.401 688.7 391.501 686 395.601C679.8 404.701 674.6 410.001 671.8 410.001C670 410.001 669.8 409.601 670.3 406.101C670.5 404.001 673.2 398.101 676.2 392.901C682.4 382.301 692 364.401 692 363.601C692 363.301 689.5 363.001 686.5 363.001C682 363.001 680.9 363.401 679.9 365.101L678.8 367.201L676.4 364.901C670.7 359.501 659.9 363.801 647.4 376.401C641.5 382.401 638.4 386.401 635.7 392.101C632 399.701 624.1 409.001 621.4 409.001C617 409.001 620.1 399.701 629.8 383.301C638 369.201 638.5 368.301 639.4 364.701C640 362.201 639.8 362.001 637.1 362.001C629 362.001 628.2 362.601 623.6 372.501C612.5 396.201 594.9 416.501 593.2 407.701C593 406.701 596 400.401 599.8 393.701C609.6 376.701 614 367.901 614 365.201C614 363.201 613.6 363.001 608.1 363.001H602.2L601.2 367.201C600.6 369.601 596.5 377.801 592.1 385.401C587.7 393.101 583.6 401.501 583 404.101C581.1 411.901 583.5 416.001 589.9 416.001C594.3 416.001 598.6 413.201 605 405.901L609.5 400.901L609.2 406.501C608.9 410.801 609.2 412.601 610.6 414.101C614.1 418.001 620.7 415.601 627.7 407.901L631.5 403.701L632.2 408.401C632.9 413.401 634.9 416.501 638.2 417.601C641 418.401 647.8 414.701 653.8 409.001C658.8 404.201 660.9 402.801 659.5 405.001C658.2 407.101 660.2 414.101 662.5 415.601C664.6 416.901 665.2 416.901 668.5 415.601C674.5 413.101 679.4 408.501 685 400.301C687.9 396.001 690.8 392.001 691.3 391.501C692.3 390.501 685.8 402.801 680.8 411.201L678.1 416.001H684.3L690.5 415.901L696.5 405.301C705.8 388.701 713.2 377.901 718.8 372.701C723.7 368.201 727.2 366.901 728.5 369.001C729.2 370.201 729.2 370.301 715.1 396.201C709.6 406.501 705 415.201 705 415.501C705 415.801 707.4 416.001 710.3 416.001H715.5L726.2 398.101C732.2 388.301 738.8 377.901 741 375.101C747.4 367.101 754.9 364.401 753.4 370.701C753.1 372.301 750.2 378.001 747 383.501C735 404.301 733.3 409.601 736.8 414.001C738.3 415.901 739.7 416.401 742.7 416.401C748.1 416.201 752.3 413.801 758.6 407.201L764 401.501V406.001C764 411.501 765.7 415.001 769.1 416.901C771.4 418.201 772.1 418.101 776.1 416.201C778.5 415.001 782.9 411.801 785.8 409.001C790.8 404.201 792.9 402.801 791.5 405.001C790.2 407.101 792.2 414.101 794.5 415.601C796.6 416.901 797.2 416.901 800.5 415.601C806.5 413.101 811.4 408.501 817 400.301C819.9 396.001 822.8 392.001 823.3 391.501C824.4 390.401 823.2 392.601 815.1 405.901C812.3 410.501 810 414.701 810 415.201C810 415.601 812.6 416.001 815.8 416.001L821.5 415.901L831.5 399.901C845.5 377.501 853.9 368.001 859.7 368.001C863.5 368.001 862.5 370.801 853.9 384.501C844.3 399.801 842.9 402.401 841.9 406.901C841.1 410.401 842.3 414.901 844.3 416.201C848.2 418.701 857.2 415.501 864 409.301C869 404.901 881 389.301 881 387.301C881 384.101 878.1 386.601 873.5 393.701C870.8 398.001 867 402.901 865.1 404.801C861 408.901 855.2 411.601 853.7 410.101C852.4 408.801 856.9 400.101 865.5 387.001C872.5 376.601 874.8 370.101 873.1 365.801C871 360.301 862.5 360.801 853.7 367.101C849.5 370.001 848.1 370.601 848.9 369.201C849.5 368.001 850 366.001 850 364.601C850 362.201 849.6 362.001 845.8 362.001C838.8 362.001 837 362.901 837 366.001C837 369.501 828.6 384.401 825.5 386.401C824.1 387.301 820.8 391.401 818 395.501C811.9 404.501 806.6 410.001 804 410.001C800.5 410.001 801.6 404.201 806.6 395.901C809.7 390.901 824 364.301 824 363.601C824 363.301 821.5 363.001 818.5 363.001C814 363.001 812.9 363.401 811.9 365.101L810.8 367.201L808.4 364.901C800.6 357.601 782.3 369.201 768.5 389.901C761.9 400.001 754 408.301 750.2 409.501C745.2 411.001 746.9 405.301 756.2 390.201C761.9 380.901 766 372.001 766 368.901C766 367.401 765.1 365.101 763.9 363.601C760 358.601 749.3 361.201 742.6 368.801C739.9 371.901 739 371.501 739 367.601C739 362.101 734.2 359.701 728.1 362.101ZM673.8 366.201C676.7 369.101 673.6 377.801 664.5 392.001C657.8 402.501 653.4 407.601 649.5 409.401C643.7 412.201 641 409.301 642.9 402.201C645.2 393.801 659.4 372.901 666.2 368.001C670.7 364.701 672 364.401 673.8 366.201ZM805.8 366.201C808.7 369.101 805.6 377.801 796.5 392.001C789.8 402.501 785.4 407.601 781.5 409.401C775.7 412.201 773 409.301 774.9 402.201C777.2 393.801 791.4 372.901 798.2 368.001C802.7 364.701 804 364.401 805.8 366.201Z" fill="black"/>
<path d="M398.8 362.7C397.6 363 397 364.1 397 366C397 370.6 380.7 398 373.4 405.7C368.2 411.2 366.9 412.1 364.4 411.8C359.2 411.2 360.1 407.9 370.1 391C379.6 374.9 384 366.4 384 364.2C384 363.2 382.4 363 377.8 363.2C371.6 363.5 371.6 363.5 370.6 367C370.1 368.9 367.2 374.5 364.3 379.5C350.6 402.6 347.7 411.9 353 416.2C356 418.7 362.5 418.1 367.6 414.9C370.3 413.3 370.9 413.2 370.4 414.4C369.9 415.8 370.7 416 375.6 416L381.5 415.9L391.5 399.9C405.5 377.5 413.9 368 419.7 368C423.5 368 422.5 370.8 413.9 384.5C404.3 399.8 402.9 402.4 401.9 406.9C401.1 410.4 402.3 414.9 404.3 416.2C408.2 418.7 417.2 415.5 424 409.3C429 404.9 441 389.3 441 387.3C441 384.1 438.1 386.6 433.5 393.7C430.8 398 427 402.9 425.1 404.8C421 408.9 415.2 411.6 413.7 410.1C412.4 408.8 416.9 400.1 425.5 387C432.5 376.6 434.8 370.1 433.1 365.8C431 360.3 422.5 360.8 413.7 367.1C409.5 370 408.1 370.6 408.9 369.2C409.5 368 410 366 410 364.6C410 362.2 409.7 362 405.3 362.1C402.6 362.2 399.7 362.4 398.8 362.7Z" fill="black"/>
<path d="M1033 362.901C1022.6 366.201 1007.8 379.801 1002 391.401C996.3 402.801 996.8 413.301 1003.1 416.901C1005.4 418.201 1006.1 418.101 1010.1 416.201C1012.5 415.001 1016.9 411.801 1019.8 409.001C1024.8 404.201 1026.9 402.801 1025.5 405.001C1024.1 407.201 1026.2 414.101 1028.6 415.701C1030.8 417.101 1031.3 417.101 1036.3 414.701C1039.2 413.201 1042.7 410.801 1044.2 409.301C1047.2 406.101 1058.9 389.401 1059.8 387.101C1061 383.801 1056.8 388.401 1051.9 395.701C1045.9 404.601 1040.6 410.001 1038 410.001C1034.5 410.001 1035.6 404.201 1040.6 395.901C1043.7 390.901 1058 364.301 1058 363.601C1058 363.301 1055.5 363.001 1052.5 363.001C1048 363.001 1046.9 363.401 1045.9 365.101L1044.8 367.201L1042.7 365.201C1040 362.701 1036.4 361.901 1033 362.901ZM1040.4 367.201C1042 369.801 1040.1 375.501 1034.4 385.501C1024.7 402.501 1015.4 412.301 1010.7 410.401C1006.4 408.801 1007.9 401.901 1015 390.001C1022 378.401 1027.4 371.401 1032.3 367.901C1036.7 364.701 1038.7 364.501 1040.4 367.201Z" fill="black"/>
</svg>
