<svg width="1448" height="425" viewBox="0 0 1448 425" fill="none" xmlns="http://www.w3.org/2000/svg">
<path d="M205 4.5V9H209H213L212.8 43.7L212.5 78.5L208.8 78.8C205 79.1 205 79.2 205 83.6V88H217.5H230V83.5V79H226H222V66V53H233.9H245.9L251.4 46.4L257 39.9V26.2V12.5L252 6.2L246.9 -1.3113e-06H226H205V4.5ZM245.4 13.1C247.8 15.9 248 16.9 248 26C248 35.7 247.9 36 244.9 39.5L241.8 43H231.9H222V26.5V10H232.4C242.8 10 242.8 10 245.4 13.1Z" fill="black"/>
<path d="M281 16C281 20.3 281.3 21 283 21C284.1 21 285 21.3 285 21.7C285 22.2 282.1 31.9 278.6 43.5C275.1 55 271.3 67.8 270.1 71.7C268.2 78.2 267.6 79 265.5 79C263.2 79 263 79.4 263 83.5V88H273.5H284V83.5C284 79.2 283.9 79 281 79C277.5 79 277.4 78.5 279.8 70.5L281.6 64.5L294.6 64.2L307.6 63.9L309.8 70.8C311 74.6 312 77.9 312 78.3C312 78.7 310.4 79 308.5 79C305 79 305 79 305 83.5V88H316H327V83.6C327 79.5 326.8 79.1 324.3 78.8C321.6 78.5 321.3 77.9 312.9 50C304.6 22.5 304.4 21.5 306.4 21C308.1 20.5 308.5 19.6 308.5 16V11.5L294.8 11.2L281 10.9V16ZM300.1 38.3C302.6 46.7 304.5 53.8 304.3 54.2C304.1 54.7 299.6 55 294.4 55C289.2 55 285 54.7 285 54.2C285 52.3 294.4 22.1 294.9 22.5C295.2 22.8 297.5 29.9 300.1 38.3Z" fill="black"/>
<path d="M337 16V21H341H345L344.8 49.7L344.5 78.5L340.8 78.8C337 79.1 337 79.2 337 83.6V88H358.9H380.9L386.4 81.4L392 74.9V49.7V24.4L386.4 17.7L380.8 11H358.9H337V16ZM379.4 24.1L382 27.2V49.9V72.6L379.2 75.3C376.5 77.9 376 78 365.2 78H354V49.5V21H365.4H376.8L379.4 24.1Z" fill="black"/>
<path d="M408 16V21H412H416L415.8 49.7L415.5 78.5L411.8 78.8C408 79.1 408 79.2 408 83.6V88H419.5H431V83.5C431 79.2 430.9 79 428 79H425V70V60.9L432.7 61.2L440.4 61.5L444.9 69.9C447.8 75.4 448.9 78.5 448.2 78.8C447.5 79 447 81.1 447 83.6V88H456H465V83.5C465 79.3 464.8 79 462.3 79C459.8 79 459 78 454.6 69.6L449.6 60.2L454.8 54.2L460 48.2V36.1V24L454.7 17.8L449.4 11.5L428.7 11.2L408 11V16ZM447.7 24.2C450.9 27.3 451 27.6 451 35.9C451 44.1 450.9 44.5 447.8 47.7C444.6 51 444.6 51 434.8 51H425V36V21H434.7C444.3 21 444.5 21 447.7 24.2Z" fill="black"/>
<path d="M479 16V21H483H487L486.8 49.7L486.5 78.5L482.8 78.8C479 79.1 479 79.2 479 83.6V88H503.5H528V76.5V65H524H520V72V79H508H496V66.5V54H508H520V49.5V45H508H496V33V21H508H520V27.5V34H524H528V22.5V11H503.5H479V16Z" fill="black"/>
<path d="M550.6 17.9L545 24.7V33.5V42.2L550.2 48.6L555.3 55H565.9C575.9 55 576.5 55.1 579.2 57.7C581.6 60 582 61.1 582 66.1C582 70.8 581.5 72.4 579.4 74.9C576.9 77.9 576.6 78 568 78H559.2L556.1 74.5C553.4 71.4 553 70.2 553 65.5V60H548.5H544V67.4V74.9L549.6 81.4L555.1 88H568H580.9L586.5 81.1L592 74.3V66.2V58.1L586.4 51.6L580.9 45H570C559.1 45 559.1 45 557.1 42.1C553.9 37.7 554.2 28.8 557.6 24.3C560.1 21.1 560.2 21 567.9 21H575.7L578.8 24.9C581.5 28.2 582 29.8 582 33.9V39H586.5H591V31.9V24.9L585.3 17.9L579.6 11H567.9H556.2L550.6 17.9Z" fill="black"/>
<path d="M642 16V21H646H650L649.8 49.7L649.5 78.5L645.8 78.8C642 79.1 642 79.2 642 83.6V88H663.9H685.9L691.4 81.4L697 74.9V49.8V24.7L691.5 17.9L685.9 11H664H642V16ZM684.4 24.1L687 27.2V49.9V72.6L684.2 75.3C681.5 77.9 681 78 670.2 78H659V49.5V21H670.4H681.8L684.4 24.1Z" fill="black"/>
<path d="M713 16V21H717H721L720.8 49.7L720.5 78.5L716.8 78.8C713 79.1 713 79.2 713 83.6V88H737.5H762V76.5V65H758H754V72V79H742H730V66.5V54H742H754V49.5V45H742H730V33V21H742H754V27.5V34H758H762V22.5V11H737.5H713V16Z" fill="black"/>
<path d="M814 16V21H818H822L821.8 49.7L821.5 78.5L817.8 78.8C814 79.1 814 79.2 814 83.6V88H837.5H861V76.5V65H857H853V72V79H842H831V50V21H835H839V16V11H826.5H814V16Z" fill="black"/>
<path d="M883 16C883 20.3 883.3 21 885 21C886.1 21 887 21.3 887 21.7C887 22.2 884.1 31.9 880.6 43.5C877.1 55 873.3 67.8 872.1 71.7C870.2 78.2 869.6 79 867.5 79C865.2 79 865 79.4 865 83.5V88H875.5H886V83.5C886 79.2 885.9 79 883 79C879.5 79 879.4 78.5 881.8 70.5L883.6 64.5L896.6 64.2L909.6 63.9L911.8 70.8C913 74.6 914 77.9 914 78.3C914 78.7 912.4 79 910.5 79C907 79 907 79 907 83.5V88H918H929V83.6C929 79.5 928.8 79.1 926.3 78.8C923.6 78.5 923.3 77.9 914.9 50C906.6 22.5 906.4 21.5 908.4 21C910.1 20.5 910.5 19.6 910.5 16V11.5L896.8 11.2L883 10.9V16ZM902.1 38.3C904.6 46.7 906.5 53.8 906.3 54.2C906.1 54.7 901.6 55 896.4 55C891.2 55 887 54.7 887 54.2C887 52.3 896.4 22.1 896.9 22.5C897.2 22.8 899.5 29.9 902.1 38.3Z" fill="black"/>
<path d="M975 15.9996V20.9996H979H983L982.8 49.6996L982.5 78.4996L978.8 78.7996C975 79.0996 975 79.1996 975 83.5996V87.9996H987H999V83.4996C999 78.9996 999 78.9996 995.5 78.9996H992L992.1 51.1996C992.1 26.1996 992.3 23.7996 993.6 26.4996C994.4 28.0996 1001.1 42.4996 1008.4 58.4996L1021.8 87.4996L1028.9 87.7996L1036 88.0996V54.4996V20.9996H1039.5H1043V15.9996V10.9996H1031.5H1020V15.9996V20.9996H1023.5H1027V48.1996C1027 64.1996 1026.6 74.9996 1026.1 74.3996C1025.6 73.8996 1018.8 59.3996 1010.9 42.1996L996.5 10.9996H985.8H975V15.9996Z" fill="black"/>
<path d="M1063.6 17.9L1058 24.7V49.7V74.6L1063.5 81.3L1069 88H1083.5H1098L1103.5 81.3L1109 74.6V49.7V24.7L1103.4 17.9L1097.8 11H1083.5H1069.2L1063.6 17.9ZM1096.4 24.3L1099 27.7V50.2V72.6L1096.2 75.3C1093.5 77.9 1092.9 78 1083.5 78C1074.1 78 1073.5 77.9 1070.8 75.3L1068 72.6V50.2V27.7L1070.6 24.3L1073.1 21H1083.5H1093.9L1096.4 24.3Z" fill="black"/>
<path d="M1119 15.9996C1119 20.8996 1119.1 20.9996 1122 20.9996C1124.8 20.9996 1125 21.2996 1127.9 30.6996C1129.6 36.0996 1134.3 51.0996 1138.3 63.9996L1145.7 87.4996L1152.3 87.7996L1158.9 88.0996L1161.9 78.2996C1179.5 21.6996 1179.5 21.4996 1182.6 20.9996C1185.3 20.4996 1185.5 20.1996 1185.5 15.9996V11.4996L1174.8 11.1996L1164 10.8996V15.9996C1164 20.8996 1164.1 20.9996 1167 20.9996C1168.7 20.9996 1170 21.2996 1170 21.6996C1170 23.3996 1152.6 77.9996 1152.2 77.5996C1152 77.2996 1147.9 64.5996 1143.1 49.2996L1134.4 21.4996L1137.7 21.1996C1140.9 20.8996 1141 20.7996 1141 15.8996V10.9996H1130H1119V15.9996Z" fill="black"/>
<path d="M1194 16V21H1198.5H1203L1202.8 49.7L1202.5 78.5L1198.3 78.8L1194 79.1V83.6V88H1207H1220V83.5V79H1216H1212V50V21H1216H1220V16V11H1207H1194V16Z" fill="black"/>
<path d="M1247 16C1247 20.3 1247.3 21 1249 21C1250.1 21 1251 21.3 1251 21.7C1251 22.2 1248.1 31.9 1244.6 43.5C1241.1 55 1237.3 67.8 1236.1 71.7C1234.2 78.2 1233.6 79 1231.5 79C1229.2 79 1229 79.4 1229 83.5V88H1239.5H1250V83.5C1250 79.2 1249.9 79 1247 79C1243.5 79 1243.4 78.5 1245.8 70.5L1247.6 64.5L1260.6 64.2L1273.6 63.9L1275.8 70.8C1277 74.6 1278 77.9 1278 78.3C1278 78.7 1276.4 79 1274.5 79C1271 79 1271 79 1271 83.5V88H1282H1293V83.6C1293 79.5 1292.8 79.1 1290.3 78.8C1287.6 78.5 1287.3 77.9 1278.9 50C1270.6 22.5 1270.4 21.5 1272.4 21C1274.1 20.5 1274.5 19.6 1274.5 16V11.5L1260.8 11.2L1247 10.9V16ZM1266.1 38.3C1268.6 46.7 1270.5 53.8 1270.3 54.2C1270.1 54.7 1265.6 55 1260.4 55C1255.2 55 1251 54.7 1251 54.2C1251 52.3 1260.4 22.1 1260.9 22.5C1261.2 22.8 1263.5 29.9 1266.1 38.3Z" fill="black"/>
<path d="M194 101C194 101.7 379.2 102 747.5 102C1115.8 102 1301 101.7 1301 101C1301 100.3 1115.8 100 747.5 100C379.2 100 194 100.3 194 101Z" fill="black"/>
<path d="M1209.1 171.1C1199.2 173.1 1186.9 183.9 1168.7 206.7L1155.8 223H1151C1147 223 1146 223.4 1145.5 225C1144.7 227.6 1145.6 229 1148.1 229C1149.3 229 1150 229.4 1149.8 230C1149.7 230.5 1145.9 235 1141.5 240.1C1127.5 256.1 1116 264.2 1107 264.3C1092.1 264.5 1085.3 245.8 1093.7 227.9C1097.4 220 1100.9 215.7 1106.4 212.5C1112.3 209 1118.7 208.3 1123.5 210.6C1131.4 214.3 1133.1 222.6 1128 232.6C1124.6 239.3 1124.5 240 1126.3 240C1128.2 240 1132.4 235.2 1134.9 230.3C1137.7 224.7 1137.8 214 1135.1 209C1131 201.2 1120.9 199.4 1110.3 204.5C1102.1 208.6 1092.2 218.8 1087.6 228.1C1079 245.7 1080.5 265.9 1091.3 274.4C1094.4 276.9 1096.2 277.5 1101.6 277.8C1107.3 278.2 1108.8 277.9 1114.4 275.1C1121.9 271.4 1135.6 257.7 1149 240.5L1157.6 229.5L1169.7 229.2L1181.9 228.9L1173.8 242.7C1165.3 257.2 1160.6 266.6 1159.4 271.3L1158.8 274.1L1166 273.8L1173.3 273.5L1174.7 269.5C1176.9 263.2 1180.6 256.5 1200 224C1220.9 189.1 1223 185.1 1223 179.4C1223 171.9 1218.4 169.2 1209.1 171.1ZM1210.8 178.8C1211.2 181.4 1187.9 220.5 1185 222C1184 222.6 1178.6 223 1173 223H1162.8L1164.5 220.2C1168.8 213.6 1183.3 194.9 1189 188.7C1199 177.8 1210 172.8 1210.8 178.8Z" fill="black"/>
<path d="M99.1 172C92.3 173.4 85.1 176 78.5 179.3C68.2 184.4 51.9 196.2 43.7 204.3C36.2 211.8 35.9 212 33.7 210.5C31 208.7 27.5 202.8 26.5 198.3C24.8 189.9 30.8 182.1 40.8 179.8C45.4 178.8 47.3 178.9 52.2 180.2C62.6 182.9 60.7 178.4 50.1 175.3C37.2 171.6 22.7 176.7 19.1 186.3C15.1 196.8 20.9 209.2 32.8 215.6C32.9 215.7 31.3 219.1 29.1 223.1C20.7 238.9 17.8 255.5 21.9 264.5C23.9 269.1 28.9 273.7 32.7 274.6C40 276.5 52.3 272.8 61 266C67.2 261.3 67.4 261.5 63.5 268.6C50 292.9 41.7 302.8 30.8 308C24.2 311.1 18.8 311.8 14.6 309.9C11.1 308.3 10.7 306.3 13.1 302.4C16.3 297.2 14.2 291 9.30002 291C5.80002 291 3.20002 292.6 1.50002 296C-0.499975 300 -0.399975 303.9 2.00002 307.8C7.40002 316.7 25.4 316.9 42.8 308.3C58.2 300.7 66.7 289.8 86.9 251.6C93.6 239.1 99 228.6 99 228.4C99 228.2 96.3 228 93 228H87L81.7 236.2C66 260.5 53.7 270.3 43 267.1C36.4 265.1 34.8 261.6 35.3 250C35.6 242.1 36.2 239.3 38.8 233C40.6 228.9 43 224.3 44.2 222.8C46.5 220 46.5 220 53.5 221.1C81.4 225.6 119.3 206.5 122.5 186.4C123.4 181 121.1 175.6 117 173.5C113 171.5 105 170.8 99.1 172ZM108 178.5C109.7 179.4 111.3 181.3 112 183.4C113.6 188.3 110.8 194.2 103.3 201.6C92.8 212.2 77.8 218 61.1 218C56.4 218 51.5 217.7 50.3 217.4C48.1 216.8 48.1 216.6 52.3 210.7C62.2 196.4 77 183.4 88.5 178.7C93.6 176.7 104.2 176.5 108 178.5Z" fill="black"/>
<path d="M507.7 173.5C495.7 178.5 481.1 191.1 469.4 206.5C466.1 210.9 458.7 221.4 453.1 229.8C447.4 238.2 442.6 244.9 442.4 244.7C442.2 244.5 443.4 240.3 445 235.4C446.7 230.5 449.9 219.1 452.1 210C457.4 188.5 459.6 182.5 464.3 177.8C468.2 173.8 468.5 171.8 464.9 172.7C462.1 173.5 453 182 447.2 189.3C444.5 192.7 435.2 206 426.4 218.9C407 247.5 398.3 257.3 387.2 262.7C374.9 268.8 366 267.8 360.9 259.7C359.2 256.9 358.9 255.2 359.2 246.9C359.5 238.5 360 236.5 362.8 230.7C366.7 222.8 374.3 215.5 380.3 213.9C386 212.4 391.8 213.3 394.8 216.3C399.7 221.2 398.5 233.4 392.5 239C387.7 243.5 390.8 244.7 395.9 240.4C405.6 232.3 407.8 217.2 400.6 209.5C397.5 206.2 396.9 206 391.1 206C378.3 206 364.8 216.4 357 232.3C347.7 251.4 347.8 265 357.4 273.8C367.6 283.2 381.8 280 397.9 264.6C405 257.8 409 252.4 423.8 230C433.4 215.4 441.7 203 442.2 202.5C443 201.7 439.6 211.2 438.5 213C438.3 213.4 435.8 222.2 433.1 232.6C427.5 253.6 424.3 262.6 420.5 267.6C415.1 274.7 418.6 274.9 427 267.9C435.7 260.7 442.3 252.3 457.7 229.2C466.5 216 473.8 206.2 478.7 201.2C485.2 194.5 485.7 194.1 482.6 198.5C466.9 220.1 460.3 231.7 455.1 246.3C451 258 450.3 264.4 452.7 269C456.8 276.9 464.2 275.5 475 264.5L482.5 257L482.2 262.8C481.9 269.3 483.3 272.8 487.1 274.9C489.4 276.2 490.1 276.1 494.1 274.2C496.5 273 500.9 269.8 503.8 267C506.7 264.3 509.1 262 509.3 262C509.4 262 509.6 264.1 509.6 266.7C509.8 272.2 512.8 275.5 516.4 274.4C517.6 274 519.9 273.6 521.5 273.6C528.1 273.3 538 262.3 549.5 242.5L556.2 231.1L560.8 231.7C563.4 232 565.6 232.4 565.7 232.5C565.9 232.6 562.5 236.6 558.3 241.5C549.9 251.4 545.7 259.2 545.6 265.6C545.4 272.7 550.3 275.7 557.4 273.1C560.2 272 567 265.5 571.7 259.5L574.8 255.5L572.9 261.4C566.2 281.3 587 280.7 600.6 260.6L604 255.5L603.4 260C602.5 266.5 604.9 271.6 609.6 273.6C624.2 279.7 653 253.2 653 233.8C653 227.4 651.9 224.5 648.6 221.8C645.4 219.2 641.7 219.6 636.1 223.5C633.2 225.4 631.1 226.6 631.4 226.2C638.5 214.1 652 189.5 652.8 187C654.7 181.7 654.4 181 650.1 181C643.1 181 639.9 182 640.5 184.1C641.3 186.4 638.7 191.4 623 218.5C616 230.6 608.3 244 605.9 248.4C603.5 252.7 598.5 259.4 594.9 263.2C589.3 269.2 587.9 270.1 585.4 269.8C580.2 269.2 581.1 266 591.1 249C600.6 232.9 605 224.4 605 222.2C605 221.2 603.4 221 598.8 221.2C592.6 221.5 592.5 221.5 591.5 225C590.1 229.9 583.9 241.1 582.3 241.7C581.5 242 579.1 245 576.8 248.4C567.7 261.9 561 268.1 559 265C556.3 260.7 559.2 254 571.6 235.3C575.7 229.1 579.3 223.4 579.6 222.6C580.4 220.6 577.8 220.5 571.5 222.2C567.5 223.3 566.5 223.2 563.6 221.6C561.7 220.6 559.7 220.1 559.1 220.5C558.4 220.8 555.7 225.5 553.1 230.9C548.6 239.8 536.5 259 535.4 259C534.7 259 536.4 256.1 540.4 250.5C542.4 247.8 544 245.1 544 244.6C544 242.9 540.6 246.6 535.9 253.7C529.8 262.7 524.6 268 521.8 268C520 268 519.8 267.6 520.3 264.1C520.5 262 523.2 256.1 526.2 250.9C532.4 240.3 542 222.4 542 221.6C542 221.3 539.5 221 536.5 221C532 221 530.9 221.4 529.9 223.1L528.8 225.2L526.4 222.9C523 219.7 518 220 511 223.5C504.6 226.7 487.9 243.1 481.1 252.9C474.4 262.4 467.9 265.6 466 260.4C463.9 255.1 467.9 243.2 478.2 223.1C486.6 206.8 492.1 198.4 501.7 186.9C507.3 180.1 510.1 177.6 514.5 175.6C524.2 171 518.2 169.1 507.7 173.5ZM523.8 224.2C526.6 227 523.7 235.6 515.5 248.5C506.3 263.1 499.4 269.9 495.1 268.5C490.3 267 491.6 260.2 499 248C506 236.4 511.4 229.4 516.2 226C520.7 222.7 522 222.4 523.8 224.2ZM642.8 230.2C642 239.5 630.4 261 622.3 268C618.5 271.4 613.7 272 612.2 269.4C609.6 264.7 618 245.4 627.9 233.5C632.7 227.7 636.6 225 640.4 225C643.2 225 643.2 225 642.8 230.2Z" fill="black"/>
<path d="M843 172.999C830.2 176.499 819.5 182.399 810.9 190.999C800.6 201.199 797.5 207.599 797.5 218.699C797.5 226.399 797.7 227.099 800.4 229.899C805.6 235.299 814.1 233.899 822.9 226.399C827.9 222.099 828.7 218.599 824 221.999C822.3 223.199 819.2 224.399 817 224.699C808.2 225.899 805 215.199 810.7 203.199C814.4 195.099 824.7 185.199 834.2 180.499C844.5 175.499 858.2 173.099 866.4 174.899C880.1 177.999 885.6 190.199 879 202.999C874 212.899 865.8 218.599 854 220.499C847.1 221.699 845.7 223.199 850.6 223.999C853.4 224.499 853.5 224.799 853.5 229.499C853.4 233.699 852.5 236.099 847.8 244.499C841.3 255.899 839.6 261.799 841.1 267.299C842.2 271.399 846 273.999 850.8 273.999C855.2 273.999 863.4 269.399 868.4 263.999L873 259.099V263.799C873 269.399 874.6 272.899 878.1 274.899C880.4 276.199 881.1 276.099 885.1 274.199C887.5 272.999 891.9 269.799 894.8 266.999C899.8 262.199 901.9 260.799 900.5 262.999C899.2 265.199 901.2 272.099 903.5 273.599C905.7 274.999 906.3 274.999 910.2 273.199C914.8 271.199 921 265.799 924.8 260.499L926.9 257.499L925.4 262.499C922.7 271.699 926.1 276.899 934.2 275.599C939.5 274.699 943.7 272.199 949 266.399C951.3 263.899 953.3 261.999 953.4 262.199C953.5 262.399 954.1 264.299 954.6 266.399C955.7 271.299 959.7 274.499 964.8 274.399C970.7 274.399 977.9 270.299 986.7 261.599L995 253.499L994.4 258.499C993.4 268.099 999.3 274.299 1009.4 274.199C1017.1 274.099 1023.3 270.899 1032 262.099C1043.5 250.599 1049.4 236.999 1047 228.099C1045.8 223.399 1043.7 221.499 1038.4 220.099C1026.9 216.999 1010.5 227.799 995.1 248.599C981.1 267.499 965 274.099 965 260.999C965 251.999 984.1 222.999 990 222.999C992.4 222.999 994 225.899 994 230.399C994 232.299 994.4 234.199 995 234.499C996.2 235.199 1002 226.399 1002 223.899C1002 221.499 998.2 218.999 994.5 218.999C980.8 218.999 963.1 233.799 956.8 250.399C955.1 254.699 952.6 258.299 947.9 263.299C942.3 269.099 940.9 270.099 938.4 269.799C933.2 269.199 934.1 265.899 944.1 248.999C953.6 232.899 958 224.399 958 222.199C958 221.199 956.4 220.999 951.8 221.199L945.6 221.499L944.4 225.499C943 230.399 936.7 241.399 933 245.499C931.5 247.099 928.4 251.299 926.1 254.799C920.7 262.799 915.5 267.999 912.8 267.999C911 267.999 910.8 267.599 911.3 264.099C911.5 261.999 914.2 256.099 917.2 250.899C923.4 240.299 933 222.399 933 221.599C933 221.299 930.5 220.999 927.5 220.999C923 220.999 921.9 221.399 920.9 223.099L919.8 225.199L917.4 222.899C909.6 215.599 891.3 227.199 877.2 248.299C873.6 253.699 868.8 259.699 866.6 261.599C862.7 264.899 857.2 266.799 855.1 265.499C853 264.299 854 258.899 858 249.599C862.8 238.299 863.2 233.199 859.5 227.799C858.1 225.799 857.3 223.899 857.8 223.699C858.2 223.399 860.6 222.899 863.2 222.599C870.4 221.499 881.3 215.699 886 210.299C890 205.699 893 198.299 893 192.999C893 185.199 887.9 177.799 880.1 174.099C875.2 171.899 873 171.499 862.5 171.299C853 171.099 848.9 171.399 843 172.999ZM914.8 224.199C917.7 227.099 914.6 235.799 905.5 249.999C898.8 260.499 894.4 265.599 890.5 267.399C884.7 270.199 882 267.299 883.9 260.199C886.2 251.799 900.4 230.899 907.2 225.999C911.7 222.699 913 222.399 914.8 224.199ZM1037.8 224.199C1043.2 229.599 1028 259.599 1016.1 267.199C1010.8 270.499 1008.9 270.699 1006.4 267.899C1004.6 265.899 1004.6 265.599 1006.3 259.199C1009.4 247.399 1020.4 231.899 1029.9 225.799C1034.9 222.699 1036 222.399 1037.8 224.199Z" fill="black"/>
<path d="M139 182.9C135.1 183.4 134.5 183.8 133.9 186.5C133.3 189.6 128.8 197.7 109.7 230.5C103.6 240.9 97.6 252 96.3 255C92.2 265 93.9 275.1 99.8 275C103.5 274.9 110.4 270.8 115.6 265.5L121 259.9V264.2C121 269.5 122.7 273 126.1 274.9C128.4 276.2 129.1 276.1 133.1 274.2C135.5 273 139.9 269.8 142.8 267C147.8 262.2 149.9 260.8 148.5 263C147.2 265.2 149.2 272.1 151.5 273.6C153.7 275 154.3 275 158.2 273.2C162.8 271.2 168.7 266 173 260.2L175.5 256.8L175.2 262C175 264.8 175.1 268.2 175.4 269.5C176.3 272.9 179.9 276 183 276C186.3 276 193.7 271.2 198.4 266L202 262V265C202 271.6 205.8 275 211.5 273.6C212.8 273.3 216.6 270.7 219.9 268L225.9 263L226.2 267.2C226.8 275.8 234.6 277.2 243.5 270.5C246 268.6 248 267.3 248 267.6C248 268 246 272.1 243.5 276.9C232.6 297.5 215.5 311.3 208.2 305.3C206.2 303.7 206.1 303.2 207.1 300.4C209.1 295.2 206.7 292.1 201.6 293.4C198.6 294.1 196.7 299 198 302.5C200.1 307.9 207.1 309.9 217.7 308C231.4 305.6 244.5 295.6 253 280.9C256.6 274.6 257.7 273.4 259.6 273.8C262.8 274.4 272.9 264.4 287.1 246.7C294 238 299 232.6 299 233.6C299 237.3 293.9 254.5 291 260.6C288.2 266.3 283.8 271 281.2 271C279.9 271 279 268.5 279 264.9C279 261.6 277.6 261.2 274.2 263.6C270.7 266 271.2 270.6 275.3 273C279 275.3 282.2 275.5 287.1 273.8C299.2 269.7 304.3 261.4 309.1 238.5C310.2 233 312 226.6 313 224.2L314.9 220H311C308.8 220 306.1 220.5 304.8 221.1C303.5 221.6 298.5 227.6 293.5 234.3C283.6 247.7 270.8 261.6 264.3 266.2C261.9 267.8 260 268.8 260 268.5C260 268.1 263.1 262.6 266.9 256.2C284.5 226.4 287 220.9 283.8 219.8C283.1 219.5 280.3 219.6 277.5 219.9C273.2 220.4 272.4 220.8 272 223C271.3 226.5 261.5 245.3 256.7 252.4C250 262.4 240.5 270 238 267.4C236.6 266 240.4 256.8 246.8 245.7C254.3 232.9 259 223.5 259 221.5C259 220.3 257.8 220 253.5 220H248L245.5 225.6C238.2 242 218.6 269 214.9 267.8C211.5 266.7 213 262 222.8 243.3C228.3 232.9 236.6 217.6 241.3 209.4C255.9 183.7 256.4 182 249.3 182C243.4 182 241 183 241 185.3C241 187.4 223 221.2 220.5 223.9C219.4 225 219 224.9 218.1 223.1C215.2 217.8 201.4 222.9 191.1 233C187.9 236.2 181.7 243.8 177.4 250C168.5 262.9 163.8 268 160.8 268C159 268 158.8 267.6 159.3 264.1C159.5 262 162.2 256.1 165.2 250.9C171.4 240.3 181 222.4 181 221.6C181 221.3 178.5 221 175.5 221C171 221 169.9 221.4 168.9 223.1L167.8 225.2L165.4 222.9C157.7 215.6 137.6 228.3 125.9 247.7C119.5 258.2 111.2 267 107.6 267C105.8 267 105 266.5 105 265.3C105 263 113.2 247.1 128.3 220.5C135.4 207.8 142.5 195.2 144.1 192.4C145.7 189.6 147 186.1 147 184.6C147 181.8 147.1 181.8 139 182.9ZM162.8 224.2C165.7 227.1 162.6 235.8 153.5 250C146.8 260.5 142.4 265.6 138.5 267.4C132.7 270.2 130 267.3 131.9 260.2C134.2 251.8 148.4 230.9 155.2 226C159.7 222.7 161 222.4 162.8 224.2ZM216.6 225.5C217.7 228.2 213 240.6 207.8 249C198.2 264.7 188 272.7 185 267C183.1 263.4 185.6 256.7 193.2 245.4C202.1 232 209.7 224 213.3 224C214.9 224 216.3 224.7 216.6 225.5Z" fill="black"/>
<path d="M737 182.9C733.1 183.4 732.5 183.8 731.9 186.5C731.3 189.6 726.8 197.7 707.7 230.5C694.6 253 692.1 258.6 692 265.7C692 271.2 694.2 275 697.5 275C700.3 275 706.3 272 710.6 268.5C714.9 264.9 730 243.7 730 241.1C730 238.7 727.5 241.6 723 249.1C717.6 258.2 709 267 705.6 267C703.8 267 703 266.5 703 265.3C703 263 711.2 247.1 726.3 220.5C733.4 207.8 740.5 195.2 742.1 192.4C743.7 189.6 745 186.1 745 184.6C745 181.8 745.1 181.8 737 182.9Z" fill="black"/>
<path d="M865 184.3C858.4 187 851.7 191.5 847.3 196.2C843.7 200 834.5 214.1 824 232C809.6 256.6 801.2 266.7 791.8 271C786.2 273.5 779.9 273.6 776.9 271.1C774.7 269.3 774.6 268.9 775.8 265.8C778.4 258.6 776.9 255 771.5 255C764.3 255 761.8 265 767.4 270.9C772.4 276.1 779.8 277.2 792.3 274.5C803.2 272.2 811.4 267.6 820.6 258.5C829.7 249.5 832.4 245.7 844.1 224.4C860.5 194.5 863.9 189.6 871.2 185.9C879.1 181.9 874.1 180.6 865 184.3Z" fill="black"/>
<path d="M1366 182.9C1362.1 183.4 1361.5 183.8 1360.9 186.5C1360.3 189.6 1347.3 212.8 1330.4 241.1C1319.1 260 1310.1 270.4 1305.4 269.8C1300.2 269.2 1301.1 265.9 1311.1 249C1320.6 232.9 1325 224.4 1325 222.2C1325 221.2 1323.4 221 1318.8 221.2C1312.6 221.5 1312.6 221.5 1311.5 225.1C1310.1 230.1 1302.8 243 1301.3 243C1300.7 243 1297.7 246.5 1294.7 250.7C1282.4 268.3 1274 272.5 1278.9 258.7C1279.9 255.6 1284 247.7 1287.8 241.3C1296 227.2 1296.5 226.3 1297.4 222.7C1298 220.2 1297.8 220 1295.1 220C1287 220 1286.2 220.6 1281.6 230.5C1270.5 254.2 1252.9 274.5 1251.2 265.7C1251 264.7 1254 258.4 1257.8 251.7C1267.6 234.7 1272 225.9 1272 223.2C1272 221.2 1271.6 221 1266 221C1260.3 221 1260 221.1 1259.4 223.7C1258.5 228.2 1257.2 230.8 1249.5 244.5C1245.4 251.6 1241.6 259.5 1241 261.9C1239 269.6 1241.5 274 1247.9 274C1252.3 274 1256.6 271.2 1263 263.9L1267.5 258.9L1267.2 264.5C1266.9 268.8 1267.2 270.6 1268.6 272.1C1273.2 277.2 1281.4 272.2 1293 257.5C1294.4 255.7 1295 255.3 1294.5 256.5C1292.1 262.7 1291 267.8 1291.6 270.3C1292.5 274.4 1296.1 276.4 1301.2 275.6C1306.7 274.7 1310.9 272 1316.5 265.8L1321 260.8V265.9C1321 271.4 1323.3 275 1326.8 275C1330.5 274.9 1337.4 270.8 1342.6 265.5L1348 259.9V264.2C1348 269.5 1349.7 273 1353.1 274.9C1355.4 276.2 1356.1 276.1 1360.1 274.2C1362.5 273 1366.9 269.8 1369.8 267C1372.7 264.3 1375.1 262 1375.3 262C1375.4 262 1375.6 264.1 1375.6 266.7C1375.8 272.2 1378.8 275.5 1382.4 274.4C1383.6 274 1385.4 273.7 1386.5 273.8C1392.2 274.2 1403.4 261.6 1414.4 242.7L1421.2 231.1L1425.8 231.7C1428.4 232 1430.6 232.4 1430.7 232.5C1430.9 232.6 1427.5 236.6 1423.3 241.5C1414.9 251.4 1410.7 259.2 1410.6 265.6C1410.4 274.4 1418 276.9 1426.1 270.6C1431.5 266.5 1448 245.6 1448 242.8C1448 240.5 1445.7 242.6 1441.9 248.2C1432.7 261.9 1426 268.2 1424 265C1421.3 260.7 1424.2 254 1436.6 235.3C1440.7 229.1 1444.3 223.4 1444.6 222.6C1445.4 220.6 1442.8 220.5 1436.5 222.2C1432.5 223.3 1431.5 223.2 1428.6 221.6C1426.7 220.6 1424.7 220.1 1424.1 220.4C1423.5 220.8 1420.5 226 1417.5 232C1414.4 238 1410.8 243.5 1409.5 244.4C1408.1 245.3 1404.8 249.4 1402 253.5C1395.8 262.7 1390.6 268 1387.8 268C1386 268 1385.8 267.6 1386.3 264.1C1386.5 262 1389.2 256.1 1392.2 250.9C1398.4 240.3 1408 222.4 1408 221.6C1408 221.3 1405.5 221 1402.5 221C1398 221 1396.9 221.4 1395.9 223.1L1394.8 225.2L1392.4 222.9C1384.7 215.6 1364.6 228.3 1352.9 247.7C1346.5 258.2 1338.2 267 1334.6 267C1332.8 267 1332 266.5 1332 265.3C1332 263 1340.2 247.1 1355.3 220.5C1362.4 207.8 1369.5 195.2 1371.1 192.4C1372.7 189.6 1374 186.1 1374 184.6C1374 181.8 1374.1 181.8 1366 182.9ZM1389.8 224.2C1392.7 227.1 1389.6 235.8 1380.5 250C1373.8 260.5 1369.4 265.6 1365.5 267.4C1359.7 270.2 1357 267.3 1358.9 260.2C1361.2 251.8 1375.4 230.9 1382.2 226C1386.7 222.7 1388 222.4 1389.8 224.2Z" fill="black"/>
<path d="M606.1 196.9C601.8 201.2 602.6 207 607.4 207C610.8 207 615.2 201.8 614.8 198.4C614.6 196 614 195.5 611.3 195.2C609.1 195 607.5 195.5 606.1 196.9Z" fill="black"/>
<path d="M959.1 196.9C954.8 201.2 955.6 207 960.4 207C963.8 207 968.2 201.8 967.8 198.4C967.6 196 967 195.5 964.3 195.2C962.1 195 960.5 195.5 959.1 196.9Z" fill="black"/>
<path d="M1326.1 196.9C1321.8 201.2 1322.6 207 1327.4 207C1330.8 207 1335.2 201.8 1334.8 198.4C1334.6 196 1334 195.5 1331.3 195.2C1329.1 195 1327.5 195.5 1326.1 196.9Z" fill="black"/>
<path d="M685.8 220.399C674.4 223.499 661.7 234.599 655.4 247.299C651.3 255.299 649.9 263.999 652 268.899C654.4 274.899 663.3 276.499 671.2 272.399C675.6 270.099 691.2 254.799 695.5 248.499C701.8 239.399 698.9 240.499 691 250.099C679.2 264.599 668.4 271.499 663.9 267.399C661.4 265.199 661.5 261.399 664.1 254.499C665.7 250.099 666.7 248.899 668.8 248.399C685.1 244.799 698 234.799 698 225.799C698 223.099 697.4 221.699 695.8 220.599C693.2 218.699 692.1 218.699 685.8 220.399ZM690 224.499C690 227.699 685.9 233.899 680.6 238.699C675.2 243.699 669 246.999 669 244.899C669 242.899 676.9 232.399 681.8 227.699C687 222.899 690 221.699 690 224.499Z" fill="black"/>
<path d="M1219.2 223.501C1210.2 228.001 1198.6 240.001 1193.8 249.701C1187.7 262.201 1189.9 273.101 1198.7 273.801C1201.9 274.001 1203.7 273.401 1207.9 270.601L1213.2 267.001L1208.9 274.801C1200.1 291.001 1192.9 299.901 1185.8 303.401C1179.9 306.401 1174.9 306.701 1172.6 304.401C1170.7 302.601 1170.7 302.401 1172.1 299.801C1172.7 298.701 1172.9 296.701 1172.6 295.401C1172.1 293.601 1171.3 293.001 1169.1 293.001C1163.9 293.001 1160.9 298.001 1163.2 302.701C1165.1 306.701 1169.4 308.401 1177.5 308.301C1190.7 308.201 1202.4 301.901 1211.2 290.201C1216.3 283.401 1230.4 260.601 1243.6 237.501L1252.8 221.501L1247.3 221.201C1243.2 221.001 1241.3 221.301 1239.9 222.601C1238.2 224.101 1237.9 224.101 1235.4 222.101C1231.6 219.101 1227.3 219.501 1219.2 223.501ZM1233.4 228.201C1233.4 234.001 1230 240.601 1220.6 253.301C1213 263.601 1209 267.001 1204.2 267.001C1201.2 267.001 1201 266.801 1201 263.201C1201 258.701 1206.9 247.501 1214.5 237.501C1220.7 229.401 1223.3 226.701 1227.5 224.601C1232.2 222.101 1233.5 222.901 1233.4 228.201Z" fill="black"/>
<path d="M201.7 320.101C188.5 323.301 172 338.301 161.3 356.701C150.6 375.201 149.9 375.901 144.4 374.601C140.8 373.701 134.9 368.001 132.9 363.501C129.1 355.301 131.3 345.201 138.6 337.101C141.3 334.001 144.8 331.501 147.5 330.501C151.7 328.901 153.4 328.901 160.3 330.601C162.4 331.101 163 330.901 163 329.701C163 324.901 149.7 324.901 140.9 329.601C133.9 333.401 127 340.301 124 346.401C121.2 352.301 120.9 361.401 123.4 367.101C125.3 371.701 132.3 377.801 136.4 378.501C138.1 378.801 141.4 379.401 143.8 379.801L148 380.501L140.9 392.501C137 399.101 133.3 405.001 132.6 405.701C131.8 406.501 129.7 406.401 124 404.901C115.8 402.701 108.4 403.001 102 405.601C97.6 407.501 94 410.801 94 413.101C94 415.901 98.7 420.801 102.7 422.101C107.5 423.701 117.1 422.801 124.5 420.001C132.3 417.101 135.9 417.201 145 420.601C154.9 424.301 165.4 424.601 171.7 421.201C175.5 419.201 178 415.701 176.6 414.301C176.3 414.001 174.9 414.701 173.4 415.901C171.9 417.001 169.7 418.001 168.4 418.001C166 418.001 152.7 414.001 146.7 411.501L143.2 410.101L146.9 406.201C148.9 404.101 152.9 397.801 155.8 392.301C162 380.601 165.2 377.301 173.5 374.001C182.8 370.301 190 365.701 197.9 358.401C209.5 347.601 217 335.701 217 327.901C217 321.701 209.9 318.101 201.7 320.101ZM209 325.501C212.9 330.201 199.1 350.601 183.6 362.901C177.8 367.601 170.3 371.701 169.4 370.801C169.2 370.601 172.2 364.901 176 358.101C190.2 333.301 197.9 324.001 204.4 324.001C206.2 324.001 208.3 324.701 209 325.501ZM119.9 409.701C122.7 410.601 124.9 411.801 124.7 412.401C123.9 414.801 115.6 418.001 110 418.001C103.7 418.001 101.6 416.601 102.2 412.801C102.8 408.101 110.8 406.701 119.9 409.701Z" fill="black"/>
<path d="M555 322C542.2 325.5 531.5 331.4 522.9 340C512.6 350.2 509.5 356.6 509.5 367.7C509.5 375.4 509.7 376.1 512.4 378.9C517.6 384.3 526.1 382.9 534.9 375.4C539.9 371.1 540.7 367.6 536 371C534.3 372.2 531.2 373.4 529 373.7C520.3 374.9 517.1 364.5 522.5 352.4C526 344.4 536.3 334.6 546 329.8C553.4 326.2 565.7 323 572.3 323C578.7 323 585.6 325.8 589.3 329.9C594.8 336 595.3 343.5 590.9 352.2C586 361.8 577.7 367.6 566 369.5C559.1 370.7 557.7 372.2 562.6 373C565.4 373.5 565.5 373.8 565.5 378.5C565.4 382.7 564.5 385.1 559.8 393.5C553.3 404.9 551.6 410.8 553.1 416.3C554.2 420.4 558 423 562.8 423C567.2 423 575.4 418.4 580.4 413L585 408.1V412.8C585 418.4 586.6 421.9 590.1 423.9C592.4 425.2 593.1 425.1 597.1 423.2C599.5 422 603.9 418.8 606.8 416C611.8 411.2 613.9 409.8 612.5 412C611.2 414.1 613.2 421.1 615.5 422.6C617.6 423.9 618.2 423.9 621.4 422.6C627.3 420.2 631.9 416 637.3 408.5C640 404.7 641.9 402.4 641.5 403.5C636.4 416.3 636.2 420.8 640.6 423.7C642.4 424.8 644.2 425.1 647.2 424.6C652.5 423.7 656.7 421.2 662 415.4C664.3 412.9 666.3 411 666.4 411.2C666.5 411.4 667.1 413.3 667.6 415.4C668.7 420.3 672.7 423.5 677.8 423.4C683.5 423.4 690.7 419.3 699.1 411.3L706.8 404L706.3 408.2C705.1 420.6 718.1 427.1 731.6 420.9C738.2 417.8 750.7 405.2 754.7 397.5C758.7 389.7 760.3 382 759 377.1C757.8 372.4 755.7 370.5 750.4 369.1C739.4 366.2 722.3 376.8 711.2 393.4C702.9 406 689.8 417 683.2 417C677.7 417 676.4 409.9 680.5 401.2C684 393.7 693 380 697.4 375.7C703.2 369.9 707 371.4 707 379.4C707 381.3 707.4 383.2 708 383.5C709.2 384.2 715 375.4 715 372.9C715 370.5 711.2 368 707.5 368C693.9 368 676.2 382.7 669.8 399.4C668.2 403.5 665.5 407.3 660.9 412.2C655.3 418.2 653.9 419.1 651.4 418.8C646.2 418.2 647.1 415 657.1 398C666.5 382.1 671 373.4 671 371.2C671 370.4 669.1 370 664.9 370C659.4 370 658.8 370.2 658.2 372.2C657 377 648.7 392 646.4 393.5C645.1 394.3 641.8 398.4 639 402.5C632.9 411.5 627.6 417 625 417C621.5 417 622.6 411.2 627.6 402.9C630.7 397.9 645 371.3 645 370.6C645 370.3 642.5 370 639.5 370C635 370 633.9 370.4 632.9 372.1L631.8 374.2L629.4 371.9C621.9 364.8 602.9 376.4 590.3 395.8C583.3 406.5 579.6 410.7 574.8 413.1C565.4 417.9 563.8 413.2 569.9 398.7C574.8 387.3 575.2 382.2 571.5 376.8C570.1 374.8 569.3 372.9 569.8 372.7C570.2 372.4 572.6 371.9 575.2 371.6C582.4 370.5 593.3 364.7 598 359.3C602 354.7 605 347.3 605 342C605 334.2 599.9 326.8 592.1 323.1C587.2 320.9 585 320.5 574.5 320.3C565 320.1 560.9 320.4 555 322ZM627.4 374.2C629 376.8 627.1 382.5 621.4 392.5C611.7 409.5 602.4 419.3 597.7 417.4C593.4 415.8 594.9 408.9 602 397C609 385.4 614.4 378.4 619.3 374.9C623.7 371.7 625.7 371.5 627.4 374.2ZM749.8 373.2C755.2 378.6 740 408.6 728.1 416.2C722.8 419.5 720.9 419.7 718.4 416.9C716.6 414.9 716.6 414.6 718.3 408.2C721.4 396.4 732.4 380.9 741.9 374.8C746.9 371.7 748 371.4 749.8 373.2Z" fill="black"/>
<path d="M849.3 322.001C837.4 326.201 822.4 338.401 811.9 352.301C800.6 367.201 795.6 380.101 795.6 394.601C795.5 403.101 795.7 404.201 799 410.601C803.7 419.801 808.5 423.201 817.6 423.801C827.4 424.401 837.6 420.301 848.8 411.201L853 407.801V412.601C853 418.401 854.6 421.901 858.1 423.901C860.4 425.201 861.1 425.101 865.1 423.201C867.5 422.001 871.9 418.801 874.8 416.001C877.7 413.301 880.1 411.001 880.3 411.001C880.4 411.001 880.6 413.101 880.6 415.701C880.8 421.201 883.8 424.501 887.4 423.401C888.6 423.001 890.4 422.701 891.5 422.801C897.2 423.201 908.4 410.601 919.4 391.701L926.2 380.101L930.8 380.701C933.4 381.001 935.6 381.401 935.7 381.501C935.9 381.601 932.5 385.601 928.3 390.501C924.1 395.401 919.6 401.901 918.2 404.901C913.4 415.401 915.4 423.001 923 423.001C927.3 423.001 931.6 420.101 938.2 412.801L942.9 407.501L941.9 411.401C940 418.501 942.7 423.001 948.9 423.001C953.3 423.001 957.6 420.201 964 412.901L968.5 407.901L968.2 413.501C967.9 417.801 968.2 419.601 969.6 421.101C973.1 425.001 979.7 422.601 986.7 414.901L990.5 410.701L991.2 415.401C991.9 420.401 993.9 423.501 997.2 424.601C1000 425.401 1006.8 421.701 1012.8 416.001C1017.8 411.201 1019.9 409.801 1018.5 412.001C1017.2 414.201 1019.2 421.101 1021.5 422.601C1023.7 424.001 1024.3 424.001 1028.4 422.201C1030.9 421.101 1034.9 418.101 1037.4 415.601L1042 411.101L1039 416.401C1037.3 419.301 1036 422.001 1036 422.301C1036 422.701 1038.6 423.001 1041.8 423.001L1047.5 422.901L1057.5 406.901C1071.5 384.501 1079.9 375.001 1085.7 375.001C1089.5 375.001 1088.5 377.801 1079.9 391.501C1070.3 406.801 1068.9 409.401 1067.9 413.901C1067.1 417.401 1068.3 421.901 1070.3 423.201C1074.4 425.801 1083.6 422.401 1091 415.401L1096 410.701V414.101C1096 418.501 1097.9 422.101 1101.1 423.901C1103.4 425.201 1104.1 425.101 1108.1 423.201C1110.5 422.001 1114.9 418.801 1117.8 416.001C1122.8 411.201 1124.9 409.801 1123.5 412.001C1122.2 414.101 1124.2 421.101 1126.5 422.601C1128.6 423.901 1129.2 423.901 1132.5 422.601C1138.7 420.001 1143.4 415.501 1150.4 405.301C1154.2 399.901 1157.5 394.801 1157.8 394.001C1159 390.801 1154.8 395.401 1149.9 402.701C1143.8 411.701 1138.6 417.001 1135.8 417.001C1134 417.001 1133.8 416.601 1134.3 413.101C1134.5 411.001 1137.2 405.101 1140.2 399.901C1146.4 389.301 1156 371.401 1156 370.601C1156 370.301 1153.5 370.001 1150.5 370.001C1146 370.001 1144.9 370.401 1143.9 372.101L1142.8 374.201L1140.4 371.901C1134.7 366.501 1123.9 370.801 1111.5 383.401C1105.6 389.301 1102.4 393.601 1099.5 399.401C1097.3 403.701 1093.8 409.001 1091.7 411.201C1087.3 415.801 1081.3 418.701 1079.7 417.101C1078.4 415.801 1082.9 407.101 1091.5 394.001C1098.5 383.601 1100.8 377.101 1099.1 372.801C1097 367.301 1088.5 367.801 1079.7 374.101C1075.5 377.001 1074.1 377.601 1074.9 376.201C1075.5 375.001 1076 373.001 1076 371.601C1076 369.201 1075.6 369.001 1071.8 369.001C1064.8 369.001 1063 369.901 1063 373.001C1063 376.301 1056 389.001 1051.5 394.001C1049.7 395.901 1046.4 400.301 1044.1 403.801C1038.7 411.801 1033.5 417.001 1030.8 417.001C1029 417.001 1028.8 416.601 1029.3 413.101C1029.5 411.001 1032.2 405.101 1035.2 399.901C1041.4 389.301 1051 371.401 1051 370.601C1051 370.301 1048.5 370.001 1045.5 370.001C1041 370.001 1039.9 370.401 1038.9 372.101L1037.8 374.201L1035.4 371.901C1029.7 366.501 1018.9 370.801 1006.4 383.401C1000.5 389.401 997.4 393.401 994.7 399.101C991 406.701 983.1 416.001 980.4 416.001C976 416.001 979.1 406.701 988.8 390.301C997 376.201 997.5 375.301 998.4 371.701C999 369.201 998.8 369.001 996.1 369.001C988 369.001 987.2 369.601 982.6 379.501C971.5 403.201 953.9 423.501 952.2 414.701C952 413.701 955 407.401 958.8 400.701C968.6 383.701 973 374.901 973 372.201C973 370.201 972.6 370.001 967 370.001C961.3 370.001 961 370.101 960.5 372.701C959.5 377.301 955.7 385.201 952.5 389.501C950.8 391.701 947.4 396.401 945 399.901C939.9 407.501 932.7 415.001 930.5 415.001C928.7 415.001 927.6 410.901 928.5 407.301C929.3 404.101 937.1 390.701 944.6 379.701C947.6 375.301 950 371.401 950 370.901C950 369.701 946.8 369.801 941.5 371.201C937.5 372.301 936.5 372.201 933.6 370.601C931.7 369.601 929.7 369.101 929.1 369.401C928.5 369.801 925.5 375.001 922.5 381.001C919.4 387.001 915.8 392.501 914.5 393.401C913.1 394.301 909.8 398.401 907 402.501C900.8 411.701 895.6 417.001 892.8 417.001C891 417.001 890.8 416.601 891.3 413.101C891.5 411.001 894.2 405.101 897.2 399.901C903.4 389.301 913 371.401 913 370.601C913 370.301 910.5 370.001 907.5 370.001C903 370.001 901.9 370.401 900.9 372.101L899.8 374.201L897.4 371.901C892.8 367.601 884 369.801 874.3 377.601C872 379.501 869.7 381.001 869.1 381.001C868.6 381.001 866 384.201 863.4 388.101C857.4 397.001 850.3 403.501 842 407.401C836.4 410.101 834.4 410.501 827.3 410.501C817.7 410.501 814.9 409.001 811.2 401.901C809.1 398.001 808.9 396.501 809.3 388.501C809.7 382.401 810.7 377.101 812.4 372.101C817.4 357.901 827.7 341.501 835.4 335.601C844.9 328.401 857.6 325.601 863.5 329.401C869.9 333.601 870.5 344.401 864.9 355.801C859.7 366.501 848.9 371.501 844.1 365.401C840.1 360.301 842.5 353.401 850 348.401C856.5 344.101 854.7 341.101 847.7 344.601C836.4 350.301 831.2 364.301 837.6 371.901C839.9 374.601 840.8 375.001 845.3 375.001C852.2 375.001 857.8 372.101 864.2 365.101C883.5 344.201 881.4 319.801 860.3 320.101C857.1 320.101 852.2 321.001 849.3 322.001ZM894.8 373.201C897.7 376.101 894.6 384.801 885.5 399.001C878.8 409.501 874.4 414.601 870.5 416.401C864.7 419.201 862 416.301 863.9 409.201C866.2 400.801 880.4 379.901 887.2 375.001C891.7 371.701 893 371.401 894.8 373.201ZM1032.8 373.201C1035.7 376.101 1032.6 384.801 1023.5 399.001C1016.8 409.501 1012.4 414.601 1008.5 416.401C1002.7 419.201 1000 416.301 1001.9 409.201C1004.2 400.801 1018.4 379.901 1025.2 375.001C1029.7 371.701 1031 371.401 1032.8 373.201ZM1137.8 373.201C1140.7 376.101 1137.6 384.801 1128.5 399.001C1121.8 409.501 1117.4 414.601 1113.5 416.401C1107.7 419.201 1105 416.301 1106.9 409.201C1109.2 400.801 1123.4 379.901 1130.2 375.001C1134.7 371.701 1136 371.401 1137.8 373.201Z" fill="black"/>
<path d="M1268.2 330.7C1266.5 331 1266.1 331.6 1266.5 333C1267.3 335.4 1264.2 341.5 1249 367.4C1242.4 378.8 1235.4 391.4 1233.6 395.3C1228.4 406.8 1215.8 419.2 1212.6 416C1211.4 414.8 1213.9 409.3 1221.1 397.4C1227.4 386.9 1231 379.1 1231 375.9C1231 374.4 1230.1 372.1 1228.9 370.6C1225 365.6 1214.3 368.2 1207.6 375.8C1204.9 378.9 1204 378.5 1204 374.5C1204 371.9 1203.4 370.6 1201.5 369.4C1197.9 367.1 1193.1 368.3 1187 373.1L1181.9 377.1L1182.6 373.6L1183.2 370H1176.6H1170.1L1169 373.9C1168.1 377.4 1154.7 403 1146.4 417.2L1143.1 423H1149.3L1155.5 422.9L1161.5 412.3C1170.8 395.7 1178.2 384.9 1183.8 379.7C1188.7 375.2 1192.2 373.9 1193.5 376C1194.2 377.2 1194.2 377.3 1180.1 403.2C1174.6 413.5 1170 422.2 1170 422.5C1170 422.8 1172.4 423 1175.3 423H1180.5L1191.2 405.1C1197.2 395.3 1203.8 384.9 1206 382.1C1212.4 374.1 1219.9 371.4 1218.4 377.7C1218.1 379.3 1215.2 385 1212 390.5C1200 411.3 1198.3 416.6 1201.8 421C1203.3 422.9 1204.7 423.4 1207.7 423.4C1213.1 423.2 1217.3 420.8 1223.6 414.2C1228.8 408.7 1229 408.6 1229 411.3C1229 416.4 1231.6 421 1235.6 422.6C1250.2 428.7 1279 402.2 1279 382.8C1279 376.4 1277.9 373.5 1274.6 370.8C1271.4 368.2 1267.7 368.6 1262.1 372.5C1259.2 374.4 1257.1 375.6 1257.4 375.2C1271.4 351.4 1280 334.7 1280 331.4C1280 330 1273.7 329.7 1268.2 330.7ZM1268.8 379.2C1268 388.5 1256.4 410 1248.3 417C1244.5 420.4 1239.7 421 1238.2 418.4C1235.1 412.9 1246.5 389.6 1257.7 378.5C1261.3 374.9 1262.8 374 1265.7 374H1269.2L1268.8 379.2Z" fill="black"/>
<path d="M577 333.3C570.4 336 563.7 340.5 559.3 345.2C555.7 349 546.5 363.1 536 381C521.6 405.6 513.2 415.7 503.8 420C498.2 422.5 491.9 422.6 488.9 420.1C486.7 418.3 486.6 417.9 487.8 414.8C490.4 407.6 488.9 404 483.4 404C476 404 473.7 413.9 479.6 420.1C484.4 425.1 493 426.3 504.9 423.5C515.8 420.9 523.6 416.4 532.6 407.5C541.7 398.5 544.4 394.7 556.1 373.4C572.5 343.5 575.9 338.6 583.2 334.9C591.1 330.9 586.1 329.6 577 333.3Z" fill="black"/>
<path d="M390.1 345.9C385.8 350.2 386.6 356 391.4 356C394.8 356 399.2 350.8 398.8 347.4C398.6 345 398 344.5 395.3 344.2C393.1 344 391.5 344.5 390.1 345.9Z" fill="black"/>
<path d="M672.1 345.9C667.8 350.2 668.6 356 673.4 356C676.8 356 681.2 350.8 680.8 347.4C680.6 345 680 344.5 677.3 344.2C675.1 344 673.5 344.5 672.1 345.9Z" fill="black"/>
<path d="M215.8 369.399C204.4 372.499 191.7 383.599 185.4 396.299C181.3 404.299 179.9 412.999 182 417.899C183.6 421.899 189 424.399 194.2 423.599C200.3 422.599 203.5 420.599 212.5 411.899L220.8 403.999L220.3 408.199C219 421.399 232.9 427.499 247 419.899C262.6 411.599 276.3 389.099 273 377.099C271.8 372.499 269.7 370.499 264.6 369.099C253.7 366.199 237.7 375.699 226.3 391.999C219.3 401.899 212.3 409.599 206.6 413.399C200 417.999 196.5 418.799 194 416.499C191.4 414.199 191.5 410.499 194.1 403.499C195.7 399.099 196.7 397.899 198.8 397.399C215.1 393.799 228 383.799 228 374.799C228 372.099 227.4 370.699 225.8 369.599C223.2 367.699 222.1 367.699 215.8 369.399ZM220 373.499C220 376.699 215.9 382.899 210.6 387.699C205.2 392.699 199 395.999 199 393.899C199 391.999 205.2 383.599 210.9 377.699C216.3 372.099 220 370.399 220 373.499ZM263.8 373.199C269.2 378.599 254 408.599 242.1 416.199C236.8 419.499 234.9 419.699 232.4 416.899C230.6 414.899 230.6 414.599 232.3 408.199C235.4 396.399 246.4 380.899 255.9 374.799C260.9 371.699 262 371.399 263.8 373.199Z" fill="black"/>
<path d="M350.3 369.9C338.7 373.9 326.4 387 321.2 400.9C319.6 405.4 317.2 409.7 315.1 411.8C311 415.9 305.2 418.6 303.7 417.1C302.4 415.8 306.9 407.1 315.5 394C322.5 383.6 324.8 377.1 323.1 372.8C321 367.3 312.5 367.8 303.7 374.1C299.5 377 298.1 377.6 298.9 376.2C299.5 375 300 373 300 371.6C300 369.2 299.6 369 295.8 369C288.7 369 287 369.9 287 373.1C287 375.8 280.1 388.4 265.1 412.9C262.3 417.5 260 421.7 260 422.2C260 422.6 262.6 423 265.8 423L271.5 422.9L281.5 406.9C295.5 384.5 303.9 375 309.7 375C313.5 375 312.5 377.8 303.9 391.5C294.3 406.8 292.9 409.4 291.9 413.9C291.1 417.4 292.3 421.9 294.3 423.2C298.1 425.6 307.2 422.5 313.9 416.5C316.2 414.4 318.2 412.9 318.4 413.1C318.6 413.3 319.2 414.8 319.7 416.4C321 420.5 325.3 423.5 329.8 423.4C335.8 423.4 342.9 419.3 351.8 410.5C356.3 406 359.8 403.1 359.4 403.9C356.6 410.3 355 416.6 355.5 419.1C357.3 427 367.6 426.8 376.7 418.6L381.6 414.2L383.2 417C385.5 421 390.4 423.3 396.7 423.2C414.4 423.1 438.4 393.4 434 377.1C432.8 372.4 430.7 370.5 425.4 369.1C410.4 365.1 384.3 387.3 381.4 406.5C380.1 415.3 367.1 423.4 366.2 416C366 414.3 368.9 408.5 375.1 398C384.6 381.9 389 373.4 389 371.2C389 370.2 387.4 370 382.8 370.2C376.6 370.5 376.5 370.5 375.5 374C373.9 379.4 369.1 388 367.7 388C367.1 388.1 364.9 390.6 363 393.7C356 405 341.6 417 335.2 417C329.7 417 328.4 409.9 332.5 401.2C336 393.7 345 380 349.4 375.7C355.2 369.9 359 371.4 359 379.4C359 384.6 360.6 384.6 364 379.4C367.6 373.7 367.7 371.6 364.8 369.6C361.9 367.5 356.8 367.6 350.3 369.9ZM424.8 373.2C430.2 378.6 415 408.6 403.1 416.2C397.8 419.5 395.9 419.7 393.4 416.9C391.6 414.9 391.6 414.6 393.3 408.2C396.4 396.4 407.4 380.9 416.9 374.8C421.9 371.7 423 371.4 424.8 373.2Z" fill="black"/>
<path d="M1311.8 369.401C1291.7 374.801 1271.8 402.801 1278.7 416.001C1282.9 423.901 1293.4 425.601 1304 419.901C1319.6 411.601 1333.3 389.101 1330 377.101C1328.8 372.501 1326.7 370.501 1321.5 369.101C1316.8 367.801 1317.7 367.801 1311.8 369.401ZM1320.8 373.201C1326.2 378.601 1311 408.601 1299.1 416.201C1293.8 419.501 1291.9 419.701 1289.4 416.901C1287.6 414.901 1287.6 414.601 1289.3 408.201C1292.4 396.401 1303.4 380.901 1312.9 374.801C1317.9 371.701 1319 371.401 1320.8 373.201Z" fill="black"/>
</svg>
