<svg width="1398" height="465" viewBox="0 0 1398 465" fill="none" xmlns="http://www.w3.org/2000/svg">
<path d="M467 4.5V9H471H475L474.8 43.7L474.5 78.5L470.8 78.8C467 79.1 467 79.2 467 83.6V88H479.5H492V83.5V79H488H484V66V53H495.9H507.9L513.4 46.4L519 39.9V26.2V12.5L514 6.2L508.9 -1.3113e-06H488H467V4.5ZM507.4 13.1C509.8 15.9 510 16.9 510 26C510 35.7 509.9 36 506.9 39.5L503.8 43H493.9H484V26.5V10H494.4C504.8 10 504.8 10 507.4 13.1Z" fill="black"/>
<path d="M543 16C543 20.3 543.3 21 545 21C546.1 21 547 21.3 547 21.7C547 22.2 544.1 31.9 540.6 43.5C537.1 55 533.3 67.8 532.1 71.7C530.2 78.2 529.6 79 527.5 79C525.2 79 525 79.4 525 83.5V88H535.5H546V83.5C546 79.2 545.9 79 543 79C539.5 79 539.4 78.5 541.8 70.5L543.6 64.5L556.6 64.2L569.6 63.9L571.8 70.8C573 74.6 574 77.9 574 78.3C574 78.7 572.4 79 570.5 79C567 79 567 79 567 83.5V88H578H589V83.6C589 79.5 588.8 79.1 586.3 78.8C583.6 78.5 583.3 77.9 574.9 50C566.6 22.5 566.4 21.5 568.4 21C570.1 20.5 570.5 19.6 570.5 16V11.5L556.8 11.2L543 10.9V16ZM562.1 38.3C564.6 46.7 566.5 53.8 566.3 54.2C566.1 54.7 561.6 55 556.4 55C551.2 55 547 54.7 547 54.2C547 52.3 556.4 22.1 556.9 22.5C557.2 22.8 559.5 29.9 562.1 38.3Z" fill="black"/>
<path d="M599 16V21H603H607L606.8 49.7L606.5 78.5L602.8 78.8C599 79.1 599 79.2 599 83.6V88H620.9H642.9L648.4 81.4L654 74.9V49.7V24.4L648.4 17.7L642.8 11H620.9H599V16ZM641.4 24.1L644 27.2V49.9V72.6L641.2 75.3C638.5 77.9 638 78 627.2 78H616V49.5V21H627.4H638.8L641.4 24.1Z" fill="black"/>
<path d="M670 16V21H674H678L677.8 49.7L677.5 78.5L673.8 78.8C670 79.1 670 79.2 670 83.6V88H681.5H693V83.5C693 79.2 692.9 79 690 79H687V70V60.9L694.7 61.2L702.4 61.5L706.9 69.9C709.8 75.4 710.9 78.5 710.2 78.8C709.5 79 709 81.1 709 83.6V88H718H727V83.5C727 79.3 726.8 79 724.3 79C721.8 79 721 78 716.6 69.6L711.6 60.2L716.8 54.2L722 48.2V36.1V24L716.7 17.8L711.4 11.5L690.7 11.2L670 11V16ZM709.7 24.2C712.9 27.3 713 27.6 713 35.9C713 44.1 712.9 44.5 709.8 47.7C706.6 51 706.6 51 696.8 51H687V36V21H696.7C706.3 21 706.5 21 709.7 24.2Z" fill="black"/>
<path d="M740 16V21H744.5H749L748.8 49.7L748.5 78.5L744.3 78.8L740 79.1V83.6V88H753H766V83.5V79H762H758V50V21H762H766V16V11H753H740V16Z" fill="black"/>
<path d="M782 15.9996V20.9996H786H790L789.8 49.6996L789.5 78.4996L785.8 78.7996C782 79.0996 782 79.1996 782 83.5996V87.9996H794H806V83.4996C806 78.9996 806 78.9996 802.5 78.9996H799L799.1 51.1996C799.1 26.1996 799.3 23.7996 800.6 26.4996C801.4 28.0996 808.1 42.4996 815.4 58.4996L828.8 87.4996L835.9 87.7996L843 88.0996V54.4996V20.9996H846.5H850V15.9996V10.9996H838.5H827V15.9996V20.9996H830.5H834V48.1996C834 64.1996 833.6 74.9996 833.1 74.3996C832.6 73.8996 825.8 59.3996 817.9 42.1996L803.5 10.9996H792.8H782V15.9996Z" fill="black"/>
<path d="M870.6 17.9L865 24.7V49.7V74.6L870.5 81.3L876 88H890.4H904.8L910.4 81.3L916 74.6V49.6V24.7L910.4 17.9L904.8 11H890.5H876.2L870.6 17.9ZM903.4 24.3L906 27.7V50.2V72.6L903.2 75.3C900.5 77.9 899.9 78 890.5 78C881.1 78 880.5 77.9 877.8 75.3L875 72.6V50.2V27.7L877.6 24.3L880.1 21H890.5H900.9L903.4 24.3Z" fill="black"/>
<path d="M937.6 17.9L932 24.7V33.5V42.2L937.2 48.6L942.3 55H952.9C962.9 55 963.5 55.1 966.2 57.7C968.6 60 969 61.1 969 66.1C969 70.8 968.5 72.4 966.4 74.9C963.9 77.9 963.6 78 955 78H946.2L943.1 74.5C940.4 71.4 940 70.2 940 65.5V60H935.5H931V67.4V74.9L936.6 81.4L942.1 88H955H967.9L973.5 81.1L979 74.3V66.2V58.1L973.4 51.6L967.9 45H957C946.1 45 946.1 45 944.1 42.1C940.9 37.7 941.2 28.8 944.6 24.3C947.1 21.1 947.2 21 954.9 21H962.7L965.8 24.9C968.5 28.2 969 29.8 969 33.9V39H973.5H978V32.1C978 25.2 978 25.1 972.4 18.1L966.7 11H955H943.2L937.6 17.9Z" fill="black"/>
<path d="M510.465 98.8571C626.146 97.7143 815.796 97.7143 931.639 98.8571C1047.32 99.4286 952.657 100 720.971 100C489.284 100 394.622 99.4286 510.465 98.8571Z" fill="black"/>
<path d="M136.9 180.901C132.2 184.001 125.4 191.401 115.5 204.001C112.3 208.101 106.2 215.001 102.1 219.301L94.5001 227.101L89.8001 226.501C83.6001 225.601 80.8001 226.501 81.2001 229.301C81.5001 231.301 82.1001 231.501 87.3001 231.401C92.9001 231.301 93.0001 231.301 93.0001 234.101C93.0001 238.101 90.4001 244.101 84.9001 253.301C77.6001 265.201 76.6001 273.401 81.7001 278.501C83.7001 280.501 85.3001 281.001 88.9001 281.001C93.5001 281.001 96.2001 279.701 104.6 273.501C106.7 272.001 106.8 272.001 107.4 275.401C108.3 279.901 112.4 283.401 116 282.501C119.4 281.701 124.7 278.101 129.8 273.101C132.1 270.901 134.1 269.001 134.3 269.001C134.4 269.001 134.6 271.101 134.6 273.701C134.8 279.201 137.8 282.501 141.4 281.401C142.6 281.001 144.9 280.601 146.5 280.601C153.1 280.301 163 269.301 174.5 249.501L181.2 238.101L185.8 238.701C188.4 239.001 190.6 239.401 190.7 239.501C190.9 239.601 187.5 243.601 183.3 248.501C171.7 262.001 167.6 273.601 172.4 278.901C176.4 283.301 183.1 281.201 191 273.001L196.8 267.001L197.4 270.301C198.7 277.401 204.1 281.301 212.7 281.201C230.4 281.101 254.4 251.401 250 235.101C245.2 217.101 212.8 230.001 200.9 254.701C195.2 266.401 186.2 275.601 184 272.001C181.3 267.701 184.2 261.001 196.6 242.301C200.7 236.101 204.3 230.401 204.6 229.601C205.4 227.601 202.8 227.501 196.5 229.201C192.5 230.301 191.5 230.201 188.6 228.601C186.7 227.601 184.7 227.101 184.1 227.501C183.4 227.801 180.7 232.501 178.1 237.901C173.6 246.801 161.5 266.001 160.4 266.001C159.7 266.001 161.4 263.101 165.4 257.501C167.4 254.801 169 252.101 169 251.601C169 249.901 165.6 253.601 160.9 260.701C154.8 269.701 149.6 275.001 146.8 275.001C145 275.001 144.8 274.601 145.3 271.101C145.5 269.001 148.2 263.101 151.2 257.901C157.4 247.301 167 229.401 167 228.601C167 228.301 164.5 228.001 161.5 228.001C157 228.001 155.9 228.401 154.9 230.101L153.8 232.201L151.4 229.901C145.7 224.501 134.9 228.801 122.4 241.401C116 247.801 113.5 251.301 110.2 258.101C104.6 269.701 97.3001 276.101 93.4001 272.901C91.2001 271.101 92.1001 266.401 96.5001 256.201C101.4 244.901 101.9 239.801 98.6001 233.801L96.1001 229.101L99.9001 225.801C102 224.001 109.3 216.201 116.1 208.601C130.6 192.201 137.6 187.001 145 187.001C150 187.001 152 185.701 152 182.501C152 177.101 144 176.301 136.9 180.901ZM148.8 231.201C151.6 234.001 148.7 242.601 140.5 255.501C131.3 270.101 124.4 276.901 120.1 275.501C115.3 274.001 116.6 267.201 124 255.001C131 243.401 136.4 236.401 141.2 233.001C145.7 229.701 147 229.401 148.8 231.201ZM240.8 231.201C246.2 236.601 231 266.601 219.1 274.201C213.8 277.501 211.9 277.701 209.4 274.901C207.6 272.901 207.6 272.601 209.3 266.201C212.4 254.401 223.4 238.901 232.9 232.801C237.9 229.701 239 229.401 240.8 231.201Z" fill="black"/>
<path d="M447.9 180.901C443.2 184.001 436.4 191.401 426.5 204.001C423.3 208.101 417.2 215.001 413.1 219.301L405.5 227.101L400.8 226.501C394.6 225.601 391.8 226.501 392.2 229.301C392.5 231.301 393.1 231.501 398.3 231.401C403.9 231.301 404 231.301 404 234.101C404 238.101 401.4 244.101 395.9 253.301C388.6 265.201 387.6 273.401 392.7 278.501C398.1 283.801 408 281.001 417.2 271.501L421 267.601L420 271.001C417.7 278.901 421.7 283.701 429.4 282.601C439.1 281.101 449.1 270.901 461.4 249.701L468.2 238.101L472.8 238.701C475.4 239.001 477.6 239.401 477.7 239.501C477.9 239.601 474.5 243.601 470.3 248.501C461.9 258.401 457.7 266.201 457.6 272.601C457.5 278.601 460.1 281.401 465.6 280.701C470.6 280.201 475.5 276.601 481 269.701L485 264.701V270.101C485 276.401 486.5 279.901 490.1 281.901C492.4 283.201 493.1 283.101 497.1 281.201C499.5 280.001 503.9 276.801 506.8 274.001C511.8 269.201 513.9 267.801 512.5 270.001C511.2 272.101 513.2 279.101 515.5 280.601C517.6 281.901 518.2 281.901 521.5 280.601C527.7 278.001 532.4 273.501 539.4 263.301C543.2 257.901 546.5 252.801 546.8 252.001C548 248.801 543.8 253.401 538.9 260.701C532.8 269.701 527.6 275.001 524.8 275.001C523 275.001 522.8 274.601 523.3 271.101C523.5 269.001 526.2 263.101 529.2 257.901C535.4 247.301 545 229.401 545 228.601C545 228.301 542.5 228.001 539.5 228.001C535 228.001 533.9 228.401 532.9 230.101L531.8 232.201L529.4 229.901C521.9 222.901 503.3 234.201 489.9 253.801C479.4 269.201 473 275.301 471 272.001C468.3 267.801 471.1 261.201 483.6 242.301C487.7 236.101 491.3 230.401 491.6 229.601C492.4 227.601 489.8 227.501 483.5 229.201C479.5 230.301 478.5 230.201 475.6 228.601C473.7 227.601 471.7 227.101 471.1 227.401C470.6 227.801 467.3 233.501 463.9 240.001C460.5 246.601 457.5 251.801 457.2 251.501C456.9 251.201 454.9 253.901 452.8 257.501C450.6 261.101 446 267.001 442.6 270.601C437.3 276.201 435.9 277.101 433.4 276.801C428.2 276.201 429.1 272.901 439.1 256.001C448.6 239.901 453 231.401 453 229.201C453 228.201 451.4 228.001 446.8 228.201L440.6 228.501L439.4 232.501C438.1 237.201 431.3 249.101 429.3 250.301C428.6 250.701 426.4 253.601 424.5 256.601C419.7 264.001 412.6 271.501 408.9 273.001C406.3 274.101 405.6 274.101 404.3 272.701C402.2 270.701 403.2 266.201 408.4 254.001C412.6 244.001 412.9 239.901 409.5 233.701L407.1 229.101L410.9 225.801C413 224.001 420.2 216.301 426.9 208.801C441.4 192.501 448.7 187.001 455.9 187.001C461 187.001 463 185.701 463 182.501C463 177.101 455 176.301 447.9 180.901ZM526.8 231.201C529.7 234.101 526.6 242.801 517.5 257.001C510.8 267.501 506.4 272.601 502.5 274.401C496.7 277.201 494 274.301 495.9 267.201C498.2 258.801 512.4 237.901 519.2 233.001C523.7 229.701 525 229.401 526.8 231.201Z" fill="black"/>
<path d="M653.6 179C625.3 184.1 603.5 204.3 602.3 226.4C601.8 234.8 603.6 239.2 609 242.8C615.1 247 626.3 244.6 634.9 237.5C640.5 232.7 638.1 230.1 631.8 234C627.1 236.8 620.9 236.6 617.3 233.6C614.7 231.4 614.5 230.6 614.5 224.3C614.5 193.2 664.6 170.3 686.8 191.3C703.3 207.1 689.6 259.4 665.6 271.8C658.8 275.3 648.3 275.4 639.8 272.1C636.6 270.9 634 269.5 634 269.1C634 268.7 635.6 266.8 637.6 264.9C643.8 259 649.5 250.1 659.5 230.5C672.7 204.7 675.6 200.7 683.4 197.5C687 196 687.2 195.7 685.6 194.2C682.4 190.9 670 196.2 660.8 204.7C654.8 210.4 648 220.8 634.5 245C628.5 255.7 623.1 264.8 622.6 265.2C620.8 266.4 612.9 266.1 607 264.5C597.4 261.9 589.2 263.1 584.5 267.8C581.6 270.7 581.4 273.1 583.6 276.5C587.5 282.5 601.1 283.6 615.6 279.1L622.6 276.9L631.8 279C654.7 284.1 673.2 279 689.1 263.1C701.1 251.1 707.4 236.2 707.4 219.5C707.3 195 692 179.6 666.5 178.5C662.1 178.3 656.3 178.5 653.6 179ZM608 271.7L612.5 273.8L608.5 275.6C603.7 277.7 594.9 278 592.6 276.1C590.5 274.3 590.6 271.4 592.8 270C595.2 268.5 602.7 269.3 608 271.7Z" fill="black"/>
<path d="M989 179.7C983.1 181.7 972.1 188.9 965.8 194.8C948.2 211.2 940.7 236.8 950.6 246.7C952.8 248.9 953.8 249.2 958 248.8C963.9 248.2 972.4 242.3 975.5 236.7C977.9 232.1 976.8 230.9 973.2 234.2C969.9 237.4 964.8 240 962 240C953 240 954.4 220.1 964.5 205.4C966.6 202.4 971.3 197.1 975.1 193.5C986 183.3 995.2 179.7 1000.8 183.6C1006.2 187.3 1001.8 199.3 982.9 232.2C971.8 251.5 969.1 257.5 968.4 264.5C967.6 273 969.4 278 974.3 280.4C979.4 282.9 985 281.9 992.9 277.2C1005.7 269.7 1024.4 246.4 1036.3 223.3C1046.7 202.9 1050.5 184.6 1045.3 179.5C1043.2 177.4 1038.3 177.7 1036 180C1033.5 182.5 1033.2 189.7 1035.6 191.4C1041.6 195.9 1033.7 221.5 1018.8 245.5C1015.7 250.4 1011.5 256.4 1009.5 258.8C1005 264 995.3 271.6 990.6 273.5C986.4 275.3 982.5 274.2 981.5 271C979.9 265.9 982.8 258.8 997.5 232.5C1007.4 214.7 1010.5 208.4 1012.4 202.1C1015.3 192.2 1014 184.5 1008.5 180.2C1005.1 177.5 995.9 177.3 989 179.7Z" fill="black"/>
<path d="M106.2 182.6L98.9 186.1L88.8 183C71 177.7 61.1 179.1 47.8 188.9C40.6 194.3 34.8 201.3 30.3 210C27.9 214.7 27.5 216.7 27.5 223.8C27.5 232 27.6 232.2 30.8 235.1C37.2 240.8 48 238.2 56.4 228.9C60.1 224.8 62.9 219 61.2 219C60.9 219 59.1 220.9 57.2 223.1C50.9 230.5 43.3 232 37.8 227.1C34.6 224.3 34.5 223.9 34.5 216.8C34.6 207.9 36.8 203.1 43.5 197.2C51.7 190 63 187.8 80.8 190L91 191.2L84.4 198.4C75.7 207.8 69.3 217.6 56.6 240.8C44.3 263.2 41.7 267.3 36.1 272.3C30.8 277.1 26.9 279 21.2 279.6C13.4 280.4 8.2 275.6 12.4 271.4C14.6 269.3 14.4 263.7 12.2 261.7C9.6 259.3 6.6 259.6 3.3 262.4C1 264.4 0.5 265.6 0.5 269.5C0.5 273.6 1 274.6 4.1 277.5C13.8 286.3 32.6 283.8 48.8 271.5C60.1 263 69 249.8 85.9 216.5C90.9 206.6 96 197.3 97.2 195.8C99.1 193.5 100.7 192.8 106.8 192C114.7 190.9 121.4 188.1 122.4 185.4C122.8 184.5 122.3 182.7 121.5 181.4C119.3 178 115 178.3 106.2 182.6ZM115.7 184.7C116.3 186.5 112.3 188.2 108.2 187.8L104.5 187.5L108 185.2C111.6 182.9 115.1 182.6 115.7 184.7Z" fill="black"/>
<path d="M417.4 182.6L410.2 186.2L399.9 183.1C382.6 177.9 372.9 179.1 360.2 188C352.3 193.5 345.8 201.1 341.4 209.9C339 214.7 338.5 216.7 338.5 223.8C338.5 232 338.6 232.2 341.8 235.1C348.2 240.8 359 238.2 367.4 228.9C371.1 224.8 373.9 219 372.2 219C371.9 219 370.1 220.9 368.2 223.1C361.9 230.4 354.3 232 348.9 227.2C346.2 224.8 345.6 223.5 345.2 218.6C344.6 211.2 347 205 352.8 198.8C360.7 190.4 372.8 187.6 391.8 190L402 191.2L395.4 198.4C386.7 207.8 380.3 217.6 367.8 240.5C354.6 264.5 353.3 266.6 347.8 271.7C342 277 338.1 279 332.2 279.6C324.4 280.4 319.2 275.6 323.4 271.4C325.6 269.3 325.4 263.7 323.2 261.7C320.6 259.3 317.6 259.6 314.3 262.4C312 264.4 311.5 265.6 311.5 269.5C311.5 273.6 312 274.6 315.1 277.5C324.8 286.3 343.6 283.8 359.8 271.5C371.2 262.9 379.8 250.2 396.4 217.4C401.6 207 407 197.3 408.2 195.8C410.1 193.5 411.7 192.8 417.8 192C425.7 190.9 432.4 188.1 433.4 185.4C433.8 184.5 433.3 182.7 432.5 181.4C430.3 178 425.9 178.3 417.4 182.6ZM426.7 184.7C427.3 186.5 423.3 188.2 419.2 187.8L415.5 187.5L419 185.2C422.6 182.9 426.1 182.6 426.7 184.7Z" fill="black"/>
<path d="M290.5 189.9C287.1 190.4 286.5 190.9 285.9 193.5C285.3 196.6 280.8 204.7 261.7 237.5C248.6 260 246.1 265.6 246 272.7C246 278.2 248.2 282 251.5 282C254.3 282 260.3 279 264.6 275.5C268.9 271.9 284 250.7 284 248.1C284 245.7 281.5 248.6 277 256.1C271.6 265.2 263 274 259.6 274C257.8 274 257 273.5 257 272.3C257 269.9 264.2 256.1 282.6 223.4C292.2 206.3 299 193.2 299 191.6C299 188.8 298.5 188.7 290.5 189.9Z" fill="black"/>
<path d="M867.5 189.9C864.1 190.4 863.5 190.9 862.9 193.5C862.6 195.1 856.1 207.3 848.5 220.5C840.9 233.7 832.1 249 829.1 254.4C825.8 260.4 821.1 266.9 817.4 270.8C812.3 276.2 810.9 277.1 808.4 276.8C803.2 276.2 804.1 272.9 814.1 256C823.6 239.9 828 231.4 828 229.2C828 228.2 826.4 228 821.8 228.2L815.6 228.5L814.4 232.6C813.7 234.9 810.4 241.4 806.9 247.1C794.5 267.7 791.8 277 796.9 281.1C801.6 284.9 808.9 282.8 817 275.3L823 269.8V273.9C823 278.3 825.6 282 828.8 282C832.5 281.9 839.4 277.8 844.6 272.5L850 266.9V271.2C850 276.5 851.7 280 855.1 281.9C857.4 283.2 858.1 283.1 862.1 281.2C864.5 280 868.9 276.8 871.8 274C874.7 271.3 877.1 269 877.3 269C877.4 269 877.6 271.1 877.6 273.7C877.9 282.3 883.2 283.6 892.1 277.4C894.2 276 897.7 272.5 899.8 269.6C905.7 261.8 912 252.5 912 251.6C912 249.9 908.6 253.7 903.9 260.7C897.8 269.7 892.6 275 889.8 275C888 275 887.8 274.6 888.3 271.1C888.5 269 891.2 263.1 894.2 257.9C900.4 247.3 910 229.4 910 228.6C910 228.3 907.5 228 904.5 228C900 228 898.9 228.4 897.9 230.1L896.8 232.2L894.4 229.9C888.8 224.6 877.9 228.8 866 240.9C861.8 245.1 856.5 251.8 854.2 255.8C848.7 265.1 840.1 274 836.6 274C834.8 274 834 273.5 834 272.3C834 269.9 841.2 256.1 859.6 223.4C869.2 206.3 876 193.2 876 191.6C876 188.8 875.5 188.7 867.5 189.9ZM891.8 231.2C894.6 234 891.7 242.6 883.5 255.5C874.3 270.1 867.4 276.9 863.1 275.5C858.3 274 859.6 267.2 867 255C874 243.4 879.4 236.4 884.2 233C888.7 229.7 890 229.4 891.8 231.2Z" fill="black"/>
<path d="M1097 189.9C1093.1 190.4 1092.5 190.8 1091.9 193.5C1091.3 196.6 1077.5 221.3 1061.2 248.5C1049.8 267.4 1041.1 277.4 1036.4 276.8C1031.2 276.2 1032.1 272.9 1042.1 256C1051.6 239.9 1056 231.4 1056 229.2C1056 228.2 1054.4 228 1049.8 228.2L1043.6 228.5L1042.4 232.6C1041.7 234.9 1038.4 241.4 1034.9 247.1C1022.5 267.7 1019.8 277 1024.9 281.1C1029.9 285.2 1037.4 282.8 1045.7 274.5L1052 268.2V273.1C1052 278.2 1054.3 282 1057.5 282C1060.5 282 1066.5 278.9 1071.2 274.9L1076 270.9V274.4C1076 278.3 1078.8 282 1081.8 282C1085.3 281.9 1092.1 278 1097 273.1L1102 268.1V271.8C1102 276.5 1103.8 280 1107.1 281.9C1109.4 283.2 1110.1 283.1 1114.1 281.2C1116.5 280 1120.9 276.8 1123.8 274C1126.7 271.3 1129.1 269 1129.3 269C1129.4 269 1129.6 271.1 1129.6 273.7C1129.9 282.3 1135.2 283.6 1144.1 277.4C1147.9 274.8 1153.1 268.6 1158.5 260.2C1161.7 255.3 1163.1 254.5 1160.2 259.2C1151.7 273.1 1148 279.4 1148 280.2C1148 280.6 1150.6 281 1153.8 281L1159.5 280.9L1169.5 264.9C1183.5 242.5 1191.9 233 1197.7 233C1201.5 233 1200.5 235.8 1191.9 249.5C1182.3 264.8 1180.9 267.4 1179.9 271.9C1179.1 275.4 1180.3 279.9 1182.3 281.2C1186.1 283.6 1195.2 280.5 1201.9 274.5C1205.5 271.2 1206 271 1206 272.8C1206 276.3 1208.2 280 1210.7 280.6C1216 282 1220 280.1 1226.8 273L1233.5 266.2L1233.2 271.6C1232.8 277.9 1234.6 281 1238.7 281C1242.2 281 1244.9 279.4 1250.8 273.7L1256 268.6V271.8C1256 273.9 1257 276.1 1258.9 278.2C1261.5 281.2 1262.4 281.5 1267.2 281.4C1274.7 281.3 1278 279.3 1290.1 267.1L1300.7 256.5L1298.3 262.2C1297 265.6 1296 270 1296 272.9C1296 277.1 1296.4 278.2 1298.6 279.9C1305.8 285.6 1317.9 278.5 1331.5 260.5C1340.7 248.4 1348.1 229.5 1345.4 225.2C1344.1 223.1 1340.4 222.4 1338.6 224C1337.7 224.6 1337.1 227.9 1336.8 232.3C1335.8 249.5 1319.6 275.7 1310.5 274.8C1307.8 274.5 1307.5 274.1 1307.2 270.9C1306.9 267.2 1307.7 265.4 1321.5 239.7C1325.5 232.1 1326.9 228.5 1326.2 227.8C1324.9 226.5 1314 227.7 1314 229.2C1314 231.3 1304.6 250 1304 249.1C1303.7 248.5 1299.7 252.6 1295.1 258.1C1283.4 272.2 1273.4 278.5 1269 274.5C1266.5 272.3 1266.5 269.3 1268.7 262.2C1270.6 256.4 1270.6 256.4 1280.1 253.6C1287.5 251.5 1296.8 245.3 1300.3 240.4C1303.9 235.1 1304 229.7 1300.6 227.4C1294.9 223.7 1279.2 230.7 1269.3 241.3C1264.3 246.8 1257 259.2 1257 262.3C1257 264.1 1247.2 274 1245.4 274C1241 274 1244.1 264.7 1253.8 248.3C1262 234.2 1262.5 233.3 1263.4 229.7C1264 227.2 1263.8 227 1261.1 227C1253 227 1252.2 227.6 1247.5 237.6C1237.2 259.7 1220.9 279.4 1217.5 273.9C1216.4 272.2 1217.7 268.9 1223.6 259C1231.5 245.6 1238 232.6 1238 230.1C1238 228.2 1237.5 228 1232.1 228H1226.2L1225.2 232.2C1223.9 237.1 1211.8 258.9 1206 266.6C1201.7 272.3 1193.7 277.1 1191.8 275.2C1190.4 273.8 1194.4 265.8 1203.5 252C1215.1 234.3 1214.2 225.2 1201.3 227.3C1198.1 227.9 1195.9 229.1 1188.1 234.7C1185.7 236.4 1185.7 236.4 1186.8 234.3C1187.5 233.1 1188 231 1188 229.6C1188 227.2 1187.6 227 1183.8 227C1176.8 227 1175 227.9 1175 231C1175 234.5 1166.6 249.4 1163.5 251.4C1162.1 252.3 1158.8 256.4 1156 260.5C1149.8 269.7 1144.6 275 1141.8 275C1140 275 1139.8 274.6 1140.3 271.1C1140.5 269 1143.2 263.1 1146.2 257.9C1152.4 247.3 1162 229.4 1162 228.6C1162 228.3 1159.5 228 1156.5 228C1152 228 1150.9 228.4 1149.9 230.1L1148.8 232.2L1146.4 229.9C1140.7 224.6 1129.8 228.9 1117.5 241.4C1112 246.9 1108.4 251.7 1106 256.5C1101.7 265 1093.3 274 1089.6 274C1087.8 274 1087 273.5 1087 272.3C1087 269.9 1094.2 256.1 1112.6 223.4C1122.4 206 1129 193.2 1129 191.6C1129 189 1128.9 188.9 1123.8 189.5C1116.6 190.4 1116 190.6 1116 193C1116 195.1 1107.8 210 1090 240.5C1085.2 248.7 1080 258.1 1078.6 261.2C1077 264.5 1074.1 268.4 1071.8 270.5C1067.4 274.2 1063 275.2 1063 272.3C1063 269.9 1070.2 256.1 1088.6 223.4C1098.2 206.3 1105 193.2 1105 191.6C1105 188.8 1105.1 188.8 1097 189.9ZM1143.8 231.2C1146.6 234 1143.7 242.6 1135.5 255.5C1126.3 270.1 1119.4 276.9 1115.1 275.5C1110.3 274 1111.6 267.2 1119 255C1126 243.4 1131.4 236.4 1136.2 233C1140.7 229.7 1142 229.4 1143.8 231.2ZM1295 231.5C1295 235 1292 239.8 1286.7 244.8C1281.7 249.4 1274.5 253.8 1273.4 252.8C1272.7 252 1280.5 241.2 1285.8 235.7C1291.3 230.1 1295 228.4 1295 231.5Z" fill="black"/>
<path d="M454.1 203.9C449.8 208.2 450.6 214 455.4 214C458.8 214 463.2 208.8 462.8 205.4C462.6 203 462 202.5 459.3 202.2C457.1 202 455.5 202.5 454.1 203.9Z" fill="black"/>
<path d="M829.1 203.9C824.8 208.2 825.6 214 830.4 214C833.8 214 838.2 208.8 837.8 205.4C837.6 203 837 202.5 834.3 202.2C832.1 202 830.5 202.5 829.1 203.9Z" fill="black"/>
<path d="M1057.1 203.9C1052.8 208.2 1053.6 214 1058.4 214C1061.8 214 1066.2 208.8 1065.8 205.4C1065.6 203 1065 202.5 1062.3 202.2C1060.1 202 1058.5 202.5 1057.1 203.9Z" fill="black"/>
<path d="M749.5 204C749.2 204.5 744.9 207.9 740 211.6C735 215.2 731 218.7 731 219.2C731 220.8 735.8 219.3 743.6 215.4C751.6 211.4 756.6 207 755.7 204.6C755 202.9 750.5 202.4 749.5 204Z" fill="black"/>
<path d="M796.3 224.2C795.7 224.9 795 228.6 794.8 232.5C793.8 249.6 777.5 275.7 768.5 274.8C765.8 274.5 765.5 274.1 765.2 270.9C764.9 267.2 765.7 265.4 779.5 239.7C783.5 232.1 784.9 228.5 784.2 227.8C782.7 226.3 772 227.7 772 229.4C772 230.1 768.1 238.5 763.3 248.1C755.8 263.1 754.5 266.3 754.2 271.6C753.8 277.3 754 277.8 756.5 279.8C763.8 285.6 775.9 278.6 789.5 260.5C798.7 248.4 806.1 229.5 803.4 225.2C802 223.1 797.7 222.5 796.3 224.2Z" fill="black"/>
<path d="M732.5 227.901C722.5 230.301 707 244.401 701 256.401C695.3 267.801 695.8 278.301 702.1 281.901C704.4 283.201 705.1 283.101 709.1 281.201C711.5 280.001 715.9 276.801 718.8 274.001C723.8 269.201 725.9 267.801 724.5 270.001C723.2 272.201 725.2 279.101 727.5 280.601C729.7 282.001 730.3 282.001 734.3 280.201C736.8 279.101 740.5 276.501 742.7 274.301C746.5 270.501 757.7 255.001 758.8 252.001C760 248.801 755.8 253.501 750.9 260.701C744.8 269.701 739.6 275.001 736.8 275.001C735 275.001 734.8 274.601 735.3 271.101C735.5 269.001 738.2 263.101 741.2 257.901C747.4 247.301 757 229.401 757 228.601C757 228.301 754.5 228.001 751.5 228.001C747 228.001 745.9 228.401 744.9 230.101C743.8 232.201 743.8 232.201 741.7 230.201C738.9 227.701 736.3 227.001 732.5 227.901ZM739.3 232.101C740.9 234.701 739.3 240.101 733.7 249.801C723.3 268.001 715 277.101 710.1 275.501C705.3 274.001 706.6 267.301 714 255.001C721 243.401 726.4 236.401 731.3 232.901C735.7 229.701 737.7 229.501 739.3 232.101Z" fill="black"/>
<path d="M1371.3 228.001C1361.7 230.201 1346.2 244.401 1340 256.501C1334.3 267.701 1334.8 278.301 1341.1 281.901C1343.4 283.201 1344.1 283.101 1348.1 281.201C1350.5 280.001 1354.9 276.801 1357.8 274.001C1360.7 271.301 1363.1 269.001 1363.3 269.001C1363.4 269.001 1363.5 271.101 1363.6 273.701C1363.8 282.201 1369.2 283.601 1378.1 277.401C1380.2 276.001 1383.7 272.501 1385.8 269.601C1391.7 261.801 1398 252.501 1398 251.601C1398 250.001 1394.7 253.501 1390.7 259.501C1384.5 268.601 1381.3 272.401 1378 274.301C1375.3 275.901 1374.9 276.001 1374.4 274.501C1373.3 271.601 1374.9 267.101 1380.3 257.701C1386.4 247.301 1396 229.401 1396 228.601C1396 228.301 1393.5 228.001 1390.5 228.001C1386 228.001 1384.9 228.401 1383.9 230.101C1382.8 232.201 1382.8 232.201 1380.7 230.201C1377.9 227.701 1375.3 227.001 1371.3 228.001ZM1377.8 231.201C1380.6 234.001 1377.7 242.601 1369.5 255.501C1360.3 270.101 1353.4 276.901 1349.1 275.501C1344.3 274.001 1345.6 267.201 1353 255.001C1360 243.401 1365.4 236.401 1370.2 233.001C1374.7 229.701 1376 229.401 1377.8 231.201Z" fill="black"/>
<path d="M514.5 312.099C511.9 315.099 511.1 316.499 511.9 317.299C512.7 318.099 513.8 317.599 515.8 315.699C517.3 314.199 519 312.999 519.5 312.999C519.9 312.999 521.8 314.799 523.7 316.999C528.5 322.499 532.6 322.199 537 315.999C539.9 311.899 538.6 310.299 534.8 313.499C533.2 314.899 531.4 315.999 530.9 315.999C530.4 315.999 528.4 314.199 526.4 311.999C521.7 306.799 519.3 306.899 514.5 312.099Z" fill="black"/>
<path d="M542.9 324.399C535.3 329.599 525.2 345.399 508.3 378.499C501.6 391.699 496.1 401.799 496 400.899C496 399.999 496.5 396.799 497.1 393.899C497.7 390.899 498.3 378.399 498.4 365.999C498.6 341.899 499.3 337.199 503.5 332.199C505.9 329.399 506.7 326.999 505.4 326.999C505.1 326.999 503.5 327.899 502 328.999C496.4 332.999 485.3 349.399 470.4 375.499C456.8 399.399 450.2 407.999 439.9 414.899C436.6 417.099 431.6 419.399 428.6 420.099C423.5 421.199 422.8 421.099 418.4 418.899C414.8 417.099 413 415.399 411.3 412.099C404.3 398.599 413.8 373.599 428.2 367.599C438.4 363.299 446.3 368.999 446.4 380.499C446.5 385.299 446 386.499 441.5 392.599C439.3 395.599 442.3 395.099 445.6 391.899C450.5 387.299 453 381.699 453 375.199C453 360.999 443.2 356.099 429 363.199C416.2 369.599 405.4 383.699 402.4 398.199C398.9 414.299 403.4 427.699 413.5 431.599C423.5 435.399 435.1 431.099 447.1 419.099C456.2 409.899 461.4 402.099 472.4 381.299C482.7 361.799 489.3 350.699 488.6 353.999C486.2 365.899 485.8 371.999 486.2 389.499C486.8 409.999 486.2 417.699 483.5 423.399C481.4 427.699 482.1 429.099 485.1 426.399C488.2 423.599 492.8 415.499 507.7 386.499C522.2 358.499 529.6 346.499 537.6 338.299C542.2 333.399 543 332.999 547.2 332.999C552.7 332.999 554.2 331.499 553.8 326.299C553.5 322.699 553.3 322.499 550 322.199C547.6 321.999 545.4 322.699 542.9 324.399Z" fill="black"/>
<path d="M198.1 327.1C188.2 329.1 175.9 339.9 157.7 362.7L144.8 379H140C136 379 135 379.4 134.5 381C133.7 383.6 134.6 385 137.1 385C139.9 385 139.5 385.6 131 395.6C117.2 411.6 104.9 420.3 95.9001 420.4C81.1001 420.4 74.3001 401.7 82.7001 383.9C86.4001 376 89.9001 371.7 95.4001 368.5C101.3 365 107.7 364.3 112.5 366.6C120.4 370.3 122.1 378.6 117 388.6C113.6 395.3 113.5 396 115.3 396C117.2 396 121.4 391.2 123.9 386.3C126.7 380.7 126.8 370 124.1 365C120 357.2 109.9 355.4 99.3001 360.5C91.1001 364.6 81.2001 374.8 76.6001 384.1C68.0001 401.7 69.5001 421.9 80.3001 430.4C83.4001 432.9 85.2001 433.5 90.6001 433.8C96.3001 434.2 97.8001 433.9 103.4 431.1C111 427.4 124.7 413.7 138 396.5L146.5 385.5L158.7 385.2L170.9 384.9L162.3 399.7C153.4 414.9 149.7 422.4 148.6 427.3L147.9 430.1L155.1 429.8L162.2 429.5L164.5 423.4C166.4 418.3 198.3 363.2 204.1 354.9C208 349.3 212 339.5 212 335.4C212 327.9 207.4 325.2 198.1 327.1ZM199.8 334.8C200.2 337.4 176.9 376.5 174 378C173 378.6 167.6 379 162 379H151.8L153.5 376.2C157.8 369.6 172.3 350.9 178 344.7C188 333.8 199 328.8 199.8 334.8Z" fill="black"/>
<path d="M870.7 327.4C851.4 334.3 844.6 355.6 854.7 378C861.9 394 861.6 404.8 853.5 416.6C844.8 429.1 827 430.6 818.5 419.5C806.6 403.8 815.5 373 832 373C836.5 373 839.5 375.1 842 380C844.3 384.6 844.5 388.9 842.5 394.5C840.4 400.3 840.6 400.7 844 397.5C849.2 392.5 851.4 381.4 848.6 374.6C846.6 369.9 843.5 368 837.5 368C820.3 368 802.4 389.6 804.4 408.1C806 424.3 815.1 431.7 832.3 430.8C839.3 430.4 841.9 429.8 848.3 426.8C861.7 420.4 868.9 411.6 870.9 399.4C872.4 389.6 870.8 381.3 863.5 361C860.3 352.3 860.4 345 863.9 338.3C868.1 330 876.2 327.5 881.2 332.7C888.1 339.9 887.4 351.4 879.7 359.7C877 362.7 878 363.5 882.2 361.7C890.1 358.4 895.6 346.4 893.1 338C890.1 328.1 881 323.8 870.7 327.4Z" fill="black"/>
<path d="M1159 329.2C1146.7 333.9 1132.2 345.6 1122 359.2C1110.6 374.3 1105.6 387.1 1105.6 401.6C1105.5 410.1 1105.7 411.2 1109 417.6C1113.7 426.7 1118.6 430.3 1127.3 430.8C1140.9 431.7 1154.6 424 1168.9 407.5L1173.2 402.5L1168.9 408.9C1166.5 412.4 1161.2 418.3 1157.3 422C1153.3 425.6 1150 429 1150 429.3C1150 430.9 1153 429.8 1157.1 426.6C1163 422.1 1169.3 413.9 1178 399.3L1185.3 387.1L1189.9 387.7C1192.4 388 1194.6 388.4 1194.7 388.5C1194.9 388.6 1191.5 392.6 1187.3 397.5C1175.7 411 1171.6 422.6 1176.4 427.9C1180.5 432.5 1187.1 430.2 1195.6 421.4L1201.8 414.9L1200.8 418.9C1199.5 424.1 1201.2 428.8 1204.6 429.6C1210 431 1214 429.1 1220.8 422L1227.5 415.2L1227.2 420.6C1226.9 424.8 1227.2 426.6 1228.6 428.1C1232.3 432.2 1237.8 430 1246.1 421.4C1250.9 416.3 1262 401.1 1262 399.5C1262 397.5 1259.4 400.1 1254.7 406.7C1242.4 424.3 1234 428.5 1238.9 414.7C1239.9 411.6 1244 403.7 1247.8 397.3C1256 383.2 1256.5 382.3 1257.4 378.7C1258 376.2 1257.8 376 1255.1 376C1247 376 1246.2 376.6 1241.5 386.6C1231.2 408.7 1214.9 428.4 1211.5 422.9C1210.4 421.2 1211.7 417.9 1217.6 408C1225.5 394.6 1232 381.6 1232 379.1C1232 377.2 1231.5 377 1226.1 377C1220.2 377 1220.2 377 1219.5 380.2C1218.6 384.4 1213.8 393.9 1210.7 397.6C1209.4 399.2 1206.8 402.7 1205 405.5C1196.7 417.9 1189.9 424 1188 421C1185.3 416.7 1188.2 410 1200.6 391.3C1204.7 385.1 1208.3 379.4 1208.6 378.6C1209.4 376.6 1206.8 376.5 1200.5 378.2C1196.5 379.3 1195.5 379.2 1192.6 377.6C1190.7 376.6 1188.7 376.1 1188.1 376.5C1187.4 376.8 1185.3 380.4 1183.3 384.3C1180.4 390.1 1179.6 391.1 1179 389.5C1178.4 387.9 1177.7 388.6 1174.2 394.1C1168.6 402.9 1160.5 410.4 1152.3 414.3C1146.4 417.1 1144.4 417.5 1137.3 417.5C1127.7 417.5 1124.9 416 1121.2 408.9C1119.1 405 1118.9 403.5 1119.3 395.5C1120.3 376.9 1133.3 351.4 1146.7 341.8C1156.1 335 1167.8 332.6 1173.5 336.4C1179.9 340.6 1180.5 351.4 1174.9 362.8C1169.8 373.3 1159.4 378.2 1154.2 372.7C1149.9 368.1 1152.4 360.4 1160 355.4C1166.5 351.1 1164.7 348.1 1157.7 351.6C1146.4 357.3 1141.2 371.3 1147.6 378.9C1149.9 381.6 1150.8 382 1155.3 382C1162.2 382 1167.8 379.1 1174.2 372.1C1180.6 365.2 1184.4 358.4 1186.6 350C1189.1 340.1 1186.3 332.3 1178.8 328.4C1174.9 326.4 1165.4 326.7 1159 329.2Z" fill="black"/>
<path d="M1021.7 337.201C1020.8 337.901 1019.4 340.501 1018.5 343.001C1017.6 345.501 1014.8 351.001 1012.3 355.201L1007.6 363.001H1002.3C997.3 363.001 997 363.201 997 365.401C997 367.601 997.5 367.901 1000.9 368.201L1004.8 368.501L998.3 379.501C994.7 385.501 988.8 395.601 985.3 401.901C977.2 416.401 974.1 420.301 968.4 423.001C959.2 427.501 960.8 422.001 974.5 401.001C986.1 383.301 985.2 374.201 972.3 376.301C969.1 376.901 966.9 378.101 959.1 383.701C956.7 385.401 956.7 385.401 957.8 383.301C958.5 382.101 959 380.001 959 378.601C959 376.201 958.6 376.001 954.8 376.001C947.8 376.001 946 376.901 946 380.001C946 383.501 937.6 398.401 934.5 400.401C933.1 401.301 929.8 405.401 927 409.501C920.8 418.701 915.6 424.001 912.8 424.001C911 424.001 910.8 423.601 911.3 420.101C911.5 418.001 914.2 412.101 917.2 406.901C923.4 396.301 933 378.401 933 377.601C933 377.301 930.5 377.001 927.5 377.001C923 377.001 921.9 377.401 920.9 379.101L919.8 381.201L917.4 378.901C911.7 373.601 900.8 377.901 888.5 390.401C878.5 400.501 873.7 409.301 873.2 418.401C872.9 425.301 874.2 428.701 878.1 430.901C880.4 432.201 881.1 432.101 885.1 430.201C887.5 429.001 891.9 425.801 894.8 423.001C900.4 417.701 901.6 417.001 900.6 419.601C899.5 422.501 901.1 428.001 903.6 429.601C908.6 432.901 919.1 425.101 927.9 411.601C932.3 404.901 934.8 402.301 931.2 408.201C922.7 422.101 919 428.401 919 429.201C919 429.601 921.6 430.001 924.8 430.001L930.5 429.901L940.5 413.901C954.5 391.501 962.9 382.001 968.7 382.001C972.5 382.001 971.5 384.801 962.9 398.501C953.3 413.801 951.9 416.401 950.9 420.901C950.1 424.401 951.3 428.901 953.3 430.201C957.3 432.701 966.4 429.401 973.6 422.801C976.5 420.201 978.1 419.201 977.7 420.401C975.9 425.201 980.6 431.001 986.3 431.001C989.3 431.001 997.4 426.201 1003.3 421.001L1008 416.801V420.701C1008 425.501 1009.8 429.001 1013.1 430.901C1015.4 432.201 1016.1 432.101 1020.1 430.201C1022.5 429.001 1026.9 425.801 1029.8 423.001C1035.4 417.701 1036.6 417.001 1035.6 419.601C1034.5 422.501 1036.1 428.001 1038.6 429.601C1040.7 431.001 1041.3 431.001 1045.3 429.201C1047.8 428.101 1051.5 425.501 1053.7 423.301C1057.5 419.501 1068.7 404.001 1069.8 401.001C1071 397.801 1066.8 402.501 1061.9 409.701C1055.8 418.701 1050.6 424.001 1047.8 424.001C1046 424.001 1045.8 423.601 1046.3 420.101C1046.5 418.001 1049.2 412.101 1052.2 406.901C1058.4 396.301 1068 378.401 1068 377.601C1068 377.301 1065.5 377.001 1062.5 377.001C1058 377.001 1056.9 377.401 1055.9 379.101L1054.8 381.201L1052.4 378.901C1046.7 373.501 1035.9 377.801 1023.5 390.401C1017.8 396.201 1014.4 400.701 1011.5 406.301C1007.3 414.601 997.7 425.001 994.3 425.001C990.8 425.001 989.7 423.501 990.4 419.501C991.4 414.601 1003.4 391.101 1011.3 378.501L1017.7 368.501L1022.9 368.201C1027.6 367.901 1028 367.701 1028 365.401C1028 363.301 1027.5 363.001 1024.5 363.001C1022.6 363.001 1021 362.801 1021 362.501C1021 362.201 1022.6 359.501 1024.5 356.501C1029.8 348.201 1034.2 339.001 1033.6 337.401C1032.9 335.601 1024 335.501 1021.7 337.201ZM914.8 380.201C917.6 383.001 914.7 391.601 906.5 404.501C897.3 419.101 890.4 425.901 886.1 424.501C881.3 423.001 882.6 416.201 890 404.001C897 392.401 902.4 385.401 907.2 382.001C911.7 378.701 913 378.401 914.8 380.201ZM1049.8 380.201C1052.6 383.001 1049.7 391.601 1041.5 404.501C1032.3 419.101 1025.4 425.901 1021.1 424.501C1016.3 423.001 1017.6 416.201 1025 404.001C1032 392.401 1037.4 385.401 1042.2 382.001C1046.7 378.701 1048 378.401 1049.8 380.201Z" fill="black"/>
<path d="M228 338.9C224.1 339.4 223.5 339.8 222.9 342.5C222.3 345.3 210.5 366.7 194.8 393.2C186.1 408 183 415.5 183 422C183 427.4 185.3 431 188.8 431C192.5 430.9 199.4 426.8 204.6 421.5L210 415.9V420.2C210 425.5 211.7 429 215.1 430.9C217.4 432.2 218.1 432.1 222.1 430.2C224.5 429 228.9 425.8 231.8 423C237.4 417.7 238.6 417 237.6 419.6C236.5 422.5 238.1 428 240.5 429.6C242.2 430.7 243.4 430.8 245.6 430C250.7 428 255.8 423.9 260.2 418.1C262.5 415 264.7 412.1 265.1 411.6C265.5 411.1 264.9 413.2 263.8 416.3C260 426.7 263.5 432.9 272.4 431.6C274.9 431.2 278 430 279.3 428.9C282.3 426.6 283.1 426.5 282.4 428.5C281.9 429.7 282.8 430 287.6 430L293.5 429.9L303.5 413.9C317.5 391.5 325.9 382 331.7 382C335.5 382 334.5 384.8 325.9 398.5C316.3 413.8 314.9 416.4 313.9 420.9C313.1 424.4 314.3 428.9 316.3 430.2C320.2 432.7 329.2 429.5 336 423.3C341 418.9 353 403.3 353 401.3C353 398.6 350.4 400.1 347.6 404.6C340.6 415.7 336.2 420.7 331.5 423C328.1 424.6 326.5 424.9 325.8 424.2C324.4 422.8 328.4 414.8 337.5 401C344.5 390.2 346.7 384.1 345.1 379.8C343 374.3 334.5 374.8 325.7 381.1C321.5 384 320.1 384.6 320.9 383.2C321.5 382 322 380 322 378.6C322 376.2 321.6 376 317.8 376C310.8 376 309 376.9 309 380.1C309 382.7 303.1 394.3 300.6 396.5C300 397 297.7 400.4 295.6 404C290.5 412.4 283.4 421.5 280.4 423.5C279.1 424.3 277.2 425 276 425C272.3 425 273.7 420.2 281.7 406.6C291.7 389.5 296 381.2 296 378.9C296 377.2 295.2 377 289.5 377H283.1L281.9 381.2C280.6 386.3 274.1 397.7 271 400.5C269.8 401.6 266.5 405.8 263.9 409.7C257.8 418.7 252.6 424 249.8 424C248 424 247.8 423.6 248.3 420.1C248.5 418 251.2 412.1 254.2 406.9C260.4 396.3 270 378.4 270 377.6C270 377.3 267.5 377 264.5 377C260 377 258.9 377.4 257.9 379.1L256.8 381.2L254.4 378.9C248.8 373.7 237.8 377.9 226 389.9C221.8 394.1 216.5 400.8 214.2 404.8C208.7 414.1 200.1 423 196.6 423C194.8 423 194 422.5 194 421.3C194 418.9 201.2 405.1 219.6 372.4C229.2 355.3 236 342.2 236 340.6C236 337.8 236.1 337.8 228 338.9ZM251.8 380.2C254.6 383 251.7 391.6 243.5 404.5C234.3 419.1 227.4 425.9 223.1 424.5C218.3 423 219.6 416.2 227 404C234 392.4 239.4 385.4 244.2 382C248.7 378.7 250 378.4 251.8 380.2Z" fill="black"/>
<path d="M581.1 352.9C576.8 357.2 577.6 363 582.4 363C585.8 363 590.2 357.8 589.8 354.4C589.6 352 589 351.5 586.3 351.2C584.1 351 582.5 351.5 581.1 352.9Z" fill="black"/>
<path d="M298.5 353C298.2 353.5 293.9 356.9 289 360.6C284 364.2 280 367.7 280 368.2C280 369.8 284.8 368.3 292.6 364.4C300.6 360.4 305.6 356 304.7 353.6C304 351.9 299.5 351.4 298.5 353Z" fill="black"/>
<path d="M1307 375.101C1305.1 375.601 1298.6 375.701 1292.5 375.401C1279.6 374.801 1278.5 375.201 1272.3 382.801C1267.1 389.201 1266.4 392.201 1271 389.001C1273.3 387.401 1275.9 386.801 1282.7 386.401C1287.5 386.101 1293.1 385.701 1295 385.501C1297.8 385.101 1295.7 386.701 1284.6 393.301C1277 397.801 1268.4 403.701 1265.6 406.501C1260.1 411.801 1248 427.401 1248 429.201C1248 429.801 1249 430.001 1250.8 429.501C1254.4 428.501 1263 428.501 1271.2 429.501C1277.3 430.201 1278.4 430.101 1283.3 427.601C1290.1 424.301 1303.8 409.001 1302.8 405.901C1302.6 405.301 1300.7 407.001 1298.7 409.801C1292.6 418.101 1288.6 421.001 1283.5 421.001C1281.1 421.001 1277 420.501 1274.3 419.901C1270.9 419.101 1268 419.101 1264.7 419.801C1262.1 420.301 1260.3 420.401 1260.6 419.901C1260.9 419.401 1265.8 416.701 1271.6 413.901C1283.5 408.101 1290.6 402.201 1297.6 392.201C1300.2 388.501 1304.5 383.201 1307.2 380.401C1310 377.501 1311.8 375.001 1311.3 374.801C1310.9 374.501 1308.9 374.701 1307 375.101Z" fill="black"/>
<path d="M706.8 376.401C700 378.201 691.5 383.701 685.4 390.301C680.2 395.901 674 406.501 672.7 412.101C671.9 415.101 664.5 423.001 662.4 423.001C658 423.001 661.1 413.701 670.8 397.301C679 383.201 679.5 382.301 680.4 378.701C681 376.201 680.8 376.001 678.1 376.001C670 376.001 669.2 376.601 664.5 386.601C656.4 404.101 641.6 424.001 636.8 424.001C632.3 424.001 633.5 419.701 641.4 406.501C647.9 395.901 655 381.501 655 379.101C655 377.201 654.5 377.001 649.1 377.001H643.2L642.2 381.201C641.6 383.601 637.5 391.801 633.1 399.501C624.2 415.101 622.1 421.301 624 426.001C625.4 429.501 628.4 430.501 633.6 429.501C636.3 429.001 638.9 427.101 643.8 422.001L650.5 415.201L650.2 420.601C649.8 427.001 651.6 430.001 655.9 430.001C659.1 430.001 664.4 426.801 667.7 422.901C670.6 419.501 672 419.201 672 422.001C672 423.101 673.3 425.401 674.9 427.201C677.5 430.201 678.4 430.501 683.2 430.401C690.3 430.301 693.6 428.401 704.3 418.201C709.3 413.401 713.1 409.901 712.8 410.501C712.5 411.001 709.9 415.301 707.1 419.901C704.3 424.501 702 428.701 702 429.201C702 429.601 704.6 430.001 707.8 430.001L713.5 429.901L723.5 413.901C737.5 391.501 745.9 382.001 751.7 382.001C755.5 382.001 754.5 384.801 745.9 398.501C736.3 413.801 734.9 416.401 733.9 420.901C733.1 424.401 734.3 428.901 736.3 430.201C740.4 432.801 749.5 429.401 756.8 422.601C761.8 417.901 773 403.101 773 401.101C773 398.601 770.3 400.301 767.6 404.601C760.6 415.701 756.2 420.701 751.5 423.001C748.1 424.601 746.5 424.901 745.8 424.201C744.4 422.801 748.4 414.801 757.5 401.001C764.8 389.901 766.8 384.301 764.9 379.901C763.6 376.601 760.6 375.501 755.3 376.301C752.1 376.901 749.9 378.101 742.1 383.701C739.7 385.401 739.7 385.401 740.8 383.301C741.5 382.101 742 380.001 742 378.601C742 376.201 741.6 376.001 737.8 376.001C730.8 376.001 729 376.901 729 380.001C729 382.801 720.9 398.101 719.4 398.201C718.9 398.201 715 402.401 710.8 407.501C699.5 421.001 689.3 427.401 685 423.501C682.4 421.201 682.5 417.501 685.1 410.501C686.7 406.101 687.7 404.901 689.8 404.401C706.1 400.801 719 390.801 719 381.801C719 379.101 718.4 377.701 716.8 376.601C714.2 374.701 713.1 374.701 706.8 376.401ZM711 380.501C711 384.101 707.9 388.901 702.2 394.101C696.4 399.601 690 403.101 690 400.901C690 399.001 696.2 390.601 701.9 384.701C707.3 379.101 711 377.401 711 380.501Z" fill="black"/>
<path d="M608.9 377.499C604.4 379.099 598.2 382.999 593.6 386.999C588.9 391.199 580.5 402.599 578 408.399C576.8 410.899 573.1 415.999 569.6 419.599C564.3 425.199 562.9 426.099 560.4 425.799C555.2 425.199 556.1 421.899 566.1 404.999C575.6 388.899 580 380.399 580 378.199C580 377.199 578.4 376.999 573.8 377.199L567.6 377.499L566.4 381.599C565.7 383.899 562.4 390.399 558.9 396.099C546.5 416.699 543.8 425.999 548.9 430.099C553.9 434.199 561.4 431.799 569.7 423.499L576 417.199V421.199C576 424.299 576.7 425.799 579 428.199C580.9 429.999 582.6 430.999 583.6 430.599C584.5 430.299 585.8 429.999 586.5 429.999C587.2 429.999 590.1 428.399 593 426.399C599 422.299 599.1 421.899 589.5 437.499C581.7 450.299 575 462.399 575 463.899C575 464.699 576.7 464.999 580.2 464.799L585.4 464.499L593.1 451.799C601.2 438.699 637 377.099 637 376.399C637 376.199 634.7 375.999 632 375.999C628 375.999 626.4 376.499 624.6 378.299L622.3 380.599L619.6 378.299C616.6 375.699 614.2 375.499 608.9 377.499ZM618.3 384.199C617.7 393.999 596.5 423.999 590.2 423.999C585.7 423.999 584.8 419.099 587.8 411.299C593.1 397.399 609.4 379.399 616 380.199C618.2 380.499 618.5 380.899 618.3 384.199Z" fill="black"/>
</svg>
