<svg width="1345" height="391" viewBox="0 0 1345 391" fill="none" xmlns="http://www.w3.org/2000/svg">
<path d="M238 8.69957C217.2 30.1996 185.2 87.0996 162 144C153.1 165.8 145.9 178.3 143.2 176.6C140.3 174.8 138.8 164.9 138.8 148.1C139 116 145.5 51.4996 151.9 19.5996C153.5 11.3996 154.7 4.29957 154.4 3.79957C153.5 2.39957 151.4 2.89957 149.3 5.19957C148.1 6.49957 141.7 18.4996 135 31.9996C117.7 66.5996 93.4 109.5 77.7 133C54.3 168 33.9 184.7 19.2 181C12.7 179.4 9.49997 176.8 6.39997 170.5C0.799972 158.9 3.99997 145.4 15.1 134.1C20.4 128.7 20.9 126.6 16.4 129C12.9 130.9 6.29997 139.4 3.09997 146C-0.300028 153.3 -0.500028 164.5 2.69997 170.5C9.39997 183 22.6 186.9 36 180.3C50.7 173.1 62.7 160.3 81.5 132C95.6 110.8 106.1 92.9996 123.3 61.2996C130 49.0996 135.5 39.1996 135.7 39.2996C135.8 39.4996 135.3 45.5996 134.5 52.9996C131.2 84.8996 129.7 108.8 129.7 131C129.7 161.8 131.7 172.5 138.6 177.9C140.1 179.1 142.1 180 143.1 180C147.9 180 154.4 170.1 162.5 150.6C173 125.2 194.6 80.5996 207.3 57.9996C221.6 32.5996 232.3 17.3996 243.4 6.69957C248.6 1.79957 249.9 -0.00042998 248.5 -0.00042998C247.3 -0.00042998 243 3.59957 238 8.69957Z" fill="black"/>
<path d="M520.4 5.20047C518.8 6.30047 514.8 9.90047 511.5 13.1005L505.5 18.9005L487.2 19.9005C466.2 21.1005 450.8 23.2005 441.2 26.1005C433.2 28.5005 419 35.0005 419 36.2005C419 37.4005 419.6 37.3005 425.8 34.1005C433.6 30.2005 445.6 26.5005 457 24.6005C467.2 22.9005 488.9 21.0005 497.8 21.0005C502.9 21.0005 503.2 21.1005 501.9 22.8005C501.1 23.9005 496.3 30.3005 491.1 37.1005C478.9 53.3005 467.2 70.7005 460 83.6005C455.6 91.5005 453.2 94.7005 449.8 97.2005C447.3 99.0005 443 102.2 440.4 104.2C433.4 109.5 421.4 116.5 413.4 119.9L406.5 122.9L406.3 117.2C406.1 114.1 405.5 108 404.9 103.7L403.9 95.9005L410.6 88.7005C417.7 81.0005 420.7 76.1005 419.7 73.6005C417.5 68.0005 400.2 78.5005 396.4 87.7005C395.4 89.9005 394.6 97.4005 394 108.7C393.6 118.3 392.9 126.4 392.6 126.7C392.3 127 386.3 128.8 379.3 130.7C357.9 136.3 347 143 345.4 151.6C343.1 164.1 360.1 170.1 376.6 162.6C387.4 157.6 400.5 142.5 404.4 130.5C406 125.5 406 125.4 415.4 121.1C427.8 115.5 438 109.4 445.8 103.1C449.2 100.3 452 98.2005 452 98.4005C452 98.6005 450.7 101.8 449 105.4C443 118.8 440.8 127.7 440.6 138.5C440.5 151.1 442.6 156 449.6 159.1C457.7 162.7 467.8 159.4 482.6 148.2C494.1 139.5 513.8 118.6 528.9 99.2005L532.2 95.0005L537.3 97.7005C545.4 102.1 545.1 105.4 534.5 124C526 139.1 524.2 147.7 528.1 155.6C530.5 160.6 536.4 164 542.7 164C554 164 571.6 149.2 598 117.5C608.5 104.8 608.8 104.5 605.1 110.6C601.3 116.9 598.6 127 599.5 131.8C601.1 140.2 608.8 143.2 617.9 138.8C623.6 136.1 638 121.7 644 112.8C648.3 106.3 648.7 106.1 652.6 106C658.4 106 672.4 103.2 678.4 100.9C681.2 99.9005 683.9 99.0005 684.4 99.0005C685.4 99.0005 684.7 125.6 683.7 126.6C683.3 127 677.3 128.8 670.3 130.7C648.9 136.3 638 143 636.4 151.6C634.7 160.7 642.7 166.7 655.2 165.7C664.5 164.9 671.7 161.4 679.7 153.8C687.3 146.5 691.8 139.9 694.9 131.5L697.1 125.5L710.8 118.9C723 113 736.3 104.3 742.8 98.0005C746.3 94.7005 744.6 94.3005 740.3 97.4005C738.2 99.0005 732.9 102.8 728.5 106.1C721.3 111.4 706.9 119.3 699.8 121.9L697 123V116.4C697 112.8 696.5 106.8 695.9 102.9L694.8 96.0005L701.2 89.1005C708.5 81.2005 711.6 76.1005 710.6 73.5005C709 69.1005 695 76.1005 689.5 84.0005C688 86.1005 686.6 89.7005 686.3 92.0005C685.8 95.8005 685.3 96.4005 681.5 98.1005C676.7 100.2 663.1 103.5 655.1 104.5L649.8 105.1L650.6 101.3C652 95.4005 651.5 86.8005 649.7 83.3005C644.1 72.6005 629.6 69.1005 617.1 75.5005C607.5 80.3005 604.9 87.1005 610.4 92.9005L613.2 95.8005L601.2 110.6C580.9 135.9 563.2 153.4 552.3 158.9C547.9 161.1 541.1 161.7 538.1 160C535.2 158.5 533.7 153.5 534.4 148.4C535.2 142.3 537.9 136.3 544.4 126.6C553.1 113.5 554.5 109.5 552.9 103.5C552 100.2 549.7 98.6005 539.3 94.4005C537.3 93.5005 537.5 93.1005 543.7 84.5005C556.8 66.3005 558.6 58.0005 549.3 58.0005C541.8 58.0005 532.1 66.3005 527.2 76.8005C524.3 83.2005 524.7 88.1005 528.4 91.8005L530.8 94.3005L520.6 106.4C492.5 140 470.6 158 457.9 158C445.6 158 443.2 145.9 451.1 123.3C457.8 104.2 470.2 83.9005 498.7 45.8005L517.1 21.1005L553.8 21.7005C592.9 22.3005 606.9 21.6005 623.4 18.0005C632.5 16.0005 642.4 11.9005 647 8.10047C651.3 4.60047 648.5 4.80047 643.2 8.40047C631 16.6005 616.1 19.0005 574.8 19.7005C557.9 20.0005 538.4 19.9005 531.6 19.5005L519.1 18.8005L523.6 12.8005C526 9.50047 528 6.40047 528 5.90047C528 5.20047 524.8 3.00047 523.7 3.00047C523.5 3.00047 522 4.00047 520.4 5.20047ZM551.8 63.2005C552 64.6005 550.9 68.2005 549.4 71.2005C545.9 78.3005 536 92.0005 534.4 92.0005C532.2 92.0005 529 86.9005 529 83.3005C529 76.3005 534.6 67.5005 542 62.8005C547.6 59.2005 551.4 59.4005 551.8 63.2005ZM638.5 75.9005C643.1 78.0005 646.4 81.3005 647.9 85.3005C649.5 89.3005 649.2 98.6005 647.6 101.9C645.9 105.2 643.5 105.1 633.2 101.8C627.5 100 626.9 99.6005 627.5 97.6005C629.6 91.1005 626.8 89.2005 620.5 92.9005L617.1 94.9005L614 92.0005C603.5 82.2005 623.5 69.0005 638.5 75.9005ZM417 75.5005C417 77.4005 413.4 82.2005 408.6 87.0005L403 92.4005V89.2005C403 84.6005 405.4 80.5005 409.7 77.5005C413.1 75.2005 417 74.2005 417 75.5005ZM708 75.5005C708 77.4005 704.4 82.2005 699.6 87.0005L694 92.4005V89.2005C694 84.6005 696.4 80.5005 700.7 77.5005C704.1 75.2005 708 74.2005 708 75.5005ZM615 97.4005C615 97.6005 614.2 98.4005 613.3 99.1005C611.7 100.4 611.6 100.3 612.9 98.7005C614.2 97.1005 615 96.6005 615 97.4005ZM640.1 105.6C642.8 106 645 106.6 645 107C645 108.9 632.8 124 626.8 129.6C614.7 140.8 607 142.1 607 132.9C607 128.5 612.5 117.3 619.4 107.6L624 101.1L629.6 103C632.7 104.1 637.4 105.2 640.1 105.6ZM391.4 132.7C389.5 140.8 380.1 153.6 372.4 158.7C368 161.6 365.6 162.5 361.1 162.8C356.1 163.2 355 162.9 352.3 160.6C348.3 157.3 347.5 153.9 349.6 149.5C352.6 143.2 361.3 138.3 378.9 133C391.5 129.3 392.2 129.3 391.4 132.7ZM682.4 132.7C680.5 140.8 671.1 153.6 663.4 158.7C659 161.6 656.6 162.5 652.1 162.8C647.1 163.2 646 162.9 643.3 160.6C639.3 157.3 638.5 153.9 640.6 149.5C643.6 143.1 652.2 138.3 669.5 133.1C682.5 129.3 683.2 129.3 682.4 132.7Z" fill="black"/>
<path d="M1138.6 7.09975C1133.1 8.39975 1120.6 15.1998 1112.6 21.1998C1098.8 31.4998 1078 53.9998 1065.6 71.7998C1061.3 77.8998 1060.4 78.6998 1059.8 77.0998C1056.2 67.3998 1034.1 72.9998 1019.6 87.2998C1008.1 98.6998 1003 108.4 1003 119.1C1003 124.7 1003.3 125.5 1006.4 128.6C1013.2 135.4 1020.5 132.5 1035 117.3C1040.5 111.5 1045 107 1045 107.3C1045 107.7 1044 111.5 1042.8 115.7C1041.3 121 1040.6 126.4 1040.6 132.6C1040.6 140.8 1040.8 142.3 1043.5 147.5C1045.8 152.1 1047.5 153.9 1050.9 155.7C1062.2 161.6 1075.5 156.1 1094.8 137.6C1106 126.8 1129 99.2998 1129 96.6998C1129 94.6998 1126.9 96.6998 1122.5 102.7C1109.9 119.8 1091.1 139.7 1080.8 146.8C1068.8 155.1 1059.6 157.1 1054.3 152.6C1050.5 149.4 1049 144.2 1049 134.4C1049 123.9 1052.4 114.2 1061.4 98.2998C1072 79.6998 1073.4 78.0998 1092 65.2998C1118.5 46.9998 1127.8 39.9998 1137.1 31.1998C1149.8 19.1998 1154.5 11.2998 1150.8 8.19975C1148.8 6.59975 1142.9 5.99975 1138.6 7.09975ZM1148.9 10.6998C1151.3 14.9998 1139.3 28.7998 1121.5 42.1998C1109.1 51.3998 1081 70.2998 1080.4 69.6998C1079.1 68.3998 1100.8 43.1998 1113.9 30.6998C1125.8 19.3998 1130.5 15.6998 1137.4 12.0998C1143.9 8.59975 1147.5 8.19975 1148.9 10.6998ZM1056 76.8998C1059 82.5998 1045.2 104.2 1028 120.8C1018.6 130 1014 131.2 1014 124.3C1014.1 119.6 1019.5 105 1024.1 97.4998C1028.3 90.4998 1037.9 81.3998 1045.1 77.6998C1051.3 74.4998 1054.5 74.2998 1056 76.8998Z" fill="black"/>
<path d="M1139.9 60C1135 62.6 1128.3 70.3 1125.2 76.8C1120.9 86.2 1123.2 91.3 1134.7 97.4C1143.5 102.1 1143.3 105 1132.5 124C1124 139.1 1122.2 147.7 1126.1 155.6C1128.5 160.6 1134.4 164 1140.7 164C1152 164 1171.5 147.4 1197.5 115.7C1200.1 112.6 1202.4 110 1202.6 110C1202.8 110 1202.5 111.2 1202 112.6C1201.4 114 1201 117.3 1201 119.9C1201 129.7 1208.9 136 1221.2 136C1232.1 136 1242.8 131.3 1258.7 119.6C1266.4 113.9 1283 97.7 1283 95.9C1283 95.2 1279.4 98.3 1274.9 102.8C1264.7 113.1 1249.4 124.7 1239.4 129.7C1232.3 133.2 1230.9 133.5 1223.3 133.5C1213.2 133.5 1210.7 131.8 1210.8 125.1C1210.9 117 1214 112.6 1222.5 108.3C1230.3 104.3 1239.2 97.6 1244.8 91.5C1250.1 85.7 1251.4 83 1250.8 78.9C1250.5 76.7 1250.1 76.5 1244 76.5C1238.3 76.5 1236.7 76.9 1231.6 80C1228.4 81.9 1223 86.1 1219.5 89.2C1216 92.4 1212.8 95 1212.3 95C1211.9 95 1209 98.2 1206 102.2C1185.4 129.3 1162.3 152.8 1150.3 158.9C1145.9 161.1 1139.1 161.7 1136.1 160C1133.2 158.5 1131.7 153.5 1132.4 148.4C1133.2 142.3 1135.9 136.3 1142.4 126.6C1149.5 115.8 1151 112.8 1151.2 108.3C1151.4 101 1150 99.5 1137.3 94.4C1135.2 93.5 1135.3 93.2 1141.6 84.5C1149.5 73.7 1153 67.1 1153 63.1C1153 57.9 1146.7 56.4 1139.9 60ZM1149.8 63.2C1150 64.6 1148.9 68.2 1147.4 71.2C1143.9 78.3 1134 92 1132.4 92C1130.2 92 1127 86.9 1127 83.3C1127 76.3 1132.6 67.5 1140 62.8C1145.6 59.2 1149.4 59.4 1149.8 63.2ZM1249.3 79.4C1250.3 81.9 1245.9 88.9 1240.2 93.9C1234.9 98.4 1220.9 108 1219.6 108C1215.4 108 1232.5 87.1 1241.7 81C1246.8 77.7 1248.5 77.3 1249.3 79.4Z" fill="black"/>
<path d="M847.4 68.7993C840.8 73.6993 823.5 93.7993 810.9 111.499C794.8 133.899 780.9 158.199 773.9 176.099L769.5 187.199L762 191.099C751.4 196.599 742.5 203.599 729.6 216.499C717.8 228.299 709.1 238.599 700.6 250.799C696.3 256.899 695.4 257.699 694.8 256.099C691.1 245.999 669 251.999 653.6 267.299C649.7 271.199 646.2 274.299 645.9 274.199C645.5 274.099 642.1 278.199 638.2 283.299C629.7 294.499 616.5 307.499 611.6 309.499C600.7 314.099 593.9 307.699 597 295.899C599.2 287.699 609.8 269.199 617.7 259.699C620.4 256.399 620 254.999 616.3 254.999C614.6 254.999 612.4 256.299 609.9 258.999C605.5 263.599 605 263.799 605 260.699C605 257.899 604.1 256.599 601.3 255.099C589.2 248.799 557.3 271.999 551.4 291.599C548.4 301.399 552.3 308.999 560.2 308.999C566.2 308.899 571.3 306.299 579.8 299.099L587 292.799V296.299C587 306.799 596.4 315.199 606.1 313.399C613.9 311.999 626.4 301.799 635.8 289.499C642.2 281.099 642.2 281.099 640 286.799C638.8 289.899 638 294.499 638 298.099C638 303.699 638.3 304.499 641.4 307.599C648.2 314.399 655.5 311.499 670 296.299C675.5 290.499 680 285.999 680 286.299C680 286.699 679 290.499 677.8 294.699C676.2 300.199 675.6 305.199 675.6 311.599C675.6 319.799 675.9 321.399 678.5 326.599C680.8 331.099 682.5 332.899 685.9 334.699C698.3 341.199 713.5 333.799 736.3 310.099C747.7 298.099 764.7 276.399 763.6 275.199C763.2 274.799 761.9 275.899 760.7 277.499C747.6 295.599 726.2 318.699 715.8 325.799C703.7 334.099 694.6 336.099 689.3 331.599C685.5 328.399 684 323.199 684 313.699C684 303.199 687.3 293.399 696 278.099C707 258.599 708.5 256.999 727.5 243.999C760.3 221.599 777 207.699 784 197.199C788.8 189.999 787.9 186.799 780.8 185.499L777.1 184.799L781.1 176.899C786.6 165.799 795.9 150.399 803.7 139.199L810.2 129.799L812 132.699C813.9 135.799 819.3 137.999 825.2 137.999C834.1 137.999 850.7 130.999 862.9 122.099C866.4 119.599 870 116.899 871 116.199C872 115.499 877.7 113.799 883.6 112.499C896.6 109.599 907 105.999 916.4 101.299L923.4 97.7993L921.6 100.599C917.5 106.699 916.1 109.699 914.9 114.299C913.9 118.299 914 119.699 915.5 123.499C917.4 128.699 919.3 129.999 924.7 129.999C930.2 129.899 935.5 127.199 943.8 120.099L951 113.799V117.299C951 122.199 952.6 125.899 956.3 129.799C966.8 140.699 983 132.699 1002.7 106.699C1006.8 101.299 1010 96.3993 1009.8 95.8993C1009.6 95.2993 1006.2 98.9993 1002.3 104.199C993.7 115.499 980.5 128.499 975.6 130.499C964.7 135.099 957.9 128.699 961 116.899C963.2 108.699 973.8 90.1993 981.7 80.6993C984.4 77.3993 984 75.9993 980.3 75.9993C978.6 75.9993 976.4 77.2993 973.9 79.9993C969.5 84.5993 969 84.7993 969 81.6993C969 78.8993 968.1 77.5993 965.3 76.0993C958.6 72.5993 942.7 79.1993 930.8 90.4993C927.9 93.1993 925.1 95.4993 924.5 95.4993C924 95.5993 921.5 96.7993 919 98.1993C910.9 102.999 891.2 109.699 880 111.499L875.5 112.199L878.1 109.399C884.7 102.099 891.7 89.1993 892.6 82.6993C893.1 79.0993 892.8 77.8993 890.9 75.5993C885.9 69.7993 874.6 71.3993 856.6 80.5993C850.7 83.5993 845.6 85.8993 845.4 85.6993C845.1 85.4993 847.4 82.4993 850.4 79.1993C853.5 75.7993 856.4 72.0993 857 70.8993C859.9 65.5993 853.7 64.1993 847.4 68.7993ZM884 76.4993C885.9 78.7993 883.9 84.2993 878.1 93.0993C873.2 100.499 863 112.899 860.6 114.199C859.9 114.599 852 115.799 843 116.999C834 118.199 824.3 119.899 821.4 120.899L816.1 122.699L817.8 119.799C821 114.399 833.1 100.999 839.8 95.3993C857.7 80.5993 879.6 71.1993 884 76.4993ZM965.4 79.6993C968.6 90.1993 938.9 126.999 927.2 126.999C914.7 126.999 934.8 91.5993 953.3 80.9993C959.2 77.5993 964.6 76.9993 965.4 79.6993ZM857 117.999C857 119.499 846.1 127.799 840 130.899C830.6 135.799 819.3 137.099 815.3 133.799C813 131.999 813.8 127.299 816.6 125.099C820.2 122.199 825.1 121.099 842 118.999C850 117.999 856.6 117.199 856.8 117.099C856.9 116.999 857 117.399 857 117.999ZM783.9 189.699C786.3 193.999 774.3 207.799 756.5 221.199C746.5 228.699 716.5 248.999 715.5 248.999C713.6 248.999 725.9 233.699 739.1 219.599C746.5 211.699 765.8 193.999 767 193.999C767.4 193.999 767.5 196.499 767.2 199.599C766.6 207.299 768.7 206.499 771.8 197.899C773 194.399 775 190.699 776.1 189.699C778.8 187.499 782.6 187.499 783.9 189.699ZM690.8 255.699C693.1 259.699 685.4 274.799 674.7 287.299C663 300.899 653.6 308.799 650.5 307.599C647.2 306.399 649.5 295.999 656.4 281.599C660.6 272.899 666.1 266.399 674.4 260.499C683.8 253.899 689 252.299 690.8 255.699ZM601.4 258.699C604.6 269.199 574.8 305.999 563.2 305.999C550.7 305.999 570.8 270.599 589.3 259.999C595.2 256.599 600.6 255.999 601.4 258.699Z" fill="black"/>
<path d="M1301.3 74.1C1295.8 76.8 1289.2 83.2 1287.3 87.7C1286.4 90.1 1285.6 97.2 1285.1 108.7C1284.5 121.4 1283.9 126.4 1283 127C1282.2 127.5 1276.9 129 1271.1 130.5C1244 137.3 1232 147.3 1237.3 158.6C1239.8 163.7 1244.1 165.5 1253.5 165.5C1263.9 165.4 1270.6 162.4 1279.7 153.8C1287.3 146.5 1291.8 139.9 1294.9 131.5L1297.1 125.5L1310.8 118.9C1323 113 1336.3 104.3 1342.8 98C1346.4 94.6 1344.5 94.3 1340.1 97.6C1338 99.2 1333.8 102.3 1330.9 104.6C1323.8 109.9 1312.7 116.4 1304.3 120L1297.5 122.9L1297.3 117.2C1297.1 114.1 1296.5 108 1295.9 103.7L1294.9 95.9L1301.2 89.1C1304.7 85.3 1308.4 80.7 1309.4 78.7C1313 72.2 1309.3 70.1 1301.3 74.1ZM1308 76.5C1308 77.3 1304.9 81.3 1301 85.3L1294.1 92.5L1294 89.2C1294 84.6 1296.4 80.5 1300.7 77.5C1304.9 74.7 1308 74.3 1308 76.5ZM1282.4 132.7C1280.5 140.8 1271.1 153.6 1263.4 158.7C1259 161.6 1256.6 162.5 1252.1 162.8C1247.1 163.2 1246 162.9 1243.3 160.6C1239.3 157.3 1238.5 153.9 1240.6 149.5C1243.6 143.1 1252.2 138.3 1269.5 133.1C1282.5 129.3 1283.2 129.3 1282.4 132.7Z" fill="black"/>
<path d="M272.7 78.101C270.1 79.801 265 84.801 261.3 89.301C243.7 110.701 227.3 125.001 220.4 125.001C213 125.001 215.4 116.701 228.3 97.701C233.1 90.701 237 84.301 237 83.501C237 80.901 233.4 79.801 229.6 81.401C220 85.401 206.6 112.601 209.9 121.301C212.5 128.201 221.3 128.701 230.4 122.701C233.4 120.701 239.2 116.101 243.3 112.501L250.9 106.001L248.8 111.701C244.6 123.801 246.7 133.301 254.6 137.701C261.8 141.801 270.6 140.501 281.7 133.501C287.5 129.801 311 106.901 316.4 99.701C320.2 94.701 319 93.801 314.8 98.601C290.2 127.101 276.4 138.001 264.9 138.001C255.9 138.001 252.7 132.301 255.5 121.501C257.5 114.101 260.5 108.801 272.4 92.101C277.7 84.801 282 77.901 282 76.901C282 74.001 278.1 74.501 272.7 78.101Z" fill="black"/>
<path d="M345.1 77.499C339.3 80.099 329.7 87.499 322.9 94.799C307.2 111.399 305.7 126.899 319 133.799C322.9 135.799 324.6 136.099 332 135.799C339.5 135.399 341.5 134.899 349 131.299C353.7 128.999 361.3 124.299 366 120.899C375 114.199 392 97.899 392 95.899C392 95.199 388.4 98.299 383.9 102.799C373.7 113.099 358.4 124.699 348.4 129.699C341.3 133.199 339.9 133.499 332.4 133.499C321.3 133.499 319.6 132.099 320.2 123.299C320.5 117.999 321.1 116.499 323.5 113.899C325.2 112.199 328.8 109.699 331.5 108.299C339.3 104.299 348.2 97.599 353.8 91.499C359.1 85.699 360.4 82.999 359.8 78.899C359.5 76.699 358.9 76.499 354 76.299C350.8 76.099 347.1 76.699 345.1 77.499ZM358.3 79.399C359.3 81.899 354.9 88.899 349.2 93.899C343.9 98.399 329.9 107.999 328.6 107.999C324.4 107.999 341.5 87.099 350.7 80.999C355.8 77.699 357.5 77.299 358.3 79.399Z" fill="black"/>
<path d="M890.5 225.4C886.4 229.8 884.4 234.8 886.5 235.7C888.9 236.6 890.6 235.4 895 229.9C898.2 225.9 898.8 224.5 897.9 223.4C896.1 221.2 894 221.8 890.5 225.4Z" fill="black"/>
<path d="M774.9 239C770 241.6 763.3 249.3 760.2 255.8C755.9 265.2 758.2 270.3 769.7 276.4C778.5 281.1 778.3 284 767.5 303C759 318.1 757.2 326.7 761.1 334.6C763.5 339.6 769.4 343 775.7 343C787.9 343 808.4 324.9 838.2 287.6C847.3 276.3 849.3 273.3 847.1 274.2C846.7 274.3 842.5 279.2 838 285C809.5 321.1 788.6 340 777.1 340C771.7 340 770.2 339.3 768.4 335.7C765.1 329.5 768.1 319.6 777.4 305.6C786.1 292.5 787.5 288.5 785.9 282.5C785 279.2 782.7 277.6 772.3 273.4C770.3 272.5 770.5 272.1 776.7 263.5C787.1 249.1 790.1 241.5 786.8 238.2C785 236.4 779 236.8 774.9 239ZM784.8 242.2C785 243.6 783.9 247.2 782.4 250.2C778.9 257.3 769 271 767.4 271C765.2 271 762 265.9 762 262.3C762 255.3 767.6 246.5 775 241.8C780.6 238.2 784.4 238.4 784.8 242.2Z" fill="black"/>
<path d="M482.4 247.9C480.2 249.4 474.2 255.5 469.1 261.3C439.7 294.6 412.8 338.8 404.5 367.5C400.1 382.7 402 390.4 406.8 376.9C412.4 361.3 425.2 337.6 438.7 318.2L445.2 308.8L447 311.7C448.9 314.8 454.3 317 460.2 317C469.2 317 485.7 310.1 497.8 301.2C501.3 298.6 505 295.9 506 295.2C507 294.5 512.7 292.8 518.6 291.5C524.6 290.1 532.9 287.9 537 286.4C546.4 283.1 560.2 276.1 559.4 274.9C559.1 274.4 557.2 275.1 555.1 276.5C547.2 281.4 526.8 288.6 515 290.5L510.5 291.2L513.1 288.4C520.4 280.2 526.7 268.7 527.6 261.8C528.1 258.1 527.9 256.9 525.9 254.6C520.9 248.8 509.6 250.4 491.6 259.6C485.7 262.6 480.6 265 480.4 264.8C480.2 264.6 482.5 261.6 485.5 258.1C488.5 254.7 491.5 251 492.1 249.9C494.9 244.6 488.7 243.3 482.4 247.9ZM519 255.5C520.9 257.8 518.9 263.3 513.1 272.1C508.2 279.5 498 291.9 495.6 293.2C494.9 293.6 486.7 294.9 477.4 296.1C468.1 297.2 458.4 299 455.8 300L451 301.8L452.7 298.9C456 293.4 468 280 474.8 274.4C483 267.6 497.7 258.7 505.1 256C511.7 253.7 517.3 253.4 519 255.5ZM492 297C492 298.5 481.1 306.8 475 309.9C465.6 314.8 454.3 316.1 450.3 312.8C448 311 448.8 306.3 451.6 304.1C455.2 301.2 460.1 300.1 477 298C485 297 491.6 296.2 491.8 296.1C491.9 296 492 296.4 492 297Z" fill="black"/>
<path d="M349.4 248.801C345.9 251.301 328.1 270.601 324 276.201C321.6 279.601 306.8 292.101 302.8 294.101C297.5 296.801 294.2 296.601 293.4 293.601C292.4 289.501 294.8 284.101 303.5 271.001C314.6 254.301 314.7 254.001 312.4 252.301C306.6 248.001 294.5 260.701 288.4 277.601C285 286.801 285.2 291.401 289 295.201C291.8 297.901 292.6 298.201 296.5 297.701C302.5 297.101 310.3 292.201 320.3 283.001C327.7 276.101 328.2 275.801 326.1 279.501C319.2 291.101 313.9 300.401 310.5 306.801L306.7 314.001L298.1 316.601C276.8 322.801 248 332.501 239.7 336.101C213.4 347.501 201 359.901 201 374.601C201 380.301 201.3 381.201 204.3 384.301C212.9 393.501 233.5 392.801 253.5 382.901C275.7 371.801 298.4 347.701 315.7 317.001C318.1 312.701 319.3 311.801 325 309.401C338.8 303.701 359 292.001 372.7 281.701C380.3 276.001 382.3 274.001 380.2 274.001C379.8 274.001 375.8 276.701 371.5 280.101C367.1 283.401 359.5 288.601 354.6 291.701C344.9 297.701 322 309.301 321.2 308.601C320.6 307.901 336.4 282.101 343.9 271.501C356.5 253.801 360 248.601 360 247.301C360 244.901 353.6 245.801 349.4 248.801ZM301.9 320.701C281.9 353.701 261.3 374.401 239.8 382.901C220.2 390.701 207.1 388.901 203.8 377.901C202.8 374.601 202.9 373.001 204.5 368.201C205.9 363.501 207.5 361.201 213.9 355.001C226.1 343.001 242.4 335.601 284.5 322.601C294.4 319.601 302.9 317.101 303.3 317.101C303.8 317.001 303.1 318.701 301.9 320.701Z" fill="black"/>
<path d="M965.5 247.8C956.4 251 942.9 260 928.8 272.5C923.9 276.7 920 279.9 920 279.6C920 279.3 922.1 275.7 924.6 271.5C928.3 265.3 929 263.7 928 262.5C925.4 259.3 922.2 260.8 916.9 267.5C914.1 271.1 911.3 274 910.7 274.1C910 274.1 905.5 278.9 900.5 284.7C890.5 296.5 877.1 308.8 869.5 313.1C855 321.5 844.8 317.8 846.4 304.6C847.2 297.4 851.5 289.3 863.5 272.4C873.9 257.9 875 255.7 872.9 254.5C867.3 251 849.7 270 841.4 288.5C837.9 296.4 837.1 305.4 839.5 310.5C842.7 317.2 851.3 320.8 859.8 319C868.6 317.1 876.6 311.4 891.6 296.5L905.7 282.5L901.9 289C897.1 297.2 896.3 300.2 898.5 302.4C899.4 303.3 900.8 304 901.5 304C902.3 304 908.8 297.6 916 289.7C923.2 281.9 932.3 272.6 936.3 269.2C953.2 254.3 974 243.7 974 249.8C974 252.5 969.8 258.4 959.3 270.4C947.2 284.1 936.8 297.8 934 303.6C927.9 316 932.3 326 943.7 326C948.5 326 957.7 321.7 965.6 315.7C971.8 311 993.3 289.4 1000.4 280.7C1005.8 274.1 1004.1 273.6 998.3 280.1C989.2 290.5 970.4 309.2 964.8 313.6C953.1 322.7 943.5 325.8 940.4 321.5C937.2 317.2 941.7 308.4 958.2 286.2C970.5 269.9 977.6 258.4 978.6 253.3C979.1 250.9 978.7 249.7 977.1 248.1C974.6 245.6 972.1 245.5 965.5 247.8Z" fill="black"/>
<path d="M1013.5 252.401C1003.8 255.501 998.9 259.801 998.7 265.501C998.6 268.601 999.2 269.801 1002.4 272.701L1006.2 276.201L1003.1 279.801C994.5 290.101 989.1 303.301 990.5 310.801C992.1 319.201 999.8 322.201 1008.9 317.801C1014.6 315.101 1029 300.701 1035 291.801C1039.3 285.301 1039.7 285.101 1043.6 285.001C1049.4 285.001 1063.4 282.201 1069.4 279.901C1072.2 278.901 1074.9 278.001 1075.4 278.001C1075.8 278.001 1076.1 284.101 1075.8 291.601C1075.5 301.801 1075.1 305.301 1074 306.001C1073.3 306.501 1067.9 308.001 1062.1 309.501C1040.7 314.801 1029 321.901 1027.5 330.401C1025.7 339.801 1033.6 345.701 1046.2 344.701C1055.5 343.901 1062.7 340.401 1070.7 332.801C1078.3 325.501 1082.8 318.901 1085.9 310.501L1088.1 304.501L1101.8 297.901C1114 292.001 1127.3 283.301 1133.8 277.001C1137.4 273.601 1135.5 273.301 1131.1 276.601C1129 278.201 1124.8 281.301 1121.9 283.601C1114.8 288.901 1103.7 295.401 1095.3 299.001L1088.5 301.901L1088.3 296.201C1088.1 293.101 1087.5 287.001 1086.9 282.701L1085.9 274.901L1092.2 268.101C1099.5 260.201 1102.6 255.101 1101.6 252.501C1100 248.101 1086 255.101 1080.5 263.001C1079 265.101 1077.6 268.701 1077.3 271.001C1076.8 274.801 1076.3 275.401 1072.5 277.101C1067.7 279.201 1054.1 282.501 1046.1 283.501L1040.8 284.101L1041.6 280.301C1044.8 266.401 1039.9 255.901 1028.6 252.501C1022.7 250.701 1018.9 250.701 1013.5 252.401ZM1029.5 254.901C1034.1 257.001 1037.4 260.301 1038.9 264.301C1040.5 268.301 1040.2 277.601 1038.6 280.901C1036.9 284.201 1034.5 284.101 1024.2 280.801C1018.5 279.001 1017.9 278.601 1018.5 276.601C1020.6 270.101 1017.8 268.201 1011.5 271.901L1008.1 273.901L1005 271.001C1000.8 267.001 1000.9 262.801 1005.4 258.501C1011.3 253.001 1021.9 251.401 1029.5 254.901ZM1099 255.501C1099 256.301 1095.9 260.301 1092 264.301L1085.1 271.501L1085 268.201C1085 263.601 1087.4 259.501 1091.7 256.501C1095.9 253.701 1099 253.301 1099 255.501ZM1031.1 284.601C1033.8 285.001 1036 285.601 1036 286.001C1036 287.901 1023.8 303.001 1017.8 308.601C1005.7 319.801 998 321.101 998 311.901C998 307.501 1003.5 296.301 1010.4 286.601L1015 280.101L1020.6 282.001C1023.7 283.101 1028.4 284.201 1031.1 284.601ZM1073.4 311.701C1071.5 319.801 1062.1 332.601 1054.4 337.701C1050 340.601 1047.6 341.501 1043.1 341.801C1038.1 342.201 1037 341.901 1034.3 339.601C1030.3 336.301 1029.5 332.901 1031.6 328.501C1034.6 322.201 1043.3 317.301 1060.9 312.001C1073.5 308.301 1074.2 308.301 1073.4 311.701Z" fill="black"/>
</svg>
