<svg width="1108" height="166" viewBox="0 0 1108 166" fill="none" xmlns="http://www.w3.org/2000/svg">
<path d="M161.8 3.80035C148.8 18.2004 125.8 72.0003 108.4 128.4C102.9 146.2 98.2 158.1 96.2 159.4C92.7 161.5 91.6 130.5 94 96.1004C96.2 64.3004 99.1 33.1004 101 20.3004C103.4 4.70035 103.4 3.00035 101.6 3.00035C100.1 3.00035 96.6 10.4004 92.2 23.0004C78.1 63.1004 51.2 124 39.5 142.1C33.1 152 24.7 160.6 19.5 162.5C15.8 164 14.9 164 11.8 162.7C7.5 160.9 4.6 156.3 3 148.8C1.2 139.6 3.9 129.3 10.6 120.3C13.8 116.1 13.7 114 10.4 117.1C9 118.4 6.2 122.8 4.2 126.9C0.8 133.8 0.5 135.1 0.5 143C0.5 154.5 3.3 160.4 10.3 163.9C14.7 166.1 15.5 166.2 19.2 165C24.7 163.4 33.8 154.6 40.5 144.5C49.9 130.3 65.7 96.6004 82 56.3004C86.1 46.3004 89.6 38.2004 89.8 38.5004C90 38.7004 89.4 50.0004 88.4 63.7004C86.2 94.4004 85.9 139.7 87.8 149.1C90.1 160.3 94.3 164.7 98.2 160.2C101.1 156.9 103.7 150.4 110 131C128.4 73.3003 148.9 24.1004 161.5 7.50035C165.6 2.10035 166.7 0.000351534 165.6 0.000351534C165.4 0.000351534 163.7 1.70035 161.8 3.80035Z" fill="black"/>
<path d="M1020.9 6.70168C1018.9 8.80168 1016.1 12.2017 1014.5 14.2017C1011.8 18.0017 1011.7 18.0017 1004.8 18.0017C984.7 18.0017 961.4 24.7017 955.1 32.4017C953.1 34.8017 954.4 34.4017 960.2 30.6017C967.2 26.2017 975.2 23.3017 985.7 21.5017C993.2 20.2017 1010 19.4017 1010 20.4017C1010 20.6017 1007.7 24.7017 1004.9 29.6017C991.1 53.3017 977.5 84.1017 972 104.002C968.9 114.802 968.2 131.602 970.4 137.502C973.3 145.102 977.8 146.702 985.6 143.002C990.9 140.402 1001.2 130.102 1008.4 120.102C1016.6 108.702 1030.1 86.8017 1029.4 86.1017C1029 85.8017 1028.3 86.3017 1027.6 87.4017C1008.5 119.202 992.5 139.002 983.5 142.002C980.5 143.002 979.5 142.902 977.4 141.502C973.7 139.102 972.7 135.502 973.4 127.002C974.9 106.902 986.7 78.4017 1011.7 34.5017L1019.7 20.5017L1051.1 19.9017C1078.5 19.4017 1083.4 19.1017 1089.1 17.3017C1096.4 15.1017 1103.4 11.4017 1106.4 8.10168C1109.3 4.90168 1107.6 4.50168 1104.4 7.50168C1100.6 11.0017 1095.8 13.4017 1088.5 15.5017C1083.6 16.9017 1076.8 17.3017 1052.3 17.7017C1035.6 18.0017 1022 17.9017 1022 17.6017C1022 17.3017 1023.2 14.6017 1024.7 11.6017C1027.1 6.70168 1027.3 3.00168 1025.2 3.00168C1024.8 3.00168 1022.8 4.70168 1020.9 6.70168Z" fill="black"/>
<path d="M614.3 8.40093C612 9.80093 608.4 12.1009 606.4 13.7009C597.8 20.2009 580.8 43.0009 571.5 60.5009C566 70.8009 565.9 70.9009 565.3 69.2009C562.6 61.7009 550.6 65.0009 540.6 76.1009C534.1 83.3009 528 96.0009 527.3 103.701C526.6 111.001 528.3 116.701 531.5 118.201C536.7 120.601 541.5 116.901 550.1 103.901C552.8 99.9009 555 96.9009 555 97.3009C555 97.7009 554.3 102.201 553.4 107.201C549.2 131.501 557.3 147.601 570.7 141.401C576 138.801 586.4 128.101 593.6 117.501C601.4 106.101 611.2 89.1009 610.8 87.8009C610.6 87.2009 607 92.6009 602.8 99.7009C583.1 133.201 566.4 147.301 560.3 135.701C557.9 131.101 557.4 117.201 559.4 108.701C560.9 102.301 568 84.0009 572.2 75.5009C573.4 73.2009 583.1 62.8009 595.6 50.5009C622.1 24.3009 630.4 12.5009 625.5 7.70093C623.2 5.30093 619.2 5.60093 614.3 8.40093ZM624.6 12.2009C624.2 14.0009 622.5 18.0009 620.7 21.0009C616.1 28.9009 579 65.7009 579 62.3009C579 61.0009 592.1 40.6009 598.6 31.8009C610.4 15.8009 617.7 9.00093 622.9 9.00093C625 9.00093 625.2 9.30093 624.6 12.2009ZM562.3 72.7009C562.2 75.0009 560.7 80.2009 558.9 84.2009C553.4 97.0009 539.9 116.001 536.4 116.001C532.7 116.001 536.9 96.8009 543.3 84.7009C547 77.6009 557.2 67.8009 560.4 68.2009C562.2 68.5009 562.5 69.1009 562.3 72.7009Z" fill="black"/>
<path d="M183.6 52.9986C181 56.3986 177.6 59.8986 175.9 60.7986C169.4 64.4986 174.7 65.1986 181.8 61.5986C187.9 58.4986 192 54.0986 192.3 50.3986C192.5 48.1986 192 47.3986 190.4 47.1986C188.9 46.9986 187.1 48.5986 183.6 52.9986Z" fill="black"/>
<path d="M374 53.4008C368.5 56.5008 362 68.8008 362 76.3008C362 81.4008 363 82.8008 371.5 89.8008C375 92.7008 374.7 94.7008 368.6 110.301C360.8 129.801 360.3 138.501 366.5 144.701C372.9 151.101 379.8 148.201 390.8 134.501C400.3 122.801 422.7 87.4008 421.5 86.2008C420.9 85.5008 421.5 84.6008 412.6 99.5008C401.7 117.701 390.8 132.901 384 139.401C379.1 144.001 377.5 145.001 374.6 145.001C365.7 145.001 365.6 134.101 374.4 115.301C380.5 102.101 381.9 96.0008 379.8 92.0008C378.6 89.8008 373.5 85.7008 370.9 84.8008C370.4 84.6008 372.4 79.5008 375.5 73.5008C381.9 61.0008 383.1 56.2008 380.5 53.7008C378.5 51.7008 377.3 51.6008 374 53.4008ZM379.3 59.0008C378.9 63.4008 369.3 83.3008 367.7 82.7008C367 82.5008 365.9 81.3008 365.2 79.9008C361.5 72.8008 370.6 54.2008 377.4 55.2008C379.1 55.4008 379.5 56.1008 379.3 59.0008Z" fill="black"/>
<path d="M283.1 58.0016C278.9 60.0016 263.7 74.3016 257.2 82.5016L254 86.5016L256.5 79.7016C257.9 76.0016 259 70.9016 259 68.4016C259 57.0016 249.8 64.0016 233.3 88.2016C229.8 93.3016 227 97.0016 227 96.6016C227 96.2016 229.7 90.5016 233.1 83.9016C238.9 72.5016 239.7 69.0016 236.7 69.0016C230.8 69.0016 211.1 106.802 213.6 113.402C215.6 118.502 218.9 115.002 233 93.0016C245.8 72.8016 253.7 63.4016 255.8 65.5016C256.1 65.8016 252.7 73.6016 248.1 82.8016C241.7 95.9016 239.9 100.402 240.2 103.102C240.8 109.602 243.1 107.802 253.5 92.3016C264 76.7016 273.3 66.3016 281.4 61.1016C286.4 58.0016 290 57.1016 290 59.0016C290 60.8016 287.2 65.7016 277.8 80.8016C265 101.202 260.6 110.802 260.2 119.202C259.8 125.302 260 126.102 262.3 128.402C267.2 133.302 272.8 131.102 282.7 120.602C289.6 113.502 307.8 87.5016 306.8 86.5016C306.5 86.2016 303.3 90.4016 299.6 95.8016C290.3 109.502 280.4 121.702 275.7 125.102C270.5 128.802 266.3 129.002 265.4 125.502C264.3 121.202 266.9 114.602 275.8 98.7016C288.2 76.4016 293 66.2016 293 62.0016C293 55.8016 290.4 54.7016 283.1 58.0016Z" fill="black"/>
<path d="M944 62.6996C940.5 64.3996 922.6 81.4996 917.6 87.9996L914.9 91.4996L916.3 87.9996C917.1 86.0996 918.5 82.8996 919.5 80.7996C921.6 76.4996 920.9 73.6996 917.9 74.1996C916.4 74.3996 914.3 77.1996 910.8 83.4996C900.8 101.2 897.8 110.9 901.7 112.4C903.7 113.2 902.6 114.5 914.6 96.9996C924.6 82.3996 933.8 71.8996 941.9 66.1996C946.9 62.5996 951 61.9996 951 64.7996C951 65.7996 946.2 74.2996 940.4 83.5996C924.3 109.1 920.8 117.8 923 126C923.8 129.1 924.9 130.5 927.5 131.7C930.7 133.2 931.2 133.2 935 131.5C937.4 130.4 942.3 126.3 946.5 121.8C953.9 113.9 971.9 88.4996 970.8 87.4996C970.5 87.0996 966.7 91.9996 962.5 98.1996C946.7 121.2 937.7 130.4 931.6 129.8C928.6 129.5 928.5 129.3 928.6 124.7C928.6 119.8 928.4 120.3 946.5 85.1996C952.4 73.8996 953.4 71.0996 953.5 66.6996C953.5 61.5996 953.4 61.4996 950.5 61.1996C948.9 61.0996 945.9 61.7996 944 62.6996Z" fill="black"/>
<path d="M746.5 63.9C738.4 67.5 725.3 84.2 719.5 98C714.2 110.5 715.3 122.7 722.1 128.5C724.5 130.4 726.3 131 730.1 131C737.8 131 745 127 755.1 117C763.6 108.5 778.4 88.8 777.8 86.9C777.6 86.3 775.9 88.2 774 91.2C762.9 108.3 750.3 121.7 740.9 126.3C726.3 133.7 718.7 125.4 724 107.9C730.1 87.6 749.1 60.5 753.9 65.3C757 68.4 752.8 80.2 744.4 91.8C743.1 93.5 743.1 93.9 744.1 93.5C746 92.8 751.4 84.7 754 78.7C757.7 70.3 756.7 62 752.1 62C751.2 62 748.7 62.9 746.5 63.9Z" fill="black"/>
<path d="M431.5 66C427.2 67.3 422 73 421.4 77.1C421 79.7 421.4 81.4 423.3 84.2L425.8 87.8L421.4 96.7C413.5 112.5 414.2 127 422.8 127C428.6 127 437.3 117.6 444.7 103.4L448.4 96.2L453.7 95.6C461.7 94.7 477.4 88.1 475.7 86.3C475.4 86 473.6 86.7 471.8 87.8C467.3 90.6 456.8 94 452.7 94H449.3L450.3 89.2C453.4 74.1 443.8 62.3 431.5 66ZM442.1 68.6C447.6 71.4 450.3 81.2 448.4 90.9C447.6 94.7 445.1 95 438.4 91.9C435 90.3 434.1 89.3 434.6 88.1C436.9 82.6 435 80.5 430.4 83.5C428.3 84.8 427.6 84.9 426.3 83.9C423.6 81.6 422.9 78.2 424.4 74.5C427.2 68 435.6 65.2 442.1 68.6ZM440.8 94.8C443.6 95.7 446 96.7 446 97C446 97.4 444.1 101.1 441.9 105.3C437.4 113.5 429 123.7 425.6 125C418.5 127.7 419.8 116.3 428.4 99.2C431.3 93.3 432.5 92 433.8 92.5C434.7 92.9 437.9 93.9 440.8 94.8Z" fill="black"/>
<path d="M185.4 72.401C183.2 74.801 177.9 82.301 173.5 89.101C161.3 107.901 151.4 117.001 149.5 111.101C148.5 108.001 149.8 104.201 156.7 89.801C160.6 81.901 163 75.501 162.7 74.601C161 70.301 155.2 74.701 150.6 83.901C141.3 102.401 143.6 119.401 154.7 113.701C157.5 112.201 165.3 104.401 169.9 98.501C171.3 96.701 171.9 96.201 171.6 97.401C171.2 98.501 170.4 102.301 169.8 105.901C168.5 113.901 169.8 120.001 173.6 123.501C179.7 129.101 185.9 127.301 196.1 116.901C202.8 110.001 218.7 87.401 217.6 86.301C216.9 85.501 217.6 84.501 209.9 96.501C201.3 109.701 193.8 118.501 188.2 122.101C182.7 125.501 181.1 125.701 177.6 122.901C175.4 121.101 175 120.101 175 115.401C175 108.001 177.9 99.901 186.1 84.401C189.9 77.201 193 70.501 193 69.601C193 66.601 189.3 68.001 185.4 72.401Z" fill="black"/>
<path d="M330.5 69.9007C320 74.6007 307 94.3007 306.2 106.501C305.3 120.501 315.7 127.001 328.8 120.401C337.7 116.001 354.4 98.8007 359.6 88.8007C362 84.2007 360.5 85.6007 355.5 92.6007C344.5 107.901 328.7 121.001 321 121.001C313.9 121.001 311.3 116.601 313.2 107.701C314 103.901 315 102.301 318.3 99.7007C333.5 87.9007 342.8 74.0007 338.5 69.6007C336.4 67.6007 335.5 67.6007 330.5 69.9007ZM338 73.0007C338 77.6007 331.2 87.1007 323.4 93.5007C320.9 95.6007 318.7 97.0007 318.4 96.7007C317.1 95.5007 325.6 81.7007 331.8 74.8007C335.6 70.6007 338 69.9007 338 73.0007Z" fill="black"/>
<path d="M633.5 69.9007C623 74.6007 610 94.3007 609.2 106.501C608.3 120.501 618.7 127.001 631.8 120.401C640.7 116.001 657.4 98.8007 662.6 88.8007C665 84.2007 663.5 85.6007 658.5 92.6007C647.5 107.901 631.7 121.001 624 121.001C616.9 121.001 614.3 116.601 616.2 107.701C617 103.901 618 102.301 621.3 99.7007C636.5 87.9007 645.8 74.0007 641.5 69.6007C639.4 67.6007 638.5 67.6007 633.5 69.9007ZM641 73.0007C641 77.6007 634.2 87.1007 626.4 93.5007C623.9 95.6007 621.7 97.0007 621.4 96.7007C620.1 95.5007 628.6 81.7007 634.8 74.8007C638.6 70.6007 641 69.9007 641 73.0007Z" fill="black"/>
<path d="M817.4 72.401C815.2 74.801 809.9 82.301 805.5 89.101C793.3 107.901 783.4 117.001 781.5 111.101C780.5 108.001 781.8 104.201 788.7 89.801C792.6 81.901 795 75.501 794.7 74.601C793 70.301 787.2 74.701 782.6 83.901C773.3 102.401 775.6 119.401 786.7 113.701C789.5 112.201 797.3 104.401 801.9 98.501C803.3 96.701 803.9 96.201 803.6 97.401C803.2 98.501 802.4 102.301 801.8 105.901C800.5 113.901 801.8 120.001 805.6 123.501C811.7 129.101 817.9 127.301 828.1 116.901C834.8 110.001 850.7 87.401 849.6 86.301C848.9 85.501 849.6 84.501 841.9 96.501C833.3 109.701 825.8 118.501 820.2 122.101C814.7 125.501 813.1 125.701 809.6 122.901C807.4 121.101 807 120.101 807 115.401C807 108.001 809.9 99.901 818.1 84.401C821.9 77.201 825 70.501 825 69.601C825 66.601 821.3 68.001 817.4 72.401Z" fill="black"/>
<path d="M872.5 69.9007C862 74.6007 849 94.3007 848.2 106.501C847.3 120.501 857.7 127.001 870.8 120.401C879.7 116.001 896.4 98.8007 901.6 88.8007C904 84.2007 902.5 85.6007 897.5 92.6007C886.5 107.901 870.7 121.001 863 121.001C855.9 121.001 853.3 116.601 855.2 107.701C856 103.901 857 102.301 860.3 99.7007C875.5 87.9007 884.8 74.0007 880.5 69.6007C878.4 67.6007 877.5 67.6007 872.5 69.9007ZM880 73.0007C880 77.6007 873.2 87.1007 865.4 93.5007C862.9 95.6007 860.7 97.0007 860.4 96.7007C859.1 95.5007 867.6 81.7007 873.8 74.8007C877.6 70.6007 880 69.9007 880 73.0007Z" fill="black"/>
<path d="M1051.3 70.0983C1045.2 73.0983 1035.8 83.6983 1031.6 92.1983C1025.8 103.798 1025.8 112.798 1031.4 116.498C1035 118.898 1039.4 116.598 1046.3 108.898L1052 102.498V106.798C1052 119.198 1060.9 125.098 1069.6 118.498C1075.7 113.898 1091.8 89.7983 1090.8 86.7983C1090.6 86.1983 1088 89.9983 1085.1 95.0983C1073.2 115.898 1064.3 123.498 1059.6 116.798C1056 111.598 1058.9 99.0983 1068 80.9983C1073.3 70.4983 1074.1 67.3983 1071.4 68.3983C1070.5 68.6983 1069.7 68.9983 1069.5 68.9983C1069.2 68.9983 1067.9 70.6983 1066.5 72.6983C1064.6 75.5983 1064 75.9983 1064 74.4983C1064 71.1983 1061.2 67.9983 1058.2 67.9983C1056.7 67.9983 1053.6 68.8983 1051.3 70.0983ZM1060.8 74.1983C1061.2 78.7983 1058.1 86.8983 1051.9 97.0983C1046.5 106.198 1042 111.398 1037.9 113.598C1035.6 114.798 1035 114.698 1034 113.498C1032 111.098 1033.6 104.398 1038.9 93.4983C1043.9 83.1983 1050.1 75.0983 1055.5 71.8983C1059.4 69.4983 1060.4 69.8983 1060.8 74.1983Z" fill="black"/>
<path d="M139 154.5C139 155.8 193.5 156 623.5 156C1053.5 156 1108 155.8 1108 154.5C1108 153.2 1053.5 153 623.5 153C193.5 153 139 153.2 139 154.5Z" fill="black"/>
</svg>
