<svg width="699" height="175" viewBox="0 0 699 175" fill="none" xmlns="http://www.w3.org/2000/svg">
<path d="M64.2999 1.39939C61.9999 2.19939 56.5999 4.59939 52.2999 6.99939C30.6999 18.5994 10.8999 39.4994 7.39986 54.1994C6.29986 58.9994 8.49986 57.1994 10.3999 51.6994C14.3999 40.3994 24.5999 28.4994 39.9999 17.0994C49.2999 10.0994 62.6999 3.29939 68.4999 2.39939C71.6999 1.99939 73.0999 2.29939 74.9999 3.79939C77.1999 5.59939 77.2999 5.99939 76.1999 9.59939C75.5999 11.7994 70.1999 22.2994 64.3999 32.9994C47.4999 63.8994 36.4999 87.0994 31.4999 102.499C26.3999 117.699 25.1999 127.199 28.0999 127.799C29.1999 127.999 30.5999 125.999 32.8999 120.599C37.9999 108.999 51.6999 84.8994 61.6999 69.9994C74.0999 51.3994 83.4999 39.4994 93.9999 29.0994C119.1 3.89939 144.5 -4.30061 152.2 10.1994C154.3 13.9994 154.5 15.7994 154.4 26.4994C154.3 40.1994 152 48.9994 144.8 63.4994C137 78.9994 121 99.9994 105.8 114.799L100.4 120.099L66.8999 128.399C32.6999 136.999 23.2999 139.699 17.0999 142.999C0.199858 151.699 -4.50014 166.699 7.69986 172.199C20.8999 178.199 45.3999 171.399 70.7999 154.699C82.5999 146.999 90.2999 140.699 104 127.499C114.2 117.699 114.8 117.199 125.5 113.099C131.6 110.699 139.9 106.999 144.1 104.899C152.2 100.899 171.8 88.1994 174 85.4994C176.8 82.0994 174.1 83.2994 167.2 88.4994C155.1 97.5994 139.3 106.099 123.7 111.899L117.8 113.999L126 104.799C153.2 73.8994 166.9 38.8994 160.4 17.0994C158.7 11.0994 153.1 4.39939 148.3 2.29939C141.2 -0.600612 129.7 1.49939 118.2 7.79939C97.4999 19.1994 64.9999 55.0994 45.7999 87.9994C43.6999 91.5994 41.9999 94.0994 41.9999 93.6994C41.9999 92.7994 55.4999 66.1994 68.8999 40.4994C79.6999 19.9994 82.8999 11.0994 81.3999 5.79939C79.7999 0.299388 73.2999 -1.40061 64.2999 1.39939ZM95.8999 124.599C93.2999 127.699 73.2999 144.499 65.3999 150.199C47.9999 162.599 31.2999 169.299 17.2999 169.399C8.09986 169.499 4.59986 167.299 4.19986 161.399C3.89986 155.999 6.69986 151.799 13.8999 147.099C21.3999 142.299 27.5999 140.299 64.4999 130.899C98.8999 122.199 97.7999 122.399 95.8999 124.599Z" fill="black"/>
<path d="M213.9 38.2017C209.3 43.1017 208 50.1017 212.1 48.5017C214.2 47.7017 220.3 38.3017 219.5 37.1017C218.5 35.4017 216.2 35.8017 213.9 38.2017Z" fill="black"/>
<path d="M536.9 38.2017C532.3 43.1017 531 50.1017 535.1 48.5017C537.2 47.7017 543.3 38.3017 542.5 37.1017C541.5 35.4017 539.2 35.8017 536.9 38.2017Z" fill="black"/>
<path d="M586.1 48.9016C582.9 52.1016 579.3 55.1016 578.2 55.5016C574.4 56.6016 575.7 58.3016 579.8 57.6016C587.4 56.2016 596.9 48.4016 595.4 44.7016C594.3 41.8016 592.1 42.8016 586.1 48.9016Z" fill="black"/>
<path d="M244.4 49.9992C241.2 51.2992 235.5 57.2992 232.4 62.6992C230.3 66.1992 229.6 68.6992 229.5 72.7992C229.5 77.6992 229.8 78.3992 233.1 81.2992C235 83.0992 238.1 85.2992 239.8 86.1992C244.7 88.7992 244.2 92.6992 236.9 108.199C231.7 118.999 230.6 122.299 230.2 127.899C229.7 135.799 231.3 139.999 236.3 142.999C246.7 149.399 259 139.999 283.5 107.499C296.3 90.3992 300.5 84.1992 299.8 83.3992C299.5 83.1992 295.7 87.9992 291.3 94.1992C275.3 116.799 260.6 133.599 252.1 139.099C246.6 142.699 241.2 142.999 238.4 139.899C237 138.299 236.5 136.399 236.6 132.099C236.8 127.199 237.7 124.699 243.9 112.799C251.4 98.2992 252.9 93.0992 250.8 89.0992C249.7 87.0992 244.1 83.3992 239.6 81.6992C239.1 81.5992 240.9 78.0992 243.5 73.9992C249.3 64.9992 253 57.2992 253 54.2992C253 49.9992 249.1 48.0992 244.4 49.9992ZM250 54.9992C250 60.3992 238.7 80.2992 236 79.7992C233.7 79.2992 231.9 74.8992 232.3 70.8992C233.3 62.3992 241.4 51.9992 247 51.9992C249.7 51.9992 250 52.2992 250 54.9992Z" fill="black"/>
<path d="M664.4 60.5995C657.8 64.0995 650.3 69.8995 640.2 79.4995L631.7 87.4995L635.3 80.5995C639.1 73.2995 639 70.9995 634.9 70.9995C631.7 70.9995 616.3 95.4995 613.6 104.599C613 106.699 615.1 109.999 617 109.999C617.5 109.999 623.7 102.899 630.8 94.1995C637.9 85.5995 646.9 75.7995 650.9 72.4995C659.4 65.2995 668.5 59.9995 672.2 59.9995C674.7 59.9995 674.8 60.1995 673.9 62.7995C673.4 64.2995 667.8 72.4995 661.4 80.9995C640 109.699 636 119.899 643.6 127.099C648 131.199 653.4 130.499 661.9 124.699C665.7 121.999 671.5 116.999 674.8 113.599C681.4 106.499 698 85.8995 698 84.7995C698 82.7995 696 84.7995 689.5 93.1995C680.1 105.399 663.5 122.299 658.3 124.899C653.6 127.299 650 127.599 648.2 125.799C644.9 122.499 648.4 114.299 661.9 93.5995C676.3 71.5995 680.2 62.5995 676.8 59.1995C674.8 57.1995 669.6 57.7995 664.4 60.5995Z" fill="black"/>
<path d="M393.9 60.4C387.8 62.5 383.6 65.7 376.4 73.3C355.4 95.4 350.4 116.6 364 125.7C366.5 127.4 368.7 128 373.1 128C387.7 128 403.3 117.3 422.9 93.8C426.9 89 430 84.6 429.8 84C429.7 83.5 426.7 86.6 423.3 90.8C414.7 101.5 402.6 113.4 395.7 118C383.9 126 372.6 128.2 367.3 123.6C364.7 121.3 364.5 120.7 364.6 113.8C364.6 107.8 365.1 105.3 367.8 99.6C376.5 80.9 396.1 58.4 401 61.5C402.8 62.6 402 70.4 399.6 75.7C398.2 78.6 395.2 82.9 392.9 85.5C390.6 88 389 90.3 389.4 90.7C390.4 91.8 397.6 83.3 401 76.8C405 69.4 405.6 62.7 402.6 60.4C400.2 58.7 398.6 58.7 393.9 60.4Z" fill="black"/>
<path d="M460.9 60.4C454.8 62.5 450.6 65.7 443.4 73.3C422.4 95.4 417.4 116.6 431 125.7C433.5 127.4 435.7 128 440.1 128C454.7 128 470.3 117.3 489.9 93.8C493.9 89 497 84.6 496.8 84C496.7 83.5 493.7 86.6 490.3 90.8C481.7 101.5 469.6 113.4 462.7 118C450.9 126 439.6 128.2 434.3 123.6C431.7 121.3 431.5 120.7 431.6 113.8C431.6 107.8 432.1 105.3 434.8 99.6C443.5 80.9 463.1 58.4 468 61.5C469.8 62.6 469 70.4 466.6 75.7C465.2 78.6 462.2 82.9 459.9 85.5C457.6 88 456 90.3 456.4 90.7C457.4 91.8 464.6 83.3 468 76.8C472 69.4 472.6 62.7 469.6 60.4C467.2 58.7 465.6 58.7 460.9 60.4Z" fill="black"/>
<path d="M562.6 62.9993C558.7 64.1993 553.3 67.9993 551.9 70.6993C551.3 71.8993 550.8 73.9993 550.8 75.3993C550.8 78.1993 553.5 82.9993 555 82.9993C556.9 82.9993 556 86.1993 553.3 89.3993C547.3 96.5993 542.7 110.799 544.4 117.499C546.2 124.399 553.7 126.099 560.6 121.199C565.9 117.299 572.2 110.099 578.3 100.699C582.8 93.7993 583.6 92.9993 586.5 92.9993C593.8 92.9993 618.7 84.5993 615.3 83.2993C614.7 83.0993 612.4 83.7993 610.2 84.8993C604.8 87.6993 592.4 90.9993 587.7 90.9993C584.4 90.9993 583.9 90.6993 584.4 89.2993C585.9 85.5993 586.2 79.2993 585.1 75.3993C582.4 65.3993 572.7 59.9993 562.6 62.9993ZM574.3 65.3993C579.2 67.3993 581.9 71.0993 583.1 77.0993C584 81.0993 584 83.5993 583.1 86.6993C582.1 90.3993 581.6 90.9993 579.2 90.9993C577.7 90.8993 574.3 90.0993 571.5 89.0993C566.5 87.2993 566.2 86.7993 567.5 82.2993C568.5 78.9993 565.6 78.1993 561.3 80.5993L557.8 82.3993L555.4 79.6993C552.6 76.3993 552.5 74.9993 554.5 70.9993C557.5 65.0993 567.2 62.3993 574.3 65.3993ZM573.8 91.6993C577.2 92.5993 580 93.5993 580 94.0993C580 95.8993 569.2 110.699 564.4 115.499C558.3 121.599 553.8 123.699 551.5 121.399C548.5 118.299 550.8 110.099 558.4 97.1993C562.6 89.9993 563.6 88.8993 565.4 89.4993C566.6 89.7993 570.3 90.7993 573.8 91.6993Z" fill="black"/>
<path d="M193.1 67.5C188.2 71 182.6 78.9 177.5 89.4C170.8 102.8 169.9 111.6 174.3 118.4C176.2 121.2 181.8 124 185.7 124C193.5 124 206 114.1 219.6 97.2C228.7 85.8 230.6 83 229.2 83C228.7 83 225.1 87.2 221.1 92.4C207.2 110.7 194 122 186.4 122C178.8 122 176.3 114.9 180 104C182.2 97.4 184.6 93.1 194.4 77.6C197.5 72.7 200 67.9 200 66.8C200 64.3 197 64.5 193.1 67.5Z" fill="black"/>
<path d="M325.7 66.4014C312.2 71.3014 296 92.1014 296 104.801C296 111.701 298.1 115.501 303.2 118.101C312.6 122.901 325 118.801 340.9 105.601C350 97.9014 361.9 84.5014 360.6 83.2014C360.2 82.8014 359.4 83.4014 358.8 84.5014C356.9 87.9014 341.9 102.901 335.5 107.701C324 116.501 313.5 119.901 307.7 116.901C304.5 115.201 304 114.101 304 108.401C304 102.001 305.7 99.7014 314.8 93.6014C330.3 83.3014 340.1 69.3014 334.1 66.0014C331.6 64.7014 330.4 64.8014 325.7 66.4014ZM334 70.3014C334 71.6014 332.7 74.5014 331.2 76.6014C326.1 83.6014 310 96.6014 310 93.7014C310 91.4014 319.4 78.8014 325.3 73.2014C331.4 67.5014 334 66.6014 334 70.3014Z" fill="black"/>
<path d="M516.1 67.5C511.2 71 505.6 78.9 500.5 89.4C493.8 102.8 492.9 111.6 497.3 118.4C499.2 121.2 504.8 124 508.7 124C516.5 124 529 114.1 542.6 97.2C551.7 85.8 553.6 83 552.2 83C551.7 83 548.1 87.2 544.1 92.4C530.2 110.7 517 122 509.4 122C501.8 122 499.3 114.9 503 104C505.2 97.4 507.6 93.1 517.4 77.6C520.5 72.7 523 67.9 523 66.8C523 64.3 520 64.5 516.1 67.5Z" fill="black"/>
<path d="M140 154.5C140 155.8 171.7 156 419.5 156C667.3 156 699 155.8 699 154.5C699 153.2 667.3 153 419.5 153C171.7 153 140 153.2 140 154.5Z" fill="black"/>
</svg>
