<svg width="1068" height="226" viewBox="0 0 1068 226" fill="none" xmlns="http://www.w3.org/2000/svg">
<path d="M3.6 4.2L0 8.4V27.2V46L3.6 50L7.2 54H16.1H25L28.5 50.2L31.9 46.5L32 27.3V8L28.4 4L24.8 -8.04663e-07H16H7.2L3.6 4.2ZM24.4 8.2C25.7 10 26 13.7 26 27.4C26 48 26 48 15.9 48C6.1 48 6 47.7 6 27.2C6 6.5 6.2 6 16.1 6C22 6 23.1 6.3 24.4 8.2Z" fill="black"/>
<path d="M13 27C13 30.8 13.2 31 16 31C18.8 31 19 30.8 19 27C19 23.2 18.8 23 16 23C13.2 23 13 23.2 13 27Z" fill="black"/>
<path d="M45.6 4.2L42 8.4V27.2V46L45.6 50L49.2 54H58.1H67L70.5 50.2L73.9 46.5L74 27.3V8L70.4 4L66.8 -8.04663e-07H58H49.2L45.6 4.2ZM66.4 8.2C67.7 10 68 13.7 68 27.4C68 48 68 48 57.9 48C48.1 48 48 47.7 48 27.2C48 6.5 48.2 6 58.1 6C64 6 65.1 6.3 66.4 8.2Z" fill="black"/>
<path d="M55 27C55 30.8 55.2 31 58 31C60.8 31 61 30.8 61 27C61 23.2 60.8 23 58 23C55.2 23 55 23.2 55 27Z" fill="black"/>
<path d="M93.1001 3.5C89.6001 5.4 86.6001 7.1 86.3001 7.3C86.1001 7.6 86.5001 8.9 87.1001 10.4L88.3001 13L93.7001 10L99.0001 7V27.5V48H94.0001C89.1001 48 89.0001 48.1 89.0001 51V54H102H115V51C115 48.1 114.9 48 110 48H105V24V-8.04663e-07H102.3C100.7 -8.04663e-07 96.6001 1.6 93.1001 3.5Z" fill="black"/>
<path d="M135.1 3.5C131.6 5.4 128.6 7.1 128.3 7.3C128.1 7.6 128.5 8.9 129.1 10.4L130.3 13L135.7 10L141 7V27.5V48H136C131.1 48 131 48.1 131 51V54H144H157V51C157 48.1 156.9 48 152 48H147V24V-8.04663e-07H144.3C142.7 -8.04663e-07 138.6 1.6 135.1 3.5Z" fill="black"/>
<path d="M204.6 4.2L201 8.4V27.2V46L204.6 50L208.2 54H217.1H226L229.5 50.2L232.9 46.5L233 27.3V8L229.4 4L225.8 -8.04663e-07H217H208.2L204.6 4.2ZM225.4 8.2C226.7 10 227 13.7 227 27.4C227 48 227 48 216.9 48C207.1 48 207 47.7 207 27.2C207 6.5 207.2 6 217.1 6C223 6 224.1 6.3 225.4 8.2Z" fill="black"/>
<path d="M214 27C214 30.8 214.2 31 217 31C219.8 31 220 30.8 220 27C220 23.2 219.8 23 217 23C214.2 23 214 23.2 214 27Z" fill="black"/>
<path d="M246.6 4.2L243 8.4V27.2V46L246.6 50L250.2 54H259.1H268L271.5 50.2L274.9 46.5L275 27.3V8L271.4 4L267.8 -8.04663e-07H259H250.2L246.6 4.2ZM267.4 8.2C268.7 10 269 13.7 269 27.4C269 48 269 48 258.9 48C249.1 48 249 47.7 249 27.2C249 6.5 249.2 6 259.1 6C265 6 266.1 6.3 267.4 8.2Z" fill="black"/>
<path d="M256 27C256 30.8 256.2 31 259 31C261.8 31 262 30.8 262 27C262 23.2 261.8 23 259 23C256.2 23 256 23.2 256 27Z" fill="black"/>
<path d="M288 13.5V27H297.3C309.2 27 310 27.7 310 37.7C310 46.5 308.7 48 301.1 48C294.9 48 292.1 45.6 292 40.2C292 37.5 291.6 37 289.5 37C287.2 37 287 37.3 287 42C287 46.1 287.5 47.5 290.1 50.5C293.2 54 293.3 54 301.4 54H309.7L312.8 50.1C315.9 46.3 316 45.7 316 37.3C315.9 29 315.8 28.3 313 25.2C310.1 22.1 309.8 22 301.5 22H293V14V6H301.5H310V10C310 13.6 310.3 14 312.5 14C314.9 14 315 13.8 315 7V-8.04663e-07H301.5H288V13.5Z" fill="black"/>
<path d="M328 7C328 13.8 328.1 14 330.5 14C332.8 14 333 13.6 333 10V6H342.4H351.8L345.5 24.2C336.7 49.5 337.4 48 334.5 48C332.4 48 332 48.5 332 51V54H340H348V51C348 48.7 347.6 48 346 48C344.9 48 344 47.6 344 47.1C344 46.7 347.2 37.2 351 26.1C354.9 15 358 4.5 358 2.9V-8.04663e-07H343H328V7Z" fill="black"/>
<path d="M405.6 4.2L402 8.4V27.2V46L405.6 50L409.2 54H418.1H427L430.5 50.2L433.9 46.5L434 27.3V8L430.4 4L426.8 -8.04663e-07H418H409.2L405.6 4.2ZM426.4 8.2C427.7 10 428 13.7 428 27.4C428 48 428 48 417.9 48C408.1 48 408 47.7 408 27.2C408 6.5 408.2 6 418.1 6C424 6 425.1 6.3 426.4 8.2Z" fill="black"/>
<path d="M415 27C415 30.8 415.2 31 418 31C420.8 31 421 30.8 421 27C421 23.2 420.8 23 418 23C415.2 23 415 23.2 415 27Z" fill="black"/>
<path d="M448.3 4C445.6 7.1 445 8.7 445 12.4C445 16.6 445.2 17 447.5 17C449.7 17 450 16.6 450 13.7C450 8.9 453.4 6 459.2 6C465.3 6 467 8 467 15.1C467 20.5 467 20.5 456 34C447.1 44.9 445 48.1 445 50.7V54H459.5H474V47C474 40.2 473.9 40 471.5 40C469.3 40 469 40.4 469 44V48H460.4H451.8L455.8 43.2C458 40.6 462.7 34.9 466.4 30.5L473 22.6V15.2C473 8.5 472.7 7.6 469.8 3.9L466.7 -8.04663e-07H459.1H451.5L448.3 4Z" fill="black"/>
<path d="M490.3 4C487.6 7.1 487 8.7 487 12.4C487 16.6 487.2 17 489.5 17C491.7 17 492 16.6 492 13.7C492 8.9 495.4 6 501.2 6C507.4 6 509 8 509 15.6C509 18.9 508.5 22.1 507.8 22.8C507.1 23.5 504.2 24 501.3 24C496.1 24 496 24 496 27C496 30 496.1 30 501.3 30C508.3 30 511 32.6 511 39.1C510.9 45.7 508.5 48 501.8 48C495.3 48 492 45.4 492 40.2C492 37.5 491.6 37 489.5 37C487.2 37 487 37.4 487 41.6C487 45.2 487.7 46.9 490.2 50.1L493.3 54H501.6H509.9L512.9 50.3C515.7 46.9 516 45.9 516 39.2C516 33.4 515.6 31.2 514 29C512.3 26.6 512.2 26.1 513.5 25C514.6 24.1 515 21.6 515 15.8C515 8.4 514.8 7.6 511.8 3.9L508.7 -8.04663e-07H501.1H493.5L490.3 4Z" fill="black"/>
<path d="M536.3 17.1C530.6 27.6 527 35.3 527 37.1V40H538H549V44C549 47.6 548.8 48 546.5 48C544.4 48 544 48.5 544 51V54H552H560V51C560 48.5 559.6 48 557.5 48C555.3 48 555 47.6 555 44.4C555 41.7 555.5 40.7 557 40.3C558.3 40 559 38.9 559 37.4C559 35.7 558.4 35 557 35C555.1 35 555 34.3 555 17.5V-8.04663e-07H550.3H545.5L536.3 17.1ZM549 21V35H541.5C537.4 35 534 34.6 534 34.1C534 33 548 7 548.6 7C548.8 7 549 13.3 549 21Z" fill="black"/>
<path d="M576.1 3.9L573 7.8V27.2V46.5L576.1 50.3L579.1 54H587.4H595.7L598.8 50.1C601.8 46.4 602 45.6 602 38.3C602 31 601.8 30.2 598.9 26.7L595.9 23H586.9H578V16.7C578 8.6 580.2 6 587.2 6C591.2 6 592.2 6.4 593.9 8.9C595.1 10.5 596 13 596 14.4C596 16.5 596.5 17 598.5 17C600.8 17 601 16.6 601 12.5C601 8.7 600.4 7.4 597.4 4C593.8 -8.04663e-07 593.7 -8.04663e-07 586.5 -8.04663e-07C579.2 -8.04663e-07 579.2 -8.04663e-07 576.1 3.9ZM594.6 30.7C596.6 33.3 596.4 43.9 594.3 46.2C591.9 48.9 583.4 48.7 580.3 45.8C578.3 43.9 578 42.7 578 36.3V29H585.6C591.7 29 593.5 29.4 594.6 30.7Z" fill="black"/>
<path d="M617.3 4C614.6 7.1 614 8.7 614 12.4C614 16.6 614.2 17 616.5 17C618.7 17 619 16.6 619 13.7C619 8.9 622.4 6 628.2 6C634.3 6 636 8 636 15.1C636 20.5 636 20.5 625 34C616.1 44.9 614 48.1 614 50.7V54H628.5H643V47C643 40.2 642.9 40 640.5 40C638.3 40 638 40.4 638 44V48H629.4H620.8L624.8 43.2C627 40.6 631.7 34.9 635.4 30.5L642 22.6V15.2C642 8.5 641.7 7.6 638.8 3.9L635.7 -8.04663e-07H628.1H620.5L617.3 4Z" fill="black"/>
<path d="M659.3 4C656.6 7.1 656 8.7 656 12.4C656 16.6 656.2 17 658.5 17C660.7 17 661 16.6 661 13.7C661 8.9 664.4 6 670.2 6C676.3 6 678 8 678 15.1C678 20.5 678 20.5 667 34C658.1 44.9 656 48.1 656 50.7V54H670.5H685V47C685 40.2 684.9 40 682.5 40C680.3 40 680 40.4 680 44V48H671.4H662.8L666.8 43.2C669 40.6 673.7 34.9 677.4 30.5L684 22.6V15.2C684 8.5 683.7 7.6 680.8 3.9L677.7 -8.04663e-07H670.1H662.5L659.3 4Z" fill="black"/>
<path d="M700.6 4.2L697 8.4V27.2V46L700.6 50L704.2 54H713.1H722L725.5 50.2L728.9 46.5L729 27.3V8L725.4 4L721.8 -8.04663e-07H713H704.2L700.6 4.2ZM721.4 8.2C722.7 10 723 13.7 723 27.4C723 48 723 48 712.9 48C703.1 48 703 47.7 703 27.2C703 6.5 703.2 6 713.1 6C719 6 720.1 6.3 721.4 8.2Z" fill="black"/>
<path d="M710 27C710 30.8 710.2 31 713 31C715.8 31 716 30.8 716 27C716 23.2 715.8 23 713 23C710.2 23 710 23.2 710 27Z" fill="black"/>
<path d="M744.1 3.9L741 7.8V27.2V46.5L744.1 50.3L747.1 54H755.4H763.7L766.8 50.1C769.8 46.4 770 45.6 770 38.3C770 31 769.8 30.2 766.9 26.7L763.9 23H754.9H746V16.7C746 8.6 748.2 6 755.2 6C759.2 6 760.2 6.4 761.9 8.9C763.1 10.5 764 13 764 14.4C764 16.5 764.5 17 766.5 17C768.8 17 769 16.6 769 12.5C769 8.7 768.4 7.4 765.4 4C761.8 -8.04663e-07 761.7 -8.04663e-07 754.5 -8.04663e-07C747.2 -8.04663e-07 747.2 -8.04663e-07 744.1 3.9ZM762.6 30.7C764.6 33.3 764.4 43.9 762.3 46.2C759.9 48.9 751.4 48.7 748.3 45.8C746.3 43.9 746 42.7 746 36.3V29H753.6C759.7 29 761.5 29.4 762.6 30.7Z" fill="black"/>
<path d="M784 13.5V27H793.3C805.2 27 806 27.7 806 37.7C806 46.5 804.7 48 797.1 48C790.9 48 788.1 45.6 788 40.2C788 37.5 787.6 37 785.5 37C783.2 37 783 37.3 783 42C783 46.1 783.5 47.5 786.1 50.5C789.2 54 789.3 54 797.4 54H805.7L808.8 50.1C811.9 46.3 812 45.7 812 37.3C811.9 29 811.8 28.3 809 25.2C806.1 22.1 805.8 22 797.5 22H789V14V6H797.5H806V10C806 13.6 806.3 14 808.5 14C810.9 14 811 13.8 811 7V-8.04663e-07H797.5H784V13.5Z" fill="black"/>
<path d="M170 27V30H179.5H189V27V24H179.5H170V27Z" fill="black"/>
<path d="M371 27V30H380.5H390V27V24H380.5H371V27Z" fill="black"/>
<path d="M3.6 90.2L0 94.4V113.2V132L3.6 136L7.2 140H15.1C22.9 140 23 140 26.5 136.2C29.4 133.1 30 131.8 30 127.7C30 123.3 29.8 123 27.5 123C25.3 123 25 123.4 25 126.3C25 131.5 21.7 134 14.7 134C6.3 134 6 133.2 6 113.2C6 92.9 6.4 92 15 92C20.3 92 21.1 92.3 22.9 94.9C24.1 96.5 25 99 25 100.4C25 102.5 25.5 103 27.5 103C29.8 103 30 102.6 30 98.5C30 94.7 29.4 93.4 26.4 90L22.8 86H15H7.2L3.6 90.2Z" fill="black"/>
<path d="M42.6 90.2L39 94.4V113.2V132L42.6 136L46.2 140H54.1C61.9 140 62 140 65.5 136.2C68.4 133.1 69 131.8 69 127.7C69 123.3 68.8 123 66.5 123C64.3 123 64 123.4 64 126.3C64 131.5 60.7 134 53.7 134C45.3 134 45 133.2 45 113.2C45 92.9 45.4 92 54 92C59.3 92 60.1 92.3 61.9 94.9C63.1 96.5 64 99 64 100.4C64 102.5 64.5 103 66.5 103C68.8 103 69 102.6 69 98.5C69 94.7 68.4 93.4 65.4 90L61.8 86H54H46.2L42.6 90.2Z" fill="black"/>
<path d="M78 89C78 91.5 78.4 92 80.5 92H83V113V134H80.5C78.4 134 78 134.5 78 137V140H86H94V137C94 134.5 93.6 134 91.5 134H89V113V92H91.5C93.6 92 94 91.5 94 89V86H86H78V89Z" fill="black"/>
<path d="M141.6 90.2L138 94.4V113.2V132L141.6 136L145.2 140H154.1H163L166.5 136.2L169.9 132.5L170 113.3V94L166.4 90L162.8 86H154H145.2L141.6 90.2ZM162.4 94.2C163.7 96 164 99.7 164 113.4C164 134 164 134 153.9 134C144.1 134 144 133.7 144 113.2C144 92.5 144.2 92 154.1 92C160 92 161.1 92.3 162.4 94.2Z" fill="black"/>
<path d="M151 113C151 116.8 151.2 117 154 117C156.8 117 157 116.8 157 113C157 109.2 156.8 109 154 109C151.2 109 151 109.2 151 113Z" fill="black"/>
<path d="M190.1 89.5C186.6 91.4 183.6 93.1 183.3 93.3C183.1 93.6 183.5 94.9 184.1 96.4L185.3 99L190.7 96L196 93V113.5V134H191C186.1 134 186 134.1 186 137V140H199H212V137C212 134.1 211.9 134 207 134H202V110V86H199.3C197.7 86 193.6 87.6 190.1 89.5Z" fill="black"/>
<path d="M232.1 89.5C228.6 91.4 225.6 93.1 225.3 93.3C225.1 93.6 225.5 94.9 226.1 96.4L227.3 99L232.7 96L238 93V113.5V134H233C228.1 134 228 134.1 228 137V140H241H254V137C254 134.1 253.9 134 249 134H244V110V86H241.3C239.7 86 235.6 87.6 232.1 89.5Z" fill="black"/>
<path d="M301.6 90.2L298 94.4V113.2V132L301.6 136L305.2 140H314.1H323L326.5 136.2L329.9 132.5L330 113.3V94L326.4 90L322.8 86H314H305.2L301.6 90.2ZM322.4 94.2C323.7 96 324 99.7 324 113.4C324 134 324 134 313.9 134C304.1 134 304 133.7 304 113.2C304 92.5 304.2 92 314.1 92C320 92 321.1 92.3 322.4 94.2Z" fill="black"/>
<path d="M311 113C311 116.8 311.2 117 314 117C316.8 117 317 116.8 317 113C317 109.2 316.8 109 314 109C311.2 109 311 109.2 311 113Z" fill="black"/>
<path d="M343 99.5V113H352.3C364.2 113 365 113.7 365 123.7C365 132.5 363.7 134 356.1 134C349.9 134 347.1 131.6 347 126.2C347 123.5 346.6 123 344.5 123C342.2 123 342 123.3 342 128C342 132.1 342.5 133.5 345.1 136.5C348.2 140 348.3 140 356.4 140H364.7L367.8 136.1C370.9 132.3 371 131.7 371 123.3C370.9 115 370.8 114.3 368 111.2C365.1 108.1 364.8 108 356.5 108H348V100V92H356.5H365V96C365 99.6 365.3 100 367.5 100C369.9 100 370 99.8 370 93V86H356.5H343V99.5Z" fill="black"/>
<path d="M383 93C383 99.8 383.1 100 385.5 100C387.8 100 388 99.6 388 96V92H397.4H406.8L400.5 110.2C391.7 135.5 392.4 134 389.5 134C387.4 134 387 134.5 387 137V140H395H403V137C403 134.7 402.6 134 401 134C399.9 134 399 133.6 399 133.1C399 132.7 402.2 123.2 406 112.1C409.9 101 413 90.5 413 88.9V86H398H383V93Z" fill="black"/>
<path d="M460.6 90.2L457 94.4V113.2V132L460.6 136L464.2 140H473.1H482L485.5 136.2L488.9 132.5L489 113.3V94L485.4 90L481.8 86H473H464.2L460.6 90.2ZM481.4 94.2C482.7 96 483 99.7 483 113.4C483 134 483 134 472.9 134C463.1 134 463 133.7 463 113.2C463 92.5 463.2 92 473.1 92C479 92 480.1 92.3 481.4 94.2Z" fill="black"/>
<path d="M470 113C470 116.8 470.2 117 473 117C475.8 117 476 116.8 476 113C476 109.2 475.8 109 473 109C470.2 109 470 109.2 470 113Z" fill="black"/>
<path d="M502.6 90.2L499 94.4V113.2V132L502.6 136L506.2 140H515.1H524L527.5 136.2L530.9 132.5L531 113.3V94L527.4 90L523.8 86H515H506.2L502.6 90.2ZM523.4 94.2C524.7 96 525 99.7 525 113.4C525 134 525 134 514.9 134C505.1 134 505 133.7 505 113.2C505 92.5 505.2 92 515.1 92C521 92 522.1 92.3 523.4 94.2Z" fill="black"/>
<path d="M512 113C512 116.8 512.2 117 515 117C517.8 117 518 116.8 518 113C518 109.2 517.8 109 515 109C512.2 109 512 109.2 512 113Z" fill="black"/>
<path d="M544.6 90.2L541 94.4V113.2V132L544.6 136L548.2 140H557.1H566L569.5 136.2L572.9 132.5L573 113.3V94L569.4 90L565.8 86H557H548.2L544.6 90.2ZM565.4 94.2C566.7 96 567 99.7 567 113.4C567 134 567 134 556.9 134C547.1 134 547 133.7 547 113.2C547 92.5 547.2 92 557.1 92C563 92 564.1 92.3 565.4 94.2Z" fill="black"/>
<path d="M554 113C554 116.8 554.2 117 557 117C559.8 117 560 116.8 560 113C560 109.2 559.8 109 557 109C554.2 109 554 109.2 554 113Z" fill="black"/>
<path d="M587.3 90C584.6 93.1 584 94.7 584 98.4C584 102.6 584.2 103 586.5 103C588.7 103 589 102.6 589 99.7C589 94.9 592.4 92 598.2 92C604.3 92 606 94 606 101.1C606 106.5 606 106.5 595 120C586.1 130.9 584 134.1 584 136.7V140H598.5H613V133C613 126.2 612.9 126 610.5 126C608.3 126 608 126.4 608 130V134H599.4H590.8L594.8 129.2C597 126.6 601.7 120.9 605.4 116.5L612 108.6V101.2C612 94.5 611.7 93.6 608.8 89.9L605.7 86H598.1H590.5L587.3 90Z" fill="black"/>
<path d="M629.3 90C626.6 93.1 626 94.7 626 98.4C626 102.6 626.2 103 628.5 103C630.7 103 631 102.6 631 99.7C631 94.9 634.4 92 640.2 92C646.4 92 648 94 648 101.6C648 104.9 647.5 108.1 646.8 108.8C646.1 109.5 643.2 110 640.3 110C635.1 110 635 110 635 113C635 116 635.1 116 640.3 116C647.3 116 650 118.6 650 125.1C649.9 131.7 647.5 134 640.8 134C634.3 134 631 131.4 631 126.2C631 123.5 630.6 123 628.5 123C626.2 123 626 123.4 626 127.6C626 131.2 626.7 132.9 629.2 136.1L632.3 140H640.6H648.9L651.9 136.3C654.7 132.9 655 131.9 655 125.2C655 119.4 654.6 117.2 653 115C651.3 112.6 651.2 112.1 652.5 111C653.6 110.1 654 107.6 654 101.8C654 94.4 653.8 93.6 650.8 89.9L647.7 86H640.1H632.5L629.3 90Z" fill="black"/>
<path d="M674.3 103.1C668.6 113.6 665 121.3 665 123.1V126H676H687V130C687 133.6 686.8 134 684.5 134C682.4 134 682 134.5 682 137V140H690H698V137C698 134.5 697.6 134 695.5 134C693.3 134 693 133.6 693 130.4C693 127.7 693.5 126.7 695 126.3C696.3 126 697 124.9 697 123.4C697 121.7 696.4 121 695 121C693.1 121 693 120.3 693 103.5V86H688.3H683.5L674.3 103.1ZM687 107V121H679.5C675.4 121 672 120.6 672 120.1C672 119 686 93 686.6 93C686.8 93 687 99.3 687 107Z" fill="black"/>
<path d="M714.1 89.9L711 93.8V113.2V132.5L714.1 136.3L717.1 140H725.4H733.7L736.8 136.1C739.8 132.4 740 131.6 740 124.3C740 117 739.8 116.2 736.9 112.7L733.9 109H724.9H716V102.7C716 94.6 718.2 92 725.2 92C729.2 92 730.2 92.4 731.9 94.9C733.1 96.5 734 99 734 100.4C734 102.5 734.5 103 736.5 103C738.8 103 739 102.6 739 98.5C739 94.7 738.4 93.4 735.4 90C731.8 86 731.7 86 724.5 86C717.2 86 717.2 86 714.1 89.9ZM732.6 116.7C734.6 119.3 734.4 129.9 732.3 132.2C729.9 134.9 721.4 134.7 718.3 131.8C716.3 129.9 716 128.7 716 122.3V115H723.6C729.7 115 731.5 115.4 732.6 116.7Z" fill="black"/>
<path d="M755.3 90C752.6 93.1 752 94.7 752 98.4C752 102.6 752.2 103 754.5 103C756.7 103 757 102.6 757 99.7C757 94.9 760.4 92 766.2 92C772.3 92 774 94 774 101.1C774 106.5 774 106.5 763 120C754.1 130.9 752 134.1 752 136.7V140H766.5H781V133C781 126.2 780.9 126 778.5 126C776.3 126 776 126.4 776 130V134H767.4H758.8L762.8 129.2C765 126.6 769.7 120.9 773.4 116.5L780 108.6V101.2C780 94.5 779.7 93.6 776.8 89.9L773.7 86H766.1H758.5L755.3 90Z" fill="black"/>
<path d="M797.3 90C794.6 93.1 794 94.7 794 98.4C794 102.6 794.2 103 796.5 103C798.7 103 799 102.6 799 99.7C799 94.9 802.4 92 808.2 92C814.3 92 816 94 816 101.1C816 106.5 816 106.5 805 120C796.1 130.9 794 134.1 794 136.7V140H808.5H823V133C823 126.2 822.9 126 820.5 126C818.3 126 818 126.4 818 130V134H809.4H800.8L804.8 129.2C807 126.6 811.7 120.9 815.4 116.5L822 108.6V101.2C822 94.5 821.7 93.6 818.8 89.9L815.7 86H808.1H800.5L797.3 90Z" fill="black"/>
<path d="M838.6 90.2L835 94.4V113.2V132L838.6 136L842.2 140H851.1H860L863.5 136.2L866.9 132.5L867 113.3V94L863.4 90L859.8 86H851H842.2L838.6 90.2ZM859.4 94.2C860.7 96 861 99.7 861 113.4C861 134 861 134 850.9 134C841.1 134 841 133.7 841 113.2C841 92.5 841.2 92 851.1 92C857 92 858.1 92.3 859.4 94.2Z" fill="black"/>
<path d="M848 113C848 116.8 848.2 117 851 117C853.8 117 854 116.8 854 113C854 109.2 853.8 109 851 109C848.2 109 848 109.2 848 113Z" fill="black"/>
<path d="M883.1 89.9L880 93.8V113.2V132.5L883.1 136.3L886.1 140H894.4H902.7L905.8 136.1C908.8 132.4 909 131.6 909 124.3C909 117 908.8 116.2 905.9 112.7L902.9 109H893.9H885V102.7C885 94.6 887.2 92 894.2 92C898.2 92 899.2 92.4 900.9 94.9C902.1 96.5 903 99 903 100.4C903 102.5 903.5 103 905.5 103C907.8 103 908 102.6 908 98.5C908 94.7 907.4 93.4 904.4 90C900.8 86 900.7 86 893.5 86C886.2 86 886.2 86 883.1 89.9ZM901.6 116.7C903.6 119.3 903.4 129.9 901.3 132.2C898.9 134.9 890.4 134.7 887.3 131.8C885.3 129.9 885 128.7 885 122.3V115H892.6C898.7 115 900.5 115.4 901.6 116.7Z" fill="black"/>
<path d="M923 99.5V113H932.3C944.2 113 945 113.7 945 123.7C945 132.5 943.7 134 936.1 134C929.9 134 927.1 131.6 927 126.2C927 123.5 926.6 123 924.5 123C922.2 123 922 123.3 922 128C922 132.1 922.5 133.5 925.1 136.5C928.2 140 928.3 140 936.4 140H944.7L947.8 136.1C950.9 132.3 951 131.7 951 123.3C950.9 115 950.8 114.3 948 111.2C945.1 108.1 944.8 108 936.5 108H928V100V92H936.5H945V96C945 99.6 945.3 100 947.5 100C949.9 100 950 99.8 950 93V86H936.5H923V99.5Z" fill="black"/>
<path d="M996 93C996 99.8 996.1 100 998.5 100C1000.8 100 1001 99.6 1001 96V92H1010.4H1019.8L1013.5 110.2C1004.7 135.5 1005.4 134 1002.5 134C1000.4 134 1000 134.5 1000 137V140H1008H1016V137C1016 134.7 1015.6 134 1014 134C1012.9 134 1012 133.6 1012 133.1C1012 132.7 1015.2 123.2 1019 112.1C1022.9 101 1026 90.5 1026 88.9V86H1011H996V93Z" fill="black"/>
<path d="M1042.1 89.9L1039 93.8V113.2V132.5L1042.1 136.3L1045.1 140H1053.4H1061.7L1064.8 136.1C1067.8 132.4 1068 131.6 1068 124.3C1068 117 1067.8 116.2 1064.9 112.7L1061.9 109H1052.9H1044V102.7C1044 94.6 1046.2 92 1053.2 92C1057.2 92 1058.2 92.4 1059.9 94.9C1061.1 96.5 1062 99 1062 100.4C1062 102.5 1062.5 103 1064.5 103C1066.8 103 1067 102.6 1067 98.5C1067 94.7 1066.4 93.4 1063.4 90C1059.8 86 1059.7 86 1052.5 86C1045.2 86 1045.2 86 1042.1 89.9ZM1060.6 116.7C1062.6 119.3 1062.4 129.9 1060.3 132.2C1057.9 134.9 1049.4 134.7 1046.3 131.8C1044.3 129.9 1044 128.7 1044 122.3V115H1051.6C1057.7 115 1059.5 115.4 1060.6 116.7Z" fill="black"/>
<path d="M101 107C101 110.9 101.1 111 104.5 111C107.9 111 108 110.9 108 107C108 103.1 107.9 103 104.5 103C101.1 103 101 103.1 101 107Z" fill="black"/>
<path d="M267 113V116H276.5H286V113V110H276.5H267V113Z" fill="black"/>
<path d="M426 113V116H435.5H445V113V110H435.5H426V113Z" fill="black"/>
<path d="M964 113V116H973.5H983V113V110H973.5H964V113Z" fill="black"/>
<path d="M101 136C101 139.9 101.1 140 104.5 140C107.9 140 108 139.9 108 136C108 132.1 107.9 132 104.5 132C101.1 132 101 132.1 101 136Z" fill="black"/>
<path d="M203.1 175.9C200.2 179.6 200 180.3 200 188.1C200.1 196 200.2 196.7 203 199.7C205.9 202.9 206.2 203 214.5 203H223V209.2C222.9 217.8 221.1 220 214 220C207.9 220 205.1 217.6 205 212.2C205 209.5 204.6 209 202.5 209C200.2 209 200 209.3 200 213.8C200 217.6 200.6 219.3 203.1 222.3C206.1 226 206.2 226 214 226C221.7 226 221.8 225.9 224.9 222.5L228 218.9V199.2V179.5L224.9 175.7C221.9 172 221.8 172 214 172H206.2L203.1 175.9ZM220.7 180.2C222.7 182.1 223 183.3 223 190.2V198H216.1C209.8 198 209 197.8 207.1 195.4C204.1 191.6 204.2 183.5 207.2 180.3C210.2 177.1 217.4 177.1 220.7 180.2Z" fill="black"/>
<path d="M245.1 175.9C242.2 179.6 242 180.3 242 188.1C242.1 196 242.2 196.7 245 199.7C247.9 202.9 248.2 203 256.5 203H265V209.2C264.9 217.8 263.1 220 256 220C249.9 220 247.1 217.6 247 212.2C247 209.5 246.6 209 244.5 209C242.2 209 242 209.3 242 213.8C242 217.6 242.6 219.3 245.1 222.3C248.1 226 248.2 226 256 226C263.7 226 263.8 225.9 266.9 222.5L270 218.9V199.2V179.5L266.9 175.7C263.9 172 263.8 172 256 172H248.2L245.1 175.9ZM262.7 180.2C264.7 182.1 265 183.3 265 190.2V198H258.1C251.8 198 251 197.8 249.1 195.4C246.1 191.6 246.2 183.5 249.2 180.3C252.2 177.1 259.4 177.1 262.7 180.2Z" fill="black"/>
<path d="M287.3 176C284.6 179.1 284 180.7 284 184.4C284 188.6 284.2 189 286.5 189C288.7 189 289 188.6 289 185.7C289 180.9 292.4 178 298.2 178C304.4 178 306 180 306 187.6C306 190.9 305.5 194.1 304.8 194.8C304.1 195.5 301.2 196 298.3 196C293.1 196 293 196 293 199C293 202 293.1 202 298.3 202C305.3 202 308 204.6 308 211.1C307.9 217.7 305.5 220 298.8 220C292.3 220 289 217.4 289 212.2C289 209.5 288.6 209 286.5 209C284.2 209 284 209.4 284 213.6C284 217.2 284.7 218.9 287.2 222.1L290.3 226H298.6H306.9L309.9 222.3C312.7 218.9 313 217.9 313 211.2C313 205.4 312.6 203.2 311 201C309.3 198.6 309.2 198.1 310.5 197C311.6 196.1 312 193.6 312 187.8C312 180.4 311.8 179.6 308.8 175.9L305.7 172H298.1H290.5L287.3 176Z" fill="black"/>
<path d="M330.1 175.9C327.2 179.6 327 180.3 327 188.1C327.1 196 327.2 196.7 330 199.7C332.9 202.9 333.2 203 341.5 203H350V209.2C349.9 217.8 348.1 220 341 220C334.9 220 332.1 217.6 332 212.2C332 209.5 331.6 209 329.5 209C327.2 209 327 209.3 327 213.8C327 217.6 327.6 219.3 330.1 222.3C333.1 226 333.2 226 341 226C348.7 226 348.8 225.9 351.9 222.5L355 218.9V199.2V179.5L351.9 175.7C348.9 172 348.8 172 341 172H333.2L330.1 175.9ZM347.7 180.2C349.7 182.1 350 183.3 350 190.2V198H343.1C336.8 198 336 197.8 334.1 195.4C331.1 191.6 331.2 183.5 334.2 180.3C337.2 177.1 344.4 177.1 347.7 180.2Z" fill="black"/>
<path d="M372.1 175.9L369 179.8V199.2V218.5L372.1 222.3L375.1 226H383.4H391.7L394.8 222.1C397.8 218.4 398 217.6 398 210.3C398 203 397.8 202.2 394.9 198.7L391.9 195H382.9H374V188.7C374 180.6 376.2 178 383.2 178C387.2 178 388.2 178.4 389.9 180.9C391.1 182.5 392 185 392 186.4C392 188.5 392.5 189 394.5 189C396.8 189 397 188.6 397 184.5C397 180.7 396.4 179.4 393.4 176C389.8 172 389.7 172 382.5 172C375.2 172 375.2 172 372.1 175.9ZM390.6 202.7C392.6 205.3 392.4 215.9 390.3 218.2C387.9 220.9 379.4 220.7 376.3 217.8C374.3 215.9 374 214.7 374 208.3V201H381.6C387.7 201 389.5 201.4 390.6 202.7Z" fill="black"/>
<path d="M413.3 176C410.6 179.1 410 180.7 410 184.4C410 188.6 410.2 189 412.5 189C414.7 189 415 188.6 415 185.7C415 180.9 418.4 178 424.2 178C430.3 178 432 180 432 187.1C432 192.5 432 192.5 421 206C412.1 216.9 410 220.1 410 222.7V226H424.5H439V219C439 212.2 438.9 212 436.5 212C434.3 212 434 212.4 434 216V220H425.4H416.8L420.8 215.2C423 212.6 427.7 206.9 431.4 202.5L438 194.6V187.2C438 180.5 437.7 179.6 434.8 175.9L431.7 172H424.1H416.5L413.3 176Z" fill="black"/>
<path d="M452 179C452 185.8 452.1 186 454.5 186C456.8 186 457 185.6 457 182V178H466.4H475.8L469.5 196.2C460.7 221.5 461.4 220 458.5 220C456.4 220 456 220.5 456 223V226H464H472V223C472 220.7 471.6 220 470 220C468.9 220 468 219.6 468 219.1C468 218.7 471.2 209.2 475 198.1C478.9 187 482 176.5 482 174.9V172H467H452V179Z" fill="black"/>
<path d="M498.1 175.9C495.2 179.6 495 180.3 495 188.1C495.1 196 495.2 196.7 498 199.7C500.9 202.9 501.2 203 509.5 203H518V209.2C517.9 217.8 516.1 220 509 220C502.9 220 500.1 217.6 500 212.2C500 209.5 499.6 209 497.5 209C495.2 209 495 209.3 495 213.8C495 217.6 495.6 219.3 498.1 222.3C501.1 226 501.2 226 509 226C516.7 226 516.8 225.9 519.9 222.5L523 218.9V199.2V179.5L519.9 175.7C516.9 172 516.8 172 509 172H501.2L498.1 175.9ZM515.7 180.2C517.7 182.1 518 183.3 518 190.2V198H511.1C504.8 198 504 197.8 502.1 195.4C499.1 191.6 499.2 183.5 502.2 180.3C505.2 177.1 512.4 177.1 515.7 180.2Z" fill="black"/>
<path d="M540.1 175.9C537.2 179.6 537 180.3 537 188.1C537.1 196 537.2 196.7 540 199.7C542.9 202.9 543.2 203 551.5 203H560V209.2C559.9 217.8 558.1 220 551 220C544.9 220 542.1 217.6 542 212.2C542 209.5 541.6 209 539.5 209C537.2 209 537 209.3 537 213.8C537 217.6 537.6 219.3 540.1 222.3C543.1 226 543.2 226 551 226C558.7 226 558.8 225.9 561.9 222.5L565 218.9V199.2V179.5L561.9 175.7C558.9 172 558.8 172 551 172H543.2L540.1 175.9ZM557.7 180.2C559.7 182.1 560 183.3 560 190.2V198H553.1C546.8 198 546 197.8 544.1 195.4C541.1 191.6 541.2 183.5 544.2 180.3C547.2 177.1 554.4 177.1 557.7 180.2Z" fill="black"/>
<path d="M0 182C0 184.5 0.4 185 2.5 185H5V202.5V220H2.5C0.4 220 0 220.5 0 223V226H8H16V223C16 220.5 15.6 220 13.5 220C11.2 220 11 219.7 11 215V210H18.8H26.5L29.8 206C32.8 202.4 33 201.6 33 194.9C33 188.1 32.8 187.5 29.4 183.4L25.9 179H12.9H0V182ZM24.7 187.2C26.6 188.9 27 190.4 27 194.8C27 202.5 25.5 204 17.3 204H11V194.5V185H16.7C21.1 185 22.9 185.5 24.7 187.2Z" fill="black"/>
<path d="M40 182C40 184.5 40.4 185 42.5 185H45V202.5V220H42.5C40.4 220 40 220.5 40 223V226H55H70V219C70 212.2 69.9 212 67.5 212C65.3 212 65 212.4 65 216V220H58H51V202.5V185H53.5C55.6 185 56 184.5 56 182V179H48H40V182Z" fill="black"/>
<path d="M76 182C76 184.5 76.4 185 78.5 185H81V202.5V220H78.5C76.4 220 76 220.5 76 223V226H84H92V223C92 220.5 91.6 220 89.5 220H87V202.5V185H89.5C91.6 185 92 184.5 92 182V179H84H76V182Z" fill="black"/>
<path d="M102 182C102 184.5 102.4 185 104.5 185H107V202.5V220H104.5C102.4 220 102 220.5 102 223V226H109.5H117V223C117 220.7 116.6 220 115 220C113.1 220 113 219.4 113.1 204.7C113.1 196.4 113.4 189.9 113.6 190.5C113.9 191 116.4 197.8 119.3 205.5C124.3 219 124.6 219.5 127.5 219.8L130.5 220.1L135.9 205.3C138.9 197.2 141.7 190.1 142.1 189.6C142.6 189 143 195.6 143 204.3V220H140.5C138.4 220 138 220.5 138 223V226H145.5H153V223C153 220.5 152.6 220 150.5 220H148V202.5V185H150.5C152.6 185 153 184.5 153 182V178.9L146.4 179.2L139.8 179.5L133.7 196.4L127.7 213.3L122.8 199.9C120.2 192.5 117.4 184.9 116.7 183C115.4 179.5 115.4 179.5 108.7 179.2L102 178.9V182Z" fill="black"/>
<path d="M161 193C161 196.9 161.1 197 164.5 197C167.9 197 168 196.9 168 193C168 189.1 167.9 189 164.5 189C161.1 189 161 189.1 161 193Z" fill="black"/>
<path d="M161 222C161 225.9 161.1 226 164.5 226C167.9 226 168 225.9 168 222C168 218.1 167.9 218 164.5 218C161.1 218 161 218.1 161 222Z" fill="black"/>
</svg>
