<svg width="1592" height="422" viewBox="0 0 1592 422" fill="none" xmlns="http://www.w3.org/2000/svg">
<path d="M150 1.49878C135.4 5.59878 120.7 16.2988 112.4 28.6988L108.7 34.2988L106.9 31.8988C101.9 25.4988 101.7 13.9988 106.4 6.99878C109.7 1.99878 108.9 0.198777 105.3 4.49878C97.3003 14.1988 97.0003 26.2988 104.7 35.7988C106.6 38.0988 106.5 38.2988 103.8 46.2988C97.2003 65.9988 102.3 85.4988 116.1 92.2988C128.1 98.3988 146.7 94.0988 164.4 81.1988L169.2 77.6988L168.5 81.0988C167.5 86.0988 163.2 96.6988 159.9 102.699L157 107.799L148.2 108.499C132.1 109.699 123.6 111.099 114.1 114.299C102.9 117.899 93.6003 123.899 90.6003 129.199C88.7003 132.699 88.6003 133.199 90.0003 135.699C92.7003 140.499 97.5003 142.499 106.5 142.399C121.4 142.299 138.7 134.099 153 120.299L161.5 111.999H171.2C176.5 111.999 183.2 112.499 186 113.099C191.2 114.199 193.7 113.699 191 111.999C189.4 110.999 179.8 109.399 169.8 108.399L163.2 107.799L166.1 102.999C174.7 89.0988 181.2 69.9988 179.1 65.2988C178 62.7988 175.1 62.2988 172 63.9988C170.9 64.5988 168.3 68.0988 166.1 71.7988C161.9 78.9988 159.4 81.1988 151.2 85.3988C140.5 90.7988 127.4 92.2988 120.6 88.8988C112.2 84.4988 108.5 76.1988 109.2 63.0988C109.7 53.7988 113.3 42.3988 115.3 43.3988C129.4 49.5988 139.2 51.5988 151.5 50.5988C169.5 49.1988 182.3 43.2988 188.9 33.2988C196.5 21.8988 192.1 8.79878 178.7 2.99878C171.9 -0.00122283 157.9 -0.701223 150 1.49878ZM175.3 5.19878C177.5 5.89878 181.1 8.09878 183.2 10.0988C186.6 13.3988 187 14.1988 187 18.8988C187 31.0988 175.8 41.4988 158.3 45.5988C145.2 48.6988 126.1 46.3988 118.1 40.7988C115.9 39.2988 115.9 39.2988 121 31.6988C129.2 19.4988 142.2 9.19878 154.3 5.39878C159.7 3.79878 170.1 3.69878 175.3 5.19878ZM151.8 115.199C138.1 133.199 97.7003 146.699 96.2003 133.899C95.8003 130.499 101.6 125.199 110.8 120.599C122 114.999 133.2 112.399 147.4 112.099L154.3 111.999L151.8 115.199Z" fill="black"/>
<path d="M762.7 24.9989C759.7 27.3989 751.5 42.2989 740.9 64.9989C736.6 73.9989 732.6 81.5989 732 81.7989C731.3 82.0989 731.5 80.9989 732.5 78.9989C733.4 77.2989 734 75.0989 733.8 74.1989C733.5 73.0989 732.6 73.9989 731.1 76.9989C724.2 90.1989 716.8 97.7989 714 94.4989C712 92.0989 713.6 86.7989 720.8 72.6989C724.5 65.3989 727.7 59.0989 727.8 58.6989C728.5 57.2989 722.7 59.1989 716.5 62.3989C713.2 64.0989 707.2 68.5989 703.1 72.4989L695.7 79.4989L698.5 74.4989C700.1 71.6989 703.1 66.8989 705.2 63.6989L709 57.9989H705C701.2 57.9989 700.8 58.2989 697.6 63.1989C694 68.8989 680 96.3989 680 97.7989C680 98.2989 681.7 98.3989 683.7 98.0989C687 97.5989 687.8 96.6989 691.7 90.1989C697.1 80.8989 702.2 74.6989 707.9 70.3989C716 64.1989 717 66.1989 711 76.6989C704.6 87.6989 704.3 94.9989 710.2 97.3989C714.3 99.1989 718.4 97.9989 722.6 93.8989C725.7 90.8989 725.8 90.8989 726.5 92.8989C726.9 94.2989 725.8 98.3989 723.2 104.799C714.5 125.899 712.9 135.599 717.5 138.599C727.6 145.199 742 124.899 742 104.099C742 98.5989 742.2 97.9989 744 97.9989C747 97.9989 754.2 90.8989 757.9 84.2989C759.7 81.0989 760.8 79.3989 760.5 80.4989C758.2 87.1989 757.9 89.2989 759 92.5989C761.2 99.1989 767.8 99.9989 774.1 94.2989C779.5 89.3989 789.2 71.8989 785 74.4989C784.5 74.7989 782.7 77.6989 780.9 80.9989C779.2 84.1989 776.2 88.7989 774.3 90.9989C771.3 94.3989 770.2 95.0989 767.6 94.7989C764.8 94.4989 764.5 94.1989 764.6 90.9989C764.6 88.9989 767.4 81.3989 770.8 73.5989C774.2 65.9989 776.7 59.3989 776.4 58.8989C776.1 58.3989 773.9 57.9989 771.5 57.9989C767.9 57.9989 767.2 58.2989 767.6 59.4989C768.4 61.4989 764.1 72.9989 762.4 73.6989C761.6 73.9989 759.6 76.6989 757.8 79.8989C753.4 87.7989 749.3 92.7989 745.8 94.5989C744.2 95.4989 742.7 95.9989 742.6 95.7989C742.5 95.5989 741.4 92.9989 740.2 89.9989L737.9 84.4989L744.9 70.4989C753.2 53.8989 762.6 37.6989 768.6 29.6989C771 26.5989 773 23.7989 773 23.4989C773 21.9989 765 23.1989 762.7 24.9989ZM739 94.1989C739 95.2989 738.3 95.9989 737.1 95.9989C734.4 95.9989 733.8 94.6989 735.1 91.2989C736.1 88.5989 736.2 88.5989 737.6 90.3989C738.4 91.4989 739 93.1989 739 94.1989ZM737.6 98.5989C739.9 99.1989 740 99.4989 739.4 104.399C737.8 116.899 731 132.099 725.3 135.699C723.4 136.999 723 136.899 722.1 135.199C720.7 132.599 722.8 123.499 728 108.699C731.2 99.6989 732.6 96.9989 733.7 97.3989C734.5 97.7989 736.3 98.2989 737.6 98.5989Z" fill="black"/>
<path d="M1030.6 27.8994C1027.5 29.9994 1022.7 36.7994 1017.9 46.1994C1015.1 51.7994 1014.8 51.9994 1011 51.9994C1008.1 51.9994 1007 52.3994 1007 53.4994C1007 54.4994 1008 54.9994 1010.4 54.9994H1013.8L1010.5 63.3994C1004.6 78.4994 1002.7 88.7994 1005.2 93.2994C1008.8 100.199 1016.9 99.3994 1023.9 91.4994C1027.4 87.3994 1034.5 73.9994 1033.1 73.9994C1032.6 73.9994 1030.6 76.7994 1028.6 80.1994C1022.7 90.5994 1017 95.7994 1013.2 94.4994C1010.3 93.5994 1009.9 90.5994 1011.7 82.5994C1013.1 76.3994 1013.9 74.7994 1018.4 69.9994C1021.3 66.9994 1025.1 62.3994 1026.9 59.6994C1029.8 55.3994 1030.5 54.9994 1034 54.9994C1036.9 54.9994 1038 54.5994 1038 53.4994C1038 52.4994 1037 51.9994 1035 51.9994C1033.4 51.9994 1032 51.7994 1032 51.4994C1032 51.1994 1033.5 47.8994 1035.4 44.1994C1037.3 40.3994 1039.1 35.7994 1039.5 33.7994C1040.8 26.6994 1036.6 23.9994 1030.6 27.8994ZM1036.1 36.1994C1035.3 38.5994 1033.5 43.0994 1031.9 46.1994C1029.3 51.2994 1028.6 51.9994 1026 51.9994C1024.3 51.9994 1023 51.7994 1023 51.4994C1023 50.1994 1030.4 36.1994 1032.7 33.1994C1036.1 28.6994 1037.8 30.1994 1036.1 36.1994ZM1024.1 59.1994C1022.5 61.5994 1019.8 65.0994 1018.1 66.9994L1015 70.4994L1018.1 62.6994C1021 55.5994 1021.5 54.9994 1024.2 54.9994H1027.1L1024.1 59.1994Z" fill="black"/>
<path d="M1282.6 27.8992C1279.5 29.9992 1274.7 36.7992 1269.9 46.1992C1267.1 51.7992 1266.8 51.9992 1263 51.9992C1260.1 51.9992 1259 52.3992 1259 53.4992C1259 54.4992 1260 54.9992 1262.4 54.9992H1265.8L1262.4 63.6992C1260.5 68.3992 1259 72.8992 1259 73.5992C1259 74.3992 1258.4 74.6992 1257.7 74.3992C1256.8 74.0992 1254.7 76.6992 1251.8 81.6992C1246.3 90.9992 1242.6 94.6992 1238 95.5992L1234.5 96.2992L1237.6 92.8992C1244.1 85.8992 1244.5 81.5992 1239.9 70.1992C1235.6 59.3992 1237.1 52.9992 1244.1 52.9992C1247.7 52.9992 1247.9 51.3992 1244.5 50.5992C1241.3 49.7992 1236.8 52.0992 1234.2 55.6992C1233.1 57.2992 1229.7 63.5992 1226.6 69.8992C1223.4 76.0992 1220.6 80.9992 1220.4 80.6992C1220.1 80.3992 1220.3 79.2992 1220.9 78.1992C1221.5 76.9992 1222 75.5992 1222 74.9992C1222 72.7992 1220 75.0992 1216.9 80.9992C1215.2 84.1992 1212.2 88.7992 1210.3 90.9992C1207.3 94.3992 1206.2 95.0992 1203.6 94.7992C1200.8 94.4992 1200.5 94.1992 1200.6 90.9992C1200.6 88.9992 1203.4 81.3992 1206.8 73.5992C1210.2 65.9992 1212.7 59.3992 1212.4 58.8992C1212.1 58.3992 1209.9 57.9992 1207.5 57.9992C1203.8 57.9992 1203.3 58.2992 1203.7 59.7992C1203.9 60.7992 1202.2 66.2992 1199.9 72.0992C1194.1 86.5992 1193.7 88.4992 1195 92.5992C1196.3 96.4992 1198.5 97.9992 1203.1 97.9992C1205.6 97.9992 1207.4 96.8992 1211.1 93.0992C1215.6 88.6992 1216 88.4992 1216 90.6992C1216 95.2992 1222.3 99.1992 1227.5 97.9992C1228.1 97.8992 1230.5 97.7992 1233 97.7992C1235.5 97.8992 1238.9 97.4992 1240.6 96.8992C1244.7 95.5992 1250.3 89.6992 1254.6 81.9992C1256.6 78.3992 1257.9 76.2992 1257.6 77.1992C1256.5 80.7992 1255.8 88.9992 1256.4 91.3992C1257.3 94.9992 1260.9 97.9992 1264.2 97.9992C1270.7 97.9992 1276.8 92.2992 1282.5 80.9992C1286.9 72.2992 1285.4 71.7992 1280.6 80.1992C1274.7 90.5992 1269 95.7992 1265.2 94.4992C1262.3 93.5992 1261.9 90.5992 1263.7 82.5992C1265.1 76.3992 1265.9 74.7992 1270.4 69.9992C1273.3 66.9992 1277.1 62.3992 1278.9 59.6992C1281.8 55.3992 1282.5 54.9992 1286 54.9992C1288.9 54.9992 1290 54.5992 1290 53.4992C1290 52.4992 1289 51.9992 1287 51.9992C1285.4 51.9992 1284 51.7992 1284 51.4992C1284 51.1992 1285.5 47.8992 1287.4 44.1992C1289.3 40.3992 1291.1 35.7992 1291.5 33.7992C1292.8 26.6992 1288.6 23.9992 1282.6 27.8992ZM1288.1 36.1992C1287.3 38.5992 1285.5 43.0992 1283.9 46.1992C1281.3 51.2992 1280.6 51.9992 1278 51.9992C1276.3 51.9992 1275 51.7992 1275 51.4992C1275 50.1992 1282.4 36.1992 1284.7 33.1992C1288.1 28.6992 1289.8 30.1992 1288.1 36.1992ZM1276.1 59.1992C1274.5 61.5992 1271.8 65.0992 1270.1 66.9992L1267 70.4992L1270.1 62.6992C1273 55.5992 1273.5 54.9992 1276.2 54.9992H1279.1L1276.1 59.1992ZM1235 72.4992C1236.1 82.7992 1236.1 84.4992 1234.6 88.4992C1233.6 90.8992 1232.3 93.3992 1231.5 93.9992C1229.5 95.5992 1226.3 92.0992 1225.4 87.2992C1225 85.1992 1224.4 82.9992 1223.9 82.3992C1223.4 81.6992 1225.1 77.3992 1228.3 71.1992C1231.1 65.5992 1233.6 60.9992 1233.6 60.9992C1233.7 60.9992 1234.3 66.1992 1235 72.4992ZM1224 89.7992C1224 90.7992 1224.9 92.5992 1226 93.7992L1228.1 95.9992H1225.7C1222.4 95.9992 1220.6 93.5992 1221.4 90.4992C1222.1 87.5992 1224 87.0992 1224 89.7992Z" fill="black"/>
<path d="M319.7 44.7995C316 48.8995 318.9 54.0995 323.8 52.3995C327.1 51.1995 328.9 46.7995 327 44.5995C325.3 42.4995 321.7 42.5995 319.7 44.7995Z" fill="black"/>
<path d="M773.7 44.8002C771.6 47.1002 771.5 50.4002 773.6 52.0002C777.4 55.2002 784.2 48.4002 781 44.6002C779.3 42.5002 775.7 42.6002 773.7 44.8002Z" fill="black"/>
<path d="M1209.7 44.8002C1207.6 47.1002 1207.5 50.4002 1209.6 52.0002C1213.4 55.2002 1220.2 48.4002 1217 44.6002C1215.3 42.5002 1211.7 42.6002 1209.7 44.8002Z" fill="black"/>
<path d="M1411.7 44.8002C1409.6 47.1002 1409.5 50.4002 1411.6 52.0002C1415.4 55.2002 1422.2 48.4002 1419 44.6002C1417.3 42.5002 1413.7 42.6002 1411.7 44.8002Z" fill="black"/>
<path d="M201.2 45.1979C200.7 45.8979 199.3 50.1979 198.1 54.6979C195.5 64.7979 189.7 78.4979 184.7 86.2979C182.6 89.5979 181.1 92.6979 181.3 93.2979C181.9 95.2979 189.9 82.7979 194.2 72.8979C197.1 66.1979 199 62.9979 200.1 62.9979C203.2 62.9979 208 65.1979 208 66.5979C208 67.3979 206 71.6979 203.6 76.2979C198.2 86.3979 197.6 88.9979 199.4 93.4979C202 99.7979 209.4 99.0979 214.9 92.0979C218.3 87.7979 223.5 79.0979 224.5 76.1979C225.9 71.6979 223.4 74.2979 220.1 80.6979C216.2 88.0979 209.8 95.3979 207.8 94.7979C204.9 93.7979 206.6 86.3979 212.3 74.3979C215.4 67.7979 218 61.8979 218 61.1979C218 60.3979 215.5 59.9979 209.4 59.9979H200.7L203.3 57.9979C204.7 56.8979 206.4 54.3979 207 52.3979C208 49.4979 207.9 48.4979 206.6 46.4979C204.8 43.7979 202.8 43.2979 201.2 45.1979Z" fill="black"/>
<path d="M550.2 45.1979C549.7 45.8979 548.3 50.1979 547.1 54.6979C544.5 64.7979 538.7 78.4979 533.7 86.2979C531.6 89.5979 530.1 92.6979 530.3 93.2979C530.9 95.2979 538.9 82.7979 543.2 72.8979C546.1 66.1979 548 62.9979 549.1 62.9979C552.2 62.9979 557 65.1979 557 66.5979C557 67.3979 555 71.6979 552.6 76.2979C547.2 86.3979 546.6 88.9979 548.4 93.4979C551 99.7979 558.4 99.0979 563.9 92.0979C567.3 87.7979 572.5 79.0979 573.5 76.1979C574.9 71.6979 572.4 74.2979 569.1 80.6979C565.2 88.0979 558.8 95.3979 556.8 94.7979C553.9 93.7979 555.6 86.3979 561.3 74.3979C564.4 67.7979 567 61.8979 567 61.1979C567 60.3979 564.5 59.9979 558.4 59.9979H549.7L552.3 57.9979C553.7 56.8979 555.4 54.3979 556 52.3979C557 49.4979 556.9 48.4979 555.6 46.4979C553.8 43.7979 551.8 43.2979 550.2 45.1979Z" fill="black"/>
<path d="M798.2 45.1979C797.7 45.8979 796.3 50.1979 795.1 54.6979C792.5 64.7979 786.7 78.4979 781.7 86.2979C779.6 89.5979 778.1 92.6979 778.3 93.2979C778.9 95.2979 786.9 82.7979 791.2 72.8979C794.1 66.1979 796 62.9979 797.1 62.9979C800.2 62.9979 805 65.1979 805 66.5979C805 67.3979 803 71.6979 800.6 76.2979C795.2 86.3979 794.6 88.9979 796.4 93.4979C799 99.7979 806.4 99.0979 811.9 92.0979C815.3 87.7979 820.5 79.0979 821.5 76.1979C822.9 71.6979 820.4 74.2979 817.1 80.6979C813.2 88.0979 806.8 95.3979 804.8 94.7979C801.9 93.7979 803.6 86.3979 809.3 74.3979C812.4 67.7979 815 61.8979 815 61.1979C815 60.3979 812.5 59.9979 806.4 59.9979H797.7L800.3 57.9979C801.7 56.8979 803.4 54.3979 804 52.3979C805 49.4979 804.9 48.4979 803.6 46.4979C801.8 43.7979 799.8 43.2979 798.2 45.1979Z" fill="black"/>
<path d="M946.2 45.2009C945.7 45.9009 944.5 49.4009 943.6 53.0009C941.1 62.9009 935.8 76.3009 934.9 74.8009C934 73.3009 934.4 72.8009 929.2 81.6009C924.5 89.7009 919.9 95.0009 917.6 95.0009C914.5 95.0009 915.6 87.2009 920.1 77.9009C922.3 73.3009 924.9 68.7009 925.7 67.8009C927.1 66.2009 927.1 66.0009 925.7 65.4009C921.8 63.9009 918.5 65.5009 915.5 70.3009C903.5 89.5009 898.2 95.6009 894.1 94.8009C891.4 94.3009 891.5 86.9009 894.3 81.3009C902.6 65.0009 916.6 54.0009 921.6 59.9009C923.6 62.2009 926.4 62.8009 925.8 60.7009C925.5 60.1009 923.8 58.4009 921.9 57.2009C914.7 52.2009 901.9 57.1009 894 67.8009C891.5 71.1009 888.8 73.9009 888 74.0009C887.2 74.0009 885.4 76.3009 884.2 79.1009C881.2 85.4009 874.5 93.9009 871.7 94.9009C868.4 96.2009 866.7 94.3009 867.5 90.1009C867.8 88.1009 871.1 80.4009 874.8 73.0009C878.5 65.6009 881.6 59.1009 881.8 58.7009C882.5 57.3009 876.6 59.2009 870.5 62.4009C867.2 64.1009 861.4 68.4009 857.6 72.0009L850.7 78.5009L854.8 70.6009C859.5 61.7009 859.8 60.5009 857.2 59.1009C853.8 57.3009 844.5 63.3009 833.8 74.5009C831.7 76.6009 830 78.1009 830 77.8009C830 76.8009 837 64.9009 839.8 61.2009L842.2 58.0009H838.1C834.2 58.0009 833.8 58.3009 830.6 63.2009C827.5 68.1009 813 96.3009 813 97.5009C813 97.8009 814.5 98.0009 816.4 98.0009C819.6 98.0009 820.2 97.5009 824.5 90.2009C830.3 80.7009 836.5 73.3009 841.9 69.6009C848.5 65.0009 848.4 66.1009 841.6 81.5009C837.8 90.1009 837.1 95.0009 839.5 97.0009C841.4 98.5009 841.1 98.7009 844.3 92.4009C850.7 79.6009 869 61.8009 869 68.4009C869 69.1009 867.2 72.8009 865 76.6009C860.2 84.9009 858.9 91.7009 861.4 95.5009C862.8 97.6009 863.8 98.0009 867.7 98.0009C872 98.0009 872.8 97.6009 876.9 93.2009C879.4 90.6009 883 85.8009 884.8 82.5009C886.7 79.2009 887.8 77.4009 887.4 78.5009C887 79.6009 886.5 83.2009 886.3 86.5009C885.9 91.6009 886.1 92.9009 888 95.2009C891.9 100.201 898.3 98.3009 904.6 90.3009C906.7 87.6009 908.6 85.2009 908.9 84.8009C909.3 84.4009 909.3 86.3009 909.2 89.0009C908.9 92.8009 909.2 94.2009 910.9 95.9009C914.5 99.5009 918.4 98.7009 923.8 93.2009C926.4 90.6009 927.9 89.3009 927.2 90.2009C926.4 91.2009 926 92.5009 926.2 93.2009C926.9 95.3009 934.8 83.1009 939.2 72.9009C942.1 66.2009 944 63.0009 945.1 63.0009C948.2 63.0009 953 65.2009 953 66.6009C953 67.4009 951 71.7009 948.6 76.3009C943.2 86.4009 942.6 89.0009 944.4 93.5009C947 99.8009 954.4 99.1009 959.9 92.1009C963.3 87.8009 968.5 79.1009 969.5 76.2009C970.9 71.7009 968.4 74.3009 965.1 80.7009C961.2 88.1009 954.8 95.4009 952.8 94.8009C949.9 93.8009 951.6 86.4009 957.3 74.4009C960.4 67.8009 963 61.9009 963 61.2009C963 60.4009 960.5 60.0009 954.4 60.0009H945.7L948.3 58.0009C949.7 56.9009 951.4 54.4009 952 52.4009C953 49.5009 952.9 48.5009 951.6 46.5009C949.8 43.8009 947.8 43.3009 946.2 45.2009ZM933.5 80.0009C932.6 81.6009 931.7 83.0009 931.4 83.0009C931.2 83.0009 931.6 81.6009 932.5 80.0009C933.4 78.3009 934.3 77.0009 934.6 77.0009C934.8 77.0009 934.4 78.3009 933.5 80.0009Z" fill="black"/>
<path d="M393.9 52.3001C391.5 53.9001 388.9 57.6001 384.9 65.4001C381.8 71.4001 379 75.6001 378.8 74.9001C378.1 73.2001 378.2 73.1001 373.2 81.6001C368.5 89.7001 363.9 95.0001 361.6 95.0001C358.5 95.0001 359.6 87.2001 364.1 77.9001C366.3 73.3001 368.9 68.7001 369.7 67.8001C371.1 66.2001 371.1 66.0001 369.7 65.4001C365.8 63.9001 362.5 65.5001 359.5 70.3001C347.5 89.5001 342.2 95.6001 338.1 94.8001C335.4 94.3001 335.5 86.9001 338.3 81.3001C346.6 65.0001 360.6 54.0001 365.6 59.9001C367.6 62.2001 370.4 62.8001 369.8 60.7001C369.5 60.1001 367.8 58.4001 365.9 57.2001C363.1 55.2001 361.6 54.9001 357.8 55.4001C349.1 56.3001 342.1 61.1001 336.1 70.1001C333.8 73.5001 332 75.7001 332 75.1001C332 72.8001 330.1 75.1001 326.9 81.0001C325.2 84.2001 322.2 88.8001 320.3 91.0001C317.3 94.4001 316.2 95.1001 313.6 94.8001C310.8 94.5001 310.5 94.2001 310.6 91.0001C310.6 89.0001 313.4 81.4001 316.8 73.6001C320.2 66.0001 322.7 59.4001 322.4 58.9001C322.1 58.4001 319.9 58.0001 317.5 58.0001C313.8 58.0001 313.3 58.3001 313.7 59.8001C313.9 60.8001 312.2 66.3001 309.9 72.1001C304.1 86.6001 303.7 88.5001 305 92.6001C306.3 96.5001 308.5 98.0001 312.9 98.0001C317.2 98.0001 323.2 92.4001 328.2 83.6001C330.4 79.7001 331.9 77.4001 331.4 78.5001C331 79.6001 330.5 83.2001 330.3 86.5001C329.9 91.6001 330.1 92.9001 332 95.2001C335.9 100.2 342.3 98.3001 348.6 90.3001C350.7 87.6001 352.6 85.2001 352.9 84.8001C353.3 84.4001 353.3 86.3001 353.2 89.0001C352.9 92.8001 353.2 94.2001 354.9 95.9001C358.4 99.4001 362.4 98.7001 367.4 93.5001L371.8 89.1001L372.3 92.0001C373.1 95.9001 376.8 98.2001 382.2 98.0001C384.6 97.9001 388 97.9001 389.9 97.9001C398.2 98.1001 405.2 92.5001 410.9 81.1001C414.3 74.5001 414.4 74.0001 413.1 74.0001C412.7 74.0001 410.2 77.5001 407.7 81.7001C402.3 91.0001 398.6 94.7001 394 95.6001L390.5 96.3001L393.6 92.9001C400.1 85.9001 400.5 81.6001 395.9 70.2001C391.6 59.4001 393.1 53.0001 400.1 53.0001C403.5 53.0001 404 51.5001 400.8 50.6001C397.6 49.8001 397.7 49.8001 393.9 52.3001ZM391 72.5001C392.1 82.8001 392.1 84.5001 390.6 88.5001C389.6 90.9001 388.3 93.4001 387.5 94.0001C385.5 95.6001 382.3 92.1001 381.4 87.3001C381 85.2001 380.4 83.0001 379.9 82.4001C379.4 81.7001 381.1 77.4001 384.3 71.2001C387.1 65.6001 389.6 61.0001 389.6 61.0001C389.7 61.0001 390.3 66.2001 391 72.5001ZM378 79.0001C377.4 80.1001 376.7 81.0001 376.4 81.0001C376.2 81.0001 376.4 80.1001 377 79.0001C377.6 77.9001 378.3 77.0001 378.6 77.0001C378.8 77.0001 378.6 77.9001 378 79.0001ZM380 89.8001C380 90.8001 380.9 92.6001 382 93.8001L384.1 96.0001H381.7C378.4 96.0001 376.6 93.6001 377.4 90.5001C378.1 87.6001 380 87.1001 380 89.8001Z" fill="black"/>
<path d="M1177.9 52.3001C1175.5 53.9001 1172.9 57.6001 1168.9 65.4001C1165.8 71.4001 1163 75.6001 1162.8 74.9001C1162.1 73.2001 1162.2 73.1001 1157.2 81.6001C1152.5 89.7001 1147.9 95.0001 1145.6 95.0001C1142.5 95.0001 1143.6 87.2001 1148.1 77.9001C1150.3 73.3001 1152.9 68.7001 1153.7 67.8001C1155.1 66.2001 1155.1 66.0001 1153.7 65.4001C1149.8 63.9001 1146.5 65.5001 1143.5 70.3001C1131.5 89.5001 1126.2 95.6001 1122.1 94.8001C1119.4 94.3001 1119.5 86.9001 1122.3 81.3001C1130.6 65.0001 1144.6 54.0001 1149.6 59.9001C1151.6 62.2001 1154.4 62.8001 1153.8 60.7001C1153.5 60.1001 1151.8 58.4001 1149.9 57.2001C1140.3 50.5001 1122.1 61.6001 1116 77.8001C1110.8 91.6001 1116.1 101.6 1126 96.5001C1128.4 95.3001 1130.6 92.9001 1136.9 84.8001C1137.3 84.4001 1137.3 86.3001 1137.2 89.0001C1136.9 92.8001 1137.2 94.2001 1138.9 95.9001C1142.4 99.4001 1146.4 98.7001 1151.4 93.5001L1155.8 89.1001L1156.3 92.0001C1157.1 95.9001 1160.8 98.2001 1166.2 98.0001C1168.6 97.9001 1172 97.9001 1173.9 97.9001C1182.2 98.1001 1189.2 92.5001 1194.9 81.1001C1198.3 74.5001 1198.4 74.0001 1197.1 74.0001C1196.7 74.0001 1194.2 77.5001 1191.7 81.7001C1186.3 91.0001 1182.6 94.7001 1178 95.6001L1174.5 96.3001L1177.6 92.9001C1184.1 85.9001 1184.5 81.6001 1179.9 70.2001C1175.6 59.4001 1177.1 53.0001 1184.1 53.0001C1187.5 53.0001 1188 51.5001 1184.8 50.6001C1181.6 49.8001 1181.7 49.8001 1177.9 52.3001ZM1175 72.5001C1176.1 82.8001 1176.1 84.5001 1174.6 88.5001C1173.6 90.9001 1172.3 93.4001 1171.5 94.0001C1169.5 95.6001 1166.3 92.1001 1165.4 87.3001C1165 85.2001 1164.4 83.0001 1163.9 82.4001C1163.4 81.7001 1165.1 77.4001 1168.3 71.2001C1171.1 65.6001 1173.6 61.0001 1173.6 61.0001C1173.7 61.0001 1174.3 66.2001 1175 72.5001ZM1162 79.0001C1161.4 80.1001 1160.7 81.0001 1160.4 81.0001C1160.2 81.0001 1160.4 80.1001 1161 79.0001C1161.6 77.9001 1162.3 77.0001 1162.6 77.0001C1162.8 77.0001 1162.6 77.9001 1162 79.0001ZM1164 89.8001C1164 90.8001 1164.9 92.6001 1166 93.8001L1168.1 96.0001H1165.7C1162.4 96.0001 1160.6 93.6001 1161.4 90.5001C1162.1 87.6001 1164 87.1001 1164 89.8001Z" fill="black"/>
<path d="M245.9 56.3996C233.3 60.8996 223 75.0996 223 87.8996C223 93.6996 225.8 97.9996 229.6 97.9996C234.6 97.9996 237.4 95.7996 245.9 84.7996C246.3 84.3996 246.3 86.2996 246.2 88.9996C245.9 92.7996 246.2 94.1996 247.9 95.8996C251.4 99.3996 255.4 98.5996 260.3 93.5996C264.1 89.6996 272 76.9996 272 74.8996C272 72.5996 270.2 74.6996 266.6 80.9996C262.1 88.9996 257 94.9996 254.6 94.9996C251.5 94.9996 252.6 87.1996 257.1 77.8996C259.3 73.2996 261.9 68.6996 262.7 67.7996C264.1 66.1996 264.1 65.9996 262.7 65.3996C258.8 63.8996 255.5 65.4996 252.5 70.2996C240.5 89.4996 235.2 95.5996 231.1 94.7996C228.4 94.2996 228.5 86.8996 231.3 81.2996C239.6 64.9996 253.6 53.9996 258.6 59.8996C260.6 62.1996 263.4 62.7996 262.8 60.6996C262 58.4996 255.8 54.9996 252.6 54.9996C250.9 55.0996 247.9 55.6996 245.9 56.3996Z" fill="black"/>
<path d="M1302.2 57.5982C1286.9 65.1982 1278.4 89.7982 1288.7 96.4982C1291.9 98.5982 1299.9 98.5982 1303.8 96.5982C1305.4 95.7982 1308.1 93.4982 1309.9 91.4982C1312.9 87.9982 1319 77.0982 1319 74.9982C1319 72.5982 1317.3 74.4982 1314.2 80.2982C1310.2 87.8982 1308.4 90.0982 1303.5 93.3982C1296.1 98.4982 1291 95.9982 1291 87.3982C1291 84.6982 1291.4 81.8982 1291.9 81.0982C1292.4 80.2982 1295.2 78.9982 1298.2 78.2982C1307.9 75.7982 1316 68.1982 1316 61.3982C1316 59.0982 1315.3 57.5982 1313.8 56.5982C1310.7 54.3982 1308.2 54.5982 1302.2 57.5982ZM1312.6 59.4982C1313.7 62.3982 1311.8 66.4982 1307.5 70.6982C1303.4 74.5982 1295.8 78.0982 1294.4 76.6982C1293.5 75.7982 1301.6 64.3982 1305.7 61.0982C1309.8 57.6982 1311.8 57.1982 1312.6 59.4982Z" fill="black"/>
<path d="M1445.4 56.0979C1439.7 57.6979 1432.7 63.2979 1428.3 69.7979C1425.9 73.2979 1424 75.5979 1424 74.9979C1424 72.7979 1422 75.0979 1418.9 80.9979C1417.2 84.1979 1414.2 88.7979 1412.3 90.9979C1409.3 94.3979 1408.2 95.0979 1405.6 94.7979C1402.8 94.4979 1402.5 94.1979 1402.6 90.9979C1402.6 88.9979 1405.4 81.3979 1408.8 73.5979C1412.2 65.9979 1414.7 59.3979 1414.4 58.8979C1414.1 58.3979 1411.9 57.9979 1409.5 57.9979C1405.8 57.9979 1405.3 58.2979 1405.7 59.7979C1406.2 61.8979 1402.5 71.9979 1400.6 73.4979C1400 73.9979 1397.9 77.1979 1396 80.3979C1389.8 91.2979 1384.3 95.9979 1377.7 95.9979C1367.2 95.9979 1368.2 79.3979 1379.6 65.3979C1383.7 60.2979 1389.4 57.2979 1391.6 58.9979C1393.5 60.6979 1393.4 62.8979 1391 66.7979C1388.5 70.7979 1388.5 70.9979 1390.9 70.9979C1393.5 70.9979 1397 66.3979 1397 62.8979C1397 53.1979 1381.3 53.7979 1373.1 63.6979C1368.8 68.7979 1365.2 76.3979 1363.8 82.9979C1361.8 92.8979 1366.4 98.3979 1376.7 98.1979C1383.7 98.0979 1388.6 95.3979 1393.2 89.0979C1396.5 84.4979 1397.1 83.9979 1396.6 86.3979C1395.7 89.9979 1397.6 95.6979 1400 96.9979C1406.2 100.298 1413.3 95.4979 1420.2 83.5979C1422.4 79.6979 1423.9 77.3979 1423.4 78.4979C1423 79.5979 1422.5 83.1979 1422.3 86.4979C1421.9 91.5979 1422.1 92.8979 1424 95.1979C1427.9 100.198 1434.3 98.2979 1440.6 90.2979C1442.7 87.5979 1444.6 85.1979 1444.9 84.7979C1445.3 84.3979 1445.3 86.2979 1445.2 88.9979C1444.9 92.7979 1445.2 94.1979 1446.9 95.8979C1450.4 99.3979 1454.4 98.5979 1459.3 93.5979C1463.1 89.6979 1471 76.9979 1471 74.8979C1471 72.5979 1469.2 74.6979 1465.6 80.9979C1461.1 88.9979 1456 94.9979 1453.6 94.9979C1450.5 94.9979 1451.6 87.1979 1456.1 77.8979C1458.3 73.2979 1460.9 68.6979 1461.7 67.7979C1463.1 66.1979 1463.1 65.9979 1461.7 65.3979C1457.8 63.8979 1454.5 65.4979 1451.5 70.2979C1439.5 89.4979 1434.2 95.5979 1430.1 94.7979C1427.4 94.2979 1427.5 86.8979 1430.3 81.2979C1438.6 64.9979 1452.6 53.9979 1457.6 59.8979C1459.6 62.1979 1462.4 62.7979 1461.8 60.6979C1461 58.4979 1454.8 54.9979 1451.6 55.0979C1449.9 55.0979 1447.1 55.5979 1445.4 56.0979Z" fill="black"/>
<path d="M286.8 57.9993C279.9 61.6993 273.1 72.3993 270.8 82.9993C268.7 92.9993 273.5 98.4993 284 98.1993C293.1 97.9993 298.9 93.1993 305.4 80.1993C306.9 77.1993 307.9 74.4993 307.6 74.1993C306.9 73.4993 307 73.3993 303 80.3993C296.9 91.2993 291.4 95.9993 284.7 95.9993C274.2 95.9993 275.2 79.3993 286.6 65.3993C290.7 60.2993 296.4 57.2993 298.6 58.9993C300.5 60.6993 300.4 62.8993 298 66.7993C295.5 70.7993 295.5 70.9993 297.9 70.9993C300.5 70.9993 304 66.3993 304 62.8993C304 56.2993 294.9 53.7993 286.8 57.9993Z" fill="black"/>
<path d="M472.1 59.2C469.8 61 466.3 64.9 464.3 67.8C462.3 70.6 460.5 72.9 460.4 72.7C460.2 72.5 460.5 70.8 461 68.9C461.6 67.1 462 63.6 462 61.2V56.9L457.3 57.2L452.6 57.5L452.9 62.7C453.1 66.7 452.5 69.4 450.6 73.6C448.6 78 448.4 79.1 449.6 78.6C450.8 78.1 451 78.5 450.5 80.3C448.2 87.6 434.9 114.7 428.3 125.3C426.9 127.5 426 129.3 426.2 129.5C426.4 129.6 428 130.1 429.8 130.5C432.6 131.1 433.4 130.8 435.8 128.2C437.3 126.5 441.1 118.6 444.4 110.5C449.2 98.6 450.6 96 451.9 96.6C455.2 98.1 460.3 98.2 464.8 96.9C475.2 94 486.5 77.7 486.5 65.7C486.5 60.7 486.1 59.5 484.1 57.9C480.7 55.1 477 55.5 472.1 59.2ZM479.8 60.2C481.9 62.3 481.1 66.5 477.4 74C471.5 85.7 459.4 96.7 453.9 95.3C451.2 94.6 451.4 93.7 456.6 84.6C468.6 63.8 475.8 56.2 479.8 60.2Z" fill="black"/>
<path d="M510.3 58.0985C496.8 64.7985 486.9 87.9985 494.5 95.4985C497.5 98.5985 502.1 98.7985 507.4 95.9985C510.9 94.2985 511.5 94.1985 513.4 95.4985C517.8 98.5985 524.6 96.6985 529.4 90.8985C532.2 87.5985 538 76.8985 538 74.9985C538 72.4985 536.3 74.4985 533.1 80.4985C527 92.2985 518.9 98.1985 515 93.4985C514 92.2985 514.5 91.2985 517.4 87.6985C525.9 77.3985 528.8 63.6985 523.5 58.4985C520.5 55.3985 516 55.2985 510.3 58.0985ZM522 61.4985C523.9 63.7985 522.6 72.7985 519.5 78.9985C517 83.7985 516.8 84.0985 515.1 82.5985C510.9 78.7985 507.4 81.7985 508.3 88.4985C508.9 92.2985 508.7 93.0985 506.9 93.9985C505.8 94.5985 503.7 94.9985 502.2 94.7985C499.6 94.4985 499.5 94.2985 499.5 88.4985C499.6 73.9985 516 54.2985 522 61.4985Z" fill="black"/>
<path d="M624.8 57.9993C617.9 61.6993 611.1 72.3993 608.8 82.9993C606.7 92.9993 611.5 98.4993 622 98.1993C629.2 98.0993 634.1 95.0993 638.9 87.8993L643 81.7993V87.3993C643 92.0993 643.4 93.4993 645.5 95.4993C648.5 98.5993 653.1 98.7993 658.4 95.9993C661.9 94.2993 662.5 94.1993 664.4 95.4993C668.8 98.5993 675.6 96.6993 680.4 90.8993C683.2 87.5993 689 76.8993 689 74.9993C689 72.4993 687.3 74.4993 684.1 80.4993C678 92.2993 669.9 98.1993 666 93.4993C665 92.2993 665.5 91.2993 668.4 87.6993C676.9 77.3993 679.8 63.6993 674.5 58.4993C670.1 53.9993 662.5 55.6993 654.7 62.8993C652.3 65.0993 649.5 68.4993 648.4 70.4993C647.4 72.3993 646.1 73.9993 645.5 73.9993C645 73.9993 643 76.6993 641.2 79.9993C635.1 91.0993 629.4 95.9993 622.7 95.9993C612.2 95.9993 613.2 79.3993 624.6 65.3993C628.7 60.2993 634.4 57.2993 636.6 58.9993C638.5 60.6993 638.4 62.8993 636 66.7993C633.5 70.7993 633.5 70.9993 635.9 70.9993C638.5 70.9993 642 66.3993 642 62.8993C642 56.2993 632.9 53.7993 624.8 57.9993ZM673 61.4993C674.9 63.7993 673.6 72.7993 670.5 78.9993C668 83.7993 667.8 84.0993 666.1 82.5993C661.9 78.7993 658.4 81.7993 659.3 88.4993C659.9 92.2993 659.7 93.0993 657.9 93.9993C656.8 94.5993 654.7 94.9993 653.2 94.7993C650.6 94.4993 650.5 94.2993 650.5 88.4993C650.6 73.9993 667 54.2993 673 61.4993Z" fill="black"/>
<path d="M1042.6 60.7976C1038.5 67.3976 1033.9 76.9976 1034.5 77.9976C1034.8 78.4976 1034.2 80.6976 1033 82.8976C1031 86.8976 1030.4 92.4976 1031.8 94.5976C1033.2 96.7976 1037.3 98.1976 1040.4 97.5976C1043.5 96.9976 1049.8 91.3976 1053.2 86.1976C1054.7 83.9976 1054.7 84.0976 1054.3 88.3976C1053.8 92.1976 1054.1 93.1976 1056.3 95.3976C1062.5 101.598 1070.3 96.1976 1078.4 80.1976C1079.9 77.1976 1080.9 74.4976 1080.6 74.1976C1079.9 73.4976 1080.2 72.9976 1075.2 81.5976C1070.7 89.2976 1064.8 95.2976 1062.2 94.7976C1060.9 94.4976 1060.5 93.2976 1060.6 89.7976C1060.6 86.2976 1062 82.3976 1066.4 73.2976C1069.6 66.7976 1073.1 60.4976 1074.3 59.1976L1076.5 56.8976L1071.5 57.1976L1066.5 57.4976L1063.1 63.9976C1056.5 76.8976 1050.5 86.5976 1046.6 90.6976C1040.3 97.6976 1035.3 95.6976 1038.1 87.1976C1040.2 80.6976 1048.8 64.2976 1052.1 60.5976L1055.2 56.9976H1050.1C1045.3 56.9976 1044.9 57.1976 1042.6 60.7976Z" fill="black"/>
<path d="M1327.6 63.2008C1324 68.9008 1310 96.4008 1310 97.8008C1310 98.3008 1311.7 98.4008 1313.7 98.1008C1317 97.6008 1317.8 96.7008 1321.7 90.2008C1327.1 80.9008 1332.2 74.7008 1337.9 70.4008C1346 64.2008 1347 66.2008 1341 76.7008C1334.6 87.7008 1334.3 95.0008 1340.2 97.4008C1344.6 99.3008 1348.8 97.9008 1353.2 92.9008C1357.9 87.7008 1364.3 76.5008 1363.8 74.2008C1363.5 73.0008 1362.7 73.9008 1361.1 77.0008C1354.2 90.2008 1346.8 97.8008 1344 94.5008C1342 92.1008 1343.6 86.8008 1350.8 72.7008C1354.5 65.4008 1357.7 59.1008 1357.8 58.7008C1358.5 57.3008 1352.7 59.2008 1346.5 62.4008C1343.2 64.1008 1337.2 68.6008 1333.1 72.5008L1325.7 79.5008L1328.5 74.5008C1330.1 71.7008 1333.1 66.9008 1335.2 63.7008L1339 58.0008H1335C1331.2 58.0008 1330.8 58.3008 1327.6 63.2008Z" fill="black"/>
<path d="M1470.7 91.8C1467.3 95.5 1470.1 101.1 1474.4 99.4C1475.4 99 1476 99.3 1476 100.2C1476 102.5 1473 105.9 1469.2 108C1467.2 109 1466.2 109.9 1467 110C1469.5 110 1476.6 105 1478.4 102C1480.2 98.8 1480.5 94.8 1479 91.9C1477.6 89.4 1472.9 89.4 1470.7 91.8Z" fill="black"/>
<path d="M624 169.699C621.2 172.399 608.2 196.799 599.1 216.699C596.8 221.799 594.3 225.999 593.6 225.999C592.9 225.999 591.3 227.099 590 228.499C588.1 230.499 587.8 231.599 588.3 235.299C588.8 238.899 588.3 241.199 585.5 247.799C580.5 259.699 577 271.499 577 276.499C577 280.099 577.5 281.299 579.5 282.599C589.6 289.199 604 268.899 604 248.099C604 242.599 604.2 241.999 606 241.999C609.5 241.999 616.6 234.399 621 225.999C625.7 216.899 624.8 214.999 619.9 223.699C615.4 231.799 611.3 236.799 607.8 238.599C606.2 239.499 604.7 239.999 604.6 239.799C604.5 239.599 603.4 236.999 602.2 233.999L599.9 228.499L606.9 214.499C615.2 197.899 624.6 181.699 630.6 173.699C633 170.599 635 167.799 635 167.499C635 167.199 633.2 166.999 631 166.999C628.1 166.999 626.3 167.699 624 169.699ZM601 238.199C601 239.299 600.3 239.999 599.1 239.999C596.4 239.999 595.8 238.699 597.1 235.299C598.1 232.599 598.2 232.599 599.6 234.399C600.4 235.499 601 237.199 601 238.199ZM599.6 242.599C601.9 243.199 602 243.499 601.4 248.399C599.8 260.899 593 276.099 587.3 279.699C585.4 280.999 585 280.899 584.1 279.199C582.7 276.599 584.8 267.499 590 252.699C593.2 243.699 594.6 240.999 595.7 241.399C596.5 241.799 598.3 242.299 599.6 242.599Z" fill="black"/>
<path d="M685.4 168.898C681.6 171.198 677.6 177.398 670.6 191.998C663.9 205.998 658 223.398 657.3 231.098C656.8 236.298 657 237.098 659.3 239.398C664.4 244.398 673.6 242.098 679.6 234.198C683.6 228.898 688.4 219.098 687.4 218.198C687 217.798 686.5 217.998 686.3 218.698C684.7 223.098 675 236.698 672.3 238.298C664.2 242.998 661.1 234.498 666 221.398C666.6 219.798 669.5 215.998 672.5 212.898C681.4 203.598 693 183.798 694.6 175.198C696 167.898 691.8 164.998 685.4 168.898ZM691.7 175.498C690.5 182.698 679.7 201.498 671.6 210.498L668 214.498L672.5 204.198C678.6 190.198 683.2 181.298 686.9 176.198C690.7 170.998 692.5 170.698 691.7 175.498Z" fill="black"/>
<path d="M904.3 168.199C903.9 168.799 899.9 176.299 895.5 184.899C888.8 197.899 887.2 200.399 885.5 200.199C873.8 198.299 865.4 201.799 858.5 211.499C853.2 218.899 849.5 229.399 850.4 234.399C851.3 239.299 855.4 242.399 860 241.599C862.6 241.199 864.9 239.599 868.8 235.499L874 229.899V233.299C874 237.699 877.3 241.999 880.6 241.999C886.1 241.999 890.7 238.099 896.3 228.799L899.7 223.099L899.2 228.099C898.3 237.299 902.4 242.199 911 242.199C916.9 242.099 920.7 240.299 924.9 235.499C927.9 231.999 934 221.099 934 218.999C934 216.599 932.3 218.499 929.2 224.299C925.2 231.899 923.4 234.099 918.5 237.399C911.1 242.499 906 239.999 906 231.399C906 228.699 906.4 225.899 906.9 225.099C907.4 224.299 910.2 222.999 913.2 222.299C926.6 218.899 936.1 205.399 928.5 200.399C923 196.799 912.2 202.499 905.4 212.599C903.2 215.899 900.9 218.499 900.3 218.299C899.7 218.099 898.9 218.799 898.5 219.899C897.2 223.899 888.3 236.499 885.7 237.899C882.6 239.499 880 238.099 880 234.799C880 229.599 894 201.099 908.1 177.799C911.4 172.399 914 167.799 914 167.499C914 166.499 905.1 166.999 904.3 168.199ZM884.4 202.599C885.8 203.099 885.5 204.199 882.4 209.899C869.5 232.999 860.4 242.299 856.9 235.899C854.5 231.399 861 218.199 869.7 209.899C877.5 202.399 880.3 200.999 884.4 202.599ZM927.6 203.499C928.7 206.399 926.8 210.499 922.5 214.699C918.4 218.599 910.8 222.099 909.4 220.699C908.5 219.799 916.6 208.399 920.7 205.099C924.8 201.699 926.8 201.199 927.6 203.499Z" fill="black"/>
<path d="M1021.3 168.198C1020.9 168.798 1016.9 176.298 1012.5 184.898C1005.8 197.898 1004.2 200.398 1002.5 200.198C990.8 198.298 982.4 201.798 975.5 211.498C970.2 218.898 966.5 229.398 967.4 234.398C968.3 239.298 972.4 242.398 977 241.598C979.6 241.198 981.9 239.598 985.8 235.498L991 229.898V233.298C991 235.298 991.9 237.898 993.1 239.398C998.3 245.998 1008 239.698 1015.6 224.798C1016.9 222.198 1018 219.598 1018 218.998C1018 217.198 1016.2 217.898 1015.5 219.998C1014.2 223.998 1005.3 236.498 1002.7 237.898C999.6 239.498 997 238.098 997 234.798C997 229.598 1011 201.098 1025.1 177.798C1028.4 172.398 1031 167.798 1031 167.498C1031 166.498 1022.1 166.998 1021.3 168.198ZM1001.4 202.598C1002.8 203.098 1002.5 204.198 999.4 209.898C986.5 232.998 977.4 242.298 973.9 235.898C971.5 231.398 978 218.198 986.7 209.898C994.5 202.398 997.3 200.998 1001.4 202.598Z" fill="black"/>
<path d="M1106 169.699C1103.2 172.399 1090.2 196.799 1081.1 216.799C1078.8 221.999 1076.6 225.999 1076.3 225.699C1076.1 225.399 1076.6 223.799 1077.4 222.099C1079.2 218.699 1079.3 217.999 1078.1 217.999C1077.7 217.999 1075.2 221.499 1072.7 225.699C1067.3 234.999 1063.6 238.699 1059 239.599L1055.5 240.299L1058.6 236.899C1065.1 229.899 1065.5 225.599 1060.9 214.199C1056.6 203.399 1058.1 196.999 1065.1 196.999C1068.7 196.999 1068.9 195.399 1065.5 194.599C1062.3 193.799 1057.8 196.099 1055.2 199.699C1054.1 201.299 1050.7 207.599 1047.6 213.899C1044.4 220.099 1041.6 224.999 1041.4 224.699C1041.1 224.399 1041.3 223.299 1041.9 222.199C1042.5 220.999 1043 219.599 1043 218.999C1043 216.799 1041 219.099 1037.9 224.999C1036.2 228.199 1033.2 232.799 1031.3 234.999C1028.3 238.399 1027.2 239.099 1024.6 238.799C1021.8 238.499 1021.5 238.199 1021.6 234.999C1021.6 232.999 1024.4 225.399 1027.8 217.599C1031.2 209.999 1033.7 203.399 1033.4 202.899C1033.1 202.399 1030.9 201.999 1028.5 201.999C1024.8 201.999 1024.3 202.299 1024.7 203.799C1024.9 204.799 1023.2 210.299 1020.9 216.099C1015.1 230.599 1014.7 232.499 1016 236.599C1017.3 240.499 1019.5 241.999 1024.1 241.999C1026.6 241.999 1028.4 240.899 1032.1 237.099C1036.6 232.699 1037 232.499 1037 234.699C1037 239.299 1043.3 243.299 1048.5 241.999C1049.1 241.899 1051.7 241.799 1054.3 241.799C1060.2 241.899 1063.6 240.699 1067.2 237.299C1069.8 234.799 1069.8 234.799 1070.5 236.899C1070.9 238.299 1069.8 242.399 1067.2 248.799C1058.5 269.899 1056.9 279.599 1061.5 282.599C1071.6 289.199 1086 268.899 1086 248.099C1086 242.599 1086.2 241.999 1088 241.999C1091.5 241.999 1098.6 234.399 1103 225.999C1107.7 216.899 1106.8 214.999 1101.9 223.699C1097.4 231.799 1093.3 236.799 1089.8 238.599C1088.2 239.499 1086.7 239.999 1086.6 239.799C1086.5 239.599 1085.4 236.999 1084.2 233.999L1081.9 228.499L1088.9 214.499C1097.2 197.899 1106.6 181.699 1112.6 173.699C1115 170.599 1117 167.799 1117 167.499C1117 167.199 1115.2 166.999 1113 166.999C1110.1 166.999 1108.3 167.699 1106 169.699ZM1056 216.499C1057.1 226.799 1057.1 228.499 1055.6 232.499C1054.6 234.899 1053.3 237.399 1052.5 237.999C1050.5 239.599 1047.3 236.099 1046.4 231.299C1046 229.199 1045.4 226.999 1044.9 226.399C1044.4 225.699 1046.1 221.399 1049.3 215.199C1052.1 209.599 1054.6 204.999 1054.6 204.999C1054.7 204.999 1055.3 210.199 1056 216.499ZM1045 233.799C1045 234.799 1045.9 236.599 1047 237.799L1049.1 239.999H1046.7C1043.4 239.999 1041.6 237.599 1042.4 234.499C1043.1 231.599 1045 231.099 1045 233.799ZM1083 238.199C1083 239.299 1082.3 239.999 1081.1 239.999C1078.4 239.999 1077.8 238.699 1079.1 235.299C1080.1 232.599 1080.2 232.599 1081.6 234.399C1082.4 235.499 1083 237.199 1083 238.199ZM1081.6 242.599C1083.9 243.199 1084 243.499 1083.4 248.399C1081.8 260.899 1075 276.099 1069.3 279.699C1067.4 280.999 1067 280.899 1066.1 279.199C1064.7 276.599 1066.8 267.499 1072 252.699C1075.2 243.699 1076.6 240.999 1077.7 241.399C1078.5 241.799 1080.3 242.299 1081.6 242.599Z" fill="black"/>
<path d="M1524.3 168.2C1523.9 168.8 1519.9 176.3 1515.5 184.9C1508.8 197.9 1507.2 200.4 1505.5 200.2C1493.8 198.3 1485.4 201.8 1478.5 211.5C1473.2 218.9 1469.5 229.4 1470.4 234.4C1471.3 239.3 1475.4 242.4 1480 241.6C1482.6 241.2 1484.9 239.6 1488.8 235.5L1494 229.9V233.3C1494 237.8 1497.3 242 1500.8 242C1504.5 242 1509.2 238.9 1512.6 234.3C1514.1 232.2 1515.7 230.1 1516 229.7C1516.4 229.3 1516.5 230.2 1516.2 231.8C1515.7 235.5 1518.3 240.6 1521.1 241.5C1527.5 243.6 1534.5 238.3 1540.5 226.9C1545.7 217 1544.3 216.1 1538.7 225.7C1533.4 235 1529 239.2 1525.1 238.8C1522.8 238.5 1522.5 238.1 1522.7 234.8C1523 229.2 1535.4 205.7 1539.8 202.2C1541.3 201.1 1540.8 200.9 1536.5 201.2L1531.5 201.5L1526.5 210.7C1523.8 215.8 1521.4 219.5 1521.2 219C1520.6 217.4 1519.2 217.9 1518.5 220C1517.2 224 1508.3 236.5 1505.7 237.9C1502.6 239.5 1500 238.1 1500 234.8C1500 229.6 1514 201.1 1528.1 177.8C1531.4 172.4 1534 167.8 1534 167.5C1534 166.5 1525.1 167 1524.3 168.2ZM1504.4 202.6C1505.8 203.1 1505.5 204.2 1502.4 209.9C1489.5 233 1480.4 242.3 1476.9 235.9C1474.5 231.4 1481 218.2 1489.7 209.9C1497.5 202.4 1500.3 201 1504.4 202.6Z" fill="black"/>
<path d="M95.6002 171.899C92.5002 173.999 87.7002 180.799 82.9002 190.199C80.1002 195.799 79.8002 195.999 76.0002 195.999C73.1002 195.999 72.0002 196.399 72.0002 197.499C72.0002 198.499 73.0002 198.999 75.4002 198.999H78.8002L75.4002 207.699C73.5002 212.399 72.0002 216.899 72.0002 217.599C72.0002 218.399 71.4002 218.699 70.7002 218.399C69.8002 218.099 67.7002 220.699 64.8002 225.699C59.3002 234.999 55.6002 238.699 51.0002 239.599L47.5002 240.299L50.6002 236.899C57.1002 229.899 57.5002 225.599 52.9002 214.199C48.6002 203.399 50.1002 196.999 57.1002 196.999C60.7002 196.999 60.9002 195.399 57.5002 194.599C54.8002 193.899 50.3002 195.799 48.0002 198.499C47.2002 199.499 44.2002 204.799 41.3002 210.399C38.4002 215.899 36.1002 219.899 36.0002 219.199C36.0002 216.599 34.4002 218.199 31.2002 224.299C27.2002 231.899 25.4002 234.099 20.5002 237.399C13.1002 242.499 8.00023 239.999 8.00023 231.399C8.00023 228.699 8.40023 225.899 8.90023 225.099C9.40023 224.299 12.2002 222.999 15.2002 222.299C28.6002 218.899 38.1002 205.399 30.5002 200.399C23.1002 195.599 8.50022 206.499 3.00023 220.799C-1.89977 233.599 2.20023 242.199 13.1002 242.199C18.6002 242.099 21.2002 240.999 25.6002 236.799L28.7002 233.899L29.4002 236.399C30.3002 239.999 34.0002 242.099 39.2002 241.999C41.6002 241.899 45.0002 241.899 46.9002 241.899C55.1002 242.099 61.3002 237.299 67.6002 225.999C69.6002 222.399 70.9002 220.299 70.6002 221.199C69.5002 224.799 68.8002 232.999 69.4002 235.399C70.3002 238.999 73.9002 241.999 77.2002 241.999C83.4002 241.999 88.9002 237.199 94.6002 226.899C96.6002 223.399 97.8002 221.399 97.4002 222.499C97.0002 223.599 96.5002 227.199 96.3002 230.499C95.9002 235.599 96.1002 236.899 98.0002 239.199C101.9 244.199 108.3 242.299 114.6 234.299C116.7 231.599 118.6 229.199 118.9 228.799C119.3 228.399 119.3 230.299 119.2 232.999C118.9 236.799 119.2 238.199 120.9 239.899C124.4 243.399 128.4 242.599 133.3 237.599C137.1 233.699 145 220.999 145 218.899C145 216.599 143.2 218.699 139.6 224.999C135.1 232.999 130 238.999 127.6 238.999C124.5 238.999 125.6 231.199 130.1 221.899C132.3 217.299 134.9 212.699 135.7 211.799C137.1 210.199 137.1 209.999 135.7 209.399C131.8 207.899 128.5 209.499 125.5 214.299C113.5 233.499 108.2 239.599 104.1 238.799C101.4 238.299 101.5 230.899 104.3 225.299C112.6 208.999 126.6 197.999 131.6 203.899C133.6 206.199 136.4 206.799 135.8 204.699C135.5 204.099 133.8 202.399 131.9 201.199C124.7 196.199 111.9 201.099 104 211.799C101.5 215.099 99.0002 217.899 98.3002 217.899C97.7002 217.999 95.6002 220.799 93.6002 224.199C87.7002 234.599 82.0002 239.799 78.2002 238.499C75.3002 237.599 74.9002 234.599 76.7002 226.599C78.1002 220.399 78.9002 218.799 83.4002 213.999C86.3002 210.999 90.1002 206.399 91.9002 203.699C94.8002 199.399 95.5002 198.999 99.0002 198.999C101.9 198.999 103 198.599 103 197.499C103 196.499 102 195.999 100 195.999C98.4002 195.999 97.0002 195.799 97.0002 195.499C97.0002 195.199 98.5002 191.899 100.4 188.199C102.3 184.399 104.1 179.799 104.5 177.799C105.8 170.699 101.6 167.999 95.6002 171.899ZM101.1 180.199C100.3 182.599 98.5002 187.099 96.9002 190.199C94.3002 195.299 93.6002 195.999 91.0002 195.999C89.3002 195.999 88.0002 195.799 88.0002 195.499C88.0002 194.199 95.4002 180.199 97.7002 177.199C101.1 172.699 102.8 174.199 101.1 180.199ZM89.1002 203.199C87.5002 205.599 84.8002 209.099 83.1002 210.999L80.0002 214.499L83.1002 206.699C86.0002 199.599 86.5002 198.999 89.2002 198.999H92.1002L89.1002 203.199ZM29.6002 203.499C30.7002 206.399 28.8002 210.499 24.5002 214.699C20.4002 218.599 12.8002 222.099 11.4002 220.699C10.5002 219.799 18.6002 208.399 22.7002 205.099C26.8002 201.699 28.8002 201.199 29.6002 203.499ZM48.0002 216.499C49.1002 226.799 49.1002 228.499 47.6002 232.499C46.6002 234.899 45.3002 237.399 44.5002 237.999C42.5002 239.599 39.3002 236.099 38.4002 231.299C38.0002 229.199 37.4002 226.999 36.9002 226.399C36.4002 225.699 38.1002 221.399 41.3002 215.199C44.1002 209.599 46.6002 204.999 46.6002 204.999C46.7002 204.999 47.3002 210.199 48.0002 216.499ZM37.0002 233.799C37.0002 234.799 37.9002 236.599 39.0002 237.799L41.1002 239.999H38.7002C35.4002 239.999 33.6002 237.599 34.4002 234.499C35.1002 231.599 37.0002 231.099 37.0002 233.799Z" fill="black"/>
<path d="M1214.6 171.901C1211.5 174.001 1206.7 180.801 1201.9 190.201C1199.1 195.801 1198.8 196.001 1195 196.001C1192.1 196.001 1191 196.401 1191 197.501C1191 198.501 1192 199.001 1194.4 199.001H1197.8L1194.5 207.401C1190.7 217.101 1188 227.201 1188 231.901C1188 237.801 1191.4 241.901 1196.3 242.001C1202.3 242.001 1207.9 237.201 1213.6 226.901C1215.6 223.401 1216.8 221.401 1216.4 222.501C1216 223.601 1215.5 227.201 1215.3 230.501C1214.9 235.601 1215.1 236.901 1217 239.201C1220.9 244.201 1227.3 242.301 1233.6 234.301C1235.7 231.601 1237.6 229.201 1237.9 228.801C1238.3 228.401 1238.3 230.301 1238.2 233.001C1237.9 236.801 1238.2 238.201 1239.9 239.901C1243.5 243.501 1247.4 242.701 1252.8 237.201C1255.4 234.601 1256.9 233.301 1256.2 234.201C1255.4 235.201 1255 236.501 1255.2 237.201C1255.9 239.301 1263.8 227.101 1268.2 216.901C1271.1 210.201 1273 207.001 1274.1 207.001C1277.2 207.001 1282 209.201 1282 210.601C1282 211.401 1280 215.701 1277.6 220.301C1272.2 230.401 1271.6 233.001 1273.4 237.501C1276 243.801 1283.4 243.101 1288.9 236.101C1292.3 231.801 1297.5 223.101 1298.5 220.201C1299.9 215.701 1297.4 218.301 1294.1 224.701C1290.2 232.101 1283.8 239.401 1281.8 238.801C1278.9 237.801 1280.6 230.401 1286.3 218.401C1289.4 211.801 1292 205.901 1292 205.201C1292 204.401 1289.5 204.001 1283.4 204.001H1274.7L1277.3 202.001C1278.7 200.901 1280.4 198.401 1281 196.401C1282 193.501 1281.9 192.501 1280.6 190.501C1277.3 185.501 1275 187.501 1272.6 197.001C1270.1 206.901 1264.8 220.301 1263.9 218.801C1263 217.301 1263.4 216.801 1258.2 225.601C1253.5 233.701 1248.9 239.001 1246.6 239.001C1243.5 239.001 1244.6 231.201 1249.1 221.901C1251.3 217.301 1253.9 212.701 1254.7 211.801C1256.1 210.201 1256.1 210.001 1254.7 209.401C1250.8 207.901 1247.5 209.501 1244.5 214.301C1232.5 233.501 1227.2 239.601 1223.1 238.801C1220.4 238.301 1220.5 230.901 1223.3 225.301C1231.6 209.001 1245.6 198.001 1250.6 203.901C1252.6 206.201 1255.4 206.801 1254.8 204.701C1254.5 204.101 1252.8 202.401 1250.9 201.201C1243.7 196.201 1230.9 201.101 1223 211.801C1220.5 215.101 1218 217.901 1217.3 217.901C1216.7 218.001 1214.6 220.801 1212.6 224.201C1206.7 234.601 1201 239.801 1197.2 238.501C1194.3 237.601 1193.9 234.601 1195.7 226.601C1197.1 220.401 1197.9 218.801 1202.4 214.001C1205.3 211.001 1209.1 206.401 1210.9 203.701C1213.8 199.401 1214.5 199.001 1218 199.001C1220.9 199.001 1222 198.601 1222 197.501C1222 196.501 1221 196.001 1219 196.001C1217.4 196.001 1216 195.801 1216 195.501C1216 195.201 1217.5 191.901 1219.4 188.201C1221.3 184.401 1223.1 179.801 1223.5 177.801C1224.8 170.701 1220.6 168.001 1214.6 171.901ZM1220.1 180.201C1219.3 182.601 1217.5 187.101 1215.9 190.201C1213.3 195.301 1212.6 196.001 1210 196.001C1208.3 196.001 1207 195.801 1207 195.501C1207 194.201 1214.4 180.201 1216.7 177.201C1220.1 172.701 1221.8 174.201 1220.1 180.201ZM1208.1 203.201C1206.5 205.601 1203.8 209.101 1202.1 211.001L1199 214.501L1202.1 206.701C1205 199.601 1205.5 199.001 1208.2 199.001H1211.1L1208.1 203.201ZM1262.5 224.001C1261.6 225.601 1260.7 227.001 1260.4 227.001C1260.2 227.001 1260.6 225.601 1261.5 224.001C1262.4 222.301 1263.3 221.001 1263.6 221.001C1263.8 221.001 1263.4 222.301 1262.5 224.001Z" fill="black"/>
<path d="M1547 184.001C1533.2 193.601 1535.4 194.601 1552.7 186.501C1560 183.101 1562.1 181.701 1561.8 180.301C1561.6 179.101 1560.4 178.401 1558.5 178.301C1556.2 178.101 1553.4 179.501 1547 184.001Z" fill="black"/>
<path d="M699.7 188.8C697.6 191.1 697.5 194.4 699.6 196C703.4 199.2 710.2 192.4 707 188.6C705.3 186.5 701.7 186.6 699.7 188.8Z" fill="black"/>
<path d="M1030.7 188.8C1028.6 191.1 1028.5 194.4 1030.6 196C1034.4 199.2 1041.2 192.4 1038 188.6C1036.3 186.5 1032.7 186.6 1030.7 188.8Z" fill="black"/>
<path d="M157.2 189.199C156.7 189.899 155.3 194.199 154.1 198.699C151.5 208.799 145.7 222.499 140.7 230.299C138.6 233.599 137.1 236.699 137.3 237.299C137.9 239.299 145.9 226.799 150.2 216.899C153.1 210.199 155 206.999 156.1 206.999C159.2 206.999 164 209.199 164 210.599C164 211.399 162 215.699 159.6 220.299C157.2 224.799 154.9 229.699 154.6 231.199C153.7 235.299 156.3 240.799 159.6 241.599C165 242.999 170.8 237.699 178.6 224.399C179.5 222.899 179.6 223.599 179.2 227.699C178.3 237.299 182.3 242.199 191 242.199C196.9 242.099 200.7 240.299 204.9 235.499C207.9 231.999 214 221.099 214 218.999C214 216.599 212.3 218.499 209.2 224.299C205.2 231.899 203.4 234.099 198.5 237.399C191.1 242.499 186 239.999 186 231.399C186 228.699 186.4 225.899 186.9 225.099C187.4 224.299 190.2 222.999 193.2 222.299C206.6 218.899 216.1 205.399 208.5 200.399C203 196.799 192.2 202.499 185.4 212.599C183.2 215.899 181 218.499 180.4 218.299C179.9 218.099 178 220.999 176.1 224.699C172.2 232.099 165.8 239.399 163.8 238.799C160.9 237.799 162.6 230.399 168.3 218.399C171.4 211.799 174 205.899 174 205.199C174 204.399 171.5 203.999 165.4 203.999H156.7L159.3 201.999C160.7 200.899 162.4 198.399 163 196.399C164 193.499 163.9 192.499 162.6 190.499C160.8 187.799 158.8 187.299 157.2 189.199ZM207.6 203.499C208.7 206.399 206.8 210.499 202.5 214.699C198.4 218.599 190.8 222.099 189.4 220.699C188.5 219.799 196.6 208.399 200.7 205.099C204.8 201.699 206.8 201.199 207.6 203.499Z" fill="black"/>
<path d="M1118.2 189.198C1117.7 189.898 1116.3 194.198 1115.1 198.698C1112.5 208.798 1106.7 222.498 1101.7 230.298C1099.6 233.598 1098.1 236.698 1098.3 237.298C1098.9 239.298 1106.9 226.798 1111.2 216.898C1114.1 210.198 1116 206.998 1117.1 206.998C1120.2 206.998 1125 209.198 1125 210.598C1125 211.398 1123 215.698 1120.6 220.298C1115.2 230.398 1114.6 232.998 1116.4 237.498C1119 243.798 1126.4 243.098 1131.9 236.098C1135.3 231.798 1140.5 223.098 1141.5 220.198C1142.9 215.698 1140.4 218.298 1137.1 224.698C1133.2 232.098 1126.8 239.398 1124.8 238.798C1121.9 237.798 1123.6 230.398 1129.3 218.398C1132.4 211.798 1135 205.898 1135 205.198C1135 204.398 1132.5 203.998 1126.4 203.998H1117.7L1120.3 201.998C1121.7 200.898 1123.4 198.398 1124 196.398C1125 193.498 1124.9 192.498 1123.6 190.498C1121.8 187.798 1119.8 187.298 1118.2 189.198Z" fill="black"/>
<path d="M340.9 196.3C338.4 198 335.8 201.8 331 211.2C325 222.8 321.5 228.5 323.5 223.5C326.5 215.6 324.4 216.2 320.1 224.5C314 236.3 305.9 242.2 302 237.5C301 236.3 301.5 235.3 304.4 231.7C312.9 221.4 315.8 207.7 310.5 202.5C301.1 193 279 213.2 279 231.3C279 236.1 279.4 237.5 281.5 239.5C284.5 242.6 289.1 242.8 294.4 240C297.9 238.3 298.5 238.2 300.4 239.5C304.6 242.5 309.9 241.2 315.6 235.8L318.7 232.9L319.3 235.9C320.1 239.9 323.8 242.2 329.2 242C331.6 241.9 335 241.9 336.9 241.9C345.2 242.1 352.2 236.5 357.9 225.1C361.3 218.5 361.4 218 360.1 218C359.7 218 357.2 221.5 354.7 225.7C349.3 235 345.6 238.7 341 239.6L337.5 240.3L340.6 236.9C347.1 229.9 347.5 225.6 342.9 214.2C338.6 203.4 340.1 197 347.1 197C350.5 197 351 195.5 347.8 194.6C344.6 193.8 344.7 193.8 340.9 196.3ZM309 205.5C310.9 207.8 309.6 216.8 306.5 223C304 227.8 303.8 228.1 302.1 226.6C297.9 222.8 294.4 225.8 295.3 232.5C295.9 236.3 295.7 237.1 293.9 238C292.8 238.6 290.7 239 289.2 238.8C286.6 238.5 286.5 238.3 286.5 232.5C286.6 218 303 198.3 309 205.5ZM338 216.5C339.1 226.8 339.1 228.5 337.6 232.5C336.6 234.9 335.3 237.4 334.5 238C332.5 239.6 329.3 236.1 328.4 231.3C328 229.2 327.4 227 326.9 226.4C326.4 225.7 328.1 221.4 331.3 215.2C334.1 209.6 336.6 205 336.6 205C336.7 205 337.3 210.2 338 216.5ZM327 233.8C327 234.8 327.9 236.6 329 237.8L331.1 240H328.7C325.4 240 323.6 237.6 324.4 234.5C325.1 231.6 327 231.1 327 233.8Z" fill="black"/>
<path d="M796.9 196.3C794.5 197.9 791.9 201.7 787.8 209.5C784.6 215.6 782 219.9 782 219.2C782 216.6 780.4 218.3 777.2 224.3C773.2 231.9 771.4 234.1 766.5 237.4C759.1 242.5 754 240 754 231.4C754 228.7 754.4 225.9 754.9 225.1C755.4 224.3 758.2 223 761.2 222.3C774.6 218.9 784.1 205.4 776.5 200.4C771 196.8 760.2 202.5 753.4 212.6C751.2 215.9 749 218.5 748.4 218.3C747.9 218.2 746 220.7 744.2 224C738.1 235.1 732.4 240 725.7 240C715.2 240 716.2 223.4 727.6 209.4C731.7 204.3 737.4 201.3 739.6 203C741.5 204.7 741.4 206.9 739 210.8C736.5 214.8 736.5 215 738.9 215C741.5 215 745 210.4 745 206.9C745 202.5 741.9 200 736.5 200C728 200 720.8 205.6 715.5 216.5C707.5 232.6 711.2 242.5 725 242.2C734 242 738.7 238.3 745.8 225.5C747.7 222.2 748.8 220.4 748.5 221.5C747 225.6 746.8 233 748 235.9C749.7 240.2 753.4 242.2 759.1 242.2C764.6 242.1 767.2 241 771.6 236.8L774.7 233.9L775.4 236.4C776.3 240 780 242.1 785.2 242C787.6 241.9 791 241.9 792.9 241.9C801.2 242.1 808.2 236.5 813.9 225.1C817.3 218.5 817.4 218 816.1 218C815.7 218 813.2 221.5 810.7 225.7C805.3 235 801.6 238.7 797 239.6L793.5 240.3L796.6 236.9C803.1 229.9 803.5 225.6 798.9 214.2C794.6 203.4 796.1 197 803.1 197C806.5 197 807 195.5 803.8 194.6C800.6 193.8 800.7 193.8 796.9 196.3ZM775.6 203.5C776.7 206.4 774.8 210.5 770.5 214.7C766.4 218.6 758.8 222.1 757.4 220.7C756.5 219.8 764.6 208.4 768.7 205.1C772.8 201.7 774.8 201.2 775.6 203.5ZM794 216.5C795.1 226.8 795.1 228.5 793.6 232.5C792.6 234.9 791.3 237.4 790.5 238C788.5 239.6 785.3 236.1 784.4 231.3C784 229.2 783.4 227 782.9 226.4C782.4 225.7 784.1 221.4 787.3 215.2C790.1 209.6 792.6 205 792.6 205C792.7 205 793.3 210.2 794 216.5ZM783 233.8C783 234.8 783.9 236.6 785 237.8L787.1 240H784.7C781.4 240 779.6 237.6 780.4 234.5C781.1 231.6 783 231.1 783 233.8Z" fill="black"/>
<path d="M1383.9 196.299C1381.4 197.999 1378.8 201.799 1374 211.199C1368 222.799 1364.5 228.499 1366.5 223.499C1369.5 215.699 1367.4 216.199 1363.2 224.299C1359.2 231.899 1357.4 234.099 1352.5 237.399C1345.1 242.499 1340 239.999 1340 231.399C1340 228.699 1340.4 225.899 1340.9 225.099C1341.4 224.299 1344.2 222.999 1347.2 222.299C1360.6 218.899 1370.1 205.399 1362.5 200.399C1355.1 195.599 1340.5 206.499 1335 220.799C1330.1 233.599 1334.2 242.199 1345.1 242.199C1350.7 242.099 1353.2 240.999 1358.1 236.299L1361.7 232.899L1362.3 235.899C1363.1 239.899 1366.8 242.199 1372.2 241.999C1374.6 241.899 1378 241.899 1379.9 241.899C1388.1 242.099 1394.3 237.299 1400.6 225.999C1402.6 222.399 1403.8 220.399 1403.5 221.499C1402 225.599 1401.8 232.999 1403 235.899C1404.7 240.099 1408.4 242.199 1414 242.199C1419.9 242.099 1423.7 240.299 1427.9 235.499C1430.9 231.999 1437 221.099 1437 218.999C1437 216.599 1435.3 218.499 1432.2 224.299C1428.2 231.899 1426.4 234.099 1421.5 237.399C1414.1 242.499 1409 239.999 1409 231.399C1409 228.699 1409.4 225.899 1409.9 225.099C1410.4 224.299 1413.2 222.999 1416.2 222.299C1429.6 218.899 1439.1 205.399 1431.5 200.399C1426 196.799 1415.2 202.499 1408.4 212.599C1406.2 215.899 1403.9 218.499 1403.3 218.299C1402.8 218.099 1400.3 221.399 1397.8 225.699C1392.3 234.999 1388.6 238.699 1384 239.599L1380.5 240.299L1383.6 236.899C1390.1 229.899 1390.5 225.599 1385.9 214.199C1381.6 203.399 1383.1 196.999 1390.1 196.999C1393.5 196.999 1394 195.499 1390.8 194.599C1387.6 193.799 1387.7 193.799 1383.9 196.299ZM1361.6 203.499C1362.7 206.399 1360.8 210.499 1356.5 214.699C1352.4 218.599 1344.8 222.099 1343.4 220.699C1342.5 219.799 1350.6 208.399 1354.7 205.099C1358.8 201.699 1360.8 201.199 1361.6 203.499ZM1430.6 203.499C1431.7 206.399 1429.8 210.499 1425.5 214.699C1421.4 218.599 1413.8 222.099 1412.4 220.699C1411.5 219.799 1419.6 208.399 1423.7 205.099C1427.8 201.699 1429.8 201.199 1430.6 203.499ZM1381 216.499C1382.1 226.799 1382.1 228.499 1380.6 232.499C1379.6 234.899 1378.3 237.399 1377.5 237.999C1375.5 239.599 1372.3 236.099 1371.4 231.299C1371 229.199 1370.4 226.999 1369.9 226.399C1369.4 225.699 1371.1 221.399 1374.3 215.199C1377.1 209.599 1379.6 204.999 1379.6 204.999C1379.7 204.999 1380.3 210.199 1381 216.499ZM1370 233.799C1370 234.799 1370.9 236.599 1372 237.799L1374.1 239.999H1371.7C1368.4 239.999 1366.6 237.599 1367.4 234.499C1368.1 231.599 1370 231.099 1370 233.799Z" fill="black"/>
<path d="M641.2 201.598C625.9 209.198 617.4 233.798 627.7 240.498C630.9 242.598 638.9 242.598 642.8 240.598C644.4 239.798 647.1 237.498 648.9 235.498C651.9 231.998 658 221.098 658 218.998C658 216.598 656.3 218.498 653.2 224.298C649.2 231.898 647.4 234.098 642.5 237.398C635.1 242.498 630 239.998 630 231.398C630 228.698 630.4 225.898 630.9 225.098C631.4 224.298 634.2 222.998 637.2 222.298C646.9 219.798 655 212.198 655 205.398C655 203.098 654.3 201.598 652.8 200.598C649.7 198.398 647.2 198.598 641.2 201.598ZM651.6 203.498C652.7 206.398 650.8 210.498 646.5 214.698C642.4 218.598 634.8 222.098 633.4 220.698C632.5 219.798 640.6 208.398 644.7 205.098C648.8 201.698 650.8 201.198 651.6 203.498Z" fill="black"/>
<path d="M1565.9 200.4C1553.3 204.9 1543 219.1 1543 231.9C1543 237.7 1545.8 242 1549.6 242C1554.6 242 1557.4 239.8 1565.9 228.8C1566.3 228.4 1566.3 230.3 1566.2 233C1565.9 236.8 1566.2 238.2 1567.9 239.9C1571.4 243.4 1575.4 242.6 1580.3 237.6C1584.1 233.7 1592 221 1592 218.9C1592 216.6 1590.2 218.7 1586.6 225C1582.1 233 1577 239 1574.6 239C1571.5 239 1572.6 231.2 1577.1 221.9C1579.3 217.3 1581.9 212.7 1582.7 211.8C1584.1 210.2 1584.1 210 1582.7 209.4C1578.8 207.9 1575.5 209.5 1572.5 214.3C1560.5 233.5 1555.2 239.6 1551.1 238.8C1548.4 238.3 1548.5 230.9 1551.3 225.3C1559.6 209 1573.6 198 1578.6 203.9C1580.6 206.2 1583.4 206.8 1582.8 204.7C1582 202.5 1575.8 199 1572.6 199C1570.9 199.1 1567.9 199.7 1565.9 200.4Z" fill="black"/>
<path d="M470.6 204.798C466.5 211.398 461.9 220.998 462.5 221.998C462.8 222.498 462.2 224.698 461 226.898C459 230.898 458.4 236.498 459.8 238.598C461.2 240.798 465.3 242.198 468.4 241.598C471.5 240.998 477.8 235.398 481.2 230.198C482.7 227.998 482.7 228.098 482.3 232.398C481.8 236.198 482.1 237.198 484.3 239.398C490.5 245.598 498.3 240.198 506.4 224.198C507.9 221.198 508.9 218.498 508.6 218.198C507.9 217.498 508.2 216.998 503.2 225.598C498.7 233.298 492.8 239.298 490.2 238.798C488.9 238.498 488.5 237.298 488.6 233.798C488.6 230.298 490 226.398 494.4 217.298C497.6 210.798 501.1 204.498 502.3 203.198L504.5 200.898L499.5 201.198L494.5 201.498L491.1 207.998C484.5 220.898 478.5 230.598 474.6 234.698C468.3 241.698 463.3 239.698 466.1 231.198C468.2 224.698 476.8 208.298 480.1 204.598L483.2 200.998H478.1C473.3 200.998 472.9 201.198 470.6 204.798Z" fill="black"/>
<path d="M519.3 202.2C516.8 205.5 509 221.1 509.4 221.9C509.7 222.4 509.1 224.8 508 227.1C505.2 233.4 505.4 237.4 508.6 239.9C515.2 245.1 523.1 239.9 533.7 223.4C535.2 221.1 528.8 239.6 526.6 243.7C525.3 246.4 524 246.9 512.8 249.8C492.8 255 484.1 260.4 482.4 268.8C480.8 276.7 485.8 280.7 495.7 279.7C506.9 278.5 516.6 271.2 526 256.8C531.3 248.7 531.8 248.2 538.8 245C543.9 242.7 547.4 240.3 550.4 236.9C555.4 231.3 561.9 219.5 560.6 218.3C560.1 217.9 559.6 218 559.3 218.6C558.2 221.8 551.1 232.7 548.2 235.6C545 238.9 535.3 244.6 534.4 243.7C533.9 243.3 541.2 222.4 545.4 212.1C546.8 208.5 549 204.5 550.2 203.2L552.5 200.9L547.5 201.2L542.5 201.5L539.1 208C530.2 225.2 519.8 239 515.8 239C512.1 239 511.6 234.9 514.5 227.9C518 219.5 525.9 205.1 528.2 202.8C529.9 201.1 529.8 201 525.1 201C522.4 201 519.8 201.6 519.3 202.2ZM522 251.7C522 253.1 513.4 263.4 508.2 268.1C499.7 275.8 492.4 278.6 486.6 276.4C484.2 275.5 484.6 270 487.5 265.8C490.7 261.1 494.7 258.7 505 255.6C519.8 251.1 522 250.6 522 251.7Z" fill="black"/>
<path d="M1150.6 204.798C1146.5 211.398 1141.9 220.998 1142.5 221.998C1142.8 222.498 1142.2 224.698 1141 226.898C1139 230.898 1138.4 236.498 1139.8 238.598C1141.2 240.798 1145.3 242.198 1148.4 241.598C1151.5 240.998 1157.8 235.398 1161.2 230.198C1162.7 227.998 1162.7 228.098 1162.3 232.398C1161.8 236.198 1162.1 237.198 1164.3 239.398C1170.5 245.598 1178.3 240.198 1186.4 224.198C1187.9 221.198 1188.9 218.498 1188.6 218.198C1187.9 217.498 1188.2 216.998 1183.2 225.598C1178.7 233.298 1172.8 239.298 1170.2 238.798C1168.9 238.498 1168.5 237.298 1168.6 233.798C1168.6 230.298 1170 226.398 1174.4 217.298C1177.6 210.798 1181.1 204.498 1182.3 203.198L1184.5 200.898L1179.5 201.198L1174.5 201.498L1171.1 207.998C1164.5 220.898 1158.5 230.598 1154.6 234.698C1148.3 241.698 1143.3 239.698 1146.1 231.198C1148.2 224.698 1156.8 208.298 1160.1 204.598L1163.2 200.998H1158.1C1153.3 200.998 1152.9 201.198 1150.6 204.798Z" fill="black"/>
<path d="M222.6 207.2C219.5 212.1 205 240.3 205 241.5C205 241.8 206.5 242 208.4 242C211.6 242 212.2 241.5 216.5 234.2C222.3 224.7 228.5 217.3 233.9 213.6C240.5 209 240.4 210.1 233.6 225.5C229.8 234.1 229.1 239 231.5 241C233.4 242.5 233.1 242.7 236.3 236.4C242.7 223.6 261 205.8 261 212.4C261 213.1 259.2 216.8 257 220.6C252.2 228.9 250.9 235.7 253.4 239.5C254.8 241.6 255.8 242 259.7 242C264 242 264.8 241.6 268.9 237.2C274 232 281.9 218 279.8 218C279.1 218.1 277.4 220.3 276.2 223.1C273.2 229.4 266.5 237.9 263.7 238.9C260.4 240.2 258.7 238.3 259.5 234.1C259.8 232.1 263.1 224.4 266.8 217C270.5 209.6 273.6 203.1 273.8 202.7C274.5 201.3 268.6 203.2 262.5 206.4C259.2 208.1 253.4 212.4 249.6 216L242.7 222.5L246.8 214.6C251.5 205.7 251.8 204.5 249.2 203.1C245.8 201.3 236.5 207.3 225.8 218.5C223.7 220.6 222 222.1 222 221.8C222 220.8 229 208.9 231.8 205.2L234.2 202H230.1C226.2 202 225.8 202.3 222.6 207.2Z" fill="black"/>
<path d="M403.6 207.2C400.5 212.1 386 240.3 386 241.5C386 241.8 387.5 242 389.4 242C392.6 242 393.2 241.5 397.5 234.2C403.3 224.7 409.5 217.3 414.9 213.6C421.5 209 421.4 210.1 414.6 225.5C410.8 234.1 410.1 239 412.5 241C414.4 242.5 414.1 242.7 417.3 236.4C423.7 223.6 442 205.8 442 212.4C442 213.1 440.2 216.8 438 220.6C433.2 228.9 431.9 235.7 434.4 239.5C435.8 241.6 436.8 242 440.7 242C445 242 445.8 241.6 449.9 237.2C455 232 462.9 218 460.8 218C460.1 218.1 458.4 220.3 457.2 223.1C454.2 229.4 447.5 237.9 444.7 238.9C441.4 240.2 439.7 238.3 440.5 234.1C440.8 232.1 444.1 224.4 447.8 217C451.5 209.6 454.6 203.1 454.8 202.7C455.5 201.3 449.6 203.2 443.5 206.4C440.2 208.1 434.4 212.4 430.6 216L423.7 222.5L427.8 214.6C432.5 205.7 432.8 204.5 430.2 203.1C426.8 201.3 417.5 207.3 406.8 218.5C404.7 220.6 403 222.1 403 221.8C403 220.8 410 208.9 412.8 205.2L415.2 202H411.1C407.2 202 406.8 202.3 403.6 207.2Z" fill="black"/>
<path d="M693.7 203.799C693.9 204.799 692.2 210.299 689.9 216.099C684.1 230.599 683.7 232.499 685 236.599C687.2 243.199 693.8 243.999 700.1 238.299C705.5 233.399 715.2 215.899 711 218.499C710.5 218.799 708.7 221.699 706.9 224.999C705.2 228.199 702.2 232.799 700.3 234.999C697.3 238.399 696.2 239.099 693.6 238.799C690.8 238.499 690.5 238.199 690.6 234.999C690.6 232.999 693.4 225.399 696.8 217.599C700.2 209.999 702.7 203.399 702.4 202.899C702.1 202.399 699.9 201.999 697.5 201.999C693.8 201.999 693.3 202.299 693.7 203.799Z" fill="black"/>
<path d="M1033.3 298.401C1021.1 301.201 1011.1 309.201 1008 318.601C1006.1 324.301 1007.1 334.101 1010 338.401C1015.7 346.801 1028.3 349.401 1037.6 344.101C1043.3 340.801 1045.9 337.501 1046.7 332.401C1047.3 328.501 1045.6 327.701 1044.6 331.501C1044.3 332.801 1042.3 335.701 1040.2 337.901C1033.4 345.001 1022.6 345.801 1016.3 339.501C1013.5 336.701 1013 335.501 1013 331.601C1013 325.601 1015.2 320.401 1019.8 315.601C1028.9 306.201 1036.9 303.601 1054.9 304.201C1066.6 304.701 1083.1 307.601 1086.8 309.901C1087.9 310.501 1085.6 315.901 1077.1 333.201C1059.6 368.701 1051.7 379.101 1036.6 386.501C1029.2 390.201 1018.4 393.001 1011.4 393.001C994.8 393.101 978.2 383.101 974.6 370.901C971.1 359.201 974 348.001 981.9 342.401C988.1 337.901 986.7 335.001 980 338.501C969.5 343.901 965.5 365.001 972.5 377.901C975.9 384.101 979.2 387.101 987.1 391.101C998.7 396.901 1015.6 398.601 1030.5 395.501C1054.1 390.501 1067.1 375.901 1078.9 341.001C1084.4 324.801 1090.7 312.501 1093.5 312.601C1094.6 312.701 1099.8 313.901 1105 315.401C1123.5 320.601 1137 319.801 1137 313.501C1137 310.501 1135.4 309.401 1134.7 312.001C1133.8 315.301 1129.5 316.301 1121 315.101C1112.1 313.701 1096.9 310.101 1095.6 308.901C1094.4 307.901 1098.9 304.101 1101.3 304.001C1102.5 304.001 1103 303.401 1102.8 302.201C1102.2 299.501 1098 300.601 1094.2 304.401L1090.8 307.701L1083.2 305.301C1058.4 297.501 1045.2 295.701 1033.3 298.401Z" fill="black"/>
<path d="M488.4 312.898C484.6 315.198 480.6 321.398 473.6 335.998C466.9 349.998 461 367.398 460.3 375.098C459.8 380.298 460 381.098 462.3 383.398C467.4 388.398 476.6 386.098 482.6 378.198C486.6 372.898 491.4 363.098 490.4 362.198C490 361.798 489.5 361.998 489.3 362.698C487.7 367.098 478 380.698 475.3 382.298C467.2 386.998 464.1 378.498 469 365.398C469.6 363.798 472.5 359.998 475.5 356.898C484.4 347.598 496 327.798 497.6 319.198C499 311.898 494.8 308.998 488.4 312.898ZM494.7 319.498C493.5 326.698 482.7 345.498 474.6 354.498L471 358.498L475.5 348.198C481.6 334.198 486.2 325.298 489.9 320.198C493.7 314.998 495.5 314.698 494.7 319.498Z" fill="black"/>
<path d="M745.4 312.898C741.6 315.198 737.6 321.398 730.6 335.998C723.9 349.998 718 367.398 717.3 375.098C716.8 380.298 717 381.098 719.3 383.398C724.4 388.398 733.6 386.098 739.6 378.198C743.6 372.898 748.4 363.098 747.4 362.198C747 361.798 746.5 361.998 746.3 362.698C744.7 367.098 735 380.698 732.3 382.298C724.2 386.998 721.1 378.498 726 365.398C726.6 363.798 729.5 359.998 732.5 356.898C741.4 347.598 753 327.798 754.6 319.198C756 311.898 751.8 308.998 745.4 312.898ZM751.7 319.498C750.5 326.698 739.7 345.498 731.6 354.498L728 358.498L732.5 348.198C738.6 334.198 743.2 325.298 746.9 320.198C750.7 314.998 752.5 314.698 751.7 319.498Z" fill="black"/>
<path d="M846.3 312.198C845.9 312.798 841.9 320.298 837.5 328.898C830.8 341.898 829.2 344.398 827.5 344.198C815.6 342.198 807.3 345.798 800.1 356.098C797.5 359.698 795 362.498 794.5 362.398C793.9 362.198 791.7 365.198 789.6 368.998C785.1 376.998 780 382.998 777.6 382.998C774.5 382.998 775.6 375.198 780.1 365.898C782.3 361.298 784.9 356.698 785.7 355.798C787.1 354.198 787.1 353.998 785.7 353.398C781.8 351.898 778.5 353.498 775.5 358.298C763.5 377.498 758.2 383.598 754.1 382.798C751.4 382.298 751.5 374.898 754.3 369.298C762.6 352.998 776.6 341.998 781.6 347.898C783.6 350.198 786.4 350.798 785.8 348.698C785.5 348.098 783.8 346.398 781.9 345.198C772.3 338.498 754.1 349.598 748 365.798C742.8 379.598 748.1 389.598 758 384.498C760.4 383.298 762.6 380.898 768.9 372.798C769.3 372.398 769.3 374.298 769.2 376.998C768.8 382.798 771.2 385.998 776 385.998C780 385.998 786.3 379.598 790.9 371.098C792.7 367.798 794.3 364.998 794.4 364.998C794.6 364.998 794.1 367.298 793.3 370.098C791.4 376.498 792.2 381.298 795.8 383.998C800.2 387.498 804.5 386.198 810.8 379.498L816 373.898V377.298C816 379.298 816.9 381.898 818.1 383.398C823.3 389.998 833 383.698 840.6 368.798C841.9 366.198 843 363.598 843 362.998C843 361.198 841.2 361.898 840.5 363.998C839.2 367.998 830.3 380.498 827.7 381.898C824.6 383.498 822 382.098 822 378.798C822 373.598 836 345.098 850.1 321.798C853.4 316.398 856 311.798 856 311.498C856 310.498 847.1 310.998 846.3 312.198ZM826.4 346.598C827.8 347.098 827.5 348.198 824.4 353.898C811.5 376.998 802.4 386.298 798.9 379.898C796.5 375.398 803 362.198 811.7 353.898C819.5 346.398 822.3 344.998 826.4 346.598Z" fill="black"/>
<path d="M1581 313.497C1578.9 316.097 1549 372.297 1549.5 372.797C1550.2 373.497 1548.8 375.297 1566 350.597C1583.5 325.397 1591 314.097 1591 312.897C1591 311.397 1582.3 311.897 1581 313.497Z" fill="black"/>
<path d="M77.6 315.9C74.5 318 69.7 324.8 64.9 334.2C62.1 339.8 61.8 340 58 340C55.1 340 54 340.4 54 341.5C54 342.5 55 343 57.4 343H60.8L57.5 351.4C53.7 361.1 51 371.2 51 375.9C51 381.8 54.4 385.9 59.3 386C65.3 386 70.9 381.2 76.6 370.9C78.6 367.4 79.8 365.4 79.4 366.5C79 367.6 78.5 371.2 78.3 374.5C77.9 379.6 78.1 380.9 80 383.2C83.9 388.2 90.3 386.3 96.6 378.3C98.7 375.6 100.6 373.2 100.9 372.8C101.3 372.4 101.3 374.3 101.2 377C100.9 380.8 101.2 382.2 102.9 383.9C106.4 387.4 110.4 386.6 115.3 381.6C119.1 377.7 127 365 127 362.9C127 360.6 125.2 362.7 121.6 369C117.1 377 112 383 109.6 383C106.5 383 107.6 375.2 112.1 365.9C114.3 361.3 116.9 356.7 117.7 355.8C119.1 354.2 119.1 354 117.7 353.4C113.8 351.9 110.5 353.5 107.5 358.3C95.5 377.5 90.2 383.6 86.1 382.8C83.4 382.3 83.5 374.9 86.3 369.3C94.6 353 108.6 342 113.6 347.9C115.6 350.2 118.4 350.8 117.8 348.7C117.5 348.1 115.8 346.4 113.9 345.2C106.7 340.2 93.9 345.1 86 355.8C83.5 359.1 81 361.9 80.3 361.9C79.7 362 77.6 364.8 75.6 368.2C69.7 378.6 64 383.8 60.2 382.5C57.3 381.6 56.9 378.6 58.7 370.6C60.1 364.4 60.9 362.8 65.4 358C68.3 355 72.1 350.4 73.9 347.7C76.8 343.4 77.5 343 81 343C83.9 343 85 342.6 85 341.5C85 340.5 84 340 82 340C80.4 340 79 339.8 79 339.5C79 339.2 80.5 335.9 82.4 332.2C84.3 328.4 86.1 323.8 86.5 321.8C87.8 314.7 83.6 312 77.6 315.9ZM83.1 324.2C82.3 326.6 80.5 331.1 78.9 334.2C76.3 339.3 75.6 340 73 340C71.3 340 70 339.8 70 339.5C70 338.2 77.4 324.2 79.7 321.2C83.1 316.7 84.8 318.2 83.1 324.2ZM71.1 347.2C69.5 349.6 66.8 353.1 65.1 355L62 358.5L65.1 350.7C68 343.6 68.5 343 71.2 343H74.1L71.1 347.2Z" fill="black"/>
<path d="M633.6 315.899C630.5 317.999 625.7 324.799 620.9 334.199C618.1 339.799 617.8 339.999 614 339.999C611.1 339.999 610 340.399 610 341.499C610 342.499 611 342.999 613.4 342.999H616.8L613.5 351.399C607.6 366.499 605.7 376.799 608.2 381.299C611.8 388.199 619.9 387.399 626.9 379.499C630.4 375.399 637.5 361.999 636.1 361.999C635.6 361.999 633.6 364.799 631.6 368.199C625.7 378.599 620 383.799 616.2 382.499C613.3 381.599 612.9 378.599 614.7 370.599C616.1 364.399 616.9 362.799 621.4 357.999C624.3 354.999 628.1 350.399 629.9 347.699C632.8 343.399 633.5 342.999 637 342.999C639.9 342.999 641 342.599 641 341.499C641 340.499 640 339.999 638 339.999C636.4 339.999 635 339.799 635 339.499C635 339.199 636.5 335.899 638.4 332.199C640.3 328.399 642.1 323.799 642.5 321.799C643.8 314.699 639.6 311.999 633.6 315.899ZM639.1 324.199C638.3 326.599 636.5 331.099 634.9 334.199C632.3 339.299 631.6 339.999 629 339.999C627.3 339.999 626 339.799 626 339.499C626 338.199 633.4 324.199 635.7 321.199C639.1 316.699 640.8 318.199 639.1 324.199ZM627.1 347.199C625.5 349.599 622.8 353.099 621.1 354.999L618 358.499L621.1 350.699C624 343.599 624.5 342.999 627.2 342.999H630.1L627.1 347.199Z" fill="black"/>
<path d="M401.7 332.8C399.6 335.1 399.5 338.4 401.6 340C405.4 343.2 412.2 336.4 409 332.6C407.3 330.5 403.7 330.6 401.7 332.8Z" fill="black"/>
<path d="M1314.2 333.198C1313.7 333.898 1312.3 338.198 1311.1 342.698C1308.5 352.798 1302.7 366.498 1297.7 374.298C1295.6 377.598 1294.1 380.698 1294.3 381.298C1294.9 383.298 1302.9 370.798 1307.2 360.898C1310.1 354.198 1312 350.998 1313.1 350.998C1316.2 350.998 1321 353.198 1321 354.598C1321 355.398 1319 359.698 1316.6 364.298C1311.2 374.398 1310.6 376.998 1312.4 381.498C1315 387.798 1322.4 387.098 1327.9 380.098C1331.3 375.798 1336.5 367.098 1337.5 364.198C1338.9 359.698 1336.4 362.298 1333.1 368.698C1329.2 376.098 1322.8 383.398 1320.8 382.798C1317.9 381.798 1319.6 374.398 1325.3 362.398C1328.4 355.798 1331 349.898 1331 349.198C1331 348.398 1328.5 347.998 1322.4 347.998H1313.7L1316.3 345.998C1317.7 344.898 1319.4 342.398 1320 340.398C1321 337.498 1320.9 336.498 1319.6 334.498C1317.8 331.798 1315.8 331.298 1314.2 333.198Z" fill="black"/>
<path d="M255.9 340.299C253.5 341.899 250.9 345.699 246.8 353.499C243.6 359.599 241 363.899 241 363.199C241 360.599 239.4 362.299 236.2 368.299C232.2 375.899 230.4 378.099 225.5 381.399C218.1 386.499 213 383.999 213 375.399C213 372.699 213.4 369.899 213.9 369.099C214.4 368.299 217.2 366.999 220.2 366.299C233.6 362.899 243.1 349.399 235.5 344.399C228.1 339.599 213.5 350.499 208 364.799C203.1 377.599 207.2 386.199 218.1 386.199C223.6 386.099 226.2 384.999 230.6 380.799L233.7 377.899L234.4 380.399C235.3 383.999 239 386.099 244.2 385.999C246.6 385.899 250 385.899 251.9 385.899C260.2 386.099 267.2 380.499 272.9 369.099C276.3 362.499 276.4 361.999 275.1 361.999C274.7 361.999 272.2 365.499 269.7 369.699C264.3 378.999 260.6 382.699 256 383.599L252.5 384.299L255.6 380.899C262.1 373.899 262.5 369.599 257.9 358.199C253.6 347.399 255.1 340.999 262.1 340.999C265.5 340.999 266 339.499 262.8 338.599C259.6 337.799 259.7 337.799 255.9 340.299ZM234.6 347.499C235.7 350.399 233.8 354.499 229.5 358.699C225.4 362.599 217.8 366.099 216.4 364.699C215.5 363.799 223.6 352.399 227.7 349.099C231.8 345.699 233.8 345.199 234.6 347.499ZM253 360.499C254.1 370.799 254.1 372.499 252.6 376.499C251.6 378.899 250.3 381.399 249.5 381.999C247.5 383.599 244.3 380.099 243.4 375.299C243 373.199 242.4 370.999 241.9 370.399C241.4 369.699 243.1 365.399 246.3 359.199C249.1 353.599 251.6 348.999 251.6 348.999C251.7 348.999 252.3 354.199 253 360.499ZM242 377.799C242 378.799 242.9 380.599 244 381.799L246.1 383.999H243.7C240.4 383.999 238.6 381.599 239.4 378.499C240.1 375.599 242 375.099 242 377.799Z" fill="black"/>
<path d="M1204.9 340.299C1202.4 341.999 1199.8 345.799 1195 355.199C1189 366.799 1185.5 372.499 1187.5 367.499C1190.5 359.699 1188.4 360.199 1184.2 368.299C1180.2 375.899 1178.4 378.099 1173.5 381.399C1166.1 386.499 1161 383.999 1161 375.399C1161 372.699 1161.4 369.899 1161.9 369.099C1162.4 368.299 1165.2 366.999 1168.2 366.299C1181.6 362.899 1191.1 349.399 1183.5 344.399C1176.1 339.599 1161.5 350.499 1156 364.799C1151.1 377.599 1155.2 386.199 1166.1 386.199C1171.7 386.099 1174.2 384.999 1179.1 380.299L1182.7 376.899L1183.3 379.899C1184.1 383.899 1187.8 386.199 1193.2 385.999C1195.6 385.899 1199 385.899 1200.9 385.899C1209.2 386.099 1216.2 380.499 1221.9 369.099C1225.3 362.499 1225.4 361.999 1224.1 361.999C1223.7 361.999 1221.2 365.499 1218.7 369.699C1213.3 378.999 1209.6 382.699 1205 383.599L1201.5 384.299L1204.6 380.899C1211.1 373.899 1211.5 369.599 1206.9 358.199C1202.6 347.399 1204.1 340.999 1211.1 340.999C1214.5 340.999 1215 339.499 1211.8 338.599C1208.6 337.799 1208.7 337.799 1204.9 340.299ZM1182.6 347.499C1183.7 350.399 1181.8 354.499 1177.5 358.699C1173.4 362.599 1165.8 366.099 1164.4 364.699C1163.5 363.799 1171.6 352.399 1175.7 349.099C1179.8 345.699 1181.8 345.199 1182.6 347.499ZM1202 360.499C1203.1 370.799 1203.1 372.499 1201.6 376.499C1200.6 378.899 1199.3 381.399 1198.5 381.999C1196.5 383.599 1193.3 380.099 1192.4 375.299C1192 373.199 1191.4 370.999 1190.9 370.399C1190.4 369.699 1192.1 365.399 1195.3 359.199C1198.1 353.599 1200.6 348.999 1200.6 348.999C1200.7 348.999 1201.3 354.199 1202 360.499ZM1191 377.799C1191 378.799 1191.9 380.599 1193 381.799L1195.1 383.999H1192.7C1189.4 383.999 1187.6 381.599 1188.4 378.499C1189.1 375.599 1191 375.099 1191 377.799Z" fill="black"/>
<path d="M1510.9 340.3C1508.4 342 1505.8 345.8 1501 355.2C1495 366.8 1491.5 372.5 1493.5 367.5C1496.5 359.6 1494.4 360.2 1490.1 368.5C1484 380.3 1475.9 386.2 1472 381.5C1471 380.3 1471.5 379.3 1474.4 375.7C1482.9 365.4 1485.8 351.7 1480.5 346.5C1471.1 337 1449 357.2 1449 375.3C1449 380.1 1449.4 381.5 1451.5 383.5C1454.5 386.6 1459.1 386.8 1464.4 384C1467.9 382.3 1468.5 382.2 1470.4 383.5C1474.6 386.5 1479.9 385.2 1485.6 379.8L1488.7 376.9L1489.3 379.9C1490.1 383.9 1493.8 386.2 1499.2 386C1501.6 385.9 1505 385.9 1506.9 385.9C1515.2 386.1 1522.2 380.5 1527.9 369.1C1531.3 362.5 1531.4 362 1530.1 362C1529.7 362 1527.2 365.5 1524.7 369.7C1519.3 379 1515.6 382.7 1511 383.6L1507.5 384.3L1510.6 380.9C1517.1 373.9 1517.5 369.6 1512.9 358.2C1508.6 347.4 1510.1 341 1517.1 341C1520.5 341 1521 339.5 1517.8 338.6C1514.6 337.8 1514.7 337.8 1510.9 340.3ZM1479 349.5C1480.9 351.8 1479.6 360.8 1476.5 367C1474 371.8 1473.8 372.1 1472.1 370.6C1467.9 366.8 1464.4 369.8 1465.3 376.5C1465.9 380.3 1465.7 381.1 1463.9 382C1462.8 382.6 1460.7 383 1459.2 382.8C1456.6 382.5 1456.5 382.3 1456.5 376.5C1456.6 362 1473 342.3 1479 349.5ZM1508 360.5C1509.1 370.8 1509.1 372.5 1507.6 376.5C1506.6 378.9 1505.3 381.4 1504.5 382C1502.5 383.6 1499.3 380.1 1498.4 375.3C1498 373.2 1497.4 371 1496.9 370.4C1496.4 369.7 1498.1 365.4 1501.3 359.2C1504.1 353.6 1506.6 349 1506.6 349C1506.7 349 1507.3 354.2 1508 360.5ZM1497 377.8C1497 378.8 1497.9 380.6 1499 381.8L1501.1 384H1498.7C1495.4 384 1493.6 381.6 1494.4 378.5C1495.1 375.6 1497 375.1 1497 377.8Z" fill="black"/>
<path d="M337.2 345.598C321.9 353.198 313.4 377.798 323.7 384.498C326.9 386.598 334.9 386.598 338.8 384.598C340.4 383.798 343.1 381.498 344.9 379.498C347.9 375.998 354 365.098 354 362.998C354 360.598 352.3 362.498 349.2 368.298C345.2 375.898 343.4 378.098 338.5 381.398C331.1 386.498 326 383.998 326 375.398C326 372.698 326.4 369.898 326.9 369.098C327.4 368.298 330.2 366.998 333.2 366.298C342.9 363.798 351 356.198 351 349.398C351 347.098 350.3 345.598 348.8 344.598C345.7 342.398 343.2 342.598 337.2 345.598ZM347.6 347.498C348.7 350.398 346.8 354.498 342.5 358.698C338.4 362.598 330.8 366.098 329.4 364.698C328.5 363.798 336.6 352.398 340.7 349.098C344.8 345.698 346.8 345.198 347.6 347.498Z" fill="black"/>
<path d="M435.4 344.098C429.7 345.698 422.7 351.298 418.3 357.798C415.9 361.298 414 363.598 414 362.998C414 360.798 412 363.098 408.9 368.998C407.2 372.198 404.2 376.798 402.3 378.998C399.3 382.398 398.2 383.098 395.6 382.798C392.8 382.498 392.5 382.198 392.6 378.998C392.6 376.998 395.4 369.398 398.8 361.598C402.2 353.998 404.7 347.398 404.4 346.898C404.1 346.398 401.9 345.998 399.5 345.998C395.8 345.998 395.3 346.298 395.7 347.798C396.2 349.898 392.5 359.998 390.6 361.498C390 361.998 387.9 365.198 386 368.398C379.8 379.298 374.3 383.998 367.7 383.998C357.2 383.998 358.2 367.398 369.6 353.398C373.7 348.298 379.4 345.298 381.6 346.998C383.5 348.698 383.4 350.898 381 354.798C378.5 358.798 378.5 358.998 380.9 358.998C383.5 358.998 387 354.398 387 350.898C387 341.198 371.3 341.798 363.1 351.698C358.8 356.798 355.2 364.398 353.8 370.998C351.8 380.898 356.4 386.398 366.7 386.198C373.7 386.098 378.6 383.398 383.2 377.098C386.5 372.498 387.1 371.998 386.6 374.398C385.7 377.998 387.6 383.698 390 384.998C396.2 388.298 403.3 383.498 410.2 371.598C412.4 367.698 413.9 365.398 413.4 366.498C413 367.598 412.5 371.198 412.3 374.498C411.9 379.598 412.1 380.898 414 383.198C417.9 388.198 424.3 386.298 430.6 378.298C432.7 375.598 434.6 373.198 434.9 372.798C435.3 372.398 435.3 374.298 435.2 376.998C434.9 380.798 435.2 382.198 436.9 383.898C440.4 387.398 444.4 386.598 449.3 381.598C453.1 377.698 461 364.998 461 362.898C461 360.598 459.2 362.698 455.6 368.998C451.1 376.998 446 382.998 443.6 382.998C440.5 382.998 441.6 375.198 446.1 365.898C448.3 361.298 450.9 356.698 451.7 355.798C453.1 354.198 453.1 353.998 451.7 353.398C447.8 351.898 444.5 353.498 441.5 358.298C429.5 377.498 424.2 383.598 420.1 382.798C417.4 382.298 417.5 374.898 420.3 369.298C428.6 352.998 442.6 341.998 447.6 347.898C449.6 350.198 452.4 350.798 451.8 348.698C451 346.498 444.8 342.998 441.6 343.098C439.9 343.098 437.1 343.598 435.4 344.098Z" fill="black"/>
<path d="M546.9 344.4C534.3 348.9 524 363.1 524 375.9C524 381.7 526.8 386 530.6 386C535.6 386 538.4 383.8 546.9 372.8C547.3 372.4 547.3 374.3 547.2 377C546.9 380.8 547.2 382.2 548.9 383.9C552.4 387.4 556.4 386.6 561.3 381.6C565.1 377.7 573 365 573 362.9C573 360.6 571.2 362.7 567.6 369C563.1 377 558 383 555.6 383C552.5 383 553.6 375.2 558.1 365.9C560.3 361.3 562.9 356.7 563.7 355.8C565.1 354.2 565.1 354 563.7 353.4C559.8 351.9 556.5 353.5 553.5 358.3C541.5 377.5 536.2 383.6 532.1 382.8C529.4 382.3 529.5 374.9 532.3 369.3C540.6 353 554.6 342 559.6 347.9C561.6 350.2 564.4 350.8 563.8 348.7C563 346.5 556.8 343 553.6 343C551.9 343.1 548.9 343.7 546.9 344.4Z" fill="black"/>
<path d="M1103.2 345.598C1087.9 353.198 1079.4 377.798 1089.7 384.498C1092.9 386.598 1100.9 386.598 1104.8 384.598C1106.4 383.798 1109.1 381.498 1110.9 379.498C1113.9 375.998 1120 365.098 1120 362.998C1120 360.598 1118.3 362.498 1115.2 368.298C1111.2 375.898 1109.4 378.098 1104.5 381.398C1097.1 386.498 1092 383.998 1092 375.398C1092 372.698 1092.4 369.898 1092.9 369.098C1093.4 368.298 1096.2 366.998 1099.2 366.298C1108.9 363.798 1117 356.198 1117 349.398C1117 347.098 1116.3 345.598 1114.8 344.598C1111.7 342.398 1109.2 342.598 1103.2 345.598ZM1113.6 347.498C1114.7 350.398 1112.8 354.498 1108.5 358.698C1104.4 362.598 1096.8 366.098 1095.4 364.698C1094.5 363.798 1102.6 352.398 1106.7 349.098C1110.8 345.698 1112.8 345.198 1113.6 347.498Z" fill="black"/>
<path d="M1285.2 345.598C1269.9 353.198 1261.4 377.798 1271.7 384.498C1274.9 386.598 1282.9 386.598 1286.8 384.598C1288.4 383.798 1291.1 381.498 1292.9 379.498C1295.9 375.998 1302 365.098 1302 362.998C1302 360.598 1300.3 362.498 1297.2 368.298C1293.2 375.898 1291.4 378.098 1286.5 381.398C1279.1 386.498 1274 383.998 1274 375.398C1274 372.698 1274.4 369.898 1274.9 369.098C1275.4 368.298 1278.2 366.998 1281.2 366.298C1290.9 363.798 1299 356.198 1299 349.398C1299 347.098 1298.3 345.598 1296.8 344.598C1293.7 342.398 1291.2 342.598 1285.2 345.598ZM1295.6 347.498C1296.7 350.398 1294.8 354.498 1290.5 358.698C1286.4 362.598 1278.8 366.098 1277.4 364.698C1276.5 363.798 1284.6 352.398 1288.7 349.098C1292.8 345.698 1294.8 345.198 1295.6 347.498Z" fill="black"/>
<path d="M1358.9 344.4C1346.3 348.9 1336 363.1 1336 375.9C1336 381.7 1338.8 386 1342.6 386C1347.6 386 1350.4 383.8 1358.9 372.8C1359.3 372.4 1359.3 374.3 1359.2 377C1358.8 382.8 1361.2 386 1366 386C1370 386 1376.3 379.6 1380.9 371.1C1386.1 361.3 1385.5 364.1 1380 375C1377.3 380.5 1375 385.2 1375 385.5C1375 385.8 1376.5 386 1378.4 386C1381.6 386 1382.2 385.5 1386.5 378.2C1392.3 368.7 1398.5 361.3 1403.9 357.6C1410.5 353 1410.4 354.1 1403.6 369.5C1399.8 378.1 1399.1 383 1401.5 385C1403.4 386.5 1403.1 386.7 1406.3 380.4C1412.7 367.6 1431 349.8 1431 356.4C1431 357.1 1429.2 360.8 1427 364.6C1422.2 372.9 1420.9 379.7 1423.4 383.5C1424.8 385.6 1425.8 386 1429.7 386C1434 386 1434.8 385.6 1438.9 381.2C1444 376 1451.9 362 1449.8 362C1449.1 362.1 1447.4 364.3 1446.2 367.1C1443.2 373.4 1436.5 381.9 1433.7 382.9C1430.4 384.2 1428.7 382.3 1429.5 378.1C1429.8 376.1 1433.1 368.4 1436.8 361C1440.5 353.6 1443.6 347.1 1443.8 346.7C1444.5 345.3 1438.6 347.2 1432.5 350.4C1429.2 352.1 1423.4 356.4 1419.6 360L1412.7 366.5L1416.8 358.6C1421.5 349.7 1421.8 348.5 1419.2 347.1C1415.8 345.3 1406.5 351.3 1395.8 362.5C1393.7 364.6 1392 366.1 1392 365.8C1392 364.8 1399 352.9 1401.8 349.2L1404.2 346H1400.1C1396.2 346 1395.8 346.3 1392.5 351.4C1390.6 354.4 1388.3 358.4 1387.3 360.4C1386.2 362.8 1385.4 363.6 1384.9 362.8C1384 361.3 1384.3 360.8 1379.2 369.6C1374.5 377.7 1369.9 383 1367.6 383C1364.5 383 1365.6 375.2 1370.1 365.9C1372.3 361.3 1374.9 356.7 1375.7 355.8C1377.1 354.2 1377.1 354 1375.7 353.4C1371.8 351.9 1368.5 353.5 1365.5 358.3C1353.5 377.5 1348.2 383.6 1344.1 382.8C1341.4 382.3 1341.5 374.9 1344.3 369.3C1352.6 353 1366.6 342 1371.6 347.9C1373.6 350.2 1376.4 350.8 1375.8 348.7C1375 346.5 1368.8 343 1365.6 343C1363.9 343.1 1360.9 343.7 1358.9 344.4Z" fill="black"/>
<path d="M299.1 347.2C296.8 349 293.3 352.9 291.3 355.8C289.3 358.6 287.5 360.9 287.4 360.7C287.2 360.5 287.5 358.8 288 356.9C288.6 355.1 289 351.6 289 349.2V344.9L284.3 345.2L279.6 345.5L279.9 350.7C280.1 354.7 279.5 357.4 277.6 361.6C275.6 366 275.4 367.1 276.6 366.6C277.8 366.1 278 366.5 277.5 368.3C275.2 375.6 261.9 402.7 255.3 413.3C253.9 415.5 253 417.3 253.2 417.5C253.4 417.6 255 418.1 256.8 418.5C259.6 419.1 260.4 418.8 262.8 416.2C264.3 414.5 268.1 406.6 271.4 398.5C276.2 386.6 277.6 384 278.9 384.6C282.2 386.1 287.3 386.2 291.8 384.9C302.2 382 313.5 365.7 313.5 353.7C313.5 348.7 313.1 347.5 311.1 345.9C307.7 343.1 304 343.5 299.1 347.2ZM306.8 348.2C308.9 350.3 308.1 354.5 304.4 362C298.5 373.7 286.4 384.7 280.9 383.3C278.2 382.6 278.4 381.7 283.6 372.6C295.6 351.8 302.8 344.2 306.8 348.2Z" fill="black"/>
<path d="M860.3 346.098C846.8 352.798 836.9 375.998 844.5 383.498C847.5 386.598 852.1 386.798 857.4 383.998C860.9 382.298 861.5 382.198 863.4 383.498C867.8 386.598 874.6 384.698 879.4 378.898C882.2 375.598 888 364.898 888 362.998C888 360.498 886.3 362.498 883.1 368.498C877 380.298 868.9 386.198 865 381.498C864 380.298 864.5 379.298 867.4 375.698C875.9 365.398 878.8 351.698 873.5 346.498C870.5 343.398 866 343.298 860.3 346.098ZM872 349.498C873.9 351.798 872.6 360.798 869.5 366.998C867 371.798 866.8 372.098 865.1 370.598C860.9 366.798 857.4 369.798 858.3 376.498C858.9 380.298 858.7 381.098 856.9 381.998C855.8 382.598 853.7 382.998 852.2 382.798C849.6 382.498 849.5 382.298 849.5 376.498C849.6 361.998 866 342.298 872 349.498Z" fill="black"/>
<path d="M1248.1 347.2C1245.8 349 1242.3 352.9 1240.3 355.8C1238.3 358.6 1236.5 360.9 1236.4 360.7C1236.2 360.5 1236.5 358.8 1237 356.9C1237.6 355.1 1238 351.6 1238 349.2V344.9L1233.3 345.2L1228.6 345.5L1228.9 350.7C1229.1 354.7 1228.5 357.4 1226.6 361.6C1224.6 366 1224.4 367.1 1225.6 366.6C1226.8 366.1 1227 366.5 1226.5 368.3C1224.2 375.6 1210.9 402.7 1204.3 413.3C1202.9 415.5 1202 417.3 1202.2 417.5C1202.4 417.6 1204 418.1 1205.8 418.5C1208.6 419.1 1209.4 418.8 1211.8 416.2C1213.3 414.5 1217.1 406.6 1220.4 398.5C1225.2 386.6 1226.6 384 1227.9 384.6C1231.2 386.1 1236.3 386.2 1240.8 384.9C1251.2 382 1262.5 365.7 1262.5 353.7C1262.5 348.7 1262.1 347.5 1260.1 345.9C1256.7 343.1 1253 343.5 1248.1 347.2ZM1255.8 348.2C1257.9 350.3 1257.1 354.5 1253.4 362C1247.5 373.7 1235.4 384.7 1229.9 383.3C1227.2 382.6 1227.4 381.7 1232.6 372.6C1244.6 351.8 1251.8 344.2 1255.8 348.2Z" fill="black"/>
<path d="M645.6 348.798C641.5 355.398 636.9 364.998 637.5 365.998C637.8 366.498 637.2 368.698 636 370.898C634 374.898 633.4 380.498 634.8 382.598C636.2 384.798 640.3 386.198 643.4 385.598C646.5 384.998 652.8 379.398 656.2 374.198C657.7 371.998 657.7 372.098 657.3 376.398C656.8 380.198 657.1 381.198 659.3 383.398C665.5 389.598 673.3 384.198 681.4 368.198C682.9 365.198 683.9 362.498 683.6 362.198C682.9 361.498 683.2 360.998 678.2 369.598C673.7 377.298 667.8 383.298 665.2 382.798C663.9 382.498 663.5 381.298 663.6 377.798C663.6 374.298 665 370.398 669.4 361.298C672.6 354.798 676.1 348.498 677.3 347.198L679.5 344.898L674.5 345.198L669.5 345.498L666.1 351.998C659.5 364.898 653.5 374.598 649.6 378.698C643.3 385.698 638.3 383.698 641.1 375.198C643.2 368.698 651.8 352.298 655.1 348.598L658.2 344.998H653.1C648.3 344.998 647.9 345.198 645.6 348.798Z" fill="black"/>
<path d="M135.6 351.201C132 356.901 118 384.401 118 385.801C118 386.301 119.7 386.401 121.7 386.101C125 385.601 125.8 384.701 129.7 378.201C135.1 368.901 140.2 362.701 145.9 358.401C154 352.201 155 354.201 149 364.701C142.6 375.701 142.3 383.001 148.2 385.401C152.6 387.301 156.8 385.901 161.2 380.901C165.9 375.701 172.3 364.501 171.8 362.201C171.5 361.001 170.7 361.901 169.1 365.001C162.2 378.201 154.8 385.801 152 382.501C150 380.101 151.6 374.801 158.8 360.701C162.5 353.401 165.7 347.101 165.8 346.701C166.5 345.301 160.7 347.201 154.5 350.401C151.2 352.101 145.2 356.601 141.1 360.501L133.7 367.501L136.5 362.501C138.1 359.701 141.1 354.901 143.2 351.701L147 346.001H143C139.2 346.001 138.8 346.301 135.6 351.201Z" fill="black"/>
<path d="M949.6 347.898C945.8 352.098 950 357.198 955.2 354.598C956.9 353.698 957.5 352.598 957.5 349.998C957.5 346.798 957.2 346.498 954.4 346.198C952.4 345.998 950.8 346.598 949.6 347.898Z" fill="black"/>
<path d="M946.8 361.699C946 362.699 941.1 369.599 936 376.999C916.9 404.499 907 419.399 907 420.699C907 422.099 910.8 422.399 914.7 421.399C916.3 420.899 920.9 413.399 933 390.799C941.9 374.299 949 360.599 948.7 360.399C948.5 360.199 947.6 360.799 946.8 361.699Z" fill="black"/>
<path d="M897.8 379.1C895.6 380.3 895.4 385.3 897.5 387C899.7 388.8 904.8 386.5 905.6 383.4C906.7 379 902.2 376.5 897.8 379.1Z" fill="black"/>
<path d="M1541.6 379.6C1539.6 381.6 1539.5 385.4 1541.5 387C1543.7 388.8 1548.8 386.5 1549.6 383.4C1550.8 378.7 1545.1 376.1 1541.6 379.6Z" fill="black"/>
</svg>
