<svg width="1506" height="363" viewBox="0 0 1506 363" fill="none" xmlns="http://www.w3.org/2000/svg">
<path d="M402 1.39882C399.5 1.99882 395.8 3.79882 393.8 5.39882C389.9 8.29882 379.7 20.9988 375.9 27.6988L373.6 31.7988L362.5 33.9988C256.9 54.4988 195 93.7988 178.5 150.699C170 179.899 178.1 202.099 201.7 214.099C207.2 216.899 209.7 217.599 216.2 217.899C243.9 219.099 268.8 200.599 278.4 171.799C282.3 160.299 281.6 147.899 276.6 138.199C274.6 134.299 272.6 134.099 270.4 137.499C268.9 139.799 268.9 140.399 270.1 142.699C272 146.199 272 163.899 270.1 170.499C265.2 188.199 253.1 200.999 236.5 206.299C222.8 210.699 216.3 209.499 207.9 201.099C203 196.199 201.8 194.199 199.9 187.999C193.3 166.199 204.3 131.899 225.9 106.499C242.4 87.1988 271.5 70.0988 309 57.5988C326 51.9988 362.7 41.9988 366.4 41.9988C367.2 41.9988 364.6 48.1988 360 57.1988C345.5 85.5988 331.9 117.299 318.5 153.999C300.4 203.399 278.5 242.099 249 276.499C211.4 320.299 158.6 349.799 114.5 351.699C100.4 352.299 92.4001 351.399 76.8001 347.499C45.0001 339.499 22.3001 321.099 14.4001 296.699C12.0001 289.499 11.7001 286.899 11.7001 275.499C11.7001 255.799 15.9001 241.699 26.7001 225.099C33.1001 215.299 47.4001 200.499 54.0001 196.899C58.9001 194.199 59.9001 191.699 56.1001 191.199C49.8001 190.299 31.4001 203.699 21.0001 216.799C11.6001 228.699 4.9001 243.799 1.4001 261.199C-0.899899 272.499 -0.0998993 292.599 3.0001 302.499C13.1001 334.799 40.7001 355.299 82.3001 361.399C94.4001 363.199 118.7 363.499 132.8 361.899C194 355.299 245.7 323.299 286 266.999C309.3 234.499 325.8 196.899 341 141.499C349.7 109.999 362.4 74.6988 373.6 50.9988L379.1 39.3988L387.1 37.6988C396.1 35.7988 407.9 30.6988 412.9 26.4988C421.6 19.0988 422.5 4.79882 414.5 1.49882C410.4 -0.301177 408.1 -0.301177 402 1.39882ZM405.8 13.1988C409 16.3988 406.4 22.1988 400.3 25.2988C396.7 27.1988 386.8 30.0988 386.2 29.4988C385.6 28.8988 394.3 18.3988 398.4 14.7988C401.8 11.7988 403.9 11.2988 405.8 13.1988Z" fill="black"/>
<path d="M1429.2 27.498C1426.6 28.598 1425.9 29.498 1426.2 31.198C1426.5 33.398 1427 33.498 1437.6 33.998C1447.5 34.498 1449.4 34.898 1455.2 37.798C1477.3 48.598 1488.4 80.598 1485 123.298C1482 162.198 1468.1 200.598 1443.3 238.398C1418.3 276.598 1386.7 302.498 1350.2 314.698C1337.8 318.698 1335 320.298 1335 322.998C1335 326.098 1340.8 325.598 1353.4 321.398C1381.1 312.098 1409.2 293.898 1437.1 267.198C1451.3 253.598 1462 240.898 1472.9 224.398C1496.6 188.798 1505.5 160.098 1505.4 119.998C1505.3 100.198 1503.7 88.898 1498.9 74.498C1491.3 51.698 1475.6 34.298 1457.2 28.098C1449.7 25.498 1434.4 25.298 1429.2 27.498Z" fill="black"/>
<path d="M1267.9 29.9997C1216.7 44.5997 1163.8 89.6997 1131.3 146.6C1116.7 172.1 1109 200 1109 227.1V236.5L1100.1 254.5C1092.8 269.3 1089.8 274.2 1083.2 282.1C1072.2 295.3 1065.5 298.7 1055.8 296C1051.4 294.7 1046 290.5 1046 288.3C1046 287.5 1048.4 284.1 1051.4 280.9C1068.8 262.1 1082 232 1082 211C1082 189.4 1073.4 178 1057 178C1043.5 178 1031.2 184.7 1017.1 199.5C1000.9 216.6 988.6 240.4 984.9 261.4C983.5 269.9 984.3 283.7 986.6 290.4C988.9 297 995.2 303.2 1001.3 304.9C1010.6 307.6 1024.8 303.9 1034.7 296.4C1038.5 293.5 1038.5 293.5 1041.3 296.1C1045.3 299.9 1051.3 302.3 1058 302.7C1074.6 303.9 1088.1 292.2 1103.1 263.5L1109.4 251.5L1110.7 259.9C1112.5 271.2 1118.2 288 1123.2 296.5C1129.4 307 1140.8 317.8 1151.2 323C1158.7 326.7 1160.9 327.3 1168.2 327.7C1181.6 328.6 1190.8 325.5 1188 321C1187.4 320 1184.5 319.6 1177.3 319.6C1160.8 319.4 1151.7 314.6 1142.5 301C1133.4 287.6 1129 269.1 1129 243.8C1129 202.2 1141.5 162 1167.3 121C1193.1 79.8997 1227.3 51.1997 1265.3 38.7997C1275.7 35.3997 1280.4 32.2997 1279.4 29.5997C1278.6 27.5997 1276.1 27.6997 1267.9 29.9997ZM1068.5 192C1069.9 193.3 1071.5 195.9 1072.1 197.8C1073.8 202.9 1072.7 219 1070 228.8C1067.9 236.7 1053 268.5 1052.5 266.5C1052.3 265.9 1051.9 264.3 1051.6 262.9C1050 255.4 1040.2 252.4 1034.1 257.5C1028.4 262.4 1027.8 274.8 1032.9 284.9L1034.9 288.7L1030.5 291.9C1019.5 299.8 1009.8 300.1 1005.8 292.7C996.8 276.1 1018.5 219.9 1042.3 198.4C1052.5 189.2 1062.8 186.7 1068.5 192Z" fill="black"/>
<path d="M1003.3 77.9008C998.3 80.2008 994.7 85.4008 989.9 96.9008C983.8 111.701 970.1 141.801 960.5 161.801C952.6 178.001 950.3 181.901 949.1 181.401C934.5 175.101 924.4 174.301 911.3 178.501C897.3 182.901 886.5 190.701 876.4 203.601C851 236.101 840.2 277.701 852.3 295.701C858.7 305.201 871.8 308.301 882.5 302.801C890.4 298.701 900 287.901 910 271.901L913.5 266.301V276.901C913.5 286.801 913.7 287.901 916.6 293.501C918.3 296.701 921.4 300.801 923.4 302.501C926.8 305.201 927.9 305.501 933.8 305.501C939.1 305.401 941.6 304.801 945.8 302.701C959.1 295.801 973.5 275.401 986.6 244.701C989.8 237.401 991 231.001 989.3 231.001C987.3 231.101 985.6 233.801 977.3 250.001C967.8 268.801 960.3 280.601 953.1 288.301C947.6 294.201 944.3 296.001 939.2 296.001C927.9 296.001 928.3 280.301 940.4 250.501C956 212.301 1006.4 111.901 1023.1 86.0008L1027.9 78.5008L1024.7 77.8008C1022.9 77.4008 1018.4 76.8008 1014.5 76.5008C1008.8 76.0008 1006.7 76.3008 1003.3 77.9008ZM944.3 185.701C945.8 186.401 947 187.601 947 188.201C947 188.801 942.6 197.901 937.1 208.401C910.9 259.201 891.6 287.701 879.6 293.101C874.4 295.501 871.9 295.501 868.8 293.101C859.4 285.701 864.3 262.101 881 234.601C895.5 210.401 918.3 187.901 932 184.001C935.1 183.101 940.7 183.901 944.3 185.701Z" fill="black"/>
<path d="M719.5 86.9971C712.8 90.2971 705.3 97.6971 698.9 107.297C693.2 116.097 676.9 147.997 671.9 160.197L669.6 165.997H660.1C648.3 165.997 646.3 166.497 645.5 169.697C644.4 174.097 646.3 174.997 656.2 174.997C664.3 174.997 665.2 175.197 664.7 176.697C664.4 177.697 661.3 186.597 657.7 196.497C646.2 228.097 639.4 254.697 638.3 271.997C637.4 285.897 641.6 296.697 650.2 302.697C653.6 304.997 655.6 305.497 661.7 305.797C668.4 306.197 669.7 305.897 675.3 303.197C687.8 296.997 699.1 282.497 712 256.297C720.5 239.097 722.4 233.997 721.1 232.697C719.3 230.897 717.1 233.897 710.4 247.197C699 269.597 686.7 286.697 678.2 292.097C673 295.397 665.9 296.697 662.4 295.097C659.4 293.697 656.1 286.797 656 281.797C656 279.797 658 268.597 660.5 256.997L664.9 235.997L674.6 225.297C685.9 212.697 697.1 197.897 705 184.897L710.7 175.497L721.1 175.197C726.7 175.097 732 174.397 732.7 173.797C734.5 172.297 734.3 167.297 732.4 166.597C731.5 166.297 727.5 165.997 723.3 165.997C717.7 165.997 715.9 165.697 716.3 164.697C716.6 164.097 720.3 156.097 724.5 146.997C728.7 137.897 733.5 126.697 735 121.997C740.5 105.397 739.9 93.7971 733.4 87.9971C729.3 84.3971 725.3 84.0971 719.5 86.9971ZM729.8 105.897C730.3 115.997 724.5 133.097 712.4 157.197L708 165.997H699.5C694.8 165.997 691 165.697 691 165.397C691 164.097 703.5 135.897 709 124.797C712.2 118.397 716.2 111.097 717.9 108.697C721.4 103.497 726.8 98.7971 728.4 99.2971C729 99.4971 729.6 102.397 729.8 105.897ZM698.8 181.697C689.8 196.497 670.4 222.697 669.3 221.697C669 221.297 681.3 188.497 685.3 178.697L686.9 174.997H694.9H703L698.8 181.697Z" fill="black"/>
<path d="M611.5 139C610.4 139.4 607.8 141.6 605.8 143.8C594.9 155.9 604.9 172.5 619.3 166.2C625.7 163.3 629.3 158.2 629.8 150.9C630.2 145.3 630.1 144.9 626.7 141.5C623.6 138.4 622.6 138 618.4 138.1C615.7 138.1 612.6 138.5 611.5 139Z" fill="black"/>
<path d="M1298 160.898C1290.8 163.098 1283.9 169.298 1277.7 178.998C1275.8 181.998 1270.2 193.498 1265.2 204.498C1260.2 215.498 1252.8 231.398 1248.8 239.798C1242.4 252.998 1240.9 255.298 1238 256.798C1233.5 258.998 1229.2 265.298 1228.2 270.998C1227 277.898 1228.3 287.898 1231.1 293.398C1235.6 302.498 1244 306.998 1256.6 307.098C1260.4 307.098 1265.4 306.498 1267.7 305.598C1270.8 304.498 1273.6 304.298 1278.2 304.798C1286.3 305.798 1294 304.598 1301.3 301.298C1309 297.798 1320.1 285.898 1327.8 272.998C1334.3 261.898 1346 236.198 1345.3 234.298C1345 233.598 1343.8 232.998 1342.6 232.998C1340.9 232.998 1338.8 236.498 1330.2 253.398C1318.3 276.998 1312.2 286.298 1304.2 292.498C1297.8 297.598 1289.6 300.498 1284.5 299.598L1281.2 298.898L1286.1 294.298C1293.2 287.698 1300.6 276.098 1303.1 267.798C1306.9 255.298 1304.4 241.298 1294.4 218.698C1289.1 206.698 1287.5 199.198 1288.3 189.698C1289.2 179.498 1292.9 172.398 1299.2 169.198C1303.9 166.798 1304 166.798 1309.2 168.498C1314.1 170.098 1314.5 170.098 1315.7 168.398C1319.1 163.798 1306.3 158.398 1298 160.898ZM1281.2 220.498C1284.2 247.898 1284.2 267.198 1281.3 276.498C1279.1 283.498 1273.1 293.298 1269.8 295.398C1268.5 296.198 1267.3 295.798 1264.3 293.398C1259 289.098 1256 282.598 1254.8 273.298C1253.2 260.198 1252.7 258.598 1249.8 257.198L1247.2 255.998L1258.4 232.698C1264.6 219.998 1271.6 205.198 1274.1 199.998L1278.5 190.598L1278.7 195.498C1278.9 198.298 1280 209.498 1281.2 220.498ZM1253.9 290.298C1255 292.098 1257.2 294.798 1258.9 296.398C1260.6 297.998 1261.7 299.698 1261.4 300.198C1260.6 301.498 1252.1 301.098 1249.1 299.498C1243.5 296.698 1241.3 286.898 1244.5 279.298C1247.5 272.198 1248.2 272.298 1250.1 279.998C1251.1 283.998 1252.8 288.598 1253.9 290.298Z" fill="black"/>
<path d="M556.5 173.901C549.2 177.301 542.8 185.601 538.9 197.001C535.8 206.001 535.8 220.901 538.8 229.901L540.9 236.301L537.9 243.801C524.5 277.601 507.4 298.801 495.4 296.601C490.5 295.601 489 292.801 489 284.201C489 275.301 490.2 270.301 498.6 244.701C506.8 219.801 508.9 210.401 509.7 195.901C510.4 181.401 509.9 180.001 503.1 180.001C498.9 180.001 491 181.101 484.2 182.501C482 183.001 482 183.101 483.7 185.701C486.2 189.601 486.7 204.801 484.6 214.401C483.6 218.501 480.7 226.501 477.9 232.001C475.2 237.601 473 242.801 473 243.601C473 245.701 475.7 246.501 477.7 244.901C479.1 243.701 479.2 243.801 478.5 245.901C467.7 280.001 466.9 298.501 476 305.001C482.2 309.401 494 309.601 502.2 305.401C517.5 297.701 531.7 278.601 544.7 248.301C550 236.001 562.9 199.001 567 184.601C569 177.401 569 176.701 567.5 174.401C565.6 171.501 562.1 171.301 556.5 173.901Z" fill="black"/>
<path d="M785 176.797C764.6 182.497 749.8 194.197 735.2 216.397C722.8 235.097 716.4 252.897 715.3 271.497C714.6 283.597 716 291.197 720 297.197C732.2 315.397 752 306.797 774 273.797C778.5 266.997 782.3 261.397 782.4 261.297C782.6 261.097 782.1 263.797 781.4 267.297C779.7 274.897 779.6 287.097 781.1 292.497C781.8 294.997 784 298.297 786.9 301.197C792.9 307.197 798.2 308.297 805.8 304.997C812.4 302.097 823 291.197 830.9 278.997C838.4 267.497 854.2 236.397 853.8 234.097C853.6 233.197 852.6 232.497 851.5 232.497C849.9 232.497 847.9 235.697 842 247.197C825.6 279.097 812 296.997 803.9 296.997C799.7 296.997 798.5 294.597 798.7 286.897C799.1 276.597 801.7 265.697 806.7 253.497C811.9 240.697 821.6 221.597 827.1 213.297L830.9 207.497L824.7 206.297C816 204.597 813.5 204.697 809.1 206.997C804.6 209.197 800 215.997 792 232.097C780.1 255.797 767.8 274.897 758 285.097C741.9 301.697 729.6 298.897 731.3 279.097C732.1 270.397 735.7 260.097 742.6 247.097C752.4 228.397 762.3 214.497 774.4 202.497C786.3 190.597 794.2 185.497 802.2 184.397C808.2 183.597 815.4 186.697 817.8 191.097C818.7 192.797 820.2 195.097 821 196.097C822.4 197.897 822.7 197.897 824.8 196.497C828.2 194.097 827.6 190.597 822.9 185.497C814.3 176.197 799.4 172.797 785 176.797Z" fill="black"/>
<path d="M380.2 184.999C375.9 187.699 370 196.899 359.5 217.999C351 234.999 317.8 307.099 318.3 307.599C318.8 308.099 336.7 305.899 338.6 305.099C340 304.499 343.1 299.599 347 291.799C355.9 274.399 364.7 259.899 373.6 247.899C382.2 236.399 398 220.199 405.4 215.199C413.3 209.999 420.1 211.299 418.5 217.699C418.2 219.299 414.8 226.099 411 232.999C397.1 258.299 393 269.799 393 283.799C393 292.099 394.4 295.999 399.3 300.999C403.6 305.399 408 307.099 415.1 307.099C431.1 307.199 444.3 292.699 464.3 253.299C471.8 238.399 473.3 234.699 472.4 233.199C470.5 230.299 468.6 231.299 466.1 236.499C460.5 248.299 449.1 269.099 444.2 276.499C437.2 286.999 428.7 295.599 423.2 297.699C419.1 299.199 418.8 299.199 416.2 297.299C413.6 295.299 413.5 294.799 413.6 286.899C413.7 279.899 414.4 276.499 417.7 266.499C423 250.699 431.8 231.099 444.6 206.199C450.3 194.999 455 185.599 455 185.299C455 184.999 452.4 184.999 449.3 185.299C436.8 186.599 408.8 203.399 391.4 220.199C385.7 225.699 377.3 234.699 372.9 240.099C368.4 245.599 364.5 249.999 364.3 249.999C363.7 249.999 379.9 218.199 385.1 209.399C391.6 198.199 399.6 187.299 402.4 185.699C404.3 184.699 403.9 184.499 398.5 183.899C387.5 182.699 383.7 182.899 380.2 184.999Z" fill="black"/>
<path d="M589 187C590.1 189.1 591 192.1 591 193.5C591 194.9 585.4 211.2 578.6 229.8C571.8 248.3 565.7 265.3 565.1 267.5C564.5 269.7 564 275.1 564 279.5C564 296.1 572.5 306 586.9 306C603.4 306 622.6 283.2 638.4 244.8C642.4 235 642.9 232 640.3 232C639 232 636 237 629.6 249.6C611 286.1 599 299.9 587.7 297.6C582.1 296.5 580 293.5 580 286.5C580 278.1 580.9 275.3 598.9 230.7C607.6 209.1 615 190.4 615.4 189.3C615.9 187.8 615.5 186.5 614.1 185.1C612.2 183.2 610.8 183 599.5 183H587L589 187Z" fill="black"/>
</svg>
