<svg width="1748" height="286" viewBox="0 0 1748 286" fill="none" xmlns="http://www.w3.org/2000/svg">
<path d="M72.3002 1.19922C64.0002 2.09922 51.7002 5.89922 45.4002 9.59922C39.0002 13.3992 31.5002 20.3992 29.6002 24.4992C25.7002 32.6992 27.7002 38.1992 36.7002 43.9992L40.8002 46.5992L34.4002 47.6992C20.5002 50.0992 6.50023 59.7992 2.00023 70.1992C-0.999775 77.0992 -0.499775 85.3992 3.20023 90.4992C9.70023 99.6992 19.6002 103.199 38.5002 103.199C49.2002 103.199 53.3002 102.699 61.5002 100.599C74.7002 97.1992 86.9002 91.0992 93.6002 84.5992C99.2002 79.1992 100.8 75.2992 99.4002 71.1992C98.3002 67.9992 92.6002 64.4992 90.2002 65.4992C88.8002 66.0992 89.1002 66.4992 91.8002 67.5992C94.0002 68.5992 95.0002 69.6992 95.0002 71.2992C95.0002 79.1992 80.1002 90.1992 60.0002 97.1992C51.4002 100.099 49.4002 100.399 38.5002 100.399C28.1002 100.399 25.8002 100.099 21.2002 98.0992C11.3002 93.6992 6.90023 85.4992 9.00023 75.6992C10.9002 66.4992 16.7002 59.8992 26.5002 55.2992C32.0002 52.7992 33.7002 52.4992 46.7002 52.1992C57.3002 51.8992 61.2002 51.3992 62.1002 50.3992C64.1002 47.9992 61.5002 46.2992 52.2002 43.8992C41.0002 40.9992 37.0002 37.4992 37.0002 30.7992C37.0002 16.9992 57.5002 4.09922 79.9002 3.79922C88.4002 3.69922 92.2002 4.99922 95.2002 8.99922C96.7002 11.0992 96.8002 12.0992 95.9002 15.4992C94.4002 20.7992 88.6002 26.4992 83.0002 28.0992C76.5002 29.8992 75.5002 31.3992 81.3002 30.5992C91.7002 29.2992 102.5 21.6992 103.6 14.7992C104.1 11.8992 103.7 10.6992 101.1 7.69922C96.0002 1.89922 86.2002 -0.300783 72.3002 1.19922Z" fill="black"/>
<path d="M1681.3 23.1992C1680.9 23.7992 1676.9 31.2992 1672.5 39.8992C1665.8 52.8992 1664.2 55.3992 1662.5 55.1992C1650.8 53.2992 1642.4 56.7992 1635.5 66.4992C1630.2 73.8992 1626.5 84.3992 1627.4 89.3992C1628.3 94.2992 1632.4 97.3992 1637 96.5992C1639.6 96.1992 1641.9 94.5992 1645.8 90.4992L1651 84.8992V88.2992C1651 92.6992 1654.3 96.9992 1657.6 96.9992C1663.1 96.9992 1667.7 93.0992 1673.3 83.7992L1676.7 78.0992L1676.2 83.0992C1675.3 92.2992 1679.4 97.1992 1688 97.1992C1693.9 97.0992 1697.7 95.2992 1701.9 90.4992C1704.9 86.9992 1711 76.0992 1711 73.9992C1711 71.5992 1709.3 73.4992 1706.2 79.2992C1702.2 86.8992 1700.4 89.0992 1695.5 92.3992C1688.1 97.4992 1683 94.9992 1683 86.3992C1683 83.6992 1683.4 80.8992 1683.9 80.0992C1684.4 79.2992 1687.2 77.9992 1690.2 77.2992C1703.6 73.8992 1713.1 60.3992 1705.5 55.3992C1700 51.7992 1689.2 57.4992 1682.4 67.5992C1680.2 70.8992 1677.9 73.4992 1677.3 73.2992C1676.7 73.0992 1675.9 73.7992 1675.5 74.8992C1674.2 78.8992 1665.3 91.4992 1662.7 92.8992C1659.6 94.4992 1657 93.0992 1657 89.7992C1657 84.5992 1671 56.0992 1685.1 32.7992C1688.4 27.3992 1691 22.7992 1691 22.4992C1691 21.4992 1682.1 21.9992 1681.3 23.1992ZM1661.4 57.5992C1662.8 58.0992 1662.5 59.1992 1659.4 64.8992C1646.5 87.9992 1637.4 97.2992 1633.9 90.8992C1631.5 86.3992 1638 73.1992 1646.7 64.8992C1654.5 57.3992 1657.3 55.9992 1661.4 57.5992ZM1704.6 58.4992C1705.7 61.3992 1703.8 65.4992 1699.5 69.6992C1695.4 73.5992 1687.8 77.0992 1686.4 75.6992C1685.5 74.7992 1693.6 63.3992 1697.7 60.0992C1701.8 56.6992 1703.8 56.1992 1704.6 58.4992Z" fill="black"/>
<path d="M1738.4 23.8978C1734.6 26.1978 1730.6 32.3978 1723.6 46.9978C1716.9 60.9978 1711 78.3978 1710.3 86.0978C1709.8 91.2978 1710 92.0978 1712.3 94.3978C1717.4 99.3978 1726.6 97.0978 1732.6 89.1978C1736.6 83.8978 1741.4 74.0978 1740.4 73.1978C1740 72.7978 1739.5 72.9978 1739.3 73.6978C1737.7 78.0978 1728 91.6978 1725.3 93.2978C1717.2 97.9978 1714.1 89.4978 1719 76.3978C1719.6 74.7978 1722.5 70.9978 1725.5 67.8978C1734.4 58.5978 1746 38.7978 1747.6 30.1978C1749 22.8978 1744.8 19.9979 1738.4 23.8978ZM1744.7 30.4978C1743.5 37.6978 1732.7 56.4978 1724.6 65.4978L1721 69.4978L1725.5 59.1978C1731.6 45.1978 1736.2 36.2978 1739.9 31.1978C1743.7 25.9978 1745.5 25.6978 1744.7 30.4978Z" fill="black"/>
<path d="M632.6 26.8996C629.5 28.9996 624.7 35.7996 619.9 45.1996C617.1 50.7996 616.8 50.9996 613 50.9996C610.1 50.9996 609 51.3996 609 52.4996C609 53.4996 610 53.9996 612.4 53.9996H615.8L612.5 62.3996C608.7 72.0996 606 82.1996 606 86.8996C606 92.7996 609.4 96.8996 614.3 96.9996C620.3 96.9996 625.9 92.1996 631.6 81.8996C633.6 78.3996 634.8 76.3996 634.4 77.4996C634 78.5996 633.5 82.1996 633.3 85.4996C632.9 90.5996 633.1 91.8996 635 94.1996C638.9 99.1996 645.3 97.2996 651.6 89.2996C653.7 86.5996 655.6 84.1996 655.9 83.7996C656.3 83.3996 656.3 85.2996 656.2 87.9996C655.9 91.7996 656.2 93.1996 657.9 94.8996C661.4 98.3996 665.4 97.5996 670.3 92.5996C674.1 88.6996 682 75.9996 682 73.8996C682 71.5996 680.2 73.6996 676.6 79.9996C672.1 87.9996 667 93.9996 664.6 93.9996C661.5 93.9996 662.6 86.1996 667.1 76.8996C669.3 72.2996 671.9 67.6996 672.7 66.7996C674.1 65.1996 674.1 64.9996 672.7 64.3996C668.8 62.8996 665.5 64.4996 662.5 69.2996C650.5 88.4996 645.2 94.5996 641.1 93.7996C638.4 93.2996 638.5 85.8996 641.3 80.2996C649.6 63.9996 663.6 52.9996 668.6 58.8996C670.6 61.1996 673.4 61.7996 672.8 59.6996C672.5 59.0996 670.8 57.3996 668.9 56.1996C661.7 51.1996 648.9 56.0996 641 66.7996C638.5 70.0996 636 72.8996 635.3 72.8996C634.7 72.9996 632.6 75.7996 630.6 79.1996C624.7 89.5996 619 94.7996 615.2 93.4996C612.3 92.5996 611.9 89.5996 613.7 81.5996C615.1 75.3996 615.9 73.7996 620.4 68.9996C623.3 65.9996 627.1 61.3996 628.9 58.6996C631.8 54.3996 632.5 53.9996 636 53.9996C638.9 53.9996 640 53.5996 640 52.4996C640 51.4996 639 50.9996 637 50.9996C635.4 50.9996 634 50.7996 634 50.4996C634 50.1996 635.5 46.8996 637.4 43.1996C639.3 39.3996 641.1 34.7996 641.5 32.7996C642.8 25.6996 638.6 22.9996 632.6 26.8996ZM638.1 35.1996C637.3 37.5996 635.5 42.0996 633.9 45.1996C631.3 50.2996 630.6 50.9996 628 50.9996C626.3 50.9996 625 50.7996 625 50.4996C625 49.1996 632.4 35.1996 634.7 32.1996C638.1 27.6996 639.8 29.1996 638.1 35.1996ZM626.1 58.1996C624.5 60.5996 621.8 64.0996 620.1 65.9996L617 69.4996L620.1 61.6996C623 54.5996 623.5 53.9996 626.2 53.9996H629.1L626.1 58.1996Z" fill="black"/>
<path d="M1320.6 26.8992C1317.5 28.9992 1312.7 35.7992 1307.9 45.1992C1305.1 50.7992 1304.8 50.9992 1301 50.9992C1298.1 50.9992 1297 51.3992 1297 52.4992C1297 53.4992 1298 53.9992 1300.4 53.9992H1303.8L1300.4 62.6992C1298.5 67.3992 1297 71.8992 1297 72.5992C1297 73.3992 1296.4 73.6992 1295.7 73.3992C1294.8 73.0992 1292.7 75.6992 1289.8 80.6992C1284.3 89.9992 1280.6 93.6992 1276 94.5992L1272.5 95.2992L1275.6 91.8992C1282.1 84.8992 1282.5 80.5992 1277.9 69.1992C1273.6 58.3992 1275.1 51.9992 1282.1 51.9992C1285.7 51.9992 1285.9 50.3992 1282.5 49.5992C1279.8 48.8992 1275.3 50.7992 1273 53.4992C1272.2 54.4992 1269.2 59.7992 1266.3 65.3992C1263.4 70.8992 1261.1 74.8992 1261 74.1992C1261 71.5992 1259.4 73.1992 1256.2 79.2992C1252.2 86.8992 1250.4 89.0992 1245.5 92.3992C1238.1 97.4992 1233 94.9992 1233 86.3992C1233 83.6992 1233.4 80.8992 1233.9 80.0992C1234.4 79.2992 1237.2 77.9992 1240.2 77.2992C1253.6 73.8992 1263.1 60.3992 1255.5 55.3992C1248.1 50.5992 1233.5 61.4992 1228 75.7992C1223.1 88.5992 1227.2 97.1992 1238.1 97.1992C1243.6 97.0992 1246.2 95.9992 1250.6 91.7992L1253.7 88.8992L1254.4 91.3992C1255.3 94.9992 1259 97.0992 1264.2 96.9992C1266.6 96.8992 1270 96.8992 1271.9 96.8992C1280.1 97.0992 1286.3 92.2992 1292.6 80.9992C1294.6 77.3992 1295.9 75.2992 1295.6 76.1992C1294.5 79.7992 1293.8 87.9992 1294.4 90.3992C1295.3 93.9992 1298.9 96.9992 1302.2 96.9992C1308.4 96.9992 1313.9 92.1992 1319.6 81.8992C1321.6 78.3992 1322.8 76.3992 1322.4 77.4992C1322 78.5992 1321.5 82.1992 1321.3 85.4992C1320.9 90.5992 1321.1 91.8992 1323 94.1992C1326.9 99.1992 1333.3 97.2992 1339.6 89.2992C1341.7 86.5992 1343.6 84.1992 1343.9 83.7992C1344.3 83.3992 1344.3 85.2992 1344.2 87.9992C1343.9 91.7992 1344.2 93.1992 1345.9 94.8992C1349.4 98.3992 1353.4 97.5992 1358.3 92.5992C1362.1 88.6992 1370 75.9992 1370 73.8992C1370 71.5992 1368.2 73.6992 1364.6 79.9992C1360.1 87.9992 1355 93.9992 1352.6 93.9992C1349.5 93.9992 1350.6 86.1992 1355.1 76.8992C1357.3 72.2992 1359.9 67.6992 1360.7 66.7992C1362.1 65.1992 1362.1 64.9992 1360.7 64.3992C1356.8 62.8992 1353.5 64.4992 1350.5 69.2992C1338.5 88.4992 1333.2 94.5992 1329.1 93.7992C1326.4 93.2992 1326.5 85.8992 1329.3 80.2992C1337.6 63.9992 1351.6 52.9992 1356.6 58.8992C1358.6 61.1992 1361.4 61.7992 1360.8 59.6992C1360.5 59.0992 1358.8 57.3992 1356.9 56.1992C1349.7 51.1992 1336.9 56.0992 1329 66.7992C1326.5 70.0992 1324 72.8992 1323.3 72.8992C1322.7 72.9992 1320.6 75.7992 1318.6 79.1992C1312.7 89.5992 1307 94.7992 1303.2 93.4992C1300.3 92.5992 1299.9 89.5992 1301.7 81.5992C1303.1 75.3992 1303.9 73.7992 1308.4 68.9992C1311.3 65.9992 1315.1 61.3992 1316.9 58.6992C1319.8 54.3992 1320.5 53.9992 1324 53.9992C1326.9 53.9992 1328 53.5992 1328 52.4992C1328 51.4992 1327 50.9992 1325 50.9992C1323.4 50.9992 1322 50.7992 1322 50.4992C1322 50.1992 1323.5 46.8992 1325.4 43.1992C1327.3 39.3992 1329.1 34.7992 1329.5 32.7992C1330.8 25.6992 1326.6 22.9992 1320.6 26.8992ZM1326.1 35.1992C1325.3 37.5992 1323.5 42.0992 1321.9 45.1992C1319.3 50.2992 1318.6 50.9992 1316 50.9992C1314.3 50.9992 1313 50.7992 1313 50.4992C1313 49.1992 1320.4 35.1992 1322.7 32.1992C1326.1 27.6992 1327.8 29.1992 1326.1 35.1992ZM1314.1 58.1992C1312.5 60.5992 1309.8 64.0992 1308.1 65.9992L1305 69.4992L1308.1 61.6992C1311 54.5992 1311.5 53.9992 1314.2 53.9992H1317.1L1314.1 58.1992ZM1254.6 58.4992C1255.7 61.3992 1253.8 65.4992 1249.5 69.6992C1245.4 73.5992 1237.8 77.0992 1236.4 75.6992C1235.5 74.7992 1243.6 63.3992 1247.7 60.0992C1251.8 56.6992 1253.8 56.1992 1254.6 58.4992ZM1273 71.4992C1274.1 81.7992 1274.1 83.4992 1272.6 87.4992C1271.6 89.8992 1270.3 92.3992 1269.5 92.9992C1267.5 94.5992 1264.3 91.0992 1263.4 86.2992C1263 84.1992 1262.4 81.9992 1261.9 81.3992C1261.4 80.6992 1263.1 76.3992 1266.3 70.1992C1269.1 64.5992 1271.6 59.9992 1271.6 59.9992C1271.7 59.9992 1272.3 65.1992 1273 71.4992ZM1262 88.7992C1262 89.7992 1262.9 91.5992 1264 92.7992L1266.1 94.9992H1263.7C1260.4 94.9992 1258.6 92.5992 1259.4 89.4992C1260.1 86.5992 1262 86.0992 1262 88.7992Z" fill="black"/>
<path d="M1521.6 26.8969C1518.5 28.9969 1513.7 35.7969 1508.9 45.1969C1506.1 50.7969 1505.8 50.9969 1502 50.9969C1499.1 50.9969 1498 51.3969 1498 52.4969C1498 53.4969 1499 53.9969 1501.4 53.9969H1504.8L1501.1 63.3969C1499.2 68.5969 1497.2 72.5969 1496.8 72.3969C1496.4 72.0969 1495.1 73.8969 1493.9 76.1969C1487.4 88.9969 1479.7 96.7969 1477 93.4969C1475 91.0969 1476.6 85.7969 1483.8 71.6969C1487.5 64.3969 1490.7 58.0969 1490.8 57.6969C1491.5 56.2969 1485.7 58.1969 1479.5 61.3969C1476.2 63.0969 1470.2 67.5969 1466.1 71.4969L1458.7 78.4969L1461.5 73.4969C1463.1 70.6969 1466.1 65.8969 1468.2 62.6969L1472 56.9969H1468C1464.2 56.9969 1463.8 57.2969 1460.6 62.1969C1457 67.8969 1443 95.3969 1443 96.7969C1443 97.2969 1444.7 97.3969 1446.7 97.0969C1450 96.5969 1450.8 95.6969 1454.7 89.1969C1460.1 79.8969 1465.2 73.6969 1470.9 69.3969C1479 63.0969 1480 65.1969 1473.9 75.8969C1467.5 86.7969 1467.5 94.5969 1473.8 96.7969C1479.8 98.8969 1486.8 93.4969 1493.7 81.3969L1496 77.4969L1495.4 82.6969C1494.6 89.0969 1495.4 92.2969 1498.2 94.9969C1504.5 100.797 1514.1 94.5969 1521.5 79.9969C1525.9 71.2969 1524.4 70.7969 1519.6 79.1969C1513.7 89.5969 1508 94.7969 1504.2 93.4969C1501.3 92.5969 1500.9 89.5969 1502.7 81.5969C1504.1 75.3969 1504.9 73.7969 1509.4 68.9969C1512.3 65.9969 1516.1 61.3969 1517.9 58.6969C1520.8 54.3969 1521.5 53.9969 1525 53.9969C1527.9 53.9969 1529 53.5969 1529 52.4969C1529 51.4969 1528 50.9969 1526 50.9969C1524.4 50.9969 1523 50.7969 1523 50.4969C1523 50.1969 1524.5 46.8969 1526.4 43.1969C1528.3 39.3969 1530.1 34.7969 1530.5 32.7969C1531.8 25.6969 1527.6 22.9969 1521.6 26.8969ZM1527.1 35.1969C1526.3 37.5969 1524.5 42.0969 1522.9 45.1969C1520.3 50.2969 1519.6 50.9969 1517 50.9969C1515.3 50.9969 1514 50.7969 1514 50.4969C1514 49.1969 1521.4 35.1969 1523.7 32.1969C1527.1 27.6969 1528.8 29.1969 1527.1 35.1969ZM1515.1 58.1969C1513.5 60.5969 1510.8 64.0969 1509.1 65.9969L1506 69.4969L1509.1 61.6969C1512 54.5969 1512.5 53.9969 1515.2 53.9969H1518.1L1515.1 58.1969Z" fill="black"/>
<path d="M231.2 44.199C230.7 44.899 229.5 48.399 228.6 51.999C226.1 61.899 220.8 75.299 219.9 73.799C218.9 72.299 219 72.199 215.1 79.499C211.2 86.899 209.3 89.199 204.5 92.399C197.1 97.499 192 94.999 192 86.399C192 83.699 192.4 80.899 192.9 80.099C193.4 79.299 196.2 77.999 199.2 77.299C209 74.799 217 67.199 217 60.399C217 50.199 201.5 53.599 192.6 65.699C183.8 77.599 182.6 90.899 189.8 95.599C194.6 98.699 205.2 96.999 209 92.499C209.9 91.399 210.5 91.199 211 92.099C212.2 93.899 219.5 82.799 224.2 71.899C227.1 65.199 229 61.999 230.1 61.999C233.2 61.999 238 64.199 238 65.599C238 66.399 236 70.699 233.6 75.299C228.2 85.399 227.6 87.999 229.4 92.499C232 98.799 239.4 98.099 244.9 91.099C248.3 86.799 253.5 78.099 254.5 75.199C255.9 70.699 253.4 73.299 250.1 79.699C246.2 87.099 239.8 94.399 237.8 93.799C234.9 92.799 236.6 85.399 242.3 73.399C245.4 66.799 248 60.899 248 60.199C248 59.399 245.5 58.999 239.4 58.999H230.7L233.3 56.999C234.7 55.899 236.4 53.399 237 51.399C238 48.499 237.9 47.499 236.6 45.499C234.8 42.799 232.8 42.299 231.2 44.199ZM213.6 58.499C214.7 61.399 212.8 65.499 208.5 69.699C204.4 73.599 196.8 77.099 195.4 75.699C194.5 74.799 202.6 63.399 206.7 60.099C210.8 56.699 212.8 56.199 213.6 58.499Z" fill="black"/>
<path d="M694.2 44.1979C693.7 44.8979 692.3 49.1979 691.1 53.6979C688.5 63.7979 682.7 77.4979 677.7 85.2979C675.6 88.5979 674.1 91.6979 674.3 92.2979C674.9 94.2979 682.9 81.7979 687.2 71.8979C690.1 65.1979 692 61.9979 693.1 61.9979C696.2 61.9979 701 64.1979 701 65.5979C701 66.3979 699 70.6979 696.6 75.2979C691.2 85.3979 690.6 87.9979 692.4 92.4979C695 98.7979 702.4 98.0979 707.9 91.0979C711.3 86.7979 716.5 78.0979 717.5 75.1979C718.9 70.6979 716.4 73.2979 713.1 79.6979C709.2 87.0979 702.8 94.3979 700.8 93.7979C697.9 92.7979 699.6 85.3979 705.3 73.3979C708.4 66.7979 711 60.8979 711 60.1979C711 59.3979 708.5 58.9979 702.4 58.9979H693.7L696.3 56.9979C697.7 55.8979 699.4 53.3979 700 51.3979C701 48.4979 700.9 47.4979 699.6 45.4979C697.8 42.7979 695.8 42.2979 694.2 44.1979Z" fill="black"/>
<path d="M1042.2 44.1979C1041.7 44.8979 1040.3 49.1979 1039.1 53.6979C1036.5 63.7979 1030.7 77.4979 1025.7 85.2979C1023.6 88.5979 1022.1 91.6979 1022.3 92.2979C1022.9 94.2979 1030.9 81.7979 1035.2 71.8979C1038.1 65.1979 1040 61.9979 1041.1 61.9979C1044.2 61.9979 1049 64.1979 1049 65.5979C1049 66.3979 1047 70.6979 1044.6 75.2979C1039.2 85.3979 1038.6 87.9979 1040.4 92.4979C1043 98.7979 1050.4 98.0979 1055.9 91.0979C1059.3 86.7979 1064.5 78.0979 1065.5 75.1979C1066.9 70.6979 1064.4 73.2979 1061.1 79.6979C1057.2 87.0979 1050.8 94.3979 1048.8 93.7979C1045.9 92.7979 1047.6 85.3979 1053.3 73.3979C1056.4 66.7979 1059 60.8979 1059 60.1979C1059 59.3979 1056.5 58.9979 1050.4 58.9979H1041.7L1044.3 56.9979C1045.7 55.8979 1047.4 53.3979 1048 51.3979C1049 48.4979 1048.9 47.4979 1047.6 45.4979C1045.8 42.7979 1043.8 42.2979 1042.2 44.1979Z" fill="black"/>
<path d="M121.9 51.2997C119.4 52.9997 116.8 56.7997 112 66.1997C108.4 73.0997 104.2 79.9997 102.7 81.3997C95.8002 87.7997 102.2 99.1997 111.5 96.9997C112.1 96.8997 114.5 96.7997 117 96.7997C123.7 96.8997 127.4 95.3997 131.9 90.4997C135.2 86.8997 142 75.4997 142 73.4997C142 71.3997 139.6 74.1997 135.7 80.6997C130.3 89.9997 126.6 93.6997 122 94.5997L118.5 95.2997L121.6 91.8997C128.1 84.8997 128.5 80.5997 123.9 69.1997C119.6 58.3997 121.1 51.9997 128.1 51.9997C131.5 51.9997 132 50.4997 128.8 49.5997C125.6 48.7997 125.7 48.7997 121.9 51.2997ZM119 71.4997C120.1 81.7997 120.1 83.4997 118.6 87.4997C117.6 89.8997 116.3 92.3997 115.5 92.9997C113.5 94.5997 110.3 91.0997 109.4 86.2997C109 84.1997 108.4 81.9997 107.9 81.3997C107.4 80.6997 109.1 76.3997 112.3 70.1997C115.1 64.5997 117.6 59.9997 117.6 59.9997C117.7 59.9997 118.3 65.1997 119 71.4997ZM108 88.7997C108 89.7997 108.9 91.5997 110 92.7997L112.1 94.9997H109.7C106.4 94.9997 104.6 92.5997 105.4 89.4997C106.1 86.5997 108 86.0997 108 88.7997Z" fill="black"/>
<path d="M427.9 51.2997C425.4 52.9997 422.8 56.7997 418 66.1997C412 77.7997 408.5 83.4997 410.5 78.4997C413.5 70.5997 411.4 71.1997 407.1 79.4997C401 91.2997 392.9 97.1997 389 92.4997C388 91.2997 388.5 90.2997 391.4 86.6997C399.9 76.3997 402.8 62.6997 397.5 57.4997C388.1 47.9997 366 68.1997 366 86.2997C366 91.0997 366.4 92.4997 368.5 94.4997C371.5 97.5997 376.1 97.7997 381.4 94.9997C384.9 93.2997 385.5 93.1997 387.4 94.4997C391.6 97.4997 396.9 96.1997 402.6 90.7997L405.7 87.8997L406.3 90.8997C407.1 94.8997 410.8 97.1997 416.2 96.9997C418.6 96.8997 422 96.8997 423.9 96.8997C432.2 97.0997 439.2 91.4997 444.9 80.0997C448.3 73.4997 448.4 72.9997 447.1 72.9997C446.7 72.9997 444.2 76.4997 441.7 80.6997C436.3 89.9997 432.6 93.6997 428 94.5997L424.5 95.2997L427.6 91.8997C434.1 84.8997 434.5 80.5997 429.9 69.1997C425.6 58.3997 427.1 51.9997 434.1 51.9997C437.5 51.9997 438 50.4997 434.8 49.5997C431.6 48.7997 431.7 48.7997 427.9 51.2997ZM396 60.4997C397.9 62.7997 396.6 71.7997 393.5 77.9997C391 82.7997 390.8 83.0997 389.1 81.5997C384.9 77.7997 381.4 80.7997 382.3 87.4997C382.9 91.2997 382.7 92.0997 380.9 92.9997C379.8 93.5997 377.7 93.9997 376.2 93.7997C373.6 93.4997 373.5 93.2997 373.5 87.4997C373.6 72.9997 390 53.2997 396 60.4997ZM425 71.4997C426.1 81.7997 426.1 83.4997 424.6 87.4997C423.6 89.8997 422.3 92.3997 421.5 92.9997C419.5 94.5997 416.3 91.0997 415.4 86.2997C415 84.1997 414.4 81.9997 413.9 81.3997C413.4 80.6997 415.1 76.3997 418.3 70.1997C421.1 64.5997 423.6 59.9997 423.6 59.9997C423.7 59.9997 424.3 65.1997 425 71.4997ZM414 88.7997C414 89.7997 414.9 91.5997 416 92.7997L418.1 94.9997H415.7C412.4 94.9997 410.6 92.5997 411.4 89.4997C412.1 86.5997 414 86.0997 414 88.7997Z" fill="black"/>
<path d="M928.9 51.2997C926.4 52.9997 923.8 56.7997 919 66.1997C915.4 73.0997 911.2 79.9997 909.7 81.3997C902.8 87.7997 909.2 99.1997 918.5 96.9997C919.1 96.8997 921.5 96.7997 924 96.7997C926.5 96.8997 929.9 96.4997 931.7 95.8997C935.6 94.6997 942.3 87.5997 945.2 81.4997C946.4 78.9997 947.8 76.9997 948.2 76.9997C949.4 76.9997 949.2 77.6997 947 81.9997C945 85.8997 944.4 91.4997 945.8 93.5997C947.2 95.7997 951.3 97.1997 954.4 96.5997C957.5 95.9997 963.8 90.3997 967.2 85.1997C968.7 82.9997 968.7 83.0997 968.3 87.3997C967.8 91.1997 968.1 92.1997 970.3 94.3997C976.5 100.6 984.3 95.1997 992.4 79.1997C993.9 76.1997 994.9 73.4997 994.6 73.1997C993.9 72.4997 994.2 71.9997 989.2 80.5997C984.7 88.2997 978.8 94.2997 976.2 93.7997C974.9 93.4997 974.5 92.2997 974.6 88.7997C974.6 85.2997 976 81.3997 980.4 72.2997C983.6 65.7997 987.1 59.4997 988.3 58.1997L990.5 55.8997L985.5 56.1997L980.5 56.4997L977.1 62.9997C970.5 75.8997 964.5 85.5997 960.6 89.6997C954.3 96.6997 949.3 94.6997 952.1 86.1997C954.2 79.6997 962.8 63.2997 966.1 59.5997L969.2 55.9997H964.1C959.3 55.9997 958.9 56.1997 956.5 59.9997C955.1 62.1997 953 65.9997 951.8 68.4997C950.6 70.9997 949.1 72.9997 948.4 72.9997C947.8 72.9997 945.2 76.4997 942.7 80.6997C937.3 89.9997 933.6 93.6997 929 94.5997L925.5 95.2997L928.6 91.8997C935.1 84.8997 935.5 80.5997 930.9 69.1997C926.6 58.3997 928.1 51.9997 935.1 51.9997C938.5 51.9997 939 50.4997 935.8 49.5997C932.6 48.7997 932.7 48.7997 928.9 51.2997ZM926 71.4997C927.1 81.7997 927.1 83.4997 925.6 87.4997C924.6 89.8997 923.3 92.3997 922.5 92.9997C920.5 94.5997 917.3 91.0997 916.4 86.2997C916 84.1997 915.4 81.9997 914.9 81.3997C914.4 80.6997 916.1 76.3997 919.3 70.1997C922.1 64.5997 924.6 59.9997 924.6 59.9997C924.7 59.9997 925.3 65.1997 926 71.4997ZM915 88.7997C915 89.7997 915.9 91.5997 917 92.7997L919.1 94.9997H916.7C913.4 94.9997 911.6 92.5997 912.4 89.4997C913.1 86.5997 915 86.0997 915 88.7997Z" fill="black"/>
<path d="M1114.9 51.2992C1112.5 52.8992 1109.9 56.6992 1105.8 64.4992C1102.6 70.5992 1100 74.8992 1100 74.1992C1100 71.5992 1098.4 73.2992 1095.2 79.2992C1091.2 86.8992 1089.4 89.0992 1084.5 92.3992C1077.1 97.4992 1072 94.9992 1072 86.3992C1072 83.6992 1072.4 80.8992 1072.9 80.0992C1073.4 79.2992 1076.2 77.9992 1079.2 77.2992C1092.6 73.8992 1102.1 60.3992 1094.5 55.3992C1087.1 50.5992 1072.5 61.4992 1067 75.7992C1062.1 88.5992 1066.2 97.1992 1077.1 97.1992C1082.6 97.0992 1085.2 95.9992 1089.6 91.7992L1092.7 88.8992L1093.4 91.3992C1094.3 94.9992 1098 97.0992 1103.2 96.9992C1105.6 96.8992 1109 96.8992 1110.9 96.8992C1119.2 97.0992 1126.2 91.4992 1131.9 80.0992C1135.3 73.4992 1135.4 72.9992 1134.1 72.9992C1133.7 72.9992 1131.2 76.4992 1128.7 80.6992C1123.3 89.9992 1119.6 93.6992 1115 94.5992L1111.5 95.2992L1114.6 91.8992C1121.1 84.8992 1121.5 80.5992 1116.9 69.1992C1112.6 58.3992 1114.1 51.9992 1121.1 51.9992C1124.5 51.9992 1125 50.4992 1121.8 49.5992C1118.6 48.7992 1118.7 48.7992 1114.9 51.2992ZM1093.6 58.4992C1094.7 61.3992 1092.8 65.4992 1088.5 69.6992C1084.4 73.5992 1076.8 77.0992 1075.4 75.6992C1074.5 74.7992 1082.6 63.3992 1086.7 60.0992C1090.8 56.6992 1092.8 56.1992 1093.6 58.4992ZM1112 71.4992C1113.1 81.7992 1113.1 83.4992 1111.6 87.4992C1110.6 89.8992 1109.3 92.3992 1108.5 92.9992C1106.5 94.5992 1103.3 91.0992 1102.4 86.2992C1102 84.1992 1101.4 81.9992 1100.9 81.3992C1100.4 80.6992 1102.1 76.3992 1105.3 70.1992C1108.1 64.5992 1110.6 59.9992 1110.6 59.9992C1110.7 59.9992 1111.3 65.1992 1112 71.4992ZM1101 88.7992C1101 89.7992 1101.9 91.5992 1103 92.7992L1105.1 94.9992H1102.7C1099.4 94.9992 1097.6 92.5992 1098.4 89.4992C1099.1 86.5992 1101 86.0992 1101 88.7992Z" fill="black"/>
<path d="M1573.9 51.2992C1571.5 52.8992 1568.9 56.6992 1564.8 64.4992C1561.6 70.5992 1559 74.8992 1559 74.1992C1559 71.5992 1557.4 73.2992 1554.2 79.2992C1550.2 86.8992 1548.4 89.0992 1543.5 92.3992C1536.1 97.4992 1531 94.9992 1531 86.3992C1531 83.6992 1531.4 80.8992 1531.9 80.0992C1532.4 79.2992 1535.2 77.9992 1538.2 77.2992C1551.6 73.8992 1561.1 60.3992 1553.5 55.3992C1546.1 50.5992 1531.5 61.4992 1526 75.7992C1521.1 88.5992 1525.2 97.1992 1536.1 97.1992C1541.6 97.0992 1544.2 95.9992 1548.6 91.7992L1551.7 88.8992L1552.4 91.3992C1553.3 94.9992 1557 97.0992 1562.2 96.9992C1564.6 96.8992 1568 96.8992 1569.9 96.8992C1578.2 97.0992 1585.2 91.4992 1590.9 80.0992C1594.3 73.4992 1594.4 72.9992 1593.1 72.9992C1592.7 72.9992 1590.2 76.4992 1587.7 80.6992C1582.3 89.9992 1578.6 93.6992 1574 94.5992L1570.5 95.2992L1573.6 91.8992C1580.1 84.8992 1580.5 80.5992 1575.9 69.1992C1571.6 58.3992 1573.1 51.9992 1580.1 51.9992C1583.5 51.9992 1584 50.4992 1580.8 49.5992C1577.6 48.7992 1577.7 48.7992 1573.9 51.2992ZM1552.6 58.4992C1553.7 61.3992 1551.8 65.4992 1547.5 69.6992C1543.4 73.5992 1535.8 77.0992 1534.4 75.6992C1533.5 74.7992 1541.6 63.3992 1545.7 60.0992C1549.8 56.6992 1551.8 56.1992 1552.6 58.4992ZM1571 71.4992C1572.1 81.7992 1572.1 83.4992 1570.6 87.4992C1569.6 89.8992 1568.3 92.3992 1567.5 92.9992C1565.5 94.5992 1562.3 91.0992 1561.4 86.2992C1561 84.1992 1560.4 81.9992 1559.9 81.3992C1559.4 80.6992 1561.1 76.3992 1564.3 70.1992C1567.1 64.5992 1569.6 59.9992 1569.6 59.9992C1569.7 59.9992 1570.3 65.1992 1571 71.4992ZM1560 88.7992C1560 89.7992 1560.9 91.5992 1562 92.7992L1564.1 94.9992H1561.7C1558.4 94.9992 1556.6 92.5992 1557.4 89.4992C1558.1 86.5992 1560 86.0992 1560 88.7992Z" fill="black"/>
<path d="M275.9 55.4C263.3 59.9 253 74.1 253 86.9C253 92.7 255.8 97 259.6 97C264.6 97 267.4 94.8 275.9 83.8C276.3 83.4 276.3 85.3 276.2 88C275.8 93.8 278.2 97 283 97C287 97 293.3 90.6 297.9 82.1C303.1 72.3 302.5 75.1 297 86C294.3 91.5 292 96.2 292 96.5C292 96.8 293.5 97 295.4 97C298.6 97 299.2 96.5 303.5 89.2C309.3 79.7 315.5 72.3 320.9 68.6C327.5 64 327.4 65.1 320.6 80.5C316.8 89.1 316.1 94 318.5 96C320.4 97.5 320.1 97.7 323.3 91.4C329.7 78.6 348 60.8 348 67.4C348 68.1 346.2 71.8 344 75.6C339.2 83.9 337.9 90.7 340.4 94.5C341.8 96.6 342.8 97 346.7 97C351 97 351.8 96.6 355.9 92.2C361 87 368.9 73 366.8 73C366.1 73.1 364.4 75.3 363.2 78.1C360.2 84.4 353.5 92.9 350.7 93.9C347.4 95.2 345.7 93.3 346.5 89.1C346.8 87.1 350.1 79.4 353.8 72C357.5 64.6 360.6 58.1 360.8 57.7C361.5 56.3 355.6 58.2 349.5 61.4C346.2 63.1 340.4 67.4 336.6 71L329.7 77.5L333.8 69.6C338.5 60.7 338.8 59.5 336.2 58.1C332.8 56.3 323.5 62.3 312.8 73.5C310.7 75.6 309 77.1 309 76.8C309 75.8 316 63.9 318.8 60.2L321.2 57H317.1C313.2 57 312.8 57.3 309.5 62.4C307.6 65.4 305.3 69.4 304.3 71.4C303.2 73.8 302.4 74.6 301.9 73.8C301 72.3 301.3 71.8 296.2 80.6C291.5 88.7 286.9 94 284.6 94C281.5 94 282.6 86.2 287.1 76.9C289.3 72.3 291.9 67.7 292.7 66.8C294.1 65.2 294.1 65 292.7 64.4C288.8 62.9 285.5 64.5 282.5 69.3C270.5 88.5 265.2 94.6 261.1 93.8C258.4 93.3 258.5 85.9 261.3 80.3C269.6 64 283.6 53 288.6 58.9C290.6 61.2 293.4 61.8 292.8 59.7C292 57.5 285.8 54 282.6 54C280.9 54.1 277.9 54.7 275.9 55.4Z" fill="black"/>
<path d="M1425.9 55.3996C1413.3 59.8996 1403 74.0996 1403 86.8996C1403 92.6996 1405.8 96.9996 1409.6 96.9996C1414.6 96.9996 1417.4 94.7996 1425.9 83.7996C1426.3 83.3996 1426.3 85.2996 1426.2 87.9996C1425.9 91.7996 1426.2 93.1996 1427.9 94.8996C1431.4 98.3996 1435.4 97.5996 1440.3 92.5996C1444.1 88.6996 1452 75.9996 1452 73.8996C1452 71.5996 1450.2 73.6996 1446.6 79.9996C1442.1 87.9996 1437 93.9996 1434.6 93.9996C1431.5 93.9996 1432.6 86.1996 1437.1 76.8996C1439.3 72.2996 1441.9 67.6996 1442.7 66.7996C1444.1 65.1996 1444.1 64.9996 1442.7 64.3996C1438.8 62.8996 1435.5 64.4996 1432.5 69.2996C1420.5 88.4996 1415.2 94.5996 1411.1 93.7996C1408.4 93.2996 1408.5 85.8996 1411.3 80.2996C1419.6 63.9996 1433.6 52.9996 1438.6 58.8996C1440.6 61.1996 1443.4 61.7996 1442.8 59.6996C1442 57.4996 1435.8 53.9996 1432.6 53.9996C1430.9 54.0996 1427.9 54.6996 1425.9 55.3996Z" fill="black"/>
<path d="M165.1 58.2C162.8 60 159.3 63.9 157.3 66.8C155.3 69.6 153.5 71.9 153.4 71.7C153.2 71.5 153.5 69.8 154 67.9C154.6 66.1 155 62.6 155 60.2V55.9L150.3 56.2L145.6 56.5L145.9 61.7C146.1 65.7 145.5 68.4 143.6 72.6C141.6 77 141.4 78.1 142.6 77.6C143.8 77.1 144 77.5 143.5 79.3C141.2 86.6 127.9 113.7 121.3 124.3C119.9 126.5 119 128.3 119.2 128.5C119.4 128.6 121 129.1 122.8 129.5C125.6 130.1 126.4 129.8 128.8 127.2C130.3 125.5 134.1 117.6 137.4 109.5C142.2 97.6 143.6 95 144.9 95.6C148.2 97.1 153.3 97.2 157.8 95.9C168.2 93 179.5 76.7 179.5 64.7C179.5 59.7 179.1 58.5 177.1 56.9C173.7 54.1 170 54.5 165.1 58.2ZM172.8 59.2C174.9 61.3 174.1 65.5 170.4 73C164.5 84.7 152.4 95.7 146.9 94.3C144.2 93.6 144.4 92.7 149.6 83.6C161.6 62.8 168.8 55.2 172.8 59.2Z" fill="black"/>
<path d="M497.8 56.9993C490.9 60.6993 484.1 71.3993 481.8 81.9993C479.7 91.9993 484.5 97.4993 495 97.1993C504.1 96.9993 509.9 92.1993 516.4 79.1993C517.9 76.1993 518.9 73.4993 518.6 73.1993C517.9 72.4993 518 72.3993 514 79.3993C507.9 90.2993 502.4 94.9993 495.7 94.9993C485.2 94.9993 486.2 78.3993 497.6 64.3993C501.7 59.2993 507.4 56.2993 509.6 57.9993C511.5 59.6993 511.4 61.8993 509 65.7993C506.5 69.7993 506.5 69.9993 508.9 69.9993C511.5 69.9993 515 65.3993 515 61.8993C515 55.2993 505.9 52.7993 497.8 56.9993Z" fill="black"/>
<path d="M535.3 57.0969C521.8 63.7969 511.9 86.9969 519.5 94.4969C522.5 97.5969 527.1 97.7969 532.4 94.9969C535.9 93.2969 536.5 93.1969 538.4 94.4969C543 97.7969 549.6 95.5969 555 89.2969L558.2 85.4969L555.6 90.6969C554.2 93.5969 553 96.2969 553 96.7969C553 97.2969 554.7 97.3969 556.7 97.0969C560 96.5969 560.8 95.6969 564.7 89.1969C570.1 79.8969 575.2 73.6969 580.9 69.3969C589 63.1969 590 65.1969 584 75.6969C577.6 86.6969 577.3 93.9969 583.2 96.3969C587.6 98.2969 591.8 96.8969 596.2 91.8969C600.9 86.6969 607.3 75.4969 606.8 73.1969C606.5 71.9969 605.7 72.8969 604.1 75.9969C597.2 89.1969 589.8 96.7969 587 93.4969C585 91.0969 586.6 85.7969 593.8 71.6969C597.5 64.3969 600.7 58.0969 600.8 57.6969C601.5 56.2969 595.7 58.1969 589.5 61.3969C586.2 63.0969 580.2 67.5969 576.1 71.4969L568.7 78.4969L571.5 73.4969C573.1 70.6969 576.1 65.8969 578.2 62.6969L582 56.9969H578.1C573.6 56.9969 572.8 57.8969 566.6 68.9969C564.6 72.5969 563 74.8969 563 74.1969C563 71.4969 561.3 73.2969 558.1 79.4969C552 91.2969 543.9 97.1969 540 92.4969C539 91.2969 539.5 90.2969 542.4 86.6969C550.9 76.3969 553.8 62.6969 548.5 57.4969C545.5 54.3969 541 54.2969 535.3 57.0969ZM547 60.4969C548.9 62.7969 547.6 71.7969 544.5 77.9969C542 82.7969 541.8 83.0969 540.1 81.5969C535.9 77.7969 532.4 80.7969 533.3 87.4969C533.9 91.2969 533.7 92.0969 531.9 92.9969C530.8 93.5969 528.7 93.9969 527.2 93.7969C524.6 93.4969 524.5 93.2969 524.5 87.4969C524.6 72.9969 541 53.2969 547 60.4969Z" fill="black"/>
<path d="M767.8 56.9993C760.9 60.6993 754.1 71.3993 751.8 81.9993C749.7 91.9993 754.5 97.4993 765 97.1993C774.1 96.9993 779.9 92.1993 786.4 79.1993C787.9 76.1993 788.9 73.4993 788.6 73.1993C787.9 72.4993 788 72.3993 784 79.3993C777.9 90.2993 772.4 94.9993 765.7 94.9993C755.2 94.9993 756.2 78.3993 767.6 64.3993C771.7 59.2993 777.4 56.2993 779.6 57.9993C781.5 59.6993 781.4 61.8993 779 65.7993C776.5 69.7993 776.5 69.9993 778.9 69.9993C781.5 69.9993 785 65.3993 785 61.8993C785 55.2993 775.9 52.7993 767.8 56.9993Z" fill="black"/>
<path d="M805.3 57.0969C791.8 63.7969 781.9 86.9969 789.5 94.4969C792.5 97.5969 797.1 97.7969 802.4 94.9969C805.9 93.2969 806.5 93.1969 808.4 94.4969C813 97.7969 819.6 95.5969 825 89.2969L828.2 85.4969L825.6 90.6969C824.2 93.5969 823 96.2969 823 96.7969C823 97.2969 824.7 97.3969 826.7 97.0969C830 96.5969 830.8 95.6969 834.7 89.1969C840.1 79.8969 845.2 73.6969 850.9 69.3969C859 63.1969 860 65.1969 854 75.6969C847.6 86.6969 847.3 93.9969 853.2 96.3969C857.6 98.2969 861.8 96.8969 866.2 91.8969C870.9 86.6969 877.3 75.4969 876.8 73.1969C876.5 71.9969 875.7 72.8969 874.1 75.9969C867.2 89.1969 859.8 96.7969 857 93.4969C855 91.0969 856.6 85.7969 863.8 71.6969C867.5 64.3969 870.7 58.0969 870.8 57.6969C871.5 56.2969 865.7 58.1969 859.5 61.3969C856.2 63.0969 850.2 67.5969 846.1 71.4969L838.7 78.4969L841.5 73.4969C843.1 70.6969 846.1 65.8969 848.2 62.6969L852 56.9969H848.1C843.6 56.9969 842.8 57.8969 836.6 68.9969C834.6 72.5969 833 74.8969 833 74.1969C833 71.4969 831.3 73.2969 828.1 79.4969C822 91.2969 813.9 97.1969 810 92.4969C809 91.2969 809.5 90.2969 812.4 86.6969C820.9 76.3969 823.8 62.6969 818.5 57.4969C815.5 54.3969 811 54.2969 805.3 57.0969ZM817 60.4969C818.9 62.7969 817.6 71.7969 814.5 77.9969C812 82.7969 811.8 83.0969 810.1 81.5969C805.9 77.7969 802.4 80.7969 803.3 87.4969C803.9 91.2969 803.7 92.0969 801.9 92.9969C800.8 93.5969 798.7 93.9969 797.2 93.7969C794.6 93.4969 794.5 93.2969 794.5 87.4969C794.6 72.9969 811 53.2969 817 60.4969Z" fill="black"/>
<path d="M1158.1 58.2C1155.8 60 1152.3 63.9 1150.3 66.8C1148.3 69.6 1146.5 71.9 1146.4 71.7C1146.2 71.5 1146.5 69.8 1147 67.9C1147.6 66.1 1148 62.6 1148 60.2V55.9L1143.3 56.2L1138.6 56.5L1138.9 61.7C1139.1 65.7 1138.5 68.4 1136.6 72.6C1134.6 77 1134.4 78.1 1135.6 77.6C1136.8 77.1 1137 77.5 1136.5 79.3C1134.2 86.6 1120.9 113.7 1114.3 124.3C1112.9 126.5 1112 128.3 1112.2 128.5C1112.4 128.6 1114 129.1 1115.8 129.5C1118.6 130.1 1119.4 129.8 1121.8 127.2C1123.3 125.5 1127.1 117.6 1130.4 109.5C1135.2 97.6 1136.6 95 1137.9 95.6C1141.2 97.1 1146.3 97.2 1150.8 95.9C1161.2 93 1172.5 76.7 1172.5 64.7C1172.5 59.7 1172.1 58.5 1170.1 56.9C1166.7 54.1 1163 54.5 1158.1 58.2ZM1165.8 59.2C1167.9 61.3 1167.1 65.5 1163.4 73C1157.5 84.7 1145.4 95.7 1139.9 94.3C1137.2 93.6 1137.4 92.7 1142.6 83.6C1154.6 62.8 1161.8 55.2 1165.8 59.2Z" fill="black"/>
<path d="M1188.6 59.7976C1184.5 66.3976 1179.9 75.9976 1180.5 76.9976C1180.8 77.4976 1180.2 79.6976 1179 81.8976C1177 85.8976 1176.4 91.4976 1177.8 93.5976C1179.2 95.7976 1183.3 97.1976 1186.4 96.5976C1189.5 95.9976 1195.8 90.3976 1199.2 85.1976C1200.7 82.9976 1200.7 83.0976 1200.3 87.3976C1199.8 91.1976 1200.1 92.1976 1202.3 94.3976C1208.5 100.598 1216.3 95.1976 1224.4 79.1976C1225.9 76.1976 1226.9 73.4976 1226.6 73.1976C1225.9 72.4976 1226.2 71.9976 1221.2 80.5976C1216.7 88.2976 1210.8 94.2976 1208.2 93.7976C1206.9 93.4976 1206.5 92.2976 1206.6 88.7976C1206.6 85.2976 1208 81.3976 1212.4 72.2976C1215.6 65.7976 1219.1 59.4976 1220.3 58.1976L1222.5 55.8976L1217.5 56.1976L1212.5 56.4976L1209.1 62.9976C1202.5 75.8976 1196.5 85.5976 1192.6 89.6976C1186.3 96.6976 1181.3 94.6976 1184.1 86.1976C1186.2 79.6976 1194.8 63.2976 1198.1 59.5976L1201.2 55.9976H1196.1C1191.3 55.9976 1190.9 56.1976 1188.6 59.7976Z" fill="black"/>
<path d="M1240 144.499C1225.4 148.599 1210.7 159.299 1202.4 171.699L1198.7 177.299L1196.9 174.899C1191.9 168.499 1191.7 156.999 1196.4 149.999C1199.7 144.999 1198.9 143.199 1195.3 147.499C1187.3 157.199 1187 169.299 1194.7 178.799C1196.6 181.099 1196.5 181.299 1193.8 189.299C1187.2 208.999 1192.3 228.499 1206.1 235.299C1218.1 241.399 1236.7 237.099 1254.4 224.199L1259.2 220.699L1258.5 224.099C1257.5 229.099 1253.2 239.699 1249.9 245.699L1247 250.799L1238.2 251.499C1222.1 252.699 1213.6 254.099 1204.1 257.299C1192.9 260.899 1183.6 266.899 1180.6 272.199C1178.7 275.699 1178.6 276.199 1180 278.699C1182.7 283.499 1187.5 285.499 1196.5 285.399C1211.4 285.299 1228.7 277.099 1243 263.299L1251.5 254.999H1261.2C1266.5 254.999 1273.2 255.499 1276 256.099C1281.2 257.199 1283.7 256.699 1281 254.999C1279.4 253.999 1269.8 252.399 1259.8 251.399L1253.2 250.799L1256.1 245.999C1264.7 232.099 1271.2 212.999 1269.1 208.299C1268 205.799 1265.1 205.299 1262 206.999C1260.9 207.599 1258.3 211.099 1256.1 214.799C1251.9 221.999 1249.4 224.199 1241.2 228.399C1230.5 233.799 1217.4 235.299 1210.6 231.899C1202.2 227.499 1198.5 219.199 1199.2 206.099C1199.7 196.799 1203.3 185.399 1205.3 186.399C1219.4 192.599 1229.2 194.599 1241.5 193.599C1259.5 192.199 1272.3 186.299 1278.9 176.299C1286.5 164.899 1282.1 151.799 1268.7 145.999C1261.9 142.999 1247.9 142.299 1240 144.499ZM1265.3 148.199C1267.5 148.899 1271.1 151.099 1273.2 153.099C1276.6 156.399 1277 157.199 1277 161.899C1277 174.099 1265.8 184.499 1248.3 188.599C1235.2 191.699 1216.1 189.399 1208.1 183.799C1205.9 182.299 1205.9 182.299 1211 174.699C1219.2 162.499 1232.2 152.199 1244.3 148.399C1249.7 146.799 1260.1 146.699 1265.3 148.199ZM1241.8 258.199C1228.1 276.199 1187.7 289.699 1186.2 276.899C1185.8 273.499 1191.6 268.199 1200.8 263.599C1212 257.999 1223.2 255.399 1237.4 255.099L1244.3 254.999L1241.8 258.199Z" fill="black"/>
<path d="M826 145.899C792.2 156.799 767.8 192.099 779 213.999C783.1 222.099 793 227.599 801.9 226.799C816.6 225.399 832.1 209.399 830.7 197.099C829.9 189.499 822.5 184.899 815.6 187.599C812.6 188.699 814 189.999 818.3 189.999C823.1 189.999 824.2 190.599 825.9 193.699C827.6 196.999 827.2 200.999 824.6 206.599C819.6 217.499 811 223.899 801.7 223.999C790 223.999 783 216.099 783 202.999C783 183.999 799.4 162.299 822.3 150.999C835.4 144.499 845.4 144.599 850.1 151.099C852.8 154.999 853.7 164.699 852 173.199C849.1 188.199 838 217.599 828.4 235.899C825.4 241.599 823.1 246.899 823.4 247.599C824.2 249.599 828.4 249.299 830.8 247.199C831.9 246.299 837 236.499 842.2 225.499C852.4 203.799 859.4 191.899 870.7 176.899C878.6 166.399 883.7 161.399 887.4 160.399C894.5 158.699 896.6 162.499 895 174.199C892.4 193.099 885.6 213.499 875.8 232.099C870.6 241.999 870.1 244.999 874 244.999C877.8 244.999 880 242.999 883.1 236.699C887.4 228.299 899.1 209.499 907.7 197.399C920.7 179.099 935.2 165.499 941 166.199C943.3 166.499 943.5 166.899 943.4 171.499C943.3 175.499 941.7 179.999 935.3 194.099C925.3 215.699 922 225.899 922 234.599C922 242.199 923.7 246.799 927.5 249.799C931.3 252.799 940.4 255.399 943.8 254.399C946.2 253.799 946 253.599 941.6 252.899C924.4 250.199 925 232.499 943.5 192.999C952 174.999 953.5 170.499 952.6 165.699C951.7 160.899 949.9 159.599 944.5 160.299C934 161.399 917 177.999 897.6 205.699C894.9 209.699 892.5 212.799 892.4 212.699C892.2 212.499 893.8 206.999 895.9 200.499C903.6 176.499 904.7 164.299 899.7 159.299C895.2 154.699 885.8 156.599 878 163.599C873.2 167.899 865.2 178.599 858.6 189.299C855.9 193.599 853.5 196.899 853.3 196.599C853 196.399 854.3 191.799 856 186.299C863 164.799 860.2 149.399 848.7 145.099C844.4 143.399 832.2 143.899 826 145.899Z" fill="black"/>
<path d="M404.3 167.198C403.9 167.798 399.9 175.298 395.5 183.898C388.8 196.898 387.2 199.398 385.5 199.198C373.8 197.298 365.4 200.798 358.5 210.498C353.2 217.898 349.5 228.398 350.4 233.398C351.3 238.298 355.4 241.398 360 240.598C362.6 240.198 364.9 238.598 368.8 234.498L374 228.898V232.298C374 234.298 374.9 236.898 376.1 238.398C381.3 244.998 391 238.698 398.6 223.798C399.9 221.198 401 218.598 401 217.998C401 216.198 399.2 216.898 398.5 218.998C397.2 222.998 388.3 235.498 385.7 236.898C382.6 238.498 380 237.098 380 233.798C380 228.598 394 200.098 408.1 176.798C411.4 171.398 414 166.798 414 166.498C414 165.498 405.1 165.998 404.3 167.198ZM384.4 201.598C385.8 202.098 385.5 203.198 382.4 208.898C369.5 231.998 360.4 241.298 356.9 234.898C354.5 230.398 361 217.198 369.7 208.898C377.5 201.398 380.3 199.998 384.4 201.598Z" fill="black"/>
<path d="M1554 168.497C1551.9 171.097 1522 227.297 1522.5 227.797C1523.2 228.497 1521.8 230.297 1539 205.597C1556.5 180.397 1564 169.097 1564 167.897C1564 166.397 1555.3 166.897 1554 168.497Z" fill="black"/>
<path d="M1056.6 170.4C1053.8 173.5 1045.4 189.1 1030.7 218.5L1019.2 241.5L1023 241.2C1026.6 240.8 1027.1 240.3 1031.8 232.6C1037.6 223.1 1044.6 215.1 1049.6 211.9C1055.4 208.4 1055.6 210.6 1050.5 220.4C1042.9 234.9 1044.6 241.7 1055.7 241.1C1059 240.9 1063.6 236.5 1067.8 229.5L1071.6 223.1L1071.2 229.3C1070.9 234.5 1071.2 235.9 1073 238.2C1076.9 243.2 1083.3 241.3 1089.6 233.3C1091.7 230.6 1093.6 228.2 1093.9 227.8C1094.3 227.4 1094.3 229.3 1094.2 232C1093.9 235.8 1094.2 237.2 1095.9 238.9C1100 243 1105.6 241 1111 233.7L1114 229.6V232.8C1114 238.2 1119.8 242.4 1125.5 241C1126.1 240.9 1128.5 240.8 1131 240.8C1137.7 240.9 1141.4 239.4 1145.9 234.5C1149.2 230.9 1156 219.5 1156 217.5C1156 215.4 1153.6 218.2 1149.7 224.7C1144.3 234 1140.6 237.7 1136 238.6L1132.5 239.3L1135.6 235.9C1142.1 228.9 1142.5 224.6 1137.9 213.2C1133.6 202.4 1135.1 196 1142.1 196C1145.7 196 1145.9 194.4 1142.5 193.6C1139.3 192.8 1134.8 195.1 1132.2 198.7C1131.1 200.3 1127.7 206.5 1124.7 212.7C1121.6 218.8 1118.6 224.1 1118 224.5C1116.5 225.4 1116.8 223.7 1118.5 221.4C1120 219.4 1120.5 217 1119.3 217C1118.8 217 1116.7 220.2 1114.6 224C1110.1 232 1105 238 1102.6 238C1099.5 238 1100.6 230.2 1105.1 220.9C1107.3 216.3 1109.9 211.7 1110.7 210.8C1112.1 209.2 1112.1 209 1110.7 208.4C1106.8 206.9 1103.5 208.5 1100.5 213.3C1088.5 232.5 1083.2 238.6 1079.1 237.8C1076.4 237.3 1076.5 229.9 1079.3 224.3C1087.6 208 1101.6 197 1106.6 202.9C1108.6 205.2 1111.4 205.8 1110.8 203.7C1110.5 203.1 1108.8 201.4 1106.9 200.2C1099.7 195.2 1086.9 200.1 1079 210.8C1076.5 214.1 1074 216.9 1073.3 216.9C1072.7 217 1070.4 220.3 1068.1 224.4C1061.1 237.2 1054 242.7 1053.2 235.9C1052.8 232.4 1057.1 221.4 1063 210.6C1065.8 205.7 1068 201.6 1068 201.4C1068 198.3 1050 208.2 1043 215C1039.7 218.3 1037 220.7 1037 220.4C1037 218.5 1060.1 177.4 1064.2 172.1C1066.4 169.2 1065.8 168 1061.9 168C1060 168 1058.1 168.9 1056.6 170.4ZM1133 215.5C1134.1 225.8 1134.1 227.5 1132.6 231.5C1131.6 233.9 1130.3 236.4 1129.5 237C1127.5 238.6 1124.3 235.1 1123.4 230.3C1123 228.2 1122.4 226 1121.9 225.4C1121.4 224.7 1123.1 220.4 1126.3 214.2C1129.1 208.6 1131.6 204 1131.6 204C1131.7 204 1132.3 209.2 1133 215.5ZM1122 232.8C1122 233.8 1122.9 235.6 1124 236.8L1126.1 239H1123.7C1120.4 239 1118.6 236.6 1119.4 233.5C1120.1 230.6 1122 230.1 1122 232.8Z" fill="black"/>
<path d="M235 172C229.2 173.1 223.2 176.8 216.6 183.3C208.9 191 205.1 196.6 200 207.2C193.7 220.4 192.8 229.4 197.1 236.6C199.4 240.4 202.8 242 208.7 242C215.3 242 221.4 238.7 229.1 230.9C239.9 220.1 250 197.7 250 184.5C250 178.3 247.2 173.3 243.3 172.4C241.8 172.1 240.1 171.7 239.5 171.6C239 171.5 236.9 171.7 235 172ZM243.2 175.7C250.4 182.2 236.4 218.7 220.8 233.7C213.9 240.4 208.6 241.7 204.5 237.5C201.5 234.6 201.2 229.9 203.6 221.9C209 203.6 222.6 181.9 232.5 175.8C236.2 173.6 240.8 173.5 243.2 175.7Z" fill="black"/>
<path d="M312 172.998C311.2 173.598 305.5 173.898 299.3 173.798C291.1 173.698 287.7 173.998 286.5 174.998C284 177.098 267 206.198 267 208.398C267 208.698 270.2 207.398 274.2 205.498C282.9 201.298 286.2 201.098 289.7 204.598C291.9 206.798 292.2 207.698 291.6 211.598C290.3 221.198 281.4 232.198 270.8 237.398C265.8 239.798 264.1 240.198 258.5 239.798C250.7 239.298 249.3 241.398 256.8 242.398C274.6 244.698 300 225.398 300 209.398C300 199.598 288.2 195.998 275.8 201.998L271.9 203.898L274.3 199.698C275.5 197.398 278.4 192.498 280.5 188.898L284.5 182.198L294.5 181.798C305 181.398 309 180.098 313 175.798C316 172.498 315.4 170.798 312 172.998Z" fill="black"/>
<path d="M1409.7 187.8C1407.6 190.1 1407.5 193.4 1409.6 195C1413.4 198.2 1420.2 191.4 1417 187.6C1415.3 185.5 1411.7 185.6 1409.7 187.8Z" fill="black"/>
<path d="M594.2 188.197C593.7 188.897 592.3 193.197 591.1 197.697C588.5 207.797 582.7 221.497 577.7 229.297C575.6 232.597 574.1 235.697 574.3 236.297C574.9 238.297 582.9 225.797 587.2 215.897C590.1 209.197 592 205.997 593.1 205.997C596.2 205.997 601 208.197 601 209.597C601 210.397 599 214.697 596.6 219.297C591.2 229.397 590.6 231.997 592.4 236.497C594.3 240.997 598 241.997 602.9 239.397C605.9 237.797 611.1 231.197 615.5 223.497C616.3 222.197 616.5 223.597 616.2 228.797C615.8 235.297 616 236.097 618.3 238.397C621.5 241.597 626 241.797 631.4 238.997C634.9 237.297 635.5 237.197 637.4 238.497C641.8 241.597 648.6 239.697 653.4 233.897C656.2 230.597 662 219.897 662 217.997C662 215.497 660.3 217.497 657.1 223.497C651 235.297 642.9 241.197 639 236.497C638 235.297 638.5 234.297 641.4 230.697C649.9 220.397 652.8 206.697 647.5 201.497C641.4 195.297 628.2 201.797 620.9 214.497C619.3 217.197 618 218.897 618 218.197C618 215.497 616.3 217.297 613.1 223.697C609.2 231.097 602.8 238.397 600.8 237.797C597.9 236.797 599.6 229.397 605.3 217.397C608.4 210.797 611 204.897 611 204.197C611 203.397 608.5 202.997 602.4 202.997H593.7L596.3 200.997C597.7 199.897 599.4 197.397 600 195.397C601 192.497 600.9 191.497 599.6 189.497C597.8 186.797 595.8 186.297 594.2 188.197ZM646 204.497C647.9 206.797 646.6 215.797 643.5 221.997C641 226.797 640.8 227.097 639.1 225.597C634.9 221.797 631.4 224.797 632.3 231.497C632.9 235.297 632.7 236.097 630.9 236.997C629.8 237.597 627.7 237.997 626.2 237.797C623.6 237.497 623.5 237.297 623.5 231.497C623.6 216.997 640 197.297 646 204.497Z" fill="black"/>
<path d="M1291.2 188.198C1290.7 188.898 1289.3 193.198 1288.1 197.698C1285.5 207.798 1279.7 221.498 1274.7 229.298C1272.6 232.598 1271.1 235.698 1271.3 236.298C1271.9 238.298 1279.9 225.798 1284.2 215.898C1287.1 209.198 1289 205.998 1290.1 205.998C1293.2 205.998 1298 208.198 1298 209.598C1298 210.398 1296 214.698 1293.6 219.298C1288.2 229.398 1287.6 231.998 1289.4 236.498C1292 242.798 1299.4 242.098 1304.9 235.098C1308.3 230.798 1313.5 222.098 1314.5 219.198C1315.9 214.698 1313.4 217.298 1310.1 223.698C1306.2 231.098 1299.8 238.398 1297.8 237.798C1294.9 236.798 1296.6 229.398 1302.3 217.398C1305.4 210.798 1308 204.898 1308 204.198C1308 203.398 1305.5 202.998 1299.4 202.998H1290.7L1293.3 200.998C1294.7 199.898 1296.4 197.398 1297 195.398C1298 192.498 1297.9 191.498 1296.6 189.498C1294.8 186.798 1292.8 186.298 1291.2 188.198Z" fill="black"/>
<path d="M1483.9 195.3C1481.5 196.9 1478.9 200.6 1474.9 208.4C1471.8 214.4 1469 218.6 1468.8 217.9C1468.1 216.2 1468.2 216.1 1463.2 224.6C1458.5 232.7 1453.9 238 1451.6 238C1448.5 238 1449.6 230.2 1454.1 220.9C1456.3 216.3 1458.9 211.7 1459.7 210.8C1461.1 209.2 1461.1 209 1459.7 208.4C1455.8 206.9 1452.5 208.5 1449.5 213.3C1437.5 232.5 1432.2 238.6 1428.1 237.8C1425.4 237.3 1425.5 229.9 1428.3 224.3C1436.6 208 1450.6 197 1455.6 202.9C1457.6 205.2 1460.4 205.8 1459.8 203.7C1459.5 203.1 1457.8 201.4 1455.9 200.2C1453.1 198.2 1451.6 197.9 1447.8 198.4C1439.1 199.3 1432.1 204.1 1426.1 213.1C1423.8 216.5 1422 218.7 1422 218.1C1422 215.8 1420.1 218.1 1416.9 224C1415.2 227.2 1412.2 231.8 1410.3 234C1407.3 237.4 1406.2 238.1 1403.6 237.8C1400.8 237.5 1400.5 237.2 1400.6 234C1400.6 232 1403.4 224.4 1406.8 216.6C1410.2 209 1412.7 202.4 1412.4 201.9C1412.1 201.4 1409.9 201 1407.5 201C1403.8 201 1403.3 201.3 1403.7 202.8C1403.9 203.8 1402.2 209.3 1399.9 215.1C1394.1 229.6 1393.7 231.5 1395 235.6C1396.3 239.5 1398.5 241 1402.9 241C1407.2 241 1413.2 235.4 1418.2 226.6C1420.4 222.7 1421.9 220.4 1421.4 221.5C1421 222.6 1420.5 226.2 1420.3 229.5C1419.9 234.6 1420.1 235.9 1422 238.2C1425.9 243.2 1432.3 241.3 1438.6 233.3C1440.7 230.6 1442.6 228.2 1442.9 227.8C1443.3 227.4 1443.3 229.3 1443.2 232C1442.9 235.8 1443.2 237.2 1444.9 238.9C1448.4 242.4 1452.4 241.7 1457.4 236.5L1461.8 232.1L1462.3 235C1463.1 238.9 1466.8 241.2 1472.2 241C1474.6 240.9 1478 240.9 1479.9 240.9C1488.2 241.1 1495.2 235.5 1500.9 224.1C1504.3 217.5 1504.4 217 1503.1 217C1502.7 217 1500.2 220.5 1497.7 224.7C1492.3 234 1488.6 237.7 1484 238.6L1480.5 239.3L1483.6 235.9C1490.1 228.9 1490.5 224.6 1485.9 213.2C1481.6 202.4 1483.1 196 1490.1 196C1493.5 196 1494 194.5 1490.8 193.6C1487.6 192.8 1487.7 192.8 1483.9 195.3ZM1481 215.5C1482.1 225.8 1482.1 227.5 1480.6 231.5C1479.6 233.9 1478.3 236.4 1477.5 237C1475.5 238.6 1472.3 235.1 1471.4 230.3C1471 228.2 1470.4 226 1469.9 225.4C1469.4 224.7 1471.1 220.4 1474.3 214.2C1477.1 208.6 1479.6 204 1479.6 204C1479.7 204 1480.3 209.2 1481 215.5ZM1468 222C1467.4 223.1 1466.7 224 1466.4 224C1466.2 224 1466.4 223.1 1467 222C1467.6 220.9 1468.3 220 1468.6 220C1468.8 220 1468.6 220.9 1468 222ZM1470 232.8C1470 233.8 1470.9 235.6 1472 236.8L1474.1 239H1471.7C1468.4 239 1466.6 236.6 1467.4 233.5C1468.1 230.6 1470 230.1 1470 232.8Z" fill="black"/>
<path d="M418.2 200.598C402.9 208.198 394.4 232.798 404.7 239.498C407.9 241.598 415.9 241.598 419.8 239.598C421.4 238.798 424.1 236.498 425.9 234.498C428.9 230.998 435 220.098 435 217.998C435 215.598 433.3 217.498 430.2 223.298C426.2 230.898 424.4 233.098 419.5 236.398C412.1 241.498 407 238.998 407 230.398C407 227.698 407.4 224.898 407.9 224.098C408.4 223.298 411.2 221.998 414.2 221.298C423.9 218.798 432 211.198 432 204.398C432 202.098 431.3 200.598 429.8 199.598C426.7 197.398 424.2 197.598 418.2 200.598ZM428.6 202.498C429.7 205.398 427.8 209.498 423.5 213.698C419.4 217.598 411.8 221.098 410.4 219.698C409.5 218.798 417.6 207.398 421.7 204.098C425.8 200.698 427.8 200.198 428.6 202.498Z" fill="black"/>
<path d="M487.2 200.597C471.9 208.197 463.4 232.797 473.7 239.497C476.9 241.597 484.9 241.597 488.8 239.597C490.5 238.697 493.5 236.097 495.5 233.797L499.2 229.497L496.6 234.697C495.2 237.597 494 240.297 494 240.797C494 241.297 495.7 241.397 497.7 241.097C501 240.597 501.8 239.697 505.7 233.197C511.1 223.897 516.2 217.697 521.9 213.397C530 207.197 531 209.197 525 219.697C518.6 230.697 518.3 237.997 524.2 240.397C528.6 242.297 532.8 240.897 537.2 235.897C541.9 230.697 548.3 219.497 547.8 217.197C547.5 215.997 546.7 216.897 545.1 219.997C538.2 233.197 530.8 240.797 528 237.497C526 235.097 527.6 229.797 534.8 215.697C538.5 208.397 541.7 202.097 541.8 201.697C542.5 200.297 536.7 202.197 530.5 205.397C527.2 207.097 521.2 211.597 517.1 215.497L509.7 222.497L512.5 217.497C514.1 214.697 517.1 209.897 519.2 206.697L523 200.997H519.1C514.6 200.997 513.8 201.897 507.6 212.997C505.6 216.597 504 218.897 504 218.197C504 215.597 502.4 217.297 499.2 223.297C495.2 230.897 493.4 233.097 488.5 236.397C481.1 241.497 476 238.997 476 230.397C476 227.697 476.4 224.897 476.9 224.097C477.4 223.297 480.2 221.997 483.2 221.297C492.9 218.797 501 211.197 501 204.397C501 202.097 500.3 200.597 498.8 199.597C495.7 197.397 493.2 197.597 487.2 200.597ZM497.6 202.497C498.7 205.397 496.8 209.497 492.5 213.697C488.4 217.597 480.8 221.097 479.4 219.697C478.5 218.797 486.6 207.397 490.7 204.097C494.8 200.697 496.8 200.197 497.6 202.497Z" fill="black"/>
<path d="M565.2 200.598C549.9 208.198 541.4 232.798 551.7 239.498C554.9 241.598 562.9 241.598 566.8 239.598C568.4 238.798 571.1 236.498 572.9 234.498C575.9 230.998 582 220.098 582 217.998C582 215.598 580.3 217.498 577.2 223.298C573.2 230.898 571.4 233.098 566.5 236.398C559.1 241.498 554 238.998 554 230.398C554 227.698 554.4 224.898 554.9 224.098C555.4 223.298 558.2 221.998 561.2 221.298C570.9 218.798 579 211.198 579 204.398C579 202.098 578.3 200.598 576.8 199.598C573.7 197.398 571.2 197.598 565.2 200.598ZM575.6 202.498C576.7 205.398 574.8 209.498 570.5 213.698C566.4 217.598 558.8 221.098 557.4 219.698C556.5 218.798 564.6 207.398 568.7 204.098C572.8 200.698 574.8 200.198 575.6 202.498Z" fill="black"/>
<path d="M1335.9 199.4C1323.3 203.9 1313 218.1 1313 230.9C1313 236.7 1315.8 241 1319.6 241C1324.6 241 1327.4 238.8 1335.9 227.8C1336.3 227.4 1336.3 229.3 1336.2 232C1335.9 235.8 1336.2 237.2 1337.9 238.9C1341.4 242.4 1345.4 241.6 1350.3 236.6C1354.1 232.7 1362 220 1362 217.9C1362 215.6 1360.2 217.7 1356.6 224C1352.1 232 1347 238 1344.6 238C1341.5 238 1342.6 230.2 1347.1 220.9C1349.3 216.3 1351.9 211.7 1352.7 210.8C1354.1 209.2 1354.1 209 1352.7 208.4C1348.8 206.9 1345.5 208.5 1342.5 213.3C1330.5 232.5 1325.2 238.6 1321.1 237.8C1318.4 237.3 1318.5 229.9 1321.3 224.3C1329.6 208 1343.6 197 1348.6 202.9C1350.6 205.2 1353.4 205.8 1352.8 203.7C1352 201.5 1345.8 198 1342.6 198C1340.9 198.1 1337.9 198.7 1335.9 199.4Z" fill="black"/>
<path d="M1008.8 200.999C1001.9 204.699 995.1 215.399 992.8 225.999C990.7 235.999 995.5 241.499 1006 241.199C1015.1 240.999 1020.9 236.199 1027.4 223.199C1028.9 220.199 1029.9 217.499 1029.6 217.199C1028.9 216.499 1029 216.399 1025 223.399C1018.9 234.299 1013.4 238.999 1006.7 238.999C996.2 238.999 997.2 222.399 1008.6 208.399C1012.7 203.299 1018.4 200.299 1020.6 201.999C1022.5 203.699 1022.4 205.899 1020 209.799C1017.5 213.799 1017.5 213.999 1019.9 213.999C1022.5 213.999 1026 209.399 1026 205.899C1026 199.299 1016.9 196.799 1008.8 200.999Z" fill="black"/>
<path d="M1376.8 200.999C1369.9 204.699 1363.1 215.399 1360.8 225.999C1358.7 235.999 1363.5 241.499 1374 241.199C1383.1 240.999 1388.9 236.199 1395.4 223.199C1396.9 220.199 1397.9 217.499 1397.6 217.199C1396.9 216.499 1397 216.399 1393 223.399C1386.9 234.299 1381.4 238.999 1374.7 238.999C1364.2 238.999 1365.2 222.399 1376.6 208.399C1380.7 203.299 1386.4 200.299 1388.6 201.999C1390.5 203.699 1390.4 205.899 1388 209.799C1385.5 213.799 1385.5 213.999 1387.9 213.999C1390.5 213.999 1394 209.399 1394 205.899C1394 199.299 1384.9 196.799 1376.8 200.999Z" fill="black"/>
<path d="M955.6 203.798C951.5 210.398 946.9 219.998 947.5 220.998C947.8 221.498 947.2 223.698 946 225.898C944 229.898 943.4 235.498 944.8 237.598C946.2 239.798 950.3 241.198 953.4 240.598C956.5 239.998 962.8 234.398 966.2 229.198C967.7 226.998 967.7 227.098 967.3 231.398C966.8 235.198 967.1 236.198 969.3 238.398C975.5 244.598 983.3 239.198 991.4 223.198C992.9 220.198 993.9 217.498 993.6 217.198C992.9 216.498 993.2 215.998 988.2 224.598C983.7 232.298 977.8 238.298 975.2 237.798C973.9 237.498 973.5 236.298 973.6 232.798C973.6 229.298 975 225.398 979.4 216.298C982.6 209.798 986.1 203.498 987.3 202.198L989.5 199.898L984.5 200.198L979.5 200.498L976.1 206.998C969.5 219.898 963.5 229.598 959.6 233.698C953.3 240.698 948.3 238.698 951.1 230.198C953.2 223.698 961.8 207.298 965.1 203.598L968.2 199.998H963.1C958.3 199.998 957.9 200.198 955.6 203.798Z" fill="black"/>
<path d="M758.6 202.898C754.8 207.098 759 212.198 764.2 209.598C765.9 208.698 766.5 207.598 766.5 204.998C766.5 201.798 766.2 201.498 763.4 201.198C761.4 200.998 759.8 201.598 758.6 202.898Z" fill="black"/>
<path d="M755.8 216.699C755 217.699 750.1 224.599 745 231.999C725.9 259.499 716 274.399 716 275.699C716 277.099 719.8 277.399 723.7 276.399C725.3 275.899 729.9 268.399 742 245.799C750.9 229.299 758 215.599 757.7 215.399C757.5 215.199 756.6 215.799 755.8 216.699Z" fill="black"/>
<path d="M671.8 234.1C669.6 235.3 669.4 240.3 671.5 242C673.7 243.8 678.8 241.5 679.6 238.4C680.7 234 676.2 231.5 671.8 234.1Z" fill="black"/>
<path d="M1514.6 234.6C1512.6 236.6 1512.5 240.4 1514.5 242C1516.7 243.8 1521.8 241.5 1522.6 238.4C1523.8 233.7 1518.1 231.1 1514.6 234.6Z" fill="black"/>
</svg>
