<svg width="1755" height="287" viewBox="0 0 1755 287" fill="none" xmlns="http://www.w3.org/2000/svg">
<path d="M66.5 1.40001C50.6 5.10001 37.8999 12.2 32.2999 20.4C26.2999 29.2 28.4999 37.1 38.3999 42.2L42.4999 44.3L35.5999 45.6C2.09995 51.9 -11.3001 85 14.4999 97.8C30.5999 105.8 66.1 102.1 85.6 90.4C100.4 81.5 105.6 71 97.8 65.6C95.4 63.9 91 63.4 91 64.9C91 65.4 92.1 66.1 93.4 66.4C102.6 68.7 91.7 82.3 73.6 91C59.6 97.8 52.8999 99.4 38.9999 99.5C28.5999 99.5 26.9999 99.2 21.8999 96.9C13.7999 93.1 10.6999 88.6 10.1999 80C9.89995 74.4 10.1999 72.6 12.2999 68.3C15.7999 61.6 23.7999 54.4 30.2999 52.4C33.3999 51.5 41.2999 50.5 49.4999 50.2C62.6999 49.5 63.5 49.4 63.8 47.4C64.1 45 62 43.9 53.5 41.9C42.5 39.2 37.9999 35.6 37.9999 29.3C37.9999 24.2 40.1999 20 45.2999 15.3C54.0999 7.20001 66.5 2.70001 80 2.60001C89.5 2.60001 94.3 4.30001 96.2 8.50001C98.9 14.4 92 24.8 83.8 27.1C77.6 28.9 76.5 30.4 82 29.6C84.5 29.2 89.3 27.6 92.8 25.9C106.5 19.2 107.8 7.60001 95.3 2.30001C90.1 0.100011 74.2 -0.399989 66.5 1.40001Z" fill="black"/>
<path d="M1689.2 22.9001C1688.5 23.3001 1684.2 30.9001 1679.6 39.6001C1674 50.5001 1670.9 55.4001 1669.9 55.1001C1656.6 51.7001 1645.6 58.2001 1638.2 73.7001C1633.4 83.9001 1633.1 91.0001 1637.3 94.6001C1642.4 99.0001 1648.7 97.1001 1654.2 89.4001L1657.5 84.8001L1658.2 89.1001C1660.3 101.3 1672 98.7001 1680.2 84.2001C1681.8 81.4001 1683.3 79.0001 1683.3 79.0001C1683.4 79.0001 1683.3 81.4001 1683.2 84.4001C1682.9 89.1001 1683.2 90.1001 1685.7 92.9001C1691.4 99.3001 1702.8 97.7001 1709.4 89.7001C1712.3 86.1001 1719 74.1001 1719 72.5001C1719 72.2001 1718.6 72.0001 1718 72.0001C1717.5 72.0001 1715.7 74.7001 1714 78.0001C1709 88.0001 1701.3 95.0001 1695.5 95.0001C1692.8 95.0001 1690 91.2001 1690 87.6001C1690 80.3001 1691 78.2001 1694.6 77.5001C1706.8 75.3001 1717.5 64.7001 1715 57.5001C1714.1 54.9001 1710.2 53.6001 1705.9 54.4001C1701.2 55.3001 1693.2 61.6001 1689.1 67.5001C1687.3 70.3001 1685.4 72.4001 1684.9 72.3001C1684.4 72.1001 1682.7 74.6001 1681.1 77.8001C1674.7 90.3001 1668.7 96.1001 1665.3 92.8001C1663.9 91.4001 1663.9 90.5001 1664.9 86.3001C1666.7 79.4001 1687.8 39.2001 1697.4 24.7001L1699.2 22.0001H1694.9C1692.5 22.0001 1689.9 22.4001 1689.2 22.9001ZM1668.9 56.9001C1670 57.6001 1669.3 59.4001 1665.5 66.1001C1654.5 85.3001 1647.5 93.6001 1643.2 92.8001C1641.8 92.5001 1641.5 91.4001 1641.5 86.9001C1641.5 80.2001 1645.6 72.7001 1653.7 64.3001C1660.2 57.6001 1665.7 54.9001 1668.9 56.9001ZM1711.8 58.8001C1712.3 62.0001 1708.2 68.6001 1704.1 71.4001C1700.6 73.8001 1693 76.4001 1693 75.3001C1693 73.5001 1699.7 64.6001 1704.1 60.5001C1709.3 55.6001 1711.3 55.2001 1711.8 58.8001Z" fill="black"/>
<path d="M1742.9 26.9001C1734.6 35.5001 1719.4 70.0001 1717.4 84.7001C1716.7 90.1001 1718.5 95.2001 1721.5 96.4001C1727.1 98.5001 1734.5 95.7001 1739.4 89.6001C1742.8 85.5001 1748 76.0001 1748 74.0001C1748 71.5001 1746.3 73.5001 1743 79.5001C1736.4 92.1001 1731 96.6001 1726.4 93.5001C1724.4 92.2001 1724 91.1001 1724 87.1001C1724 80.0001 1726.1 75.2001 1732.1 69.0001C1742 58.6001 1753.8 38.0001 1754.8 29.4001C1755.8 20.5001 1750.2 19.4001 1742.9 26.9001ZM1748.6 39.7001C1744.9 47.5001 1736 61.4001 1731.5 66.5001C1729 69.4001 1728.9 69.4001 1729.5 67.0001C1731 61.6001 1744.8 34.3001 1748.1 30.6001L1751.5 26.6001L1751.8 29.4001C1752 31.1001 1750.7 35.2001 1748.6 39.7001Z" fill="black"/>
<path d="M633 27.7C630.9 29.8 626.8 35.9 624 41.2L618.8 51H614.9C612.8 51 611 51.4 611 52C611 52.5 612.4 53 614 53C615.7 53 617 53.5 617 54C617 56.2 610.7 73 609.9 73C609.5 73 607.3 76.1 605 79.9C597.9 92.1 593.1 96.6 590.3 93.7C588 91.4 590 84.4 597.5 69.4C601 62.3 603.7 56.3 603.4 56.1C602.6 55.2 595.6 58.2 590 61.8C587 63.7 581.6 68.2 578 71.9L571.6 78.4L575.4 71.5C577.6 67.6 580.6 62.7 582.2 60.5L585.1 56.5L582.8 55.9C577.6 54.6 576 56.2 568.5 70.2C566 74.8 564 78.1 564 77.7C564 77.2 564.5 76 565 75C565.6 73.8 565.7 72.9 565 72.5C564.5 72.2 562.4 75.2 560.4 79.2C553.8 92.2 549.3 96.2 543.7 94.1C542.2 93.5 541 92.8 541 92.5C541 92.1 543 89 545.5 85.5C550.9 77.9 553.1 72.2 553.2 65.3C553.4 49.1 536.9 50.5 525.3 67.8C523 71.2 521 73.4 520.7 72.7C520.5 72.1 519.4 73 518.4 74.8C512.5 85.3 508.3 90.5 503.8 92.8C488.4 100.7 485.4 80.6 499.5 63.4C503.2 58.9 508.9 55.6 511.4 56.6C513.6 57.4 513.4 60.8 511 65.3C509 68.9 509 69 510.9 69C515.4 69 518.6 60.6 515.7 56.7C513.8 54 507.7 53.5 502.6 55.4C493.5 58.9 484 73.5 483.7 84.3C483.5 93 487.3 97 495.8 97C505.2 97 511.1 92.6 517.6 81C519.6 77.4 520.8 75.4 520.5 76.5C519.3 79.8 518.7 87.7 519.4 90.5C520.9 96.6 527.6 98.8 534.2 95.4C537.1 93.9 537.6 93.9 540.1 95.4C546.5 99.2 553 96.2 559 86.8C563.9 79.3 564.1 79.9 559.5 89C557.6 92.8 556 96.2 556 96.5C556 96.9 557.7 97 559.7 96.8C563.1 96.5 563.6 96 568.3 88C574 78.4 585.6 66 588.9 66C591.8 66 591.6 67 587 75.4C584.8 79.4 582.7 84.7 582.4 87.2C581.8 91.3 582.1 92.1 584.3 94.4C587.2 97.3 590.7 97.7 594.8 95.6C598.5 93.7 601.2 90.6 605.4 83.6L609 77.7L608.3 84.3C607.7 90.7 607.8 91 610.9 94.1C613.7 96.9 614.6 97.2 618.2 96.7C621.1 96.3 623.4 95.1 626.2 92.3C631.3 87.4 639.6 73 637.3 73C636.8 73 634.5 76.3 632.2 80.4C625.7 91.9 619.5 96.3 615.6 92.4C613.6 90.5 613.6 90.5 615.6 81.7C617 75.5 618 73.7 622.3 69C625.1 66 628.9 61.1 630.8 58.2C634 53.4 634.6 53 638.1 53C640.3 53 642 52.5 642 52C642 51.4 640.7 51 639 51C637.4 51 636 50.9 636 50.7C636 50.5 637.6 47.2 639.5 43.4C643.5 35.2 644.7 29.2 643.1 26.1C641.3 22.8 637.5 23.4 633 27.7ZM640.7 32.7C640.3 34.7 638.5 39.6 636.6 43.7C633.4 50.4 632.9 51 630 51C628.4 51 627 50.8 627 50.5C627 49.2 634.3 35.3 636.5 32.4C639.9 27.9 641.4 28 640.7 32.7ZM629.3 56.1C628.3 57.7 625.6 61.2 623.3 63.8L619 68.5L621.6 62.5C625.5 53.5 625.9 53 628.6 53H631.1L629.3 56.1ZM549 59.5C551 61.9 549.7 71.7 546.5 78.4C543.7 84.2 543.6 84.3 542.2 82.2C538.2 76.2 532.5 83.5 536.1 90.1C537 91.8 536.6 92.3 533.5 93.6C530.8 94.7 529.5 94.8 527.8 93.9C526 92.9 525.8 92.2 526.3 87.1C527.7 71.6 543.3 52.6 549 59.5Z" fill="black"/>
<path d="M1325 27.7C1322.9 29.8 1318.8 35.9 1316 41.2L1310.8 51H1306.9C1304.8 51 1303 51.4 1303 52C1303 52.5 1304.4 53 1306 53C1307.8 53 1309 53.5 1309 54.2C1308.9 57.4 1302.4 73.6 1301.4 73.3C1300.7 73.1 1298.6 75.8 1296.6 79.4C1291.8 87.9 1288.3 92 1284.3 93.6C1279.1 95.8 1278.4 95.2 1281.7 91.7C1283.4 90 1285.3 87.5 1285.9 86.3C1287.7 82.7 1287.2 76.3 1284.4 69.8C1279.8 58.9 1281.4 51 1288.2 51C1291.6 51 1291.9 49.4 1288.6 48.8C1285.7 48.2 1281.1 50 1279 52.5C1278.2 53.5 1274.5 60.2 1270.8 67.4C1267.1 74.6 1264.1 80 1264.1 79.5C1264.1 78.9 1264.7 77.4 1265.5 76C1267.2 73 1267.3 72 1266 72C1265.5 72 1263.7 74.7 1262 78C1257 88 1249.3 95 1243.5 95C1240.8 95 1238 91.2 1238 87.6C1238 80.3 1239 78.2 1242.6 77.5C1253.6 75.5 1263 67.4 1263.2 59.9C1263.4 54.3 1257.4 52.3 1250.4 55.6C1240.5 60.3 1232.1 72.5 1231.3 83.5C1230.8 89.2 1231 89.9 1233.6 92.9C1238.9 98.8 1250.6 97.8 1256.4 90.9C1259.2 87.6 1260 87.3 1260 89.6C1260 90.4 1261.3 92.4 1262.9 94C1265.6 96.7 1266.1 96.9 1274.6 96.8C1280 96.8 1284.5 96.2 1286.1 95.4C1289.7 93.6 1295 87.3 1298.9 80.2C1300.7 77.1 1301.9 75.4 1301.5 76.5C1301.2 77.6 1300.6 81.3 1300.3 84.7C1299.7 90.6 1299.8 91 1302.9 94.1C1305.7 96.9 1306.6 97.2 1310.2 96.7C1315 96.1 1320.6 91.1 1324.8 83.8L1327.5 79.2V86.2C1327.5 92.3 1327.8 93.4 1329.9 95.1C1334.5 98.8 1340.2 96.5 1346.8 88.1L1350.7 83.2L1350.2 87.6C1349.3 95.9 1355.2 100.2 1361.5 95.9C1365.8 92.9 1376 77.6 1376 74C1376 71.5 1374.3 73.5 1371.2 79.4C1369.4 82.9 1366.3 87.6 1364.4 89.9C1354.3 101.6 1354.7 86.6 1364.8 70.1C1366.6 67.3 1368 64.8 1368 64.5C1368 64.2 1366.2 64 1364 64C1359.7 64 1358.2 65.6 1351 78.4C1346.3 86.7 1338.9 94.3 1335.9 93.8C1327.7 92.7 1339.1 68.4 1351.7 60.1C1357.1 56.5 1360.2 56.2 1363 59C1365.5 61.5 1367.3 61.6 1366.8 59.2C1366.6 58.3 1364.9 56.7 1363 55.7C1358.3 53.2 1350.4 54 1344.4 57.5C1340 60.1 1332.7 68.3 1331.5 72C1331.2 73 1330.3 73.7 1329.7 73.4C1328.9 73.1 1326.7 76 1324.2 80.4C1317.7 91.9 1311.5 96.3 1307.6 92.4C1305.6 90.5 1305.6 90.5 1307.6 81.7C1309 75.5 1310 73.7 1314.3 69C1317.1 66 1320.9 61.1 1322.8 58.2C1326 53.4 1326.6 53 1330.1 53C1332.3 53 1334 52.5 1334 52C1334 51.4 1332.7 51 1331 51C1329.4 51 1328 50.9 1328 50.7C1328 50.5 1329.6 47.2 1331.5 43.4C1335.5 35.2 1336.7 29.2 1335.1 26.1C1333.3 22.8 1329.5 23.4 1325 27.7ZM1332.7 32.7C1332.3 34.7 1330.5 39.6 1328.6 43.7C1325.4 50.4 1324.9 51 1322 51C1320.4 51 1319 50.8 1319 50.5C1319 49.2 1326.3 35.3 1328.5 32.4C1331.9 27.9 1333.4 28 1332.7 32.7ZM1321.3 56.1C1320.3 57.7 1317.6 61.2 1315.3 63.8L1311 68.5L1313.6 62.5C1317.5 53.5 1317.9 53 1320.6 53H1323.1L1321.3 56.1ZM1259.8 58.8C1260.3 62 1256.2 68.6 1252.1 71.4C1248.6 73.8 1241 76.4 1241 75.3C1241 73.5 1247.7 64.6 1252.1 60.5C1257.3 55.6 1259.3 55.2 1259.8 58.8ZM1279.1 85.1C1278.5 87.1 1277.1 89.9 1276.1 91.1C1274.2 93.4 1274.2 93.4 1272.1 91.6C1271 90.6 1269.8 88.1 1269.5 86.1C1269.2 84.1 1268.5 81.8 1268.1 81C1267.5 80 1269 76 1272.4 69.2L1277.5 58.9L1278.9 70.1C1279.9 78.6 1280 82.2 1279.1 85.1ZM1268.7 89.7C1269.6 91.8 1270.6 93.8 1270.8 94.2C1271.6 95.9 1268.2 94.9 1266.5 93C1265.3 91.7 1265 90.3 1265.4 88.5C1266.2 85.2 1266.7 85.3 1268.7 89.7Z" fill="black"/>
<path d="M1527 27.7C1524.9 29.8 1520.8 35.9 1518 41.2L1512.8 51H1508.9C1506.8 51 1505 51.4 1505 52C1505 52.5 1506.4 53 1508 53C1509.7 53 1511 53.5 1511 54C1511 54.6 1509.2 60.3 1506.9 66.8C1504.7 73.2 1502.6 81.3 1502.3 84.7C1501.7 90.6 1501.8 91 1504.9 94.1C1507.7 96.9 1508.6 97.2 1512.2 96.7C1517.3 96 1522.7 91 1527.5 82.6L1530.8 76.7L1530.3 83.2C1529.8 89.3 1529.9 89.9 1532.6 92.9C1537.9 98.8 1549.6 97.8 1555.4 90.9C1558.2 87.6 1559 87.3 1559 89.6C1559 90.4 1560.3 92.4 1561.9 94C1564.6 96.7 1565.1 96.9 1573.6 96.8C1583.8 96.8 1586.3 95.8 1591.3 90C1594.4 86.4 1601 75.2 1601 73.6C1601 71.4 1598.7 73.9 1595.6 79.4C1590.8 87.9 1587.3 92 1583.3 93.6C1578.1 95.8 1577.4 95.2 1580.7 91.7C1582.4 90 1584.3 87.5 1584.9 86.3C1586.7 82.7 1586.2 76.3 1583.4 69.8C1578.8 58.9 1580.4 51 1587.2 51C1590.6 51 1590.9 49.4 1587.6 48.8C1584.7 48.2 1580.1 50 1578 52.5C1577.2 53.5 1573.5 60.2 1569.8 67.4C1566.1 74.6 1563.1 80 1563.1 79.5C1563.1 78.9 1563.7 77.4 1564.5 76C1566.2 73 1566.3 72 1565 72C1564.5 72 1562.7 74.7 1561 78C1556 88 1548.3 95 1542.5 95C1539.8 95 1537 91.2 1537 87.6C1537 80.3 1538 78.2 1541.6 77.5C1552.6 75.5 1562 67.4 1562.2 59.9C1562.3 56.1 1560 54 1555.7 54C1549.3 54 1539.1 61.6 1535 69.3C1533.7 71.8 1532.1 73.6 1531.5 73.4C1530.9 73.1 1528.5 76.3 1526.2 80.4C1519.7 91.9 1513.5 96.3 1509.6 92.4C1507.6 90.5 1507.6 90.5 1509.6 81.7C1511 75.5 1512 73.7 1516.3 69C1519.1 66 1522.9 61.1 1524.8 58.2C1528 53.4 1528.6 53 1532.1 53C1534.3 53 1536 52.5 1536 52C1536 51.4 1534.7 51 1533 51C1531.4 51 1530 50.9 1530 50.7C1530 50.5 1531.6 47.2 1533.5 43.4C1537.5 35.2 1538.7 29.2 1537.1 26.1C1535.3 22.8 1531.5 23.4 1527 27.7ZM1534.7 32.7C1534.3 34.7 1532.5 39.6 1530.6 43.7C1527.4 50.4 1526.9 51 1524 51C1522.4 51 1521 50.8 1521 50.5C1521 49.2 1528.3 35.3 1530.5 32.4C1533.9 27.9 1535.4 28 1534.7 32.7ZM1523.3 56.1C1522.3 57.7 1519.6 61.2 1517.3 63.8L1513 68.5L1515.6 62.5C1519.5 53.5 1519.9 53 1522.6 53H1525.1L1523.3 56.1ZM1558.8 58.8C1559.3 62 1555.2 68.6 1551.1 71.4C1547.6 73.8 1540 76.4 1540 75.3C1540 73.5 1546.7 64.6 1551.1 60.5C1556.3 55.6 1558.3 55.2 1558.8 58.8ZM1578.1 85.1C1577.5 87.1 1576.1 89.9 1575.1 91.1C1573.2 93.4 1573.2 93.4 1571.1 91.6C1570 90.6 1568.8 88.1 1568.5 86.1C1568.2 84.1 1567.5 81.8 1567.1 81C1566.5 80 1568 76 1571.4 69.2L1576.5 58.9L1577.9 70.1C1578.9 78.6 1579 82.2 1578.1 85.1ZM1567.7 89.7C1568.6 91.8 1569.6 93.8 1569.8 94.2C1570.6 95.9 1567.2 94.9 1565.5 93C1564.3 91.7 1564 90.3 1564.4 88.5C1565.2 85.2 1565.7 85.3 1567.7 89.7Z" fill="black"/>
<path d="M233.2 43.2C232.7 43.9 231.3 48.2 230.1 52.7C227.9 61.3 221 78.5 218.9 80.4C218.3 81 218.7 79.6 219.9 77.3C222.3 72.5 222.4 72 221 72C220.5 72 218.7 74.7 217 78C212 88 204.3 95 198.5 95C195.8 95 193 91.2 193 87.6C193 80.3 194 78.2 197.6 77.5C208.6 75.5 218 67.4 218.2 59.9C218.4 54.3 212.4 52.3 205.4 55.6C195.5 60.3 187.1 72.5 186.3 83.4C185.8 89 186 89.9 188.4 92.7C192.9 98 201.3 98.3 208.4 93.5C210.4 92.1 212.6 91.1 213.2 91.3C215.1 91.6 221.6 81.4 226.2 70.7C229.1 64.2 231 61 232.1 61C235.2 61 240 63.2 240 64.6C240 65.4 238 69.9 235.5 74.6C231.4 82.3 230.9 83.9 231.2 88.8C231.5 93.7 231.9 94.6 234.1 95.9C239.2 98.8 245.4 94.9 251.2 85L254.5 79.4V86.3C254.5 92.3 254.8 93.4 256.9 95.1C261.5 98.8 267.2 96.5 273.8 88.1L277.7 83.2L277.2 87.6C276.3 95.9 282.2 100.2 288.5 95.9C292.8 92.9 303 77.6 303 74C303 71.5 301.3 73.5 298.2 79.4C296.4 82.9 293.3 87.6 291.4 89.9C281.3 101.6 281.7 86.6 291.8 70.1C293.6 67.3 295 64.8 295 64.5C295 64.2 293.2 64 291 64C286.7 64 285.2 65.6 278 78.4C273.3 86.7 265.9 94.3 262.9 93.8C254.7 92.7 266.1 68.4 278.7 60.1C284.1 56.5 287.2 56.2 290 59C292.5 61.5 294.3 61.6 293.8 59.2C293.2 56.2 287.1 53.8 281.2 54.4C272.7 55.2 263.7 61.8 259.1 70.8C258.4 72 257.5 72.8 257.1 72.5C256.6 72.3 254.1 75.9 251.4 80.6C246.7 89 241.8 94.5 239.6 93.7C239 93.5 238.5 91.3 238.6 88.9C238.6 85.7 240.2 81.2 244.3 72.4C247.4 65.8 250 59.8 250 59.2C250 58.4 247.4 58 241.4 58H232.7L235.3 56C236.7 54.9 238.4 52.4 239 50.4C240 47.5 239.9 46.5 238.6 44.5C236.8 41.8 234.8 41.3 233.2 43.2ZM214.8 58.8C215.3 62 211.2 68.6 207.1 71.4C203.6 73.8 196 76.4 196 75.3C196 73.5 202.7 64.6 207.1 60.5C212.3 55.6 214.3 55.2 214.8 58.8Z" fill="black"/>
<path d="M696.2 43.2001C695.7 43.9001 694.3 48.1001 693.2 52.5001C690.5 62.8001 686.6 72.4001 684.8 72.8001C684.1 72.9001 682 75.9001 680.2 79.4001C678.4 82.9001 675.3 87.6001 673.4 89.9001C663.3 101.6 663.7 86.6001 673.8 70.1001C675.6 67.3001 677 64.8001 677 64.5001C677 64.2001 675.2 64.0001 673 64.0001C668.7 64.0001 667.2 65.6001 660 78.4001C655.3 86.7001 647.9 94.3001 644.9 93.8001C636.7 92.7001 648.1 68.4001 660.7 60.1001C666.1 56.5001 669.2 56.2001 672 59.0001C674.5 61.5001 676.3 61.6001 675.8 59.2001C675.2 56.2001 669.1 53.8001 663.2 54.4001C653.6 55.3001 645.7 61.8001 639.4 74.0001C637.2 78.4001 636.6 80.9001 636.5 86.3001C636.5 92.3001 636.8 93.4001 638.9 95.1001C643.5 98.8001 649.2 96.5001 655.8 88.1001L659.7 83.2001L659.2 87.6001C658.1 97.4001 665.9 100.9 673.1 93.8001C673.9 93.0001 675.3 92.1001 676.3 91.7001C678.8 90.8001 685.3 80.0001 689.7 69.7001C692.2 63.8001 693.9 61.0001 695.1 61.0001C698.2 61.0001 703 63.2001 703 64.6001C703 65.4001 701 69.9001 698.5 74.6001C694.4 82.3001 693.9 83.9001 694.2 88.8001C694.5 93.7001 694.9 94.6001 697.1 95.9001C702.8 99.1001 709.7 93.8001 716.3 81.2001C721.8 70.7001 720.3 70.1001 714.5 80.4001C709.7 89.0001 704.8 94.5001 702.6 93.7001C702 93.5001 701.5 91.3001 701.6 88.9001C701.6 85.7001 703.2 81.2001 707.3 72.4001C710.4 65.8001 713 59.8001 713 59.2001C713 58.4001 710.4 58.0001 704.4 58.0001H695.7L698.3 56.0001C699.7 54.9001 701.4 52.4001 702 50.4001C703 47.5001 702.9 46.5001 701.6 44.5001C699.8 41.8001 697.8 41.3001 696.2 43.2001Z" fill="black"/>
<path d="M1046.2 43.2001C1045.7 43.9001 1044.3 48.1001 1043.2 52.5001C1040.4 63.4001 1034.8 76.3001 1029.6 84.4001C1027.2 88.0001 1025.6 91.2001 1026 91.5001C1027.8 92.6001 1036.3 78.7001 1041.1 66.7001C1042.6 63.0001 1043.9 61.0001 1045 61.0001C1048.2 61.0001 1053 63.2001 1053 64.6001C1053 65.4001 1051 69.9001 1048.5 74.6001C1044.4 82.3001 1043.9 83.9001 1044.2 88.8001C1044.5 93.7001 1044.9 94.6001 1047.1 95.9001C1052.8 99.1001 1059.7 93.8001 1066.3 81.2001C1071.8 70.7001 1070.3 70.1001 1064.5 80.4001C1059.7 89.0001 1054.8 94.5001 1052.6 93.7001C1052 93.5001 1051.5 91.3001 1051.6 88.9001C1051.6 85.7001 1053.2 81.2001 1057.3 72.4001C1060.4 65.8001 1063 59.8001 1063 59.2001C1063 58.4001 1060.4 58.0001 1054.4 58.0001H1045.7L1048.3 56.0001C1049.7 54.9001 1051.4 52.4001 1052 50.4001C1053 47.5001 1052.9 46.5001 1051.6 44.5001C1049.8 41.8001 1047.8 41.3001 1046.2 43.2001Z" fill="black"/>
<path d="M124.2 49.5C120.5 51.1 118.5 53.9 111.5 67.9C108.4 74.2 104.7 80.2 103.4 81.3C99.7999 84.1 100.1 90.2 103.9 94C106.6 96.7 107.1 96.9 115.6 96.8C125.8 96.8 128.3 95.8 133.3 90C136.4 86.4 143 75.2 143 73.6C143 71.4 140.7 73.9 137.6 79.4C132.8 87.9 129.3 92 125.3 93.6C120.1 95.8 119.4 95.2 122.7 91.7C124.4 90 126.3 87.5 126.9 86.3C128.7 82.7 128.2 76.3 125.4 69.8C120.8 58.9 122.4 51 129.2 51C130.7 51 132 50.6 132 50.1C132 48.6 127.3 48.3 124.2 49.5ZM120.1 85.1C119.5 87.1 118.1 89.9 117.1 91.1C115.2 93.4 115.2 93.4 113.1 91.6C112 90.6 110.8 88.1 110.5 86.1C110.2 84.1 109.5 81.8 109.1 81C108.5 80 110 76 113.4 69.2L118.5 58.9L119.9 70.1C120.9 78.6 121 82.2 120.1 85.1ZM109.7 89.7C110.6 91.8 111.6 93.8 111.8 94.2C112.6 95.9 109.2 94.9 107.5 93C106.3 91.7 106 90.3 106.4 88.5C107.2 85.2 107.7 85.3 109.7 89.7Z" fill="black"/>
<path d="M431.3 49.5001C427.4 51.1001 426.4 52.6001 419.3 66.4001C415.9 73.1001 413.1 78.1001 413 77.7001C413 77.2001 413.5 76.0001 414 75.0001C414.6 73.8001 414.7 72.9 414 72.5C413.5 72.2 411.4 75.2001 409.4 79.2001C402.8 92.2001 398.3 96.2001 392.7 94.1001C391.2 93.5001 390 92.8001 390 92.5001C390 92.1001 392 89.0001 394.5 85.5001C399.9 77.9001 402.1 72.2001 402.2 65.3001C402.4 49.1001 385.9 50.5001 374.4 67.6001C372.2 70.9001 369.9 73.5001 369.3 73.3001C368.7 73.1 366.7 75.7001 364.8 79.2001C361.1 86.3001 352.8 95.5001 350.8 94.8001C350 94.5001 349.5 92.6001 349.5 89.4001C349.6 85.3001 350.7 82.1001 356 71.5C359.6 64.4 362.7 58.3001 362.8 57.8001C363.6 56.0001 359.4 57.2001 352.7 60.7001C348.7 62.8001 342.5 67.4001 338.7 70.9001L331.9 77.3001L336.1 69.3001C340.3 61.2001 340.6 58.6001 337.4 57.3001C334.7 56.3001 329.1 60.0001 319.1 69.5001L309.7 78.5001L312.5 73.5001C314.1 70.7 317.1 66.0001 319.1 62.9001C322.9 57.3001 322.9 57.3001 320.7 56.3001C317.6 54.9001 314.6 56.3001 312.2 60.2001C309.9 63.9001 294 95.7001 294 96.6001C294 96.9001 295.6 97.0001 297.6 96.8001C301 96.5001 301.7 95.9001 305.4 89.8001C311.1 80.5001 316.7 73.5001 321.9 69.5001C329.4 63.6001 329.8 65 324.1 77.1001C319.5 86.9001 318.3 91.9001 319.9 94.9001C321.6 98.0001 322.7 97.5001 324.8 92.7001C327.6 86.5001 338.4 72.6001 343.2 69.1001C350.8 63.5001 352.1 65.8 346.6 74.9001C341.7 82.9001 340.1 89.3001 342.1 92.8001C343.8 96.0001 347.7 97.5001 351.3 96.6001C355.5 95.6001 360.8 90.2001 365.7 82.1001C368.2 77.9001 369.9 75.4001 369.5 76.5001C368.3 79.7001 367.7 87.7001 368.4 90.5001C369.9 96.6001 376.6 98.8001 383.2 95.4001C386.1 93.9001 386.6 93.9001 389.1 95.4001C394.4 98.5001 400.7 96.8001 405.4 90.8001C407.4 88.3001 408 87.9001 408 89.3001C408 90.3001 409.3 92.4001 410.9 94.0001C413.6 96.7001 414.1 96.9001 422.6 96.8001C432.8 96.8001 435.3 95.8001 440.3 90.0001C443.4 86.4001 450 75.2001 450 73.6001C450 71.4 447.7 73.9001 444.6 79.4001C439.8 87.9001 436.3 92.0001 432.3 93.6001C427.1 95.8001 426.4 95.2001 429.7 91.7001C431.4 90.0001 433.3 87.5001 433.9 86.3001C435.7 82.7001 435.2 76.3001 432.4 69.8001C427.8 58.9001 429.4 51.0001 436.2 51.0001C437.7 51.0001 439 50.6001 439 50.1001C439 48.6001 434.3 48.2001 431.3 49.5001ZM398 59.5001C400 61.9001 398.7 71.7 395.5 78.4001C392.7 84.2001 392.6 84.3001 391.2 82.2001C387.2 76.2001 381.5 83.5001 385.1 90.1001C386 91.8001 385.6 92.3001 382.5 93.6001C379.8 94.7001 378.5 94.8001 376.8 93.9001C375 92.9001 374.8 92.2001 375.3 87.1001C376.7 71.6 392.3 52.6001 398 59.5001ZM427.1 85.1001C426.5 87.1001 425.1 89.9001 424.1 91.1001C422.2 93.4001 422.2 93.4001 420.1 91.6001C419 90.6001 417.8 88.1001 417.5 86.1001C417.2 84.1001 416.5 81.8001 416.1 81.0001C415.5 80.0001 417 76.0001 420.4 69.2001L425.5 58.9001L426.9 70.1001C427.9 78.6001 428 82.2001 427.1 85.1001ZM416.7 89.7001C417.6 91.8001 418.6 93.8001 418.8 94.2001C419.6 95.9001 416.2 94.9001 414.5 93.0001C413.3 91.7001 413 90.3001 413.4 88.5001C414.2 85.2001 414.7 85.3001 416.7 89.7001Z" fill="black"/>
<path d="M933.2 49.5001C929.5 51.1001 927.5 53.9001 920.5 67.9001C917.4 74.2001 913.7 80.2001 912.4 81.3001C908.8 84.1001 909.1 90.2001 912.9 94.0001C915.6 96.7001 916.1 96.9001 924.6 96.8001C930 96.8001 934.5 96.2001 936.1 95.4001C939.7 93.6001 945.2 87.0001 948.7 80.5001C951.8 74.4001 953.8 75.1001 950.9 81.4001C948.1 87.5001 948.4 92.4001 951.6 94.9001C953.1 96.1001 955.5 97.0001 957.1 97.0001C960.3 97.0001 965.8 92.7001 970 86.8001L972.6 83.2001V88.2001C972.5 92.3001 972.9 93.5001 975 95.2001C980.8 99.9001 988.2 94.8001 995.4 81.0001C1000.5 71.4001 999.4 69.8001 994.2 79.2001C989.7 87.4001 984.2 94.0001 981.8 94.0001C978.6 94.0001 977.6 91.3001 978.8 85.9001C980.4 79.2001 989.5 60.2001 992.7 56.8001L995.4 54.0001H990.8C985.2 54.0001 984.8 54.4001 977.6 68.9001C970.7 82.6001 964.6 91.6001 960.8 93.6001C957 95.5001 956 94.7001 956 89.9001C956 85.2001 965.5 63.7001 970.1 57.7001L973.1 54.0001H969C966.7 54.0001 964.1 54.4001 963.1 54.9001C962.2 55.4001 959.5 59.9001 957.1 64.9001C954.3 70.8001 952.4 73.7001 951.5 73.4001C950.7 73.1001 948.9 75.3001 946.6 79.4001C941.8 87.9001 938.3 92.0001 934.3 93.6001C929.1 95.8001 928.4 95.2001 931.7 91.7001C933.4 90.0001 935.3 87.5001 935.9 86.3001C937.7 82.7001 937.2 76.3001 934.4 69.8001C929.8 58.9001 931.4 51.0001 938.2 51.0001C939.7 51.0001 941 50.6001 941 50.1001C941 48.6001 936.3 48.3001 933.2 49.5001ZM929.1 85.1001C928.5 87.1001 927.1 89.9001 926.1 91.1001C924.2 93.4001 924.2 93.4001 922.1 91.6001C921 90.6001 919.8 88.1001 919.5 86.1001C919.2 84.1001 918.5 81.8001 918.1 81.0001C917.5 80.0001 919 76.0001 922.4 69.2001L927.5 58.9001L928.9 70.1001C929.9 78.6001 930 82.2001 929.1 85.1001ZM918.7 89.7001C919.6 91.8001 920.6 93.8001 920.8 94.2001C921.6 95.9001 918.2 94.9001 916.5 93.0001C915.3 91.7001 915 90.3001 915.4 88.5001C916.2 85.2001 916.7 85.3001 918.7 89.7001Z" fill="black"/>
<path d="M1121.3 49.5C1117.4 51.2 1116.4 52.6 1108.8 67.4C1105.1 74.6 1102.1 80 1102.1 79.5C1102.1 78.9 1102.7 77.4 1103.5 76C1105.2 73 1105.3 72 1104 72C1103.5 72 1101.7 74.7 1100 78C1095 88 1087.3 95 1081.5 95C1078.8 95 1076 91.2 1076 87.6C1076 80.3 1077 78.2 1080.6 77.5C1091.6 75.5 1101 67.4 1101.2 59.9C1101.4 54.3 1095.4 52.3 1088.4 55.6C1078.5 60.3 1070.1 72.5 1069.3 83.5C1068.8 89.2 1069 89.9 1071.6 92.9C1076.9 98.8 1088.6 97.8 1094.4 90.9C1097.2 87.6 1098 87.3 1098 89.6C1098 90.4 1099.3 92.4 1100.9 94C1103.6 96.7 1104.1 96.9 1112.6 96.8C1122.8 96.8 1125.3 95.8 1130.3 90C1133.4 86.4 1140 75.2 1140 73.6C1140 71.4 1137.7 73.9 1134.6 79.4C1129.8 87.9 1126.3 92 1122.3 93.6C1117.1 95.8 1116.4 95.2 1119.7 91.7C1121.4 90 1123.3 87.5 1123.9 86.3C1125.7 82.7 1125.2 76.3 1122.4 69.8C1117.8 58.9 1119.4 51 1126.2 51C1127.7 51 1129 50.6 1129 50.1C1129 48.6 1124.3 48.2 1121.3 49.5ZM1097.8 58.8C1098.3 62 1094.2 68.6 1090.1 71.4C1086.6 73.8 1079 76.4 1079 75.3C1079 73.5 1085.7 64.6 1090.1 60.5C1095.3 55.6 1097.3 55.2 1097.8 58.8ZM1117.1 85.1C1116.5 87.1 1115.1 89.9 1114.1 91.1C1112.2 93.4 1112.2 93.4 1110.1 91.6C1109 90.6 1107.8 88.1 1107.5 86.1C1107.2 84.1 1106.5 81.8 1106.1 81C1105.5 80 1107 76 1110.4 69.2L1115.5 58.9L1116.9 70.1C1117.9 78.6 1118 82.2 1117.1 85.1ZM1106.7 89.7C1107.6 91.8 1108.6 93.8 1108.8 94.2C1109.6 95.9 1106.2 94.9 1104.5 93C1103.3 91.7 1103 90.3 1103.4 88.5C1104.2 85.2 1104.7 85.3 1106.7 89.7Z" fill="black"/>
<path d="M148.5 54.7001C146.8 55.0001 146.5 55.7001 146.8 60.3001C147.1 63.9001 146.5 67.2001 145 70.9001C143.5 74.8001 143.2 76.5001 144.1 77.0001C146 78.2001 131.8 109 122.2 124.4C119.6 128.6 120.2 130 124.9 130C129.2 130 131.7 126.2 138 110.4C144.1 95.4001 144.2 95.1001 146.6 96.1001C153.1 98.5001 161.4 96.3001 168.1 90.2001C174.5 84.4001 180.2 73.1001 180.8 65.0001C181.2 59.7001 181 58.9001 178.7 56.6001C173.4 51.3001 167.4 54.2001 158.2 66.5001C155.7 69.8001 154 71.6001 154.4 70.5001C154.8 69.4001 155.4 65.2001 155.7 61.2001L156.3 54.0001L153.4 54.1001C151.8 54.2001 149.6 54.5001 148.5 54.7001ZM173.8 58.2001C179 63.4001 165.1 87.4001 153.6 92.9001C149.4 95.0001 146 94.9001 146 92.7001C146 90.0001 160 67.0001 164.6 62.3001C169.7 56.9001 171.7 56.1001 173.8 58.2001Z" fill="black"/>
<path d="M773.5 55.8C762.9 60.8 753.3 79.2 756.1 89.2C757.8 95.6 763.1 98 772.5 96.6C777.8 95.8 782.9 91.8 787.2 85.1L790 80.6001V85.4C790 95.7 796.4 99.9001 805.2 95.4C808.1 93.9 808.6 93.9 811.1 95.4C817.5 99.2001 824 96.2 830 86.8C834.9 79.3 835.1 79.9 830.5 89C828.6 92.8 827 96.2 827 96.5C827 96.9 828.7 97 830.7 96.8C834.1 96.5 834.6 96 839.3 88C845 78.4 856.6 66 859.9 66C862.8 66 862.6 67 858 75.4001C855.8 79.4001 853.7 84.7 853.4 87.2C852.8 91.3 853.1 92.1 855.3 94.4C861.8 100.9 870.9 94.9001 879.1 78.7001C883.2 70.7 880.9 71.6 876 79.9001C868.9 92.1001 864.1 96.6 861.3 93.7C859 91.4 861 84.4 868.5 69.4C872 62.3 874.7 56.3 874.4 56.1C873.6 55.2 866.6 58.2 861 61.8C858 63.7 852.6 68.2 849 71.9L842.6 78.4001L846.4 71.5C848.6 67.6 851.6 62.7 853.2 60.5L856.1 56.5L853.8 55.9C848.6 54.6 847 56.2 839.5 70.2C837 74.8 835 78.1001 835 77.7001C835 77.2001 835.5 76.0001 836 75.0001C836.6 73.8001 836.7 72.9 836 72.5C835.5 72.2 833.4 75.2001 831.4 79.2001C824.8 92.2001 820.3 96.2 814.7 94.1C813.2 93.5 812 92.8 812 92.5C812 92.1 814 89 816.5 85.5C819 82.1 821.7 77.3001 822.6 74.9001C824.7 69 824.7 60.7 822.6 57.5C818.1 50.7 805.6 54.6 798 65.3C796.3 67.6 793.9 70.6 792.7 72C791.4 73.4 789.1 76.7001 787.5 79.5001C782.9 87.7001 780.1 90.8 775.4 93C763.6 98.8 758.5 88.3001 765.6 73C768.9 65.9 774.1 59.7 778.4 57.6C784.8 54.6 786.9 58 783 65.3C781 68.9 781 69 782.9 69C787.4 69 790.6 60.6 787.7 56.6C785.7 53.9 778.4 53.5 773.5 55.8ZM820 59.5C822 61.9 820.7 71.7 817.5 78.4001C814.7 84.2001 814.6 84.3001 813.2 82.2001C809.2 76.2001 803.5 83.5 807.1 90.1C808 91.8 807.6 92.3 804.5 93.6C801.8 94.7 800.5 94.8 798.8 93.9C797 92.9 796.8 92.2 797.3 87.1C798.7 71.6 814.3 52.6 820 59.5Z" fill="black"/>
<path d="M1145.5 54.7001C1143.8 55.0001 1143.5 55.7001 1143.8 60.3001C1144.1 63.9001 1143.5 67.2001 1142 70.9001C1140.5 74.8001 1140.2 76.5001 1141.1 77.0001C1143 78.2001 1128.8 109 1119.2 124.4C1116.6 128.6 1117.2 130 1121.9 130C1126.2 130 1128.7 126.2 1135 110.4C1141.1 95.4001 1141.2 95.1001 1143.6 96.1001C1150.1 98.5001 1158.4 96.3001 1165.1 90.2001C1171.5 84.4001 1177.2 73.1001 1177.8 65.0001C1178.2 59.7001 1178 58.9001 1175.7 56.6001C1170.4 51.3001 1164.4 54.2001 1155.2 66.5001C1152.7 69.8001 1151 71.6001 1151.4 70.5001C1151.8 69.4001 1152.4 65.2001 1152.7 61.2001L1153.3 54.0001L1150.4 54.1001C1148.8 54.2001 1146.6 54.5001 1145.5 54.7001ZM1170.8 58.2001C1176 63.4001 1162.1 87.4001 1150.6 92.9001C1146.4 95.0001 1143 94.9001 1143 92.7001C1143 90.0001 1157 67.0001 1161.6 62.3001C1166.7 56.9001 1168.7 56.1001 1170.8 58.2001Z" fill="black"/>
<path d="M1196.2 54.7001C1194.6 55.3001 1184.8 74.9001 1185.3 76.4001C1185.5 77.0001 1184.9 79.3001 1183.9 81.5001C1181.1 87.5001 1181.4 92.4001 1184.6 94.9001C1186.1 96.1001 1188.5 97.0001 1190.1 97.0001C1193.3 97.0001 1198.8 92.7001 1203 86.8001L1205.6 83.2001V88.2001C1205.5 92.3001 1205.9 93.5001 1208 95.2001C1213.8 99.9001 1221.2 94.8001 1228.4 81.0001C1233.5 71.4001 1232.4 69.8001 1227.2 79.2001C1222.7 87.4001 1217.2 94.0001 1214.8 94.0001C1211.6 94.0001 1210.6 91.3001 1211.8 85.9001C1213.4 79.2001 1222.5 60.2001 1225.7 56.8001L1228.4 54.0001H1223.8C1218.2 54.0001 1217.8 54.4001 1210.6 68.9001C1203.7 82.6001 1197.6 91.6001 1193.8 93.6001C1190 95.5001 1189 94.7001 1189 89.9001C1189 85.2001 1198.5 63.7001 1203.1 57.7001L1206.1 54.0001L1201.8 54.1001C1199.4 54.1001 1196.9 54.4001 1196.2 54.7001Z" fill="black"/>
<path d="M1430.9 55.4C1423.4 58.1 1417.7 63.8 1412.4 74C1410.2 78.4 1409.6 80.9 1409.5 86.3C1409.5 92.3 1409.8 93.4 1411.9 95.1C1416.5 98.8 1422.2 96.5 1428.8 88.1L1432.7 83.2L1432.2 87.6C1431.3 95.9 1437.2 100.2 1443.5 95.9C1447.8 92.9 1458 77.6 1458 74C1458 71.5 1456.3 73.5 1453.2 79.4C1451.4 82.9 1448.3 87.6 1446.4 89.9C1436.3 101.6 1436.7 86.6 1446.8 70.1C1448.6 67.3 1450 64.8 1450 64.5C1450 64.2 1448.2 64 1446 64C1441.7 64 1440.2 65.6 1433 78.4C1428.3 86.7 1420.9 94.3 1417.9 93.8C1409.7 92.7 1421.1 68.4 1433.7 60.1C1439.1 56.5 1442.2 56.2 1445 59C1447.5 61.5 1449.3 61.6 1448.8 59.2C1448.4 56.9 1442.3 54 1438 54C1436.1 54.1 1432.9 54.7 1430.9 55.4Z" fill="black"/>
<path d="M1471.3 56.1C1470.2 56.5 1467.6 59.5 1465.7 62.7C1462.6 67.8 1449 95.5 1449 96.7C1449 96.9 1450.7 97 1452.7 96.8C1456.1 96.5 1456.6 96 1461.3 88C1467 78.4 1478.6 66 1481.9 66C1484.8 66 1484.6 67 1480 75.4C1477.8 79.4 1475.7 84.7 1475.4 87.2C1474.8 91.3 1475.1 92.1 1477.3 94.4C1483.8 100.9 1492.9 94.9 1501.1 78.7C1505.2 70.7 1502.9 71.6 1498 79.9C1490.9 92.1 1486.1 96.6 1483.3 93.7C1481 91.4 1483 84.4 1490.5 69.4C1494 62.3 1496.7 56.3 1496.4 56.1C1495.6 55.2 1488.6 58.2 1483 61.8C1480 63.7 1474.6 68.2 1471 71.9L1464.6 78.4L1468.4 71.5C1470.5 67.6 1473.3 63.1 1474.5 61.5C1475.7 59.8 1476.9 58 1477.3 57.4C1478.2 55.9 1474.1 55.1 1471.3 56.1Z" fill="black"/>
<path d="M1249 143.5C1241.2 145.7 1230.5 151.2 1223.7 156.5C1218.7 160.5 1213.4 166.7 1208 174.9L1206.4 177.2L1203.7 172.2C1199.4 164.3 1200.3 152.7 1205.7 146.8C1206.6 145.8 1207 144.7 1206.7 144.3C1205.6 143.2 1201.9 147.2 1199.4 152.2C1195.5 159.9 1196.4 169.6 1201.6 176.7C1204.5 180.6 1204.6 180.3 1201.5 189.5C1199.6 195 1198.9 199.2 1198.9 204.9C1198.9 213.9 1199.5 216.8 1202.6 223.1C1212 241.9 1234.7 243 1260.4 225.6C1264.2 223.1 1267.4 221.1 1267.6 221.3C1268.3 222 1261.2 241.1 1258.3 246.1L1255.3 251.5L1243.4 252.1C1219.4 253.4 1203.1 258.6 1191.9 268.7C1184.9 275 1186 281.3 1194.8 285.2C1208 291.1 1233.5 281.3 1251.5 263.6L1260.5 254.8L1272 255.4C1278.3 255.7 1285.2 256.3 1287.4 256.6C1293.2 257.6 1291 255.4 1284.7 254C1281.9 253.4 1275.4 252.6 1270.3 252.3L1261.2 251.7L1264 247.1C1272.8 232.9 1279.3 214.5 1277.4 209.2C1275.3 203.1 1269 206.7 1262.8 217.3C1258.2 225.3 1244.8 232.5 1232.6 233.7C1220.9 234.7 1213.2 230.5 1209 220.8C1207 216.2 1206.8 214.4 1207.3 206.5C1207.9 195.5 1211.2 185.4 1213.8 186.6C1214.8 187 1219.3 188.7 1224 190.4C1231.9 193.2 1233.4 193.4 1246 193.4C1257.4 193.4 1260.5 193 1266 191.1C1277.4 187.1 1284.7 181.6 1288.6 173.9C1294.4 162.3 1289.6 150.7 1276.5 144.9C1270.1 142.1 1256.8 141.4 1249 143.5ZM1276.8 148.9C1295.8 158.6 1282.6 182.7 1255.2 188.6C1247.1 190.3 1239.4 190.4 1231.5 188.9C1224.3 187.6 1215 183.6 1215 181.8C1215 179.2 1223.2 168.1 1229.5 162.2C1237.1 155.1 1243 151.4 1252 148.2C1260 145.4 1270.5 145.7 1276.8 148.9ZM1249.8 259.1C1236.6 275.5 1203 288.4 1194.8 280.2C1193 278.4 1192.9 278 1194.3 275.4C1197.5 269.2 1213.7 260.4 1227 257.6C1235.5 255.8 1239.1 255.4 1247.3 255.2L1253.1 255L1249.8 259.1Z" fill="black"/>
<path d="M831.2 145.4C820 149.1 810.6 155.2 800.5 165.4C790.3 175.7 784.7 185.2 782.8 195.7C780.5 208.1 785.5 218.9 796 224.3C800.8 226.8 802.3 227.1 807.6 226.7C822.4 225.6 837 211.2 837 197.7C837 193.7 836.5 192.4 834.1 189.9C831.6 187.5 830.3 187 826.1 187C823.4 187 820.8 187.4 820.5 188C820.1 188.6 821.4 189 823.8 189C833 189 835.5 196.2 830.1 207.5C822.2 224.2 805.5 229.7 794.9 219.1C784.8 209 788 188.2 802.5 170.8C817 153.2 840 141.6 851.2 146.3C858 149.1 860.3 156.1 858.8 168.8C857.1 183.1 846.8 212.2 835.3 234.9C831.9 241.7 829.3 247.7 829.6 248.2C830.4 249.4 835.4 249.2 837.2 247.7C838.1 247.1 842.5 238.7 846.9 229.2C858 205.1 865 192.8 876 178.2C889.2 160.7 895.9 156 900.5 161C902 162.7 902.2 164.1 901.7 170.2C900.3 187.9 894.3 207.8 883.9 228.7C880.1 236.6 877.2 243.4 877.5 244C878.4 245.4 883.3 245.2 885.2 243.7C886 243.1 888.8 238.4 891.5 233.5C898.5 220.2 917.7 191.7 926.3 181.9C934.3 172.8 945 164.7 948.4 165.2C952.2 165.7 951.1 172.9 945.1 186.5C935 209.4 930.9 219.8 929.4 227.2C926.1 243 931.2 252.3 944.5 254.7C947.3 255.2 950.1 255.5 950.8 255.2C952.9 254.5 951 253 947.9 253C940.7 253 936 246.9 936 237.6C936 227.7 943.3 206.4 954 185.1C964.1 164.6 960.4 154.4 945.4 161.4C936 165.8 920.9 182 905.6 204C902.3 208.7 899.3 212.9 898.9 213.4C898.5 213.9 900.1 208 902.5 200.4C910.9 174.2 911.6 160.9 905 157.5C894.5 152.1 880 163.4 865 188.8C861.1 195.5 857.9 199.4 859.2 195.8C861.6 189.7 865.1 176.9 866 171.4C869.6 148.7 855 137.7 831.2 145.4Z" fill="black"/>
<path d="M409.2 166.9C408.5 167.3 404.2 174.9 399.6 183.6C394 194.5 390.9 199.4 389.9 199.1C376.6 195.7 365.6 202.2 358.2 217.7C353.4 227.9 353.1 235 357.3 238.6C362.4 243 368.7 241.1 374.2 233.4L377.5 228.8L378.2 233.1C379.7 241.9 386.9 243.4 394.2 236.3C398.5 232.1 406.6 217.5 405 216.5C404.5 216.2 402.7 218.5 401.1 221.7C394.7 234.3 388.7 240.1 385.3 236.8C383.9 235.4 383.9 234.5 384.9 230.3C386.7 223.4 407.8 183.2 417.4 168.7L419.2 166H414.9C412.5 166 409.9 166.4 409.2 166.9ZM388.9 200.9C390 201.6 389.3 203.4 385.5 210.1C374.5 229.3 367.5 237.6 363.2 236.8C361.8 236.5 361.5 235.4 361.5 230.9C361.5 224.2 365.6 216.7 373.7 208.3C380.2 201.6 385.7 198.9 388.9 200.9Z" fill="black"/>
<path d="M1066.2 167.1C1063.2 168.2 1061.1 171.7 1048.7 195.9C1042.4 208.2 1037 217.6 1036.8 216.9C1036.4 216 1035.6 216.7 1034.4 218.8C1028.5 229.3 1024.3 234.5 1019.8 236.8C1004.4 244.7 1001.4 224.6 1015.5 207.4C1019.2 202.9 1024.9 199.6 1027.4 200.6C1029.6 201.4 1029.4 204.8 1027 209.3C1025 212.9 1025 213 1026.9 213C1031.4 213 1034.6 204.6 1031.7 200.7C1029.8 198 1023.7 197.5 1018.6 199.4C1009.5 202.9 1000 217.5 999.7 228.3C999.5 237 1003.3 241 1011.8 241C1018.7 241 1022.6 239.2 1027.5 233.8L1032.1 228.6L1029.6 234.4C1028.2 237.6 1027 240.4 1027 240.6C1027 240.8 1028.5 241 1030.4 241C1033.5 241 1034 240.5 1038.5 232.8C1044.1 223.2 1056.4 210 1059.8 210C1061 210 1062 210.4 1062 210.9C1062 211.4 1060 215.7 1057.5 220.4C1052.1 230.9 1051.6 235.7 1055.6 238.9C1061.9 243.9 1069.2 239.6 1076.4 227L1078.5 223.3V230.2C1078.5 236.3 1078.8 237.4 1080.9 239.1C1085.5 242.8 1091.2 240.5 1097.8 232.1L1101.7 227.2L1101.2 231.6C1100 242.9 1110.7 245.1 1117.6 234.8C1119.7 231.7 1121 231.2 1121 233.6C1121 234.4 1122.3 236.4 1123.9 238C1126.6 240.7 1127.1 240.9 1135.6 240.8C1145.8 240.8 1148.3 239.8 1153.3 234C1156.4 230.4 1163 219.2 1163 217.6C1163 215.4 1160.7 217.9 1157.6 223.4C1152.8 231.9 1149.3 236 1145.3 237.6C1140.1 239.8 1139.4 239.2 1142.7 235.7C1144.4 234 1146.3 231.5 1146.9 230.3C1148.7 226.7 1148.2 220.3 1145.4 213.8C1140.8 202.9 1142.4 195 1149.2 195C1152.6 195 1152.9 193.4 1149.6 192.8C1146.7 192.2 1142.1 194 1140 196.5C1139.2 197.5 1135.4 204.2 1131.7 211.4C1127.9 218.6 1125.2 223.6 1125.5 222.5C1128.2 214.7 1126.5 215.1 1122.2 223.4C1120.4 226.9 1117.3 231.6 1115.4 233.9C1105.3 245.6 1105.7 230.6 1115.8 214.1C1117.6 211.3 1119 208.8 1119 208.5C1119 208.2 1117.2 208 1115 208C1110.7 208 1109.2 209.6 1102 222.4C1097.3 230.7 1089.9 238.3 1086.9 237.8C1078.7 236.7 1090.1 212.4 1102.7 204.1C1108.1 200.5 1111.2 200.2 1114 203C1116.4 205.4 1118 205.6 1118 203.5C1118 201.4 1113.8 198.9 1109.3 198.3C1100.8 197.2 1091.6 202.2 1085.2 211.5C1083.4 214.2 1081.3 216.5 1080.7 216.5C1080.1 216.5 1078.7 218.1 1077.6 220C1069.4 234.6 1063.6 240.7 1061 237.5C1059 235.1 1061.6 226.9 1068.6 213.2L1075 200.7L1071.4 201.3C1066.3 202.1 1057.9 207.4 1050.1 214.5L1043.6 220.5L1051 206.5C1059.9 189.4 1068.4 174.6 1071.6 170.4L1073.9 167.2L1071.1 166.8C1069.5 166.6 1067.3 166.7 1066.2 167.1ZM1140.1 229.1C1139.5 231.1 1138.1 233.9 1137.1 235.1C1135.2 237.4 1135.2 237.4 1133.1 235.6C1132 234.6 1130.8 232.1 1130.5 230.1C1130.2 228.1 1129.5 225.8 1129.1 225C1128.5 224 1130 220 1133.4 213.2L1138.5 202.9L1139.9 214.1C1140.9 222.6 1141 226.2 1140.1 229.1ZM1129.7 233.7C1130.6 235.8 1131.6 237.8 1131.8 238.2C1132.6 239.9 1129.2 238.9 1127.5 237C1126.3 235.7 1126 234.3 1126.4 232.5C1127.2 229.2 1127.7 229.3 1129.7 233.7Z" fill="black"/>
<path d="M1565.3 166.8C1563.8 167.8 1531.8 227.1 1532.5 227.8C1533.1 228.5 1530.9 231.6 1551.7 201.5C1569.6 175.6 1575 167.5 1575 166.5C1575 165.7 1566.6 165.9 1565.3 166.8Z" fill="black"/>
<path d="M228.5 170.9C222.2 173.8 213.6 183.9 211.5 190.7C210.4 194.6 212.7 193.2 214.9 188.7C219.4 179.5 227.2 173 233.9 173C240.7 173 241.1 180.1 234.8 190.8C230.6 198 203.1 226 200.2 226C197.9 226 185.3 239.3 187 239.8C188 240.2 189 239.6 194.5 235.5C196.3 234.2 197.3 234.4 205 237.5C209.7 239.4 214.7 241 216.1 241C219.2 241 224.8 237.4 230.8 231.7C236.5 226.1 236.2 223.8 230.3 228.9C223.3 235.2 220.5 235.3 208.6 229.7L203.6 227.4L212.6 220C226.2 208.7 239.8 195.2 244.1 188.6C249.7 180.1 249.3 173.8 243 170.5C239.1 168.5 233.4 168.6 228.5 170.9Z" fill="black"/>
<path d="M293.7 170.4C275 177.1 252.6 213.5 257 230C260.5 242.9 273.7 244.6 287.1 233.8C302.9 221.1 316.6 187.1 310.9 174.7C308.5 169.4 301.5 167.7 293.7 170.4ZM304.9 172.9C308 176 308.3 180.7 306.1 189.1C298.9 217.1 279.7 242.2 268.7 238.1C261.6 235.4 263.2 221.8 272.8 202.5C284.5 179 298.3 166.3 304.9 172.9Z" fill="black"/>
<path d="M1418.2 184.5C1415.8 187.6 1416.4 190.8 1419.5 191.6C1422.6 192.4 1425.8 190.5 1426.6 187.5C1427.9 182.2 1421.7 180 1418.2 184.5Z" fill="black"/>
<path d="M599.2 187.2C598.7 187.9 597.3 192.2 596.1 196.7C593.9 205.3 587 222.5 584.9 224.4C584.3 225 584.7 223.6 585.9 221.3C588.3 216.5 588.4 216 587 216C586.5 216 584.7 218.7 583 222C578 232 570.3 239 564.5 239C561.8 239 559 235.2 559 231.6C559 224.3 560 222.2 563.6 221.5C574.6 219.5 584 211.4 584.2 203.9C584.4 198.3 578.4 196.3 571.4 199.6C561.5 204.3 553.1 216.5 552.3 227.4C551.8 233 552 233.9 554.4 236.7C558.9 242 567.3 242.3 574.4 237.5C576.4 236.1 578.6 235.1 579.2 235.3C581.1 235.6 587.6 225.4 592.2 214.7C595.1 208.2 597 205 598.1 205C601.2 205 606 207.2 606 208.6C606 209.4 604 213.9 601.5 218.6C597.4 226.3 596.9 227.9 597.2 232.8C597.5 237.7 597.9 238.6 600.1 239.9C605.8 243.1 612.7 237.8 619.3 225.2C624.8 214.7 623.3 214.1 617.5 224.4C612.7 233 607.8 238.5 605.6 237.7C605 237.5 604.5 235.3 604.6 232.9C604.6 229.7 606.2 225.2 610.3 216.4C613.4 209.8 616 203.8 616 203.2C616 202.4 613.4 202 607.4 202H598.7L601.3 200C602.7 198.9 604.4 196.4 605 194.4C606 191.5 605.9 190.5 604.6 188.5C602.8 185.8 600.8 185.3 599.2 187.2ZM580.8 202.8C581.3 206 577.2 212.6 573.1 215.4C569.6 217.8 562 220.4 562 219.3C562 217.5 568.7 208.6 573.1 204.5C578.3 199.6 580.3 199.2 580.8 202.8Z" fill="black"/>
<path d="M1300.2 187.2C1299.7 187.9 1298.3 192.1 1297.2 196.5C1294.4 207.4 1288.8 220.3 1283.6 228.4C1281.2 232 1279.6 235.2 1280 235.5C1281.8 236.6 1290.3 222.7 1295.1 210.7C1296.6 207 1297.9 205 1299 205C1302.2 205 1307 207.2 1307 208.6C1307 209.4 1305 213.9 1302.5 218.6C1298.4 226.3 1297.9 227.9 1298.2 232.8C1298.5 237.7 1298.9 238.6 1301.1 239.9C1306.2 242.8 1312.4 238.9 1318.2 229L1321.5 223.4V230.3C1321.5 236.3 1321.8 237.4 1323.9 239.1C1328.5 242.8 1334.2 240.5 1340.8 232.1L1344.7 227.2L1344.2 231.6C1343.3 239.9 1349.2 244.2 1355.5 239.9C1359.8 236.9 1370 221.6 1370 218C1370 215.5 1368.3 217.5 1365.2 223.4C1363.4 226.9 1360.3 231.6 1358.4 233.9C1348.3 245.6 1348.7 230.6 1358.8 214.1C1360.6 211.3 1362 208.8 1362 208.5C1362 208.2 1360.2 208 1358 208C1353.7 208 1352.2 209.6 1345 222.4C1340.3 230.7 1332.9 238.3 1329.9 237.8C1321.7 236.7 1333.1 212.4 1345.7 204.1C1351.1 200.5 1354.2 200.2 1357 203C1359.5 205.5 1361.3 205.6 1360.8 203.2C1360.2 200.2 1354.1 197.8 1348.2 198.4C1339.7 199.2 1330.7 205.8 1326.1 214.8C1325.4 216 1324.5 216.8 1324.1 216.5C1323.6 216.3 1321.1 219.9 1318.4 224.6C1313.7 233 1308.8 238.5 1306.6 237.7C1306 237.5 1305.5 235.3 1305.6 232.9C1305.6 229.7 1307.2 225.2 1311.3 216.4C1314.4 209.8 1317 203.8 1317 203.2C1317 202.4 1314.4 202 1308.4 202H1299.7L1302.3 200C1303.7 198.9 1305.4 196.4 1306 194.4C1307 191.5 1306.9 190.5 1305.6 188.5C1303.8 185.8 1301.8 185.3 1300.2 187.2Z" fill="black"/>
<path d="M1494.2 193.5C1490.7 195 1488.5 198 1483.1 208.7C1480.8 213.3 1478.4 217 1477.7 217C1477.1 217 1475 219.9 1473.2 223.4C1471.4 226.9 1468.3 231.6 1466.4 233.9C1456.3 245.6 1456.7 230.6 1466.8 214.1C1468.6 211.3 1470 208.8 1470 208.5C1470 208.2 1468.2 208 1466 208C1461.7 208 1460.2 209.6 1453 222.4C1448.3 230.7 1440.9 238.3 1437.9 237.8C1429.7 236.7 1441.1 212.4 1453.7 204.1C1459.1 200.5 1462.2 200.2 1465 203C1467.5 205.5 1469.3 205.6 1468.8 203.2C1468.2 200.2 1462.1 197.8 1456.2 198.4C1446.6 199.3 1438.7 205.8 1432.4 218C1430.2 222.4 1429.6 224.9 1429.5 230.3C1429.5 236.3 1429.8 237.4 1431.9 239.1C1436.5 242.8 1442.2 240.5 1448.8 232.1L1452.7 227.2L1452.2 231.6C1451.6 236.8 1453.6 240.4 1457.6 241.4C1460.6 242.2 1464.8 239.7 1468.4 235.2L1470.2 232.9L1472.1 235.9C1474.7 240.2 1476.5 240.8 1486 240.8C1495.8 240.8 1498.3 239.8 1503.3 234C1506.4 230.4 1513 219.2 1513 217.6C1513 215.4 1510.7 217.9 1507.6 223.4C1502.8 231.9 1499.3 236 1495.3 237.6C1490.1 239.8 1489.4 239.2 1492.7 235.7C1494.4 234 1496.3 231.5 1496.9 230.3C1498.7 226.7 1498.2 220.3 1495.4 213.8C1490.8 202.9 1492.4 195 1499.2 195C1500.7 195 1502 194.6 1502 194.1C1502 192.6 1497.3 192.3 1494.2 193.5ZM1490.1 229.1C1489.5 231.1 1488.1 233.9 1487.1 235.1C1485.2 237.4 1485.2 237.4 1483.1 235.6C1482 234.6 1480.8 232.1 1480.5 230.1C1480.2 228.1 1479.5 225.8 1479.1 225C1478.5 224 1480 220 1483.4 213.2L1488.5 202.9L1489.9 214.1C1490.9 222.6 1491 226.2 1490.1 229.1ZM1479.7 233.7C1480.6 235.8 1481.6 237.8 1481.8 238.2C1482.6 239.9 1479.2 238.9 1477.5 237C1476.3 235.7 1476 234.3 1476.4 232.5C1477.2 229.2 1477.7 229.3 1479.7 233.7Z" fill="black"/>
<path d="M423.2 199.6C413.4 204.5 405.1 216.6 404.3 227.5C403.8 233.2 404 233.9 406.6 236.9C412.4 243.3 423.8 241.8 430.4 233.7C433.3 230.1 440 218.1 440 216.5C440 216.2 439.6 216 439 216C438.5 216 436.7 218.7 435 222C430 232 422.3 239 416.5 239C413.8 239 411 235.2 411 231.6C411 224.3 412 222.2 415.6 221.5C426.6 219.5 436 211.4 436.2 203.9C436.4 198.3 430.2 196.2 423.2 199.6ZM432.8 202.8C433.3 206 429.2 212.6 425.1 215.4C421.6 217.8 414 220.4 414 219.3C414 217.5 420.7 208.6 425.1 204.5C430.3 199.6 432.3 199.2 432.8 202.8Z" fill="black"/>
<path d="M492.2 199.6C482.4 204.5 474.1 216.6 473.3 227.5C472.8 233.2 473 233.9 475.6 236.9C481.4 243.3 492.8 241.8 499.4 233.7C502.3 230.1 509 218.1 509 216.5C509 216.2 508.6 216 508 216C507.5 216 505.7 218.7 504 222C499 232 491.3 239 485.5 239C482.8 239 480 235.2 480 231.6C480 224.3 481 222.2 484.6 221.5C495.6 219.5 505 211.4 505.2 203.9C505.4 198.3 499.2 196.2 492.2 199.6ZM501.8 202.8C502.3 206 498.2 212.6 494.1 215.4C490.6 217.8 483 220.4 483 219.3C483 217.5 489.7 208.6 494.1 204.5C499.3 199.6 501.3 199.2 501.8 202.8Z" fill="black"/>
<path d="M640.2 200.1C629.2 205.6 619.7 223.8 622.4 234.5C623.9 240.6 630.6 242.8 637.2 239.4C640.1 237.9 640.6 237.9 643.1 239.4C651.1 244.1 659.7 237.9 666.5 222.5C670.2 214.3 667.6 214.8 663.4 223.2C656.8 236.2 652.3 240.2 646.7 238.1C645.2 237.5 644 236.8 644 236.5C644 236.1 646 233 648.5 229.5C653.3 222.8 655.7 217.3 656.1 211.9C656.5 205.3 656 202.9 653.5 200.5C650.5 197.4 646 197.3 640.2 200.1ZM652 203.5C654 205.9 652.7 215.7 649.5 222.4C646.7 228.2 646.6 228.3 645.2 226.2C641.2 220.2 635.5 227.5 639.1 234.1C640 235.8 639.6 236.3 636.5 237.6C633.8 238.7 632.5 238.8 630.8 237.9C629 236.9 628.8 236.2 629.3 231.1C630.7 215.6 646.3 196.6 652 203.5Z" fill="black"/>
<path d="M965.2 198.7C963.6 199.3 953.8 218.9 954.3 220.4C954.5 221 953.9 223.3 952.9 225.5C950.1 231.5 950.4 236.4 953.6 238.9C955.1 240.1 957.5 241 959.1 241C962.3 241 967.8 236.7 972 230.8L974.6 227.2V232.2C974.5 236.3 974.9 237.5 977 239.2C982.8 243.9 990.2 238.8 997.4 225C1002.5 215.4 1001.4 213.8 996.2 223.2C991.7 231.4 986.2 238 983.8 238C980.6 238 979.6 235.3 980.8 229.9C982.4 223.2 991.5 204.2 994.7 200.8L997.4 198H992.8C987.2 198 986.8 198.4 979.6 212.9C972.7 226.6 966.6 235.6 962.8 237.6C959 239.5 958 238.7 958 233.9C958 229.2 967.5 207.7 972.1 201.7L975.1 198L970.8 198.1C968.4 198.1 965.9 198.4 965.2 198.7Z" fill="black"/>
<path d="M1387.5 199.8C1378.8 203.9 1370 218 1369.7 228.3C1369.5 237 1373.3 241 1381.8 241C1389.9 241 1394.3 238.5 1400.3 230.5L1403.3 226.5L1402.7 229.7C1401.9 233.6 1403.6 238.7 1406 240C1412.3 243.4 1420.2 237.9 1426.5 225.9C1432 215.4 1430.2 215.6 1423.9 226.2C1419.9 232.9 1417.4 236 1414.8 237.5C1411.8 239.1 1410.9 239.2 1409.6 238.1C1408.7 237.4 1408 235.9 1408 234.8C1408 233.7 1410.9 226 1414.5 217.7C1418.1 209.4 1421 202 1421 201.3C1421 199.9 1417.1 198.6 1414.3 199.2C1413.2 199.4 1412.4 200.5 1412.2 202C1411.7 206.1 1407.9 215.8 1406.5 216.3C1405.9 216.6 1403.8 219.5 1402 222.7C1397 231.6 1394.2 234.7 1389.4 237C1377.6 242.8 1372.5 232.3 1379.6 217C1382.9 209.9 1388.1 203.7 1392.4 201.6C1398.8 198.6 1400.9 202 1397 209.3C1395 212.9 1395 213 1396.9 213C1401.4 213 1404.6 204.6 1401.7 200.6C1399.7 197.9 1392.4 197.5 1387.5 199.8Z" fill="black"/>
<path d="M521.3 200.1C520.2 200.5 517.6 203.5 515.7 206.7C512.6 211.8 499 239.5 499 240.7C499 240.9 500.7 241 502.7 240.8C506.1 240.5 506.6 240 511.3 232C517 222.4 528.6 210 531.9 210C534.8 210 534.6 211 530 219.4C527.8 223.4 525.7 228.7 525.4 231.2C524.8 235.3 525.1 236.1 527.3 238.4C533.8 244.9 542.9 238.9 551.1 222.7C555.2 214.7 552.9 215.6 548 223.9C540.9 236.1 536.1 240.6 533.3 237.7C531 235.4 533 228.4 540.5 213.4C544 206.3 546.7 200.3 546.4 200.1C545.6 199.2 538.6 202.2 533 205.8C530 207.7 524.6 212.2 521 215.9L514.6 222.4L518.4 215.5C520.5 211.6 523.3 207.1 524.5 205.5C525.7 203.8 526.9 202 527.3 201.4C528.2 199.9 524.1 199.1 521.3 200.1Z" fill="black"/>
<path d="M765 202C762.7 204.3 762.5 205.9 764.3 208.4C766.1 210.8 769.8 210.1 772.3 206.9C776.2 201.6 769.7 197.3 765 202Z" fill="black"/>
<path d="M751.6 231.8C731.8 260.2 722 274.8 722 275.9C722 277.4 729.2 277.3 731.2 275.7C732.6 274.7 764 217.8 764 216.4C764 214.5 761 218.2 751.6 231.8Z" fill="black"/>
<path d="M676.7 234.8C675.7 235.8 675 237.9 675 239.3C675 244.5 683.3 243.7 684.6 238.5C685.8 233.6 680.1 231 676.7 234.8Z" fill="black"/>
<path d="M1524.6 234.9C1522.5 237.2 1522.8 240.9 1525.3 242.4C1527.6 243.9 1532.4 241.2 1532.8 238.2C1533.5 233.4 1528 231.2 1524.6 234.9Z" fill="black"/>
</svg>
